;TYPE=PLATED
;Layer: PTH_Through
;EasyEDA Pro v3.2.148, 2026-08-18 08:28:44
;Gerber Generator version 0.3
M48
METRIC,LZ,0000.00000
;Hole size 1 = 0.30000 METRIC
T01C0.30000
;Hole size 2 = 0.60000 METRIC
T02C0.60000
;Hole size 3 = 0.70000 METRIC
T03C0.70000
;Hole size 4 = 1.30000 METRIC
T04C1.30000
;Hole size 5 = 1.70000 METRIC
T05C1.70000
%
G05
G90
T01
X-18.91809Y2.15157
X-14.04443Y1.39803
X-12.06377Y-0.40583
X-12.36267Y-1.11363
X-14.13211Y7.76157
X-25.51805Y-8.38038
X-13.88522Y6.35161
X-17.5362Y-9.95851
X-19.0929Y6.33112
X-16.50982Y7.35356
X-11.91811Y0.35157
X-13.33648Y6.05315
X-29.5801Y-7.46832
X-26.31807Y-8.40635
X-11.37296Y-8.4484
X-28.81058Y-14.58298
X-17.38062Y-14.6054
X-34.66105Y-7.0484
X-31.16905Y-6.59739
X-34.27906Y-6.02672
X-26.60541Y3.55159
X-22.91804Y8.35161
X-22.66304Y6.79861
X-21.31805Y8.45362
X-26.23085Y0.6774
X-25.9672Y0.09584
X-26.51025Y1.2394
X-23.09845Y4.5188
X-23.09845Y3.69907
X-23.09845Y2.77738
X-21.2501Y2.70357
X-21.2501Y3.62856
X-21.2501Y4.55356
X-32.81907Y-6.3884
X-32.56803Y1.7516
X-24.67505Y8.73962
X-32.66805Y0.1016
X-28.06805Y0.1016
X-31.13472Y0.1016
X-29.60138Y0.1016
X-31.13471Y-0.7984
X-29.60138Y-0.7984
X-28.06804Y-0.7984
X-32.66805Y-0.7984
X-31.13472Y-1.69839
X-29.60138Y-1.69839
X-28.06805Y-1.69839
X-32.66805Y-1.69839
X-31.13472Y-2.59839
X-29.60138Y-2.59839
X-28.06805Y-2.59839
X-32.66805Y-2.59839
X-29.1612Y-4.56212
X-27.71093Y-4.64839
X-26.01808Y-4.76135
X-27.34129Y9.56411
X-14.06768Y-5.09876
X-13.11805Y-14.4484
X-9.93405Y-10.0404
X-9.11805Y10.1516
X-13.63153Y14.12689
X-33.11805Y-14.4484
X-36.45505Y-10.3974
X-14.06768Y-0.59788
X-18.56856Y-0.59788
X-16.31804Y-5.09876
X-14.21576Y2.72024
X-30.03523Y-10.44707
X-17.09461Y1.468
X-17.71196Y1.468
X-18.32932Y1.468
X-16.31804Y-0.59788
X-14.31804Y-7.4484
X-14.91804Y-7.4484
X-22.65324Y-10.41725
X-23.38044Y-10.40459
X-15.606Y-8.50738
X-22.64321Y12.70525
X-26.14303Y-0.80578
X-25.83915Y-2.22554
X-26.24897Y-2.7637
X-29.57414Y-4.10498
X-28.56762Y-5.03339
X-28.25173Y-4.36209
X-27.17012Y-4.96254
X-26.62931Y-4.66917
X-29.55537Y-5.03339
X-12.24939Y-2.05471
X-15.60317Y-7.76661
X-16.09072Y-7.34873
X-16.57826Y-6.93085
X-18.78817Y-7.04474
X-17.51785Y-7.04474
X-18.11818Y-7.04474
X-28.35627Y-11.52599
X-19.737Y0.765
X-20.349Y1.224
X-21.369Y1.479
X-20.19705Y13.32183
X-12.17464Y-5.712
X-11.80655Y-2.54863
X-12.34481Y-3.0791
X-11.7688Y-4.59762
X-16.31812Y-2.84832
X-8.058Y-5.61
X-26.571Y2.142
X-17.74814Y9.94529
X-24.684Y-2.754
X-23.17779Y-4.641
X-12.31804Y-4.04839
X-12.31804Y-5.0902
X-22.032Y-2.652
X-33.38105Y3.24961
X-34.02405Y6.88861
X-32.86408Y7.5316
X-32.86408Y5.7316
X-31.96905Y8.2886
X-31.91805Y7.15161
X-20.71206Y-5.01176
X-9.12902Y-3.31488
X-13.79304Y-8.7659
X-9.08602Y4.70758
X-9.25117Y-0.14706
X-8.58275Y1.66591
X-13.10708Y3.51921
X-9.28631Y-4.28818
X-30.33814Y12.47644
X-33.048Y4.386
X-17.79292Y6.33112
X-28.152Y12.597
X-9.11945Y-1.25549
X-29.05423Y-12.39539
X-16.42012Y1.444
X-32.21585Y12.6155
X-11.31804Y7.95161
X-12.31806Y6.75161
X-14.51804Y9.55161
X-14.11804Y12.15162
X-19.31804Y5.55161
X-18.71804Y4.15161
X-23.11823Y1.67281
X-20.99692Y-0.44833
X-35.43505Y-8.00139
X-35.36505Y-8.80139
X-33.11805Y-8.4484
X-31.11805Y-10.6484
X-31.51805Y-12.8484
X-28.71805Y-9.0484
X-28.11805Y-12.4484
X-26.31805Y-11.4484
X-26.11805Y-13.0484
X-20.19821Y-13.60941
X-14.27747Y-12.93559
X-9.87104Y-8.9504
X-10.31804Y-6.18568
X-21.71805Y-10.6484
X-17.56805Y-10.68151
X-31.11805Y-9.0484
X-26.91805Y-8.0484
X-33.05505Y9.55561
X-34.07505Y4.40261
X-8.58793Y-5.03908
X-15.504Y10.89666
X-25.73544Y7.15161
X-27.11805Y8.35161
X-24.16822Y7.15161
X-19.11453Y8.15156
X-17.10682Y8.75162
X-7.75456Y-11.24193
X-33.813Y11.628
X-34.13271Y13.617
X-29.58Y11.526
X-32.232Y11.628
X-30.957Y13.65741
X-7.48803Y-9.54535
X-28.91805Y1.95161
X-8.26704Y-7.7504
X-20.62005Y8.45362
X-20.67105Y6.75161
X-24.66808Y-7.99841
X-24.80906Y13.77087
X-26.10707Y12.00262
X-20.76809Y-2.94842
X-23.31805Y9.55161
X-21.14354Y14.86928
T02
X-35.10777Y8.87878
X-35.15777Y6.97878
X-35.10778Y11.42877
X-35.10778Y13.27877
X-37.45777Y8.87878
X-37.45777Y6.97878
X-37.50778Y13.27877
X-37.50778Y11.37877
X-35.31805Y-3.33939
X-37.51805Y-3.33939
X-37.51805Y-4.63939
X-35.31805Y-4.63939
X-37.51805Y0.20161
X-35.31805Y0.20161
X-35.31805Y-1.09839
X-37.51805Y-1.09839
X-35.31805Y3.7426
X-35.31805Y2.44259
X-37.51806Y3.7426
X-37.51806Y2.44259
X-27.44298Y-9.37336G85X-27.44298Y-10.27336
X-18.79296Y-9.37337G85X-18.79296Y-10.27339
X-27.44303Y-13.72342G85X-27.44303Y-14.32342
X-18.79306Y-13.72342G85X-18.79306Y-14.32342
T03
X-17.71804Y13.14376G85X-17.71804Y13.14376
X-16.51804Y13.14761G85X-16.51804Y13.14761
X-6.42004Y7.12061G85X-6.42004Y7.12061
X-6.42004Y4.32061G85X-6.42004Y4.32061
X-6.42004Y5.72061G85X-6.42004Y5.72061
X-18.91804Y13.14761G85X-18.91804Y13.14761
X-6.3949Y-4.91025G85X-6.3949Y-4.91025
X-6.3949Y-3.51025G85X-6.3949Y-3.51025
X-6.3949Y-2.11025G85X-6.3949Y-2.11025
X-6.3949Y-0.71024G85X-6.3949Y-0.71024
T04
X-36.41806Y-0.4484
X-36.41806Y3.09259
X-36.41806Y-3.98939
T05
X-36.30778Y7.92877
X-36.30778Y12.32877
M30