G04 Layer: BottomSilkscreenLayer*
G04 EasyEDA Pro v3.2.148, 2026-08-18 08:28:43*
G04 Gerber Generator version 0.3*
G04 Scale: 100 percent, Rotated: No, Reflected: No*
G04 Dimensions in millimeters*
G04 Leading zeros omitted, absolute positions, 4 integers and 5 decimals*
G04 Generated by one-click*
G04 Object Configs: Pad,Via,Track,Text,Image,Dimension,BoardOutline,BoardCutout,CopperFilled,SolidRegion,FPCStiffener,Line,PlaneZone,ComponentProperty,ComponentSilkscreen,TearDrop*
G04 Layer Configs: 1,15,16,2,3,4,5,6,7,8,9,10,11,13,14,56*
G04 Copper Areas: 0*
%FSLAX45Y45*%
%MOMM*%
%ADD10C,0.16*%
%ADD11C,0.5*%
%ADD12C,0.2*%
%ADD13C,0.4*%
%ADD14C,0.3*%
%ADD15C,0.2585*%
%ADD16C,0.25*%
G75*


G04 Text Start*
G54D10*
G01X-3241444Y1530934D02*
G01X-3241444Y1475816D01*
G01X-3241444Y1530934D02*
G01X-3265320Y1530934D01*
G01X-3273194Y1528394D01*
G01X-3275734Y1525600D01*
G01X-3278274Y1520520D01*
G01X-3278274Y1515186D01*
G01X-3275734Y1509852D01*
G01X-3273194Y1507312D01*
G01X-3265320Y1504772D01*
G01X-3241444Y1504772D01*
G01X-3259986Y1504772D02*
G01X-3278274Y1475816D01*
G01X-3343552Y1523060D02*
G01X-3338472Y1528394D01*
G01X-3330598Y1530934D01*
G01X-3319930Y1530934D01*
G01X-3312056Y1528394D01*
G01X-3306976Y1523060D01*
G01X-3306976Y1517726D01*
G01X-3309516Y1512646D01*
G01X-3312056Y1509852D01*
G01X-3317390Y1507312D01*
G01X-3333138Y1501978D01*
G01X-3338472Y1499438D01*
G01X-3341012Y1496898D01*
G01X-3343552Y1491564D01*
G01X-3343552Y1483690D01*
G01X-3338472Y1478356D01*
G01X-3330598Y1475816D01*
G01X-3319930Y1475816D01*
G01X-3312056Y1478356D01*
G01X-3306976Y1483690D01*
G01X-3390542Y1530934D02*
G01X-3390542Y1475816D01*
G01X-3372254Y1530934D02*
G01X-3408830Y1530934D01*
G01X-597371Y-1156766D02*
G01X-597371Y-1211884D01*
G01X-597371Y-1156766D02*
G01X-621247Y-1156766D01*
G01X-629121Y-1159306D01*
G01X-631661Y-1162100D01*
G01X-634201Y-1167180D01*
G01X-634201Y-1172514D01*
G01X-631661Y-1177848D01*
G01X-629121Y-1180388D01*
G01X-621247Y-1182928D01*
G01X-597371Y-1182928D02*
G01X-621247Y-1182928D01*
G01X-629121Y-1185722D01*
G01X-631661Y-1188262D01*
G01X-634201Y-1193596D01*
G01X-634201Y-1201470D01*
G01X-631661Y-1206550D01*
G01X-629121Y-1209344D01*
G01X-621247Y-1211884D01*
G01X-597371Y-1211884D01*
G01X-678651Y-1156766D02*
G01X-673317Y-1159306D01*
G01X-667983Y-1164640D01*
G01X-665443Y-1169974D01*
G01X-662903Y-1177848D01*
G01X-662903Y-1190802D01*
G01X-665443Y-1198676D01*
G01X-667983Y-1204010D01*
G01X-673317Y-1209344D01*
G01X-678651Y-1211884D01*
G01X-689065Y-1211884D01*
G01X-694399Y-1209344D01*
G01X-699479Y-1204010D01*
G01X-702273Y-1198676D01*
G01X-704813Y-1190802D01*
G01X-704813Y-1177848D01*
G01X-702273Y-1169974D01*
G01X-699479Y-1164640D01*
G01X-694399Y-1159306D01*
G01X-689065Y-1156766D01*
G01X-678651Y-1156766D01*
G01X-749263Y-1156766D02*
G01X-743929Y-1159306D01*
G01X-738595Y-1164640D01*
G01X-736055Y-1169974D01*
G01X-733515Y-1177848D01*
G01X-733515Y-1190802D01*
G01X-736055Y-1198676D01*
G01X-738595Y-1204010D01*
G01X-743929Y-1209344D01*
G01X-749263Y-1211884D01*
G01X-759677Y-1211884D01*
G01X-765011Y-1209344D01*
G01X-770091Y-1204010D01*
G01X-772885Y-1198676D01*
G01X-775425Y-1190802D01*
G01X-775425Y-1177848D01*
G01X-772885Y-1169974D01*
G01X-770091Y-1164640D01*
G01X-765011Y-1159306D01*
G01X-759677Y-1156766D01*
G01X-749263Y-1156766D01*
G01X-822415Y-1156766D02*
G01X-822415Y-1211884D01*
G01X-804127Y-1156766D02*
G01X-840703Y-1156766D01*
G01X-757574Y729234D02*
G01X-757574Y674116D01*
G01X-757574Y729234D02*
G01X-781450Y729234D01*
G01X-789324Y726694D01*
G01X-791864Y723900D01*
G01X-794404Y718820D01*
G01X-794404Y710946D01*
G01X-791864Y705612D01*
G01X-789324Y703072D01*
G01X-781450Y700278D01*
G01X-757574Y700278D01*
G01X-823106Y729234D02*
G01X-823106Y674116D01*
G01X-823106Y729234D02*
G01X-846728Y729234D01*
G01X-854602Y726694D01*
G01X-857142Y723900D01*
G01X-859682Y718820D01*
G01X-859682Y713486D01*
G01X-857142Y708152D01*
G01X-854602Y705612D01*
G01X-846728Y703072D01*
G01X-823106Y703072D02*
G01X-846728Y703072D01*
G01X-854602Y700278D01*
G01X-857142Y697738D01*
G01X-859682Y692404D01*
G01X-859682Y684530D01*
G01X-857142Y679450D01*
G01X-854602Y676656D01*
G01X-846728Y674116D01*
G01X-823106Y674116D01*
G01X-919880Y721360D02*
G01X-917086Y726694D01*
G01X-909212Y729234D01*
G01X-904132Y729234D01*
G01X-896258Y726694D01*
G01X-890924Y718820D01*
G01X-888384Y705612D01*
G01X-888384Y692404D01*
G01X-890924Y681990D01*
G01X-896258Y676656D01*
G01X-904132Y674116D01*
G01X-906672Y674116D01*
G01X-914546Y676656D01*
G01X-919880Y681990D01*
G01X-922420Y689864D01*
G01X-922420Y692404D01*
G01X-919880Y700278D01*
G01X-914546Y705612D01*
G01X-906672Y708152D01*
G01X-904132Y708152D01*
G01X-896258Y705612D01*
G01X-890924Y700278D01*
G01X-888384Y692404D01*
G01X-1009796Y739648D02*
G01X-1009796Y655574D01*
G01X-1077868Y716026D02*
G01X-1075074Y721360D01*
G01X-1069994Y726694D01*
G01X-1064660Y729234D01*
G01X-1054246Y729234D01*
G01X-1048912Y726694D01*
G01X-1043578Y721360D01*
G01X-1041038Y716026D01*
G01X-1038498Y708152D01*
G01X-1038498Y695198D01*
G01X-1041038Y687324D01*
G01X-1043578Y681990D01*
G01X-1048912Y676656D01*
G01X-1054246Y674116D01*
G01X-1064660Y674116D01*
G01X-1069994Y676656D01*
G01X-1075074Y681990D01*
G01X-1077868Y687324D01*
G01X-1077868Y695198D01*
G01X-1064660Y695198D02*
G01X-1077868Y695198D01*
G01X-1106570Y729234D02*
G01X-1106570Y674116D01*
G01X-1106570Y729234D02*
G01X-1130192Y729234D01*
G01X-1138066Y726694D01*
G01X-1140606Y723900D01*
G01X-1143146Y718820D01*
G01X-1143146Y710946D01*
G01X-1140606Y705612D01*
G01X-1138066Y703072D01*
G01X-1130192Y700278D01*
G01X-1106570Y700278D01*
G01X-1171848Y729234D02*
G01X-1171848Y674116D01*
G01X-1216298Y729234D02*
G01X-1210964Y726694D01*
G01X-1205630Y721360D01*
G01X-1203090Y716026D01*
G01X-1200550Y708152D01*
G01X-1200550Y695198D01*
G01X-1203090Y687324D01*
G01X-1205630Y681990D01*
G01X-1210964Y676656D01*
G01X-1216298Y674116D01*
G01X-1226712Y674116D01*
G01X-1232046Y676656D01*
G01X-1237126Y681990D01*
G01X-1239920Y687324D01*
G01X-1242460Y695198D01*
G01X-1242460Y708152D01*
G01X-1239920Y716026D01*
G01X-1237126Y721360D01*
G01X-1232046Y726694D01*
G01X-1226712Y729234D01*
G01X-1216298Y729234D01*
G01X-1271162Y739648D02*
G01X-1271162Y655574D01*
G01X-1770272Y739648D02*
G01X-1770272Y655574D01*
G01X-1817262Y729234D02*
G01X-1817262Y674116D01*
G01X-1798974Y729234D02*
G01X-1835550Y729234D01*
G01X-1864252Y729234D02*
G01X-1864252Y674116D01*
G01X-1892954Y729234D02*
G01X-1892954Y674116D01*
G01X-1892954Y729234D02*
G01X-1913782Y674116D01*
G01X-1934864Y729234D02*
G01X-1913782Y674116D01*
G01X-1934864Y729234D02*
G01X-1934864Y674116D01*
G01X-1976520Y729234D02*
G01X-1968646Y726694D01*
G01X-1966106Y721360D01*
G01X-1966106Y716026D01*
G01X-1968646Y710946D01*
G01X-1973980Y708152D01*
G01X-1984394Y705612D01*
G01X-1992268Y703072D01*
G01X-1997602Y697738D01*
G01X-2000142Y692404D01*
G01X-2000142Y684530D01*
G01X-1997602Y679450D01*
G01X-1995062Y676656D01*
G01X-1987188Y674116D01*
G01X-1976520Y674116D01*
G01X-1968646Y676656D01*
G01X-1966106Y679450D01*
G01X-1963566Y684530D01*
G01X-1963566Y692404D01*
G01X-1966106Y697738D01*
G01X-1971440Y703072D01*
G01X-1979314Y705612D01*
G01X-1989728Y708152D01*
G01X-1995062Y710946D01*
G01X-1997602Y716026D01*
G01X-1997602Y721360D01*
G01X-1995062Y726694D01*
G01X-1987188Y729234D01*
G01X-1976520Y729234D01*
G01X-2028844Y655574D02*
G01X-2076088Y655574D01*
G01X-2104790Y729234D02*
G01X-2104790Y674116D01*
G01X-2104790Y729234D02*
G01X-2138826Y729234D01*
G01X-2104790Y703072D02*
G01X-2125618Y703072D01*
G01X-2104790Y674116D02*
G01X-2138826Y674116D01*
G01X-2185816Y729234D02*
G01X-2185816Y674116D01*
G01X-2167528Y729234D02*
G01X-2204104Y729234D01*
G01X-2232806Y729234D02*
G01X-2232806Y674116D01*
G01X-2232806Y729234D02*
G01X-2256428Y729234D01*
G01X-2264302Y726694D01*
G01X-2266842Y723900D01*
G01X-2269382Y718820D01*
G01X-2269382Y713486D01*
G01X-2266842Y708152D01*
G01X-2264302Y705612D01*
G01X-2256428Y703072D01*
G01X-2232806Y703072D01*
G01X-2251094Y703072D02*
G01X-2269382Y674116D01*
G01X-2298084Y739648D02*
G01X-2298084Y655574D01*
G01X-2363362Y721360D02*
G01X-2358282Y726694D01*
G01X-2350408Y729234D01*
G01X-2339740Y729234D01*
G01X-2331866Y726694D01*
G01X-2326786Y721360D01*
G01X-2326786Y716026D01*
G01X-2329326Y710946D01*
G01X-2331866Y708152D01*
G01X-2337200Y705612D01*
G01X-2352948Y700278D01*
G01X-2358282Y697738D01*
G01X-2360822Y695198D01*
G01X-2363362Y689864D01*
G01X-2363362Y681990D01*
G01X-2358282Y676656D01*
G01X-2350408Y674116D01*
G01X-2339740Y674116D01*
G01X-2331866Y676656D01*
G01X-2326786Y681990D01*
G01X-2410352Y729234D02*
G01X-2410352Y674116D01*
G01X-2392064Y729234D02*
G01X-2428640Y729234D01*
G01X-2457342Y729234D02*
G01X-2457342Y674116D01*
G01X-2457342Y729234D02*
G01X-2491378Y729234D01*
G01X-2457342Y703072D02*
G01X-2478170Y703072D01*
G01X-2457342Y674116D02*
G01X-2491378Y674116D01*
G01X-2520080Y729234D02*
G01X-2520080Y674116D01*
G01X-2520080Y729234D02*
G01X-2543702Y729234D01*
G01X-2551576Y726694D01*
G01X-2554116Y723900D01*
G01X-2556656Y718820D01*
G01X-2556656Y710946D01*
G01X-2554116Y705612D01*
G01X-2551576Y703072D01*
G01X-2543702Y700278D01*
G01X-2520080Y700278D01*
G01X-2585358Y739648D02*
G01X-2585358Y655574D01*
G36*
G01X-3423442Y-493843D02*
G01X-3424533Y-453479D01*
G01X-3423988Y-423752D01*
G01X-3422352Y-412025D01*
G01X-3391261Y-380934D01*
G01X-3388533Y-378752D01*
G01X-3363988Y-377661D01*
G01X-3340534Y-377661D01*
G01X-3340534Y-424570D01*
G01X-3344352Y-425116D01*
G01X-3361261Y-425661D01*
G01X-3375443Y-425116D01*
G01X-3376261Y-431934D01*
G01X-3376534Y-453479D01*
G01X-3376534Y-482388D01*
G01X-3224897Y-482388D01*
G01X-3224897Y-424570D01*
G01X-3229806Y-425116D01*
G01X-3246715Y-425661D01*
G01X-3260352Y-424570D01*
G01X-3261579Y-418025D01*
G01X-3261988Y-400570D01*
G01X-3261988Y-377661D01*
G01X-3237443Y-377661D01*
G01X-3218761Y-378070D01*
G01X-3211806Y-379298D01*
G01X-3181806Y-409297D01*
G01X-3179079Y-412570D01*
G01X-3177988Y-454570D01*
G01X-3178397Y-484706D01*
G01X-3179624Y-495479D01*
G01X-3209624Y-525479D01*
G01X-3213443Y-527661D01*
G01X-3303442Y-528207D01*
G01X-3369170Y-527797D01*
G01X-3391806Y-526570D01*
G01X-3393988Y-523843D01*
G01X-3420715Y-497116D01*
G01X-3423442Y-493843D01*
G37*
G36*
G01X-3301261Y-128206D02*
G01X-3424533Y-128206D01*
G01X-3424533Y-71479D01*
G01X-3424299Y-52934D01*
G01X-3376534Y-52934D01*
G01X-3375988Y-81843D01*
G01X-3375988Y-81843D01*
G01X-3350352Y-82388D01*
G01X-3325261Y-82388D01*
G01X-3325261Y-81843D01*
G01X-3276715Y-81843D01*
G01X-3250534Y-82388D01*
G01X-3224897Y-82388D01*
G01X-3224897Y-24570D01*
G01X-3229806Y-25115D01*
G01X-3254352Y-25661D01*
G01X-3275624Y-25115D01*
G01X-3276715Y-25934D01*
G01X-3276715Y-29479D01*
G01X-3276170Y-56752D01*
G01X-3276715Y-80206D01*
G01X-3276715Y-81843D01*
G01X-3276715Y-81843D01*
G01X-3325261Y-81843D01*
G01X-3325261Y-24570D01*
G01X-3330170Y-25115D01*
G01X-3354715Y-25661D01*
G01X-3375443Y-25115D01*
G01X-3376261Y-31797D01*
G01X-3376534Y-52934D01*
G01X-3424299Y-52934D01*
G01X-3423988Y-28252D01*
G01X-3422352Y-12024D01*
G01X-3391261Y19066D01*
G01X-3388533Y21248D01*
G01X-3350352Y22339D01*
G01X-3322261Y21930D01*
G01X-3312170Y20703D01*
G01X-3306715Y15248D01*
G01X-3303442Y12521D01*
G01X-3299624Y11976D01*
G01X-3296897Y14157D01*
G01X-3291443Y19612D01*
G01X-3287624Y21794D01*
G01X-3248897Y22339D01*
G01X-3221624Y21930D01*
G01X-3211806Y20703D01*
G01X-3181806Y-9297D01*
G01X-3179079Y-12570D01*
G01X-3177988Y-71479D01*
G01X-3177988Y-128206D01*
G01X-3301261Y-128206D01*
G37*
G36*
G01X-3422352Y258703D02*
G01X-3423988Y264158D01*
G01X-3424533Y280521D01*
G01X-3423988Y297294D01*
G01X-3422352Y303976D01*
G01X-3416352Y306158D01*
G01X-3410897Y307794D01*
G01X-3407079Y308885D01*
G01X-3403261Y309430D01*
G01X-3398352Y311067D01*
G01X-3386352Y314339D01*
G01X-3383079Y315430D01*
G01X-3383079Y357430D01*
G01X-3334533Y357430D01*
G01X-3333988Y341067D01*
G01X-3333988Y341067D01*
G01X-3333988Y329612D01*
G01X-3330715Y329612D01*
G01X-3325806Y330703D01*
G01X-3321988Y331794D01*
G01X-3318170Y332339D01*
G01X-3307261Y335612D01*
G01X-3302352Y336703D01*
G01X-3296897Y338339D01*
G01X-3290897Y339976D01*
G01X-3285443Y341067D01*
G01X-3281079Y342703D01*
G01X-3275079Y344339D01*
G01X-3272761Y345021D01*
G01X-3272352Y345976D01*
G01X-3276715Y348157D01*
G01X-3287624Y350885D01*
G01X-3293079Y351976D01*
G01X-3298533Y353612D01*
G01X-3304533Y355248D01*
G01X-3310533Y356339D01*
G01X-3318170Y358521D01*
G01X-3323624Y359612D01*
G01X-3329079Y361248D01*
G01X-3332897Y362339D01*
G01X-3334397Y361112D01*
G01X-3334533Y357430D01*
G01X-3383079Y357430D01*
G01X-3383079Y375430D01*
G01X-3386897Y375976D01*
G01X-3392897Y377612D01*
G01X-3419079Y384158D01*
G01X-3422352Y385794D01*
G01X-3423988Y389067D01*
G01X-3424533Y411430D01*
G01X-3423442Y432158D01*
G01X-3420170Y432158D01*
G01X-3413624Y430521D01*
G01X-3407624Y429430D01*
G01X-3402715Y427794D01*
G01X-3395624Y426158D01*
G01X-3390170Y425067D01*
G01X-3385261Y423430D01*
G01X-3378170Y421794D01*
G01X-3372715Y420158D01*
G01X-3368897Y419067D01*
G01X-3365079Y418521D01*
G01X-3360715Y417430D01*
G01X-3355806Y415794D01*
G01X-3336170Y410885D01*
G01X-3330170Y409794D01*
G01X-3325261Y408158D01*
G01X-3318170Y406521D01*
G01X-3306170Y403249D01*
G01X-3300715Y402158D01*
G01X-3293079Y399976D01*
G01X-3287624Y398885D01*
G01X-3282170Y397249D01*
G01X-3276170Y395612D01*
G01X-3270170Y394521D01*
G01X-3265261Y392885D01*
G01X-3258170Y391248D01*
G01X-3246170Y387976D01*
G01X-3240715Y386885D01*
G01X-3233079Y384703D01*
G01X-3215624Y380339D01*
G01X-3210170Y379248D01*
G01X-3204715Y377612D01*
G01X-3198170Y375976D01*
G01X-3192715Y374885D01*
G01X-3187806Y373248D01*
G01X-3181806Y371612D01*
G01X-3179624Y370521D01*
G01X-3178533Y368339D01*
G01X-3177988Y344339D01*
G01X-3177988Y323067D01*
G01X-3180715Y322521D01*
G01X-3185079Y321430D01*
G01X-3189988Y320339D01*
G01X-3194897Y318703D01*
G01X-3198715Y317612D01*
G01X-3202533Y317067D01*
G01X-3207443Y315430D01*
G01X-3213988Y313794D01*
G01X-3218897Y312703D01*
G01X-3223261Y311067D01*
G01X-3229806Y309430D01*
G01X-3241806Y306158D01*
G01X-3247261Y305067D01*
G01X-3251624Y303430D01*
G01X-3258170Y301794D01*
G01X-3270170Y298521D01*
G01X-3275624Y297430D01*
G01X-3279988Y295794D01*
G01X-3286533Y294158D01*
G01X-3298533Y290885D01*
G01X-3303988Y289794D01*
G01X-3308352Y288158D01*
G01X-3314897Y286521D01*
G01X-3320352Y285430D01*
G01X-3324715Y283794D01*
G01X-3331261Y282158D01*
G01X-3343261Y278885D01*
G01X-3348715Y277794D01*
G01X-3353079Y276158D01*
G01X-3359624Y274521D01*
G01X-3365624Y272885D01*
G01X-3371079Y271248D01*
G01X-3375988Y270158D01*
G01X-3383624Y267976D01*
G01X-3388533Y266885D01*
G01X-3393988Y265248D01*
G01X-3399988Y263612D01*
G01X-3405443Y262521D01*
G01X-3409806Y260885D01*
G01X-3416352Y259248D01*
G01X-3422352Y258703D01*
G37*
G01X-1747573Y1505221D02*
G01X-1747573Y1423687D01*
G01X-1801929Y1505221D02*
G01X-1801929Y1423687D01*
G01X-1747573Y1466359D02*
G01X-1801929Y1466359D01*
G01X-1868684Y1510321D02*
G01X-1868684Y1428787D01*
G01X-1868684Y1428787D02*
G01X-1915420Y1428787D01*
G01X-1681432Y1485663D02*
G01X-1677622Y1493537D01*
G01X-1670002Y1501157D01*
G01X-1662128Y1505221D01*
G01X-1646634Y1505221D01*
G01X-1639014Y1501157D01*
G01X-1631140Y1493537D01*
G01X-1627330Y1485663D01*
G01X-1623266Y1474233D01*
G01X-1623266Y1454675D01*
G01X-1627330Y1443245D01*
G01X-1631140Y1435371D01*
G01X-1639014Y1427751D01*
G01X-1646634Y1423687D01*
G01X-1662128Y1423687D01*
G01X-1670002Y1427751D01*
G01X-1677622Y1435371D01*
G01X-1681432Y1443245D01*
G01X-1681432Y1454675D01*
G01X-1662128Y1454675D02*
G01X-1681432Y1454675D01*
G36*
G01X-1836350Y1223949D02*
G01X-1822108Y1223949D01*
G01X-1822108Y1155768D01*
G01X-1822411Y1087283D01*
G01X-1834835Y1086980D01*
G01X-1844077Y1087207D01*
G01X-1847562Y1087889D01*
G01X-1848168Y1125465D01*
G01X-1848395Y1152889D01*
G01X-1849077Y1161828D01*
G01X-1850289Y1160010D01*
G01X-1851198Y1157586D01*
G01X-1858471Y1141222D01*
G01X-1860289Y1136980D01*
G01X-1861501Y1134556D01*
G01X-1867562Y1120919D01*
G01X-1868471Y1118798D01*
G01X-1869380Y1116980D01*
G01X-1873017Y1108495D01*
G01X-1877865Y1097586D01*
G01X-1879683Y1093343D01*
G01X-1880895Y1090616D01*
G01X-1882713Y1087889D01*
G01X-1887032Y1087207D01*
G01X-1897562Y1086980D01*
G01X-1907941Y1087283D01*
G01X-1911805Y1088192D01*
G01X-1912411Y1156071D01*
G01X-1912183Y1206222D01*
G01X-1911502Y1223343D01*
G01X-1898168Y1223949D01*
G01X-1885744Y1223949D01*
G01X-1885744Y1186677D01*
G01X-1885517Y1158798D01*
G01X-1884835Y1149707D01*
G01X-1883623Y1151222D01*
G01X-1882713Y1153646D01*
G01X-1881501Y1156374D01*
G01X-1879986Y1159404D01*
G01X-1878774Y1162434D01*
G01X-1877865Y1164555D01*
G01X-1876956Y1166374D01*
G01X-1876047Y1168495D01*
G01X-1868774Y1184858D01*
G01X-1866956Y1189101D01*
G01X-1864532Y1194555D01*
G01X-1863320Y1196980D01*
G01X-1862107Y1199707D01*
G01X-1861198Y1201828D01*
G01X-1860289Y1203646D01*
G01X-1856653Y1212131D01*
G01X-1853017Y1220313D01*
G01X-1851501Y1223040D01*
G01X-1847259Y1223722D01*
G01X-1836350Y1223949D01*
G37*
G36*
G01X-1616956Y1105161D02*
G01X-1618471Y1103949D01*
G01X-1633320Y1089101D01*
G01X-1635138Y1087586D01*
G01X-1657562Y1086980D01*
G01X-1674077Y1087283D01*
G01X-1680592Y1088192D01*
G01X-1697865Y1105464D01*
G01X-1699077Y1106980D01*
G01X-1699683Y1120616D01*
G01X-1699683Y1133646D01*
G01X-1673622Y1133646D01*
G01X-1673319Y1131525D01*
G01X-1673016Y1122131D01*
G01X-1673319Y1114252D01*
G01X-1669532Y1113798D01*
G01X-1657562Y1113646D01*
G01X-1641501Y1113646D01*
G01X-1641501Y1197889D01*
G01X-1673622Y1197889D01*
G01X-1673319Y1195161D01*
G01X-1673016Y1185768D01*
G01X-1673622Y1178192D01*
G01X-1677259Y1177510D01*
G01X-1686956Y1177283D01*
G01X-1699683Y1177283D01*
G01X-1699683Y1190919D01*
G01X-1699456Y1201298D01*
G01X-1698774Y1205161D01*
G01X-1682107Y1221828D01*
G01X-1680289Y1223343D01*
G01X-1656956Y1223949D01*
G01X-1640213Y1223722D01*
G01X-1634229Y1223040D01*
G01X-1617562Y1206374D01*
G01X-1616350Y1204252D01*
G01X-1616047Y1154252D01*
G01X-1616274Y1117737D01*
G01X-1616956Y1105161D01*
G37*
G36*
G01X-1711805Y1095464D02*
G01X-1710895Y1091828D01*
G01X-1709986Y1088798D01*
G01X-1709986Y1087283D01*
G01X-1722714Y1086980D01*
G01X-1732032Y1087283D01*
G01X-1735744Y1088192D01*
G01X-1736956Y1091828D01*
G01X-1738774Y1098495D01*
G01X-1739683Y1102131D01*
G01X-1740592Y1105161D01*
G01X-1741198Y1107889D01*
G01X-1742107Y1109404D01*
G01X-1759077Y1110010D01*
G01X-1775441Y1110010D01*
G01X-1775744Y1107586D01*
G01X-1778471Y1096677D01*
G01X-1779380Y1093343D01*
G01X-1779986Y1090313D01*
G01X-1780895Y1088495D01*
G01X-1783016Y1087283D01*
G01X-1795441Y1086980D01*
G01X-1806956Y1087586D01*
G01X-1806956Y1089101D01*
G01X-1806047Y1092434D01*
G01X-1805441Y1095767D01*
G01X-1804532Y1098495D01*
G01X-1803623Y1102434D01*
G01X-1802714Y1105767D01*
G01X-1801805Y1109404D01*
G01X-1801198Y1112737D01*
G01X-1800289Y1115464D01*
G01X-1799380Y1119404D01*
G01X-1797562Y1126071D01*
G01X-1796956Y1129101D01*
G01X-1796047Y1131828D01*
G01X-1795138Y1135768D01*
G01X-1794601Y1137737D01*
G01X-1767789Y1137737D01*
G01X-1767259Y1136980D01*
G01X-1765441Y1136980D01*
G01X-1757259Y1137283D01*
G01X-1749683Y1137889D01*
G01X-1749683Y1139404D01*
G01X-1750289Y1141828D01*
G01X-1751198Y1144556D01*
G01X-1752107Y1148192D01*
G01X-1753017Y1151525D01*
G01X-1753926Y1154556D01*
G01X-1754532Y1157586D01*
G01X-1755441Y1160313D01*
G01X-1756350Y1164252D01*
G01X-1757259Y1167283D01*
G01X-1758168Y1170010D01*
G01X-1758547Y1171298D01*
G01X-1759077Y1171525D01*
G01X-1759986Y1169404D01*
G01X-1760592Y1166677D01*
G01X-1761804Y1162434D01*
G01X-1763320Y1156374D01*
G01X-1764532Y1152131D01*
G01X-1765441Y1148192D01*
G01X-1766047Y1145465D01*
G01X-1767562Y1139404D01*
G01X-1767789Y1137737D01*
G01X-1767789Y1137737D01*
G01X-1794601Y1137737D01*
G01X-1794229Y1139101D01*
G01X-1793320Y1142737D01*
G01X-1792714Y1146071D01*
G01X-1791804Y1148798D01*
G01X-1790895Y1152737D01*
G01X-1789077Y1159404D01*
G01X-1788471Y1162434D01*
G01X-1787259Y1166677D01*
G01X-1786653Y1169707D01*
G01X-1784835Y1176374D01*
G01X-1784229Y1179404D01*
G01X-1783319Y1182131D01*
G01X-1782410Y1186071D01*
G01X-1781804Y1189101D01*
G01X-1780895Y1191828D01*
G01X-1779986Y1195768D01*
G01X-1779077Y1198798D01*
G01X-1778471Y1200919D01*
G01X-1778168Y1203040D01*
G01X-1777562Y1205464D01*
G01X-1776653Y1208495D01*
G01X-1775744Y1212434D01*
G01X-1773926Y1219101D01*
G01X-1772713Y1222737D01*
G01X-1768850Y1223646D01*
G01X-1759077Y1223949D01*
G01X-1746350Y1223949D01*
G01X-1745744Y1221828D01*
G01X-1744229Y1215768D01*
G01X-1743320Y1212737D01*
G01X-1741198Y1204252D01*
G01X-1740289Y1201222D01*
G01X-1739380Y1197586D01*
G01X-1738471Y1194252D01*
G01X-1737562Y1191222D01*
G01X-1736956Y1188495D01*
G01X-1736350Y1186071D01*
G01X-1735441Y1183343D01*
G01X-1734229Y1178495D01*
G01X-1733320Y1175465D01*
G01X-1732714Y1172737D01*
G01X-1732107Y1170313D01*
G01X-1731198Y1167586D01*
G01X-1728471Y1157586D01*
G01X-1727865Y1154556D01*
G01X-1726956Y1151828D01*
G01X-1726047Y1148192D01*
G01X-1725138Y1145162D01*
G01X-1724229Y1141828D01*
G01X-1723623Y1138798D01*
G01X-1722714Y1136071D01*
G01X-1721804Y1132434D01*
G01X-1720895Y1129404D01*
G01X-1719986Y1126071D01*
G01X-1719380Y1123040D01*
G01X-1718471Y1120616D01*
G01X-1717562Y1116980D01*
G01X-1716956Y1113949D01*
G01X-1716047Y1111525D01*
G01X-1715138Y1107889D01*
G01X-1713320Y1101222D01*
G01X-1712714Y1098192D01*
G01X-1711805Y1095464D01*
G37*
G01X-1904127Y-39767D02*
G01X-1905923Y-34019D01*
G01X-1902151Y-26655D01*
G01X-1898559Y-23063D01*
G01X-1891016Y-19112D01*
G01X-1881856Y-21088D01*
G01X-1870541Y-28451D01*
G01X-1861201Y-37791D01*
G01X-1855813Y-47130D01*
G01X-1855633Y-54494D01*
G01X-1859585Y-62038D01*
G01X-1861381Y-63834D01*
G01X-1868744Y-67605D01*
G01X-1876288Y-67605D01*
G01X-1883652Y-63834D01*
G01X-1885448Y-62038D01*
G01X-1889219Y-54674D01*
G01X-1889219Y-47130D01*
G01X-1885448Y-39767D01*
G01X-1883652Y-37971D01*
G01X-1876108Y-34019D01*
G01X-1868744Y-34199D01*
G01X-1861201Y-37791D01*
G01X-1957649Y-82153D02*
G01X-1900175Y-102628D01*
G01X-1931786Y-56290D02*
G01X-1957649Y-82153D01*
G01X-1989080Y-113584D02*
G01X-1981716Y-109813D01*
G01X-1972377Y-111609D01*
G01X-1961241Y-119152D01*
G01X-1955673Y-124720D01*
G01X-1948130Y-135855D01*
G01X-1946334Y-145195D01*
G01X-1950106Y-152559D01*
G01X-1953698Y-156151D01*
G01X-1961062Y-159922D01*
G01X-1970401Y-158126D01*
G01X-1981536Y-150583D01*
G01X-1987104Y-145015D01*
G01X-1994648Y-133880D01*
G01X-1996444Y-124540D01*
G01X-1992672Y-117176D01*
G01X-1989080Y-113584D01*
G01X-2016739Y-155971D02*
G01X-2022127Y-157767D01*
G01X-2033263Y-157767D01*
G01X-1994288Y-196741D01*
G01X-1945035Y26997D02*
G01X-1918992Y955D01*
G01X-1937492Y19454D02*
G01X-1948627Y19454D01*
G01X-1954375Y17658D01*
G01X-1959942Y12090D01*
G01X-1961738Y6343D01*
G01X-1957967Y-1021D01*
G01X-1939467Y-19520D01*
G01X-1957967Y-1021D02*
G01X-1969102Y-1021D01*
G01X-1974850Y-2817D01*
G01X-1980417Y-8385D01*
G01X-1982213Y-14132D01*
G01X-1978442Y-21496D01*
G01X-1959942Y-39995D01*
G01X-2024780Y-26884D02*
G01X-1993169Y-58495D01*
G01X-1989398Y-65859D01*
G01X-1991373Y-71426D01*
G01X-1994965Y-75018D01*
G01X-2006281Y-34248D02*
G01X-2019212Y-47180D01*
G54D11*
G01X-3326812Y706140D02*
G01X-3152314Y706140D01*
G01X-3239690Y793516D02*
G01X-3239690Y619018D01*
G54D10*
G01X-3315804Y1091051D02*
G01X-3270338Y1091051D01*
G01X-3302850Y1091051D02*
G01X-3312502Y1081145D01*
G01X-3315804Y1074795D01*
G01X-3315804Y1064889D01*
G01X-3312502Y1058539D01*
G01X-3302850Y1055237D01*
G01X-3270338Y1055237D01*
G01X-3302850Y1055237D02*
G01X-3312502Y1045331D01*
G01X-3315804Y1038981D01*
G01X-3315804Y1029075D01*
G01X-3312502Y1022725D01*
G01X-3302850Y1019423D01*
G01X-3270338Y1019423D01*
G01X-3315804Y948811D02*
G01X-3270338Y948811D01*
G01X-3306152Y948811D02*
G01X-3312502Y955415D01*
G01X-3315804Y961765D01*
G01X-3315804Y971671D01*
G01X-3312502Y978021D01*
G01X-3306152Y984625D01*
G01X-3296246Y987927D01*
G01X-3289896Y987927D01*
G01X-3279990Y984625D01*
G01X-3273640Y978021D01*
G01X-3270338Y971671D01*
G01X-3270338Y961765D01*
G01X-3273640Y955415D01*
G01X-3279990Y948811D01*
G01X-3315804Y917315D02*
G01X-3270338Y881501D01*
G01X-3315804Y881501D02*
G01X-3270338Y917315D01*
G01X-3218522Y1084447D02*
G01X-3218522Y1048633D01*
G01X-3192614Y1068191D01*
G01X-3192614Y1058539D01*
G01X-3189312Y1051935D01*
G01X-3186010Y1048633D01*
G01X-3176358Y1045331D01*
G01X-3169754Y1045331D01*
G01X-3160102Y1048633D01*
G01X-3153498Y1055237D01*
G01X-3150450Y1064889D01*
G01X-3150450Y1074795D01*
G01X-3153498Y1084447D01*
G01X-3156800Y1087749D01*
G01X-3163404Y1091051D01*
G01X-3218522Y974719D02*
G01X-3218522Y1007231D01*
G01X-3189312Y1010533D01*
G01X-3192614Y1007231D01*
G01X-3195916Y997579D01*
G01X-3195916Y987673D01*
G01X-3192614Y978021D01*
G01X-3186010Y971417D01*
G01X-3176358Y968115D01*
G01X-3169754Y968115D01*
G01X-3160102Y971417D01*
G01X-3153498Y978021D01*
G01X-3150450Y987673D01*
G01X-3150450Y997579D01*
G01X-3153498Y1007231D01*
G01X-3156800Y1010533D01*
G01X-3163404Y1013835D01*
G01X-3218522Y936619D02*
G01X-3150450Y910457D01*
G01X-3218522Y884549D02*
G01X-3150450Y910457D01*
G54D11*
G01X-3239690Y1353516D02*
G01X-3239690Y1179018D01*
G54D10*
G01X-766830Y459933D02*
G01X-766830Y404815D01*
G01X-766830Y459933D02*
G01X-790706Y459933D01*
G01X-798580Y457393D01*
G01X-801120Y454599D01*
G01X-803660Y449519D01*
G01X-803660Y441645D01*
G01X-801120Y436311D01*
G01X-798580Y433771D01*
G01X-790706Y430977D01*
G01X-766830Y430977D01*
G01X-853190Y459933D02*
G01X-832362Y404815D01*
G01X-853190Y459933D02*
G01X-874272Y404815D01*
G01X-840236Y423103D02*
G01X-866398Y423103D01*
G01X-902974Y449519D02*
G01X-908054Y452059D01*
G01X-915928Y459933D01*
G01X-915928Y404815D01*
G01X-970792Y459933D02*
G01X-944630Y423103D01*
G01X-984000Y423103D01*
G01X-970792Y459933D02*
G01X-970792Y404815D01*
G01X-1012702Y470347D02*
G01X-1012702Y386273D01*
G01X-1080774Y446725D02*
G01X-1077980Y452059D01*
G01X-1072900Y457393D01*
G01X-1067566Y459933D01*
G01X-1057152Y459933D01*
G01X-1051818Y457393D01*
G01X-1046484Y452059D01*
G01X-1043944Y446725D01*
G01X-1041404Y438851D01*
G01X-1041404Y425897D01*
G01X-1043944Y418023D01*
G01X-1046484Y412689D01*
G01X-1051818Y407355D01*
G01X-1057152Y404815D01*
G01X-1067566Y404815D01*
G01X-1072900Y407355D01*
G01X-1077980Y412689D01*
G01X-1080774Y418023D01*
G01X-1080774Y425897D01*
G01X-1067566Y425897D02*
G01X-1080774Y425897D01*
G01X-1109476Y459933D02*
G01X-1109476Y404815D01*
G01X-1109476Y459933D02*
G01X-1133098Y459933D01*
G01X-1140972Y457393D01*
G01X-1143512Y454599D01*
G01X-1146052Y449519D01*
G01X-1146052Y441645D01*
G01X-1143512Y436311D01*
G01X-1140972Y433771D01*
G01X-1133098Y430977D01*
G01X-1109476Y430977D01*
G01X-1174754Y459933D02*
G01X-1174754Y404815D01*
G01X-1219204Y459933D02*
G01X-1213870Y457393D01*
G01X-1208536Y452059D01*
G01X-1205996Y446725D01*
G01X-1203456Y438851D01*
G01X-1203456Y425897D01*
G01X-1205996Y418023D01*
G01X-1208536Y412689D01*
G01X-1213870Y407355D01*
G01X-1219204Y404815D01*
G01X-1229618Y404815D01*
G01X-1234952Y407355D01*
G01X-1240032Y412689D01*
G01X-1242826Y418023D01*
G01X-1245366Y425897D01*
G01X-1245366Y438851D01*
G01X-1242826Y446725D01*
G01X-1240032Y452059D01*
G01X-1234952Y457393D01*
G01X-1229618Y459933D01*
G01X-1219204Y459933D01*
G01X-1274068Y470347D02*
G01X-1274068Y386273D01*
G01X-1302770Y459933D02*
G01X-1302770Y404815D01*
G01X-1334012Y446725D02*
G01X-1334012Y449519D01*
G01X-1336552Y454599D01*
G01X-1339346Y457393D01*
G01X-1344426Y459933D01*
G01X-1355094Y459933D01*
G01X-1360174Y457393D01*
G01X-1362968Y454599D01*
G01X-1365508Y449519D01*
G01X-1365508Y444185D01*
G01X-1362968Y438851D01*
G01X-1357634Y430977D01*
G01X-1331472Y404815D01*
G01X-1368048Y404815D01*
G01X-1436120Y446725D02*
G01X-1433326Y452059D01*
G01X-1428246Y457393D01*
G01X-1422912Y459933D01*
G01X-1412498Y459933D01*
G01X-1407164Y457393D01*
G01X-1401830Y452059D01*
G01X-1399290Y446725D01*
G01X-1396750Y438851D01*
G01X-1396750Y425897D01*
G01X-1399290Y418023D01*
G01X-1401830Y412689D01*
G01X-1407164Y407355D01*
G01X-1412498Y404815D01*
G01X-1422912Y404815D01*
G01X-1428246Y407355D01*
G01X-1433326Y412689D01*
G01X-1436120Y418023D01*
G01X-1464822Y449519D02*
G01X-1469902Y452059D01*
G01X-1477776Y459933D01*
G01X-1477776Y404815D01*
G01X-1506478Y386273D02*
G01X-1553722Y386273D01*
G01X-1619000Y452059D02*
G01X-1613920Y457393D01*
G01X-1606046Y459933D01*
G01X-1595378Y459933D01*
G01X-1587504Y457393D01*
G01X-1582424Y452059D01*
G01X-1582424Y446725D01*
G01X-1584964Y441645D01*
G01X-1587504Y438851D01*
G01X-1592838Y436311D01*
G01X-1608586Y430977D01*
G01X-1613920Y428437D01*
G01X-1616460Y425897D01*
G01X-1619000Y420563D01*
G01X-1619000Y412689D01*
G01X-1613920Y407355D01*
G01X-1606046Y404815D01*
G01X-1595378Y404815D01*
G01X-1587504Y407355D01*
G01X-1582424Y412689D01*
G01X-1647702Y459933D02*
G01X-1647702Y404815D01*
G01X-1647702Y459933D02*
G01X-1665990Y459933D01*
G01X-1673864Y457393D01*
G01X-1679198Y452059D01*
G01X-1681738Y446725D01*
G01X-1684278Y438851D01*
G01X-1684278Y425897D01*
G01X-1681738Y418023D01*
G01X-1679198Y412689D01*
G01X-1673864Y407355D01*
G01X-1665990Y404815D01*
G01X-1647702Y404815D01*
G01X-1733808Y459933D02*
G01X-1712980Y404815D01*
G01X-1733808Y459933D02*
G01X-1754890Y404815D01*
G01X-1720854Y423103D02*
G01X-1747016Y423103D01*
G01X-1783592Y470347D02*
G01X-1783592Y386273D01*
G01X-1830582Y459933D02*
G01X-1830582Y404815D01*
G01X-1812294Y459933D02*
G01X-1848870Y459933D01*
G01X-1877572Y459933D02*
G01X-1877572Y404815D01*
G01X-1906274Y459933D02*
G01X-1906274Y404815D01*
G01X-1906274Y459933D02*
G01X-1927102Y404815D01*
G01X-1948184Y459933D02*
G01X-1927102Y404815D01*
G01X-1948184Y459933D02*
G01X-1948184Y404815D01*
G01X-1989840Y459933D02*
G01X-1981966Y457393D01*
G01X-1979426Y452059D01*
G01X-1979426Y446725D01*
G01X-1981966Y441645D01*
G01X-1987300Y438851D01*
G01X-1997714Y436311D01*
G01X-2005588Y433771D01*
G01X-2010922Y428437D01*
G01X-2013462Y423103D01*
G01X-2013462Y415229D01*
G01X-2010922Y410149D01*
G01X-2008382Y407355D01*
G01X-2000508Y404815D01*
G01X-1989840Y404815D01*
G01X-1981966Y407355D01*
G01X-1979426Y410149D01*
G01X-1976886Y415229D01*
G01X-1976886Y423103D01*
G01X-1979426Y428437D01*
G01X-1984760Y433771D01*
G01X-1992634Y436311D01*
G01X-2003048Y438851D01*
G01X-2008382Y441645D01*
G01X-2010922Y446725D01*
G01X-2010922Y452059D01*
G01X-2008382Y457393D01*
G01X-2000508Y459933D01*
G01X-1989840Y459933D01*
G01X-2042164Y386273D02*
G01X-2089408Y386273D01*
G01X-2157480Y446725D02*
G01X-2154686Y452059D01*
G01X-2149606Y457393D01*
G01X-2144272Y459933D01*
G01X-2133858Y459933D01*
G01X-2128524Y457393D01*
G01X-2123190Y452059D01*
G01X-2120650Y446725D01*
G01X-2118110Y438851D01*
G01X-2118110Y425897D01*
G01X-2120650Y418023D01*
G01X-2123190Y412689D01*
G01X-2128524Y407355D01*
G01X-2133858Y404815D01*
G01X-2144272Y404815D01*
G01X-2149606Y407355D01*
G01X-2154686Y412689D01*
G01X-2157480Y418023D01*
G01X-2186182Y459933D02*
G01X-2186182Y404815D01*
G01X-2222758Y459933D02*
G01X-2222758Y404815D01*
G01X-2186182Y433771D02*
G01X-2222758Y433771D01*
G01X-2254000Y446725D02*
G01X-2254000Y449519D01*
G01X-2256540Y454599D01*
G01X-2259334Y457393D01*
G01X-2264414Y459933D01*
G01X-2275082Y459933D01*
G01X-2280162Y457393D01*
G01X-2282956Y454599D01*
G01X-2285496Y449519D01*
G01X-2285496Y444185D01*
G01X-2282956Y438851D01*
G01X-2277622Y430977D01*
G01X-2251460Y404815D01*
G01X-2288036Y404815D01*
G01X-2316738Y470347D02*
G01X-2316738Y386273D01*
G01X-2345440Y459933D02*
G01X-2345440Y404815D01*
G01X-2345440Y459933D02*
G01X-2369062Y459933D01*
G01X-2376936Y457393D01*
G01X-2379476Y454599D01*
G01X-2382016Y449519D01*
G01X-2382016Y441645D01*
G01X-2379476Y436311D01*
G01X-2376936Y433771D01*
G01X-2369062Y430977D01*
G01X-2345440Y430977D01*
G01X-2410718Y459933D02*
G01X-2423672Y404815D01*
G01X-2436880Y459933D02*
G01X-2423672Y404815D01*
G01X-2436880Y459933D02*
G01X-2450088Y404815D01*
G01X-2463042Y459933D02*
G01X-2450088Y404815D01*
G01X-2491744Y459933D02*
G01X-2491744Y404815D01*
G01X-2491744Y459933D02*
G01X-2512572Y404815D01*
G01X-2533654Y459933D02*
G01X-2512572Y404815D01*
G01X-2533654Y459933D02*
G01X-2533654Y404815D01*
G01X-2562356Y470347D02*
G01X-2562356Y386273D01*
G01X-2591058Y459933D02*
G01X-2591058Y420563D01*
G01X-2593598Y412689D01*
G01X-2598932Y407355D01*
G01X-2606806Y404815D01*
G01X-2611886Y404815D01*
G01X-2619760Y407355D01*
G01X-2625094Y412689D01*
G01X-2627634Y420563D01*
G01X-2627634Y459933D01*
G01X-2677164Y459933D02*
G01X-2656336Y404815D01*
G01X-2677164Y459933D02*
G01X-2698246Y404815D01*
G01X-2664210Y423103D02*
G01X-2690372Y423103D01*
G01X-2726948Y459933D02*
G01X-2726948Y404815D01*
G01X-2726948Y459933D02*
G01X-2750570Y459933D01*
G01X-2758444Y457393D01*
G01X-2760984Y454599D01*
G01X-2763524Y449519D01*
G01X-2763524Y444185D01*
G01X-2760984Y438851D01*
G01X-2758444Y436311D01*
G01X-2750570Y433771D01*
G01X-2726948Y433771D01*
G01X-2745236Y433771D02*
G01X-2763524Y404815D01*
G01X-2810514Y459933D02*
G01X-2810514Y404815D01*
G01X-2792226Y459933D02*
G01X-2828802Y459933D01*
G01X-2860044Y446725D02*
G01X-2860044Y449519D01*
G01X-2862584Y454599D01*
G01X-2865378Y457393D01*
G01X-2870458Y459933D01*
G01X-2881126Y459933D01*
G01X-2886206Y457393D01*
G01X-2889000Y454599D01*
G01X-2891540Y449519D01*
G01X-2891540Y444185D01*
G01X-2889000Y438851D01*
G01X-2883666Y430977D01*
G01X-2857504Y404815D01*
G01X-2894080Y404815D01*
G01X-2922782Y386273D02*
G01X-2970026Y386273D01*
G01X-2998728Y459933D02*
G01X-2998728Y404815D01*
G01X-2998728Y459933D02*
G01X-3022350Y459933D01*
G01X-3030224Y457393D01*
G01X-3032764Y454599D01*
G01X-3035304Y449519D01*
G01X-3035304Y444185D01*
G01X-3032764Y438851D01*
G01X-3030224Y436311D01*
G01X-3022350Y433771D01*
G01X-2998728Y433771D01*
G01X-3017016Y433771D02*
G01X-3035304Y404815D01*
G01X-3064006Y459933D02*
G01X-3100582Y404815D01*
G01X-3100582Y459933D02*
G01X-3064006Y404815D01*
G01X-762674Y581359D02*
G01X-762674Y526241D01*
G01X-762674Y581359D02*
G01X-786550Y581359D01*
G01X-794424Y578819D01*
G01X-796964Y576025D01*
G01X-799504Y570945D01*
G01X-799504Y563071D01*
G01X-796964Y557737D01*
G01X-794424Y555197D01*
G01X-786550Y552403D01*
G01X-762674Y552403D01*
G01X-849034Y581359D02*
G01X-828206Y526241D01*
G01X-849034Y581359D02*
G01X-870116Y526241D01*
G01X-836080Y544529D02*
G01X-862242Y544529D01*
G01X-898818Y570945D02*
G01X-903898Y573485D01*
G01X-911772Y581359D01*
G01X-911772Y526241D01*
G01X-971970Y581359D02*
G01X-945554Y581359D01*
G01X-943014Y557737D01*
G01X-945554Y560277D01*
G01X-953428Y563071D01*
G01X-961302Y563071D01*
G01X-969176Y560277D01*
G01X-974510Y555197D01*
G01X-977050Y547323D01*
G01X-977050Y541989D01*
G01X-974510Y534115D01*
G01X-969176Y528781D01*
G01X-961302Y526241D01*
G01X-953428Y526241D01*
G01X-945554Y528781D01*
G01X-943014Y531575D01*
G01X-940474Y536655D01*
G01X-1005752Y591773D02*
G01X-1005752Y507699D01*
G01X-1073824Y568151D02*
G01X-1071030Y573485D01*
G01X-1065950Y578819D01*
G01X-1060616Y581359D01*
G01X-1050202Y581359D01*
G01X-1044868Y578819D01*
G01X-1039534Y573485D01*
G01X-1036994Y568151D01*
G01X-1034454Y560277D01*
G01X-1034454Y547323D01*
G01X-1036994Y539449D01*
G01X-1039534Y534115D01*
G01X-1044868Y528781D01*
G01X-1050202Y526241D01*
G01X-1060616Y526241D01*
G01X-1065950Y528781D01*
G01X-1071030Y534115D01*
G01X-1073824Y539449D01*
G01X-1073824Y547323D01*
G01X-1060616Y547323D02*
G01X-1073824Y547323D01*
G01X-1102526Y581359D02*
G01X-1102526Y526241D01*
G01X-1102526Y581359D02*
G01X-1126148Y581359D01*
G01X-1134022Y578819D01*
G01X-1136562Y576025D01*
G01X-1139102Y570945D01*
G01X-1139102Y563071D01*
G01X-1136562Y557737D01*
G01X-1134022Y555197D01*
G01X-1126148Y552403D01*
G01X-1102526Y552403D01*
G01X-1167804Y581359D02*
G01X-1167804Y526241D01*
G01X-1212254Y581359D02*
G01X-1206920Y578819D01*
G01X-1201586Y573485D01*
G01X-1199046Y568151D01*
G01X-1196506Y560277D01*
G01X-1196506Y547323D01*
G01X-1199046Y539449D01*
G01X-1201586Y534115D01*
G01X-1206920Y528781D01*
G01X-1212254Y526241D01*
G01X-1222668Y526241D01*
G01X-1228002Y528781D01*
G01X-1233082Y534115D01*
G01X-1235876Y539449D01*
G01X-1238416Y547323D01*
G01X-1238416Y560277D01*
G01X-1235876Y568151D01*
G01X-1233082Y573485D01*
G01X-1228002Y578819D01*
G01X-1222668Y581359D01*
G01X-1212254Y581359D01*
G01X-1267118Y591773D02*
G01X-1267118Y507699D01*
G01X-1295820Y581359D02*
G01X-1295820Y526241D01*
G01X-1327062Y568151D02*
G01X-1327062Y570945D01*
G01X-1329602Y576025D01*
G01X-1332396Y578819D01*
G01X-1337476Y581359D01*
G01X-1348144Y581359D01*
G01X-1353224Y578819D01*
G01X-1356018Y576025D01*
G01X-1358558Y570945D01*
G01X-1358558Y565611D01*
G01X-1356018Y560277D01*
G01X-1350684Y552403D01*
G01X-1324522Y526241D01*
G01X-1361098Y526241D01*
G01X-1429170Y568151D02*
G01X-1426376Y573485D01*
G01X-1421296Y578819D01*
G01X-1415962Y581359D01*
G01X-1405548Y581359D01*
G01X-1400214Y578819D01*
G01X-1394880Y573485D01*
G01X-1392340Y568151D01*
G01X-1389800Y560277D01*
G01X-1389800Y547323D01*
G01X-1392340Y539449D01*
G01X-1394880Y534115D01*
G01X-1400214Y528781D01*
G01X-1405548Y526241D01*
G01X-1415962Y526241D01*
G01X-1421296Y528781D01*
G01X-1426376Y534115D01*
G01X-1429170Y539449D01*
G01X-1457872Y570945D02*
G01X-1462952Y573485D01*
G01X-1470826Y581359D01*
G01X-1470826Y526241D01*
G01X-1499528Y507699D02*
G01X-1546772Y507699D01*
G01X-1612050Y573485D02*
G01X-1606970Y578819D01*
G01X-1599096Y581359D01*
G01X-1588428Y581359D01*
G01X-1580554Y578819D01*
G01X-1575474Y573485D01*
G01X-1575474Y568151D01*
G01X-1578014Y563071D01*
G01X-1580554Y560277D01*
G01X-1585888Y557737D01*
G01X-1601636Y552403D01*
G01X-1606970Y549863D01*
G01X-1609510Y547323D01*
G01X-1612050Y541989D01*
G01X-1612050Y534115D01*
G01X-1606970Y528781D01*
G01X-1599096Y526241D01*
G01X-1588428Y526241D01*
G01X-1580554Y528781D01*
G01X-1575474Y534115D01*
G01X-1680122Y568151D02*
G01X-1677328Y573485D01*
G01X-1672248Y578819D01*
G01X-1666914Y581359D01*
G01X-1656500Y581359D01*
G01X-1651166Y578819D01*
G01X-1645832Y573485D01*
G01X-1643292Y568151D01*
G01X-1640752Y560277D01*
G01X-1640752Y547323D01*
G01X-1643292Y539449D01*
G01X-1645832Y534115D01*
G01X-1651166Y528781D01*
G01X-1656500Y526241D01*
G01X-1666914Y526241D01*
G01X-1672248Y528781D01*
G01X-1677328Y534115D01*
G01X-1680122Y539449D01*
G01X-1708824Y581359D02*
G01X-1708824Y526241D01*
G01X-1708824Y526241D02*
G01X-1740320Y526241D01*
G01X-1769022Y591773D02*
G01X-1769022Y507699D01*
G01X-1816012Y581359D02*
G01X-1816012Y526241D01*
G01X-1797724Y581359D02*
G01X-1834300Y581359D01*
G01X-1863002Y581359D02*
G01X-1863002Y526241D01*
G01X-1891704Y581359D02*
G01X-1891704Y526241D01*
G01X-1891704Y581359D02*
G01X-1912532Y526241D01*
G01X-1933614Y581359D02*
G01X-1912532Y526241D01*
G01X-1933614Y581359D02*
G01X-1933614Y526241D01*
G01X-1975270Y581359D02*
G01X-1967396Y578819D01*
G01X-1964856Y573485D01*
G01X-1964856Y568151D01*
G01X-1967396Y563071D01*
G01X-1972730Y560277D01*
G01X-1983144Y557737D01*
G01X-1991018Y555197D01*
G01X-1996352Y549863D01*
G01X-1998892Y544529D01*
G01X-1998892Y536655D01*
G01X-1996352Y531575D01*
G01X-1993812Y528781D01*
G01X-1985938Y526241D01*
G01X-1975270Y526241D01*
G01X-1967396Y528781D01*
G01X-1964856Y531575D01*
G01X-1962316Y536655D01*
G01X-1962316Y544529D01*
G01X-1964856Y549863D01*
G01X-1970190Y555197D01*
G01X-1978064Y557737D01*
G01X-1988478Y560277D01*
G01X-1993812Y563071D01*
G01X-1996352Y568151D01*
G01X-1996352Y573485D01*
G01X-1993812Y578819D01*
G01X-1985938Y581359D01*
G01X-1975270Y581359D01*
G01X-2027594Y507699D02*
G01X-2074838Y507699D01*
G01X-2142910Y568151D02*
G01X-2140116Y573485D01*
G01X-2135036Y578819D01*
G01X-2129702Y581359D01*
G01X-2119288Y581359D01*
G01X-2113954Y578819D01*
G01X-2108620Y573485D01*
G01X-2106080Y568151D01*
G01X-2103540Y560277D01*
G01X-2103540Y547323D01*
G01X-2106080Y539449D01*
G01X-2108620Y534115D01*
G01X-2113954Y528781D01*
G01X-2119288Y526241D01*
G01X-2129702Y526241D01*
G01X-2135036Y528781D01*
G01X-2140116Y534115D01*
G01X-2142910Y539449D01*
G01X-2171612Y581359D02*
G01X-2171612Y526241D01*
G01X-2208188Y581359D02*
G01X-2208188Y526241D01*
G01X-2171612Y555197D02*
G01X-2208188Y555197D01*
G01X-2236890Y570945D02*
G01X-2241970Y573485D01*
G01X-2249844Y581359D01*
G01X-2249844Y526241D01*
G01X-2278546Y591773D02*
G01X-2278546Y507699D01*
G01X-2307248Y581359D02*
G01X-2307248Y526241D01*
G01X-2307248Y581359D02*
G01X-2330870Y581359D01*
G01X-2338744Y578819D01*
G01X-2341284Y576025D01*
G01X-2343824Y570945D01*
G01X-2343824Y563071D01*
G01X-2341284Y557737D01*
G01X-2338744Y555197D01*
G01X-2330870Y552403D01*
G01X-2307248Y552403D01*
G01X-2372526Y581359D02*
G01X-2385480Y526241D01*
G01X-2398688Y581359D02*
G01X-2385480Y526241D01*
G01X-2398688Y581359D02*
G01X-2411896Y526241D01*
G01X-2424850Y581359D02*
G01X-2411896Y526241D01*
G01X-2453552Y581359D02*
G01X-2453552Y526241D01*
G01X-2453552Y581359D02*
G01X-2474380Y526241D01*
G01X-2495462Y581359D02*
G01X-2474380Y526241D01*
G01X-2495462Y581359D02*
G01X-2495462Y526241D01*
G01X-2524164Y591773D02*
G01X-2524164Y507699D01*
G01X-2552866Y581359D02*
G01X-2552866Y541989D01*
G01X-2555406Y534115D01*
G01X-2560740Y528781D01*
G01X-2568614Y526241D01*
G01X-2573694Y526241D01*
G01X-2581568Y528781D01*
G01X-2586902Y534115D01*
G01X-2589442Y541989D01*
G01X-2589442Y581359D01*
G01X-2638972Y581359D02*
G01X-2618144Y526241D01*
G01X-2638972Y581359D02*
G01X-2660054Y526241D01*
G01X-2626018Y544529D02*
G01X-2652180Y544529D01*
G01X-2688756Y581359D02*
G01X-2688756Y526241D01*
G01X-2688756Y581359D02*
G01X-2712378Y581359D01*
G01X-2720252Y578819D01*
G01X-2722792Y576025D01*
G01X-2725332Y570945D01*
G01X-2725332Y565611D01*
G01X-2722792Y560277D01*
G01X-2720252Y557737D01*
G01X-2712378Y555197D01*
G01X-2688756Y555197D01*
G01X-2707044Y555197D02*
G01X-2725332Y526241D01*
G01X-2772322Y581359D02*
G01X-2772322Y526241D01*
G01X-2754034Y581359D02*
G01X-2790610Y581359D01*
G01X-2821852Y568151D02*
G01X-2821852Y570945D01*
G01X-2824392Y576025D01*
G01X-2827186Y578819D01*
G01X-2832266Y581359D01*
G01X-2842934Y581359D01*
G01X-2848014Y578819D01*
G01X-2850808Y576025D01*
G01X-2853348Y570945D01*
G01X-2853348Y565611D01*
G01X-2850808Y560277D01*
G01X-2845474Y552403D01*
G01X-2819312Y526241D01*
G01X-2855888Y526241D01*
G01X-2884590Y507699D02*
G01X-2931834Y507699D01*
G01X-2978824Y581359D02*
G01X-2978824Y526241D01*
G01X-2960536Y581359D02*
G01X-2997112Y581359D01*
G01X-3025814Y581359D02*
G01X-3062390Y526241D01*
G01X-3062390Y581359D02*
G01X-3025814Y526241D01*
G01X-773417Y-461593D02*
G01X-773417Y-516711D01*
G01X-773417Y-461593D02*
G01X-797293Y-461593D01*
G01X-805167Y-464133D01*
G01X-807707Y-466927D01*
G01X-810247Y-472007D01*
G01X-810247Y-479881D01*
G01X-807707Y-485215D01*
G01X-805167Y-487755D01*
G01X-797293Y-490549D01*
G01X-773417Y-490549D01*
G01X-838949Y-461593D02*
G01X-838949Y-516711D01*
G01X-838949Y-461593D02*
G01X-862571Y-461593D01*
G01X-870445Y-464133D01*
G01X-872985Y-466927D01*
G01X-875525Y-472007D01*
G01X-875525Y-477341D01*
G01X-872985Y-482675D01*
G01X-870445Y-485215D01*
G01X-862571Y-487755D01*
G01X-838949Y-487755D02*
G01X-862571Y-487755D01*
G01X-870445Y-490549D01*
G01X-872985Y-493089D01*
G01X-875525Y-498423D01*
G01X-875525Y-506297D01*
G01X-872985Y-511377D01*
G01X-870445Y-514171D01*
G01X-862571Y-516711D01*
G01X-838949Y-516711D01*
G01X-935723Y-461593D02*
G01X-909307Y-461593D01*
G01X-906767Y-485215D01*
G01X-909307Y-482675D01*
G01X-917181Y-479881D01*
G01X-925055Y-479881D01*
G01X-932929Y-482675D01*
G01X-938263Y-487755D01*
G01X-940803Y-495629D01*
G01X-940803Y-500963D01*
G01X-938263Y-508837D01*
G01X-932929Y-514171D01*
G01X-925055Y-516711D01*
G01X-917181Y-516711D01*
G01X-909307Y-514171D01*
G01X-906767Y-511377D01*
G01X-904227Y-506297D01*
G01X-773417Y-321090D02*
G01X-773417Y-376208D01*
G01X-773417Y-321090D02*
G01X-797293Y-321090D01*
G01X-805167Y-323630D01*
G01X-807707Y-326424D01*
G01X-810247Y-331504D01*
G01X-810247Y-339378D01*
G01X-807707Y-344712D01*
G01X-805167Y-347252D01*
G01X-797293Y-350046D01*
G01X-773417Y-350046D01*
G01X-838949Y-321090D02*
G01X-838949Y-376208D01*
G01X-838949Y-321090D02*
G01X-862571Y-321090D01*
G01X-870445Y-323630D01*
G01X-872985Y-326424D01*
G01X-875525Y-331504D01*
G01X-875525Y-336838D01*
G01X-872985Y-342172D01*
G01X-870445Y-344712D01*
G01X-862571Y-347252D01*
G01X-838949Y-347252D02*
G01X-862571Y-347252D01*
G01X-870445Y-350046D01*
G01X-872985Y-352586D01*
G01X-875525Y-357920D01*
G01X-875525Y-365794D01*
G01X-872985Y-370874D01*
G01X-870445Y-373668D01*
G01X-862571Y-376208D01*
G01X-838949Y-376208D01*
G01X-930389Y-321090D02*
G01X-904227Y-357920D01*
G01X-943597Y-357920D01*
G01X-930389Y-321090D02*
G01X-930389Y-376208D01*
G01X-768317Y-185686D02*
G01X-768317Y-240804D01*
G01X-768317Y-185686D02*
G01X-792193Y-185686D01*
G01X-800067Y-188226D01*
G01X-802607Y-191020D01*
G01X-805147Y-196100D01*
G01X-805147Y-203974D01*
G01X-802607Y-209308D01*
G01X-800067Y-211848D01*
G01X-792193Y-214642D01*
G01X-768317Y-214642D01*
G01X-873219Y-198894D02*
G01X-870425Y-193560D01*
G01X-865345Y-188226D01*
G01X-860011Y-185686D01*
G01X-849597Y-185686D01*
G01X-844263Y-188226D01*
G01X-838929Y-193560D01*
G01X-836389Y-198894D01*
G01X-833849Y-206768D01*
G01X-833849Y-219722D01*
G01X-836389Y-227596D01*
G01X-838929Y-232930D01*
G01X-844263Y-238264D01*
G01X-849597Y-240804D01*
G01X-860011Y-240804D01*
G01X-865345Y-238264D01*
G01X-870425Y-232930D01*
G01X-873219Y-227596D01*
G01X-901921Y-196100D02*
G01X-907001Y-193560D01*
G01X-914875Y-185686D01*
G01X-914875Y-240804D01*
G01X-959325Y-185686D02*
G01X-951451Y-188226D01*
G01X-946117Y-196100D01*
G01X-943577Y-209308D01*
G01X-943577Y-217182D01*
G01X-946117Y-230390D01*
G01X-951451Y-238264D01*
G01X-959325Y-240804D01*
G01X-964405Y-240804D01*
G01X-972279Y-238264D01*
G01X-977613Y-230390D01*
G01X-980153Y-217182D01*
G01X-980153Y-209308D01*
G01X-977613Y-196100D01*
G01X-972279Y-188226D01*
G01X-964405Y-185686D01*
G01X-959325Y-185686D01*
G01X-768317Y-45183D02*
G01X-768317Y-100301D01*
G01X-768317Y-45183D02*
G01X-792193Y-45183D01*
G01X-800067Y-47723D01*
G01X-802607Y-50517D01*
G01X-805147Y-55597D01*
G01X-805147Y-63471D01*
G01X-802607Y-68805D01*
G01X-800067Y-71345D01*
G01X-792193Y-74139D01*
G01X-768317Y-74139D01*
G01X-873219Y-58391D02*
G01X-870425Y-53057D01*
G01X-865345Y-47723D01*
G01X-860011Y-45183D01*
G01X-849597Y-45183D01*
G01X-844263Y-47723D01*
G01X-838929Y-53057D01*
G01X-836389Y-58391D01*
G01X-833849Y-66265D01*
G01X-833849Y-79219D01*
G01X-836389Y-87093D01*
G01X-838929Y-92427D01*
G01X-844263Y-97761D01*
G01X-849597Y-100301D01*
G01X-860011Y-100301D01*
G01X-865345Y-97761D01*
G01X-870425Y-92427D01*
G01X-873219Y-87093D01*
G01X-901921Y-55597D02*
G01X-907001Y-53057D01*
G01X-914875Y-45183D01*
G01X-914875Y-100301D01*
G01X-943577Y-55597D02*
G01X-948657Y-53057D01*
G01X-956531Y-45183D01*
G01X-956531Y-100301D01*
G01X-1004778Y-34686D02*
G01X-1004778Y-118760D01*
G01X-1131778Y-58308D02*
G01X-1128984Y-52974D01*
G01X-1123904Y-47640D01*
G01X-1118570Y-45100D01*
G01X-1108156Y-45100D01*
G01X-1102822Y-47640D01*
G01X-1097488Y-52974D01*
G01X-1094948Y-58308D01*
G01X-1092408Y-66182D01*
G01X-1092408Y-79136D01*
G01X-1094948Y-87010D01*
G01X-1097488Y-92344D01*
G01X-1102822Y-97678D01*
G01X-1108156Y-100218D01*
G01X-1118570Y-100218D01*
G01X-1123904Y-97678D01*
G01X-1128984Y-92344D01*
G01X-1131778Y-87010D01*
G01X-1197056Y-52974D02*
G01X-1191976Y-47640D01*
G01X-1184102Y-45100D01*
G01X-1173434Y-45100D01*
G01X-1165560Y-47640D01*
G01X-1160480Y-52974D01*
G01X-1160480Y-58308D01*
G01X-1163020Y-63388D01*
G01X-1165560Y-66182D01*
G01X-1170894Y-68722D01*
G01X-1186642Y-74056D01*
G01X-1191976Y-76596D01*
G01X-1194516Y-79136D01*
G01X-1197056Y-84470D01*
G01X-1197056Y-92344D01*
G01X-1191976Y-97678D01*
G01X-1184102Y-100218D01*
G01X-1173434Y-100218D01*
G01X-1165560Y-97678D01*
G01X-1160480Y-92344D01*
G01X-1004778Y-175190D02*
G01X-1004778Y-259264D01*
G01X-1128984Y-193478D02*
G01X-1123904Y-188144D01*
G01X-1116030Y-185604D01*
G01X-1105362Y-185604D01*
G01X-1097488Y-188144D01*
G01X-1092408Y-193478D01*
G01X-1092408Y-198812D01*
G01X-1094948Y-203892D01*
G01X-1097488Y-206686D01*
G01X-1102822Y-209226D01*
G01X-1118570Y-214560D01*
G01X-1123904Y-217100D01*
G01X-1126444Y-219640D01*
G01X-1128984Y-224974D01*
G01X-1128984Y-232848D01*
G01X-1123904Y-238182D01*
G01X-1116030Y-240722D01*
G01X-1105362Y-240722D01*
G01X-1097488Y-238182D01*
G01X-1092408Y-232848D01*
G01X-1197056Y-198812D02*
G01X-1194262Y-193478D01*
G01X-1189182Y-188144D01*
G01X-1183848Y-185604D01*
G01X-1173434Y-185604D01*
G01X-1168100Y-188144D01*
G01X-1162766Y-193478D01*
G01X-1160226Y-198812D01*
G01X-1157686Y-206686D01*
G01X-1157686Y-219640D01*
G01X-1160226Y-227514D01*
G01X-1162766Y-232848D01*
G01X-1168100Y-238182D01*
G01X-1173434Y-240722D01*
G01X-1183848Y-240722D01*
G01X-1189182Y-238182D01*
G01X-1194262Y-232848D01*
G01X-1197056Y-227514D01*
G01X-1225758Y-185604D02*
G01X-1225758Y-240722D01*
G01X-1262334Y-185604D02*
G01X-1225758Y-222434D01*
G01X-1238712Y-209226D02*
G01X-1262334Y-240722D01*
G01X-1009878Y-310593D02*
G01X-1009878Y-394667D01*
G01X-1097508Y-321007D02*
G01X-1097508Y-376125D01*
G01X-1097508Y-321007D02*
G01X-1118336Y-376125D01*
G01X-1139418Y-321007D02*
G01X-1118336Y-376125D01*
G01X-1139418Y-321007D02*
G01X-1139418Y-376125D01*
G01X-1168120Y-321007D02*
G01X-1168120Y-376125D01*
G01X-1233398Y-328881D02*
G01X-1228318Y-323547D01*
G01X-1220444Y-321007D01*
G01X-1209776Y-321007D01*
G01X-1201902Y-323547D01*
G01X-1196822Y-328881D01*
G01X-1196822Y-334215D01*
G01X-1199362Y-339295D01*
G01X-1201902Y-342089D01*
G01X-1207236Y-344629D01*
G01X-1222984Y-349963D01*
G01X-1228318Y-352503D01*
G01X-1230858Y-355043D01*
G01X-1233398Y-360377D01*
G01X-1233398Y-368251D01*
G01X-1228318Y-373585D01*
G01X-1220444Y-376125D01*
G01X-1209776Y-376125D01*
G01X-1201902Y-373585D01*
G01X-1196822Y-368251D01*
G01X-1277848Y-321007D02*
G01X-1272514Y-323547D01*
G01X-1267180Y-328881D01*
G01X-1264640Y-334215D01*
G01X-1262100Y-342089D01*
G01X-1262100Y-355043D01*
G01X-1264640Y-362917D01*
G01X-1267180Y-368251D01*
G01X-1272514Y-373585D01*
G01X-1277848Y-376125D01*
G01X-1288262Y-376125D01*
G01X-1293596Y-373585D01*
G01X-1298676Y-368251D01*
G01X-1301470Y-362917D01*
G01X-1304010Y-355043D01*
G01X-1304010Y-342089D01*
G01X-1301470Y-334215D01*
G01X-1298676Y-328881D01*
G01X-1293596Y-323547D01*
G01X-1288262Y-321007D01*
G01X-1277848Y-321007D01*
G01X-1013420Y-452100D02*
G01X-1013420Y-536174D01*
G01X-1101050Y-462514D02*
G01X-1101050Y-517632D01*
G01X-1101050Y-462514D02*
G01X-1121878Y-517632D01*
G01X-1142960Y-462514D02*
G01X-1121878Y-517632D01*
G01X-1142960Y-462514D02*
G01X-1142960Y-517632D01*
G01X-1187410Y-462514D02*
G01X-1182076Y-465054D01*
G01X-1176742Y-470388D01*
G01X-1174202Y-475722D01*
G01X-1171662Y-483596D01*
G01X-1171662Y-496550D01*
G01X-1174202Y-504424D01*
G01X-1176742Y-509758D01*
G01X-1182076Y-515092D01*
G01X-1187410Y-517632D01*
G01X-1197824Y-517632D01*
G01X-1203158Y-515092D01*
G01X-1208238Y-509758D01*
G01X-1211032Y-504424D01*
G01X-1213572Y-496550D01*
G01X-1213572Y-483596D01*
G01X-1211032Y-475722D01*
G01X-1208238Y-470388D01*
G01X-1203158Y-465054D01*
G01X-1197824Y-462514D01*
G01X-1187410Y-462514D01*
G01X-1278850Y-470388D02*
G01X-1273770Y-465054D01*
G01X-1265896Y-462514D01*
G01X-1255228Y-462514D01*
G01X-1247354Y-465054D01*
G01X-1242274Y-470388D01*
G01X-1242274Y-475722D01*
G01X-1244814Y-480802D01*
G01X-1247354Y-483596D01*
G01X-1252688Y-486136D01*
G01X-1268436Y-491470D01*
G01X-1273770Y-494010D01*
G01X-1276310Y-496550D01*
G01X-1278850Y-501884D01*
G01X-1278850Y-509758D01*
G01X-1273770Y-515092D01*
G01X-1265896Y-517632D01*
G01X-1255228Y-517632D01*
G01X-1247354Y-515092D01*
G01X-1242274Y-509758D01*
G01X-1307552Y-462514D02*
G01X-1307552Y-517632D01*
G54D12*
G01X-722548Y-655102D02*
G01X-708070Y-640878D01*
G01X-686480Y-633512D01*
G01X-657778Y-633512D01*
G01X-636188Y-640878D01*
G01X-621710Y-655102D01*
G01X-621710Y-669580D01*
G01X-629076Y-683804D01*
G01X-636188Y-691170D01*
G01X-650666Y-698282D01*
G01X-693592Y-712760D01*
G01X-708070Y-719872D01*
G01X-715182Y-726984D01*
G01X-722548Y-741462D01*
G01X-722548Y-763052D01*
G01X-708070Y-777276D01*
G01X-686480Y-784642D01*
G01X-657778Y-784642D01*
G01X-636188Y-777276D01*
G01X-621710Y-763052D01*
G01X-777158Y-633512D02*
G01X-784270Y-640878D01*
G01X-791382Y-633512D01*
G01X-784270Y-626400D01*
G01X-777158Y-633512D01*
G01X-784270Y-683804D02*
G01X-784270Y-784642D01*
G01X-845992Y-683804D02*
G01X-845992Y-784642D01*
G01X-845992Y-712760D02*
G01X-867328Y-691170D01*
G01X-881806Y-683804D01*
G01X-903396Y-683804D01*
G01X-917874Y-691170D01*
G01X-924986Y-712760D01*
G01X-924986Y-784642D01*
G01X-924986Y-712760D02*
G01X-946576Y-691170D01*
G01X-960800Y-683804D01*
G01X-982390Y-683804D01*
G01X-996868Y-691170D01*
G01X-1003980Y-712760D01*
G01X-1003980Y-784642D01*
G01X-1058590Y-683804D02*
G01X-1058590Y-834934D01*
G01X-1058590Y-705394D02*
G01X-1072814Y-691170D01*
G01X-1087292Y-683804D01*
G01X-1108882Y-683804D01*
G01X-1123106Y-691170D01*
G01X-1137584Y-705394D01*
G01X-1144696Y-726984D01*
G01X-1144696Y-741462D01*
G01X-1137584Y-763052D01*
G01X-1123106Y-777276D01*
G01X-1108882Y-784642D01*
G01X-1087292Y-784642D01*
G01X-1072814Y-777276D01*
G01X-1058590Y-763052D01*
G01X-1199306Y-633512D02*
G01X-1199306Y-784642D01*
G01X-1253916Y-726984D02*
G01X-1340022Y-726984D01*
G01X-1340022Y-712760D01*
G01X-1332910Y-698282D01*
G01X-1325798Y-691170D01*
G01X-1311320Y-683804D01*
G01X-1289730Y-683804D01*
G01X-1275252Y-691170D01*
G01X-1261028Y-705394D01*
G01X-1253916Y-726984D01*
G01X-1253916Y-741462D01*
G01X-1261028Y-763052D01*
G01X-1275252Y-777276D01*
G01X-1289730Y-784642D01*
G01X-1311320Y-784642D01*
G01X-1325798Y-777276D01*
G01X-1340022Y-763052D01*
G54D13*
G01X-1391870Y-641132D02*
G01X-1391870Y-778800D01*
G01X-1391870Y-641132D02*
G01X-1477214Y-641132D01*
G01X-1391870Y-706664D02*
G01X-1444194Y-706664D01*
G01X-1588212Y-641132D02*
G01X-1575004Y-647736D01*
G01X-1561796Y-660690D01*
G01X-1555192Y-673898D01*
G01X-1548588Y-693710D01*
G01X-1548588Y-726476D01*
G01X-1555192Y-746034D01*
G01X-1561796Y-759242D01*
G01X-1575004Y-772450D01*
G01X-1588212Y-778800D01*
G01X-1614374Y-778800D01*
G01X-1627582Y-772450D01*
G01X-1640536Y-759242D01*
G01X-1647140Y-746034D01*
G01X-1653744Y-726476D01*
G01X-1653744Y-693710D01*
G01X-1647140Y-673898D01*
G01X-1640536Y-660690D01*
G01X-1627582Y-647736D01*
G01X-1614374Y-641132D01*
G01X-1588212Y-641132D01*
G01X-1823670Y-673898D02*
G01X-1817066Y-660690D01*
G01X-1804112Y-647736D01*
G01X-1790904Y-641132D01*
G01X-1764742Y-641132D01*
G01X-1751534Y-647736D01*
G01X-1738326Y-660690D01*
G01X-1731722Y-673898D01*
G01X-1725118Y-693710D01*
G01X-1725118Y-726476D01*
G01X-1731722Y-746034D01*
G01X-1738326Y-759242D01*
G01X-1751534Y-772450D01*
G01X-1764742Y-778800D01*
G01X-1790904Y-778800D01*
G01X-1804112Y-772450D01*
G01X-1817066Y-759242D01*
G01X-1823670Y-746034D01*
G54D10*
G01X-1364824Y-859618D02*
G01X-1352378Y-863682D01*
G01X-1343996Y-876382D01*
G01X-1339678Y-897210D01*
G01X-1339678Y-909910D01*
G01X-1343996Y-930738D01*
G01X-1352378Y-943438D01*
G01X-1364824Y-947502D01*
G01X-1373206Y-947502D01*
G01X-1385906Y-943438D01*
G01X-1394288Y-930738D01*
G01X-1398352Y-909910D01*
G01X-1398352Y-897210D01*
G01X-1394288Y-876382D01*
G01X-1385906Y-863682D01*
G01X-1373206Y-859618D01*
G01X-1364824Y-859618D01*
G01X-1442802Y-859618D02*
G01X-1488776Y-859618D01*
G01X-1463884Y-893146D01*
G01X-1476330Y-893146D01*
G01X-1484712Y-897210D01*
G01X-1488776Y-901528D01*
G01X-1493094Y-913974D01*
G01X-1493094Y-922356D01*
G01X-1488776Y-935056D01*
G01X-1480394Y-943438D01*
G01X-1467948Y-947502D01*
G01X-1455502Y-947502D01*
G01X-1442802Y-943438D01*
G01X-1438738Y-939120D01*
G01X-1434420Y-930738D01*
G01X-1604600Y-842854D02*
G01X-1529162Y-976966D01*
G01X-1644986Y-880446D02*
G01X-1644986Y-876382D01*
G01X-1649050Y-868000D01*
G01X-1653368Y-863682D01*
G01X-1661750Y-859618D01*
G01X-1678514Y-859618D01*
G01X-1686642Y-863682D01*
G01X-1690960Y-868000D01*
G01X-1695024Y-876382D01*
G01X-1695024Y-884764D01*
G01X-1690960Y-893146D01*
G01X-1682578Y-905592D01*
G01X-1640668Y-947502D01*
G01X-1699342Y-947502D01*
G01X-1785702Y-872064D02*
G01X-1781384Y-863682D01*
G01X-1768938Y-859618D01*
G01X-1760556Y-859618D01*
G01X-1748110Y-863682D01*
G01X-1739728Y-876382D01*
G01X-1735410Y-897210D01*
G01X-1735410Y-918292D01*
G01X-1739728Y-935056D01*
G01X-1748110Y-943438D01*
G01X-1760556Y-947502D01*
G01X-1764874Y-947502D01*
G01X-1777320Y-943438D01*
G01X-1785702Y-935056D01*
G01X-1789766Y-922356D01*
G01X-1789766Y-918292D01*
G01X-1785702Y-905592D01*
G01X-1777320Y-897210D01*
G01X-1764874Y-893146D01*
G01X-1760556Y-893146D01*
G01X-1748110Y-897210D01*
G01X-1739728Y-905592D01*
G01X-1735410Y-918292D01*
G01X-1488949Y-1051023D02*
G01X-1514095Y-1109697D01*
G01X-1539241Y-1051023D02*
G01X-1514095Y-1109697D01*
G01X-1575309Y-1038577D02*
G01X-1583691Y-1034259D01*
G01X-1596391Y-1021813D01*
G01X-1596391Y-1109697D01*
G01X-1636777Y-1088869D02*
G01X-1632459Y-1092933D01*
G01X-1636777Y-1097251D01*
G01X-1640841Y-1092933D01*
G01X-1636777Y-1088869D01*
G01X-1735583Y-1021813D02*
G01X-1693673Y-1109697D01*
G01X-1676909Y-1021813D02*
G01X-1735583Y-1021813D01*
G01X-1980367Y-703383D02*
G01X-1980367Y-804475D01*
G01X-1980367Y-751389D02*
G01X-1970715Y-741991D01*
G01X-1961063Y-737165D01*
G01X-1946585Y-737165D01*
G01X-1936933Y-741991D01*
G01X-1927281Y-751389D01*
G01X-1922455Y-765867D01*
G01X-1922455Y-775519D01*
G01X-1927281Y-789997D01*
G01X-1936933Y-799649D01*
G01X-1946585Y-804475D01*
G01X-1961063Y-804475D01*
G01X-1970715Y-799649D01*
G01X-1980367Y-789997D01*
G01X-2043613Y-737165D02*
G01X-2033961Y-741991D01*
G01X-2024309Y-751389D01*
G01X-2019483Y-765867D01*
G01X-2019483Y-775519D01*
G01X-2024309Y-789997D01*
G01X-2033961Y-799649D01*
G01X-2043613Y-804475D01*
G01X-2058091Y-804475D01*
G01X-2067489Y-799649D01*
G01X-2077141Y-789997D01*
G01X-2081967Y-775519D01*
G01X-2081967Y-765867D01*
G01X-2077141Y-751389D01*
G01X-2067489Y-741991D01*
G01X-2058091Y-737165D01*
G01X-2043613Y-737165D01*
G01X-2178741Y-751389D02*
G01X-2169089Y-741991D01*
G01X-2159691Y-737165D01*
G01X-2145213Y-737165D01*
G01X-2135561Y-741991D01*
G01X-2125909Y-751389D01*
G01X-2121083Y-765867D01*
G01X-2121083Y-775519D01*
G01X-2125909Y-789997D01*
G01X-2135561Y-799649D01*
G01X-2145213Y-804475D01*
G01X-2159691Y-804475D01*
G01X-2169089Y-799649D01*
G01X-2178741Y-789997D01*
G01X-2270689Y-751389D02*
G01X-2265863Y-741991D01*
G01X-2251639Y-737165D01*
G01X-2237161Y-737165D01*
G01X-2222683Y-741991D01*
G01X-2217857Y-751389D01*
G01X-2222683Y-761041D01*
G01X-2232335Y-765867D01*
G01X-2256465Y-770693D01*
G01X-2265863Y-775519D01*
G01X-2270689Y-785171D01*
G01X-2270689Y-789997D01*
G01X-2265863Y-799649D01*
G01X-2251639Y-804475D01*
G01X-2237161Y-804475D01*
G01X-2222683Y-799649D01*
G01X-2217857Y-789997D01*
G01X-2314631Y-780345D02*
G01X-2309805Y-785171D01*
G01X-2314631Y-789997D01*
G01X-2319457Y-785171D01*
G01X-2314631Y-780345D01*
G01X-2411405Y-751389D02*
G01X-2406579Y-741991D01*
G01X-2392355Y-737165D01*
G01X-2377877Y-737165D01*
G01X-2363399Y-741991D01*
G01X-2358573Y-751389D01*
G01X-2363399Y-761041D01*
G01X-2373051Y-765867D01*
G01X-2397181Y-770693D01*
G01X-2406579Y-775519D01*
G01X-2411405Y-785171D01*
G01X-2411405Y-789997D01*
G01X-2406579Y-799649D01*
G01X-2392355Y-804475D01*
G01X-2377877Y-804475D01*
G01X-2363399Y-799649D01*
G01X-2358573Y-789997D01*
G01X-2450521Y-703383D02*
G01X-2455347Y-708209D01*
G01X-2460173Y-703383D01*
G01X-2455347Y-698557D01*
G01X-2450521Y-703383D01*
G01X-2455347Y-737165D02*
G01X-2455347Y-804475D01*
G01X-2499289Y-737165D02*
G01X-2499289Y-804475D01*
G01X-2499289Y-756215D02*
G01X-2513767Y-741991D01*
G01X-2523419Y-737165D01*
G01X-2537897Y-737165D01*
G01X-2547295Y-741991D01*
G01X-2552121Y-756215D01*
G01X-2552121Y-804475D01*
G01X-2552121Y-756215D02*
G01X-2566599Y-741991D01*
G01X-2576251Y-737165D01*
G01X-2590729Y-737165D01*
G01X-2600381Y-741991D01*
G01X-2605207Y-756215D01*
G01X-2605207Y-804475D01*
G01X-2644323Y-737165D02*
G01X-2644323Y-838257D01*
G01X-2644323Y-751389D02*
G01X-2653975Y-741991D01*
G01X-2663627Y-737165D01*
G01X-2678105Y-737165D01*
G01X-2687503Y-741991D01*
G01X-2697155Y-751389D01*
G01X-2701981Y-765867D01*
G01X-2701981Y-775519D01*
G01X-2697155Y-789997D01*
G01X-2687503Y-799649D01*
G01X-2678105Y-804475D01*
G01X-2663627Y-804475D01*
G01X-2653975Y-799649D01*
G01X-2644323Y-789997D01*
G01X-2741097Y-703383D02*
G01X-2741097Y-804475D01*
G01X-2780213Y-765867D02*
G01X-2837871Y-765867D01*
G01X-2837871Y-756215D01*
G01X-2833045Y-746817D01*
G01X-2828219Y-741991D01*
G01X-2818821Y-737165D01*
G01X-2804343Y-737165D01*
G01X-2794691Y-741991D01*
G01X-2785039Y-751389D01*
G01X-2780213Y-765867D01*
G01X-2780213Y-775519D01*
G01X-2785039Y-789997D01*
G01X-2794691Y-799649D01*
G01X-2804343Y-804475D01*
G01X-2818821Y-804475D01*
G01X-2828219Y-799649D01*
G01X-2837871Y-789997D01*
G01X-2915595Y-703383D02*
G01X-2905943Y-703383D01*
G01X-2896291Y-708209D01*
G01X-2891465Y-722687D01*
G01X-2891465Y-804475D01*
G01X-2876987Y-737165D02*
G01X-2910769Y-737165D01*
G01X-2978841Y-737165D02*
G01X-2969189Y-741991D01*
G01X-2959537Y-751389D01*
G01X-2954711Y-765867D01*
G01X-2954711Y-775519D01*
G01X-2959537Y-789997D01*
G01X-2969189Y-799649D01*
G01X-2978841Y-804475D01*
G01X-2993319Y-804475D01*
G01X-3002717Y-799649D01*
G01X-3012369Y-789997D01*
G01X-3017195Y-775519D01*
G01X-3017195Y-765867D01*
G01X-3012369Y-751389D01*
G01X-3002717Y-741991D01*
G01X-2993319Y-737165D01*
G01X-2978841Y-737165D01*
G01X-3113969Y-751389D02*
G01X-3104317Y-741991D01*
G01X-3094919Y-737165D01*
G01X-3080441Y-737165D01*
G01X-3070789Y-741991D01*
G01X-3061137Y-751389D01*
G01X-3056311Y-765867D01*
G01X-3056311Y-775519D01*
G01X-3061137Y-789997D01*
G01X-3070789Y-799649D01*
G01X-3080441Y-804475D01*
G01X-3094919Y-804475D01*
G01X-3104317Y-799649D01*
G01X-3113969Y-789997D01*
G01X-3157911Y-780345D02*
G01X-3153085Y-785171D01*
G01X-3157911Y-789997D01*
G01X-3162737Y-785171D01*
G01X-3157911Y-780345D01*
G01X-3259511Y-751389D02*
G01X-3249859Y-741991D01*
G01X-3240461Y-737165D01*
G01X-3225983Y-737165D01*
G01X-3216331Y-741991D01*
G01X-3206679Y-751389D01*
G01X-3201853Y-765867D01*
G01X-3201853Y-775519D01*
G01X-3206679Y-789997D01*
G01X-3216331Y-799649D01*
G01X-3225983Y-804475D01*
G01X-3240461Y-804475D01*
G01X-3249859Y-799649D01*
G01X-3259511Y-789997D01*
G01X-3322757Y-737165D02*
G01X-3313105Y-741991D01*
G01X-3303453Y-751389D01*
G01X-3298627Y-765867D01*
G01X-3298627Y-775519D01*
G01X-3303453Y-789997D01*
G01X-3313105Y-799649D01*
G01X-3322757Y-804475D01*
G01X-3337235Y-804475D01*
G01X-3346633Y-799649D01*
G01X-3356285Y-789997D01*
G01X-3361111Y-775519D01*
G01X-3361111Y-765867D01*
G01X-3356285Y-751389D01*
G01X-3346633Y-741991D01*
G01X-3337235Y-737165D01*
G01X-3322757Y-737165D01*
G01X-3400227Y-737165D02*
G01X-3400227Y-804475D01*
G01X-3400227Y-756215D02*
G01X-3414705Y-741991D01*
G01X-3424357Y-737165D01*
G01X-3438835Y-737165D01*
G01X-3448233Y-741991D01*
G01X-3453059Y-756215D01*
G01X-3453059Y-804475D01*
G01X-3453059Y-756215D02*
G01X-3467537Y-741991D01*
G01X-3477189Y-737165D01*
G01X-3491667Y-737165D01*
G01X-3501319Y-741991D01*
G01X-3506145Y-756215D01*
G01X-3506145Y-804475D01*
G04 Text End*

G04 PolygonModel Start*
G01X-2521805Y-1483027D02*
G01X-2101805Y-1483027D01*
G54D12*
G01X-2099685Y-13050D02*
G01X-2067876Y-44858D01*
G01X-2067876Y-44858D02*
G01X-2099685Y-76666D01*
G01X-2343624Y-256989D02*
G01X-2311816Y-288798D01*
G01X-2311816Y-288798D02*
G01X-2280008Y-256989D01*
G01X-2523948Y-13050D02*
G01X-2555756Y-44858D01*
G01X-2555756Y-44858D02*
G01X-2523948Y-76666D01*
G01X-2280008Y167274D02*
G01X-2311816Y199082D01*
G01X-2311816Y199082D02*
G01X-2343624Y167274D01*
G54D14*
G01X-2566317Y-5884D02*
G02X-2587441Y15421I-10517J10697D01*
G02X-2566137Y-5704I10607J-10607D01*

G04 Rect Start*
G54D16*
G01X-3463271Y532875D02*
G01X-3803271Y532875D01*
G02X-3853271Y582875I0J50000D01*
G01X-3853271Y1402876D01*
G02X-3803271Y1452876I50000J0D01*
G01X-3463271Y1452876D01*
G02X-3413271Y1402876I0J-50000D01*
G01X-3413271Y582875D01*
G02X-3463271Y532875I-50000J0D01*
G04 Rect End*

M02*

