G04 Layer: TopPasteMaskLayer*
G04 EasyEDA Pro v3.2.148, 2026-08-18 08:28:43*
G04 Gerber Generator version 0.3*
G04 Scale: 100 percent, Rotated: No, Reflected: No*
G04 Dimensions in millimeters*
G04 Leading zeros omitted, absolute positions, 4 integers and 5 decimals*
G04 Generated by one-click*
G04 Object Configs: Pad,Via,Track,Text,Image,Dimension,BoardOutline,BoardCutout,CopperFilled,SolidRegion,FPCStiffener,Line,PlaneZone,ComponentProperty,ComponentSilkscreen,TearDrop*
G04 Layer Configs: 1,15,16,2,3,4,5,6,7,8,9,10,11,13,14,56*
G04 Copper Areas: 0*
%FSLAX45Y45*%
%MOMM*%
%AMRoundRect*1,1,$1,$2,$3*1,1,$1,$4,$5*1,1,$1,0-$2,0-$3*1,1,$1,0-$4,0-$5*20,1,$1,$2,$3,$4,$5,0*20,1,$1,$4,$5,0-$2,0-$3,0*20,1,$1,0-$2,0-$3,0-$4,0-$5,0*20,1,$1,0-$4,0-$5,$2,$3,0*4,1,4,$2,$3,$4,$5,0-$2,0-$3,0-$4,0-$5,$2,$3,0*%
%ADD10RoundRect,0.2X-0.4X-0.65X-0.4X0.65*%
%ADD11R,1.0X0.8*%
%ADD12R,0.83X0.63*%
%ADD13R,0.75001X1.0*%
%ADD14O,0.28001X0.9*%
%ADD15O,0.9X0.28001*%
%ADD16R,5.5017X5.49999*%
%ADD17R,5.49999X5.49999*%
%ADD18R,0.8X0.8*%
%ADD19R,1.2X1.1*%
%ADD20R,1.55001X0.6*%
%ADD21R,2.0X1.5*%
%ADD22R,1.8X1.2*%
%ADD23R,0.6X1.07*%
%ADD24R,1.0X3.19999*%
%ADD25R,0.8X0.9*%
%ADD26R,2.45001X1.65001*%
%ADD27R,0.35001X0.62499*%
%ADD28R,0.6X1.1*%
%ADD29R,0.6X1.55001*%
%ADD30R,1.5X2.0*%
%ADD31R,1.1X0.6*%
G75*


G04 PolygonModel Start*
G36*
G01X-3259793Y-272850D02*
G01X-3259793Y23149D01*
G01X-2803794Y23149D01*
G01X-2803794Y-272850D01*
G01X-3259793Y-272850D01*
G37*
G36*
G01X-3319302Y-334839D02*
G01X-3294304Y-334839D01*
G01X-3294304Y-394839D01*
G01X-3319302Y-394839D01*
G01X-3319302Y-334839D01*
G37*
G36*
G01X-2819303Y-334839D02*
G01X-2794305Y-334839D01*
G01X-2794305Y-394839D01*
G01X-2819303Y-394839D01*
G01X-2819303Y-334839D01*
G37*
G36*
G01X-3269303Y-334839D02*
G01X-3244304Y-334839D01*
G01X-3244304Y-394839D01*
G01X-3269303Y-394839D01*
G01X-3269303Y-334839D01*
G37*
G36*
G01X-2769304Y-334839D02*
G01X-2744305Y-334839D01*
G01X-2744305Y-394839D01*
G01X-2769304Y-394839D01*
G01X-2769304Y-334839D01*
G37*
G36*
G01X-2844305Y-394839D02*
G01X-2869303Y-394839D01*
G01X-2869303Y-334839D01*
G01X-2844305Y-334839D01*
G01X-2844305Y-394839D01*
G37*
G36*
G01X-3219303Y-334839D02*
G01X-3194304Y-334839D01*
G01X-3194304Y-394839D01*
G01X-3219303Y-394839D01*
G01X-3219303Y-334839D01*
G37*
G36*
G01X-3169303Y-334839D02*
G01X-3144304Y-334839D01*
G01X-3144304Y-394839D01*
G01X-3169303Y-394839D01*
G01X-3169303Y-334839D01*
G37*
G36*
G01X-3119303Y-334839D02*
G01X-3094304Y-334839D01*
G01X-3094304Y-394839D01*
G01X-3119303Y-394839D01*
G01X-3119303Y-334839D01*
G37*
G36*
G01X-2894305Y-394839D02*
G01X-2919303Y-394839D01*
G01X-2919303Y-334839D01*
G01X-2894305Y-334839D01*
G01X-2894305Y-394839D01*
G37*
G36*
G01X-3069303Y-334839D02*
G01X-3044304Y-334839D01*
G01X-3044304Y-394839D01*
G01X-3069303Y-394839D01*
G01X-3069303Y-334839D01*
G37*
G36*
G01X-3019303Y-334839D02*
G01X-2994304Y-334839D01*
G01X-2994304Y-394839D01*
G01X-3019303Y-394839D01*
G01X-3019303Y-334839D01*
G37*
G36*
G01X-2969303Y-334839D02*
G01X-2944304Y-334839D01*
G01X-2944304Y-394839D01*
G01X-2969303Y-394839D01*
G01X-2969303Y-334839D01*
G37*
G36*
G01X-3401802Y-287341D02*
G01X-3341802Y-287341D01*
G01X-3341802Y-312339D01*
G01X-3401802Y-312339D01*
G01X-3401802Y-287341D01*
G37*
G36*
G01X-2721803Y-287341D02*
G01X-2661803Y-287341D01*
G01X-2661803Y-312339D01*
G01X-2721803Y-312339D01*
G01X-2721803Y-287341D01*
G37*
G36*
G01X-3401802Y-237341D02*
G01X-3341802Y-237341D01*
G01X-3341802Y-262340D01*
G01X-3401802Y-262340D01*
G01X-3401802Y-237341D01*
G37*
G36*
G01X-2721803Y-237341D02*
G01X-2661803Y-237341D01*
G01X-2661803Y-262340D01*
G01X-2721803Y-262340D01*
G01X-2721803Y-237341D01*
G37*
G36*
G01X-3401802Y-187341D02*
G01X-3341802Y-187341D01*
G01X-3341802Y-212340D01*
G01X-3401802Y-212340D01*
G01X-3401802Y-187341D01*
G37*
G36*
G01X-2721803Y-187341D02*
G01X-2661803Y-187341D01*
G01X-2661803Y-212340D01*
G01X-2721803Y-212340D01*
G01X-2721803Y-187341D01*
G37*
G36*
G01X-3401802Y-137341D02*
G01X-3341802Y-137341D01*
G01X-3341802Y-162340D01*
G01X-3401802Y-162340D01*
G01X-3401802Y-137341D01*
G37*
G36*
G01X-2721803Y-137341D02*
G01X-2661803Y-137341D01*
G01X-2661803Y-162340D01*
G01X-2721803Y-162340D01*
G01X-2721803Y-137341D01*
G37*
G36*
G01X-3401802Y-87341D02*
G01X-3341802Y-87341D01*
G01X-3341802Y-112340D01*
G01X-3401802Y-112340D01*
G01X-3401802Y-87341D01*
G37*
G36*
G01X-2721803Y-87341D02*
G01X-2661803Y-87341D01*
G01X-2661803Y-112340D01*
G01X-2721803Y-112340D01*
G01X-2721803Y-87341D01*
G37*
G36*
G01X-3401802Y-37341D02*
G01X-3341802Y-37341D01*
G01X-3341802Y-62340D01*
G01X-3401802Y-62340D01*
G01X-3401802Y-37341D01*
G37*
G36*
G01X-2721803Y-37341D02*
G01X-2661803Y-37341D01*
G01X-2661803Y-62340D01*
G01X-2721803Y-62340D01*
G01X-2721803Y-37341D01*
G37*
G36*
G01X-3401802Y12659D02*
G01X-3341802Y12659D01*
G01X-3341802Y-12340D01*
G01X-3401802Y-12340D01*
G01X-3401802Y12659D01*
G37*
G36*
G01X-2721803Y12659D02*
G01X-2661803Y12659D01*
G01X-2661803Y-12340D01*
G01X-2721803Y-12340D01*
G01X-2721803Y12659D01*
G37*
G36*
G01X-3401802Y62661D02*
G01X-3341802Y62661D01*
G01X-3341802Y37662D01*
G01X-3401802Y37662D01*
G01X-3401802Y62661D01*
G37*
G36*
G01X-2721803Y62661D02*
G01X-2661803Y62661D01*
G01X-2661803Y37662D01*
G01X-2721803Y37662D01*
G01X-2721803Y62661D01*
G37*
G36*
G01X-2744305Y85160D02*
G01X-2769304Y85160D01*
G01X-2769304Y145160D01*
G01X-2744305Y145160D01*
G01X-2744305Y85160D01*
G37*
G36*
G01X-3269303Y145160D02*
G01X-3244304Y145160D01*
G01X-3244304Y85160D01*
G01X-3269303Y85160D01*
G01X-3269303Y145160D01*
G37*
G36*
G01X-3319302Y145160D02*
G01X-3294304Y145160D01*
G01X-3294304Y85160D01*
G01X-3319302Y85160D01*
G01X-3319302Y145160D01*
G37*
G36*
G01X-3219303Y145160D02*
G01X-3194304Y145160D01*
G01X-3194304Y85160D01*
G01X-3219303Y85160D01*
G01X-3219303Y145160D01*
G37*
G36*
G01X-2794305Y85160D02*
G01X-2819303Y85160D01*
G01X-2819303Y145160D01*
G01X-2794305Y145160D01*
G01X-2794305Y85160D01*
G37*
G36*
G01X-2844305Y85160D02*
G01X-2869303Y85160D01*
G01X-2869303Y145160D01*
G01X-2844305Y145160D01*
G01X-2844305Y85160D01*
G37*
G36*
G01X-2894305Y85160D02*
G01X-2919303Y85160D01*
G01X-2919303Y145160D01*
G01X-2894305Y145160D01*
G01X-2894305Y85160D01*
G37*
G36*
G01X-3169303Y145160D02*
G01X-3144304Y145160D01*
G01X-3144304Y85160D01*
G01X-3169303Y85160D01*
G01X-3169303Y145160D01*
G37*
G36*
G01X-2944304Y85160D02*
G01X-2969303Y85160D01*
G01X-2969303Y145160D01*
G01X-2944304Y145160D01*
G01X-2944304Y85160D01*
G37*
G36*
G01X-2994304Y85160D02*
G01X-3019303Y85160D01*
G01X-3019303Y145160D01*
G01X-2994304Y145160D01*
G01X-2994304Y85160D01*
G37*
G36*
G01X-3044304Y85160D02*
G01X-3069303Y85160D01*
G01X-3069303Y145160D01*
G01X-3044304Y145160D01*
G01X-3044304Y85160D01*
G37*
G36*
G01X-3119303Y145160D02*
G01X-3094304Y145160D01*
G01X-3094304Y85160D01*
G01X-3119303Y85160D01*
G01X-3119303Y145160D01*
G37*
G36*
G01X-3299806Y-558342D02*
G01X-3253807Y-558342D01*
G01X-3249806Y-562343D01*
G01X-3249806Y-612406D01*
G01X-3253807Y-616406D01*
G01X-3299806Y-616406D01*
G01X-3303807Y-612406D01*
G01X-3303807Y-562343D01*
G01X-3299806Y-558342D01*
G37*
G36*
G01X-3299806Y-531342D02*
G01X-3303807Y-527341D01*
G01X-3303807Y-477278D01*
G01X-3299806Y-473277D01*
G01X-3253807Y-473277D01*
G01X-3249806Y-477278D01*
G01X-3249806Y-527341D01*
G01X-3253807Y-531342D01*
G01X-3299806Y-531342D01*
G37*
G36*
G01X-3069303Y353165D02*
G01X-3114304Y353165D01*
G01X-3119303Y360162D01*
G01X-3119303Y408163D01*
G01X-3114304Y413165D01*
G01X-3069303Y413165D01*
G01X-3064305Y408163D01*
G01X-3064305Y360162D01*
G01X-3069303Y353165D01*
G37*
G36*
G01X-3069303Y257163D02*
G01X-3114304Y257163D01*
G01X-3119303Y262164D01*
G01X-3119303Y310162D01*
G01X-3114304Y317163D01*
G01X-3069303Y317163D01*
G01X-3064305Y310162D01*
G01X-3064305Y262164D01*
G01X-3069303Y257163D01*
G37*
G36*
G01X-2565305Y-521840D02*
G01X-2565305Y-567839D01*
G01X-2569305Y-571840D01*
G01X-2619369Y-571840D01*
G01X-2623369Y-567839D01*
G01X-2623369Y-521840D01*
G01X-2619369Y-517839D01*
G01X-2569305Y-517839D01*
G01X-2565305Y-521840D01*
G37*
G36*
G01X-2538305Y-521840D02*
G01X-2534304Y-517839D01*
G01X-2484241Y-517839D01*
G01X-2480240Y-521840D01*
G01X-2480240Y-567839D01*
G01X-2484241Y-571840D01*
G01X-2534304Y-571840D01*
G01X-2538305Y-567839D01*
G01X-2538305Y-521840D01*
G37*
G36*
G01X-2392746Y-521080D02*
G01X-2392746Y-567080D01*
G01X-2396746Y-571080D01*
G01X-2446809Y-571080D01*
G01X-2450810Y-567080D01*
G01X-2450810Y-521080D01*
G01X-2446809Y-517080D01*
G01X-2396746Y-517080D01*
G01X-2392746Y-521080D01*
G37*
G36*
G01X-2365745Y-521080D02*
G01X-2361745Y-517080D01*
G01X-2311681Y-517080D01*
G01X-2307681Y-521080D01*
G01X-2307681Y-567080D01*
G01X-2311681Y-571080D01*
G01X-2361745Y-571080D01*
G01X-2365745Y-567080D01*
G01X-2365745Y-521080D01*
G37*
G36*
G01X-1014804Y-778340D02*
G01X-968804Y-778340D01*
G01X-964804Y-782340D01*
G01X-964804Y-832403D01*
G01X-968804Y-836404D01*
G01X-1014804Y-836404D01*
G01X-1018804Y-832403D01*
G01X-1018804Y-782340D01*
G01X-1014804Y-778340D01*
G37*
G36*
G01X-1014804Y-751339D02*
G01X-1018804Y-747339D01*
G01X-1018804Y-697275D01*
G01X-1014804Y-693275D01*
G01X-968804Y-693275D01*
G01X-964804Y-697275D01*
G01X-964804Y-747339D01*
G01X-968804Y-751339D01*
G01X-1014804Y-751339D01*
G37*
G36*
G01X-1993405Y432854D02*
G01X-1993405Y477856D01*
G01X-1986407Y482854D01*
G01X-1938406Y482854D01*
G01X-1933405Y477856D01*
G01X-1933405Y432854D01*
G01X-1938406Y427856D01*
G01X-1986407Y427856D01*
G01X-1993405Y432854D01*
G37*
G36*
G01X-2089407Y432854D02*
G01X-2089407Y477856D01*
G01X-2084406Y482854D01*
G01X-2036407Y482854D01*
G01X-2029407Y477856D01*
G01X-2029407Y432854D01*
G01X-2036407Y427856D01*
G01X-2084406Y427856D01*
G01X-2089407Y432854D01*
G37*
G36*
G01X-1993405Y340354D02*
G01X-1993405Y385356D01*
G01X-1986407Y390354D01*
G01X-1938406Y390354D01*
G01X-1933405Y385356D01*
G01X-1933405Y340354D01*
G01X-1938406Y335356D01*
G01X-1986407Y335356D01*
G01X-1993405Y340354D01*
G37*
G36*
G01X-2089407Y340354D02*
G01X-2089407Y385356D01*
G01X-2084406Y390354D01*
G01X-2036407Y390354D01*
G01X-2029407Y385356D01*
G01X-2029407Y340354D01*
G01X-2036407Y335356D01*
G01X-2084406Y335356D01*
G01X-2089407Y340354D01*
G37*
G36*
G01X-1993405Y247855D02*
G01X-1993405Y292856D01*
G01X-1986407Y297855D01*
G01X-1938406Y297855D01*
G01X-1933405Y292856D01*
G01X-1933405Y247855D01*
G01X-1938406Y242856D01*
G01X-1986407Y242856D01*
G01X-1993405Y247855D01*
G37*
G36*
G01X-2089407Y247855D02*
G01X-2089407Y292856D01*
G01X-2084406Y297855D01*
G01X-2036407Y297855D01*
G01X-2029407Y292856D01*
G01X-2029407Y247855D01*
G01X-2036407Y242856D01*
G01X-2084406Y242856D01*
G01X-2089407Y247855D01*
G37*
G36*
G01X-2229832Y303278D02*
G01X-2229832Y257278D01*
G01X-2233833Y253278D01*
G01X-2283896Y253278D01*
G01X-2287897Y257278D01*
G01X-2287897Y303278D01*
G01X-2283896Y307278D01*
G01X-2233833Y307278D01*
G01X-2229832Y303278D01*
G37*
G36*
G01X-2202832Y303278D02*
G01X-2198832Y307278D01*
G01X-2148768Y307278D01*
G01X-2144768Y303278D01*
G01X-2144768Y257278D01*
G01X-2148768Y253278D01*
G01X-2198832Y253278D01*
G01X-2202832Y257278D01*
G01X-2202832Y303278D01*
G37*
G36*
G01X-2229832Y394878D02*
G01X-2229832Y348878D01*
G01X-2233833Y344878D01*
G01X-2283896Y344878D01*
G01X-2287897Y348878D01*
G01X-2287897Y394878D01*
G01X-2283896Y398878D01*
G01X-2233833Y398878D01*
G01X-2229832Y394878D01*
G37*
G36*
G01X-2202832Y394878D02*
G01X-2198832Y398878D01*
G01X-2148768Y398878D01*
G01X-2144768Y394878D01*
G01X-2144768Y348878D01*
G01X-2148768Y344878D01*
G01X-2198832Y344878D01*
G01X-2202832Y348878D01*
G01X-2202832Y394878D01*
G37*
G36*
G01X-2229832Y486478D02*
G01X-2229832Y440478D01*
G01X-2233833Y436478D01*
G01X-2283896Y436478D01*
G01X-2287897Y440478D01*
G01X-2287897Y486478D01*
G01X-2283896Y490478D01*
G01X-2233833Y490478D01*
G01X-2229832Y486478D01*
G37*
G36*
G01X-2202832Y486478D02*
G01X-2198832Y490478D01*
G01X-2148768Y490478D01*
G01X-2144768Y486478D01*
G01X-2144768Y440478D01*
G01X-2148768Y436478D01*
G01X-2198832Y436478D01*
G01X-2202832Y440478D01*
G01X-2202832Y486478D01*
G37*
G36*
G01X-2171797Y-982336D02*
G01X-2201800Y-982336D01*
G01X-2201800Y-872336D01*
G01X-2171797Y-872336D01*
G01X-2171797Y-982336D01*
G37*
G36*
G01X-2151787Y-872336D02*
G01X-2121785Y-872336D01*
G01X-2121785Y-982336D01*
G01X-2151787Y-982336D01*
G01X-2151787Y-872336D01*
G37*
G36*
G01X-2661806Y-872336D02*
G01X-2601807Y-872336D01*
G01X-2601807Y-982336D01*
G01X-2661806Y-982336D01*
G01X-2661806Y-872336D01*
G37*
G36*
G01X-2221810Y-982336D02*
G01X-2251812Y-982336D01*
G01X-2251812Y-872336D01*
G01X-2221810Y-872336D01*
G01X-2221810Y-982336D01*
G37*
G36*
G01X-2101787Y-872336D02*
G01X-2041787Y-872336D01*
G01X-2041787Y-982336D01*
G01X-2101787Y-982336D01*
G01X-2101787Y-872336D01*
G37*
G36*
G01X-1961803Y-982336D02*
G01X-2021803Y-982336D01*
G01X-2021803Y-872336D01*
G01X-1961803Y-872336D01*
G01X-1961803Y-982336D01*
G37*
G36*
G01X-2271797Y-982336D02*
G01X-2301800Y-982336D01*
G01X-2301800Y-872336D01*
G01X-2271797Y-872336D01*
G01X-2271797Y-982336D01*
G37*
G36*
G01X-2321810Y-982336D02*
G01X-2351812Y-982336D01*
G01X-2351812Y-872336D01*
G01X-2321810Y-872336D01*
G01X-2321810Y-982336D01*
G37*
G36*
G01X-2581796Y-872336D02*
G01X-2521797Y-872336D01*
G01X-2521797Y-982336D01*
G01X-2581796Y-982336D01*
G01X-2581796Y-872336D01*
G37*
G36*
G01X-2371797Y-982336D02*
G01X-2401799Y-982336D01*
G01X-2401799Y-872336D01*
G01X-2371797Y-872336D01*
G01X-2371797Y-982336D01*
G37*
G36*
G01X-2421784Y-982336D02*
G01X-2451787Y-982336D01*
G01X-2451787Y-872336D01*
G01X-2421784Y-872336D01*
G01X-2421784Y-982336D01*
G37*
G36*
G01X-2471797Y-982336D02*
G01X-2501799Y-982336D01*
G01X-2501799Y-872336D01*
G01X-2471797Y-872336D01*
G01X-2471797Y-982336D01*
G37*
G36*
G01X-1874823Y-882496D02*
G01X-1871846Y-882793D01*
G01X-1868887Y-883240D01*
G01X-1865956Y-883832D01*
G01X-1863055Y-884571D01*
G01X-1860198Y-885452D01*
G01X-1857386Y-886476D01*
G01X-1854630Y-887637D01*
G01X-1851933Y-888935D01*
G01X-1849306Y-890367D01*
G01X-1846753Y-891927D01*
G01X-1844282Y-893611D01*
G01X-1841897Y-895419D01*
G01X-1839606Y-897342D01*
G01X-1837411Y-899377D01*
G01X-1835323Y-901518D01*
G01X-1833342Y-903761D01*
G01X-1831478Y-906100D01*
G01X-1829733Y-908528D01*
G01X-1828110Y-911043D01*
G01X-1826614Y-913634D01*
G01X-1825247Y-916296D01*
G01X-1824018Y-919021D01*
G01X-1822926Y-921807D01*
G01X-1821971Y-924642D01*
G01X-1821160Y-927522D01*
G01X-1820495Y-930438D01*
G01X-1819977Y-933385D01*
G01X-1819603Y-936354D01*
G01X-1819380Y-939338D01*
G01X-1819306Y-942328D01*
G01X-1819306Y-1022328D01*
G01X-1819380Y-1025317D01*
G01X-1819603Y-1028302D01*
G01X-1819977Y-1031271D01*
G01X-1820495Y-1034218D01*
G01X-1821160Y-1037134D01*
G01X-1821971Y-1040014D01*
G01X-1822926Y-1042849D01*
G01X-1824018Y-1045635D01*
G01X-1825247Y-1048360D01*
G01X-1826614Y-1051022D01*
G01X-1828110Y-1053613D01*
G01X-1829733Y-1056128D01*
G01X-1831478Y-1058556D01*
G01X-1833342Y-1060895D01*
G01X-1835323Y-1063138D01*
G01X-1837411Y-1065279D01*
G01X-1839606Y-1067314D01*
G01X-1841897Y-1069237D01*
G01X-1844282Y-1071045D01*
G01X-1846753Y-1072729D01*
G01X-1849306Y-1074289D01*
G01X-1851933Y-1075721D01*
G01X-1854630Y-1077019D01*
G01X-1857386Y-1078180D01*
G01X-1860198Y-1079204D01*
G01X-1863055Y-1080085D01*
G01X-1865956Y-1080824D01*
G01X-1868887Y-1081416D01*
G01X-1871846Y-1081863D01*
G01X-1874823Y-1082160D01*
G01X-1877810Y-1082310D01*
G01X-1880802Y-1082310D01*
G01X-1883789Y-1082160D01*
G01X-1886766Y-1081863D01*
G01X-1889725Y-1081416D01*
G01X-1892656Y-1080824D01*
G01X-1895557Y-1080085D01*
G01X-1898415Y-1079204D01*
G01X-1901226Y-1078180D01*
G01X-1903982Y-1077019D01*
G01X-1906680Y-1075721D01*
G01X-1909306Y-1074289D01*
G01X-1911859Y-1072729D01*
G01X-1914330Y-1071045D01*
G01X-1916715Y-1069237D01*
G01X-1919006Y-1067314D01*
G01X-1921201Y-1065279D01*
G01X-1923289Y-1063138D01*
G01X-1925270Y-1060895D01*
G01X-1927134Y-1058556D01*
G01X-1928879Y-1056128D01*
G01X-1930502Y-1053613D01*
G01X-1931998Y-1051022D01*
G01X-1933365Y-1048360D01*
G01X-1934594Y-1045635D01*
G01X-1935687Y-1042849D01*
G01X-1936642Y-1040014D01*
G01X-1937452Y-1037134D01*
G01X-1938117Y-1034218D01*
G01X-1938635Y-1031271D01*
G01X-1939009Y-1028302D01*
G01X-1939232Y-1025317D01*
G01X-1939306Y-1022328D01*
G01X-1939306Y-942328D01*
G01X-1939232Y-939338D01*
G01X-1939009Y-936354D01*
G01X-1938635Y-933385D01*
G01X-1938117Y-930438D01*
G01X-1937452Y-927522D01*
G01X-1936642Y-924642D01*
G01X-1935687Y-921807D01*
G01X-1934594Y-919021D01*
G01X-1933365Y-916296D01*
G01X-1931998Y-913634D01*
G01X-1930502Y-911043D01*
G01X-1928879Y-908528D01*
G01X-1927134Y-906100D01*
G01X-1925270Y-903761D01*
G01X-1923289Y-901518D01*
G01X-1921201Y-899377D01*
G01X-1919006Y-897342D01*
G01X-1916715Y-895419D01*
G01X-1914330Y-893611D01*
G01X-1911859Y-891927D01*
G01X-1909306Y-890367D01*
G01X-1906680Y-888935D01*
G01X-1903982Y-887637D01*
G01X-1901226Y-886476D01*
G01X-1898415Y-885452D01*
G01X-1895557Y-884571D01*
G01X-1892656Y-883832D01*
G01X-1889725Y-883240D01*
G01X-1886766Y-882793D01*
G01X-1883789Y-882496D01*
G01X-1880802Y-882346D01*
G01X-1877810Y-882346D01*
G01X-1874823Y-882496D01*
G37*
G36*
G01X-2745799Y-882346D02*
G01X-2742807Y-882346D01*
G01X-2739820Y-882496D01*
G01X-2736843Y-882793D01*
G01X-2733884Y-883240D01*
G01X-2730953Y-883832D01*
G01X-2728052Y-884571D01*
G01X-2725195Y-885452D01*
G01X-2722383Y-886476D01*
G01X-2719627Y-887637D01*
G01X-2716930Y-888935D01*
G01X-2714303Y-890367D01*
G01X-2711750Y-891927D01*
G01X-2709279Y-893611D01*
G01X-2706894Y-895419D01*
G01X-2704603Y-897342D01*
G01X-2702408Y-899377D01*
G01X-2700320Y-901518D01*
G01X-2698339Y-903761D01*
G01X-2696475Y-906100D01*
G01X-2694730Y-908528D01*
G01X-2693107Y-911043D01*
G01X-2691611Y-913634D01*
G01X-2690244Y-916296D01*
G01X-2689015Y-919021D01*
G01X-2687923Y-921807D01*
G01X-2686968Y-924642D01*
G01X-2686157Y-927522D01*
G01X-2685492Y-930438D01*
G01X-2684974Y-933385D01*
G01X-2684600Y-936354D01*
G01X-2684377Y-939338D01*
G01X-2684303Y-942328D01*
G01X-2684303Y-1022328D01*
G01X-2684377Y-1025317D01*
G01X-2684600Y-1028302D01*
G01X-2684974Y-1031271D01*
G01X-2685492Y-1034218D01*
G01X-2686157Y-1037134D01*
G01X-2686968Y-1040014D01*
G01X-2687923Y-1042849D01*
G01X-2689015Y-1045635D01*
G01X-2690244Y-1048360D01*
G01X-2691611Y-1051022D01*
G01X-2693107Y-1053613D01*
G01X-2694730Y-1056128D01*
G01X-2696475Y-1058556D01*
G01X-2698339Y-1060895D01*
G01X-2700320Y-1063138D01*
G01X-2702408Y-1065279D01*
G01X-2704603Y-1067314D01*
G01X-2706894Y-1069237D01*
G01X-2709279Y-1071045D01*
G01X-2711750Y-1072729D01*
G01X-2714303Y-1074289D01*
G01X-2716930Y-1075721D01*
G01X-2719627Y-1077019D01*
G01X-2722383Y-1078180D01*
G01X-2725195Y-1079204D01*
G01X-2728052Y-1080085D01*
G01X-2730953Y-1080824D01*
G01X-2733884Y-1081416D01*
G01X-2736843Y-1081863D01*
G01X-2739820Y-1082160D01*
G01X-2742807Y-1082310D01*
G01X-2745799Y-1082310D01*
G01X-2748786Y-1082160D01*
G01X-2751763Y-1081863D01*
G01X-2754722Y-1081416D01*
G01X-2757653Y-1080824D01*
G01X-2760554Y-1080085D01*
G01X-2763412Y-1079204D01*
G01X-2766223Y-1078180D01*
G01X-2768979Y-1077019D01*
G01X-2771677Y-1075721D01*
G01X-2774303Y-1074289D01*
G01X-2776856Y-1072729D01*
G01X-2779327Y-1071045D01*
G01X-2781712Y-1069237D01*
G01X-2784003Y-1067314D01*
G01X-2786198Y-1065279D01*
G01X-2788286Y-1063138D01*
G01X-2790267Y-1060895D01*
G01X-2792131Y-1058556D01*
G01X-2793876Y-1056128D01*
G01X-2795499Y-1053613D01*
G01X-2796995Y-1051022D01*
G01X-2798362Y-1048360D01*
G01X-2799591Y-1045635D01*
G01X-2800684Y-1042849D01*
G01X-2801639Y-1040014D01*
G01X-2802449Y-1037134D01*
G01X-2803114Y-1034218D01*
G01X-2803632Y-1031271D01*
G01X-2804006Y-1028302D01*
G01X-2804229Y-1025317D01*
G01X-2804303Y-1022328D01*
G01X-2804303Y-942328D01*
G01X-2804229Y-939338D01*
G01X-2804006Y-936354D01*
G01X-2803632Y-933385D01*
G01X-2803114Y-930438D01*
G01X-2802449Y-927522D01*
G01X-2801639Y-924642D01*
G01X-2800684Y-921807D01*
G01X-2799591Y-919021D01*
G01X-2798362Y-916296D01*
G01X-2796995Y-913634D01*
G01X-2795499Y-911043D01*
G01X-2793876Y-908528D01*
G01X-2792131Y-906100D01*
G01X-2790267Y-903761D01*
G01X-2788286Y-901518D01*
G01X-2786198Y-899377D01*
G01X-2784003Y-897342D01*
G01X-2781712Y-895419D01*
G01X-2779327Y-893611D01*
G01X-2776856Y-891927D01*
G01X-2774303Y-890367D01*
G01X-2771677Y-888935D01*
G01X-2768979Y-887637D01*
G01X-2766223Y-886476D01*
G01X-2763412Y-885452D01*
G01X-2760554Y-884571D01*
G01X-2757653Y-883832D01*
G01X-2754722Y-883240D01*
G01X-2751763Y-882793D01*
G01X-2748786Y-882496D01*
G01X-2745799Y-882346D01*
G37*
G36*
G01X-2739820Y-1327511D02*
G01X-2736843Y-1327809D01*
G01X-2733884Y-1328256D01*
G01X-2730953Y-1328847D01*
G01X-2728052Y-1329587D01*
G01X-2725195Y-1330468D01*
G01X-2722383Y-1331492D01*
G01X-2719627Y-1332652D01*
G01X-2716930Y-1333950D01*
G01X-2714303Y-1335383D01*
G01X-2711750Y-1336942D01*
G01X-2709279Y-1338626D01*
G01X-2706894Y-1340435D01*
G01X-2704603Y-1342358D01*
G01X-2702408Y-1344392D01*
G01X-2700320Y-1346534D01*
G01X-2698339Y-1348776D01*
G01X-2696475Y-1351116D01*
G01X-2694730Y-1353544D01*
G01X-2693107Y-1356059D01*
G01X-2691611Y-1358649D01*
G01X-2690244Y-1361311D01*
G01X-2689015Y-1364037D01*
G01X-2687923Y-1366823D01*
G01X-2686968Y-1369658D01*
G01X-2686157Y-1372538D01*
G01X-2685492Y-1375454D01*
G01X-2684974Y-1378400D01*
G01X-2684600Y-1381370D01*
G01X-2684377Y-1384354D01*
G01X-2684303Y-1387344D01*
G01X-2684303Y-1417344D01*
G01X-2684377Y-1420333D01*
G01X-2684600Y-1423318D01*
G01X-2684974Y-1426287D01*
G01X-2685492Y-1429233D01*
G01X-2686157Y-1432149D01*
G01X-2686968Y-1435030D01*
G01X-2687923Y-1437864D01*
G01X-2689015Y-1440651D01*
G01X-2690244Y-1443376D01*
G01X-2691611Y-1446038D01*
G01X-2693107Y-1448629D01*
G01X-2694730Y-1451143D01*
G01X-2696475Y-1453572D01*
G01X-2698339Y-1455911D01*
G01X-2700320Y-1458154D01*
G01X-2702408Y-1460295D01*
G01X-2704603Y-1462330D01*
G01X-2706894Y-1464252D01*
G01X-2709279Y-1466061D01*
G01X-2711750Y-1467745D01*
G01X-2714303Y-1469304D01*
G01X-2716930Y-1470737D01*
G01X-2719627Y-1472035D01*
G01X-2722383Y-1473196D01*
G01X-2725195Y-1474219D01*
G01X-2728052Y-1475101D01*
G01X-2730953Y-1475840D01*
G01X-2733884Y-1476432D01*
G01X-2736843Y-1476879D01*
G01X-2739820Y-1477176D01*
G01X-2742807Y-1477326D01*
G01X-2745799Y-1477326D01*
G01X-2748786Y-1477176D01*
G01X-2751763Y-1476879D01*
G01X-2754722Y-1476432D01*
G01X-2757653Y-1475840D01*
G01X-2760554Y-1475101D01*
G01X-2763412Y-1474219D01*
G01X-2766223Y-1473196D01*
G01X-2768979Y-1472035D01*
G01X-2771677Y-1470737D01*
G01X-2774303Y-1469304D01*
G01X-2776856Y-1467745D01*
G01X-2779327Y-1466061D01*
G01X-2781712Y-1464252D01*
G01X-2784003Y-1462330D01*
G01X-2786198Y-1460295D01*
G01X-2788286Y-1458154D01*
G01X-2790267Y-1455911D01*
G01X-2792131Y-1453572D01*
G01X-2793876Y-1451143D01*
G01X-2795499Y-1448629D01*
G01X-2796995Y-1446038D01*
G01X-2798362Y-1443376D01*
G01X-2799591Y-1440651D01*
G01X-2800684Y-1437864D01*
G01X-2801639Y-1435030D01*
G01X-2802449Y-1432149D01*
G01X-2803114Y-1429233D01*
G01X-2803632Y-1426287D01*
G01X-2804006Y-1423318D01*
G01X-2804229Y-1420333D01*
G01X-2804303Y-1417344D01*
G01X-2804303Y-1387344D01*
G01X-2804229Y-1384354D01*
G01X-2804006Y-1381370D01*
G01X-2803632Y-1378400D01*
G01X-2803114Y-1375454D01*
G01X-2802449Y-1372538D01*
G01X-2801639Y-1369658D01*
G01X-2800684Y-1366823D01*
G01X-2799591Y-1364037D01*
G01X-2798362Y-1361311D01*
G01X-2796995Y-1358649D01*
G01X-2795499Y-1356059D01*
G01X-2793876Y-1353544D01*
G01X-2792131Y-1351116D01*
G01X-2790267Y-1348776D01*
G01X-2788286Y-1346534D01*
G01X-2786198Y-1344392D01*
G01X-2784003Y-1342358D01*
G01X-2781712Y-1340435D01*
G01X-2779327Y-1338626D01*
G01X-2776856Y-1336942D01*
G01X-2774303Y-1335383D01*
G01X-2771677Y-1333950D01*
G01X-2768979Y-1332652D01*
G01X-2766223Y-1331492D01*
G01X-2763412Y-1330468D01*
G01X-2760554Y-1329587D01*
G01X-2757653Y-1328847D01*
G01X-2754722Y-1328256D01*
G01X-2751763Y-1327809D01*
G01X-2748786Y-1327511D01*
G01X-2745799Y-1327362D01*
G01X-2742807Y-1327362D01*
G01X-2739820Y-1327511D01*
G37*
G36*
G01X-1880802Y-1327362D02*
G01X-1877810Y-1327362D01*
G01X-1874823Y-1327511D01*
G01X-1871846Y-1327809D01*
G01X-1868887Y-1328256D01*
G01X-1865956Y-1328847D01*
G01X-1863055Y-1329587D01*
G01X-1860198Y-1330468D01*
G01X-1857386Y-1331492D01*
G01X-1854630Y-1332652D01*
G01X-1851933Y-1333950D01*
G01X-1849306Y-1335383D01*
G01X-1846753Y-1336942D01*
G01X-1844282Y-1338626D01*
G01X-1841897Y-1340435D01*
G01X-1839606Y-1342358D01*
G01X-1837411Y-1344392D01*
G01X-1835323Y-1346534D01*
G01X-1833342Y-1348776D01*
G01X-1831478Y-1351116D01*
G01X-1829733Y-1353544D01*
G01X-1828110Y-1356059D01*
G01X-1826614Y-1358649D01*
G01X-1825247Y-1361311D01*
G01X-1824018Y-1364037D01*
G01X-1822926Y-1366823D01*
G01X-1821971Y-1369658D01*
G01X-1821160Y-1372538D01*
G01X-1820495Y-1375454D01*
G01X-1819977Y-1378400D01*
G01X-1819603Y-1381370D01*
G01X-1819380Y-1384354D01*
G01X-1819306Y-1387344D01*
G01X-1819306Y-1417344D01*
G01X-1819380Y-1420333D01*
G01X-1819603Y-1423318D01*
G01X-1819977Y-1426287D01*
G01X-1820495Y-1429233D01*
G01X-1821160Y-1432149D01*
G01X-1821971Y-1435030D01*
G01X-1822926Y-1437864D01*
G01X-1824018Y-1440651D01*
G01X-1825247Y-1443376D01*
G01X-1826614Y-1446038D01*
G01X-1828110Y-1448629D01*
G01X-1829733Y-1451143D01*
G01X-1831478Y-1453572D01*
G01X-1833342Y-1455911D01*
G01X-1835323Y-1458154D01*
G01X-1837411Y-1460295D01*
G01X-1839606Y-1462330D01*
G01X-1841897Y-1464252D01*
G01X-1844282Y-1466061D01*
G01X-1846753Y-1467745D01*
G01X-1849306Y-1469304D01*
G01X-1851933Y-1470737D01*
G01X-1854630Y-1472035D01*
G01X-1857386Y-1473196D01*
G01X-1860198Y-1474219D01*
G01X-1863055Y-1475101D01*
G01X-1865956Y-1475840D01*
G01X-1868887Y-1476432D01*
G01X-1871846Y-1476879D01*
G01X-1874823Y-1477176D01*
G01X-1877810Y-1477326D01*
G01X-1880802Y-1477326D01*
G01X-1883789Y-1477176D01*
G01X-1886766Y-1476879D01*
G01X-1889725Y-1476432D01*
G01X-1892656Y-1475840D01*
G01X-1895557Y-1475101D01*
G01X-1898415Y-1474219D01*
G01X-1901226Y-1473196D01*
G01X-1903982Y-1472035D01*
G01X-1906680Y-1470737D01*
G01X-1909306Y-1469304D01*
G01X-1911859Y-1467745D01*
G01X-1914330Y-1466061D01*
G01X-1916715Y-1464252D01*
G01X-1919006Y-1462330D01*
G01X-1921201Y-1460295D01*
G01X-1923289Y-1458154D01*
G01X-1925270Y-1455911D01*
G01X-1927134Y-1453572D01*
G01X-1928879Y-1451143D01*
G01X-1930502Y-1448629D01*
G01X-1931998Y-1446038D01*
G01X-1933365Y-1443376D01*
G01X-1934594Y-1440651D01*
G01X-1935687Y-1437864D01*
G01X-1936642Y-1435030D01*
G01X-1937452Y-1432149D01*
G01X-1938117Y-1429233D01*
G01X-1938635Y-1426287D01*
G01X-1939009Y-1423318D01*
G01X-1939232Y-1420333D01*
G01X-1939306Y-1417344D01*
G01X-1939306Y-1387344D01*
G01X-1939232Y-1384354D01*
G01X-1939009Y-1381370D01*
G01X-1938635Y-1378400D01*
G01X-1938117Y-1375454D01*
G01X-1937452Y-1372538D01*
G01X-1936642Y-1369658D01*
G01X-1935687Y-1366823D01*
G01X-1934594Y-1364037D01*
G01X-1933365Y-1361311D01*
G01X-1931998Y-1358649D01*
G01X-1930502Y-1356059D01*
G01X-1928879Y-1353544D01*
G01X-1927134Y-1351116D01*
G01X-1925270Y-1348776D01*
G01X-1923289Y-1346534D01*
G01X-1921201Y-1344392D01*
G01X-1919006Y-1342358D01*
G01X-1916715Y-1340435D01*
G01X-1914330Y-1338626D01*
G01X-1911859Y-1336942D01*
G01X-1909306Y-1335383D01*
G01X-1906680Y-1333950D01*
G01X-1903982Y-1332652D01*
G01X-1901226Y-1331492D01*
G01X-1898415Y-1330468D01*
G01X-1895557Y-1329587D01*
G01X-1892656Y-1328847D01*
G01X-1889725Y-1328256D01*
G01X-1886766Y-1327809D01*
G01X-1883789Y-1327511D01*
G01X-1880802Y-1327362D01*
G37*
G36*
G01X-2058304Y-787839D02*
G01X-2058304Y-741840D01*
G01X-2054304Y-737839D01*
G01X-2004241Y-737839D01*
G01X-2000240Y-741840D01*
G01X-2000240Y-787839D01*
G01X-2004241Y-791840D01*
G01X-2054304Y-791840D01*
G01X-2058304Y-787839D01*
G37*
G36*
G01X-2085305Y-787839D02*
G01X-2089305Y-791840D01*
G01X-2139369Y-791840D01*
G01X-2143369Y-787839D01*
G01X-2143369Y-741840D01*
G01X-2139369Y-737839D01*
G01X-2089305Y-737839D01*
G01X-2085305Y-741840D01*
G01X-2085305Y-787839D01*
G37*
G36*
G01X-2338304Y-787839D02*
G01X-2338304Y-741840D01*
G01X-2334304Y-737839D01*
G01X-2284241Y-737839D01*
G01X-2280240Y-741840D01*
G01X-2280240Y-787839D01*
G01X-2284241Y-791840D01*
G01X-2334304Y-791840D01*
G01X-2338304Y-787839D01*
G37*
G36*
G01X-2365305Y-787839D02*
G01X-2369305Y-791840D01*
G01X-2419369Y-791840D01*
G01X-2423369Y-787839D01*
G01X-2423369Y-741840D01*
G01X-2419369Y-737839D01*
G01X-2369305Y-737839D01*
G01X-2365305Y-741840D01*
G01X-2365305Y-787839D01*
G37*
G36*
G01X-2449808Y-424461D02*
G01X-2449808Y-469462D01*
G01X-2456806Y-474461D01*
G01X-2504807Y-474461D01*
G01X-2509808Y-469462D01*
G01X-2509808Y-424461D01*
G01X-2504807Y-419462D01*
G01X-2456806Y-419462D01*
G01X-2449808Y-424461D01*
G37*
G36*
G01X-2353806Y-424461D02*
G01X-2353806Y-469462D01*
G01X-2358808Y-474461D01*
G01X-2406806Y-474461D01*
G01X-2413806Y-469462D01*
G01X-2413806Y-424461D01*
G01X-2406806Y-419462D01*
G01X-2358808Y-419462D01*
G01X-2353806Y-424461D01*
G37*
G36*
G01X-2970905Y-1308440D02*
G01X-2970905Y-1262440D01*
G01X-2966905Y-1258440D01*
G01X-2916842Y-1258440D01*
G01X-2912841Y-1262440D01*
G01X-2912841Y-1308440D01*
G01X-2916842Y-1312440D01*
G01X-2966905Y-1312440D01*
G01X-2970905Y-1308440D01*
G37*
G36*
G01X-2997906Y-1308440D02*
G01X-3001906Y-1312440D01*
G01X-3051970Y-1312440D01*
G01X-3055970Y-1308440D01*
G01X-3055970Y-1262440D01*
G01X-3051970Y-1258440D01*
G01X-3001906Y-1258440D01*
G01X-2997906Y-1262440D01*
G01X-2997906Y-1308440D01*
G37*
G36*
G01X-3214307Y317158D02*
G01X-3169306Y317158D01*
G01X-3164307Y310160D01*
G01X-3164307Y262159D01*
G01X-3169306Y257158D01*
G01X-3214307Y257158D01*
G01X-3219306Y262159D01*
G01X-3219306Y310160D01*
G01X-3214307Y317158D01*
G37*
G36*
G01X-3214307Y413159D02*
G01X-3169306Y413159D01*
G01X-3164307Y408158D01*
G01X-3164307Y360160D01*
G01X-3169306Y353160D01*
G01X-3214307Y353160D01*
G01X-3219306Y360160D01*
G01X-3219306Y408158D01*
G01X-3214307Y413159D01*
G37*
G36*
G01X-3073802Y-527341D02*
G01X-3073802Y-482340D01*
G01X-3066804Y-477341D01*
G01X-3018803Y-477341D01*
G01X-3013802Y-482340D01*
G01X-3013802Y-527341D01*
G01X-3018803Y-532340D01*
G01X-3066804Y-532340D01*
G01X-3073802Y-527341D01*
G37*
G36*
G01X-3169803Y-527341D02*
G01X-3169803Y-482340D01*
G01X-3164802Y-477341D01*
G01X-3116804Y-477341D01*
G01X-3109804Y-482340D01*
G01X-3109804Y-527341D01*
G01X-3116804Y-532340D01*
G01X-3164802Y-532340D01*
G01X-3169803Y-527341D01*
G37*
G36*
G01X-2570308Y378161D02*
G01X-2570308Y332161D01*
G01X-2574309Y328161D01*
G01X-2624372Y328161D01*
G01X-2628372Y332161D01*
G01X-2628372Y378161D01*
G01X-2624372Y382161D01*
G01X-2574309Y382161D01*
G01X-2570308Y378161D01*
G37*
G36*
G01X-2543308Y378161D02*
G01X-2539307Y382161D01*
G01X-2489244Y382161D01*
G01X-2485243Y378161D01*
G01X-2485243Y332161D01*
G01X-2489244Y328161D01*
G01X-2539307Y328161D01*
G01X-2543308Y332161D01*
G01X-2543308Y378161D01*
G37*
G36*
G01X-1789808Y237663D02*
G01X-1789808Y192662D01*
G01X-1796806Y187663D01*
G01X-1844807Y187663D01*
G01X-1849808Y192662D01*
G01X-1849808Y237663D01*
G01X-1844807Y242662D01*
G01X-1796806Y242662D01*
G01X-1789808Y237663D01*
G37*
G36*
G01X-1693806Y237663D02*
G01X-1693806Y192662D01*
G01X-1698807Y187663D01*
G01X-1746806Y187663D01*
G01X-1753806Y192662D01*
G01X-1753806Y237663D01*
G01X-1746806Y242662D01*
G01X-1698807Y242662D01*
G01X-1693806Y237663D01*
G37*
G36*
G01X-1454306Y397158D02*
G01X-1409305Y397158D01*
G01X-1404306Y390160D01*
G01X-1404306Y342159D01*
G01X-1409305Y337158D01*
G01X-1454306Y337158D01*
G01X-1459305Y342159D01*
G01X-1459305Y390160D01*
G01X-1454306Y397158D01*
G37*
G36*
G01X-1454306Y493160D02*
G01X-1409305Y493160D01*
G01X-1404306Y488158D01*
G01X-1404306Y440160D01*
G01X-1409305Y433160D01*
G01X-1454306Y433160D01*
G01X-1459305Y440160D01*
G01X-1459305Y488158D01*
G01X-1454306Y493160D01*
G37*
G36*
G01X-2543308Y242156D02*
G01X-2543308Y288156D01*
G01X-2539307Y292156D01*
G01X-2489244Y292156D01*
G01X-2485243Y288156D01*
G01X-2485243Y242156D01*
G01X-2489244Y238156D01*
G01X-2539307Y238156D01*
G01X-2543308Y242156D01*
G37*
G36*
G01X-2570308Y242156D02*
G01X-2574309Y238156D01*
G01X-2624372Y238156D01*
G01X-2628372Y242156D01*
G01X-2628372Y288156D01*
G01X-2624372Y292156D01*
G01X-2574309Y292156D01*
G01X-2570308Y288156D01*
G01X-2570308Y242156D01*
G37*
G36*
G01X-1498304Y792162D02*
G01X-1498304Y838161D01*
G01X-1494304Y842162D01*
G01X-1444240Y842162D01*
G01X-1440240Y838161D01*
G01X-1440240Y792162D01*
G01X-1444240Y788161D01*
G01X-1494304Y788161D01*
G01X-1498304Y792162D01*
G37*
G36*
G01X-1525304Y792162D02*
G01X-1529305Y788161D01*
G01X-1579368Y788161D01*
G01X-1583369Y792162D01*
G01X-1583369Y838161D01*
G01X-1579368Y842162D01*
G01X-1529305Y842162D01*
G01X-1525304Y838161D01*
G01X-1525304Y792162D01*
G37*
G36*
G01X-2362302Y696161D02*
G01X-2362302Y824159D01*
G01X-2357301Y829160D01*
G01X-2242300Y829160D01*
G01X-2237301Y824159D01*
G01X-2236798Y783156D01*
G01X-2281799Y783156D01*
G01X-2281799Y738157D01*
G01X-2237799Y738157D01*
G01X-2237301Y696161D01*
G01X-2242300Y691160D01*
G01X-2357301Y691160D01*
G01X-2362302Y696161D01*
G37*
G36*
G01X-2021307Y824162D02*
G01X-2021307Y696163D01*
G01X-2026308Y691162D01*
G01X-2141309Y691162D01*
G01X-2146308Y696163D01*
G01X-2146811Y737167D01*
G01X-2101810Y737167D01*
G01X-2101810Y782165D01*
G01X-2145810Y782165D01*
G01X-2146308Y824162D01*
G01X-2141309Y829163D01*
G01X-2026308Y829163D01*
G01X-2021307Y824162D01*
G37*
G36*
G01X-1525304Y658161D02*
G01X-1525304Y612162D01*
G01X-1529305Y608161D01*
G01X-1579368Y608161D01*
G01X-1583369Y612162D01*
G01X-1583369Y658161D01*
G01X-1579368Y662161D01*
G01X-1529305Y662161D01*
G01X-1525304Y658161D01*
G37*
G36*
G01X-1498304Y658161D02*
G01X-1494304Y662161D01*
G01X-1444240Y662161D01*
G01X-1440240Y658161D01*
G01X-1440240Y612162D01*
G01X-1444240Y608161D01*
G01X-1494304Y608161D01*
G01X-1498304Y612162D01*
G01X-1498304Y658161D01*
G37*
G36*
G01X-2113809Y1468554D02*
G01X-2159808Y1468554D01*
G01X-2163809Y1472555D01*
G01X-2163809Y1522618D01*
G01X-2159808Y1526618D01*
G01X-2113809Y1526618D01*
G01X-2109809Y1522618D01*
G01X-2109809Y1472555D01*
G01X-2113809Y1468554D01*
G37*
G36*
G01X-2113809Y1441554D02*
G01X-2109809Y1437553D01*
G01X-2109809Y1387490D01*
G01X-2113809Y1383489D01*
G01X-2159808Y1383489D01*
G01X-2163809Y1387490D01*
G01X-2163809Y1437553D01*
G01X-2159808Y1441554D01*
G01X-2113809Y1441554D01*
G37*
G36*
G01X-3073802Y-627341D02*
G01X-3073802Y-582340D01*
G01X-3066804Y-577341D01*
G01X-3018803Y-577341D01*
G01X-3013802Y-582340D01*
G01X-3013802Y-627341D01*
G01X-3018803Y-632340D01*
G01X-3066804Y-632340D01*
G01X-3073802Y-627341D01*
G37*
G36*
G01X-3169803Y-627341D02*
G01X-3169803Y-582340D01*
G01X-3164802Y-577341D01*
G01X-3116804Y-577341D01*
G01X-3109804Y-582340D01*
G01X-3109804Y-627341D01*
G01X-3116804Y-632340D01*
G01X-3164802Y-632340D01*
G01X-3169803Y-627341D01*
G37*
G36*
G01X-2933801Y-1127342D02*
G01X-2933801Y-1082340D01*
G01X-2926804Y-1077342D01*
G01X-2878803Y-1077342D01*
G01X-2873801Y-1082340D01*
G01X-2873801Y-1127342D01*
G01X-2878803Y-1132340D01*
G01X-2926804Y-1132340D01*
G01X-2933801Y-1127342D01*
G37*
G36*
G01X-3029803Y-1127342D02*
G01X-3029803Y-1082340D01*
G01X-3024802Y-1077342D01*
G01X-2976804Y-1077342D01*
G01X-2969803Y-1082340D01*
G01X-2969803Y-1127342D01*
G01X-2976804Y-1132340D01*
G01X-3024802Y-1132340D01*
G01X-3029803Y-1127342D01*
G37*
G36*
G01X-2414506Y-379345D02*
G01X-2414506Y-334344D01*
G01X-2407508Y-329345D01*
G01X-2359507Y-329345D01*
G01X-2354506Y-334344D01*
G01X-2354506Y-379345D01*
G01X-2359507Y-384343D01*
G01X-2407508Y-384343D01*
G01X-2414506Y-379345D01*
G37*
G36*
G01X-2510508Y-379345D02*
G01X-2510508Y-334344D01*
G01X-2505506Y-329345D01*
G01X-2457508Y-329345D01*
G01X-2450508Y-334344D01*
G01X-2450508Y-379345D01*
G01X-2457508Y-384343D01*
G01X-2505506Y-384343D01*
G01X-2510508Y-379345D01*
G37*
G36*
G01X-2362302Y531161D02*
G01X-2362302Y659159D01*
G01X-2357301Y664160D01*
G01X-2242300Y664160D01*
G01X-2237301Y659159D01*
G01X-2236798Y618156D01*
G01X-2281799Y618156D01*
G01X-2281799Y573157D01*
G01X-2237799Y573157D01*
G01X-2237301Y531161D01*
G01X-2242300Y526159D01*
G01X-2357301Y526159D01*
G01X-2362302Y531161D01*
G37*
G36*
G01X-2021307Y659161D02*
G01X-2021307Y531163D01*
G01X-2026308Y526162D01*
G01X-2141309Y526162D01*
G01X-2146308Y531163D01*
G01X-2146811Y572166D01*
G01X-2101810Y572166D01*
G01X-2101810Y617165D01*
G01X-2145810Y617165D01*
G01X-2146308Y659161D01*
G01X-2141309Y664163D01*
G01X-2026308Y664163D01*
G01X-2021307Y659161D01*
G37*
G36*
G01X-3394805Y-558339D02*
G01X-3348806Y-558339D01*
G01X-3344805Y-562340D01*
G01X-3344805Y-612403D01*
G01X-3348806Y-616404D01*
G01X-3394805Y-616404D01*
G01X-3398805Y-612403D01*
G01X-3398805Y-562340D01*
G01X-3394805Y-558339D01*
G37*
G36*
G01X-3394805Y-531339D02*
G01X-3398805Y-527339D01*
G01X-3398805Y-477275D01*
G01X-3394805Y-473275D01*
G01X-3348806Y-473275D01*
G01X-3344805Y-477275D01*
G01X-3344805Y-527339D01*
G01X-3348806Y-531339D01*
G01X-3394805Y-531339D01*
G37*
G36*
G01X-1133800Y-787341D02*
G01X-1133800Y-742340D01*
G01X-1126803Y-737341D01*
G01X-1078802Y-737341D01*
G01X-1073800Y-742340D01*
G01X-1073800Y-787341D01*
G01X-1078802Y-792340D01*
G01X-1126803Y-792340D01*
G01X-1133800Y-787341D01*
G37*
G36*
G01X-1229802Y-787341D02*
G01X-1229802Y-742340D01*
G01X-1224801Y-737341D01*
G01X-1176803Y-737341D01*
G01X-1169802Y-742340D01*
G01X-1169802Y-787341D01*
G01X-1176803Y-792340D01*
G01X-1224801Y-792340D01*
G01X-1229802Y-787341D01*
G37*
G36*
G01X-2274306Y-442843D02*
G01X-2229305Y-442843D01*
G01X-2224306Y-449841D01*
G01X-2224306Y-497842D01*
G01X-2229305Y-502843D01*
G01X-2274306Y-502843D01*
G01X-2279305Y-497842D01*
G01X-2279305Y-449841D01*
G01X-2274306Y-442843D01*
G37*
G36*
G01X-2274306Y-346841D02*
G01X-2229305Y-346841D01*
G01X-2224306Y-351842D01*
G01X-2224306Y-399841D01*
G01X-2229305Y-406841D01*
G01X-2274306Y-406841D01*
G01X-2279305Y-399841D01*
G01X-2279305Y-351842D01*
G01X-2274306Y-346841D01*
G37*
G36*
G01X-2129303Y-406836D02*
G01X-2174304Y-406836D01*
G01X-2179302Y-399838D01*
G01X-2179302Y-351837D01*
G01X-2174304Y-346836D01*
G01X-2129303Y-346836D01*
G01X-2124304Y-351837D01*
G01X-2124304Y-399838D01*
G01X-2129303Y-406836D01*
G37*
G36*
G01X-2129303Y-502838D02*
G01X-2174304Y-502838D01*
G01X-2179302Y-497836D01*
G01X-2179302Y-449838D01*
G01X-2174304Y-442838D01*
G01X-2129303Y-442838D01*
G01X-2124304Y-449838D01*
G01X-2124304Y-497836D01*
G01X-2129303Y-502838D01*
G37*
G36*
G01X-1449808Y-802338D02*
G01X-1449808Y-847339D01*
G01X-1456805Y-852338D01*
G01X-1504806Y-852338D01*
G01X-1509807Y-847339D01*
G01X-1509807Y-802338D01*
G01X-1504806Y-797339D01*
G01X-1456805Y-797339D01*
G01X-1449808Y-802338D01*
G37*
G36*
G01X-1353806Y-802338D02*
G01X-1353806Y-847339D01*
G01X-1358807Y-852338D01*
G01X-1406805Y-852338D01*
G01X-1413806Y-847339D01*
G01X-1413806Y-802338D01*
G01X-1406805Y-797339D01*
G01X-1358807Y-797339D01*
G01X-1353806Y-802338D01*
G37*
G36*
G01X-1169302Y193164D02*
G01X-1214303Y193164D01*
G01X-1219302Y200162D01*
G01X-1219302Y248163D01*
G01X-1214303Y253164D01*
G01X-1169302Y253164D01*
G01X-1164303Y248163D01*
G01X-1164303Y200162D01*
G01X-1169302Y193164D01*
G37*
G36*
G01X-1169302Y97163D02*
G01X-1214303Y97163D01*
G01X-1219302Y102164D01*
G01X-1219302Y150162D01*
G01X-1214303Y157163D01*
G01X-1169302Y157163D01*
G01X-1164303Y150162D01*
G01X-1164303Y102164D01*
G01X-1169302Y97163D01*
G37*
G36*
G01X-1133800Y-707341D02*
G01X-1133800Y-662340D01*
G01X-1126803Y-657341D01*
G01X-1078802Y-657341D01*
G01X-1073800Y-662340D01*
G01X-1073800Y-707341D01*
G01X-1078802Y-712340D01*
G01X-1126803Y-712340D01*
G01X-1133800Y-707341D01*
G37*
G36*
G01X-1229802Y-707341D02*
G01X-1229802Y-662340D01*
G01X-1224801Y-657341D01*
G01X-1176803Y-657341D01*
G01X-1169802Y-662340D01*
G01X-1169802Y-707341D01*
G01X-1176803Y-712340D01*
G01X-1224801Y-712340D01*
G01X-1229802Y-707341D01*
G37*
G36*
G01X-1385026Y233324D02*
G01X-1385026Y188323D01*
G01X-1392024Y183324D01*
G01X-1440025Y183324D01*
G01X-1445026Y188323D01*
G01X-1445026Y233324D01*
G01X-1440025Y238323D01*
G01X-1392024Y238323D01*
G01X-1385026Y233324D01*
G37*
G36*
G01X-1289024Y233324D02*
G01X-1289024Y188323D01*
G01X-1294026Y183324D01*
G01X-1342024Y183324D01*
G01X-1349024Y188323D01*
G01X-1349024Y233324D01*
G01X-1342024Y238323D01*
G01X-1294026Y238323D01*
G01X-1289024Y233324D01*
G37*
G36*
G01X-1605304Y238161D02*
G01X-1605304Y192161D01*
G01X-1609305Y188161D01*
G01X-1659368Y188161D01*
G01X-1663369Y192161D01*
G01X-1663369Y238161D01*
G01X-1659368Y242161D01*
G01X-1609305Y242161D01*
G01X-1605304Y238161D01*
G37*
G36*
G01X-1578304Y238161D02*
G01X-1574304Y242161D01*
G01X-1524240Y242161D01*
G01X-1520240Y238161D01*
G01X-1520240Y192161D01*
G01X-1524240Y188161D01*
G01X-1574304Y188161D01*
G01X-1578304Y192161D01*
G01X-1578304Y238161D01*
G37*
G36*
G01X-2549808Y957663D02*
G01X-2549808Y912662D01*
G01X-2556806Y907663D01*
G01X-2604807Y907663D01*
G01X-2609808Y912662D01*
G01X-2609808Y957663D01*
G01X-2604807Y962662D01*
G01X-2556806Y962662D01*
G01X-2549808Y957663D01*
G37*
G36*
G01X-2453806Y957663D02*
G01X-2453806Y912662D01*
G01X-2458808Y907663D01*
G01X-2506806Y907663D01*
G01X-2513806Y912662D01*
G01X-2513806Y957663D01*
G01X-2506806Y962662D01*
G01X-2458808Y962662D01*
G01X-2453806Y957663D01*
G37*
G36*
G01X-1529814Y747657D02*
G01X-1529814Y702656D01*
G01X-1536811Y697657D01*
G01X-1584812Y697657D01*
G01X-1589813Y702656D01*
G01X-1589813Y747657D01*
G01X-1584812Y752656D01*
G01X-1536811Y752656D01*
G01X-1529814Y747657D01*
G37*
G36*
G01X-1433812Y747657D02*
G01X-1433812Y702656D01*
G01X-1438813Y697657D01*
G01X-1486811Y697657D01*
G01X-1493812Y702656D01*
G01X-1493812Y747657D01*
G01X-1486811Y752656D01*
G01X-1438813Y752656D01*
G01X-1433812Y747657D01*
G37*
G36*
G01X-2782431Y1048329D02*
G01X-2782431Y920331D01*
G01X-2787433Y915330D01*
G01X-2902434Y915330D01*
G01X-2907432Y920331D01*
G01X-2907935Y961334D01*
G01X-2862934Y961334D01*
G01X-2862934Y1006333D01*
G01X-2906934Y1006333D01*
G01X-2907432Y1048329D01*
G01X-2902434Y1053331D01*
G01X-2787433Y1053331D01*
G01X-2782431Y1048329D01*
G37*
G36*
G01X-3123426Y920329D02*
G01X-3123426Y1048327D01*
G01X-3118425Y1053328D01*
G01X-3003424Y1053328D01*
G01X-2998425Y1048327D01*
G01X-2997922Y1007324D01*
G01X-3042924Y1007324D01*
G01X-3042924Y962325D01*
G01X-2998923Y962325D01*
G01X-2998425Y920329D01*
G01X-3003424Y915327D01*
G01X-3118425Y915327D01*
G01X-3123426Y920329D01*
G37*
G36*
G01X-2781307Y893661D02*
G01X-2781307Y765663D01*
G01X-2786309Y760662D01*
G01X-2901310Y760662D01*
G01X-2906308Y765663D01*
G01X-2906811Y806666D01*
G01X-2861810Y806666D01*
G01X-2861810Y851665D01*
G01X-2905811Y851665D01*
G01X-2906308Y893661D01*
G01X-2901310Y898663D01*
G01X-2786309Y898663D01*
G01X-2781307Y893661D01*
G37*
G36*
G01X-3122302Y765661D02*
G01X-3122302Y893659D01*
G01X-3117301Y898660D01*
G01X-3002300Y898660D01*
G01X-2997301Y893659D01*
G01X-2996798Y852656D01*
G01X-3041800Y852656D01*
G01X-3041800Y807657D01*
G01X-2997799Y807657D01*
G01X-2997301Y765661D01*
G01X-3002300Y760659D01*
G01X-3117301Y760659D01*
G01X-3122302Y765661D01*
G37*
G36*
G01X-2781307Y739162D02*
G01X-2781307Y611163D01*
G01X-2786309Y606162D01*
G01X-2901310Y606162D01*
G01X-2906308Y611163D01*
G01X-2906811Y652167D01*
G01X-2861810Y652167D01*
G01X-2861810Y697165D01*
G01X-2905811Y697165D01*
G01X-2906308Y739162D01*
G01X-2901310Y744163D01*
G01X-2786309Y744163D01*
G01X-2781307Y739162D01*
G37*
G36*
G01X-3122302Y611161D02*
G01X-3122302Y739159D01*
G01X-3117301Y744160D01*
G01X-3002300Y744160D01*
G01X-2997301Y739159D01*
G01X-2996798Y698156D01*
G01X-3041800Y698156D01*
G01X-3041800Y653157D01*
G01X-2997799Y653157D01*
G01X-2997301Y611161D01*
G01X-3002300Y606160D01*
G01X-3117301Y606160D01*
G01X-3122302Y611161D01*
G37*
G36*
G01X-1665304Y-1261840D02*
G01X-1665304Y-1307839D01*
G01X-1669305Y-1311840D01*
G01X-1719368Y-1311840D01*
G01X-1723369Y-1307839D01*
G01X-1723369Y-1261840D01*
G01X-1719368Y-1257839D01*
G01X-1669305Y-1257839D01*
G01X-1665304Y-1261840D01*
G37*
G36*
G01X-1638304Y-1261840D02*
G01X-1634304Y-1257839D01*
G01X-1584240Y-1257839D01*
G01X-1580240Y-1261840D01*
G01X-1580240Y-1307839D01*
G01X-1584240Y-1311840D01*
G01X-1634304Y-1311840D01*
G01X-1638304Y-1307839D01*
G01X-1638304Y-1261840D01*
G37*
G36*
G01X-2909704Y1236302D02*
G01X-2909704Y1191301D01*
G01X-2916701Y1186302D01*
G01X-2964702Y1186302D01*
G01X-2969703Y1191301D01*
G01X-2969703Y1236302D01*
G01X-2964702Y1241301D01*
G01X-2916701Y1241301D01*
G01X-2909704Y1236302D01*
G37*
G36*
G01X-2813702Y1236302D02*
G01X-2813702Y1191301D01*
G01X-2818703Y1186302D01*
G01X-2866701Y1186302D01*
G01X-2873702Y1191301D01*
G01X-2873702Y1236302D01*
G01X-2866701Y1241301D01*
G01X-2818703Y1241301D01*
G01X-2813702Y1236302D01*
G37*
G36*
G01X-3117900Y1226500D02*
G01X-3117900Y1272500D01*
G01X-3113899Y1276500D01*
G01X-3063836Y1276500D01*
G01X-3059835Y1272500D01*
G01X-3059835Y1226500D01*
G01X-3063836Y1222500D01*
G01X-3113899Y1222500D01*
G01X-3117900Y1226500D01*
G37*
G36*
G01X-3144900Y1226500D02*
G01X-3148900Y1222500D01*
G01X-3198964Y1222500D01*
G01X-3202964Y1226500D01*
G01X-3202964Y1272500D01*
G01X-3198964Y1276500D01*
G01X-3148900Y1276500D01*
G01X-3144900Y1272500D01*
G01X-3144900Y1226500D01*
G37*

G04 Pad Start*
G54D10*
G01X-2211805Y974791D03*
G01X-2071805Y975161D03*
G54D11*
G01X-2456804Y810162D03*
G01X-2686806Y715166D03*
G01X-2456804Y620160D03*
G54D12*
G01X-3465800Y-704840D03*
G01X-3237810Y-704840D03*
G54D13*
G01X-1691804Y-1162099D03*
G01X-1691804Y-927581D03*
G54D14*
G01X-1356730Y60100D03*
G01X-1406768Y60100D03*
G01X-1456806Y60100D03*
G01X-1506844Y60100D03*
G01X-1556882Y60100D03*
G01X-1606920Y60100D03*
G01X-1656704Y60100D03*
G01X-1706742Y60100D03*
G01X-1756780Y60100D03*
G01X-1806818Y60100D03*
G01X-1856856Y60100D03*
G01X-1906894Y60100D03*
G54D15*
G01X-1976744Y-9750D03*
G01X-1976744Y-59788D03*
G01X-1976744Y-109826D03*
G01X-1976744Y-159864D03*
G01X-1976744Y-209902D03*
G01X-1976744Y-259940D03*
G01X-1976744Y-309724D03*
G01X-1976744Y-359762D03*
G01X-1976744Y-409800D03*
G01X-1976744Y-459838D03*
G01X-1976744Y-509876D03*
G01X-1976744Y-559914D03*
G54D14*
G01X-1906894Y-629764D03*
G01X-1856856Y-629764D03*
G01X-1806818Y-629764D03*
G01X-1756780Y-629764D03*
G01X-1706742Y-629764D03*
G01X-1656704Y-629764D03*
G01X-1606920Y-629764D03*
G01X-1556882Y-629764D03*
G01X-1506844Y-629764D03*
G01X-1456806Y-629764D03*
G01X-1406768Y-629764D03*
G01X-1356730Y-629764D03*
G54D15*
G01X-1286880Y-559914D03*
G01X-1286880Y-509876D03*
G01X-1286880Y-459838D03*
G01X-1286880Y-409800D03*
G01X-1286880Y-359762D03*
G01X-1286880Y-309724D03*
G01X-1286880Y-259940D03*
G01X-1286880Y-209902D03*
G01X-1286880Y-159864D03*
G01X-1286880Y-109826D03*
G01X-1286880Y-59788D03*
G01X-1286880Y-9750D03*
G54D17*
G01X-1631812Y-284832D03*
G54D18*
G01X-2937159Y-1417497D03*
G01X-3097052Y-1418183D03*
G54D19*
G01X-1576808Y490167D03*
G01X-1766800Y490167D03*
G01X-1766800Y340155D03*
G01X-1576808Y340155D03*
G54D20*
G01X-1006718Y-519831D03*
G01X-1006718Y-419805D03*
G01X-1006718Y-319806D03*
G01X-1006718Y-219806D03*
G01X-1006718Y-119806D03*
G01X-1006718Y-19806D03*
G54D21*
G01X-619215Y110166D03*
G01X-619215Y-649828D03*
G54D20*
G01X-999539Y371239D03*
G01X-999539Y471315D03*
G01X-999539Y571264D03*
G01X-999539Y671213D03*
G01X-999539Y771289D03*
G54D22*
G01X-612062Y241191D03*
G01X-612062Y901210D03*
G54D23*
G01X-2896809Y-721332D03*
G01X-3086801Y-721332D03*
G01X-2991805Y-968347D03*
G54D24*
G01X-2981802Y395161D03*
G01X-2761808Y395161D03*
G54D25*
G01X-2626814Y480151D03*
G01X-2486809Y480151D03*
G54D26*
G01X-1811804Y815161D03*
G54D27*
G01X-1909290Y956411D03*
G01X-1844316Y956411D03*
G01X-1779292Y956411D03*
G01X-1714319Y956411D03*
G01X-1714319Y673912D03*
G01X-1779292Y673912D03*
G01X-1844316Y673912D03*
G01X-1909290Y673912D03*
G54D25*
G01X-2921807Y-584839D03*
G01X-2781802Y-584839D03*
G54D18*
G01X-1511858Y-1424840D03*
G01X-1671751Y-1424840D03*
G54D28*
G01X-3265702Y1312399D03*
G01X-2925697Y1312399D03*
G01X-2865703Y1482401D03*
G01X-3325697Y1482401D03*
G54D29*
G01X-2414311Y1122082D03*
G01X-2514336Y1122082D03*
G01X-2614336Y1122082D03*
G54D30*
G01X-2744333Y1509584D03*
G01X-2284313Y1509584D03*
G54D29*
G01X-1669701Y1127182D03*
G01X-1769726Y1127182D03*
G01X-1869726Y1127182D03*
G54D30*
G01X-1999723Y1514685D03*
G01X-1539704Y1514685D03*
G54D31*
G01X-814301Y-829594D03*
G01X-814301Y-1169599D03*
G01X-644299Y-1229594D03*
G01X-644299Y-769600D03*
G04 Pad End*

M02*

