G04 Layer: BottomPasteMaskLayer*
G04 EasyEDA Pro v3.2.148, 2026-08-18 08:28:43*
G04 Gerber Generator version 0.3*
G04 Scale: 100 percent, Rotated: No, Reflected: No*
G04 Dimensions in millimeters*
G04 Leading zeros omitted, absolute positions, 4 integers and 5 decimals*
G04 Generated by one-click*
G04 Object Configs: Pad,Via,Track,Text,Image,Dimension,BoardOutline,BoardCutout,CopperFilled,SolidRegion,FPCStiffener,Line,PlaneZone,ComponentProperty,ComponentSilkscreen,TearDrop*
G04 Layer Configs: 1,15,16,2,3,4,5,6,7,8,9,10,11,13,14,56*
G04 Copper Areas: 0*
%FSLAX45Y45*%
%MOMM*%
%ADD10C,0.254*%
%ADD11C,0.5847*%
G75*


G04 PolygonModel Start*
G36*
G01X-2500100Y-128712D02*
G01X-2500675Y-128198D01*
G01X-2501221Y-127652D01*
G01X-2501734Y-127077D01*
G01X-2502217Y-126476D01*
G01X-2502666Y-125847D01*
G01X-2503078Y-125195D01*
G01X-2503455Y-124523D01*
G01X-2503794Y-123828D01*
G01X-2504094Y-123119D01*
G01X-2504355Y-122392D01*
G01X-2504576Y-121653D01*
G01X-2504753Y-120901D01*
G01X-2504890Y-120143D01*
G01X-2504987Y-119378D01*
G01X-2505039Y-118607D01*
G01X-2505050Y-117835D01*
G01X-2505019Y-117064D01*
G01X-2504946Y-116298D01*
G01X-2504829Y-115534D01*
G01X-2504669Y-114778D01*
G01X-2504470Y-114033D01*
G01X-2504229Y-113300D01*
G01X-2503949Y-112582D01*
G01X-2503629Y-111881D01*
G01X-2503272Y-111197D01*
G01X-2502876Y-110532D01*
G01X-2502445Y-109893D01*
G01X-2501980Y-109277D01*
G01X-2501483Y-108690D01*
G01X-2500951Y-108129D01*
G01X-2460646Y-67824D01*
G01X-2460086Y-67292D01*
G01X-2459498Y-66795D01*
G01X-2458882Y-66330D01*
G01X-2458243Y-65899D01*
G01X-2457578Y-65503D01*
G01X-2456894Y-65146D01*
G01X-2456194Y-64826D01*
G01X-2455475Y-64546D01*
G01X-2454742Y-64305D01*
G01X-2453997Y-64106D01*
G01X-2453241Y-63946D01*
G01X-2452478Y-63830D01*
G01X-2451711Y-63756D01*
G01X-2450940Y-63725D01*
G01X-2450168Y-63736D01*
G01X-2449397Y-63788D01*
G01X-2448632Y-63885D01*
G01X-2447874Y-64022D01*
G01X-2447122Y-64200D01*
G01X-2446384Y-64420D01*
G01X-2445656Y-64681D01*
G01X-2444947Y-64981D01*
G01X-2444252Y-65320D01*
G01X-2443580Y-65697D01*
G01X-2442928Y-66109D01*
G01X-2442299Y-66558D01*
G01X-2441698Y-67041D01*
G01X-2441123Y-67555D01*
G01X-2440577Y-68101D01*
G01X-2440063Y-68675D01*
G01X-2439580Y-69277D01*
G01X-2439131Y-69906D01*
G01X-2438720Y-70558D01*
G01X-2438343Y-71229D01*
G01X-2438003Y-71924D01*
G01X-2437703Y-72634D01*
G01X-2437443Y-73361D01*
G01X-2437222Y-74099D01*
G01X-2437044Y-74852D01*
G01X-2436908Y-75610D01*
G01X-2436811Y-76375D01*
G01X-2436758Y-77145D01*
G01X-2436748Y-77918D01*
G01X-2436778Y-78688D01*
G01X-2436852Y-79455D01*
G01X-2436969Y-80219D01*
G01X-2437128Y-80975D01*
G01X-2437328Y-81720D01*
G01X-2437568Y-82453D01*
G01X-2437849Y-83171D01*
G01X-2438168Y-83872D01*
G01X-2438526Y-84556D01*
G01X-2438921Y-85221D01*
G01X-2439352Y-85860D01*
G01X-2439817Y-86476D01*
G01X-2440315Y-87063D01*
G01X-2440846Y-87624D01*
G01X-2481151Y-127929D01*
G01X-2481712Y-128460D01*
G01X-2482299Y-128958D01*
G01X-2482915Y-129423D01*
G01X-2483555Y-129854D01*
G01X-2484219Y-130249D01*
G01X-2484903Y-130607D01*
G01X-2485604Y-130926D01*
G01X-2486322Y-131207D01*
G01X-2487055Y-131447D01*
G01X-2487800Y-131647D01*
G01X-2488557Y-131806D01*
G01X-2489320Y-131923D01*
G01X-2490087Y-131997D01*
G01X-2490857Y-132027D01*
G01X-2491630Y-132017D01*
G01X-2492400Y-131965D01*
G01X-2493165Y-131868D01*
G01X-2493923Y-131731D01*
G01X-2494676Y-131553D01*
G01X-2495414Y-131332D01*
G01X-2496141Y-131072D01*
G01X-2496851Y-130772D01*
G01X-2497546Y-130433D01*
G01X-2498218Y-130055D01*
G01X-2498870Y-129644D01*
G01X-2499498Y-129195D01*
G01X-2500100Y-128712D01*
G37*
G36*
G01X-2429389Y-199422D02*
G01X-2429964Y-198909D01*
G01X-2430510Y-198363D01*
G01X-2431024Y-197788D01*
G01X-2431507Y-197186D01*
G01X-2431956Y-196558D01*
G01X-2432367Y-195906D01*
G01X-2432744Y-195234D01*
G01X-2433084Y-194539D01*
G01X-2433384Y-193830D01*
G01X-2433644Y-193102D01*
G01X-2433865Y-192364D01*
G01X-2434043Y-191611D01*
G01X-2434179Y-190853D01*
G01X-2434276Y-190088D01*
G01X-2434328Y-189318D01*
G01X-2434339Y-188546D01*
G01X-2434309Y-187775D01*
G01X-2434235Y-187008D01*
G01X-2434118Y-186245D01*
G01X-2433958Y-185489D01*
G01X-2433759Y-184743D01*
G01X-2433518Y-184011D01*
G01X-2433238Y-183292D01*
G01X-2432919Y-182592D01*
G01X-2432561Y-181907D01*
G01X-2432166Y-181243D01*
G01X-2431735Y-180603D01*
G01X-2431270Y-179987D01*
G01X-2430772Y-179400D01*
G01X-2430241Y-178840D01*
G01X-2389935Y-138534D01*
G01X-2389375Y-138003D01*
G01X-2388788Y-137505D01*
G01X-2388172Y-137040D01*
G01X-2387532Y-136609D01*
G01X-2386868Y-136214D01*
G01X-2386183Y-135857D01*
G01X-2385483Y-135537D01*
G01X-2384765Y-135257D01*
G01X-2384032Y-135016D01*
G01X-2383286Y-134817D01*
G01X-2382530Y-134657D01*
G01X-2381767Y-134540D01*
G01X-2381000Y-134466D01*
G01X-2380230Y-134436D01*
G01X-2379457Y-134447D01*
G01X-2378687Y-134499D01*
G01X-2377922Y-134596D01*
G01X-2377164Y-134732D01*
G01X-2376411Y-134910D01*
G01X-2375673Y-135131D01*
G01X-2374946Y-135391D01*
G01X-2374236Y-135691D01*
G01X-2373541Y-136031D01*
G01X-2372869Y-136408D01*
G01X-2372217Y-136819D01*
G01X-2371589Y-137268D01*
G01X-2370987Y-137751D01*
G01X-2370412Y-138265D01*
G01X-2369866Y-138811D01*
G01X-2369353Y-139386D01*
G01X-2368870Y-139987D01*
G01X-2368421Y-140616D01*
G01X-2368009Y-141268D01*
G01X-2367632Y-141940D01*
G01X-2367293Y-142635D01*
G01X-2366993Y-143344D01*
G01X-2366732Y-144072D01*
G01X-2366511Y-144810D01*
G01X-2366333Y-145562D01*
G01X-2366197Y-146320D01*
G01X-2366100Y-147085D01*
G01X-2366048Y-147856D01*
G01X-2366037Y-148628D01*
G01X-2366068Y-149399D01*
G01X-2366141Y-150166D01*
G01X-2366258Y-150929D01*
G01X-2366418Y-151685D01*
G01X-2366617Y-152431D01*
G01X-2366858Y-153163D01*
G01X-2367138Y-153882D01*
G01X-2367458Y-154582D01*
G01X-2367815Y-155267D01*
G01X-2368210Y-155931D01*
G01X-2368641Y-156570D01*
G01X-2369107Y-157186D01*
G01X-2369604Y-157774D01*
G01X-2370136Y-158334D01*
G01X-2410441Y-198639D01*
G01X-2411001Y-199171D01*
G01X-2411589Y-199668D01*
G01X-2412205Y-200134D01*
G01X-2412844Y-200565D01*
G01X-2413509Y-200960D01*
G01X-2414193Y-201317D01*
G01X-2414893Y-201637D01*
G01X-2415612Y-201917D01*
G01X-2416345Y-202158D01*
G01X-2417090Y-202357D01*
G01X-2417846Y-202517D01*
G01X-2418609Y-202634D01*
G01X-2419376Y-202707D01*
G01X-2420147Y-202738D01*
G01X-2420919Y-202727D01*
G01X-2421690Y-202675D01*
G01X-2422455Y-202578D01*
G01X-2423213Y-202442D01*
G01X-2423965Y-202264D01*
G01X-2424703Y-202043D01*
G01X-2425431Y-201782D01*
G01X-2426140Y-201482D01*
G01X-2426835Y-201143D01*
G01X-2427507Y-200766D01*
G01X-2428159Y-200355D01*
G01X-2428788Y-199906D01*
G01X-2429389Y-199422D01*
G37*
G36*
G01X-2464736Y-164076D02*
G01X-2465310Y-163562D01*
G01X-2465856Y-163016D01*
G01X-2466370Y-162442D01*
G01X-2466853Y-161840D01*
G01X-2467302Y-161211D01*
G01X-2467713Y-160559D01*
G01X-2468091Y-159888D01*
G01X-2468430Y-159193D01*
G01X-2468730Y-158483D01*
G01X-2468990Y-157756D01*
G01X-2469211Y-157018D01*
G01X-2469389Y-156265D01*
G01X-2469526Y-155507D01*
G01X-2469623Y-154742D01*
G01X-2469675Y-153972D01*
G01X-2469685Y-153199D01*
G01X-2469655Y-152429D01*
G01X-2469581Y-151662D01*
G01X-2469465Y-150899D01*
G01X-2469305Y-150142D01*
G01X-2469105Y-149397D01*
G01X-2468865Y-148664D01*
G01X-2468584Y-147946D01*
G01X-2468265Y-147245D01*
G01X-2467907Y-146561D01*
G01X-2467512Y-145897D01*
G01X-2467081Y-145257D01*
G01X-2466616Y-144641D01*
G01X-2466119Y-144054D01*
G01X-2465587Y-143493D01*
G01X-2425282Y-103188D01*
G01X-2424721Y-102657D01*
G01X-2424134Y-102159D01*
G01X-2423518Y-101694D01*
G01X-2422879Y-101263D01*
G01X-2422214Y-100868D01*
G01X-2421530Y-100510D01*
G01X-2420829Y-100191D01*
G01X-2420111Y-99910D01*
G01X-2419378Y-99670D01*
G01X-2418633Y-99470D01*
G01X-2417877Y-99311D01*
G01X-2417113Y-99194D01*
G01X-2416346Y-99120D01*
G01X-2415576Y-99090D01*
G01X-2414804Y-99100D01*
G01X-2414033Y-99152D01*
G01X-2413268Y-99249D01*
G01X-2412510Y-99386D01*
G01X-2411757Y-99564D01*
G01X-2411019Y-99785D01*
G01X-2410292Y-100045D01*
G01X-2409582Y-100345D01*
G01X-2408887Y-100685D01*
G01X-2408216Y-101062D01*
G01X-2407564Y-101473D01*
G01X-2406935Y-101922D01*
G01X-2406333Y-102405D01*
G01X-2405759Y-102919D01*
G01X-2405213Y-103465D01*
G01X-2404699Y-104040D01*
G01X-2404216Y-104641D01*
G01X-2403767Y-105270D01*
G01X-2403356Y-105922D01*
G01X-2402978Y-106594D01*
G01X-2402639Y-107289D01*
G01X-2402339Y-107998D01*
G01X-2402079Y-108725D01*
G01X-2401858Y-109464D01*
G01X-2401680Y-110216D01*
G01X-2401543Y-110974D01*
G01X-2401446Y-111739D01*
G01X-2401394Y-112510D01*
G01X-2401383Y-113282D01*
G01X-2401414Y-114053D01*
G01X-2401488Y-114819D01*
G01X-2401604Y-115583D01*
G01X-2401764Y-116339D01*
G01X-2401964Y-117084D01*
G01X-2402204Y-117817D01*
G01X-2402484Y-118535D01*
G01X-2402804Y-119236D01*
G01X-2403162Y-119920D01*
G01X-2403557Y-120585D01*
G01X-2403988Y-121224D01*
G01X-2404453Y-121840D01*
G01X-2404950Y-122428D01*
G01X-2405482Y-122988D01*
G01X-2445787Y-163293D01*
G01X-2446348Y-163825D01*
G01X-2446935Y-164322D01*
G01X-2447551Y-164787D01*
G01X-2448190Y-165218D01*
G01X-2448855Y-165614D01*
G01X-2449539Y-165971D01*
G01X-2450240Y-166291D01*
G01X-2450958Y-166571D01*
G01X-2451691Y-166812D01*
G01X-2452436Y-167011D01*
G01X-2453192Y-167171D01*
G01X-2453956Y-167287D01*
G01X-2454723Y-167361D01*
G01X-2455493Y-167392D01*
G01X-2456265Y-167381D01*
G01X-2457036Y-167329D01*
G01X-2457801Y-167232D01*
G01X-2458559Y-167095D01*
G01X-2459311Y-166917D01*
G01X-2460050Y-166697D01*
G01X-2460777Y-166436D01*
G01X-2461486Y-166136D01*
G01X-2462182Y-165797D01*
G01X-2462853Y-165420D01*
G01X-2463505Y-165008D01*
G01X-2464134Y-164559D01*
G01X-2464736Y-164076D01*
G37*
G36*
G01X-2394025Y-234787D02*
G01X-2394600Y-234273D01*
G01X-2395146Y-233727D01*
G01X-2395659Y-233152D01*
G01X-2396143Y-232551D01*
G01X-2396592Y-231922D01*
G01X-2397003Y-231270D01*
G01X-2397380Y-230598D01*
G01X-2397719Y-229903D01*
G01X-2398019Y-229194D01*
G01X-2398280Y-228466D01*
G01X-2398501Y-227728D01*
G01X-2398679Y-226976D01*
G01X-2398815Y-226218D01*
G01X-2398912Y-225453D01*
G01X-2398964Y-224682D01*
G01X-2398975Y-223910D01*
G01X-2398944Y-223139D01*
G01X-2398871Y-222372D01*
G01X-2398754Y-221609D01*
G01X-2398594Y-220853D01*
G01X-2398395Y-220108D01*
G01X-2398154Y-219375D01*
G01X-2397874Y-218656D01*
G01X-2397554Y-217956D01*
G01X-2397197Y-217272D01*
G01X-2396802Y-216607D01*
G01X-2396371Y-215968D01*
G01X-2395905Y-215352D01*
G01X-2395408Y-214764D01*
G01X-2394876Y-214204D01*
G01X-2354571Y-173899D01*
G01X-2354011Y-173367D01*
G01X-2353423Y-172870D01*
G01X-2352807Y-172404D01*
G01X-2352168Y-171973D01*
G01X-2351504Y-171578D01*
G01X-2350819Y-171221D01*
G01X-2350119Y-170901D01*
G01X-2349400Y-170621D01*
G01X-2348668Y-170380D01*
G01X-2347922Y-170181D01*
G01X-2347166Y-170021D01*
G01X-2346403Y-169904D01*
G01X-2345636Y-169831D01*
G01X-2344865Y-169800D01*
G01X-2344093Y-169811D01*
G01X-2343322Y-169863D01*
G01X-2342557Y-169960D01*
G01X-2341799Y-170097D01*
G01X-2341047Y-170274D01*
G01X-2340309Y-170495D01*
G01X-2339581Y-170756D01*
G01X-2338872Y-171056D01*
G01X-2338177Y-171395D01*
G01X-2337505Y-171772D01*
G01X-2336853Y-172184D01*
G01X-2336224Y-172633D01*
G01X-2335623Y-173116D01*
G01X-2335048Y-173629D01*
G01X-2334502Y-174175D01*
G01X-2333988Y-174750D01*
G01X-2333505Y-175352D01*
G01X-2333056Y-175980D01*
G01X-2332645Y-176632D01*
G01X-2332268Y-177304D01*
G01X-2331928Y-177999D01*
G01X-2331628Y-178709D01*
G01X-2331368Y-179436D01*
G01X-2331147Y-180174D01*
G01X-2330969Y-180927D01*
G01X-2330833Y-181685D01*
G01X-2330736Y-182450D01*
G01X-2330684Y-183220D01*
G01X-2330673Y-183993D01*
G01X-2330703Y-184763D01*
G01X-2330777Y-185530D01*
G01X-2330894Y-186293D01*
G01X-2331054Y-187049D01*
G01X-2331253Y-187795D01*
G01X-2331494Y-188528D01*
G01X-2331774Y-189246D01*
G01X-2332094Y-189946D01*
G01X-2332451Y-190631D01*
G01X-2332846Y-191295D01*
G01X-2333277Y-191935D01*
G01X-2333742Y-192551D01*
G01X-2334240Y-193138D01*
G01X-2334771Y-193698D01*
G01X-2375077Y-234004D01*
G01X-2375637Y-234535D01*
G01X-2376224Y-235033D01*
G01X-2376840Y-235498D01*
G01X-2377480Y-235929D01*
G01X-2378144Y-236324D01*
G01X-2378829Y-236682D01*
G01X-2379529Y-237001D01*
G01X-2380248Y-237281D01*
G01X-2380980Y-237522D01*
G01X-2381726Y-237721D01*
G01X-2382482Y-237881D01*
G01X-2383245Y-237998D01*
G01X-2384012Y-238072D01*
G01X-2384783Y-238102D01*
G01X-2385555Y-238091D01*
G01X-2386325Y-238039D01*
G01X-2387090Y-237942D01*
G01X-2387848Y-237806D01*
G01X-2388601Y-237628D01*
G01X-2389339Y-237407D01*
G01X-2390067Y-237147D01*
G01X-2390776Y-236847D01*
G01X-2391471Y-236507D01*
G01X-2392143Y-236130D01*
G01X-2392795Y-235719D01*
G01X-2393423Y-235270D01*
G01X-2394025Y-234787D01*
G37*
G36*
G01X-2289369Y-193140D02*
G01X-2289867Y-192553D01*
G01X-2290332Y-191936D01*
G01X-2290763Y-191297D01*
G01X-2291158Y-190633D01*
G01X-2291515Y-189948D01*
G01X-2291835Y-189248D01*
G01X-2292115Y-188529D01*
G01X-2292356Y-187797D01*
G01X-2292555Y-187051D01*
G01X-2292715Y-186295D01*
G01X-2292832Y-185532D01*
G01X-2292906Y-184765D01*
G01X-2292936Y-183994D01*
G01X-2292925Y-183222D01*
G01X-2292873Y-182452D01*
G01X-2292776Y-181686D01*
G01X-2292640Y-180928D01*
G01X-2292462Y-180176D01*
G01X-2292241Y-179438D01*
G01X-2291981Y-178710D01*
G01X-2291681Y-178001D01*
G01X-2291341Y-177306D01*
G01X-2290964Y-176634D01*
G01X-2290553Y-175982D01*
G01X-2290104Y-175354D01*
G01X-2289621Y-174752D01*
G01X-2289107Y-174177D01*
G01X-2288561Y-173631D01*
G01X-2287986Y-173117D01*
G01X-2287384Y-172634D01*
G01X-2286756Y-172185D01*
G01X-2286104Y-171774D01*
G01X-2285432Y-171397D01*
G01X-2284737Y-171057D01*
G01X-2284028Y-170757D01*
G01X-2283300Y-170497D01*
G01X-2282562Y-170276D01*
G01X-2281810Y-170098D01*
G01X-2281052Y-169962D01*
G01X-2280286Y-169865D01*
G01X-2279516Y-169813D01*
G01X-2278744Y-169802D01*
G01X-2277973Y-169832D01*
G01X-2277206Y-169906D01*
G01X-2276443Y-170023D01*
G01X-2275687Y-170183D01*
G01X-2274941Y-170382D01*
G01X-2274209Y-170623D01*
G01X-2273490Y-170903D01*
G01X-2272790Y-171223D01*
G01X-2272105Y-171580D01*
G01X-2271441Y-171975D01*
G01X-2270802Y-172406D01*
G01X-2270185Y-172871D01*
G01X-2269598Y-173369D01*
G01X-2269038Y-173901D01*
G01X-2228733Y-214206D01*
G01X-2228201Y-214766D01*
G01X-2227703Y-215353D01*
G01X-2227238Y-215969D01*
G01X-2226807Y-216609D01*
G01X-2226412Y-217273D01*
G01X-2226055Y-217958D01*
G01X-2225735Y-218658D01*
G01X-2225455Y-219377D01*
G01X-2225214Y-220109D01*
G01X-2225015Y-220855D01*
G01X-2224855Y-221611D01*
G01X-2224738Y-222374D01*
G01X-2224665Y-223141D01*
G01X-2224634Y-223912D01*
G01X-2224645Y-224684D01*
G01X-2224697Y-225454D01*
G01X-2224794Y-226220D01*
G01X-2224930Y-226977D01*
G01X-2225108Y-227730D01*
G01X-2225329Y-228468D01*
G01X-2225590Y-229196D01*
G01X-2225889Y-229905D01*
G01X-2226229Y-230600D01*
G01X-2226606Y-231272D01*
G01X-2227017Y-231924D01*
G01X-2227466Y-232552D01*
G01X-2227950Y-233154D01*
G01X-2228463Y-233729D01*
G01X-2229009Y-234275D01*
G01X-2229584Y-234788D01*
G01X-2230186Y-235272D01*
G01X-2230814Y-235721D01*
G01X-2231466Y-236132D01*
G01X-2232138Y-236509D01*
G01X-2232833Y-236849D01*
G01X-2233542Y-237148D01*
G01X-2234270Y-237409D01*
G01X-2235008Y-237630D01*
G01X-2235761Y-237808D01*
G01X-2236519Y-237944D01*
G01X-2237284Y-238041D01*
G01X-2238054Y-238093D01*
G01X-2238826Y-238104D01*
G01X-2239597Y-238073D01*
G01X-2240364Y-238000D01*
G01X-2241127Y-237883D01*
G01X-2241883Y-237723D01*
G01X-2242629Y-237524D01*
G01X-2243361Y-237283D01*
G01X-2244080Y-237003D01*
G01X-2244780Y-236683D01*
G01X-2245465Y-236326D01*
G01X-2246129Y-235931D01*
G01X-2246769Y-235500D01*
G01X-2247385Y-235035D01*
G01X-2247972Y-234537D01*
G01X-2248532Y-234005D01*
G01X-2288837Y-193700D01*
G01X-2289369Y-193140D01*
G37*
G36*
G01X-2501501Y18992D02*
G01X-2501998Y19579D01*
G01X-2502463Y20195D01*
G01X-2502894Y20835D01*
G01X-2503290Y21499D01*
G01X-2503647Y22183D01*
G01X-2503967Y22884D01*
G01X-2504247Y23602D01*
G01X-2504488Y24335D01*
G01X-2504687Y25080D01*
G01X-2504847Y25837D01*
G01X-2504964Y26600D01*
G01X-2505037Y27367D01*
G01X-2505068Y28137D01*
G01X-2505057Y28910D01*
G01X-2505005Y29680D01*
G01X-2504908Y30445D01*
G01X-2504771Y31203D01*
G01X-2504594Y31956D01*
G01X-2504373Y32694D01*
G01X-2504112Y33421D01*
G01X-2503812Y34131D01*
G01X-2503473Y34826D01*
G01X-2503096Y35497D01*
G01X-2502684Y36149D01*
G01X-2502235Y36778D01*
G01X-2501752Y37380D01*
G01X-2501238Y37954D01*
G01X-2500692Y38500D01*
G01X-2500118Y39014D01*
G01X-2499516Y39497D01*
G01X-2498887Y39946D01*
G01X-2498236Y40358D01*
G01X-2497564Y40735D01*
G01X-2496869Y41074D01*
G01X-2496159Y41374D01*
G01X-2495432Y41635D01*
G01X-2494694Y41856D01*
G01X-2493941Y42033D01*
G01X-2493183Y42170D01*
G01X-2492418Y42267D01*
G01X-2491648Y42319D01*
G01X-2490875Y42330D01*
G01X-2490105Y42299D01*
G01X-2489338Y42225D01*
G01X-2488575Y42109D01*
G01X-2487818Y41949D01*
G01X-2487073Y41750D01*
G01X-2486340Y41509D01*
G01X-2485622Y41229D01*
G01X-2484921Y40909D01*
G01X-2484237Y40552D01*
G01X-2483573Y40156D01*
G01X-2482933Y39725D01*
G01X-2482317Y39260D01*
G01X-2481730Y38763D01*
G01X-2481169Y38231D01*
G01X-2440864Y-2074D01*
G01X-2440333Y-2634D01*
G01X-2439835Y-3222D01*
G01X-2439370Y-3838D01*
G01X-2438939Y-4477D01*
G01X-2438544Y-5142D01*
G01X-2438186Y-5826D01*
G01X-2437867Y-6527D01*
G01X-2437586Y-7245D01*
G01X-2437346Y-7978D01*
G01X-2437146Y-8723D01*
G01X-2436987Y-9479D01*
G01X-2436870Y-10243D01*
G01X-2436796Y-11009D01*
G01X-2436766Y-11780D01*
G01X-2436776Y-12552D01*
G01X-2436829Y-13323D01*
G01X-2436925Y-14088D01*
G01X-2437062Y-14846D01*
G01X-2437240Y-15598D01*
G01X-2437461Y-16337D01*
G01X-2437721Y-17064D01*
G01X-2438021Y-17773D01*
G01X-2438361Y-18468D01*
G01X-2438738Y-19140D01*
G01X-2439149Y-19792D01*
G01X-2439598Y-20421D01*
G01X-2440081Y-21022D01*
G01X-2440595Y-21597D01*
G01X-2441141Y-22143D01*
G01X-2441716Y-22657D01*
G01X-2442317Y-23140D01*
G01X-2442946Y-23589D01*
G01X-2443598Y-24000D01*
G01X-2444270Y-24377D01*
G01X-2444965Y-24717D01*
G01X-2445674Y-25017D01*
G01X-2446401Y-25277D01*
G01X-2447140Y-25498D01*
G01X-2447892Y-25676D01*
G01X-2448650Y-25813D01*
G01X-2449415Y-25910D01*
G01X-2450186Y-25962D01*
G01X-2450958Y-25972D01*
G01X-2451729Y-25942D01*
G01X-2452495Y-25868D01*
G01X-2453259Y-25751D01*
G01X-2454015Y-25592D01*
G01X-2454760Y-25392D01*
G01X-2455493Y-25152D01*
G01X-2456211Y-24871D01*
G01X-2456912Y-24552D01*
G01X-2457596Y-24194D01*
G01X-2458261Y-23799D01*
G01X-2458900Y-23368D01*
G01X-2459516Y-22903D01*
G01X-2460104Y-22405D01*
G01X-2460664Y-21874D01*
G01X-2500969Y18431D01*
G01X-2501501Y18992D01*
G37*
G36*
G01X-2254005Y-157776D02*
G01X-2254502Y-157188D01*
G01X-2254968Y-156572D01*
G01X-2255399Y-155933D01*
G01X-2255794Y-155268D01*
G01X-2256151Y-154584D01*
G01X-2256471Y-153884D01*
G01X-2256751Y-153165D01*
G01X-2256992Y-152432D01*
G01X-2257191Y-151687D01*
G01X-2257351Y-150931D01*
G01X-2257468Y-150168D01*
G01X-2257541Y-149401D01*
G01X-2257572Y-148630D01*
G01X-2257561Y-147858D01*
G01X-2257509Y-147087D01*
G01X-2257412Y-146322D01*
G01X-2257275Y-145564D01*
G01X-2257098Y-144812D01*
G01X-2256877Y-144074D01*
G01X-2256616Y-143346D01*
G01X-2256316Y-142637D01*
G01X-2255977Y-141942D01*
G01X-2255600Y-141270D01*
G01X-2255188Y-140618D01*
G01X-2254739Y-139989D01*
G01X-2254256Y-139388D01*
G01X-2253743Y-138813D01*
G01X-2253197Y-138267D01*
G01X-2252622Y-137753D01*
G01X-2252020Y-137270D01*
G01X-2251392Y-136821D01*
G01X-2250740Y-136410D01*
G01X-2250068Y-136033D01*
G01X-2249373Y-135693D01*
G01X-2248663Y-135393D01*
G01X-2247936Y-135133D01*
G01X-2247198Y-134912D01*
G01X-2246445Y-134734D01*
G01X-2245687Y-134598D01*
G01X-2244922Y-134501D01*
G01X-2244152Y-134448D01*
G01X-2243379Y-134438D01*
G01X-2242609Y-134468D01*
G01X-2241842Y-134542D01*
G01X-2241079Y-134659D01*
G01X-2240323Y-134818D01*
G01X-2239577Y-135018D01*
G01X-2238844Y-135258D01*
G01X-2238126Y-135539D01*
G01X-2237426Y-135858D01*
G01X-2236741Y-136216D01*
G01X-2236077Y-136611D01*
G01X-2235437Y-137042D01*
G01X-2234821Y-137507D01*
G01X-2234234Y-138005D01*
G01X-2233674Y-138536D01*
G01X-2193368Y-178841D01*
G01X-2192837Y-179402D01*
G01X-2192339Y-179989D01*
G01X-2191874Y-180605D01*
G01X-2191443Y-181245D01*
G01X-2191048Y-181909D01*
G01X-2190690Y-182593D01*
G01X-2190371Y-183294D01*
G01X-2190091Y-184012D01*
G01X-2189850Y-184745D01*
G01X-2189651Y-185490D01*
G01X-2189491Y-186247D01*
G01X-2189374Y-187010D01*
G01X-2189300Y-187777D01*
G01X-2189270Y-188547D01*
G01X-2189281Y-189320D01*
G01X-2189333Y-190090D01*
G01X-2189430Y-190855D01*
G01X-2189566Y-191613D01*
G01X-2189744Y-192366D01*
G01X-2189965Y-193104D01*
G01X-2190225Y-193831D01*
G01X-2190525Y-194541D01*
G01X-2190865Y-195236D01*
G01X-2191242Y-195908D01*
G01X-2191653Y-196560D01*
G01X-2192102Y-197188D01*
G01X-2192585Y-197790D01*
G01X-2193099Y-198365D01*
G01X-2193645Y-198911D01*
G01X-2194220Y-199424D01*
G01X-2194821Y-199907D01*
G01X-2195450Y-200356D01*
G01X-2196102Y-200768D01*
G01X-2196774Y-201145D01*
G01X-2197469Y-201484D01*
G01X-2198178Y-201784D01*
G01X-2198906Y-202045D01*
G01X-2199644Y-202266D01*
G01X-2200396Y-202443D01*
G01X-2201154Y-202580D01*
G01X-2201919Y-202677D01*
G01X-2202690Y-202729D01*
G01X-2203462Y-202740D01*
G01X-2204233Y-202709D01*
G01X-2205000Y-202636D01*
G01X-2205763Y-202519D01*
G01X-2206519Y-202359D01*
G01X-2207264Y-202160D01*
G01X-2207997Y-201919D01*
G01X-2208716Y-201639D01*
G01X-2209416Y-201319D01*
G01X-2210100Y-200962D01*
G01X-2210765Y-200567D01*
G01X-2211404Y-200135D01*
G01X-2212020Y-199670D01*
G01X-2212608Y-199173D01*
G01X-2213168Y-198641D01*
G01X-2253473Y-158336D01*
G01X-2254005Y-157776D01*
G37*
G36*
G01X-2466136Y54356D02*
G01X-2466634Y54943D01*
G01X-2467099Y55559D01*
G01X-2467530Y56199D01*
G01X-2467925Y56863D01*
G01X-2468283Y57548D01*
G01X-2468602Y58248D01*
G01X-2468883Y58966D01*
G01X-2469123Y59699D01*
G01X-2469323Y60445D01*
G01X-2469483Y61201D01*
G01X-2469599Y61964D01*
G01X-2469673Y62731D01*
G01X-2469703Y63502D01*
G01X-2469693Y64274D01*
G01X-2469641Y65044D01*
G01X-2469544Y65809D01*
G01X-2469407Y66567D01*
G01X-2469229Y67320D01*
G01X-2469008Y68058D01*
G01X-2468748Y68785D01*
G01X-2468448Y69495D01*
G01X-2468109Y70190D01*
G01X-2467731Y70862D01*
G01X-2467320Y71514D01*
G01X-2466871Y72142D01*
G01X-2466388Y72744D01*
G01X-2465874Y73319D01*
G01X-2465328Y73865D01*
G01X-2464754Y74378D01*
G01X-2464152Y74862D01*
G01X-2463523Y75311D01*
G01X-2462871Y75722D01*
G01X-2462200Y76099D01*
G01X-2461504Y76438D01*
G01X-2460795Y76738D01*
G01X-2460068Y76999D01*
G01X-2459329Y77220D01*
G01X-2458577Y77398D01*
G01X-2457819Y77534D01*
G01X-2457054Y77631D01*
G01X-2456283Y77683D01*
G01X-2455511Y77694D01*
G01X-2454741Y77663D01*
G01X-2453974Y77590D01*
G01X-2453210Y77473D01*
G01X-2452454Y77313D01*
G01X-2451709Y77114D01*
G01X-2450976Y76873D01*
G01X-2450258Y76593D01*
G01X-2449557Y76273D01*
G01X-2448873Y75916D01*
G01X-2448208Y75521D01*
G01X-2447569Y75090D01*
G01X-2446953Y74624D01*
G01X-2446366Y74127D01*
G01X-2445805Y73595D01*
G01X-2405500Y33290D01*
G01X-2404968Y32730D01*
G01X-2404471Y32142D01*
G01X-2404006Y31526D01*
G01X-2403575Y30887D01*
G01X-2403179Y30222D01*
G01X-2402822Y29538D01*
G01X-2402502Y28838D01*
G01X-2402222Y28119D01*
G01X-2401982Y27387D01*
G01X-2401782Y26641D01*
G01X-2401622Y25885D01*
G01X-2401506Y25122D01*
G01X-2401432Y24355D01*
G01X-2401401Y23584D01*
G01X-2401412Y22812D01*
G01X-2401464Y22041D01*
G01X-2401561Y21276D01*
G01X-2401698Y20518D01*
G01X-2401876Y19766D01*
G01X-2402096Y19028D01*
G01X-2402357Y18300D01*
G01X-2402657Y17591D01*
G01X-2402996Y16896D01*
G01X-2403373Y16224D01*
G01X-2403785Y15572D01*
G01X-2404234Y14943D01*
G01X-2404717Y14342D01*
G01X-2405231Y13767D01*
G01X-2405777Y13221D01*
G01X-2406351Y12707D01*
G01X-2406953Y12224D01*
G01X-2407582Y11775D01*
G01X-2408234Y11364D01*
G01X-2408905Y10987D01*
G01X-2409600Y10647D01*
G01X-2410310Y10347D01*
G01X-2411037Y10087D01*
G01X-2411775Y9866D01*
G01X-2412528Y9688D01*
G01X-2413286Y9552D01*
G01X-2414051Y9455D01*
G01X-2414821Y9403D01*
G01X-2415594Y9392D01*
G01X-2416364Y9422D01*
G01X-2417131Y9496D01*
G01X-2417895Y9613D01*
G01X-2418651Y9773D01*
G01X-2419396Y9972D01*
G01X-2420129Y10213D01*
G01X-2420847Y10493D01*
G01X-2421548Y10813D01*
G01X-2422232Y11170D01*
G01X-2422897Y11565D01*
G01X-2423536Y11996D01*
G01X-2424152Y12461D01*
G01X-2424739Y12959D01*
G01X-2425300Y13490D01*
G01X-2465605Y53796D01*
G01X-2466136Y54356D01*
G37*
G36*
G01X-2218659Y-122429D02*
G01X-2219156Y-121842D01*
G01X-2219621Y-121226D01*
G01X-2220052Y-120587D01*
G01X-2220447Y-119922D01*
G01X-2220805Y-119238D01*
G01X-2221125Y-118537D01*
G01X-2221405Y-117819D01*
G01X-2221645Y-117086D01*
G01X-2221845Y-116341D01*
G01X-2222005Y-115585D01*
G01X-2222121Y-114821D01*
G01X-2222195Y-114054D01*
G01X-2222226Y-113284D01*
G01X-2222215Y-112512D01*
G01X-2222163Y-111741D01*
G01X-2222066Y-110976D01*
G01X-2221929Y-110218D01*
G01X-2221751Y-109465D01*
G01X-2221530Y-108727D01*
G01X-2221270Y-108000D01*
G01X-2220970Y-107290D01*
G01X-2220631Y-106595D01*
G01X-2220253Y-105924D01*
G01X-2219842Y-105272D01*
G01X-2219393Y-104643D01*
G01X-2218910Y-104041D01*
G01X-2218396Y-103467D01*
G01X-2217850Y-102921D01*
G01X-2217276Y-102407D01*
G01X-2216674Y-101924D01*
G01X-2216045Y-101475D01*
G01X-2215393Y-101063D01*
G01X-2214722Y-100686D01*
G01X-2214027Y-100347D01*
G01X-2213317Y-100047D01*
G01X-2212590Y-99786D01*
G01X-2211852Y-99566D01*
G01X-2211099Y-99388D01*
G01X-2210341Y-99251D01*
G01X-2209576Y-99154D01*
G01X-2208805Y-99102D01*
G01X-2208033Y-99091D01*
G01X-2207263Y-99122D01*
G01X-2206496Y-99196D01*
G01X-2205732Y-99312D01*
G01X-2204976Y-99472D01*
G01X-2204231Y-99672D01*
G01X-2203498Y-99912D01*
G01X-2202780Y-100192D01*
G01X-2202079Y-100512D01*
G01X-2201395Y-100870D01*
G01X-2200730Y-101265D01*
G01X-2200091Y-101696D01*
G01X-2199475Y-102161D01*
G01X-2198888Y-102658D01*
G01X-2198327Y-103190D01*
G01X-2158022Y-143495D01*
G01X-2157490Y-144056D01*
G01X-2156993Y-144643D01*
G01X-2156528Y-145259D01*
G01X-2156097Y-145898D01*
G01X-2155702Y-146563D01*
G01X-2155344Y-147247D01*
G01X-2155024Y-147948D01*
G01X-2154744Y-148666D01*
G01X-2154504Y-149399D01*
G01X-2154304Y-150144D01*
G01X-2154144Y-150900D01*
G01X-2154028Y-151664D01*
G01X-2153954Y-152431D01*
G01X-2153924Y-153201D01*
G01X-2153934Y-153973D01*
G01X-2153986Y-154744D01*
G01X-2154083Y-155509D01*
G01X-2154220Y-156267D01*
G01X-2154398Y-157019D01*
G01X-2154619Y-157758D01*
G01X-2154879Y-158485D01*
G01X-2155179Y-159194D01*
G01X-2155518Y-159890D01*
G01X-2155896Y-160561D01*
G01X-2156307Y-161213D01*
G01X-2156756Y-161842D01*
G01X-2157239Y-162444D01*
G01X-2157753Y-163018D01*
G01X-2158299Y-163564D01*
G01X-2158873Y-164078D01*
G01X-2159475Y-164561D01*
G01X-2160104Y-165010D01*
G01X-2160756Y-165421D01*
G01X-2161427Y-165799D01*
G01X-2162122Y-166138D01*
G01X-2162832Y-166438D01*
G01X-2163559Y-166698D01*
G01X-2164297Y-166919D01*
G01X-2165050Y-167097D01*
G01X-2165808Y-167234D01*
G01X-2166573Y-167331D01*
G01X-2167344Y-167383D01*
G01X-2168116Y-167393D01*
G01X-2168886Y-167363D01*
G01X-2169653Y-167289D01*
G01X-2170417Y-167173D01*
G01X-2171173Y-167013D01*
G01X-2171918Y-166813D01*
G01X-2172651Y-166573D01*
G01X-2173369Y-166292D01*
G01X-2174070Y-165973D01*
G01X-2174754Y-165615D01*
G01X-2175419Y-165220D01*
G01X-2176058Y-164789D01*
G01X-2176674Y-164324D01*
G01X-2177261Y-163826D01*
G01X-2177822Y-163295D01*
G01X-2218127Y-122990D01*
G01X-2218659Y-122429D01*
G37*
G36*
G01X-2430790Y89702D02*
G01X-2431288Y90290D01*
G01X-2431753Y90906D01*
G01X-2432184Y91545D01*
G01X-2432579Y92210D01*
G01X-2432936Y92894D01*
G01X-2433256Y93594D01*
G01X-2433536Y94313D01*
G01X-2433777Y95046D01*
G01X-2433976Y95791D01*
G01X-2434136Y96547D01*
G01X-2434253Y97310D01*
G01X-2434327Y98077D01*
G01X-2434357Y98848D01*
G01X-2434346Y99620D01*
G01X-2434294Y100391D01*
G01X-2434197Y101156D01*
G01X-2434061Y101914D01*
G01X-2433883Y102666D01*
G01X-2433662Y103404D01*
G01X-2433402Y104132D01*
G01X-2433102Y104841D01*
G01X-2432762Y105536D01*
G01X-2432385Y106208D01*
G01X-2431974Y106860D01*
G01X-2431525Y107489D01*
G01X-2431042Y108090D01*
G01X-2430528Y108665D01*
G01X-2429982Y109211D01*
G01X-2429407Y109725D01*
G01X-2428806Y110208D01*
G01X-2428177Y110657D01*
G01X-2427525Y111068D01*
G01X-2426853Y111445D01*
G01X-2426158Y111785D01*
G01X-2425449Y112085D01*
G01X-2424721Y112345D01*
G01X-2423983Y112566D01*
G01X-2423231Y112744D01*
G01X-2422473Y112880D01*
G01X-2421708Y112977D01*
G01X-2420937Y113029D01*
G01X-2420165Y113040D01*
G01X-2419394Y113010D01*
G01X-2418627Y112936D01*
G01X-2417864Y112819D01*
G01X-2417108Y112659D01*
G01X-2416363Y112460D01*
G01X-2415630Y112219D01*
G01X-2414911Y111939D01*
G01X-2414211Y111620D01*
G01X-2413527Y111262D01*
G01X-2412862Y110867D01*
G01X-2412223Y110436D01*
G01X-2411607Y109971D01*
G01X-2411019Y109473D01*
G01X-2410459Y108942D01*
G01X-2370154Y68636D01*
G01X-2369622Y68076D01*
G01X-2369125Y67489D01*
G01X-2368659Y66873D01*
G01X-2368228Y66233D01*
G01X-2367833Y65569D01*
G01X-2367476Y64884D01*
G01X-2367156Y64184D01*
G01X-2366876Y63466D01*
G01X-2366635Y62733D01*
G01X-2366436Y61987D01*
G01X-2366276Y61231D01*
G01X-2366159Y60468D01*
G01X-2366086Y59701D01*
G01X-2366055Y58931D01*
G01X-2366066Y58158D01*
G01X-2366118Y57388D01*
G01X-2366215Y56623D01*
G01X-2366351Y55865D01*
G01X-2366529Y55112D01*
G01X-2366750Y54374D01*
G01X-2367011Y53647D01*
G01X-2367311Y52937D01*
G01X-2367650Y52242D01*
G01X-2368027Y51570D01*
G01X-2368438Y50918D01*
G01X-2368887Y50290D01*
G01X-2369371Y49688D01*
G01X-2369884Y49113D01*
G01X-2370430Y48567D01*
G01X-2371005Y48054D01*
G01X-2371607Y47571D01*
G01X-2372235Y47122D01*
G01X-2372887Y46710D01*
G01X-2373559Y46333D01*
G01X-2374254Y45994D01*
G01X-2374964Y45694D01*
G01X-2375691Y45433D01*
G01X-2376429Y45212D01*
G01X-2377182Y45035D01*
G01X-2377940Y44898D01*
G01X-2378705Y44801D01*
G01X-2379475Y44749D01*
G01X-2380248Y44738D01*
G01X-2381018Y44769D01*
G01X-2381785Y44842D01*
G01X-2382548Y44959D01*
G01X-2383304Y45119D01*
G01X-2384050Y45318D01*
G01X-2384783Y45559D01*
G01X-2385501Y45839D01*
G01X-2386201Y46159D01*
G01X-2386886Y46516D01*
G01X-2387550Y46911D01*
G01X-2388190Y47342D01*
G01X-2388806Y47808D01*
G01X-2389393Y48305D01*
G01X-2389953Y48837D01*
G01X-2430259Y89142D01*
G01X-2430790Y89702D01*
G37*
G36*
G01X-2183294Y-87065D02*
G01X-2183792Y-86478D01*
G01X-2184257Y-85862D01*
G01X-2184688Y-85222D01*
G01X-2185083Y-84558D01*
G01X-2185441Y-83873D01*
G01X-2185760Y-83173D01*
G01X-2186040Y-82455D01*
G01X-2186281Y-81722D01*
G01X-2186481Y-80976D01*
G01X-2186640Y-80220D01*
G01X-2186757Y-79457D01*
G01X-2186831Y-78690D01*
G01X-2186861Y-77920D01*
G01X-2186851Y-77147D01*
G01X-2186798Y-76377D01*
G01X-2186701Y-75612D01*
G01X-2186565Y-74854D01*
G01X-2186387Y-74101D01*
G01X-2186166Y-73363D01*
G01X-2185906Y-72636D01*
G01X-2185606Y-71926D01*
G01X-2185266Y-71231D01*
G01X-2184889Y-70559D01*
G01X-2184478Y-69907D01*
G01X-2184029Y-69279D01*
G01X-2183546Y-68677D01*
G01X-2183032Y-68102D01*
G01X-2182486Y-67556D01*
G01X-2181911Y-67043D01*
G01X-2181310Y-66560D01*
G01X-2180681Y-66111D01*
G01X-2180029Y-65699D01*
G01X-2179357Y-65322D01*
G01X-2178662Y-64983D01*
G01X-2177953Y-64683D01*
G01X-2177225Y-64422D01*
G01X-2176487Y-64201D01*
G01X-2175735Y-64024D01*
G01X-2174977Y-63887D01*
G01X-2174212Y-63790D01*
G01X-2173441Y-63738D01*
G01X-2172669Y-63727D01*
G01X-2171898Y-63758D01*
G01X-2171131Y-63831D01*
G01X-2170368Y-63948D01*
G01X-2169612Y-64108D01*
G01X-2168867Y-64307D01*
G01X-2168134Y-64548D01*
G01X-2167415Y-64828D01*
G01X-2166715Y-65148D01*
G01X-2166031Y-65505D01*
G01X-2165366Y-65900D01*
G01X-2164727Y-66331D01*
G01X-2164111Y-66797D01*
G01X-2163523Y-67294D01*
G01X-2162963Y-67826D01*
G01X-2122658Y-108131D01*
G01X-2122126Y-108691D01*
G01X-2121629Y-109279D01*
G01X-2121164Y-109895D01*
G01X-2120732Y-110534D01*
G01X-2120337Y-111199D01*
G01X-2119980Y-111883D01*
G01X-2119660Y-112583D01*
G01X-2119380Y-113302D01*
G01X-2119139Y-114035D01*
G01X-2118940Y-114780D01*
G01X-2118780Y-115536D01*
G01X-2118663Y-116299D01*
G01X-2118590Y-117066D01*
G01X-2118559Y-117837D01*
G01X-2118570Y-118609D01*
G01X-2118622Y-119380D01*
G01X-2118719Y-120145D01*
G01X-2118856Y-120903D01*
G01X-2119033Y-121655D01*
G01X-2119254Y-122393D01*
G01X-2119515Y-123121D01*
G01X-2119815Y-123830D01*
G01X-2120154Y-124525D01*
G01X-2120531Y-125197D01*
G01X-2120943Y-125849D01*
G01X-2121392Y-126478D01*
G01X-2121875Y-127079D01*
G01X-2122388Y-127654D01*
G01X-2122934Y-128200D01*
G01X-2123509Y-128714D01*
G01X-2124111Y-129197D01*
G01X-2124739Y-129646D01*
G01X-2125391Y-130057D01*
G01X-2126063Y-130434D01*
G01X-2126758Y-130774D01*
G01X-2127468Y-131074D01*
G01X-2128195Y-131334D01*
G01X-2128933Y-131555D01*
G01X-2129686Y-131733D01*
G01X-2130444Y-131869D01*
G01X-2131209Y-131966D01*
G01X-2131979Y-132018D01*
G01X-2132752Y-132029D01*
G01X-2133522Y-131999D01*
G01X-2134289Y-131925D01*
G01X-2135052Y-131808D01*
G01X-2135809Y-131648D01*
G01X-2136554Y-131449D01*
G01X-2137287Y-131208D01*
G01X-2138005Y-130928D01*
G01X-2138706Y-130609D01*
G01X-2139390Y-130251D01*
G01X-2140054Y-129856D01*
G01X-2140694Y-129425D01*
G01X-2141310Y-128960D01*
G01X-2141897Y-128462D01*
G01X-2142458Y-127931D01*
G01X-2182763Y-87625D01*
G01X-2183294Y-87065D01*
G37*
G36*
G01X-2395426Y125067D02*
G01X-2395923Y125654D01*
G01X-2396389Y126270D01*
G01X-2396820Y126909D01*
G01X-2397215Y127574D01*
G01X-2397572Y128258D01*
G01X-2397892Y128959D01*
G01X-2398172Y129677D01*
G01X-2398413Y130410D01*
G01X-2398612Y131155D01*
G01X-2398772Y131911D01*
G01X-2398889Y132675D01*
G01X-2398962Y133442D01*
G01X-2398993Y134212D01*
G01X-2398982Y134984D01*
G01X-2398930Y135755D01*
G01X-2398833Y136520D01*
G01X-2398697Y137278D01*
G01X-2398519Y138030D01*
G01X-2398298Y138769D01*
G01X-2398037Y139496D01*
G01X-2397737Y140205D01*
G01X-2397398Y140901D01*
G01X-2397021Y141572D01*
G01X-2396610Y142224D01*
G01X-2396161Y142853D01*
G01X-2395677Y143455D01*
G01X-2395164Y144029D01*
G01X-2394618Y144575D01*
G01X-2394043Y145089D01*
G01X-2393441Y145572D01*
G01X-2392813Y146021D01*
G01X-2392161Y146432D01*
G01X-2391489Y146810D01*
G01X-2390794Y147149D01*
G01X-2390084Y147449D01*
G01X-2389357Y147709D01*
G01X-2388619Y147930D01*
G01X-2387866Y148108D01*
G01X-2387108Y148245D01*
G01X-2386343Y148342D01*
G01X-2385573Y148394D01*
G01X-2384800Y148404D01*
G01X-2384030Y148374D01*
G01X-2383263Y148300D01*
G01X-2382500Y148184D01*
G01X-2381744Y148024D01*
G01X-2380998Y147824D01*
G01X-2380265Y147584D01*
G01X-2379547Y147303D01*
G01X-2378847Y146984D01*
G01X-2378162Y146626D01*
G01X-2377498Y146231D01*
G01X-2376858Y145800D01*
G01X-2376242Y145335D01*
G01X-2375655Y144837D01*
G01X-2375095Y144306D01*
G01X-2334789Y104001D01*
G01X-2334258Y103440D01*
G01X-2333760Y102853D01*
G01X-2333295Y102237D01*
G01X-2332864Y101598D01*
G01X-2332469Y100933D01*
G01X-2332112Y100249D01*
G01X-2331792Y99548D01*
G01X-2331512Y98830D01*
G01X-2331271Y98097D01*
G01X-2331072Y97352D01*
G01X-2330912Y96596D01*
G01X-2330795Y95832D01*
G01X-2330721Y95065D01*
G01X-2330691Y94295D01*
G01X-2330702Y93523D01*
G01X-2330754Y92752D01*
G01X-2330851Y91987D01*
G01X-2330987Y91229D01*
G01X-2331165Y90476D01*
G01X-2331386Y89738D01*
G01X-2331646Y89011D01*
G01X-2331946Y88301D01*
G01X-2332286Y87606D01*
G01X-2332663Y86935D01*
G01X-2333074Y86283D01*
G01X-2333523Y85654D01*
G01X-2334006Y85052D01*
G01X-2334520Y84478D01*
G01X-2335066Y83932D01*
G01X-2335641Y83418D01*
G01X-2336242Y82935D01*
G01X-2336871Y82486D01*
G01X-2337523Y82074D01*
G01X-2338195Y81697D01*
G01X-2338890Y81358D01*
G01X-2339599Y81058D01*
G01X-2340327Y80797D01*
G01X-2341065Y80577D01*
G01X-2341817Y80399D01*
G01X-2342575Y80262D01*
G01X-2343340Y80165D01*
G01X-2344111Y80113D01*
G01X-2344883Y80102D01*
G01X-2345654Y80133D01*
G01X-2346421Y80207D01*
G01X-2347184Y80323D01*
G01X-2347940Y80483D01*
G01X-2348685Y80683D01*
G01X-2349418Y80923D01*
G01X-2350137Y81203D01*
G01X-2350837Y81523D01*
G01X-2351521Y81881D01*
G01X-2352186Y82276D01*
G01X-2352825Y82707D01*
G01X-2353441Y83172D01*
G01X-2354029Y83669D01*
G01X-2354589Y84201D01*
G01X-2394894Y124506D01*
G01X-2395426Y125067D01*
G37*
G36*
G01X-2181893Y-22655D02*
G01X-2182468Y-22141D01*
G01X-2183014Y-21595D01*
G01X-2183528Y-21021D01*
G01X-2184011Y-20419D01*
G01X-2184460Y-19790D01*
G01X-2184871Y-19138D01*
G01X-2185248Y-18467D01*
G01X-2185588Y-17772D01*
G01X-2185888Y-17062D01*
G01X-2186148Y-16335D01*
G01X-2186369Y-15597D01*
G01X-2186547Y-14844D01*
G01X-2186683Y-14086D01*
G01X-2186780Y-13321D01*
G01X-2186833Y-12550D01*
G01X-2186843Y-11778D01*
G01X-2186813Y-11008D01*
G01X-2186739Y-10241D01*
G01X-2186622Y-9477D01*
G01X-2186463Y-8721D01*
G01X-2186263Y-7976D01*
G01X-2186023Y-7243D01*
G01X-2185742Y-6525D01*
G01X-2185423Y-5824D01*
G01X-2185065Y-5140D01*
G01X-2184670Y-4475D01*
G01X-2184239Y-3836D01*
G01X-2183774Y-3220D01*
G01X-2183276Y-2633D01*
G01X-2182745Y-2072D01*
G01X-2142440Y38233D01*
G01X-2141879Y38764D01*
G01X-2141292Y39262D01*
G01X-2140676Y39727D01*
G01X-2140036Y40158D01*
G01X-2139372Y40553D01*
G01X-2138688Y40911D01*
G01X-2137987Y41230D01*
G01X-2137269Y41511D01*
G01X-2136536Y41751D01*
G01X-2135791Y41951D01*
G01X-2135034Y42111D01*
G01X-2134271Y42227D01*
G01X-2133504Y42301D01*
G01X-2132734Y42331D01*
G01X-2131961Y42321D01*
G01X-2131191Y42269D01*
G01X-2130426Y42172D01*
G01X-2129668Y42035D01*
G01X-2128915Y41857D01*
G01X-2128177Y41636D01*
G01X-2127450Y41376D01*
G01X-2126740Y41076D01*
G01X-2126045Y40737D01*
G01X-2125373Y40359D01*
G01X-2124722Y39948D01*
G01X-2124093Y39499D01*
G01X-2123491Y39016D01*
G01X-2122916Y38502D01*
G01X-2122370Y37956D01*
G01X-2121857Y37382D01*
G01X-2121374Y36780D01*
G01X-2120925Y36151D01*
G01X-2120513Y35499D01*
G01X-2120136Y34828D01*
G01X-2119797Y34132D01*
G01X-2119497Y33423D01*
G01X-2119236Y32696D01*
G01X-2119015Y31957D01*
G01X-2118838Y31205D01*
G01X-2118701Y30447D01*
G01X-2118604Y29682D01*
G01X-2118552Y28911D01*
G01X-2118541Y28139D01*
G01X-2118572Y27369D01*
G01X-2118645Y26602D01*
G01X-2118762Y25838D01*
G01X-2118922Y25082D01*
G01X-2119121Y24337D01*
G01X-2119362Y23604D01*
G01X-2119642Y22886D01*
G01X-2119962Y22185D01*
G01X-2120319Y21501D01*
G01X-2120715Y20836D01*
G01X-2121146Y20197D01*
G01X-2121611Y19581D01*
G01X-2122108Y18994D01*
G01X-2122640Y18433D01*
G01X-2162945Y-21872D01*
G01X-2163505Y-22404D01*
G01X-2164093Y-22901D01*
G01X-2164709Y-23366D01*
G01X-2165348Y-23797D01*
G01X-2166013Y-24192D01*
G01X-2166697Y-24550D01*
G01X-2167397Y-24870D01*
G01X-2168116Y-25150D01*
G01X-2168849Y-25390D01*
G01X-2169594Y-25590D01*
G01X-2170350Y-25750D01*
G01X-2171114Y-25866D01*
G01X-2171880Y-25940D01*
G01X-2172651Y-25971D01*
G01X-2173423Y-25960D01*
G01X-2174194Y-25908D01*
G01X-2174959Y-25811D01*
G01X-2175717Y-25674D01*
G01X-2176469Y-25496D01*
G01X-2177208Y-25276D01*
G01X-2177935Y-25015D01*
G01X-2178644Y-24715D01*
G01X-2179339Y-24376D01*
G01X-2180011Y-23999D01*
G01X-2180663Y-23587D01*
G01X-2181292Y-23138D01*
G01X-2181893Y-22655D01*
G37*
G36*
G01X-2252604Y48055D02*
G01X-2253179Y48569D01*
G01X-2253725Y49115D01*
G01X-2254238Y49690D01*
G01X-2254721Y50292D01*
G01X-2255171Y50920D01*
G01X-2255582Y51572D01*
G01X-2255959Y52244D01*
G01X-2256298Y52939D01*
G01X-2256598Y53648D01*
G01X-2256859Y54376D01*
G01X-2257080Y55114D01*
G01X-2257258Y55866D01*
G01X-2257394Y56624D01*
G01X-2257491Y57390D01*
G01X-2257543Y58160D01*
G01X-2257554Y58932D01*
G01X-2257523Y59703D01*
G01X-2257450Y60470D01*
G01X-2257333Y61233D01*
G01X-2257173Y61989D01*
G01X-2256974Y62735D01*
G01X-2256733Y63467D01*
G01X-2256453Y64186D01*
G01X-2256133Y64886D01*
G01X-2255776Y65571D01*
G01X-2255381Y66235D01*
G01X-2254950Y66874D01*
G01X-2254484Y67491D01*
G01X-2253987Y68078D01*
G01X-2253455Y68638D01*
G01X-2213150Y108943D01*
G01X-2212590Y109475D01*
G01X-2212002Y109973D01*
G01X-2211386Y110438D01*
G01X-2210747Y110869D01*
G01X-2210082Y111264D01*
G01X-2209398Y111621D01*
G01X-2208698Y111941D01*
G01X-2207979Y112221D01*
G01X-2207246Y112462D01*
G01X-2206501Y112661D01*
G01X-2205745Y112821D01*
G01X-2204982Y112938D01*
G01X-2204215Y113011D01*
G01X-2203444Y113042D01*
G01X-2202672Y113031D01*
G01X-2201901Y112979D01*
G01X-2201136Y112882D01*
G01X-2200378Y112746D01*
G01X-2199626Y112568D01*
G01X-2198888Y112347D01*
G01X-2198160Y112086D01*
G01X-2197451Y111787D01*
G01X-2196756Y111447D01*
G01X-2196084Y111070D01*
G01X-2195432Y110659D01*
G01X-2194803Y110210D01*
G01X-2194202Y109726D01*
G01X-2193627Y109213D01*
G01X-2193081Y108667D01*
G01X-2192567Y108092D01*
G01X-2192084Y107490D01*
G01X-2191635Y106862D01*
G01X-2191224Y106210D01*
G01X-2190847Y105538D01*
G01X-2190507Y104843D01*
G01X-2190207Y104134D01*
G01X-2189947Y103406D01*
G01X-2189726Y102668D01*
G01X-2189548Y101915D01*
G01X-2189412Y101158D01*
G01X-2189315Y100392D01*
G01X-2189263Y99622D01*
G01X-2189252Y98850D01*
G01X-2189282Y98079D01*
G01X-2189356Y97312D01*
G01X-2189473Y96549D01*
G01X-2189633Y95793D01*
G01X-2189832Y95047D01*
G01X-2190073Y94315D01*
G01X-2190353Y93596D01*
G01X-2190673Y92896D01*
G01X-2191030Y92211D01*
G01X-2191425Y91547D01*
G01X-2191856Y90907D01*
G01X-2192321Y90291D01*
G01X-2192819Y89704D01*
G01X-2193350Y89144D01*
G01X-2233656Y48839D01*
G01X-2234216Y48307D01*
G01X-2234803Y47809D01*
G01X-2235419Y47344D01*
G01X-2236059Y46913D01*
G01X-2236723Y46518D01*
G01X-2237408Y46161D01*
G01X-2238108Y45841D01*
G01X-2238826Y45561D01*
G01X-2239559Y45320D01*
G01X-2240305Y45121D01*
G01X-2241061Y44961D01*
G01X-2241824Y44844D01*
G01X-2242591Y44770D01*
G01X-2243361Y44740D01*
G01X-2244134Y44751D01*
G01X-2244904Y44803D01*
G01X-2245669Y44900D01*
G01X-2246427Y45036D01*
G01X-2247180Y45214D01*
G01X-2247918Y45435D01*
G01X-2248645Y45695D01*
G01X-2249355Y45995D01*
G01X-2250050Y46335D01*
G01X-2250722Y46712D01*
G01X-2251374Y47123D01*
G01X-2252002Y47572D01*
G01X-2252604Y48055D01*
G37*
G36*
G01X-2217258Y12709D02*
G01X-2217832Y13223D01*
G01X-2218378Y13769D01*
G01X-2218892Y14344D01*
G01X-2219375Y14945D01*
G01X-2219824Y15574D01*
G01X-2220236Y16226D01*
G01X-2220613Y16898D01*
G01X-2220952Y17593D01*
G01X-2221252Y18302D01*
G01X-2221513Y19029D01*
G01X-2221733Y19768D01*
G01X-2221911Y20520D01*
G01X-2222048Y21278D01*
G01X-2222145Y22043D01*
G01X-2222197Y22814D01*
G01X-2222208Y23586D01*
G01X-2222177Y24357D01*
G01X-2222103Y25123D01*
G01X-2221987Y25887D01*
G01X-2221827Y26643D01*
G01X-2221627Y27388D01*
G01X-2221387Y28121D01*
G01X-2221107Y28840D01*
G01X-2220787Y29540D01*
G01X-2220429Y30224D01*
G01X-2220034Y30889D01*
G01X-2219603Y31528D01*
G01X-2219138Y32144D01*
G01X-2218641Y32732D01*
G01X-2218109Y33292D01*
G01X-2177804Y73597D01*
G01X-2177243Y74129D01*
G01X-2176656Y74626D01*
G01X-2176040Y75091D01*
G01X-2175401Y75522D01*
G01X-2174736Y75918D01*
G01X-2174052Y76275D01*
G01X-2173351Y76595D01*
G01X-2172633Y76875D01*
G01X-2171900Y77116D01*
G01X-2171155Y77315D01*
G01X-2170399Y77475D01*
G01X-2169635Y77592D01*
G01X-2168868Y77665D01*
G01X-2168098Y77696D01*
G01X-2167326Y77685D01*
G01X-2166555Y77633D01*
G01X-2165790Y77536D01*
G01X-2165032Y77399D01*
G01X-2164280Y77222D01*
G01X-2163541Y77001D01*
G01X-2162814Y76740D01*
G01X-2162105Y76440D01*
G01X-2161409Y76101D01*
G01X-2160738Y75724D01*
G01X-2160086Y75312D01*
G01X-2159457Y74863D01*
G01X-2158855Y74380D01*
G01X-2158281Y73867D01*
G01X-2157735Y73321D01*
G01X-2157221Y72746D01*
G01X-2156738Y72144D01*
G01X-2156289Y71515D01*
G01X-2155878Y70864D01*
G01X-2155500Y70192D01*
G01X-2155161Y69497D01*
G01X-2154861Y68787D01*
G01X-2154601Y68060D01*
G01X-2154380Y67322D01*
G01X-2154202Y66569D01*
G01X-2154065Y65811D01*
G01X-2153968Y65046D01*
G01X-2153916Y64276D01*
G01X-2153906Y63503D01*
G01X-2153936Y62733D01*
G01X-2154010Y61966D01*
G01X-2154126Y61203D01*
G01X-2154286Y60446D01*
G01X-2154486Y59701D01*
G01X-2154726Y58968D01*
G01X-2155007Y58250D01*
G01X-2155326Y57549D01*
G01X-2155684Y56865D01*
G01X-2156079Y56201D01*
G01X-2156510Y55561D01*
G01X-2156975Y54945D01*
G01X-2157472Y54358D01*
G01X-2158004Y53797D01*
G01X-2198309Y13492D01*
G01X-2198870Y12961D01*
G01X-2199457Y12463D01*
G01X-2200073Y11998D01*
G01X-2200712Y11567D01*
G01X-2201377Y11172D01*
G01X-2202061Y10814D01*
G01X-2202762Y10495D01*
G01X-2203480Y10214D01*
G01X-2204213Y9974D01*
G01X-2204958Y9774D01*
G01X-2205714Y9615D01*
G01X-2206478Y9498D01*
G01X-2207245Y9424D01*
G01X-2208015Y9394D01*
G01X-2208787Y9404D01*
G01X-2209558Y9457D01*
G01X-2210323Y9554D01*
G01X-2211081Y9690D01*
G01X-2211834Y9868D01*
G01X-2212572Y10089D01*
G01X-2213299Y10349D01*
G01X-2214009Y10649D01*
G01X-2214704Y10989D01*
G01X-2215375Y11366D01*
G01X-2216027Y11777D01*
G01X-2216656Y12226D01*
G01X-2217258Y12709D01*
G37*
G36*
G01X-2287968Y83420D02*
G01X-2288543Y83933D01*
G01X-2289089Y84479D01*
G01X-2289603Y85054D01*
G01X-2290086Y85656D01*
G01X-2290535Y86284D01*
G01X-2290946Y86936D01*
G01X-2291323Y87608D01*
G01X-2291663Y88303D01*
G01X-2291963Y89013D01*
G01X-2292223Y89740D01*
G01X-2292444Y90478D01*
G01X-2292622Y91231D01*
G01X-2292758Y91989D01*
G01X-2292855Y92754D01*
G01X-2292907Y93524D01*
G01X-2292918Y94297D01*
G01X-2292888Y95067D01*
G01X-2292814Y95834D01*
G01X-2292697Y96597D01*
G01X-2292537Y97353D01*
G01X-2292338Y98099D01*
G01X-2292097Y98832D01*
G01X-2291817Y99550D01*
G01X-2291497Y100251D01*
G01X-2291140Y100935D01*
G01X-2290745Y101599D01*
G01X-2290314Y102239D01*
G01X-2289849Y102855D01*
G01X-2289351Y103442D01*
G01X-2288820Y104002D01*
G01X-2248514Y144308D01*
G01X-2247954Y144839D01*
G01X-2247367Y145337D01*
G01X-2246751Y145802D01*
G01X-2246111Y146233D01*
G01X-2245447Y146628D01*
G01X-2244762Y146986D01*
G01X-2244062Y147305D01*
G01X-2243344Y147585D01*
G01X-2242611Y147826D01*
G01X-2241865Y148025D01*
G01X-2241109Y148185D01*
G01X-2240346Y148302D01*
G01X-2239579Y148376D01*
G01X-2238808Y148406D01*
G01X-2238036Y148395D01*
G01X-2237266Y148343D01*
G01X-2236501Y148246D01*
G01X-2235743Y148110D01*
G01X-2234990Y147932D01*
G01X-2234252Y147711D01*
G01X-2233524Y147451D01*
G01X-2232815Y147151D01*
G01X-2232120Y146811D01*
G01X-2231448Y146434D01*
G01X-2230796Y146023D01*
G01X-2230168Y145574D01*
G01X-2229566Y145091D01*
G01X-2228991Y144577D01*
G01X-2228445Y144031D01*
G01X-2227932Y143456D01*
G01X-2227448Y142855D01*
G01X-2226999Y142226D01*
G01X-2226588Y141574D01*
G01X-2226211Y140902D01*
G01X-2225872Y140207D01*
G01X-2225572Y139498D01*
G01X-2225311Y138770D01*
G01X-2225090Y138032D01*
G01X-2224912Y137280D01*
G01X-2224776Y136522D01*
G01X-2224679Y135757D01*
G01X-2224627Y134986D01*
G01X-2224616Y134214D01*
G01X-2224647Y133443D01*
G01X-2224720Y132676D01*
G01X-2224837Y131913D01*
G01X-2224997Y131157D01*
G01X-2225196Y130412D01*
G01X-2225437Y129679D01*
G01X-2225717Y128960D01*
G01X-2226037Y128260D01*
G01X-2226394Y127576D01*
G01X-2226789Y126911D01*
G01X-2227220Y126272D01*
G01X-2227686Y125656D01*
G01X-2228183Y125068D01*
G01X-2228715Y124508D01*
G01X-2269020Y84203D01*
G01X-2269580Y83671D01*
G01X-2270168Y83174D01*
G01X-2270784Y82708D01*
G01X-2271423Y82277D01*
G01X-2272088Y81882D01*
G01X-2272772Y81525D01*
G01X-2273472Y81205D01*
G01X-2274191Y80925D01*
G01X-2274923Y80684D01*
G01X-2275669Y80485D01*
G01X-2276425Y80325D01*
G01X-2277188Y80208D01*
G01X-2277955Y80135D01*
G01X-2278726Y80104D01*
G01X-2279498Y80115D01*
G01X-2280269Y80167D01*
G01X-2281034Y80264D01*
G01X-2281792Y80401D01*
G01X-2282544Y80578D01*
G01X-2283282Y80799D01*
G01X-2284010Y81060D01*
G01X-2284719Y81360D01*
G01X-2285414Y81699D01*
G01X-2286086Y82076D01*
G01X-2286738Y82488D01*
G01X-2287367Y82937D01*
G01X-2287968Y83420D01*
G37*
G36*
G01X-2394185Y-68528D02*
G01X-2394183Y-21154D01*
G01X-2311804Y61225D01*
G01X-2205740Y-44840D01*
G01X-2311806Y-150907D01*
G01X-2394185Y-68528D01*
G37*

G04 Pad Start*
G04 Pad End*
G54D10*

M02*

