G04 Layer: DrillDrawingLayer*
G04 EasyEDA Pro v3.2.148, 2026-08-18 08:28:43*
G04 Gerber Generator version 0.3*
G04 Scale: 100 percent, Rotated: No, Reflected: No*
G04 Dimensions in millimeters*
G04 Leading zeros omitted, absolute positions, 4 integers and 5 decimals*
G04 Generated by one-click*
G04 Object Configs: Pad,Via,Track,Text,Image,Dimension,BoardOutline,BoardCutout,CopperFilled,SolidRegion,FPCStiffener,Line,PlaneZone,ComponentProperty,ComponentSilkscreen,TearDrop*
G04 Layer Configs: 1,15,16,2,3,4,5,6,7,8,9,10,11,13,14,56*
G04 Copper Areas: 0*
%FSLAX45Y45*%
%MOMM*%
%AMIconRect*4,1,4,0.28,-0.28,-0.28,-0.28,-0.28,0.28,0.28,0.28,0.28,-0.28,0*4,0,4,0.233333,-0.233333,0.233333,0.233333,-0.233333,0.233333,-0.233333,-0.233333,0.233333,-0.233333,0*%
%AMIconTriangle*4,1,3,-0.339593,0.240473,0.339593,0.240473,0,-0.37884,-0.339593,0.240473,0*4,0,3,-0.265673,0.19404,0,-0.27342,0.266233,0.19404,-0.265673,0.19404,0*%
%AMIconStar6*4,1,12,0.12068,0.20888,0.298527,0.172713,0.241313,0,0.298527,-0.17206,0.12068,-0.208227,0,-0.344073,-0.120073,-0.208227,-0.298573,-0.17206,-0.240707,0,-0.298573,0.17206,-0.120073,0.20888,0,0.344073,0.12068,0.20888,0*4,0,12,-0.000467,0.273467,-0.090067,0.171733,-0.237533,0.136733,-0.193667,-0.007467,-0.237533,-0.1372,-0.090067,-0.171733,-0.000467,-0.273933,0.090067,-0.171733,0.237533,-0.1372,0.194133,0.007,0.237533,0.1372,0.090067,0.171267,-0.000467,0.273467,0*%
%AMIconStar4*4,1,8,-0.311733,0.311733,0,0.202533,0.311733,0.311733,0.202533,0,0.311733,-0.311733,0,-0.202533,-0.304407,-0.311733,-0.202533,0,-0.311733,0.311733,0*4,0,8,0.233333,-0.233333,0.1512,0,0.233333,0.233333,0,0.1512,-0.233333,0.233333,-0.1512,0,-0.233333,-0.233333,0,-0.1512,0.233333,-0.233333,0*%
%AMIconPlus*4,1,12,0.1736,-0.28,-0.1736,-0.28,-0.1736,-0.1736,-0.28,-0.1736,-0.28,0.1736,-0.1736,0.1736,-0.1736,0.28,0.1736,0.28,0.1736,0.1736,0.28,0.1736,0.28,-0.1736,0.1736,-0.1736,0.1736,-0.28,0*4,0,12,0.126933,-0.233333,0.126933,-0.126933,0.233333,-0.126933,0.233333,0.126933,0.126933,0.126933,0.126933,0.233333,-0.126933,0.233333,-0.126933,0.126933,-0.233333,0.126933,-0.233333,-0.126933,-0.126933,-0.126933,-0.126933,-0.233333,0.126933,-0.233333,0*%
%AMIconX*4,1,16,0.28,-0.28,0.076347,-0.28,0,-0.203653,-0.076347,-0.28,-0.28,-0.28,-0.28,-0.076347,-0.203653,0,-0.28,0.076347,-0.28,0.28,-0.076347,0.28,0,0.203653,0.076347,0.28,0.28,0.28,0.28,0.076347,0.203653,0,0.28,-0.076347,0.28,-0.28,0*4,0,16,0.23352,-0.23296,0.23352,-0.095853,0.137107,0.000093,0.23352,0.095853,0.23352,0.2331,0.095853,0.2331,0,0.137107,-0.095853,0.2331,-0.23352,0.2331,-0.23352,0.095853,-0.137107,0.000093,-0.23352,-0.095853,-0.23352,-0.23296,-0.095853,-0.23296,0,-0.137107,0.095853,-0.23296,0.23352,-0.23296,0*%
%AMIconDiamond*4,1,4,0,-0.364,-0.364,0,0,0.364,0.364,0,0,-0.364,0*4,0,4,0,-0.284807,0.284807,0,0,0.28504,-0.284807,0,0,-0.284807,0*%
%AMIconRect2*4,1,6,0.28,-0.28,-0.28,-0.28,-0.28,0.28,-0.23352,0.2331,-0.233333,-0.233333,0.23352,-0.233333,0.28,-0.28,0*4,1,6,0.28,-0.28,0.23352,-0.233333,0.23352,0.2331,-0.23352,0.2331,-0.28,0.28,0.28,0.28,0.28,-0.28,0*4,1,6,0.186853,-0.186667,-0.186667,-0.186667,-0.186667,0.186853,-0.14,0.140187,-0.14,-0.14,0.140187,-0.14,0.186853,-0.186667,0*4,1,6,0.186853,-0.186667,0.140187,-0.14,0.140187,0.140187,-0.14,0.140187,-0.186667,0.186853,0.186853,0.186853,0.186853,-0.186667,0*%
%ADD10IconRect*%
%ADD11C,0.616X0.522667*%
%ADD12IconTriangle*%
%ADD13IconStar6*%
%ADD14IconStar4*%
%ADD15IconPlus*%
%ADD16IconX*%
%ADD17IconDiamond*%
%ADD18IconRect2*%
%ADD19C,0.2032*%
%ADD20C,0.254*%
G75*


G04 Drill Drawing Start*
G54D10*
G01X-3630778Y792877D03*
G01X-3630778Y1232877D03*
G54D11*
G01X-2744298Y-982336D03*
G01X-1879296Y-982338D03*
G54D12*
G01X-2744303Y-1402342D03*
G01X-1879306Y-1402342D03*
G54D13*
G01X-2600793Y-1034347D03*
G01X-2022791Y-1034347D03*
G54D14*
G01X-3641806Y-398939D03*
G01X-3641806Y-44840D03*
G01X-3641806Y309259D03*
G54D15*
G01X-3180688Y1447400D03*
G01X-3010686Y1447400D03*
G01X-679300Y-1084610D03*
G01X-679300Y-914608D03*
G54D16*
G01X-1891804Y1314761D03*
G01X-1771804Y1314376D03*
G01X-1651804Y1314761D03*
G01X-642004Y432061D03*
G01X-642004Y572061D03*
G01X-642004Y712061D03*
G01X-639490Y-491025D03*
G01X-639490Y-351025D03*
G01X-639490Y-211025D03*
G01X-639490Y-71024D03*
G54D17*
G01X-3751806Y244259D03*
G01X-3751806Y374260D03*
G01X-3751805Y-463939D03*
G01X-3751805Y-333939D03*
G01X-3751805Y-109839D03*
G01X-3751805Y20161D03*
G01X-3750778Y1137877D03*
G01X-3750778Y1327877D03*
G01X-3745777Y697878D03*
G01X-3745777Y887878D03*
G01X-3531805Y244259D03*
G01X-3531805Y374260D03*
G01X-3531805Y-463939D03*
G01X-3531805Y-333939D03*
G01X-3531805Y-109839D03*
G01X-3531805Y20161D03*
G01X-3515777Y697878D03*
G01X-3510778Y1142877D03*
G01X-3510778Y1327877D03*
G01X-3510777Y887878D03*
G54D18*
G01X-3645505Y-1039740D03*
G01X-3543505Y-800139D03*
G01X-3536505Y-880139D03*
G01X-3466105Y-704840D03*
G01X-3427906Y-602672D03*
G01X-3413271Y1361700D03*
G01X-3407505Y440261D03*
G01X-3402405Y688861D03*
G01X-3381300Y1162800D03*
G01X-3338105Y324961D03*
G01X-3311805Y-1444840D03*
G01X-3311805Y-844840D03*
G01X-3305505Y955561D03*
G01X-3304800Y438600D03*
G01X-3286408Y573160D03*
G01X-3286408Y753160D03*
G01X-3281907Y-638840D03*
G01X-3266805Y-259839D03*
G01X-3266805Y-169839D03*
G01X-3266805Y10160D03*
G01X-3266805Y-79840D03*
G01X-3256803Y175160D03*
G01X-3223200Y1162800D03*
G01X-3221585Y1261550D03*
G01X-3196905Y828860D03*
G01X-3191805Y715161D03*
G01X-3151805Y-1284840D03*
G01X-3116905Y-659739D03*
G01X-3113472Y-259839D03*
G01X-3113472Y-169839D03*
G01X-3113472Y10160D03*
G01X-3113471Y-79840D03*
G01X-3111805Y-1064840D03*
G01X-3111805Y-904840D03*
G01X-3095700Y1365741D03*
G01X-3033814Y1247644D03*
G01X-3003523Y-1044707D03*
G01X-2960138Y-259839D03*
G01X-2960138Y-169839D03*
G01X-2960138Y10160D03*
G01X-2960138Y-79840D03*
G01X-2958010Y-746832D03*
G01X-2958000Y1152600D03*
G01X-2957414Y-410498D03*
G01X-2955537Y-503339D03*
G01X-2916120Y-456212D03*
G01X-2905423Y-1239539D03*
G01X-2891805Y195161D03*
G01X-2881058Y-1458298D03*
G01X-2871805Y-904840D03*
G01X-2856762Y-503339D03*
G01X-2835627Y-1152599D03*
G01X-2825173Y-436209D03*
G01X-2815200Y1259700D03*
G01X-2811805Y-1244840D03*
G01X-2806805Y-259839D03*
G01X-2806805Y-169839D03*
G01X-2806805Y10160D03*
G01X-2806804Y-79840D03*
G01X-2771093Y-464839D03*
G01X-2734129Y956411D03*
G01X-2717012Y-496254D03*
G01X-2711805Y835161D03*
G01X-2691805Y-804840D03*
G01X-2662931Y-466917D03*
G01X-2660541Y355159D03*
G01X-2657100Y214200D03*
G01X-2651025Y123940D03*
G01X-2631807Y-840635D03*
G01X-2631805Y-1144840D03*
G01X-2624897Y-276370D03*
G01X-2623085Y67740D03*
G01X-2614303Y-80578D03*
G01X-2611805Y-1304840D03*
G01X-2610707Y1200262D03*
G01X-2601808Y-476135D03*
G01X-2596720Y9584D03*
G01X-2583915Y-222554D03*
G01X-2573544Y715161D03*
G01X-2551805Y-838038D03*
G01X-2480906Y1377087D03*
G01X-2468400Y-275400D03*
G01X-2467505Y873962D03*
G01X-2466808Y-799841D03*
G01X-2416822Y715161D03*
G01X-2338044Y-1040459D03*
G01X-2331805Y955161D03*
G01X-2317779Y-464100D03*
G01X-2311823Y167281D03*
G01X-2309845Y277738D03*
G01X-2309845Y369907D03*
G01X-2309845Y451880D03*
G01X-2291804Y835161D03*
G01X-2266304Y679861D03*
G01X-2265324Y-1041725D03*
G01X-2264321Y1270525D03*
G01X-2203200Y-265200D03*
G01X-2171805Y-1064840D03*
G01X-2136900Y147900D03*
G01X-2131805Y845362D03*
G01X-2125010Y270357D03*
G01X-2125010Y362856D03*
G01X-2125010Y455356D03*
G01X-2114354Y1486928D03*
G01X-2099692Y-44833D03*
G01X-2076809Y-294842D03*
G01X-2071206Y-501176D03*
G01X-2067105Y675161D03*
G01X-2062005Y845362D03*
G01X-2034900Y122400D03*
G01X-2019821Y-1360941D03*
G01X-2019705Y1332183D03*
G01X-1973700Y76500D03*
G01X-1931804Y555161D03*
G01X-1911453Y815156D03*
G01X-1909290Y633112D03*
G01X-1891809Y215157D03*
G01X-1878817Y-704474D03*
G01X-1871804Y415161D03*
G01X-1856856Y-59788D03*
G01X-1832932Y146800D03*
G01X-1811818Y-704474D03*
G01X-1779292Y633112D03*
G01X-1774814Y994529D03*
G01X-1771196Y146800D03*
G01X-1756805Y-1068151D03*
G01X-1753620Y-995851D03*
G01X-1751785Y-704474D03*
G01X-1738062Y-1460540D03*
G01X-1710682Y875162D03*
G01X-1709461Y146800D03*
G01X-1657826Y-693085D03*
G01X-1650982Y735356D03*
G01X-1642012Y144400D03*
G01X-1631812Y-284832D03*
G01X-1631804Y-59788D03*
G01X-1631804Y-509876D03*
G01X-1609072Y-734873D03*
G01X-1560600Y-850738D03*
G01X-1560317Y-776661D03*
G01X-1550400Y1089666D03*
G01X-1491804Y-744840D03*
G01X-1451804Y955161D03*
G01X-1431804Y-744840D03*
G01X-1427747Y-1293559D03*
G01X-1421576Y272024D03*
G01X-1413211Y776157D03*
G01X-1411804Y1215162D03*
G01X-1406768Y-509876D03*
G01X-1406768Y-59788D03*
G01X-1404443Y139803D03*
G01X-1388522Y635161D03*
G01X-1379304Y-876590D03*
G01X-1363153Y1412689D03*
G01X-1333648Y605315D03*
G01X-1311805Y-1444840D03*
G01X-1310708Y351921D03*
G01X-1236267Y-111363D03*
G01X-1234481Y-307910D03*
G01X-1231806Y675161D03*
G01X-1231804Y-509020D03*
G01X-1231804Y-404839D03*
G01X-1224939Y-205471D03*
G01X-1217464Y-571200D03*
G01X-1206377Y-40583D03*
G01X-1191811Y35157D03*
G01X-1180655Y-254863D03*
G01X-1176880Y-459762D03*
G01X-1137296Y-844840D03*
G01X-1131804Y795161D03*
G01X-1031804Y-618568D03*
G01X-993405Y-1004040D03*
G01X-987104Y-895040D03*
G01X-928631Y-428818D03*
G01X-925117Y-14706D03*
G01X-912902Y-331488D03*
G01X-911945Y-125549D03*
G01X-911805Y1015160D03*
G01X-908602Y470758D03*
G01X-858793Y-503908D03*
G01X-858275Y166591D03*
G01X-826704Y-775040D03*
G01X-805800Y-561000D03*
G01X-775456Y-1124193D03*
G01X-748803Y-954535D03*
G04 Drill Drawing End*

G04 Text Start*
G54D19*
G01X1810056Y1423580D02*
G01X1810056Y1303438D01*
G01X1810056Y1423580D02*
G01X1855776Y1303438D01*
G01X1901496Y1423580D02*
G01X1855776Y1303438D01*
G01X1901496Y1423580D02*
G01X1901496Y1303438D01*
G01X2017828Y1383448D02*
G01X2017828Y1303438D01*
G01X2017828Y1366430D02*
G01X2006398Y1377860D01*
G01X1994968Y1383448D01*
G01X1977950Y1383448D01*
G01X1966520Y1377860D01*
G01X1955090Y1366430D01*
G01X1949248Y1349158D01*
G01X1949248Y1337728D01*
G01X1955090Y1320710D01*
G01X1966520Y1309280D01*
G01X1977950Y1303438D01*
G01X1994968Y1303438D01*
G01X2006398Y1309280D01*
G01X2017828Y1320710D01*
G01X2065580Y1383448D02*
G01X2065580Y1303438D01*
G01X2065580Y1349158D02*
G01X2071422Y1366430D01*
G01X2082852Y1377860D01*
G01X2094282Y1383448D01*
G01X2111300Y1383448D01*
G01X2159052Y1423580D02*
G01X2159052Y1303438D01*
G01X2216202Y1383448D02*
G01X2159052Y1326298D01*
G01X2181912Y1349158D02*
G01X2222044Y1303438D01*
G01X3347337Y1394878D02*
G01X3341495Y1406308D01*
G01X3330065Y1417738D01*
G01X3318635Y1423580D01*
G01X3295775Y1423580D01*
G01X3284345Y1417738D01*
G01X3272915Y1406308D01*
G01X3267327Y1394878D01*
G01X3261485Y1377860D01*
G01X3261485Y1349158D01*
G01X3267327Y1332140D01*
G01X3272915Y1320710D01*
G01X3284345Y1309280D01*
G01X3295775Y1303438D01*
G01X3318635Y1303438D01*
G01X3330065Y1309280D01*
G01X3341495Y1320710D01*
G01X3347337Y1332140D01*
G01X3423791Y1383448D02*
G01X3412361Y1377860D01*
G01X3400931Y1366430D01*
G01X3395089Y1349158D01*
G01X3395089Y1337728D01*
G01X3400931Y1320710D01*
G01X3412361Y1309280D01*
G01X3423791Y1303438D01*
G01X3440809Y1303438D01*
G01X3452239Y1309280D01*
G01X3463669Y1320710D01*
G01X3469511Y1337728D01*
G01X3469511Y1349158D01*
G01X3463669Y1366430D01*
G01X3452239Y1377860D01*
G01X3440809Y1383448D01*
G01X3423791Y1383448D01*
G01X3517263Y1383448D02*
G01X3517263Y1326298D01*
G01X3523105Y1309280D01*
G01X3534535Y1303438D01*
G01X3551553Y1303438D01*
G01X3562983Y1309280D01*
G01X3580255Y1326298D01*
G01X3580255Y1383448D02*
G01X3580255Y1303438D01*
G01X3628007Y1383448D02*
G01X3628007Y1303438D01*
G01X3628007Y1360588D02*
G01X3645279Y1377860D01*
G01X3656709Y1383448D01*
G01X3673727Y1383448D01*
G01X3685157Y1377860D01*
G01X3690999Y1360588D01*
G01X3690999Y1303438D01*
G01X3756023Y1423580D02*
G01X3756023Y1326298D01*
G01X3761611Y1309280D01*
G01X3773041Y1303438D01*
G01X3784471Y1303438D01*
G01X3738751Y1383448D02*
G01X3778883Y1383448D01*
G01X4755658Y1406308D02*
G01X4744228Y1417738D01*
G01X4727210Y1423580D01*
G01X4704350Y1423580D01*
G01X4687078Y1417738D01*
G01X4675648Y1406308D01*
G01X4675648Y1394878D01*
G01X4681490Y1383448D01*
G01X4687078Y1377860D01*
G01X4698508Y1372018D01*
G01X4732798Y1360588D01*
G01X4744228Y1355000D01*
G01X4750070Y1349158D01*
G01X4755658Y1337728D01*
G01X4755658Y1320710D01*
G01X4744228Y1309280D01*
G01X4727210Y1303438D01*
G01X4704350Y1303438D01*
G01X4687078Y1309280D01*
G01X4675648Y1320710D01*
G01X4803410Y1423580D02*
G01X4809252Y1417738D01*
G01X4814840Y1423580D01*
G01X4809252Y1429168D01*
G01X4803410Y1423580D01*
G01X4809252Y1383448D02*
G01X4809252Y1303438D01*
G01X4925584Y1383448D02*
G01X4862592Y1303438D01*
G01X4862592Y1383448D02*
G01X4925584Y1383448D01*
G01X4862592Y1303438D02*
G01X4925584Y1303438D01*
G01X4973336Y1349158D02*
G01X5041916Y1349158D01*
G01X5041916Y1360588D01*
G01X5036328Y1372018D01*
G01X5030486Y1377860D01*
G01X5019056Y1383448D01*
G01X5002038Y1383448D01*
G01X4990608Y1377860D01*
G01X4979178Y1366430D01*
G01X4973336Y1349158D01*
G01X4973336Y1337728D01*
G01X4979178Y1320710D01*
G01X4990608Y1309280D01*
G01X5002038Y1303438D01*
G01X5019056Y1303438D01*
G01X5030486Y1309280D01*
G01X5041916Y1320710D01*
G01X8557929Y1423580D02*
G01X8557929Y1303438D01*
G01X8557929Y1423580D02*
G01X8609491Y1423580D01*
G01X8626509Y1417738D01*
G01X8632351Y1412150D01*
G01X8637939Y1400720D01*
G01X8637939Y1383448D01*
G01X8632351Y1372018D01*
G01X8626509Y1366430D01*
G01X8609491Y1360588D01*
G01X8557929Y1360588D01*
G01X8685691Y1423580D02*
G01X8685691Y1303438D01*
G01X8802023Y1383448D02*
G01X8802023Y1303438D01*
G01X8802023Y1366430D02*
G01X8790593Y1377860D01*
G01X8779163Y1383448D01*
G01X8762145Y1383448D01*
G01X8750715Y1377860D01*
G01X8739285Y1366430D01*
G01X8733443Y1349158D01*
G01X8733443Y1337728D01*
G01X8739285Y1320710D01*
G01X8750715Y1309280D01*
G01X8762145Y1303438D01*
G01X8779163Y1303438D01*
G01X8790593Y1309280D01*
G01X8802023Y1320710D01*
G01X8867047Y1423580D02*
G01X8867047Y1326298D01*
G01X8872635Y1309280D01*
G01X8884065Y1303438D01*
G01X8895495Y1303438D01*
G01X8849775Y1383448D02*
G01X8889907Y1383448D01*
G01X8943247Y1349158D02*
G01X9011827Y1349158D01*
G01X9011827Y1360588D01*
G01X9006239Y1372018D01*
G01X9000397Y1377860D01*
G01X8988967Y1383448D01*
G01X8971949Y1383448D01*
G01X8960519Y1377860D01*
G01X8949089Y1366430D01*
G01X8943247Y1349158D01*
G01X8943247Y1337728D01*
G01X8949089Y1320710D01*
G01X8960519Y1309280D01*
G01X8971949Y1303438D01*
G01X8988967Y1303438D01*
G01X9000397Y1309280D01*
G01X9011827Y1320710D01*
G01X9128159Y1423580D02*
G01X9128159Y1303438D01*
G01X9128159Y1366430D02*
G01X9116729Y1377860D01*
G01X9105299Y1383448D01*
G01X9088281Y1383448D01*
G01X9076851Y1377860D01*
G01X9065421Y1366430D01*
G01X9059579Y1349158D01*
G01X9059579Y1337728D01*
G01X9065421Y1320710D01*
G01X9076851Y1309280D01*
G01X9088281Y1303438D01*
G01X9105299Y1303438D01*
G01X9116729Y1309280D01*
G01X9128159Y1320710D01*
G01X10099346Y1406308D02*
G01X10087916Y1417738D01*
G01X10070898Y1423580D01*
G01X10048038Y1423580D01*
G01X10030766Y1417738D01*
G01X10019336Y1406308D01*
G01X10019336Y1394878D01*
G01X10025178Y1383448D01*
G01X10030766Y1377860D01*
G01X10042196Y1372018D01*
G01X10076486Y1360588D01*
G01X10087916Y1355000D01*
G01X10093758Y1349158D01*
G01X10099346Y1337728D01*
G01X10099346Y1320710D01*
G01X10087916Y1309280D01*
G01X10070898Y1303438D01*
G01X10048038Y1303438D01*
G01X10030766Y1309280D01*
G01X10019336Y1320710D01*
G01X10147098Y1423580D02*
G01X10147098Y1303438D01*
G01X10147098Y1360588D02*
G01X10164370Y1377860D01*
G01X10175800Y1383448D01*
G01X10192818Y1383448D01*
G01X10204248Y1377860D01*
G01X10210090Y1360588D01*
G01X10210090Y1303438D01*
G01X10326422Y1383448D02*
G01X10326422Y1303438D01*
G01X10326422Y1366430D02*
G01X10314992Y1377860D01*
G01X10303562Y1383448D01*
G01X10286544Y1383448D01*
G01X10275114Y1377860D01*
G01X10263684Y1366430D01*
G01X10257842Y1349158D01*
G01X10257842Y1337728D01*
G01X10263684Y1320710D01*
G01X10275114Y1309280D01*
G01X10286544Y1303438D01*
G01X10303562Y1303438D01*
G01X10314992Y1309280D01*
G01X10326422Y1320710D01*
G01X10374174Y1383448D02*
G01X10374174Y1263560D01*
G01X10374174Y1366430D02*
G01X10385604Y1377860D01*
G01X10397034Y1383448D01*
G01X10414306Y1383448D01*
G01X10425736Y1377860D01*
G01X10437166Y1366430D01*
G01X10442754Y1349158D01*
G01X10442754Y1337728D01*
G01X10437166Y1320710D01*
G01X10425736Y1309280D01*
G01X10414306Y1303438D01*
G01X10397034Y1303438D01*
G01X10385604Y1309280D01*
G01X10374174Y1320710D01*
G01X10490506Y1349158D02*
G01X10559086Y1349158D01*
G01X10559086Y1360588D01*
G01X10553498Y1372018D01*
G01X10547656Y1377860D01*
G01X10536226Y1383448D01*
G01X10519208Y1383448D01*
G01X10507778Y1377860D01*
G01X10496348Y1366430D01*
G01X10490506Y1349158D01*
G01X10490506Y1337728D01*
G01X10496348Y1320710D01*
G01X10507778Y1309280D01*
G01X10519208Y1303438D01*
G01X10536226Y1303438D01*
G01X10547656Y1309280D01*
G01X10559086Y1320710D01*
G01X11450517Y1423580D02*
G01X11496237Y1303438D01*
G01X11541957Y1423580D02*
G01X11496237Y1303438D01*
G01X11589709Y1423580D02*
G01X11595551Y1417738D01*
G01X11601139Y1423580D01*
G01X11595551Y1429168D01*
G01X11589709Y1423580D01*
G01X11595551Y1383448D02*
G01X11595551Y1303438D01*
G01X11717471Y1383448D02*
G01X11717471Y1303438D01*
G01X11717471Y1366430D02*
G01X11706041Y1377860D01*
G01X11694611Y1383448D01*
G01X11677593Y1383448D01*
G01X11666163Y1377860D01*
G01X11654733Y1366430D01*
G01X11648891Y1349158D01*
G01X11648891Y1337728D01*
G01X11654733Y1320710D01*
G01X11666163Y1309280D01*
G01X11677593Y1303438D01*
G01X11694611Y1303438D01*
G01X11706041Y1309280D01*
G01X11717471Y1320710D01*
G01X11868093Y1446440D02*
G01X11765223Y1263560D01*
G01X11915845Y1423580D02*
G01X11915845Y1303438D01*
G01X11915845Y1423580D02*
G01X11967407Y1423580D01*
G01X11984425Y1417738D01*
G01X11990267Y1412150D01*
G01X11995855Y1400720D01*
G01X11995855Y1383448D01*
G01X11990267Y1372018D01*
G01X11984425Y1366430D01*
G01X11967407Y1360588D01*
G01X11915845Y1360588D01*
G01X12112187Y1383448D02*
G01X12112187Y1303438D01*
G01X12112187Y1366430D02*
G01X12100757Y1377860D01*
G01X12089327Y1383448D01*
G01X12072309Y1383448D01*
G01X12060879Y1377860D01*
G01X12049449Y1366430D01*
G01X12043607Y1349158D01*
G01X12043607Y1337728D01*
G01X12049449Y1320710D01*
G01X12060879Y1309280D01*
G01X12072309Y1303438D01*
G01X12089327Y1303438D01*
G01X12100757Y1309280D01*
G01X12112187Y1320710D01*
G01X12228519Y1423580D02*
G01X12228519Y1303438D01*
G01X12228519Y1366430D02*
G01X12217089Y1377860D01*
G01X12205659Y1383448D01*
G01X12188641Y1383448D01*
G01X12177211Y1377860D01*
G01X12165781Y1366430D01*
G01X12159939Y1349158D01*
G01X12159939Y1337728D01*
G01X12165781Y1320710D01*
G01X12177211Y1309280D01*
G01X12188641Y1303438D01*
G01X12205659Y1303438D01*
G01X12217089Y1309280D01*
G01X12228519Y1320710D01*
G01X13119696Y1423580D02*
G01X13119696Y1303438D01*
G01X13119696Y1423580D02*
G01X13171258Y1423580D01*
G01X13188276Y1417738D01*
G01X13194118Y1412150D01*
G01X13199706Y1400720D01*
G01X13199706Y1383448D01*
G01X13194118Y1372018D01*
G01X13188276Y1366430D01*
G01X13171258Y1360588D01*
G01X13119696Y1360588D01*
G01X13316038Y1383448D02*
G01X13316038Y1303438D01*
G01X13316038Y1366430D02*
G01X13304608Y1377860D01*
G01X13293178Y1383448D01*
G01X13276160Y1383448D01*
G01X13264730Y1377860D01*
G01X13253300Y1366430D01*
G01X13247458Y1349158D01*
G01X13247458Y1337728D01*
G01X13253300Y1320710D01*
G01X13264730Y1309280D01*
G01X13276160Y1303438D01*
G01X13293178Y1303438D01*
G01X13304608Y1309280D01*
G01X13316038Y1320710D01*
G01X13432370Y1423580D02*
G01X13432370Y1303438D01*
G01X13432370Y1366430D02*
G01X13420940Y1377860D01*
G01X13409510Y1383448D01*
G01X13392492Y1383448D01*
G01X13381062Y1377860D01*
G01X13369632Y1366430D01*
G01X13363790Y1349158D01*
G01X13363790Y1337728D01*
G01X13369632Y1320710D01*
G01X13381062Y1309280D01*
G01X13392492Y1303438D01*
G01X13409510Y1303438D01*
G01X13420940Y1309280D01*
G01X13432370Y1320710D01*
G01X13688148Y1406308D02*
G01X13676718Y1417738D01*
G01X13659700Y1423580D01*
G01X13636840Y1423580D01*
G01X13619568Y1417738D01*
G01X13608138Y1406308D01*
G01X13608138Y1394878D01*
G01X13613980Y1383448D01*
G01X13619568Y1377860D01*
G01X13630998Y1372018D01*
G01X13665288Y1360588D01*
G01X13676718Y1355000D01*
G01X13682560Y1349158D01*
G01X13688148Y1337728D01*
G01X13688148Y1320710D01*
G01X13676718Y1309280D01*
G01X13659700Y1303438D01*
G01X13636840Y1303438D01*
G01X13619568Y1309280D01*
G01X13608138Y1320710D01*
G01X13735900Y1423580D02*
G01X13735900Y1303438D01*
G01X13735900Y1360588D02*
G01X13753172Y1377860D01*
G01X13764602Y1383448D01*
G01X13781620Y1383448D01*
G01X13793050Y1377860D01*
G01X13798892Y1360588D01*
G01X13798892Y1303438D01*
G01X13915224Y1383448D02*
G01X13915224Y1303438D01*
G01X13915224Y1366430D02*
G01X13903794Y1377860D01*
G01X13892364Y1383448D01*
G01X13875346Y1383448D01*
G01X13863916Y1377860D01*
G01X13852486Y1366430D01*
G01X13846644Y1349158D01*
G01X13846644Y1337728D01*
G01X13852486Y1320710D01*
G01X13863916Y1309280D01*
G01X13875346Y1303438D01*
G01X13892364Y1303438D01*
G01X13903794Y1309280D01*
G01X13915224Y1320710D01*
G01X13962976Y1383448D02*
G01X13962976Y1263560D01*
G01X13962976Y1366430D02*
G01X13974406Y1377860D01*
G01X13985836Y1383448D01*
G01X14003108Y1383448D01*
G01X14014538Y1377860D01*
G01X14025968Y1366430D01*
G01X14031556Y1349158D01*
G01X14031556Y1337728D01*
G01X14025968Y1320710D01*
G01X14014538Y1309280D01*
G01X14003108Y1303438D01*
G01X13985836Y1303438D01*
G01X13974406Y1309280D01*
G01X13962976Y1320710D01*
G01X14079308Y1349158D02*
G01X14147888Y1349158D01*
G01X14147888Y1360588D01*
G01X14142300Y1372018D01*
G01X14136458Y1377860D01*
G01X14125028Y1383448D01*
G01X14108010Y1383448D01*
G01X14096580Y1377860D01*
G01X14085150Y1366430D01*
G01X14079308Y1349158D01*
G01X14079308Y1337728D01*
G01X14085150Y1320710D01*
G01X14096580Y1309280D01*
G01X14108010Y1303438D01*
G01X14125028Y1303438D01*
G01X14136458Y1309280D01*
G01X14147888Y1320710D01*
G01X15039065Y1423580D02*
G01X15039065Y1303438D01*
G01X15039065Y1303438D02*
G01X15107645Y1303438D01*
G01X15223977Y1383448D02*
G01X15223977Y1303438D01*
G01X15223977Y1366430D02*
G01X15212547Y1377860D01*
G01X15201117Y1383448D01*
G01X15184099Y1383448D01*
G01X15172669Y1377860D01*
G01X15161239Y1366430D01*
G01X15155397Y1349158D01*
G01X15155397Y1337728D01*
G01X15161239Y1320710D01*
G01X15172669Y1309280D01*
G01X15184099Y1303438D01*
G01X15201117Y1303438D01*
G01X15212547Y1309280D01*
G01X15223977Y1320710D01*
G01X15277571Y1383448D02*
G01X15311861Y1303438D01*
G01X15346151Y1383448D02*
G01X15311861Y1303438D01*
G01X15300431Y1280578D01*
G01X15289001Y1269148D01*
G01X15277571Y1263560D01*
G01X15271729Y1263560D01*
G01X15393903Y1349158D02*
G01X15462483Y1349158D01*
G01X15462483Y1360588D01*
G01X15456895Y1372018D01*
G01X15451053Y1377860D01*
G01X15439623Y1383448D01*
G01X15422605Y1383448D01*
G01X15411175Y1377860D01*
G01X15399745Y1366430D01*
G01X15393903Y1349158D01*
G01X15393903Y1337728D01*
G01X15399745Y1320710D01*
G01X15411175Y1309280D01*
G01X15422605Y1303438D01*
G01X15439623Y1303438D01*
G01X15451053Y1309280D01*
G01X15462483Y1320710D01*
G01X15510235Y1383448D02*
G01X15510235Y1303438D01*
G01X15510235Y1349158D02*
G01X15516077Y1366430D01*
G01X15527507Y1377860D01*
G01X15538937Y1383448D01*
G01X15555955Y1383448D01*
G01X15731723Y1423580D02*
G01X15731723Y1303438D01*
G01X15731723Y1423580D02*
G01X15783285Y1423580D01*
G01X15800303Y1417738D01*
G01X15806145Y1412150D01*
G01X15811733Y1400720D01*
G01X15811733Y1383448D01*
G01X15806145Y1372018D01*
G01X15800303Y1366430D01*
G01X15783285Y1360588D01*
G01X15731723Y1360588D01*
G01X15928065Y1383448D02*
G01X15928065Y1303438D01*
G01X15928065Y1366430D02*
G01X15916635Y1377860D01*
G01X15905205Y1383448D01*
G01X15888187Y1383448D01*
G01X15876757Y1377860D01*
G01X15865327Y1366430D01*
G01X15859485Y1349158D01*
G01X15859485Y1337728D01*
G01X15865327Y1320710D01*
G01X15876757Y1309280D01*
G01X15888187Y1303438D01*
G01X15905205Y1303438D01*
G01X15916635Y1309280D01*
G01X15928065Y1320710D01*
G01X15975817Y1423580D02*
G01X15981659Y1417738D01*
G01X15987247Y1423580D01*
G01X15981659Y1429168D01*
G01X15975817Y1423580D01*
G01X15981659Y1383448D02*
G01X15981659Y1303438D01*
G01X16034999Y1383448D02*
G01X16034999Y1303438D01*
G01X16034999Y1349158D02*
G01X16040841Y1366430D01*
G01X16052271Y1377860D01*
G01X16063701Y1383448D01*
G01X16080719Y1383448D01*
G01X3267327Y814307D02*
G01X3267327Y820149D01*
G01X3272915Y831579D01*
G01X3278757Y837167D01*
G01X3290187Y843009D01*
G01X3313047Y843009D01*
G01X3324477Y837167D01*
G01X3330065Y831579D01*
G01X3335907Y820149D01*
G01X3335907Y808719D01*
G01X3330065Y797289D01*
G01X3318635Y780017D01*
G01X3261485Y722867D01*
G01X3341495Y722867D01*
G01X4744228Y825737D02*
G01X4738640Y837167D01*
G01X4721368Y843009D01*
G01X4709938Y843009D01*
G01X4692920Y837167D01*
G01X4681490Y820149D01*
G01X4675648Y791447D01*
G01X4675648Y762999D01*
G01X4681490Y740139D01*
G01X4692920Y728709D01*
G01X4709938Y722867D01*
G01X4715780Y722867D01*
G01X4732798Y728709D01*
G01X4744228Y740139D01*
G01X4750070Y757157D01*
G01X4750070Y762999D01*
G01X4744228Y780017D01*
G01X4732798Y791447D01*
G01X4715780Y797289D01*
G01X4709938Y797289D01*
G01X4692920Y791447D01*
G01X4681490Y780017D01*
G01X4675648Y762999D01*
G01X4866402Y825737D02*
G01X4860814Y837167D01*
G01X4843542Y843009D01*
G01X4832112Y843009D01*
G01X4815094Y837167D01*
G01X4803664Y820149D01*
G01X4797822Y791447D01*
G01X4797822Y762999D01*
G01X4803664Y740139D01*
G01X4815094Y728709D01*
G01X4832112Y722867D01*
G01X4837954Y722867D01*
G01X4854972Y728709D01*
G01X4866402Y740139D01*
G01X4872244Y757157D01*
G01X4872244Y762999D01*
G01X4866402Y780017D01*
G01X4854972Y791447D01*
G01X4837954Y797289D01*
G01X4832112Y797289D01*
G01X4815094Y791447D01*
G01X4803664Y780017D01*
G01X4797822Y762999D01*
G01X4925838Y751569D02*
G01X4919996Y745727D01*
G01X4925838Y740139D01*
G01X4931426Y745727D01*
G01X4925838Y751569D01*
G01X5053600Y802877D02*
G01X5047758Y785859D01*
G01X5036328Y774429D01*
G01X5019310Y768587D01*
G01X5013468Y768587D01*
G01X4996450Y774429D01*
G01X4985020Y785859D01*
G01X4979178Y802877D01*
G01X4979178Y808719D01*
G01X4985020Y825737D01*
G01X4996450Y837167D01*
G01X5013468Y843009D01*
G01X5019310Y843009D01*
G01X5036328Y837167D01*
G01X5047758Y825737D01*
G01X5053600Y802877D01*
G01X5053600Y774429D01*
G01X5047758Y745727D01*
G01X5036328Y728709D01*
G01X5019310Y722867D01*
G01X5007880Y722867D01*
G01X4990608Y728709D01*
G01X4985020Y740139D01*
G01X5101352Y802877D02*
G01X5164344Y722867D01*
G01X5164344Y802877D02*
G01X5101352Y722867D01*
G01X5280676Y825737D02*
G01X5275088Y837167D01*
G01X5257816Y843009D01*
G01X5246386Y843009D01*
G01X5229368Y837167D01*
G01X5217938Y820149D01*
G01X5212096Y791447D01*
G01X5212096Y762999D01*
G01X5217938Y740139D01*
G01X5229368Y728709D01*
G01X5246386Y722867D01*
G01X5252228Y722867D01*
G01X5269246Y728709D01*
G01X5280676Y740139D01*
G01X5286518Y757157D01*
G01X5286518Y762999D01*
G01X5280676Y780017D01*
G01X5269246Y791447D01*
G01X5252228Y797289D01*
G01X5246386Y797289D01*
G01X5229368Y791447D01*
G01X5217938Y780017D01*
G01X5212096Y762999D01*
G01X5402850Y825737D02*
G01X5397262Y837167D01*
G01X5379990Y843009D01*
G01X5368560Y843009D01*
G01X5351542Y837167D01*
G01X5340112Y820149D01*
G01X5334270Y791447D01*
G01X5334270Y762999D01*
G01X5340112Y740139D01*
G01X5351542Y728709D01*
G01X5368560Y722867D01*
G01X5374402Y722867D01*
G01X5391420Y728709D01*
G01X5402850Y740139D01*
G01X5408692Y757157D01*
G01X5408692Y762999D01*
G01X5402850Y780017D01*
G01X5391420Y791447D01*
G01X5374402Y797289D01*
G01X5368560Y797289D01*
G01X5351542Y791447D01*
G01X5340112Y780017D01*
G01X5334270Y762999D01*
G01X5462286Y751569D02*
G01X5456444Y745727D01*
G01X5462286Y740139D01*
G01X5467874Y745727D01*
G01X5462286Y751569D01*
G01X5590048Y802877D02*
G01X5584206Y785859D01*
G01X5572776Y774429D01*
G01X5555758Y768587D01*
G01X5549916Y768587D01*
G01X5532898Y774429D01*
G01X5521468Y785859D01*
G01X5515626Y802877D01*
G01X5515626Y808719D01*
G01X5521468Y825737D01*
G01X5532898Y837167D01*
G01X5549916Y843009D01*
G01X5555758Y843009D01*
G01X5572776Y837167D01*
G01X5584206Y825737D01*
G01X5590048Y802877D01*
G01X5590048Y774429D01*
G01X5584206Y745727D01*
G01X5572776Y728709D01*
G01X5555758Y722867D01*
G01X5544328Y722867D01*
G01X5527056Y728709D01*
G01X5521468Y740139D01*
G01X5637800Y802877D02*
G01X5637800Y722867D01*
G01X5637800Y780017D02*
G01X5655072Y797289D01*
G01X5666502Y802877D01*
G01X5683520Y802877D01*
G01X5694950Y797289D01*
G01X5700792Y780017D01*
G01X5700792Y722867D01*
G01X5700792Y780017D02*
G01X5717810Y797289D01*
G01X5729240Y802877D01*
G01X5746512Y802877D01*
G01X5757942Y797289D01*
G01X5763530Y780017D01*
G01X5763530Y722867D01*
G01X5811282Y843009D02*
G01X5817124Y837167D01*
G01X5822712Y843009D01*
G01X5817124Y848597D01*
G01X5811282Y843009D01*
G01X5817124Y802877D02*
G01X5817124Y722867D01*
G01X5870464Y843009D02*
G01X5870464Y722867D01*
G01X5958348Y865869D02*
G01X5946918Y854439D01*
G01X5935488Y837167D01*
G01X5924058Y814307D01*
G01X5918216Y785859D01*
G01X5918216Y762999D01*
G01X5924058Y734297D01*
G01X5935488Y711437D01*
G01X5946918Y694419D01*
G01X5958348Y682989D01*
G01X6006100Y820149D02*
G01X6017530Y825737D01*
G01X6034802Y843009D01*
G01X6034802Y722867D01*
G01X6088396Y751569D02*
G01X6082554Y745727D01*
G01X6088396Y740139D01*
G01X6093984Y745727D01*
G01X6088396Y751569D01*
G01X6221746Y843009D02*
G01X6164596Y722867D01*
G01X6141736Y843009D02*
G01X6221746Y843009D01*
G01X6303788Y843009D02*
G01X6286770Y837167D01*
G01X6275340Y820149D01*
G01X6269498Y791447D01*
G01X6269498Y774429D01*
G01X6275340Y745727D01*
G01X6286770Y728709D01*
G01X6303788Y722867D01*
G01X6315218Y722867D01*
G01X6332490Y728709D01*
G01X6343920Y745727D01*
G01X6349508Y774429D01*
G01X6349508Y791447D01*
G01X6343920Y820149D01*
G01X6332490Y837167D01*
G01X6315218Y843009D01*
G01X6303788Y843009D01*
G01X6431550Y843009D02*
G01X6414532Y837167D01*
G01X6403102Y820149D01*
G01X6397260Y791447D01*
G01X6397260Y774429D01*
G01X6403102Y745727D01*
G01X6414532Y728709D01*
G01X6431550Y722867D01*
G01X6442980Y722867D01*
G01X6460252Y728709D01*
G01X6471682Y745727D01*
G01X6477270Y774429D01*
G01X6477270Y791447D01*
G01X6471682Y820149D01*
G01X6460252Y837167D01*
G01X6442980Y843009D01*
G01X6431550Y843009D01*
G01X6525022Y802877D02*
G01X6588014Y722867D01*
G01X6588014Y802877D02*
G01X6525022Y722867D01*
G01X6635766Y820149D02*
G01X6647196Y825737D01*
G01X6664468Y843009D01*
G01X6664468Y722867D01*
G01X6718062Y751569D02*
G01X6712220Y745727D01*
G01X6718062Y740139D01*
G01X6723650Y745727D01*
G01X6718062Y751569D01*
G01X6851412Y843009D02*
G01X6794262Y722867D01*
G01X6771402Y843009D02*
G01X6851412Y843009D01*
G01X6933454Y843009D02*
G01X6916436Y837167D01*
G01X6905006Y820149D01*
G01X6899164Y791447D01*
G01X6899164Y774429D01*
G01X6905006Y745727D01*
G01X6916436Y728709D01*
G01X6933454Y722867D01*
G01X6944884Y722867D01*
G01X6962156Y728709D01*
G01X6973586Y745727D01*
G01X6979174Y774429D01*
G01X6979174Y791447D01*
G01X6973586Y820149D01*
G01X6962156Y837167D01*
G01X6944884Y843009D01*
G01X6933454Y843009D01*
G01X7061216Y843009D02*
G01X7044198Y837167D01*
G01X7032768Y820149D01*
G01X7026926Y791447D01*
G01X7026926Y774429D01*
G01X7032768Y745727D01*
G01X7044198Y728709D01*
G01X7061216Y722867D01*
G01X7072646Y722867D01*
G01X7089918Y728709D01*
G01X7101348Y745727D01*
G01X7106936Y774429D01*
G01X7106936Y791447D01*
G01X7101348Y820149D01*
G01X7089918Y837167D01*
G01X7072646Y843009D01*
G01X7061216Y843009D01*
G01X7154688Y802877D02*
G01X7154688Y722867D01*
G01X7154688Y780017D02*
G01X7171960Y797289D01*
G01X7183390Y802877D01*
G01X7200408Y802877D01*
G01X7211838Y797289D01*
G01X7217680Y780017D01*
G01X7217680Y722867D01*
G01X7217680Y780017D02*
G01X7234698Y797289D01*
G01X7246128Y802877D01*
G01X7263400Y802877D01*
G01X7274830Y797289D01*
G01X7280418Y780017D01*
G01X7280418Y722867D01*
G01X7328170Y802877D02*
G01X7328170Y722867D01*
G01X7328170Y780017D02*
G01X7345442Y797289D01*
G01X7356872Y802877D01*
G01X7373890Y802877D01*
G01X7385320Y797289D01*
G01X7391162Y780017D01*
G01X7391162Y722867D01*
G01X7391162Y780017D02*
G01X7408180Y797289D01*
G01X7419610Y802877D01*
G01X7436882Y802877D01*
G01X7448312Y797289D01*
G01X7453900Y780017D01*
G01X7453900Y722867D01*
G01X7501652Y865869D02*
G01X7513082Y854439D01*
G01X7524512Y837167D01*
G01X7535942Y814307D01*
G01X7541784Y785859D01*
G01X7541784Y762999D01*
G01X7535942Y734297D01*
G01X7524512Y711437D01*
G01X7513082Y694419D01*
G01X7501652Y682989D01*
G01X8557929Y843009D02*
G01X8557929Y722867D01*
G01X8557929Y843009D02*
G01X8609491Y843009D01*
G01X8626509Y837167D01*
G01X8632351Y831579D01*
G01X8637939Y820149D01*
G01X8637939Y802877D01*
G01X8632351Y791447D01*
G01X8626509Y785859D01*
G01X8609491Y780017D01*
G01X8557929Y780017D01*
G01X8725823Y843009D02*
G01X8725823Y722867D01*
G01X8685691Y843009D02*
G01X8765701Y843009D01*
G01X8813453Y843009D02*
G01X8813453Y722867D01*
G01X8893463Y843009D02*
G01X8893463Y722867D01*
G01X8813453Y785859D02*
G01X8893463Y785859D01*
G01X10019336Y843009D02*
G01X10019336Y722867D01*
G01X10019336Y843009D02*
G01X10070898Y843009D01*
G01X10087916Y837167D01*
G01X10093758Y831579D01*
G01X10099346Y820149D01*
G01X10099346Y808719D01*
G01X10093758Y797289D01*
G01X10087916Y791447D01*
G01X10070898Y785859D01*
G01X10019336Y785859D01*
G01X10059468Y785859D02*
G01X10099346Y722867D01*
G01X10175800Y802877D02*
G01X10164370Y797289D01*
G01X10152940Y785859D01*
G01X10147098Y768587D01*
G01X10147098Y757157D01*
G01X10152940Y740139D01*
G01X10164370Y728709D01*
G01X10175800Y722867D01*
G01X10192818Y722867D01*
G01X10204248Y728709D01*
G01X10215678Y740139D01*
G01X10221520Y757157D01*
G01X10221520Y768587D01*
G01X10215678Y785859D01*
G01X10204248Y797289D01*
G01X10192818Y802877D01*
G01X10175800Y802877D01*
G01X10269272Y802877D02*
G01X10269272Y745727D01*
G01X10275114Y728709D01*
G01X10286544Y722867D01*
G01X10303562Y722867D01*
G01X10314992Y728709D01*
G01X10332264Y745727D01*
G01X10332264Y802877D02*
G01X10332264Y722867D01*
G01X10380016Y802877D02*
G01X10380016Y722867D01*
G01X10380016Y780017D02*
G01X10397288Y797289D01*
G01X10408718Y802877D01*
G01X10425736Y802877D01*
G01X10437166Y797289D01*
G01X10443008Y780017D01*
G01X10443008Y722867D01*
G01X10559340Y843009D02*
G01X10559340Y722867D01*
G01X10559340Y785859D02*
G01X10547910Y797289D01*
G01X10536480Y802877D01*
G01X10519462Y802877D01*
G01X10508032Y797289D01*
G01X10496602Y785859D01*
G01X10490760Y768587D01*
G01X10490760Y757157D01*
G01X10496602Y740139D01*
G01X10508032Y728709D01*
G01X10519462Y722867D01*
G01X10536480Y722867D01*
G01X10547910Y728709D01*
G01X10559340Y740139D01*
G01X11450517Y843009D02*
G01X11450517Y722867D01*
G01X11450517Y843009D02*
G01X11502079Y843009D01*
G01X11519097Y837167D01*
G01X11524939Y831579D01*
G01X11530527Y820149D01*
G01X11530527Y802877D01*
G01X11524939Y791447D01*
G01X11519097Y785859D01*
G01X11502079Y780017D01*
G01X11450517Y780017D01*
G01X11646859Y802877D02*
G01X11646859Y722867D01*
G01X11646859Y785859D02*
G01X11635429Y797289D01*
G01X11623999Y802877D01*
G01X11606981Y802877D01*
G01X11595551Y797289D01*
G01X11584121Y785859D01*
G01X11578279Y768587D01*
G01X11578279Y757157D01*
G01X11584121Y740139D01*
G01X11595551Y728709D01*
G01X11606981Y722867D01*
G01X11623999Y722867D01*
G01X11635429Y728709D01*
G01X11646859Y740139D01*
G01X11763191Y843009D02*
G01X11763191Y722867D01*
G01X11763191Y785859D02*
G01X11751761Y797289D01*
G01X11740331Y802877D01*
G01X11723313Y802877D01*
G01X11711883Y797289D01*
G01X11700453Y785859D01*
G01X11694611Y768587D01*
G01X11694611Y757157D01*
G01X11700453Y740139D01*
G01X11711883Y728709D01*
G01X11723313Y722867D01*
G01X11740331Y722867D01*
G01X11751761Y728709D01*
G01X11763191Y740139D01*
G01X13119696Y843009D02*
G01X13119696Y722867D01*
G01X13119696Y843009D02*
G01X13171258Y843009D01*
G01X13188276Y837167D01*
G01X13194118Y831579D01*
G01X13199706Y820149D01*
G01X13199706Y808719D01*
G01X13194118Y797289D01*
G01X13188276Y791447D01*
G01X13171258Y785859D01*
G01X13119696Y785859D01*
G01X13159828Y785859D02*
G01X13199706Y722867D01*
G01X13247458Y768587D02*
G01X13316038Y768587D01*
G01X13316038Y780017D01*
G01X13310450Y791447D01*
G01X13304608Y797289D01*
G01X13293178Y802877D01*
G01X13276160Y802877D01*
G01X13264730Y797289D01*
G01X13253300Y785859D01*
G01X13247458Y768587D01*
G01X13247458Y757157D01*
G01X13253300Y740139D01*
G01X13264730Y728709D01*
G01X13276160Y722867D01*
G01X13293178Y722867D01*
G01X13304608Y728709D01*
G01X13316038Y740139D01*
G01X13432370Y785859D02*
G01X13420940Y797289D01*
G01X13409510Y802877D01*
G01X13392492Y802877D01*
G01X13381062Y797289D01*
G01X13369632Y785859D01*
G01X13363790Y768587D01*
G01X13363790Y757157D01*
G01X13369632Y740139D01*
G01X13381062Y728709D01*
G01X13392492Y722867D01*
G01X13409510Y722867D01*
G01X13420940Y728709D01*
G01X13432370Y740139D01*
G01X13497394Y843009D02*
G01X13497394Y745727D01*
G01X13502982Y728709D01*
G01X13514412Y722867D01*
G01X13525842Y722867D01*
G01X13480122Y802877D02*
G01X13520254Y802877D01*
G01X13642174Y802877D02*
G01X13642174Y722867D01*
G01X13642174Y785859D02*
G01X13630744Y797289D01*
G01X13619314Y802877D01*
G01X13602296Y802877D01*
G01X13590866Y797289D01*
G01X13579436Y785859D01*
G01X13573594Y768587D01*
G01X13573594Y757157D01*
G01X13579436Y740139D01*
G01X13590866Y728709D01*
G01X13602296Y722867D01*
G01X13619314Y722867D01*
G01X13630744Y728709D01*
G01X13642174Y740139D01*
G01X13689926Y802877D02*
G01X13689926Y722867D01*
G01X13689926Y780017D02*
G01X13707198Y797289D01*
G01X13718628Y802877D01*
G01X13735646Y802877D01*
G01X13747076Y797289D01*
G01X13752918Y780017D01*
G01X13752918Y722867D01*
G01X13869250Y802877D02*
G01X13869250Y711437D01*
G01X13863662Y694419D01*
G01X13857820Y688577D01*
G01X13846390Y682989D01*
G01X13829372Y682989D01*
G01X13817942Y688577D01*
G01X13869250Y785859D02*
G01X13857820Y797289D01*
G01X13846390Y802877D01*
G01X13829372Y802877D01*
G01X13817942Y797289D01*
G01X13806512Y785859D01*
G01X13800670Y768587D01*
G01X13800670Y757157D01*
G01X13806512Y740139D01*
G01X13817942Y728709D01*
G01X13829372Y722867D01*
G01X13846390Y722867D01*
G01X13857820Y728709D01*
G01X13869250Y740139D01*
G01X13917002Y843009D02*
G01X13917002Y722867D01*
G01X13964754Y768587D02*
G01X14033334Y768587D01*
G01X14033334Y780017D01*
G01X14027746Y791447D01*
G01X14021904Y797289D01*
G01X14010474Y802877D01*
G01X13993456Y802877D01*
G01X13982026Y797289D01*
G01X13970596Y785859D01*
G01X13964754Y768587D01*
G01X13964754Y757157D01*
G01X13970596Y740139D01*
G01X13982026Y728709D01*
G01X13993456Y722867D01*
G01X14010474Y722867D01*
G01X14021904Y728709D01*
G01X14033334Y740139D01*
G01X15079197Y843009D02*
G01X15079197Y722867D01*
G01X15039065Y843009D02*
G01X15119075Y843009D01*
G01X15195529Y802877D02*
G01X15184099Y797289D01*
G01X15172669Y785859D01*
G01X15166827Y768587D01*
G01X15166827Y757157D01*
G01X15172669Y740139D01*
G01X15184099Y728709D01*
G01X15195529Y722867D01*
G01X15212547Y722867D01*
G01X15223977Y728709D01*
G01X15235407Y740139D01*
G01X15241249Y757157D01*
G01X15241249Y768587D01*
G01X15235407Y785859D01*
G01X15223977Y797289D01*
G01X15212547Y802877D01*
G01X15195529Y802877D01*
G01X15289001Y802877D02*
G01X15289001Y682989D01*
G01X15289001Y785859D02*
G01X15300431Y797289D01*
G01X15311861Y802877D01*
G01X15329133Y802877D01*
G01X15340563Y797289D01*
G01X15351993Y785859D01*
G01X15357581Y768587D01*
G01X15357581Y757157D01*
G01X15351993Y740139D01*
G01X15340563Y728709D01*
G01X15329133Y722867D01*
G01X15311861Y722867D01*
G01X15300431Y728709D01*
G01X15289001Y740139D01*
G01X15533349Y843009D02*
G01X15533349Y722867D01*
G01X15533349Y722867D02*
G01X15601929Y722867D01*
G01X15718261Y802877D02*
G01X15718261Y722867D01*
G01X15718261Y785859D02*
G01X15706831Y797289D01*
G01X15695401Y802877D01*
G01X15678383Y802877D01*
G01X15666953Y797289D01*
G01X15655523Y785859D01*
G01X15649681Y768587D01*
G01X15649681Y757157D01*
G01X15655523Y740139D01*
G01X15666953Y728709D01*
G01X15678383Y722867D01*
G01X15695401Y722867D01*
G01X15706831Y728709D01*
G01X15718261Y740139D01*
G01X15771855Y802877D02*
G01X15806145Y722867D01*
G01X15840435Y802877D02*
G01X15806145Y722867D01*
G01X15794715Y700007D01*
G01X15783285Y688577D01*
G01X15771855Y682989D01*
G01X15766013Y682989D01*
G01X15888187Y768587D02*
G01X15956767Y768587D01*
G01X15956767Y780017D01*
G01X15951179Y791447D01*
G01X15945337Y797289D01*
G01X15933907Y802877D01*
G01X15916889Y802877D01*
G01X15905459Y797289D01*
G01X15894029Y785859D01*
G01X15888187Y768587D01*
G01X15888187Y757157D01*
G01X15894029Y740139D01*
G01X15905459Y728709D01*
G01X15916889Y722867D01*
G01X15933907Y722867D01*
G01X15945337Y728709D01*
G01X15956767Y740139D01*
G01X16004519Y802877D02*
G01X16004519Y722867D01*
G01X16004519Y768587D02*
G01X16010361Y785859D01*
G01X16021791Y797289D01*
G01X16033221Y802877D01*
G01X16050239Y802877D01*
G01X16097991Y774429D02*
G01X16200861Y774429D01*
G01X16248613Y843009D02*
G01X16248613Y722867D01*
G01X16248613Y843009D02*
G01X16300175Y843009D01*
G01X16317193Y837167D01*
G01X16323035Y831579D01*
G01X16328623Y820149D01*
G01X16328623Y808719D01*
G01X16323035Y797289D01*
G01X16317193Y791447D01*
G01X16300175Y785859D01*
G01X16248613Y785859D02*
G01X16300175Y785859D01*
G01X16317193Y780017D01*
G01X16323035Y774429D01*
G01X16328623Y762999D01*
G01X16328623Y745727D01*
G01X16323035Y734297D01*
G01X16317193Y728709D01*
G01X16300175Y722867D01*
G01X16248613Y722867D01*
G01X16405077Y802877D02*
G01X16393647Y797289D01*
G01X16382217Y785859D01*
G01X16376375Y768587D01*
G01X16376375Y757157D01*
G01X16382217Y740139D01*
G01X16393647Y728709D01*
G01X16405077Y722867D01*
G01X16422095Y722867D01*
G01X16433525Y728709D01*
G01X16444955Y740139D01*
G01X16450797Y757157D01*
G01X16450797Y768587D01*
G01X16444955Y785859D01*
G01X16433525Y797289D01*
G01X16422095Y802877D01*
G01X16405077Y802877D01*
G01X16515821Y843009D02*
G01X16515821Y745727D01*
G01X16521409Y728709D01*
G01X16532839Y722867D01*
G01X16544269Y722867D01*
G01X16498549Y802877D02*
G01X16538681Y802877D01*
G01X16609293Y843009D02*
G01X16609293Y745727D01*
G01X16614881Y728709D01*
G01X16626311Y722867D01*
G01X16637741Y722867D01*
G01X16592021Y802877D02*
G01X16632153Y802877D01*
G01X16714195Y802877D02*
G01X16702765Y797289D01*
G01X16691335Y785859D01*
G01X16685493Y768587D01*
G01X16685493Y757157D01*
G01X16691335Y740139D01*
G01X16702765Y728709D01*
G01X16714195Y722867D01*
G01X16731213Y722867D01*
G01X16742643Y728709D01*
G01X16754073Y740139D01*
G01X16759915Y757157D01*
G01X16759915Y768587D01*
G01X16754073Y785859D01*
G01X16742643Y797289D01*
G01X16731213Y802877D01*
G01X16714195Y802877D01*
G01X16807667Y802877D02*
G01X16807667Y722867D01*
G01X16807667Y780017D02*
G01X16824939Y797289D01*
G01X16836369Y802877D01*
G01X16853387Y802877D01*
G01X16864817Y797289D01*
G01X16870659Y780017D01*
G01X16870659Y722867D01*
G01X16870659Y780017D02*
G01X16887677Y797289D01*
G01X16899107Y802877D01*
G01X16916379Y802877D01*
G01X16927809Y797289D01*
G01X16933397Y780017D01*
G01X16933397Y722867D01*
G01X17109165Y843009D02*
G01X17109165Y722867D01*
G01X17109165Y722867D02*
G01X17177745Y722867D01*
G01X17294077Y802877D02*
G01X17294077Y722867D01*
G01X17294077Y785859D02*
G01X17282647Y797289D01*
G01X17271217Y802877D01*
G01X17254199Y802877D01*
G01X17242769Y797289D01*
G01X17231339Y785859D01*
G01X17225497Y768587D01*
G01X17225497Y757157D01*
G01X17231339Y740139D01*
G01X17242769Y728709D01*
G01X17254199Y722867D01*
G01X17271217Y722867D01*
G01X17282647Y728709D01*
G01X17294077Y740139D01*
G01X17347671Y802877D02*
G01X17381961Y722867D01*
G01X17416251Y802877D02*
G01X17381961Y722867D01*
G01X17370531Y700007D01*
G01X17359101Y688577D01*
G01X17347671Y682989D01*
G01X17341829Y682989D01*
G01X17464003Y768587D02*
G01X17532583Y768587D01*
G01X17532583Y780017D01*
G01X17526995Y791447D01*
G01X17521153Y797289D01*
G01X17509723Y802877D01*
G01X17492705Y802877D01*
G01X17481275Y797289D01*
G01X17469845Y785859D01*
G01X17464003Y768587D01*
G01X17464003Y757157D01*
G01X17469845Y740139D01*
G01X17481275Y728709D01*
G01X17492705Y722867D01*
G01X17509723Y722867D01*
G01X17521153Y728709D01*
G01X17532583Y740139D01*
G01X17580335Y802877D02*
G01X17580335Y722867D01*
G01X17580335Y768587D02*
G01X17586177Y785859D01*
G01X17597607Y797289D01*
G01X17609037Y802877D01*
G01X17626055Y802877D01*
G01X3267327Y233735D02*
G01X3267327Y239577D01*
G01X3272915Y251007D01*
G01X3278757Y256595D01*
G01X3290187Y262437D01*
G01X3313047Y262437D01*
G01X3324477Y256595D01*
G01X3330065Y251007D01*
G01X3335907Y239577D01*
G01X3335907Y228147D01*
G01X3330065Y216717D01*
G01X3318635Y199445D01*
G01X3261485Y142295D01*
G01X3341495Y142295D01*
G01X4681490Y233735D02*
G01X4681490Y239577D01*
G01X4687078Y251007D01*
G01X4692920Y256595D01*
G01X4704350Y262437D01*
G01X4727210Y262437D01*
G01X4738640Y256595D01*
G01X4744228Y251007D01*
G01X4750070Y239577D01*
G01X4750070Y228147D01*
G01X4744228Y216717D01*
G01X4732798Y199445D01*
G01X4675648Y142295D01*
G01X4755658Y142295D01*
G01X4814840Y262437D02*
G01X4877832Y262437D01*
G01X4843542Y216717D01*
G01X4860560Y216717D01*
G01X4871990Y210875D01*
G01X4877832Y205287D01*
G01X4883420Y188015D01*
G01X4883420Y176585D01*
G01X4877832Y159567D01*
G01X4866402Y148137D01*
G01X4849130Y142295D01*
G01X4832112Y142295D01*
G01X4814840Y148137D01*
G01X4809252Y153725D01*
G01X4803410Y165155D01*
G01X4937014Y170997D02*
G01X4931172Y165155D01*
G01X4937014Y159567D01*
G01X4942602Y165155D01*
G01X4937014Y170997D01*
G01X5058934Y245165D02*
G01X5053346Y256595D01*
G01X5036074Y262437D01*
G01X5024644Y262437D01*
G01X5007626Y256595D01*
G01X4996196Y239577D01*
G01X4990354Y210875D01*
G01X4990354Y182427D01*
G01X4996196Y159567D01*
G01X5007626Y148137D01*
G01X5024644Y142295D01*
G01X5030486Y142295D01*
G01X5047504Y148137D01*
G01X5058934Y159567D01*
G01X5064776Y176585D01*
G01X5064776Y182427D01*
G01X5058934Y199445D01*
G01X5047504Y210875D01*
G01X5030486Y216717D01*
G01X5024644Y216717D01*
G01X5007626Y210875D01*
G01X4996196Y199445D01*
G01X4990354Y182427D01*
G01X5112528Y222305D02*
G01X5175520Y142295D01*
G01X5175520Y222305D02*
G01X5112528Y142295D01*
G01X5291852Y262437D02*
G01X5234702Y262437D01*
G01X5229114Y210875D01*
G01X5234702Y216717D01*
G01X5251974Y222305D01*
G01X5268992Y222305D01*
G01X5286264Y216717D01*
G01X5297694Y205287D01*
G01X5303282Y188015D01*
G01X5303282Y176585D01*
G01X5297694Y159567D01*
G01X5286264Y148137D01*
G01X5268992Y142295D01*
G01X5251974Y142295D01*
G01X5234702Y148137D01*
G01X5229114Y153725D01*
G01X5223272Y165155D01*
G01X5425456Y222305D02*
G01X5419614Y205287D01*
G01X5408184Y193857D01*
G01X5391166Y188015D01*
G01X5385324Y188015D01*
G01X5368306Y193857D01*
G01X5356876Y205287D01*
G01X5351034Y222305D01*
G01X5351034Y228147D01*
G01X5356876Y245165D01*
G01X5368306Y256595D01*
G01X5385324Y262437D01*
G01X5391166Y262437D01*
G01X5408184Y256595D01*
G01X5419614Y245165D01*
G01X5425456Y222305D01*
G01X5425456Y193857D01*
G01X5419614Y165155D01*
G01X5408184Y148137D01*
G01X5391166Y142295D01*
G01X5379736Y142295D01*
G01X5362464Y148137D01*
G01X5356876Y159567D01*
G01X5479050Y170997D02*
G01X5473208Y165155D01*
G01X5479050Y159567D01*
G01X5484638Y165155D01*
G01X5479050Y170997D01*
G01X5532390Y239577D02*
G01X5543820Y245165D01*
G01X5561092Y262437D01*
G01X5561092Y142295D01*
G01X5608844Y222305D02*
G01X5608844Y142295D01*
G01X5608844Y199445D02*
G01X5626116Y216717D01*
G01X5637546Y222305D01*
G01X5654564Y222305D01*
G01X5665994Y216717D01*
G01X5671836Y199445D01*
G01X5671836Y142295D01*
G01X5671836Y199445D02*
G01X5688854Y216717D01*
G01X5700284Y222305D01*
G01X5717556Y222305D01*
G01X5728986Y216717D01*
G01X5734574Y199445D01*
G01X5734574Y142295D01*
G01X5782326Y262437D02*
G01X5788168Y256595D01*
G01X5793756Y262437D01*
G01X5788168Y268025D01*
G01X5782326Y262437D01*
G01X5788168Y222305D02*
G01X5788168Y142295D01*
G01X5841508Y262437D02*
G01X5841508Y142295D01*
G01X5929392Y285297D02*
G01X5917962Y273867D01*
G01X5906532Y256595D01*
G01X5895102Y233735D01*
G01X5889260Y205287D01*
G01X5889260Y182427D01*
G01X5895102Y153725D01*
G01X5906532Y130865D01*
G01X5917962Y113847D01*
G01X5929392Y102417D01*
G01X6011434Y262437D02*
G01X5994416Y256595D01*
G01X5982986Y239577D01*
G01X5977144Y210875D01*
G01X5977144Y193857D01*
G01X5982986Y165155D01*
G01X5994416Y148137D01*
G01X6011434Y142295D01*
G01X6022864Y142295D01*
G01X6040136Y148137D01*
G01X6051566Y165155D01*
G01X6057154Y193857D01*
G01X6057154Y210875D01*
G01X6051566Y239577D01*
G01X6040136Y256595D01*
G01X6022864Y262437D01*
G01X6011434Y262437D01*
G01X6110748Y170997D02*
G01X6104906Y165155D01*
G01X6110748Y159567D01*
G01X6116336Y165155D01*
G01X6110748Y170997D01*
G01X6232668Y245165D02*
G01X6227080Y256595D01*
G01X6209808Y262437D01*
G01X6198378Y262437D01*
G01X6181360Y256595D01*
G01X6169930Y239577D01*
G01X6164088Y210875D01*
G01X6164088Y182427D01*
G01X6169930Y159567D01*
G01X6181360Y148137D01*
G01X6198378Y142295D01*
G01X6204220Y142295D01*
G01X6221238Y148137D01*
G01X6232668Y159567D01*
G01X6238510Y176585D01*
G01X6238510Y182427D01*
G01X6232668Y199445D01*
G01X6221238Y210875D01*
G01X6204220Y216717D01*
G01X6198378Y216717D01*
G01X6181360Y210875D01*
G01X6169930Y199445D01*
G01X6164088Y182427D01*
G01X6320552Y262437D02*
G01X6303534Y256595D01*
G01X6292104Y239577D01*
G01X6286262Y210875D01*
G01X6286262Y193857D01*
G01X6292104Y165155D01*
G01X6303534Y148137D01*
G01X6320552Y142295D01*
G01X6331982Y142295D01*
G01X6349254Y148137D01*
G01X6360684Y165155D01*
G01X6366272Y193857D01*
G01X6366272Y210875D01*
G01X6360684Y239577D01*
G01X6349254Y256595D01*
G01X6331982Y262437D01*
G01X6320552Y262437D01*
G01X6448314Y262437D02*
G01X6431296Y256595D01*
G01X6419866Y239577D01*
G01X6414024Y210875D01*
G01X6414024Y193857D01*
G01X6419866Y165155D01*
G01X6431296Y148137D01*
G01X6448314Y142295D01*
G01X6459744Y142295D01*
G01X6477016Y148137D01*
G01X6488446Y165155D01*
G01X6494034Y193857D01*
G01X6494034Y210875D01*
G01X6488446Y239577D01*
G01X6477016Y256595D01*
G01X6459744Y262437D01*
G01X6448314Y262437D01*
G01X6541786Y222305D02*
G01X6604778Y142295D01*
G01X6604778Y222305D02*
G01X6541786Y142295D01*
G01X6652530Y239577D02*
G01X6663960Y245165D01*
G01X6681232Y262437D01*
G01X6681232Y142295D01*
G01X6734826Y170997D02*
G01X6728984Y165155D01*
G01X6734826Y159567D01*
G01X6740414Y165155D01*
G01X6734826Y170997D01*
G01X6856746Y262437D02*
G01X6799596Y262437D01*
G01X6794008Y210875D01*
G01X6799596Y216717D01*
G01X6816868Y222305D01*
G01X6833886Y222305D01*
G01X6851158Y216717D01*
G01X6862588Y205287D01*
G01X6868176Y188015D01*
G01X6868176Y176585D01*
G01X6862588Y159567D01*
G01X6851158Y148137D01*
G01X6833886Y142295D01*
G01X6816868Y142295D01*
G01X6799596Y148137D01*
G01X6794008Y153725D01*
G01X6788166Y165155D01*
G01X6950218Y262437D02*
G01X6933200Y256595D01*
G01X6921770Y239577D01*
G01X6915928Y210875D01*
G01X6915928Y193857D01*
G01X6921770Y165155D01*
G01X6933200Y148137D01*
G01X6950218Y142295D01*
G01X6961648Y142295D01*
G01X6978920Y148137D01*
G01X6990350Y165155D01*
G01X6995938Y193857D01*
G01X6995938Y210875D01*
G01X6990350Y239577D01*
G01X6978920Y256595D01*
G01X6961648Y262437D01*
G01X6950218Y262437D01*
G01X7077980Y262437D02*
G01X7060962Y256595D01*
G01X7049532Y239577D01*
G01X7043690Y210875D01*
G01X7043690Y193857D01*
G01X7049532Y165155D01*
G01X7060962Y148137D01*
G01X7077980Y142295D01*
G01X7089410Y142295D01*
G01X7106682Y148137D01*
G01X7118112Y165155D01*
G01X7123700Y193857D01*
G01X7123700Y210875D01*
G01X7118112Y239577D01*
G01X7106682Y256595D01*
G01X7089410Y262437D01*
G01X7077980Y262437D01*
G01X7171452Y222305D02*
G01X7171452Y142295D01*
G01X7171452Y199445D02*
G01X7188724Y216717D01*
G01X7200154Y222305D01*
G01X7217172Y222305D01*
G01X7228602Y216717D01*
G01X7234444Y199445D01*
G01X7234444Y142295D01*
G01X7234444Y199445D02*
G01X7251462Y216717D01*
G01X7262892Y222305D01*
G01X7280164Y222305D01*
G01X7291594Y216717D01*
G01X7297182Y199445D01*
G01X7297182Y142295D01*
G01X7344934Y222305D02*
G01X7344934Y142295D01*
G01X7344934Y199445D02*
G01X7362206Y216717D01*
G01X7373636Y222305D01*
G01X7390654Y222305D01*
G01X7402084Y216717D01*
G01X7407926Y199445D01*
G01X7407926Y142295D01*
G01X7407926Y199445D02*
G01X7424944Y216717D01*
G01X7436374Y222305D01*
G01X7453646Y222305D01*
G01X7465076Y216717D01*
G01X7470664Y199445D01*
G01X7470664Y142295D01*
G01X7518416Y285297D02*
G01X7529846Y273867D01*
G01X7541276Y256595D01*
G01X7552706Y233735D01*
G01X7558548Y205287D01*
G01X7558548Y182427D01*
G01X7552706Y153725D01*
G01X7541276Y130865D01*
G01X7529846Y113847D01*
G01X7518416Y102417D01*
G01X8557929Y262437D02*
G01X8557929Y142295D01*
G01X8557929Y262437D02*
G01X8609491Y262437D01*
G01X8626509Y256595D01*
G01X8632351Y251007D01*
G01X8637939Y239577D01*
G01X8637939Y222305D01*
G01X8632351Y210875D01*
G01X8626509Y205287D01*
G01X8609491Y199445D01*
G01X8557929Y199445D01*
G01X8725823Y262437D02*
G01X8725823Y142295D01*
G01X8685691Y262437D02*
G01X8765701Y262437D01*
G01X8813453Y262437D02*
G01X8813453Y142295D01*
G01X8893463Y262437D02*
G01X8893463Y142295D01*
G01X8813453Y205287D02*
G01X8893463Y205287D01*
G01X10099346Y245165D02*
G01X10087916Y256595D01*
G01X10070898Y262437D01*
G01X10048038Y262437D01*
G01X10030766Y256595D01*
G01X10019336Y245165D01*
G01X10019336Y233735D01*
G01X10025178Y222305D01*
G01X10030766Y216717D01*
G01X10042196Y210875D01*
G01X10076486Y199445D01*
G01X10087916Y193857D01*
G01X10093758Y188015D01*
G01X10099346Y176585D01*
G01X10099346Y159567D01*
G01X10087916Y148137D01*
G01X10070898Y142295D01*
G01X10048038Y142295D01*
G01X10030766Y148137D01*
G01X10019336Y159567D01*
G01X10147098Y262437D02*
G01X10147098Y142295D01*
G01X10223552Y222305D02*
G01X10212122Y216717D01*
G01X10200692Y205287D01*
G01X10194850Y188015D01*
G01X10194850Y176585D01*
G01X10200692Y159567D01*
G01X10212122Y148137D01*
G01X10223552Y142295D01*
G01X10240570Y142295D01*
G01X10252000Y148137D01*
G01X10263430Y159567D01*
G01X10269272Y176585D01*
G01X10269272Y188015D01*
G01X10263430Y205287D01*
G01X10252000Y216717D01*
G01X10240570Y222305D01*
G01X10223552Y222305D01*
G01X10334296Y262437D02*
G01X10334296Y165155D01*
G01X10339884Y148137D01*
G01X10351314Y142295D01*
G01X10362744Y142295D01*
G01X10317024Y222305D02*
G01X10357156Y222305D01*
G01X11450517Y262437D02*
G01X11450517Y142295D01*
G01X11450517Y262437D02*
G01X11502079Y262437D01*
G01X11519097Y256595D01*
G01X11524939Y251007D01*
G01X11530527Y239577D01*
G01X11530527Y222305D01*
G01X11524939Y210875D01*
G01X11519097Y205287D01*
G01X11502079Y199445D01*
G01X11450517Y199445D01*
G01X11646859Y222305D02*
G01X11646859Y142295D01*
G01X11646859Y205287D02*
G01X11635429Y216717D01*
G01X11623999Y222305D01*
G01X11606981Y222305D01*
G01X11595551Y216717D01*
G01X11584121Y205287D01*
G01X11578279Y188015D01*
G01X11578279Y176585D01*
G01X11584121Y159567D01*
G01X11595551Y148137D01*
G01X11606981Y142295D01*
G01X11623999Y142295D01*
G01X11635429Y148137D01*
G01X11646859Y159567D01*
G01X11763191Y262437D02*
G01X11763191Y142295D01*
G01X11763191Y205287D02*
G01X11751761Y216717D01*
G01X11740331Y222305D01*
G01X11723313Y222305D01*
G01X11711883Y216717D01*
G01X11700453Y205287D01*
G01X11694611Y188015D01*
G01X11694611Y176585D01*
G01X11700453Y159567D01*
G01X11711883Y148137D01*
G01X11723313Y142295D01*
G01X11740331Y142295D01*
G01X11751761Y148137D01*
G01X11763191Y159567D01*
G01X13153986Y262437D02*
G01X13142556Y256595D01*
G01X13131126Y245165D01*
G01X13125538Y233735D01*
G01X13119696Y216717D01*
G01X13119696Y188015D01*
G01X13125538Y170997D01*
G01X13131126Y159567D01*
G01X13142556Y148137D01*
G01X13153986Y142295D01*
G01X13176846Y142295D01*
G01X13188276Y148137D01*
G01X13199706Y159567D01*
G01X13205548Y170997D01*
G01X13211136Y188015D01*
G01X13211136Y216717D01*
G01X13205548Y233735D01*
G01X13199706Y245165D01*
G01X13188276Y256595D01*
G01X13176846Y262437D01*
G01X13153986Y262437D01*
G01X13258888Y222305D02*
G01X13293178Y142295D01*
G01X13327468Y222305D02*
G01X13293178Y142295D01*
G01X13443800Y222305D02*
G01X13443800Y142295D01*
G01X13443800Y205287D02*
G01X13432370Y216717D01*
G01X13420940Y222305D01*
G01X13403922Y222305D01*
G01X13392492Y216717D01*
G01X13381062Y205287D01*
G01X13375220Y188015D01*
G01X13375220Y176585D01*
G01X13381062Y159567D01*
G01X13392492Y148137D01*
G01X13403922Y142295D01*
G01X13420940Y142295D01*
G01X13432370Y148137D01*
G01X13443800Y159567D01*
G01X13491552Y262437D02*
G01X13491552Y142295D01*
G01X15079197Y262437D02*
G01X15079197Y142295D01*
G01X15039065Y262437D02*
G01X15119075Y262437D01*
G01X15195529Y222305D02*
G01X15184099Y216717D01*
G01X15172669Y205287D01*
G01X15166827Y188015D01*
G01X15166827Y176585D01*
G01X15172669Y159567D01*
G01X15184099Y148137D01*
G01X15195529Y142295D01*
G01X15212547Y142295D01*
G01X15223977Y148137D01*
G01X15235407Y159567D01*
G01X15241249Y176585D01*
G01X15241249Y188015D01*
G01X15235407Y205287D01*
G01X15223977Y216717D01*
G01X15212547Y222305D01*
G01X15195529Y222305D01*
G01X15289001Y222305D02*
G01X15289001Y102417D01*
G01X15289001Y205287D02*
G01X15300431Y216717D01*
G01X15311861Y222305D01*
G01X15329133Y222305D01*
G01X15340563Y216717D01*
G01X15351993Y205287D01*
G01X15357581Y188015D01*
G01X15357581Y176585D01*
G01X15351993Y159567D01*
G01X15340563Y148137D01*
G01X15329133Y142295D01*
G01X15311861Y142295D01*
G01X15300431Y148137D01*
G01X15289001Y159567D01*
G01X15533349Y262437D02*
G01X15533349Y142295D01*
G01X15533349Y142295D02*
G01X15601929Y142295D01*
G01X15718261Y222305D02*
G01X15718261Y142295D01*
G01X15718261Y205287D02*
G01X15706831Y216717D01*
G01X15695401Y222305D01*
G01X15678383Y222305D01*
G01X15666953Y216717D01*
G01X15655523Y205287D01*
G01X15649681Y188015D01*
G01X15649681Y176585D01*
G01X15655523Y159567D01*
G01X15666953Y148137D01*
G01X15678383Y142295D01*
G01X15695401Y142295D01*
G01X15706831Y148137D01*
G01X15718261Y159567D01*
G01X15771855Y222305D02*
G01X15806145Y142295D01*
G01X15840435Y222305D02*
G01X15806145Y142295D01*
G01X15794715Y119435D01*
G01X15783285Y108005D01*
G01X15771855Y102417D01*
G01X15766013Y102417D01*
G01X15888187Y188015D02*
G01X15956767Y188015D01*
G01X15956767Y199445D01*
G01X15951179Y210875D01*
G01X15945337Y216717D01*
G01X15933907Y222305D01*
G01X15916889Y222305D01*
G01X15905459Y216717D01*
G01X15894029Y205287D01*
G01X15888187Y188015D01*
G01X15888187Y176585D01*
G01X15894029Y159567D01*
G01X15905459Y148137D01*
G01X15916889Y142295D01*
G01X15933907Y142295D01*
G01X15945337Y148137D01*
G01X15956767Y159567D01*
G01X16004519Y222305D02*
G01X16004519Y142295D01*
G01X16004519Y188015D02*
G01X16010361Y205287D01*
G01X16021791Y216717D01*
G01X16033221Y222305D01*
G01X16050239Y222305D01*
G01X16097991Y193857D02*
G01X16200861Y193857D01*
G01X16248613Y262437D02*
G01X16248613Y142295D01*
G01X16248613Y262437D02*
G01X16300175Y262437D01*
G01X16317193Y256595D01*
G01X16323035Y251007D01*
G01X16328623Y239577D01*
G01X16328623Y228147D01*
G01X16323035Y216717D01*
G01X16317193Y210875D01*
G01X16300175Y205287D01*
G01X16248613Y205287D02*
G01X16300175Y205287D01*
G01X16317193Y199445D01*
G01X16323035Y193857D01*
G01X16328623Y182427D01*
G01X16328623Y165155D01*
G01X16323035Y153725D01*
G01X16317193Y148137D01*
G01X16300175Y142295D01*
G01X16248613Y142295D01*
G01X16405077Y222305D02*
G01X16393647Y216717D01*
G01X16382217Y205287D01*
G01X16376375Y188015D01*
G01X16376375Y176585D01*
G01X16382217Y159567D01*
G01X16393647Y148137D01*
G01X16405077Y142295D01*
G01X16422095Y142295D01*
G01X16433525Y148137D01*
G01X16444955Y159567D01*
G01X16450797Y176585D01*
G01X16450797Y188015D01*
G01X16444955Y205287D01*
G01X16433525Y216717D01*
G01X16422095Y222305D01*
G01X16405077Y222305D01*
G01X16515821Y262437D02*
G01X16515821Y165155D01*
G01X16521409Y148137D01*
G01X16532839Y142295D01*
G01X16544269Y142295D01*
G01X16498549Y222305D02*
G01X16538681Y222305D01*
G01X16609293Y262437D02*
G01X16609293Y165155D01*
G01X16614881Y148137D01*
G01X16626311Y142295D01*
G01X16637741Y142295D01*
G01X16592021Y222305D02*
G01X16632153Y222305D01*
G01X16714195Y222305D02*
G01X16702765Y216717D01*
G01X16691335Y205287D01*
G01X16685493Y188015D01*
G01X16685493Y176585D01*
G01X16691335Y159567D01*
G01X16702765Y148137D01*
G01X16714195Y142295D01*
G01X16731213Y142295D01*
G01X16742643Y148137D01*
G01X16754073Y159567D01*
G01X16759915Y176585D01*
G01X16759915Y188015D01*
G01X16754073Y205287D01*
G01X16742643Y216717D01*
G01X16731213Y222305D01*
G01X16714195Y222305D01*
G01X16807667Y222305D02*
G01X16807667Y142295D01*
G01X16807667Y199445D02*
G01X16824939Y216717D01*
G01X16836369Y222305D01*
G01X16853387Y222305D01*
G01X16864817Y216717D01*
G01X16870659Y199445D01*
G01X16870659Y142295D01*
G01X16870659Y199445D02*
G01X16887677Y216717D01*
G01X16899107Y222305D01*
G01X16916379Y222305D01*
G01X16927809Y216717D01*
G01X16933397Y199445D01*
G01X16933397Y142295D01*
G01X17109165Y262437D02*
G01X17109165Y142295D01*
G01X17109165Y142295D02*
G01X17177745Y142295D01*
G01X17294077Y222305D02*
G01X17294077Y142295D01*
G01X17294077Y205287D02*
G01X17282647Y216717D01*
G01X17271217Y222305D01*
G01X17254199Y222305D01*
G01X17242769Y216717D01*
G01X17231339Y205287D01*
G01X17225497Y188015D01*
G01X17225497Y176585D01*
G01X17231339Y159567D01*
G01X17242769Y148137D01*
G01X17254199Y142295D01*
G01X17271217Y142295D01*
G01X17282647Y148137D01*
G01X17294077Y159567D01*
G01X17347671Y222305D02*
G01X17381961Y142295D01*
G01X17416251Y222305D02*
G01X17381961Y142295D01*
G01X17370531Y119435D01*
G01X17359101Y108005D01*
G01X17347671Y102417D01*
G01X17341829Y102417D01*
G01X17464003Y188015D02*
G01X17532583Y188015D01*
G01X17532583Y199445D01*
G01X17526995Y210875D01*
G01X17521153Y216717D01*
G01X17509723Y222305D01*
G01X17492705Y222305D01*
G01X17481275Y216717D01*
G01X17469845Y205287D01*
G01X17464003Y188015D01*
G01X17464003Y176585D01*
G01X17469845Y159567D01*
G01X17481275Y148137D01*
G01X17492705Y142295D01*
G01X17509723Y142295D01*
G01X17521153Y148137D01*
G01X17532583Y159567D01*
G01X17580335Y222305D02*
G01X17580335Y142295D01*
G01X17580335Y188015D02*
G01X17586177Y205287D01*
G01X17597607Y216717D01*
G01X17609037Y222305D01*
G01X17626055Y222305D01*
G01X3267327Y-346836D02*
G01X3267327Y-340994D01*
G01X3272915Y-329564D01*
G01X3278757Y-323976D01*
G01X3290187Y-318134D01*
G01X3313047Y-318134D01*
G01X3324477Y-323976D01*
G01X3330065Y-329564D01*
G01X3335907Y-340994D01*
G01X3335907Y-352424D01*
G01X3330065Y-363854D01*
G01X3318635Y-381126D01*
G01X3261485Y-438276D01*
G01X3341495Y-438276D01*
G01X4681490Y-346836D02*
G01X4681490Y-340994D01*
G01X4687078Y-329564D01*
G01X4692920Y-323976D01*
G01X4704350Y-318134D01*
G01X4727210Y-318134D01*
G01X4738640Y-323976D01*
G01X4744228Y-329564D01*
G01X4750070Y-340994D01*
G01X4750070Y-352424D01*
G01X4744228Y-363854D01*
G01X4732798Y-381126D01*
G01X4675648Y-438276D01*
G01X4755658Y-438276D01*
G01X4814840Y-318134D02*
G01X4877832Y-318134D01*
G01X4843542Y-363854D01*
G01X4860560Y-363854D01*
G01X4871990Y-369696D01*
G01X4877832Y-375284D01*
G01X4883420Y-392556D01*
G01X4883420Y-403986D01*
G01X4877832Y-421004D01*
G01X4866402Y-432434D01*
G01X4849130Y-438276D01*
G01X4832112Y-438276D01*
G01X4814840Y-432434D01*
G01X4809252Y-426846D01*
G01X4803410Y-415416D01*
G01X4937014Y-409574D02*
G01X4931172Y-415416D01*
G01X4937014Y-421004D01*
G01X4942602Y-415416D01*
G01X4937014Y-409574D01*
G01X5058934Y-335406D02*
G01X5053346Y-323976D01*
G01X5036074Y-318134D01*
G01X5024644Y-318134D01*
G01X5007626Y-323976D01*
G01X4996196Y-340994D01*
G01X4990354Y-369696D01*
G01X4990354Y-398144D01*
G01X4996196Y-421004D01*
G01X5007626Y-432434D01*
G01X5024644Y-438276D01*
G01X5030486Y-438276D01*
G01X5047504Y-432434D01*
G01X5058934Y-421004D01*
G01X5064776Y-403986D01*
G01X5064776Y-398144D01*
G01X5058934Y-381126D01*
G01X5047504Y-369696D01*
G01X5030486Y-363854D01*
G01X5024644Y-363854D01*
G01X5007626Y-369696D01*
G01X4996196Y-381126D01*
G01X4990354Y-398144D01*
G01X5112528Y-358266D02*
G01X5175520Y-438276D01*
G01X5175520Y-358266D02*
G01X5112528Y-438276D01*
G01X5280422Y-318134D02*
G01X5223272Y-398144D01*
G01X5309124Y-398144D01*
G01X5280422Y-318134D02*
G01X5280422Y-438276D01*
G01X5436886Y-318134D02*
G01X5379736Y-438276D01*
G01X5356876Y-318134D02*
G01X5436886Y-318134D01*
G01X5490480Y-409574D02*
G01X5484638Y-415416D01*
G01X5490480Y-421004D01*
G01X5496068Y-415416D01*
G01X5490480Y-409574D01*
G01X5549662Y-346836D02*
G01X5549662Y-340994D01*
G01X5555250Y-329564D01*
G01X5561092Y-323976D01*
G01X5572522Y-318134D01*
G01X5595382Y-318134D01*
G01X5606812Y-323976D01*
G01X5612400Y-329564D01*
G01X5618242Y-340994D01*
G01X5618242Y-352424D01*
G01X5612400Y-363854D01*
G01X5600970Y-381126D01*
G01X5543820Y-438276D01*
G01X5623830Y-438276D01*
G01X5671582Y-358266D02*
G01X5671582Y-438276D01*
G01X5671582Y-381126D02*
G01X5688854Y-363854D01*
G01X5700284Y-358266D01*
G01X5717302Y-358266D01*
G01X5728732Y-363854D01*
G01X5734574Y-381126D01*
G01X5734574Y-438276D01*
G01X5734574Y-381126D02*
G01X5751592Y-363854D01*
G01X5763022Y-358266D01*
G01X5780294Y-358266D01*
G01X5791724Y-363854D01*
G01X5797312Y-381126D01*
G01X5797312Y-438276D01*
G01X5845064Y-318134D02*
G01X5850906Y-323976D01*
G01X5856494Y-318134D01*
G01X5850906Y-312546D01*
G01X5845064Y-318134D01*
G01X5850906Y-358266D02*
G01X5850906Y-438276D01*
G01X5904246Y-318134D02*
G01X5904246Y-438276D01*
G01X5992130Y-295274D02*
G01X5980700Y-306704D01*
G01X5969270Y-323976D01*
G01X5957840Y-346836D01*
G01X5951998Y-375284D01*
G01X5951998Y-398144D01*
G01X5957840Y-426846D01*
G01X5969270Y-449706D01*
G01X5980700Y-466724D01*
G01X5992130Y-478154D01*
G01X6074172Y-318134D02*
G01X6057154Y-323976D01*
G01X6045724Y-340994D01*
G01X6039882Y-369696D01*
G01X6039882Y-386714D01*
G01X6045724Y-415416D01*
G01X6057154Y-432434D01*
G01X6074172Y-438276D01*
G01X6085602Y-438276D01*
G01X6102874Y-432434D01*
G01X6114304Y-415416D01*
G01X6119892Y-386714D01*
G01X6119892Y-369696D01*
G01X6114304Y-340994D01*
G01X6102874Y-323976D01*
G01X6085602Y-318134D01*
G01X6074172Y-318134D01*
G01X6173486Y-409574D02*
G01X6167644Y-415416D01*
G01X6173486Y-421004D01*
G01X6179074Y-415416D01*
G01X6173486Y-409574D01*
G01X6295406Y-335406D02*
G01X6289818Y-323976D01*
G01X6272546Y-318134D01*
G01X6261116Y-318134D01*
G01X6244098Y-323976D01*
G01X6232668Y-340994D01*
G01X6226826Y-369696D01*
G01X6226826Y-398144D01*
G01X6232668Y-421004D01*
G01X6244098Y-432434D01*
G01X6261116Y-438276D01*
G01X6266958Y-438276D01*
G01X6283976Y-432434D01*
G01X6295406Y-421004D01*
G01X6301248Y-403986D01*
G01X6301248Y-398144D01*
G01X6295406Y-381126D01*
G01X6283976Y-369696D01*
G01X6266958Y-363854D01*
G01X6261116Y-363854D01*
G01X6244098Y-369696D01*
G01X6232668Y-381126D01*
G01X6226826Y-398144D01*
G01X6383290Y-318134D02*
G01X6366272Y-323976D01*
G01X6354842Y-340994D01*
G01X6349000Y-369696D01*
G01X6349000Y-386714D01*
G01X6354842Y-415416D01*
G01X6366272Y-432434D01*
G01X6383290Y-438276D01*
G01X6394720Y-438276D01*
G01X6411992Y-432434D01*
G01X6423422Y-415416D01*
G01X6429010Y-386714D01*
G01X6429010Y-369696D01*
G01X6423422Y-340994D01*
G01X6411992Y-323976D01*
G01X6394720Y-318134D01*
G01X6383290Y-318134D01*
G01X6511052Y-318134D02*
G01X6494034Y-323976D01*
G01X6482604Y-340994D01*
G01X6476762Y-369696D01*
G01X6476762Y-386714D01*
G01X6482604Y-415416D01*
G01X6494034Y-432434D01*
G01X6511052Y-438276D01*
G01X6522482Y-438276D01*
G01X6539754Y-432434D01*
G01X6551184Y-415416D01*
G01X6556772Y-386714D01*
G01X6556772Y-369696D01*
G01X6551184Y-340994D01*
G01X6539754Y-323976D01*
G01X6522482Y-318134D01*
G01X6511052Y-318134D01*
G01X6604524Y-358266D02*
G01X6667516Y-438276D01*
G01X6667516Y-358266D02*
G01X6604524Y-438276D01*
G01X6715268Y-340994D02*
G01X6726698Y-335406D01*
G01X6743970Y-318134D01*
G01X6743970Y-438276D01*
G01X6797564Y-409574D02*
G01X6791722Y-415416D01*
G01X6797564Y-421004D01*
G01X6803152Y-415416D01*
G01X6797564Y-409574D01*
G01X6856746Y-346836D02*
G01X6856746Y-340994D01*
G01X6862334Y-329564D01*
G01X6868176Y-323976D01*
G01X6879606Y-318134D01*
G01X6902466Y-318134D01*
G01X6913896Y-323976D01*
G01X6919484Y-329564D01*
G01X6925326Y-340994D01*
G01X6925326Y-352424D01*
G01X6919484Y-363854D01*
G01X6908054Y-381126D01*
G01X6850904Y-438276D01*
G01X6930914Y-438276D01*
G01X7012956Y-318134D02*
G01X6995938Y-323976D01*
G01X6984508Y-340994D01*
G01X6978666Y-369696D01*
G01X6978666Y-386714D01*
G01X6984508Y-415416D01*
G01X6995938Y-432434D01*
G01X7012956Y-438276D01*
G01X7024386Y-438276D01*
G01X7041658Y-432434D01*
G01X7053088Y-415416D01*
G01X7058676Y-386714D01*
G01X7058676Y-369696D01*
G01X7053088Y-340994D01*
G01X7041658Y-323976D01*
G01X7024386Y-318134D01*
G01X7012956Y-318134D01*
G01X7140718Y-318134D02*
G01X7123700Y-323976D01*
G01X7112270Y-340994D01*
G01X7106428Y-369696D01*
G01X7106428Y-386714D01*
G01X7112270Y-415416D01*
G01X7123700Y-432434D01*
G01X7140718Y-438276D01*
G01X7152148Y-438276D01*
G01X7169420Y-432434D01*
G01X7180850Y-415416D01*
G01X7186438Y-386714D01*
G01X7186438Y-369696D01*
G01X7180850Y-340994D01*
G01X7169420Y-323976D01*
G01X7152148Y-318134D01*
G01X7140718Y-318134D01*
G01X7234190Y-358266D02*
G01X7234190Y-438276D01*
G01X7234190Y-381126D02*
G01X7251462Y-363854D01*
G01X7262892Y-358266D01*
G01X7279910Y-358266D01*
G01X7291340Y-363854D01*
G01X7297182Y-381126D01*
G01X7297182Y-438276D01*
G01X7297182Y-381126D02*
G01X7314200Y-363854D01*
G01X7325630Y-358266D01*
G01X7342902Y-358266D01*
G01X7354332Y-363854D01*
G01X7359920Y-381126D01*
G01X7359920Y-438276D01*
G01X7407672Y-358266D02*
G01X7407672Y-438276D01*
G01X7407672Y-381126D02*
G01X7424944Y-363854D01*
G01X7436374Y-358266D01*
G01X7453392Y-358266D01*
G01X7464822Y-363854D01*
G01X7470664Y-381126D01*
G01X7470664Y-438276D01*
G01X7470664Y-381126D02*
G01X7487682Y-363854D01*
G01X7499112Y-358266D01*
G01X7516384Y-358266D01*
G01X7527814Y-363854D01*
G01X7533402Y-381126D01*
G01X7533402Y-438276D01*
G01X7581154Y-295274D02*
G01X7592584Y-306704D01*
G01X7604014Y-323976D01*
G01X7615444Y-346836D01*
G01X7621286Y-375284D01*
G01X7621286Y-398144D01*
G01X7615444Y-426846D01*
G01X7604014Y-449706D01*
G01X7592584Y-466724D01*
G01X7581154Y-478154D01*
G01X8557929Y-318134D02*
G01X8557929Y-438276D01*
G01X8557929Y-318134D02*
G01X8609491Y-318134D01*
G01X8626509Y-323976D01*
G01X8632351Y-329564D01*
G01X8637939Y-340994D01*
G01X8637939Y-358266D01*
G01X8632351Y-369696D01*
G01X8626509Y-375284D01*
G01X8609491Y-381126D01*
G01X8557929Y-381126D01*
G01X8725823Y-318134D02*
G01X8725823Y-438276D01*
G01X8685691Y-318134D02*
G01X8765701Y-318134D01*
G01X8813453Y-318134D02*
G01X8813453Y-438276D01*
G01X8893463Y-318134D02*
G01X8893463Y-438276D01*
G01X8813453Y-375284D02*
G01X8893463Y-375284D01*
G01X10099346Y-335406D02*
G01X10087916Y-323976D01*
G01X10070898Y-318134D01*
G01X10048038Y-318134D01*
G01X10030766Y-323976D01*
G01X10019336Y-335406D01*
G01X10019336Y-346836D01*
G01X10025178Y-358266D01*
G01X10030766Y-363854D01*
G01X10042196Y-369696D01*
G01X10076486Y-381126D01*
G01X10087916Y-386714D01*
G01X10093758Y-392556D01*
G01X10099346Y-403986D01*
G01X10099346Y-421004D01*
G01X10087916Y-432434D01*
G01X10070898Y-438276D01*
G01X10048038Y-438276D01*
G01X10030766Y-432434D01*
G01X10019336Y-421004D01*
G01X10147098Y-318134D02*
G01X10147098Y-438276D01*
G01X10223552Y-358266D02*
G01X10212122Y-363854D01*
G01X10200692Y-375284D01*
G01X10194850Y-392556D01*
G01X10194850Y-403986D01*
G01X10200692Y-421004D01*
G01X10212122Y-432434D01*
G01X10223552Y-438276D01*
G01X10240570Y-438276D01*
G01X10252000Y-432434D01*
G01X10263430Y-421004D01*
G01X10269272Y-403986D01*
G01X10269272Y-392556D01*
G01X10263430Y-375284D01*
G01X10252000Y-363854D01*
G01X10240570Y-358266D01*
G01X10223552Y-358266D01*
G01X10334296Y-318134D02*
G01X10334296Y-415416D01*
G01X10339884Y-432434D01*
G01X10351314Y-438276D01*
G01X10362744Y-438276D01*
G01X10317024Y-358266D02*
G01X10357156Y-358266D01*
G01X11450517Y-318134D02*
G01X11450517Y-438276D01*
G01X11450517Y-318134D02*
G01X11502079Y-318134D01*
G01X11519097Y-323976D01*
G01X11524939Y-329564D01*
G01X11530527Y-340994D01*
G01X11530527Y-358266D01*
G01X11524939Y-369696D01*
G01X11519097Y-375284D01*
G01X11502079Y-381126D01*
G01X11450517Y-381126D01*
G01X11646859Y-358266D02*
G01X11646859Y-438276D01*
G01X11646859Y-375284D02*
G01X11635429Y-363854D01*
G01X11623999Y-358266D01*
G01X11606981Y-358266D01*
G01X11595551Y-363854D01*
G01X11584121Y-375284D01*
G01X11578279Y-392556D01*
G01X11578279Y-403986D01*
G01X11584121Y-421004D01*
G01X11595551Y-432434D01*
G01X11606981Y-438276D01*
G01X11623999Y-438276D01*
G01X11635429Y-432434D01*
G01X11646859Y-421004D01*
G01X11763191Y-318134D02*
G01X11763191Y-438276D01*
G01X11763191Y-375284D02*
G01X11751761Y-363854D01*
G01X11740331Y-358266D01*
G01X11723313Y-358266D01*
G01X11711883Y-363854D01*
G01X11700453Y-375284D01*
G01X11694611Y-392556D01*
G01X11694611Y-403986D01*
G01X11700453Y-421004D01*
G01X11711883Y-432434D01*
G01X11723313Y-438276D01*
G01X11740331Y-438276D01*
G01X11751761Y-432434D01*
G01X11763191Y-421004D01*
G01X13153986Y-318134D02*
G01X13142556Y-323976D01*
G01X13131126Y-335406D01*
G01X13125538Y-346836D01*
G01X13119696Y-363854D01*
G01X13119696Y-392556D01*
G01X13125538Y-409574D01*
G01X13131126Y-421004D01*
G01X13142556Y-432434D01*
G01X13153986Y-438276D01*
G01X13176846Y-438276D01*
G01X13188276Y-432434D01*
G01X13199706Y-421004D01*
G01X13205548Y-409574D01*
G01X13211136Y-392556D01*
G01X13211136Y-363854D01*
G01X13205548Y-346836D01*
G01X13199706Y-335406D01*
G01X13188276Y-323976D01*
G01X13176846Y-318134D01*
G01X13153986Y-318134D01*
G01X13258888Y-358266D02*
G01X13293178Y-438276D01*
G01X13327468Y-358266D02*
G01X13293178Y-438276D01*
G01X13443800Y-358266D02*
G01X13443800Y-438276D01*
G01X13443800Y-375284D02*
G01X13432370Y-363854D01*
G01X13420940Y-358266D01*
G01X13403922Y-358266D01*
G01X13392492Y-363854D01*
G01X13381062Y-375284D01*
G01X13375220Y-392556D01*
G01X13375220Y-403986D01*
G01X13381062Y-421004D01*
G01X13392492Y-432434D01*
G01X13403922Y-438276D01*
G01X13420940Y-438276D01*
G01X13432370Y-432434D01*
G01X13443800Y-421004D01*
G01X13491552Y-318134D02*
G01X13491552Y-438276D01*
G01X15079197Y-318134D02*
G01X15079197Y-438276D01*
G01X15039065Y-318134D02*
G01X15119075Y-318134D01*
G01X15195529Y-358266D02*
G01X15184099Y-363854D01*
G01X15172669Y-375284D01*
G01X15166827Y-392556D01*
G01X15166827Y-403986D01*
G01X15172669Y-421004D01*
G01X15184099Y-432434D01*
G01X15195529Y-438276D01*
G01X15212547Y-438276D01*
G01X15223977Y-432434D01*
G01X15235407Y-421004D01*
G01X15241249Y-403986D01*
G01X15241249Y-392556D01*
G01X15235407Y-375284D01*
G01X15223977Y-363854D01*
G01X15212547Y-358266D01*
G01X15195529Y-358266D01*
G01X15289001Y-358266D02*
G01X15289001Y-478154D01*
G01X15289001Y-375284D02*
G01X15300431Y-363854D01*
G01X15311861Y-358266D01*
G01X15329133Y-358266D01*
G01X15340563Y-363854D01*
G01X15351993Y-375284D01*
G01X15357581Y-392556D01*
G01X15357581Y-403986D01*
G01X15351993Y-421004D01*
G01X15340563Y-432434D01*
G01X15329133Y-438276D01*
G01X15311861Y-438276D01*
G01X15300431Y-432434D01*
G01X15289001Y-421004D01*
G01X15533349Y-318134D02*
G01X15533349Y-438276D01*
G01X15533349Y-438276D02*
G01X15601929Y-438276D01*
G01X15718261Y-358266D02*
G01X15718261Y-438276D01*
G01X15718261Y-375284D02*
G01X15706831Y-363854D01*
G01X15695401Y-358266D01*
G01X15678383Y-358266D01*
G01X15666953Y-363854D01*
G01X15655523Y-375284D01*
G01X15649681Y-392556D01*
G01X15649681Y-403986D01*
G01X15655523Y-421004D01*
G01X15666953Y-432434D01*
G01X15678383Y-438276D01*
G01X15695401Y-438276D01*
G01X15706831Y-432434D01*
G01X15718261Y-421004D01*
G01X15771855Y-358266D02*
G01X15806145Y-438276D01*
G01X15840435Y-358266D02*
G01X15806145Y-438276D01*
G01X15794715Y-461136D01*
G01X15783285Y-472566D01*
G01X15771855Y-478154D01*
G01X15766013Y-478154D01*
G01X15888187Y-392556D02*
G01X15956767Y-392556D01*
G01X15956767Y-381126D01*
G01X15951179Y-369696D01*
G01X15945337Y-363854D01*
G01X15933907Y-358266D01*
G01X15916889Y-358266D01*
G01X15905459Y-363854D01*
G01X15894029Y-375284D01*
G01X15888187Y-392556D01*
G01X15888187Y-403986D01*
G01X15894029Y-421004D01*
G01X15905459Y-432434D01*
G01X15916889Y-438276D01*
G01X15933907Y-438276D01*
G01X15945337Y-432434D01*
G01X15956767Y-421004D01*
G01X16004519Y-358266D02*
G01X16004519Y-438276D01*
G01X16004519Y-392556D02*
G01X16010361Y-375284D01*
G01X16021791Y-363854D01*
G01X16033221Y-358266D01*
G01X16050239Y-358266D01*
G01X16097991Y-386714D02*
G01X16200861Y-386714D01*
G01X16248613Y-318134D02*
G01X16248613Y-438276D01*
G01X16248613Y-318134D02*
G01X16300175Y-318134D01*
G01X16317193Y-323976D01*
G01X16323035Y-329564D01*
G01X16328623Y-340994D01*
G01X16328623Y-352424D01*
G01X16323035Y-363854D01*
G01X16317193Y-369696D01*
G01X16300175Y-375284D01*
G01X16248613Y-375284D02*
G01X16300175Y-375284D01*
G01X16317193Y-381126D01*
G01X16323035Y-386714D01*
G01X16328623Y-398144D01*
G01X16328623Y-415416D01*
G01X16323035Y-426846D01*
G01X16317193Y-432434D01*
G01X16300175Y-438276D01*
G01X16248613Y-438276D01*
G01X16405077Y-358266D02*
G01X16393647Y-363854D01*
G01X16382217Y-375284D01*
G01X16376375Y-392556D01*
G01X16376375Y-403986D01*
G01X16382217Y-421004D01*
G01X16393647Y-432434D01*
G01X16405077Y-438276D01*
G01X16422095Y-438276D01*
G01X16433525Y-432434D01*
G01X16444955Y-421004D01*
G01X16450797Y-403986D01*
G01X16450797Y-392556D01*
G01X16444955Y-375284D01*
G01X16433525Y-363854D01*
G01X16422095Y-358266D01*
G01X16405077Y-358266D01*
G01X16515821Y-318134D02*
G01X16515821Y-415416D01*
G01X16521409Y-432434D01*
G01X16532839Y-438276D01*
G01X16544269Y-438276D01*
G01X16498549Y-358266D02*
G01X16538681Y-358266D01*
G01X16609293Y-318134D02*
G01X16609293Y-415416D01*
G01X16614881Y-432434D01*
G01X16626311Y-438276D01*
G01X16637741Y-438276D01*
G01X16592021Y-358266D02*
G01X16632153Y-358266D01*
G01X16714195Y-358266D02*
G01X16702765Y-363854D01*
G01X16691335Y-375284D01*
G01X16685493Y-392556D01*
G01X16685493Y-403986D01*
G01X16691335Y-421004D01*
G01X16702765Y-432434D01*
G01X16714195Y-438276D01*
G01X16731213Y-438276D01*
G01X16742643Y-432434D01*
G01X16754073Y-421004D01*
G01X16759915Y-403986D01*
G01X16759915Y-392556D01*
G01X16754073Y-375284D01*
G01X16742643Y-363854D01*
G01X16731213Y-358266D01*
G01X16714195Y-358266D01*
G01X16807667Y-358266D02*
G01X16807667Y-438276D01*
G01X16807667Y-381126D02*
G01X16824939Y-363854D01*
G01X16836369Y-358266D01*
G01X16853387Y-358266D01*
G01X16864817Y-363854D01*
G01X16870659Y-381126D01*
G01X16870659Y-438276D01*
G01X16870659Y-381126D02*
G01X16887677Y-363854D01*
G01X16899107Y-358266D01*
G01X16916379Y-358266D01*
G01X16927809Y-363854D01*
G01X16933397Y-381126D01*
G01X16933397Y-438276D01*
G01X17109165Y-318134D02*
G01X17109165Y-438276D01*
G01X17109165Y-438276D02*
G01X17177745Y-438276D01*
G01X17294077Y-358266D02*
G01X17294077Y-438276D01*
G01X17294077Y-375284D02*
G01X17282647Y-363854D01*
G01X17271217Y-358266D01*
G01X17254199Y-358266D01*
G01X17242769Y-363854D01*
G01X17231339Y-375284D01*
G01X17225497Y-392556D01*
G01X17225497Y-403986D01*
G01X17231339Y-421004D01*
G01X17242769Y-432434D01*
G01X17254199Y-438276D01*
G01X17271217Y-438276D01*
G01X17282647Y-432434D01*
G01X17294077Y-421004D01*
G01X17347671Y-358266D02*
G01X17381961Y-438276D01*
G01X17416251Y-358266D02*
G01X17381961Y-438276D01*
G01X17370531Y-461136D01*
G01X17359101Y-472566D01*
G01X17347671Y-478154D01*
G01X17341829Y-478154D01*
G01X17464003Y-392556D02*
G01X17532583Y-392556D01*
G01X17532583Y-381126D01*
G01X17526995Y-369696D01*
G01X17521153Y-363854D01*
G01X17509723Y-358266D01*
G01X17492705Y-358266D01*
G01X17481275Y-363854D01*
G01X17469845Y-375284D01*
G01X17464003Y-392556D01*
G01X17464003Y-403986D01*
G01X17469845Y-421004D01*
G01X17481275Y-432434D01*
G01X17492705Y-438276D01*
G01X17509723Y-438276D01*
G01X17521153Y-432434D01*
G01X17532583Y-421004D01*
G01X17580335Y-358266D02*
G01X17580335Y-438276D01*
G01X17580335Y-392556D02*
G01X17586177Y-375284D01*
G01X17597607Y-363854D01*
G01X17609037Y-358266D01*
G01X17626055Y-358266D01*
G01X3267327Y-927408D02*
G01X3267327Y-921566D01*
G01X3272915Y-910136D01*
G01X3278757Y-904548D01*
G01X3290187Y-898706D01*
G01X3313047Y-898706D01*
G01X3324477Y-904548D01*
G01X3330065Y-910136D01*
G01X3335907Y-921566D01*
G01X3335907Y-932996D01*
G01X3330065Y-944426D01*
G01X3318635Y-961698D01*
G01X3261485Y-1018848D01*
G01X3341495Y-1018848D01*
G01X4681490Y-927408D02*
G01X4681490Y-921566D01*
G01X4687078Y-910136D01*
G01X4692920Y-904548D01*
G01X4704350Y-898706D01*
G01X4727210Y-898706D01*
G01X4738640Y-904548D01*
G01X4744228Y-910136D01*
G01X4750070Y-921566D01*
G01X4750070Y-932996D01*
G01X4744228Y-944426D01*
G01X4732798Y-961698D01*
G01X4675648Y-1018848D01*
G01X4755658Y-1018848D01*
G01X4883420Y-898706D02*
G01X4826270Y-1018848D01*
G01X4803410Y-898706D02*
G01X4883420Y-898706D01*
G01X4937014Y-990146D02*
G01X4931172Y-995988D01*
G01X4937014Y-1001576D01*
G01X4942602Y-995988D01*
G01X4937014Y-990146D01*
G01X5058934Y-915978D02*
G01X5053346Y-904548D01*
G01X5036074Y-898706D01*
G01X5024644Y-898706D01*
G01X5007626Y-904548D01*
G01X4996196Y-921566D01*
G01X4990354Y-950268D01*
G01X4990354Y-978716D01*
G01X4996196Y-1001576D01*
G01X5007626Y-1013006D01*
G01X5024644Y-1018848D01*
G01X5030486Y-1018848D01*
G01X5047504Y-1013006D01*
G01X5058934Y-1001576D01*
G01X5064776Y-984558D01*
G01X5064776Y-978716D01*
G01X5058934Y-961698D01*
G01X5047504Y-950268D01*
G01X5030486Y-944426D01*
G01X5024644Y-944426D01*
G01X5007626Y-950268D01*
G01X4996196Y-961698D01*
G01X4990354Y-978716D01*
G01X5112528Y-938838D02*
G01X5112528Y-1018848D01*
G01X5112528Y-961698D02*
G01X5129800Y-944426D01*
G01X5141230Y-938838D01*
G01X5158248Y-938838D01*
G01X5169678Y-944426D01*
G01X5175520Y-961698D01*
G01X5175520Y-1018848D01*
G01X5175520Y-961698D02*
G01X5192538Y-944426D01*
G01X5203968Y-938838D01*
G01X5221240Y-938838D01*
G01X5232670Y-944426D01*
G01X5238258Y-961698D01*
G01X5238258Y-1018848D01*
G01X5286010Y-898706D02*
G01X5291852Y-904548D01*
G01X5297440Y-898706D01*
G01X5291852Y-893118D01*
G01X5286010Y-898706D01*
G01X5291852Y-938838D02*
G01X5291852Y-1018848D01*
G01X5345192Y-898706D02*
G01X5345192Y-1018848D01*
G01X5433076Y-875846D02*
G01X5421646Y-887276D01*
G01X5410216Y-904548D01*
G01X5398786Y-927408D01*
G01X5392944Y-955856D01*
G01X5392944Y-978716D01*
G01X5398786Y-1007418D01*
G01X5410216Y-1030278D01*
G01X5421646Y-1047296D01*
G01X5433076Y-1058726D01*
G01X5515118Y-898706D02*
G01X5498100Y-904548D01*
G01X5486670Y-921566D01*
G01X5480828Y-950268D01*
G01X5480828Y-967286D01*
G01X5486670Y-995988D01*
G01X5498100Y-1013006D01*
G01X5515118Y-1018848D01*
G01X5526548Y-1018848D01*
G01X5543820Y-1013006D01*
G01X5555250Y-995988D01*
G01X5560838Y-967286D01*
G01X5560838Y-950268D01*
G01X5555250Y-921566D01*
G01X5543820Y-904548D01*
G01X5526548Y-898706D01*
G01X5515118Y-898706D01*
G01X5614432Y-990146D02*
G01X5608590Y-995988D01*
G01X5614432Y-1001576D01*
G01X5620020Y-995988D01*
G01X5614432Y-990146D01*
G01X5747782Y-898706D02*
G01X5690632Y-1018848D01*
G01X5667772Y-898706D02*
G01X5747782Y-898706D01*
G01X5829824Y-898706D02*
G01X5812806Y-904548D01*
G01X5801376Y-921566D01*
G01X5795534Y-950268D01*
G01X5795534Y-967286D01*
G01X5801376Y-995988D01*
G01X5812806Y-1013006D01*
G01X5829824Y-1018848D01*
G01X5841254Y-1018848D01*
G01X5858526Y-1013006D01*
G01X5869956Y-995988D01*
G01X5875544Y-967286D01*
G01X5875544Y-950268D01*
G01X5869956Y-921566D01*
G01X5858526Y-904548D01*
G01X5841254Y-898706D01*
G01X5829824Y-898706D01*
G01X5957586Y-898706D02*
G01X5940568Y-904548D01*
G01X5929138Y-921566D01*
G01X5923296Y-950268D01*
G01X5923296Y-967286D01*
G01X5929138Y-995988D01*
G01X5940568Y-1013006D01*
G01X5957586Y-1018848D01*
G01X5969016Y-1018848D01*
G01X5986288Y-1013006D01*
G01X5997718Y-995988D01*
G01X6003306Y-967286D01*
G01X6003306Y-950268D01*
G01X5997718Y-921566D01*
G01X5986288Y-904548D01*
G01X5969016Y-898706D01*
G01X5957586Y-898706D01*
G01X6051058Y-938838D02*
G01X6051058Y-1018848D01*
G01X6051058Y-961698D02*
G01X6068330Y-944426D01*
G01X6079760Y-938838D01*
G01X6096778Y-938838D01*
G01X6108208Y-944426D01*
G01X6114050Y-961698D01*
G01X6114050Y-1018848D01*
G01X6114050Y-961698D02*
G01X6131068Y-944426D01*
G01X6142498Y-938838D01*
G01X6159770Y-938838D01*
G01X6171200Y-944426D01*
G01X6176788Y-961698D01*
G01X6176788Y-1018848D01*
G01X6224540Y-938838D02*
G01X6224540Y-1018848D01*
G01X6224540Y-961698D02*
G01X6241812Y-944426D01*
G01X6253242Y-938838D01*
G01X6270260Y-938838D01*
G01X6281690Y-944426D01*
G01X6287532Y-961698D01*
G01X6287532Y-1018848D01*
G01X6287532Y-961698D02*
G01X6304550Y-944426D01*
G01X6315980Y-938838D01*
G01X6333252Y-938838D01*
G01X6344682Y-944426D01*
G01X6350270Y-961698D01*
G01X6350270Y-1018848D01*
G01X6398022Y-875846D02*
G01X6409452Y-887276D01*
G01X6420882Y-904548D01*
G01X6432312Y-927408D01*
G01X6438154Y-955856D01*
G01X6438154Y-978716D01*
G01X6432312Y-1007418D01*
G01X6420882Y-1030278D01*
G01X6409452Y-1047296D01*
G01X6398022Y-1058726D01*
G01X8557929Y-898706D02*
G01X8557929Y-1018848D01*
G01X8557929Y-898706D02*
G01X8637939Y-1018848D01*
G01X8637939Y-898706D02*
G01X8637939Y-1018848D01*
G01X8685691Y-898706D02*
G01X8685691Y-1018848D01*
G01X8685691Y-898706D02*
G01X8737253Y-898706D01*
G01X8754271Y-904548D01*
G01X8760113Y-910136D01*
G01X8765701Y-921566D01*
G01X8765701Y-938838D01*
G01X8760113Y-950268D01*
G01X8754271Y-955856D01*
G01X8737253Y-961698D01*
G01X8685691Y-961698D01*
G01X8853585Y-898706D02*
G01X8853585Y-1018848D01*
G01X8813453Y-898706D02*
G01X8893463Y-898706D01*
G01X8941215Y-898706D02*
G01X8941215Y-1018848D01*
G01X9021225Y-898706D02*
G01X9021225Y-1018848D01*
G01X8941215Y-955856D02*
G01X9021225Y-955856D01*
G01X10019336Y-898706D02*
G01X10019336Y-1018848D01*
G01X10019336Y-898706D02*
G01X10070898Y-898706D01*
G01X10087916Y-904548D01*
G01X10093758Y-910136D01*
G01X10099346Y-921566D01*
G01X10099346Y-932996D01*
G01X10093758Y-944426D01*
G01X10087916Y-950268D01*
G01X10070898Y-955856D01*
G01X10019336Y-955856D01*
G01X10059468Y-955856D02*
G01X10099346Y-1018848D01*
G01X10175800Y-938838D02*
G01X10164370Y-944426D01*
G01X10152940Y-955856D01*
G01X10147098Y-973128D01*
G01X10147098Y-984558D01*
G01X10152940Y-1001576D01*
G01X10164370Y-1013006D01*
G01X10175800Y-1018848D01*
G01X10192818Y-1018848D01*
G01X10204248Y-1013006D01*
G01X10215678Y-1001576D01*
G01X10221520Y-984558D01*
G01X10221520Y-973128D01*
G01X10215678Y-955856D01*
G01X10204248Y-944426D01*
G01X10192818Y-938838D01*
G01X10175800Y-938838D01*
G01X10269272Y-938838D02*
G01X10269272Y-995988D01*
G01X10275114Y-1013006D01*
G01X10286544Y-1018848D01*
G01X10303562Y-1018848D01*
G01X10314992Y-1013006D01*
G01X10332264Y-995988D01*
G01X10332264Y-938838D02*
G01X10332264Y-1018848D01*
G01X10380016Y-938838D02*
G01X10380016Y-1018848D01*
G01X10380016Y-961698D02*
G01X10397288Y-944426D01*
G01X10408718Y-938838D01*
G01X10425736Y-938838D01*
G01X10437166Y-944426D01*
G01X10443008Y-961698D01*
G01X10443008Y-1018848D01*
G01X10559340Y-898706D02*
G01X10559340Y-1018848D01*
G01X10559340Y-955856D02*
G01X10547910Y-944426D01*
G01X10536480Y-938838D01*
G01X10519462Y-938838D01*
G01X10508032Y-944426D01*
G01X10496602Y-955856D01*
G01X10490760Y-973128D01*
G01X10490760Y-984558D01*
G01X10496602Y-1001576D01*
G01X10508032Y-1013006D01*
G01X10519462Y-1018848D01*
G01X10536480Y-1018848D01*
G01X10547910Y-1013006D01*
G01X10559340Y-1001576D01*
G01X11450517Y-898706D02*
G01X11496237Y-1018848D01*
G01X11541957Y-898706D02*
G01X11496237Y-1018848D01*
G01X11589709Y-898706D02*
G01X11595551Y-904548D01*
G01X11601139Y-898706D01*
G01X11595551Y-893118D01*
G01X11589709Y-898706D01*
G01X11595551Y-938838D02*
G01X11595551Y-1018848D01*
G01X11717471Y-938838D02*
G01X11717471Y-1018848D01*
G01X11717471Y-955856D02*
G01X11706041Y-944426D01*
G01X11694611Y-938838D01*
G01X11677593Y-938838D01*
G01X11666163Y-944426D01*
G01X11654733Y-955856D01*
G01X11648891Y-973128D01*
G01X11648891Y-984558D01*
G01X11654733Y-1001576D01*
G01X11666163Y-1013006D01*
G01X11677593Y-1018848D01*
G01X11694611Y-1018848D01*
G01X11706041Y-1013006D01*
G01X11717471Y-1001576D01*
G01X15079197Y-898706D02*
G01X15079197Y-1018848D01*
G01X15039065Y-898706D02*
G01X15119075Y-898706D01*
G01X15195529Y-938838D02*
G01X15184099Y-944426D01*
G01X15172669Y-955856D01*
G01X15166827Y-973128D01*
G01X15166827Y-984558D01*
G01X15172669Y-1001576D01*
G01X15184099Y-1013006D01*
G01X15195529Y-1018848D01*
G01X15212547Y-1018848D01*
G01X15223977Y-1013006D01*
G01X15235407Y-1001576D01*
G01X15241249Y-984558D01*
G01X15241249Y-973128D01*
G01X15235407Y-955856D01*
G01X15223977Y-944426D01*
G01X15212547Y-938838D01*
G01X15195529Y-938838D01*
G01X15289001Y-938838D02*
G01X15289001Y-1058726D01*
G01X15289001Y-955856D02*
G01X15300431Y-944426D01*
G01X15311861Y-938838D01*
G01X15329133Y-938838D01*
G01X15340563Y-944426D01*
G01X15351993Y-955856D01*
G01X15357581Y-973128D01*
G01X15357581Y-984558D01*
G01X15351993Y-1001576D01*
G01X15340563Y-1013006D01*
G01X15329133Y-1018848D01*
G01X15311861Y-1018848D01*
G01X15300431Y-1013006D01*
G01X15289001Y-1001576D01*
G01X15533349Y-898706D02*
G01X15533349Y-1018848D01*
G01X15533349Y-1018848D02*
G01X15601929Y-1018848D01*
G01X15718261Y-938838D02*
G01X15718261Y-1018848D01*
G01X15718261Y-955856D02*
G01X15706831Y-944426D01*
G01X15695401Y-938838D01*
G01X15678383Y-938838D01*
G01X15666953Y-944426D01*
G01X15655523Y-955856D01*
G01X15649681Y-973128D01*
G01X15649681Y-984558D01*
G01X15655523Y-1001576D01*
G01X15666953Y-1013006D01*
G01X15678383Y-1018848D01*
G01X15695401Y-1018848D01*
G01X15706831Y-1013006D01*
G01X15718261Y-1001576D01*
G01X15771855Y-938838D02*
G01X15806145Y-1018848D01*
G01X15840435Y-938838D02*
G01X15806145Y-1018848D01*
G01X15794715Y-1041708D01*
G01X15783285Y-1053138D01*
G01X15771855Y-1058726D01*
G01X15766013Y-1058726D01*
G01X15888187Y-973128D02*
G01X15956767Y-973128D01*
G01X15956767Y-961698D01*
G01X15951179Y-950268D01*
G01X15945337Y-944426D01*
G01X15933907Y-938838D01*
G01X15916889Y-938838D01*
G01X15905459Y-944426D01*
G01X15894029Y-955856D01*
G01X15888187Y-973128D01*
G01X15888187Y-984558D01*
G01X15894029Y-1001576D01*
G01X15905459Y-1013006D01*
G01X15916889Y-1018848D01*
G01X15933907Y-1018848D01*
G01X15945337Y-1013006D01*
G01X15956767Y-1001576D01*
G01X16004519Y-938838D02*
G01X16004519Y-1018848D01*
G01X16004519Y-973128D02*
G01X16010361Y-955856D01*
G01X16021791Y-944426D01*
G01X16033221Y-938838D01*
G01X16050239Y-938838D01*
G01X16097991Y-967286D02*
G01X16200861Y-967286D01*
G01X16248613Y-898706D02*
G01X16248613Y-1018848D01*
G01X16248613Y-898706D02*
G01X16300175Y-898706D01*
G01X16317193Y-904548D01*
G01X16323035Y-910136D01*
G01X16328623Y-921566D01*
G01X16328623Y-932996D01*
G01X16323035Y-944426D01*
G01X16317193Y-950268D01*
G01X16300175Y-955856D01*
G01X16248613Y-955856D02*
G01X16300175Y-955856D01*
G01X16317193Y-961698D01*
G01X16323035Y-967286D01*
G01X16328623Y-978716D01*
G01X16328623Y-995988D01*
G01X16323035Y-1007418D01*
G01X16317193Y-1013006D01*
G01X16300175Y-1018848D01*
G01X16248613Y-1018848D01*
G01X16405077Y-938838D02*
G01X16393647Y-944426D01*
G01X16382217Y-955856D01*
G01X16376375Y-973128D01*
G01X16376375Y-984558D01*
G01X16382217Y-1001576D01*
G01X16393647Y-1013006D01*
G01X16405077Y-1018848D01*
G01X16422095Y-1018848D01*
G01X16433525Y-1013006D01*
G01X16444955Y-1001576D01*
G01X16450797Y-984558D01*
G01X16450797Y-973128D01*
G01X16444955Y-955856D01*
G01X16433525Y-944426D01*
G01X16422095Y-938838D01*
G01X16405077Y-938838D01*
G01X16515821Y-898706D02*
G01X16515821Y-995988D01*
G01X16521409Y-1013006D01*
G01X16532839Y-1018848D01*
G01X16544269Y-1018848D01*
G01X16498549Y-938838D02*
G01X16538681Y-938838D01*
G01X16609293Y-898706D02*
G01X16609293Y-995988D01*
G01X16614881Y-1013006D01*
G01X16626311Y-1018848D01*
G01X16637741Y-1018848D01*
G01X16592021Y-938838D02*
G01X16632153Y-938838D01*
G01X16714195Y-938838D02*
G01X16702765Y-944426D01*
G01X16691335Y-955856D01*
G01X16685493Y-973128D01*
G01X16685493Y-984558D01*
G01X16691335Y-1001576D01*
G01X16702765Y-1013006D01*
G01X16714195Y-1018848D01*
G01X16731213Y-1018848D01*
G01X16742643Y-1013006D01*
G01X16754073Y-1001576D01*
G01X16759915Y-984558D01*
G01X16759915Y-973128D01*
G01X16754073Y-955856D01*
G01X16742643Y-944426D01*
G01X16731213Y-938838D01*
G01X16714195Y-938838D01*
G01X16807667Y-938838D02*
G01X16807667Y-1018848D01*
G01X16807667Y-961698D02*
G01X16824939Y-944426D01*
G01X16836369Y-938838D01*
G01X16853387Y-938838D01*
G01X16864817Y-944426D01*
G01X16870659Y-961698D01*
G01X16870659Y-1018848D01*
G01X16870659Y-961698D02*
G01X16887677Y-944426D01*
G01X16899107Y-938838D01*
G01X16916379Y-938838D01*
G01X16927809Y-944426D01*
G01X16933397Y-961698D01*
G01X16933397Y-1018848D01*
G01X17109165Y-898706D02*
G01X17109165Y-1018848D01*
G01X17109165Y-1018848D02*
G01X17177745Y-1018848D01*
G01X17294077Y-938838D02*
G01X17294077Y-1018848D01*
G01X17294077Y-955856D02*
G01X17282647Y-944426D01*
G01X17271217Y-938838D01*
G01X17254199Y-938838D01*
G01X17242769Y-944426D01*
G01X17231339Y-955856D01*
G01X17225497Y-973128D01*
G01X17225497Y-984558D01*
G01X17231339Y-1001576D01*
G01X17242769Y-1013006D01*
G01X17254199Y-1018848D01*
G01X17271217Y-1018848D01*
G01X17282647Y-1013006D01*
G01X17294077Y-1001576D01*
G01X17347671Y-938838D02*
G01X17381961Y-1018848D01*
G01X17416251Y-938838D02*
G01X17381961Y-1018848D01*
G01X17370531Y-1041708D01*
G01X17359101Y-1053138D01*
G01X17347671Y-1058726D01*
G01X17341829Y-1058726D01*
G01X17464003Y-973128D02*
G01X17532583Y-973128D01*
G01X17532583Y-961698D01*
G01X17526995Y-950268D01*
G01X17521153Y-944426D01*
G01X17509723Y-938838D01*
G01X17492705Y-938838D01*
G01X17481275Y-944426D01*
G01X17469845Y-955856D01*
G01X17464003Y-973128D01*
G01X17464003Y-984558D01*
G01X17469845Y-1001576D01*
G01X17481275Y-1013006D01*
G01X17492705Y-1018848D01*
G01X17509723Y-1018848D01*
G01X17521153Y-1013006D01*
G01X17532583Y-1001576D01*
G01X17580335Y-938838D02*
G01X17580335Y-1018848D01*
G01X17580335Y-973128D02*
G01X17586177Y-955856D01*
G01X17597607Y-944426D01*
G01X17609037Y-938838D01*
G01X17626055Y-938838D01*
G01X3272915Y-1479277D02*
G01X3335907Y-1479277D01*
G01X3301617Y-1524997D01*
G01X3318635Y-1524997D01*
G01X3330065Y-1530839D01*
G01X3335907Y-1536427D01*
G01X3341495Y-1553699D01*
G01X3341495Y-1565129D01*
G01X3335907Y-1582147D01*
G01X3324477Y-1593577D01*
G01X3307205Y-1599419D01*
G01X3290187Y-1599419D01*
G01X3272915Y-1593577D01*
G01X3267327Y-1587989D01*
G01X3261485Y-1576559D01*
G01X4744228Y-1479277D02*
G01X4687078Y-1479277D01*
G01X4681490Y-1530839D01*
G01X4687078Y-1524997D01*
G01X4704350Y-1519409D01*
G01X4721368Y-1519409D01*
G01X4738640Y-1524997D01*
G01X4750070Y-1536427D01*
G01X4755658Y-1553699D01*
G01X4755658Y-1565129D01*
G01X4750070Y-1582147D01*
G01X4738640Y-1593577D01*
G01X4721368Y-1599419D01*
G01X4704350Y-1599419D01*
G01X4687078Y-1593577D01*
G01X4681490Y-1587989D01*
G01X4675648Y-1576559D01*
G01X4803410Y-1502137D02*
G01X4814840Y-1496549D01*
G01X4832112Y-1479277D01*
G01X4832112Y-1599419D01*
G01X4885706Y-1570717D02*
G01X4879864Y-1576559D01*
G01X4885706Y-1582147D01*
G01X4891294Y-1576559D01*
G01X4885706Y-1570717D01*
G01X4944888Y-1507979D02*
G01X4944888Y-1502137D01*
G01X4950476Y-1490707D01*
G01X4956318Y-1485119D01*
G01X4967748Y-1479277D01*
G01X4990608Y-1479277D01*
G01X5002038Y-1485119D01*
G01X5007626Y-1490707D01*
G01X5013468Y-1502137D01*
G01X5013468Y-1513567D01*
G01X5007626Y-1524997D01*
G01X4996196Y-1542269D01*
G01X4939046Y-1599419D01*
G01X5019056Y-1599419D01*
G01X5066808Y-1519409D02*
G01X5129800Y-1599419D01*
G01X5129800Y-1519409D02*
G01X5066808Y-1599419D01*
G01X5246132Y-1479277D02*
G01X5188982Y-1479277D01*
G01X5183394Y-1530839D01*
G01X5188982Y-1524997D01*
G01X5206254Y-1519409D01*
G01X5223272Y-1519409D01*
G01X5240544Y-1524997D01*
G01X5251974Y-1536427D01*
G01X5257562Y-1553699D01*
G01X5257562Y-1565129D01*
G01X5251974Y-1582147D01*
G01X5240544Y-1593577D01*
G01X5223272Y-1599419D01*
G01X5206254Y-1599419D01*
G01X5188982Y-1593577D01*
G01X5183394Y-1587989D01*
G01X5177552Y-1576559D01*
G01X5305314Y-1502137D02*
G01X5316744Y-1496549D01*
G01X5334016Y-1479277D01*
G01X5334016Y-1599419D01*
G01X5387610Y-1570717D02*
G01X5381768Y-1576559D01*
G01X5387610Y-1582147D01*
G01X5393198Y-1576559D01*
G01X5387610Y-1570717D01*
G01X5446792Y-1507979D02*
G01X5446792Y-1502137D01*
G01X5452380Y-1490707D01*
G01X5458222Y-1485119D01*
G01X5469652Y-1479277D01*
G01X5492512Y-1479277D01*
G01X5503942Y-1485119D01*
G01X5509530Y-1490707D01*
G01X5515372Y-1502137D01*
G01X5515372Y-1513567D01*
G01X5509530Y-1524997D01*
G01X5498100Y-1542269D01*
G01X5440950Y-1599419D01*
G01X5520960Y-1599419D01*
G01X5568712Y-1519409D02*
G01X5568712Y-1599419D01*
G01X5568712Y-1542269D02*
G01X5585984Y-1524997D01*
G01X5597414Y-1519409D01*
G01X5614432Y-1519409D01*
G01X5625862Y-1524997D01*
G01X5631704Y-1542269D01*
G01X5631704Y-1599419D01*
G01X5631704Y-1542269D02*
G01X5648722Y-1524997D01*
G01X5660152Y-1519409D01*
G01X5677424Y-1519409D01*
G01X5688854Y-1524997D01*
G01X5694442Y-1542269D01*
G01X5694442Y-1599419D01*
G01X5742194Y-1479277D02*
G01X5748036Y-1485119D01*
G01X5753624Y-1479277D01*
G01X5748036Y-1473689D01*
G01X5742194Y-1479277D01*
G01X5748036Y-1519409D02*
G01X5748036Y-1599419D01*
G01X5801376Y-1479277D02*
G01X5801376Y-1599419D01*
G01X5889260Y-1456417D02*
G01X5877830Y-1467847D01*
G01X5866400Y-1485119D01*
G01X5854970Y-1507979D01*
G01X5849128Y-1536427D01*
G01X5849128Y-1559287D01*
G01X5854970Y-1587989D01*
G01X5866400Y-1610849D01*
G01X5877830Y-1627867D01*
G01X5889260Y-1639297D01*
G01X5937012Y-1502137D02*
G01X5948442Y-1496549D01*
G01X5965714Y-1479277D01*
G01X5965714Y-1599419D01*
G01X6019308Y-1570717D02*
G01X6013466Y-1576559D01*
G01X6019308Y-1582147D01*
G01X6024896Y-1576559D01*
G01X6019308Y-1570717D01*
G01X6084078Y-1479277D02*
G01X6147070Y-1479277D01*
G01X6112780Y-1524997D01*
G01X6129798Y-1524997D01*
G01X6141228Y-1530839D01*
G01X6147070Y-1536427D01*
G01X6152658Y-1553699D01*
G01X6152658Y-1565129D01*
G01X6147070Y-1582147D01*
G01X6135640Y-1593577D01*
G01X6118368Y-1599419D01*
G01X6101350Y-1599419D01*
G01X6084078Y-1593577D01*
G01X6078490Y-1587989D01*
G01X6072648Y-1576559D01*
G01X6234700Y-1479277D02*
G01X6217682Y-1485119D01*
G01X6206252Y-1502137D01*
G01X6200410Y-1530839D01*
G01X6200410Y-1547857D01*
G01X6206252Y-1576559D01*
G01X6217682Y-1593577D01*
G01X6234700Y-1599419D01*
G01X6246130Y-1599419D01*
G01X6263402Y-1593577D01*
G01X6274832Y-1576559D01*
G01X6280420Y-1547857D01*
G01X6280420Y-1530839D01*
G01X6274832Y-1502137D01*
G01X6263402Y-1485119D01*
G01X6246130Y-1479277D01*
G01X6234700Y-1479277D01*
G01X6362462Y-1479277D02*
G01X6345444Y-1485119D01*
G01X6334014Y-1502137D01*
G01X6328172Y-1530839D01*
G01X6328172Y-1547857D01*
G01X6334014Y-1576559D01*
G01X6345444Y-1593577D01*
G01X6362462Y-1599419D01*
G01X6373892Y-1599419D01*
G01X6391164Y-1593577D01*
G01X6402594Y-1576559D01*
G01X6408182Y-1547857D01*
G01X6408182Y-1530839D01*
G01X6402594Y-1502137D01*
G01X6391164Y-1485119D01*
G01X6373892Y-1479277D01*
G01X6362462Y-1479277D01*
G01X6455934Y-1519409D02*
G01X6518926Y-1599419D01*
G01X6518926Y-1519409D02*
G01X6455934Y-1599419D01*
G01X6566678Y-1502137D02*
G01X6578108Y-1496549D01*
G01X6595380Y-1479277D01*
G01X6595380Y-1599419D01*
G01X6648974Y-1570717D02*
G01X6643132Y-1576559D01*
G01X6648974Y-1582147D01*
G01X6654562Y-1576559D01*
G01X6648974Y-1570717D01*
G01X6713744Y-1479277D02*
G01X6776736Y-1479277D01*
G01X6742446Y-1524997D01*
G01X6759464Y-1524997D01*
G01X6770894Y-1530839D01*
G01X6776736Y-1536427D01*
G01X6782324Y-1553699D01*
G01X6782324Y-1565129D01*
G01X6776736Y-1582147D01*
G01X6765306Y-1593577D01*
G01X6748034Y-1599419D01*
G01X6731016Y-1599419D01*
G01X6713744Y-1593577D01*
G01X6708156Y-1587989D01*
G01X6702314Y-1576559D01*
G01X6864366Y-1479277D02*
G01X6847348Y-1485119D01*
G01X6835918Y-1502137D01*
G01X6830076Y-1530839D01*
G01X6830076Y-1547857D01*
G01X6835918Y-1576559D01*
G01X6847348Y-1593577D01*
G01X6864366Y-1599419D01*
G01X6875796Y-1599419D01*
G01X6893068Y-1593577D01*
G01X6904498Y-1576559D01*
G01X6910086Y-1547857D01*
G01X6910086Y-1530839D01*
G01X6904498Y-1502137D01*
G01X6893068Y-1485119D01*
G01X6875796Y-1479277D01*
G01X6864366Y-1479277D01*
G01X6992128Y-1479277D02*
G01X6975110Y-1485119D01*
G01X6963680Y-1502137D01*
G01X6957838Y-1530839D01*
G01X6957838Y-1547857D01*
G01X6963680Y-1576559D01*
G01X6975110Y-1593577D01*
G01X6992128Y-1599419D01*
G01X7003558Y-1599419D01*
G01X7020830Y-1593577D01*
G01X7032260Y-1576559D01*
G01X7037848Y-1547857D01*
G01X7037848Y-1530839D01*
G01X7032260Y-1502137D01*
G01X7020830Y-1485119D01*
G01X7003558Y-1479277D01*
G01X6992128Y-1479277D01*
G01X7085600Y-1519409D02*
G01X7085600Y-1599419D01*
G01X7085600Y-1542269D02*
G01X7102872Y-1524997D01*
G01X7114302Y-1519409D01*
G01X7131320Y-1519409D01*
G01X7142750Y-1524997D01*
G01X7148592Y-1542269D01*
G01X7148592Y-1599419D01*
G01X7148592Y-1542269D02*
G01X7165610Y-1524997D01*
G01X7177040Y-1519409D01*
G01X7194312Y-1519409D01*
G01X7205742Y-1524997D01*
G01X7211330Y-1542269D01*
G01X7211330Y-1599419D01*
G01X7259082Y-1519409D02*
G01X7259082Y-1599419D01*
G01X7259082Y-1542269D02*
G01X7276354Y-1524997D01*
G01X7287784Y-1519409D01*
G01X7304802Y-1519409D01*
G01X7316232Y-1524997D01*
G01X7322074Y-1542269D01*
G01X7322074Y-1599419D01*
G01X7322074Y-1542269D02*
G01X7339092Y-1524997D01*
G01X7350522Y-1519409D01*
G01X7367794Y-1519409D01*
G01X7379224Y-1524997D01*
G01X7384812Y-1542269D01*
G01X7384812Y-1599419D01*
G01X7432564Y-1456417D02*
G01X7443994Y-1467847D01*
G01X7455424Y-1485119D01*
G01X7466854Y-1507979D01*
G01X7472696Y-1536427D01*
G01X7472696Y-1559287D01*
G01X7466854Y-1587989D01*
G01X7455424Y-1610849D01*
G01X7443994Y-1627867D01*
G01X7432564Y-1639297D01*
G01X8557929Y-1479277D02*
G01X8557929Y-1599419D01*
G01X8557929Y-1479277D02*
G01X8609491Y-1479277D01*
G01X8626509Y-1485119D01*
G01X8632351Y-1490707D01*
G01X8637939Y-1502137D01*
G01X8637939Y-1519409D01*
G01X8632351Y-1530839D01*
G01X8626509Y-1536427D01*
G01X8609491Y-1542269D01*
G01X8557929Y-1542269D01*
G01X8725823Y-1479277D02*
G01X8725823Y-1599419D01*
G01X8685691Y-1479277D02*
G01X8765701Y-1479277D01*
G01X8813453Y-1479277D02*
G01X8813453Y-1599419D01*
G01X8893463Y-1479277D02*
G01X8893463Y-1599419D01*
G01X8813453Y-1536427D02*
G01X8893463Y-1536427D01*
G01X10019336Y-1479277D02*
G01X10019336Y-1599419D01*
G01X10019336Y-1479277D02*
G01X10070898Y-1479277D01*
G01X10087916Y-1485119D01*
G01X10093758Y-1490707D01*
G01X10099346Y-1502137D01*
G01X10099346Y-1513567D01*
G01X10093758Y-1524997D01*
G01X10087916Y-1530839D01*
G01X10070898Y-1536427D01*
G01X10019336Y-1536427D01*
G01X10059468Y-1536427D02*
G01X10099346Y-1599419D01*
G01X10175800Y-1519409D02*
G01X10164370Y-1524997D01*
G01X10152940Y-1536427D01*
G01X10147098Y-1553699D01*
G01X10147098Y-1565129D01*
G01X10152940Y-1582147D01*
G01X10164370Y-1593577D01*
G01X10175800Y-1599419D01*
G01X10192818Y-1599419D01*
G01X10204248Y-1593577D01*
G01X10215678Y-1582147D01*
G01X10221520Y-1565129D01*
G01X10221520Y-1553699D01*
G01X10215678Y-1536427D01*
G01X10204248Y-1524997D01*
G01X10192818Y-1519409D01*
G01X10175800Y-1519409D01*
G01X10269272Y-1519409D02*
G01X10269272Y-1576559D01*
G01X10275114Y-1593577D01*
G01X10286544Y-1599419D01*
G01X10303562Y-1599419D01*
G01X10314992Y-1593577D01*
G01X10332264Y-1576559D01*
G01X10332264Y-1519409D02*
G01X10332264Y-1599419D01*
G01X10380016Y-1519409D02*
G01X10380016Y-1599419D01*
G01X10380016Y-1542269D02*
G01X10397288Y-1524997D01*
G01X10408718Y-1519409D01*
G01X10425736Y-1519409D01*
G01X10437166Y-1524997D01*
G01X10443008Y-1542269D01*
G01X10443008Y-1599419D01*
G01X10559340Y-1479277D02*
G01X10559340Y-1599419D01*
G01X10559340Y-1536427D02*
G01X10547910Y-1524997D01*
G01X10536480Y-1519409D01*
G01X10519462Y-1519409D01*
G01X10508032Y-1524997D01*
G01X10496602Y-1536427D01*
G01X10490760Y-1553699D01*
G01X10490760Y-1565129D01*
G01X10496602Y-1582147D01*
G01X10508032Y-1593577D01*
G01X10519462Y-1599419D01*
G01X10536480Y-1599419D01*
G01X10547910Y-1593577D01*
G01X10559340Y-1582147D01*
G01X11450517Y-1479277D02*
G01X11450517Y-1599419D01*
G01X11450517Y-1479277D02*
G01X11502079Y-1479277D01*
G01X11519097Y-1485119D01*
G01X11524939Y-1490707D01*
G01X11530527Y-1502137D01*
G01X11530527Y-1519409D01*
G01X11524939Y-1530839D01*
G01X11519097Y-1536427D01*
G01X11502079Y-1542269D01*
G01X11450517Y-1542269D01*
G01X11646859Y-1519409D02*
G01X11646859Y-1599419D01*
G01X11646859Y-1536427D02*
G01X11635429Y-1524997D01*
G01X11623999Y-1519409D01*
G01X11606981Y-1519409D01*
G01X11595551Y-1524997D01*
G01X11584121Y-1536427D01*
G01X11578279Y-1553699D01*
G01X11578279Y-1565129D01*
G01X11584121Y-1582147D01*
G01X11595551Y-1593577D01*
G01X11606981Y-1599419D01*
G01X11623999Y-1599419D01*
G01X11635429Y-1593577D01*
G01X11646859Y-1582147D01*
G01X11763191Y-1479277D02*
G01X11763191Y-1599419D01*
G01X11763191Y-1536427D02*
G01X11751761Y-1524997D01*
G01X11740331Y-1519409D01*
G01X11723313Y-1519409D01*
G01X11711883Y-1524997D01*
G01X11700453Y-1536427D01*
G01X11694611Y-1553699D01*
G01X11694611Y-1565129D01*
G01X11700453Y-1582147D01*
G01X11711883Y-1593577D01*
G01X11723313Y-1599419D01*
G01X11740331Y-1599419D01*
G01X11751761Y-1593577D01*
G01X11763191Y-1582147D01*
G01X13119696Y-1479277D02*
G01X13119696Y-1599419D01*
G01X13119696Y-1479277D02*
G01X13171258Y-1479277D01*
G01X13188276Y-1485119D01*
G01X13194118Y-1490707D01*
G01X13199706Y-1502137D01*
G01X13199706Y-1513567D01*
G01X13194118Y-1524997D01*
G01X13188276Y-1530839D01*
G01X13171258Y-1536427D01*
G01X13119696Y-1536427D01*
G01X13159828Y-1536427D02*
G01X13199706Y-1599419D01*
G01X13247458Y-1553699D02*
G01X13316038Y-1553699D01*
G01X13316038Y-1542269D01*
G01X13310450Y-1530839D01*
G01X13304608Y-1524997D01*
G01X13293178Y-1519409D01*
G01X13276160Y-1519409D01*
G01X13264730Y-1524997D01*
G01X13253300Y-1536427D01*
G01X13247458Y-1553699D01*
G01X13247458Y-1565129D01*
G01X13253300Y-1582147D01*
G01X13264730Y-1593577D01*
G01X13276160Y-1599419D01*
G01X13293178Y-1599419D01*
G01X13304608Y-1593577D01*
G01X13316038Y-1582147D01*
G01X13432370Y-1536427D02*
G01X13420940Y-1524997D01*
G01X13409510Y-1519409D01*
G01X13392492Y-1519409D01*
G01X13381062Y-1524997D01*
G01X13369632Y-1536427D01*
G01X13363790Y-1553699D01*
G01X13363790Y-1565129D01*
G01X13369632Y-1582147D01*
G01X13381062Y-1593577D01*
G01X13392492Y-1599419D01*
G01X13409510Y-1599419D01*
G01X13420940Y-1593577D01*
G01X13432370Y-1582147D01*
G01X13497394Y-1479277D02*
G01X13497394Y-1576559D01*
G01X13502982Y-1593577D01*
G01X13514412Y-1599419D01*
G01X13525842Y-1599419D01*
G01X13480122Y-1519409D02*
G01X13520254Y-1519409D01*
G01X13642174Y-1519409D02*
G01X13642174Y-1599419D01*
G01X13642174Y-1536427D02*
G01X13630744Y-1524997D01*
G01X13619314Y-1519409D01*
G01X13602296Y-1519409D01*
G01X13590866Y-1524997D01*
G01X13579436Y-1536427D01*
G01X13573594Y-1553699D01*
G01X13573594Y-1565129D01*
G01X13579436Y-1582147D01*
G01X13590866Y-1593577D01*
G01X13602296Y-1599419D01*
G01X13619314Y-1599419D01*
G01X13630744Y-1593577D01*
G01X13642174Y-1582147D01*
G01X13689926Y-1519409D02*
G01X13689926Y-1599419D01*
G01X13689926Y-1542269D02*
G01X13707198Y-1524997D01*
G01X13718628Y-1519409D01*
G01X13735646Y-1519409D01*
G01X13747076Y-1524997D01*
G01X13752918Y-1542269D01*
G01X13752918Y-1599419D01*
G01X13869250Y-1519409D02*
G01X13869250Y-1610849D01*
G01X13863662Y-1627867D01*
G01X13857820Y-1633709D01*
G01X13846390Y-1639297D01*
G01X13829372Y-1639297D01*
G01X13817942Y-1633709D01*
G01X13869250Y-1536427D02*
G01X13857820Y-1524997D01*
G01X13846390Y-1519409D01*
G01X13829372Y-1519409D01*
G01X13817942Y-1524997D01*
G01X13806512Y-1536427D01*
G01X13800670Y-1553699D01*
G01X13800670Y-1565129D01*
G01X13806512Y-1582147D01*
G01X13817942Y-1593577D01*
G01X13829372Y-1599419D01*
G01X13846390Y-1599419D01*
G01X13857820Y-1593577D01*
G01X13869250Y-1582147D01*
G01X13917002Y-1479277D02*
G01X13917002Y-1599419D01*
G01X13964754Y-1553699D02*
G01X14033334Y-1553699D01*
G01X14033334Y-1542269D01*
G01X14027746Y-1530839D01*
G01X14021904Y-1524997D01*
G01X14010474Y-1519409D01*
G01X13993456Y-1519409D01*
G01X13982026Y-1524997D01*
G01X13970596Y-1536427D01*
G01X13964754Y-1553699D01*
G01X13964754Y-1565129D01*
G01X13970596Y-1582147D01*
G01X13982026Y-1593577D01*
G01X13993456Y-1599419D01*
G01X14010474Y-1599419D01*
G01X14021904Y-1593577D01*
G01X14033334Y-1582147D01*
G01X15079197Y-1479277D02*
G01X15079197Y-1599419D01*
G01X15039065Y-1479277D02*
G01X15119075Y-1479277D01*
G01X15195529Y-1519409D02*
G01X15184099Y-1524997D01*
G01X15172669Y-1536427D01*
G01X15166827Y-1553699D01*
G01X15166827Y-1565129D01*
G01X15172669Y-1582147D01*
G01X15184099Y-1593577D01*
G01X15195529Y-1599419D01*
G01X15212547Y-1599419D01*
G01X15223977Y-1593577D01*
G01X15235407Y-1582147D01*
G01X15241249Y-1565129D01*
G01X15241249Y-1553699D01*
G01X15235407Y-1536427D01*
G01X15223977Y-1524997D01*
G01X15212547Y-1519409D01*
G01X15195529Y-1519409D01*
G01X15289001Y-1519409D02*
G01X15289001Y-1639297D01*
G01X15289001Y-1536427D02*
G01X15300431Y-1524997D01*
G01X15311861Y-1519409D01*
G01X15329133Y-1519409D01*
G01X15340563Y-1524997D01*
G01X15351993Y-1536427D01*
G01X15357581Y-1553699D01*
G01X15357581Y-1565129D01*
G01X15351993Y-1582147D01*
G01X15340563Y-1593577D01*
G01X15329133Y-1599419D01*
G01X15311861Y-1599419D01*
G01X15300431Y-1593577D01*
G01X15289001Y-1582147D01*
G01X15533349Y-1479277D02*
G01X15533349Y-1599419D01*
G01X15533349Y-1599419D02*
G01X15601929Y-1599419D01*
G01X15718261Y-1519409D02*
G01X15718261Y-1599419D01*
G01X15718261Y-1536427D02*
G01X15706831Y-1524997D01*
G01X15695401Y-1519409D01*
G01X15678383Y-1519409D01*
G01X15666953Y-1524997D01*
G01X15655523Y-1536427D01*
G01X15649681Y-1553699D01*
G01X15649681Y-1565129D01*
G01X15655523Y-1582147D01*
G01X15666953Y-1593577D01*
G01X15678383Y-1599419D01*
G01X15695401Y-1599419D01*
G01X15706831Y-1593577D01*
G01X15718261Y-1582147D01*
G01X15771855Y-1519409D02*
G01X15806145Y-1599419D01*
G01X15840435Y-1519409D02*
G01X15806145Y-1599419D01*
G01X15794715Y-1622279D01*
G01X15783285Y-1633709D01*
G01X15771855Y-1639297D01*
G01X15766013Y-1639297D01*
G01X15888187Y-1553699D02*
G01X15956767Y-1553699D01*
G01X15956767Y-1542269D01*
G01X15951179Y-1530839D01*
G01X15945337Y-1524997D01*
G01X15933907Y-1519409D01*
G01X15916889Y-1519409D01*
G01X15905459Y-1524997D01*
G01X15894029Y-1536427D01*
G01X15888187Y-1553699D01*
G01X15888187Y-1565129D01*
G01X15894029Y-1582147D01*
G01X15905459Y-1593577D01*
G01X15916889Y-1599419D01*
G01X15933907Y-1599419D01*
G01X15945337Y-1593577D01*
G01X15956767Y-1582147D01*
G01X16004519Y-1519409D02*
G01X16004519Y-1599419D01*
G01X16004519Y-1553699D02*
G01X16010361Y-1536427D01*
G01X16021791Y-1524997D01*
G01X16033221Y-1519409D01*
G01X16050239Y-1519409D01*
G01X16097991Y-1547857D02*
G01X16200861Y-1547857D01*
G01X16248613Y-1479277D02*
G01X16248613Y-1599419D01*
G01X16248613Y-1479277D02*
G01X16300175Y-1479277D01*
G01X16317193Y-1485119D01*
G01X16323035Y-1490707D01*
G01X16328623Y-1502137D01*
G01X16328623Y-1513567D01*
G01X16323035Y-1524997D01*
G01X16317193Y-1530839D01*
G01X16300175Y-1536427D01*
G01X16248613Y-1536427D02*
G01X16300175Y-1536427D01*
G01X16317193Y-1542269D01*
G01X16323035Y-1547857D01*
G01X16328623Y-1559287D01*
G01X16328623Y-1576559D01*
G01X16323035Y-1587989D01*
G01X16317193Y-1593577D01*
G01X16300175Y-1599419D01*
G01X16248613Y-1599419D01*
G01X16405077Y-1519409D02*
G01X16393647Y-1524997D01*
G01X16382217Y-1536427D01*
G01X16376375Y-1553699D01*
G01X16376375Y-1565129D01*
G01X16382217Y-1582147D01*
G01X16393647Y-1593577D01*
G01X16405077Y-1599419D01*
G01X16422095Y-1599419D01*
G01X16433525Y-1593577D01*
G01X16444955Y-1582147D01*
G01X16450797Y-1565129D01*
G01X16450797Y-1553699D01*
G01X16444955Y-1536427D01*
G01X16433525Y-1524997D01*
G01X16422095Y-1519409D01*
G01X16405077Y-1519409D01*
G01X16515821Y-1479277D02*
G01X16515821Y-1576559D01*
G01X16521409Y-1593577D01*
G01X16532839Y-1599419D01*
G01X16544269Y-1599419D01*
G01X16498549Y-1519409D02*
G01X16538681Y-1519409D01*
G01X16609293Y-1479277D02*
G01X16609293Y-1576559D01*
G01X16614881Y-1593577D01*
G01X16626311Y-1599419D01*
G01X16637741Y-1599419D01*
G01X16592021Y-1519409D02*
G01X16632153Y-1519409D01*
G01X16714195Y-1519409D02*
G01X16702765Y-1524997D01*
G01X16691335Y-1536427D01*
G01X16685493Y-1553699D01*
G01X16685493Y-1565129D01*
G01X16691335Y-1582147D01*
G01X16702765Y-1593577D01*
G01X16714195Y-1599419D01*
G01X16731213Y-1599419D01*
G01X16742643Y-1593577D01*
G01X16754073Y-1582147D01*
G01X16759915Y-1565129D01*
G01X16759915Y-1553699D01*
G01X16754073Y-1536427D01*
G01X16742643Y-1524997D01*
G01X16731213Y-1519409D01*
G01X16714195Y-1519409D01*
G01X16807667Y-1519409D02*
G01X16807667Y-1599419D01*
G01X16807667Y-1542269D02*
G01X16824939Y-1524997D01*
G01X16836369Y-1519409D01*
G01X16853387Y-1519409D01*
G01X16864817Y-1524997D01*
G01X16870659Y-1542269D01*
G01X16870659Y-1599419D01*
G01X16870659Y-1542269D02*
G01X16887677Y-1524997D01*
G01X16899107Y-1519409D01*
G01X16916379Y-1519409D01*
G01X16927809Y-1524997D01*
G01X16933397Y-1542269D01*
G01X16933397Y-1599419D01*
G01X17109165Y-1479277D02*
G01X17109165Y-1599419D01*
G01X17109165Y-1599419D02*
G01X17177745Y-1599419D01*
G01X17294077Y-1519409D02*
G01X17294077Y-1599419D01*
G01X17294077Y-1536427D02*
G01X17282647Y-1524997D01*
G01X17271217Y-1519409D01*
G01X17254199Y-1519409D01*
G01X17242769Y-1524997D01*
G01X17231339Y-1536427D01*
G01X17225497Y-1553699D01*
G01X17225497Y-1565129D01*
G01X17231339Y-1582147D01*
G01X17242769Y-1593577D01*
G01X17254199Y-1599419D01*
G01X17271217Y-1599419D01*
G01X17282647Y-1593577D01*
G01X17294077Y-1582147D01*
G01X17347671Y-1519409D02*
G01X17381961Y-1599419D01*
G01X17416251Y-1519409D02*
G01X17381961Y-1599419D01*
G01X17370531Y-1622279D01*
G01X17359101Y-1633709D01*
G01X17347671Y-1639297D01*
G01X17341829Y-1639297D01*
G01X17464003Y-1553699D02*
G01X17532583Y-1553699D01*
G01X17532583Y-1542269D01*
G01X17526995Y-1530839D01*
G01X17521153Y-1524997D01*
G01X17509723Y-1519409D01*
G01X17492705Y-1519409D01*
G01X17481275Y-1524997D01*
G01X17469845Y-1536427D01*
G01X17464003Y-1553699D01*
G01X17464003Y-1565129D01*
G01X17469845Y-1582147D01*
G01X17481275Y-1593577D01*
G01X17492705Y-1599419D01*
G01X17509723Y-1599419D01*
G01X17521153Y-1593577D01*
G01X17532583Y-1582147D01*
G01X17580335Y-1519409D02*
G01X17580335Y-1599419D01*
G01X17580335Y-1553699D02*
G01X17586177Y-1536427D01*
G01X17597607Y-1524997D01*
G01X17609037Y-1519409D01*
G01X17626055Y-1519409D01*
G01X3318635Y-2059848D02*
G01X3261485Y-2139858D01*
G01X3347337Y-2139858D01*
G01X3318635Y-2059848D02*
G01X3318635Y-2179990D01*
G01X4681490Y-2088550D02*
G01X4681490Y-2082708D01*
G01X4687078Y-2071278D01*
G01X4692920Y-2065690D01*
G01X4704350Y-2059848D01*
G01X4727210Y-2059848D01*
G01X4738640Y-2065690D01*
G01X4744228Y-2071278D01*
G01X4750070Y-2082708D01*
G01X4750070Y-2094138D01*
G01X4744228Y-2105568D01*
G01X4732798Y-2122840D01*
G01X4675648Y-2179990D01*
G01X4755658Y-2179990D01*
G01X4871990Y-2059848D02*
G01X4814840Y-2059848D01*
G01X4809252Y-2111410D01*
G01X4814840Y-2105568D01*
G01X4832112Y-2099980D01*
G01X4849130Y-2099980D01*
G01X4866402Y-2105568D01*
G01X4877832Y-2116998D01*
G01X4883420Y-2134270D01*
G01X4883420Y-2145700D01*
G01X4877832Y-2162718D01*
G01X4866402Y-2174148D01*
G01X4849130Y-2179990D01*
G01X4832112Y-2179990D01*
G01X4814840Y-2174148D01*
G01X4809252Y-2168560D01*
G01X4803410Y-2157130D01*
G01X4937014Y-2151288D02*
G01X4931172Y-2157130D01*
G01X4937014Y-2162718D01*
G01X4942602Y-2157130D01*
G01X4937014Y-2151288D01*
G01X5058934Y-2077120D02*
G01X5053346Y-2065690D01*
G01X5036074Y-2059848D01*
G01X5024644Y-2059848D01*
G01X5007626Y-2065690D01*
G01X4996196Y-2082708D01*
G01X4990354Y-2111410D01*
G01X4990354Y-2139858D01*
G01X4996196Y-2162718D01*
G01X5007626Y-2174148D01*
G01X5024644Y-2179990D01*
G01X5030486Y-2179990D01*
G01X5047504Y-2174148D01*
G01X5058934Y-2162718D01*
G01X5064776Y-2145700D01*
G01X5064776Y-2139858D01*
G01X5058934Y-2122840D01*
G01X5047504Y-2111410D01*
G01X5030486Y-2105568D01*
G01X5024644Y-2105568D01*
G01X5007626Y-2111410D01*
G01X4996196Y-2122840D01*
G01X4990354Y-2139858D01*
G01X5112528Y-2099980D02*
G01X5112528Y-2179990D01*
G01X5112528Y-2122840D02*
G01X5129800Y-2105568D01*
G01X5141230Y-2099980D01*
G01X5158248Y-2099980D01*
G01X5169678Y-2105568D01*
G01X5175520Y-2122840D01*
G01X5175520Y-2179990D01*
G01X5175520Y-2122840D02*
G01X5192538Y-2105568D01*
G01X5203968Y-2099980D01*
G01X5221240Y-2099980D01*
G01X5232670Y-2105568D01*
G01X5238258Y-2122840D01*
G01X5238258Y-2179990D01*
G01X5286010Y-2059848D02*
G01X5291852Y-2065690D01*
G01X5297440Y-2059848D01*
G01X5291852Y-2054260D01*
G01X5286010Y-2059848D01*
G01X5291852Y-2099980D02*
G01X5291852Y-2179990D01*
G01X5345192Y-2059848D02*
G01X5345192Y-2179990D01*
G01X5433076Y-2036988D02*
G01X5421646Y-2048418D01*
G01X5410216Y-2065690D01*
G01X5398786Y-2088550D01*
G01X5392944Y-2116998D01*
G01X5392944Y-2139858D01*
G01X5398786Y-2168560D01*
G01X5410216Y-2191420D01*
G01X5421646Y-2208438D01*
G01X5433076Y-2219868D01*
G01X5515118Y-2059848D02*
G01X5498100Y-2065690D01*
G01X5486670Y-2082708D01*
G01X5480828Y-2111410D01*
G01X5480828Y-2128428D01*
G01X5486670Y-2157130D01*
G01X5498100Y-2174148D01*
G01X5515118Y-2179990D01*
G01X5526548Y-2179990D01*
G01X5543820Y-2174148D01*
G01X5555250Y-2157130D01*
G01X5560838Y-2128428D01*
G01X5560838Y-2111410D01*
G01X5555250Y-2082708D01*
G01X5543820Y-2065690D01*
G01X5526548Y-2059848D01*
G01X5515118Y-2059848D01*
G01X5614432Y-2151288D02*
G01X5608590Y-2157130D01*
G01X5614432Y-2162718D01*
G01X5620020Y-2157130D01*
G01X5614432Y-2151288D01*
G01X5736352Y-2077120D02*
G01X5730764Y-2065690D01*
G01X5713492Y-2059848D01*
G01X5702062Y-2059848D01*
G01X5685044Y-2065690D01*
G01X5673614Y-2082708D01*
G01X5667772Y-2111410D01*
G01X5667772Y-2139858D01*
G01X5673614Y-2162718D01*
G01X5685044Y-2174148D01*
G01X5702062Y-2179990D01*
G01X5707904Y-2179990D01*
G01X5724922Y-2174148D01*
G01X5736352Y-2162718D01*
G01X5742194Y-2145700D01*
G01X5742194Y-2139858D01*
G01X5736352Y-2122840D01*
G01X5724922Y-2111410D01*
G01X5707904Y-2105568D01*
G01X5702062Y-2105568D01*
G01X5685044Y-2111410D01*
G01X5673614Y-2122840D01*
G01X5667772Y-2139858D01*
G01X5858526Y-2059848D02*
G01X5801376Y-2059848D01*
G01X5795788Y-2111410D01*
G01X5801376Y-2105568D01*
G01X5818648Y-2099980D01*
G01X5835666Y-2099980D01*
G01X5852938Y-2105568D01*
G01X5864368Y-2116998D01*
G01X5869956Y-2134270D01*
G01X5869956Y-2145700D01*
G01X5864368Y-2162718D01*
G01X5852938Y-2174148D01*
G01X5835666Y-2179990D01*
G01X5818648Y-2179990D01*
G01X5801376Y-2174148D01*
G01X5795788Y-2168560D01*
G01X5789946Y-2157130D01*
G01X5951998Y-2059848D02*
G01X5934980Y-2065690D01*
G01X5923550Y-2082708D01*
G01X5917708Y-2111410D01*
G01X5917708Y-2128428D01*
G01X5923550Y-2157130D01*
G01X5934980Y-2174148D01*
G01X5951998Y-2179990D01*
G01X5963428Y-2179990D01*
G01X5980700Y-2174148D01*
G01X5992130Y-2157130D01*
G01X5997718Y-2128428D01*
G01X5997718Y-2111410D01*
G01X5992130Y-2082708D01*
G01X5980700Y-2065690D01*
G01X5963428Y-2059848D01*
G01X5951998Y-2059848D01*
G01X6045470Y-2099980D02*
G01X6045470Y-2179990D01*
G01X6045470Y-2122840D02*
G01X6062742Y-2105568D01*
G01X6074172Y-2099980D01*
G01X6091190Y-2099980D01*
G01X6102620Y-2105568D01*
G01X6108462Y-2122840D01*
G01X6108462Y-2179990D01*
G01X6108462Y-2122840D02*
G01X6125480Y-2105568D01*
G01X6136910Y-2099980D01*
G01X6154182Y-2099980D01*
G01X6165612Y-2105568D01*
G01X6171200Y-2122840D01*
G01X6171200Y-2179990D01*
G01X6218952Y-2099980D02*
G01X6218952Y-2179990D01*
G01X6218952Y-2122840D02*
G01X6236224Y-2105568D01*
G01X6247654Y-2099980D01*
G01X6264672Y-2099980D01*
G01X6276102Y-2105568D01*
G01X6281944Y-2122840D01*
G01X6281944Y-2179990D01*
G01X6281944Y-2122840D02*
G01X6298962Y-2105568D01*
G01X6310392Y-2099980D01*
G01X6327664Y-2099980D01*
G01X6339094Y-2105568D01*
G01X6344682Y-2122840D01*
G01X6344682Y-2179990D01*
G01X6392434Y-2036988D02*
G01X6403864Y-2048418D01*
G01X6415294Y-2065690D01*
G01X6426724Y-2088550D01*
G01X6432566Y-2116998D01*
G01X6432566Y-2139858D01*
G01X6426724Y-2168560D01*
G01X6415294Y-2191420D01*
G01X6403864Y-2208438D01*
G01X6392434Y-2219868D01*
G01X8557929Y-2059848D02*
G01X8557929Y-2179990D01*
G01X8557929Y-2059848D02*
G01X8637939Y-2179990D01*
G01X8637939Y-2059848D02*
G01X8637939Y-2179990D01*
G01X8685691Y-2059848D02*
G01X8685691Y-2179990D01*
G01X8685691Y-2059848D02*
G01X8737253Y-2059848D01*
G01X8754271Y-2065690D01*
G01X8760113Y-2071278D01*
G01X8765701Y-2082708D01*
G01X8765701Y-2099980D01*
G01X8760113Y-2111410D01*
G01X8754271Y-2116998D01*
G01X8737253Y-2122840D01*
G01X8685691Y-2122840D01*
G01X8853585Y-2059848D02*
G01X8853585Y-2179990D01*
G01X8813453Y-2059848D02*
G01X8893463Y-2059848D01*
G01X8941215Y-2059848D02*
G01X8941215Y-2179990D01*
G01X9021225Y-2059848D02*
G01X9021225Y-2179990D01*
G01X8941215Y-2116998D02*
G01X9021225Y-2116998D01*
G01X10019336Y-2059848D02*
G01X10019336Y-2179990D01*
G01X10019336Y-2059848D02*
G01X10070898Y-2059848D01*
G01X10087916Y-2065690D01*
G01X10093758Y-2071278D01*
G01X10099346Y-2082708D01*
G01X10099346Y-2094138D01*
G01X10093758Y-2105568D01*
G01X10087916Y-2111410D01*
G01X10070898Y-2116998D01*
G01X10019336Y-2116998D01*
G01X10059468Y-2116998D02*
G01X10099346Y-2179990D01*
G01X10175800Y-2099980D02*
G01X10164370Y-2105568D01*
G01X10152940Y-2116998D01*
G01X10147098Y-2134270D01*
G01X10147098Y-2145700D01*
G01X10152940Y-2162718D01*
G01X10164370Y-2174148D01*
G01X10175800Y-2179990D01*
G01X10192818Y-2179990D01*
G01X10204248Y-2174148D01*
G01X10215678Y-2162718D01*
G01X10221520Y-2145700D01*
G01X10221520Y-2134270D01*
G01X10215678Y-2116998D01*
G01X10204248Y-2105568D01*
G01X10192818Y-2099980D01*
G01X10175800Y-2099980D01*
G01X10269272Y-2099980D02*
G01X10269272Y-2157130D01*
G01X10275114Y-2174148D01*
G01X10286544Y-2179990D01*
G01X10303562Y-2179990D01*
G01X10314992Y-2174148D01*
G01X10332264Y-2157130D01*
G01X10332264Y-2099980D02*
G01X10332264Y-2179990D01*
G01X10380016Y-2099980D02*
G01X10380016Y-2179990D01*
G01X10380016Y-2122840D02*
G01X10397288Y-2105568D01*
G01X10408718Y-2099980D01*
G01X10425736Y-2099980D01*
G01X10437166Y-2105568D01*
G01X10443008Y-2122840D01*
G01X10443008Y-2179990D01*
G01X10559340Y-2059848D02*
G01X10559340Y-2179990D01*
G01X10559340Y-2116998D02*
G01X10547910Y-2105568D01*
G01X10536480Y-2099980D01*
G01X10519462Y-2099980D01*
G01X10508032Y-2105568D01*
G01X10496602Y-2116998D01*
G01X10490760Y-2134270D01*
G01X10490760Y-2145700D01*
G01X10496602Y-2162718D01*
G01X10508032Y-2174148D01*
G01X10519462Y-2179990D01*
G01X10536480Y-2179990D01*
G01X10547910Y-2174148D01*
G01X10559340Y-2162718D01*
G01X11450517Y-2059848D02*
G01X11496237Y-2179990D01*
G01X11541957Y-2059848D02*
G01X11496237Y-2179990D01*
G01X11589709Y-2059848D02*
G01X11595551Y-2065690D01*
G01X11601139Y-2059848D01*
G01X11595551Y-2054260D01*
G01X11589709Y-2059848D01*
G01X11595551Y-2099980D02*
G01X11595551Y-2179990D01*
G01X11717471Y-2099980D02*
G01X11717471Y-2179990D01*
G01X11717471Y-2116998D02*
G01X11706041Y-2105568D01*
G01X11694611Y-2099980D01*
G01X11677593Y-2099980D01*
G01X11666163Y-2105568D01*
G01X11654733Y-2116998D01*
G01X11648891Y-2134270D01*
G01X11648891Y-2145700D01*
G01X11654733Y-2162718D01*
G01X11666163Y-2174148D01*
G01X11677593Y-2179990D01*
G01X11694611Y-2179990D01*
G01X11706041Y-2174148D01*
G01X11717471Y-2162718D01*
G01X15079197Y-2059848D02*
G01X15079197Y-2179990D01*
G01X15039065Y-2059848D02*
G01X15119075Y-2059848D01*
G01X15195529Y-2099980D02*
G01X15184099Y-2105568D01*
G01X15172669Y-2116998D01*
G01X15166827Y-2134270D01*
G01X15166827Y-2145700D01*
G01X15172669Y-2162718D01*
G01X15184099Y-2174148D01*
G01X15195529Y-2179990D01*
G01X15212547Y-2179990D01*
G01X15223977Y-2174148D01*
G01X15235407Y-2162718D01*
G01X15241249Y-2145700D01*
G01X15241249Y-2134270D01*
G01X15235407Y-2116998D01*
G01X15223977Y-2105568D01*
G01X15212547Y-2099980D01*
G01X15195529Y-2099980D01*
G01X15289001Y-2099980D02*
G01X15289001Y-2219868D01*
G01X15289001Y-2116998D02*
G01X15300431Y-2105568D01*
G01X15311861Y-2099980D01*
G01X15329133Y-2099980D01*
G01X15340563Y-2105568D01*
G01X15351993Y-2116998D01*
G01X15357581Y-2134270D01*
G01X15357581Y-2145700D01*
G01X15351993Y-2162718D01*
G01X15340563Y-2174148D01*
G01X15329133Y-2179990D01*
G01X15311861Y-2179990D01*
G01X15300431Y-2174148D01*
G01X15289001Y-2162718D01*
G01X15533349Y-2059848D02*
G01X15533349Y-2179990D01*
G01X15533349Y-2179990D02*
G01X15601929Y-2179990D01*
G01X15718261Y-2099980D02*
G01X15718261Y-2179990D01*
G01X15718261Y-2116998D02*
G01X15706831Y-2105568D01*
G01X15695401Y-2099980D01*
G01X15678383Y-2099980D01*
G01X15666953Y-2105568D01*
G01X15655523Y-2116998D01*
G01X15649681Y-2134270D01*
G01X15649681Y-2145700D01*
G01X15655523Y-2162718D01*
G01X15666953Y-2174148D01*
G01X15678383Y-2179990D01*
G01X15695401Y-2179990D01*
G01X15706831Y-2174148D01*
G01X15718261Y-2162718D01*
G01X15771855Y-2099980D02*
G01X15806145Y-2179990D01*
G01X15840435Y-2099980D02*
G01X15806145Y-2179990D01*
G01X15794715Y-2202850D01*
G01X15783285Y-2214280D01*
G01X15771855Y-2219868D01*
G01X15766013Y-2219868D01*
G01X15888187Y-2134270D02*
G01X15956767Y-2134270D01*
G01X15956767Y-2122840D01*
G01X15951179Y-2111410D01*
G01X15945337Y-2105568D01*
G01X15933907Y-2099980D01*
G01X15916889Y-2099980D01*
G01X15905459Y-2105568D01*
G01X15894029Y-2116998D01*
G01X15888187Y-2134270D01*
G01X15888187Y-2145700D01*
G01X15894029Y-2162718D01*
G01X15905459Y-2174148D01*
G01X15916889Y-2179990D01*
G01X15933907Y-2179990D01*
G01X15945337Y-2174148D01*
G01X15956767Y-2162718D01*
G01X16004519Y-2099980D02*
G01X16004519Y-2179990D01*
G01X16004519Y-2134270D02*
G01X16010361Y-2116998D01*
G01X16021791Y-2105568D01*
G01X16033221Y-2099980D01*
G01X16050239Y-2099980D01*
G01X16097991Y-2128428D02*
G01X16200861Y-2128428D01*
G01X16248613Y-2059848D02*
G01X16248613Y-2179990D01*
G01X16248613Y-2059848D02*
G01X16300175Y-2059848D01*
G01X16317193Y-2065690D01*
G01X16323035Y-2071278D01*
G01X16328623Y-2082708D01*
G01X16328623Y-2094138D01*
G01X16323035Y-2105568D01*
G01X16317193Y-2111410D01*
G01X16300175Y-2116998D01*
G01X16248613Y-2116998D02*
G01X16300175Y-2116998D01*
G01X16317193Y-2122840D01*
G01X16323035Y-2128428D01*
G01X16328623Y-2139858D01*
G01X16328623Y-2157130D01*
G01X16323035Y-2168560D01*
G01X16317193Y-2174148D01*
G01X16300175Y-2179990D01*
G01X16248613Y-2179990D01*
G01X16405077Y-2099980D02*
G01X16393647Y-2105568D01*
G01X16382217Y-2116998D01*
G01X16376375Y-2134270D01*
G01X16376375Y-2145700D01*
G01X16382217Y-2162718D01*
G01X16393647Y-2174148D01*
G01X16405077Y-2179990D01*
G01X16422095Y-2179990D01*
G01X16433525Y-2174148D01*
G01X16444955Y-2162718D01*
G01X16450797Y-2145700D01*
G01X16450797Y-2134270D01*
G01X16444955Y-2116998D01*
G01X16433525Y-2105568D01*
G01X16422095Y-2099980D01*
G01X16405077Y-2099980D01*
G01X16515821Y-2059848D02*
G01X16515821Y-2157130D01*
G01X16521409Y-2174148D01*
G01X16532839Y-2179990D01*
G01X16544269Y-2179990D01*
G01X16498549Y-2099980D02*
G01X16538681Y-2099980D01*
G01X16609293Y-2059848D02*
G01X16609293Y-2157130D01*
G01X16614881Y-2174148D01*
G01X16626311Y-2179990D01*
G01X16637741Y-2179990D01*
G01X16592021Y-2099980D02*
G01X16632153Y-2099980D01*
G01X16714195Y-2099980D02*
G01X16702765Y-2105568D01*
G01X16691335Y-2116998D01*
G01X16685493Y-2134270D01*
G01X16685493Y-2145700D01*
G01X16691335Y-2162718D01*
G01X16702765Y-2174148D01*
G01X16714195Y-2179990D01*
G01X16731213Y-2179990D01*
G01X16742643Y-2174148D01*
G01X16754073Y-2162718D01*
G01X16759915Y-2145700D01*
G01X16759915Y-2134270D01*
G01X16754073Y-2116998D01*
G01X16742643Y-2105568D01*
G01X16731213Y-2099980D01*
G01X16714195Y-2099980D01*
G01X16807667Y-2099980D02*
G01X16807667Y-2179990D01*
G01X16807667Y-2122840D02*
G01X16824939Y-2105568D01*
G01X16836369Y-2099980D01*
G01X16853387Y-2099980D01*
G01X16864817Y-2105568D01*
G01X16870659Y-2122840D01*
G01X16870659Y-2179990D01*
G01X16870659Y-2122840D02*
G01X16887677Y-2105568D01*
G01X16899107Y-2099980D01*
G01X16916379Y-2099980D01*
G01X16927809Y-2105568D01*
G01X16933397Y-2122840D01*
G01X16933397Y-2179990D01*
G01X17109165Y-2059848D02*
G01X17109165Y-2179990D01*
G01X17109165Y-2179990D02*
G01X17177745Y-2179990D01*
G01X17294077Y-2099980D02*
G01X17294077Y-2179990D01*
G01X17294077Y-2116998D02*
G01X17282647Y-2105568D01*
G01X17271217Y-2099980D01*
G01X17254199Y-2099980D01*
G01X17242769Y-2105568D01*
G01X17231339Y-2116998D01*
G01X17225497Y-2134270D01*
G01X17225497Y-2145700D01*
G01X17231339Y-2162718D01*
G01X17242769Y-2174148D01*
G01X17254199Y-2179990D01*
G01X17271217Y-2179990D01*
G01X17282647Y-2174148D01*
G01X17294077Y-2162718D01*
G01X17347671Y-2099980D02*
G01X17381961Y-2179990D01*
G01X17416251Y-2099980D02*
G01X17381961Y-2179990D01*
G01X17370531Y-2202850D01*
G01X17359101Y-2214280D01*
G01X17347671Y-2219868D01*
G01X17341829Y-2219868D01*
G01X17464003Y-2134270D02*
G01X17532583Y-2134270D01*
G01X17532583Y-2122840D01*
G01X17526995Y-2111410D01*
G01X17521153Y-2105568D01*
G01X17509723Y-2099980D01*
G01X17492705Y-2099980D01*
G01X17481275Y-2105568D01*
G01X17469845Y-2116998D01*
G01X17464003Y-2134270D01*
G01X17464003Y-2145700D01*
G01X17469845Y-2162718D01*
G01X17481275Y-2174148D01*
G01X17492705Y-2179990D01*
G01X17509723Y-2179990D01*
G01X17521153Y-2174148D01*
G01X17532583Y-2162718D01*
G01X17580335Y-2099980D02*
G01X17580335Y-2179990D01*
G01X17580335Y-2134270D02*
G01X17586177Y-2116998D01*
G01X17597607Y-2105568D01*
G01X17609037Y-2099980D01*
G01X17626055Y-2099980D01*
G01X3261485Y-2663280D02*
G01X3272915Y-2657692D01*
G01X3290187Y-2640420D01*
G01X3290187Y-2760562D01*
G01X3372229Y-2640420D02*
G01X3355211Y-2646262D01*
G01X3343781Y-2663280D01*
G01X3337939Y-2691982D01*
G01X3337939Y-2709000D01*
G01X3343781Y-2737702D01*
G01X3355211Y-2754720D01*
G01X3372229Y-2760562D01*
G01X3383659Y-2760562D01*
G01X3400931Y-2754720D01*
G01X3412361Y-2737702D01*
G01X3417949Y-2709000D01*
G01X3417949Y-2691982D01*
G01X3412361Y-2663280D01*
G01X3400931Y-2646262D01*
G01X3383659Y-2640420D01*
G01X3372229Y-2640420D01*
G01X4681490Y-2669122D02*
G01X4681490Y-2663280D01*
G01X4687078Y-2651850D01*
G01X4692920Y-2646262D01*
G01X4704350Y-2640420D01*
G01X4727210Y-2640420D01*
G01X4738640Y-2646262D01*
G01X4744228Y-2651850D01*
G01X4750070Y-2663280D01*
G01X4750070Y-2674710D01*
G01X4744228Y-2686140D01*
G01X4732798Y-2703412D01*
G01X4675648Y-2760562D01*
G01X4755658Y-2760562D01*
G01X4883420Y-2640420D02*
G01X4826270Y-2760562D01*
G01X4803410Y-2640420D02*
G01X4883420Y-2640420D01*
G01X4937014Y-2731860D02*
G01X4931172Y-2737702D01*
G01X4937014Y-2743290D01*
G01X4942602Y-2737702D01*
G01X4937014Y-2731860D01*
G01X5058934Y-2657692D02*
G01X5053346Y-2646262D01*
G01X5036074Y-2640420D01*
G01X5024644Y-2640420D01*
G01X5007626Y-2646262D01*
G01X4996196Y-2663280D01*
G01X4990354Y-2691982D01*
G01X4990354Y-2720430D01*
G01X4996196Y-2743290D01*
G01X5007626Y-2754720D01*
G01X5024644Y-2760562D01*
G01X5030486Y-2760562D01*
G01X5047504Y-2754720D01*
G01X5058934Y-2743290D01*
G01X5064776Y-2726272D01*
G01X5064776Y-2720430D01*
G01X5058934Y-2703412D01*
G01X5047504Y-2691982D01*
G01X5030486Y-2686140D01*
G01X5024644Y-2686140D01*
G01X5007626Y-2691982D01*
G01X4996196Y-2703412D01*
G01X4990354Y-2720430D01*
G01X5112528Y-2680552D02*
G01X5175520Y-2760562D01*
G01X5175520Y-2680552D02*
G01X5112528Y-2760562D01*
G01X5229114Y-2669122D02*
G01X5229114Y-2663280D01*
G01X5234702Y-2651850D01*
G01X5240544Y-2646262D01*
G01X5251974Y-2640420D01*
G01X5274834Y-2640420D01*
G01X5286264Y-2646262D01*
G01X5291852Y-2651850D01*
G01X5297694Y-2663280D01*
G01X5297694Y-2674710D01*
G01X5291852Y-2686140D01*
G01X5280422Y-2703412D01*
G01X5223272Y-2760562D01*
G01X5303282Y-2760562D01*
G01X5431044Y-2640420D02*
G01X5373894Y-2760562D01*
G01X5351034Y-2640420D02*
G01X5431044Y-2640420D01*
G01X5484638Y-2731860D02*
G01X5478796Y-2737702D01*
G01X5484638Y-2743290D01*
G01X5490226Y-2737702D01*
G01X5484638Y-2731860D01*
G01X5606558Y-2657692D02*
G01X5600970Y-2646262D01*
G01X5583698Y-2640420D01*
G01X5572268Y-2640420D01*
G01X5555250Y-2646262D01*
G01X5543820Y-2663280D01*
G01X5537978Y-2691982D01*
G01X5537978Y-2720430D01*
G01X5543820Y-2743290D01*
G01X5555250Y-2754720D01*
G01X5572268Y-2760562D01*
G01X5578110Y-2760562D01*
G01X5595128Y-2754720D01*
G01X5606558Y-2743290D01*
G01X5612400Y-2726272D01*
G01X5612400Y-2720430D01*
G01X5606558Y-2703412D01*
G01X5595128Y-2691982D01*
G01X5578110Y-2686140D01*
G01X5572268Y-2686140D01*
G01X5555250Y-2691982D01*
G01X5543820Y-2703412D01*
G01X5537978Y-2720430D01*
G01X5660152Y-2680552D02*
G01X5660152Y-2760562D01*
G01X5660152Y-2703412D02*
G01X5677424Y-2686140D01*
G01X5688854Y-2680552D01*
G01X5705872Y-2680552D01*
G01X5717302Y-2686140D01*
G01X5723144Y-2703412D01*
G01X5723144Y-2760562D01*
G01X5723144Y-2703412D02*
G01X5740162Y-2686140D01*
G01X5751592Y-2680552D01*
G01X5768864Y-2680552D01*
G01X5780294Y-2686140D01*
G01X5785882Y-2703412D01*
G01X5785882Y-2760562D01*
G01X5833634Y-2640420D02*
G01X5839476Y-2646262D01*
G01X5845064Y-2640420D01*
G01X5839476Y-2634832D01*
G01X5833634Y-2640420D01*
G01X5839476Y-2680552D02*
G01X5839476Y-2760562D01*
G01X5892816Y-2640420D02*
G01X5892816Y-2760562D01*
G01X5980700Y-2617560D02*
G01X5969270Y-2628990D01*
G01X5957840Y-2646262D01*
G01X5946410Y-2669122D01*
G01X5940568Y-2697570D01*
G01X5940568Y-2720430D01*
G01X5946410Y-2749132D01*
G01X5957840Y-2771992D01*
G01X5969270Y-2789010D01*
G01X5980700Y-2800440D01*
G01X6062742Y-2640420D02*
G01X6045724Y-2646262D01*
G01X6034294Y-2663280D01*
G01X6028452Y-2691982D01*
G01X6028452Y-2709000D01*
G01X6034294Y-2737702D01*
G01X6045724Y-2754720D01*
G01X6062742Y-2760562D01*
G01X6074172Y-2760562D01*
G01X6091444Y-2754720D01*
G01X6102874Y-2737702D01*
G01X6108462Y-2709000D01*
G01X6108462Y-2691982D01*
G01X6102874Y-2663280D01*
G01X6091444Y-2646262D01*
G01X6074172Y-2640420D01*
G01X6062742Y-2640420D01*
G01X6162056Y-2731860D02*
G01X6156214Y-2737702D01*
G01X6162056Y-2743290D01*
G01X6167644Y-2737702D01*
G01X6162056Y-2731860D01*
G01X6295406Y-2640420D02*
G01X6238256Y-2760562D01*
G01X6215396Y-2640420D02*
G01X6295406Y-2640420D01*
G01X6377448Y-2640420D02*
G01X6360430Y-2646262D01*
G01X6349000Y-2663280D01*
G01X6343158Y-2691982D01*
G01X6343158Y-2709000D01*
G01X6349000Y-2737702D01*
G01X6360430Y-2754720D01*
G01X6377448Y-2760562D01*
G01X6388878Y-2760562D01*
G01X6406150Y-2754720D01*
G01X6417580Y-2737702D01*
G01X6423168Y-2709000D01*
G01X6423168Y-2691982D01*
G01X6417580Y-2663280D01*
G01X6406150Y-2646262D01*
G01X6388878Y-2640420D01*
G01X6377448Y-2640420D01*
G01X6505210Y-2640420D02*
G01X6488192Y-2646262D01*
G01X6476762Y-2663280D01*
G01X6470920Y-2691982D01*
G01X6470920Y-2709000D01*
G01X6476762Y-2737702D01*
G01X6488192Y-2754720D01*
G01X6505210Y-2760562D01*
G01X6516640Y-2760562D01*
G01X6533912Y-2754720D01*
G01X6545342Y-2737702D01*
G01X6550930Y-2709000D01*
G01X6550930Y-2691982D01*
G01X6545342Y-2663280D01*
G01X6533912Y-2646262D01*
G01X6516640Y-2640420D01*
G01X6505210Y-2640420D01*
G01X6598682Y-2680552D02*
G01X6661674Y-2760562D01*
G01X6661674Y-2680552D02*
G01X6598682Y-2760562D01*
G01X6743716Y-2640420D02*
G01X6726698Y-2646262D01*
G01X6715268Y-2663280D01*
G01X6709426Y-2691982D01*
G01X6709426Y-2709000D01*
G01X6715268Y-2737702D01*
G01X6726698Y-2754720D01*
G01X6743716Y-2760562D01*
G01X6755146Y-2760562D01*
G01X6772418Y-2754720D01*
G01X6783848Y-2737702D01*
G01X6789436Y-2709000D01*
G01X6789436Y-2691982D01*
G01X6783848Y-2663280D01*
G01X6772418Y-2646262D01*
G01X6755146Y-2640420D01*
G01X6743716Y-2640420D01*
G01X6843030Y-2731860D02*
G01X6837188Y-2737702D01*
G01X6843030Y-2743290D01*
G01X6848618Y-2737702D01*
G01X6843030Y-2731860D01*
G01X6976380Y-2640420D02*
G01X6919230Y-2760562D01*
G01X6896370Y-2640420D02*
G01X6976380Y-2640420D01*
G01X7058422Y-2640420D02*
G01X7041404Y-2646262D01*
G01X7029974Y-2663280D01*
G01X7024132Y-2691982D01*
G01X7024132Y-2709000D01*
G01X7029974Y-2737702D01*
G01X7041404Y-2754720D01*
G01X7058422Y-2760562D01*
G01X7069852Y-2760562D01*
G01X7087124Y-2754720D01*
G01X7098554Y-2737702D01*
G01X7104142Y-2709000D01*
G01X7104142Y-2691982D01*
G01X7098554Y-2663280D01*
G01X7087124Y-2646262D01*
G01X7069852Y-2640420D01*
G01X7058422Y-2640420D01*
G01X7186184Y-2640420D02*
G01X7169166Y-2646262D01*
G01X7157736Y-2663280D01*
G01X7151894Y-2691982D01*
G01X7151894Y-2709000D01*
G01X7157736Y-2737702D01*
G01X7169166Y-2754720D01*
G01X7186184Y-2760562D01*
G01X7197614Y-2760562D01*
G01X7214886Y-2754720D01*
G01X7226316Y-2737702D01*
G01X7231904Y-2709000D01*
G01X7231904Y-2691982D01*
G01X7226316Y-2663280D01*
G01X7214886Y-2646262D01*
G01X7197614Y-2640420D01*
G01X7186184Y-2640420D01*
G01X7279656Y-2680552D02*
G01X7279656Y-2760562D01*
G01X7279656Y-2703412D02*
G01X7296928Y-2686140D01*
G01X7308358Y-2680552D01*
G01X7325376Y-2680552D01*
G01X7336806Y-2686140D01*
G01X7342648Y-2703412D01*
G01X7342648Y-2760562D01*
G01X7342648Y-2703412D02*
G01X7359666Y-2686140D01*
G01X7371096Y-2680552D01*
G01X7388368Y-2680552D01*
G01X7399798Y-2686140D01*
G01X7405386Y-2703412D01*
G01X7405386Y-2760562D01*
G01X7453138Y-2680552D02*
G01X7453138Y-2760562D01*
G01X7453138Y-2703412D02*
G01X7470410Y-2686140D01*
G01X7481840Y-2680552D01*
G01X7498858Y-2680552D01*
G01X7510288Y-2686140D01*
G01X7516130Y-2703412D01*
G01X7516130Y-2760562D01*
G01X7516130Y-2703412D02*
G01X7533148Y-2686140D01*
G01X7544578Y-2680552D01*
G01X7561850Y-2680552D01*
G01X7573280Y-2686140D01*
G01X7578868Y-2703412D01*
G01X7578868Y-2760562D01*
G01X7626620Y-2617560D02*
G01X7638050Y-2628990D01*
G01X7649480Y-2646262D01*
G01X7660910Y-2669122D01*
G01X7666752Y-2697570D01*
G01X7666752Y-2720430D01*
G01X7660910Y-2749132D01*
G01X7649480Y-2771992D01*
G01X7638050Y-2789010D01*
G01X7626620Y-2800440D01*
G01X8557929Y-2640420D02*
G01X8557929Y-2760562D01*
G01X8557929Y-2640420D02*
G01X8609491Y-2640420D01*
G01X8626509Y-2646262D01*
G01X8632351Y-2651850D01*
G01X8637939Y-2663280D01*
G01X8637939Y-2680552D01*
G01X8632351Y-2691982D01*
G01X8626509Y-2697570D01*
G01X8609491Y-2703412D01*
G01X8557929Y-2703412D01*
G01X8725823Y-2640420D02*
G01X8725823Y-2760562D01*
G01X8685691Y-2640420D02*
G01X8765701Y-2640420D01*
G01X8813453Y-2640420D02*
G01X8813453Y-2760562D01*
G01X8893463Y-2640420D02*
G01X8893463Y-2760562D01*
G01X8813453Y-2697570D02*
G01X8893463Y-2697570D01*
G01X10099346Y-2657692D02*
G01X10087916Y-2646262D01*
G01X10070898Y-2640420D01*
G01X10048038Y-2640420D01*
G01X10030766Y-2646262D01*
G01X10019336Y-2657692D01*
G01X10019336Y-2669122D01*
G01X10025178Y-2680552D01*
G01X10030766Y-2686140D01*
G01X10042196Y-2691982D01*
G01X10076486Y-2703412D01*
G01X10087916Y-2709000D01*
G01X10093758Y-2714842D01*
G01X10099346Y-2726272D01*
G01X10099346Y-2743290D01*
G01X10087916Y-2754720D01*
G01X10070898Y-2760562D01*
G01X10048038Y-2760562D01*
G01X10030766Y-2754720D01*
G01X10019336Y-2743290D01*
G01X10147098Y-2640420D02*
G01X10147098Y-2760562D01*
G01X10223552Y-2680552D02*
G01X10212122Y-2686140D01*
G01X10200692Y-2697570D01*
G01X10194850Y-2714842D01*
G01X10194850Y-2726272D01*
G01X10200692Y-2743290D01*
G01X10212122Y-2754720D01*
G01X10223552Y-2760562D01*
G01X10240570Y-2760562D01*
G01X10252000Y-2754720D01*
G01X10263430Y-2743290D01*
G01X10269272Y-2726272D01*
G01X10269272Y-2714842D01*
G01X10263430Y-2697570D01*
G01X10252000Y-2686140D01*
G01X10240570Y-2680552D01*
G01X10223552Y-2680552D01*
G01X10334296Y-2640420D02*
G01X10334296Y-2737702D01*
G01X10339884Y-2754720D01*
G01X10351314Y-2760562D01*
G01X10362744Y-2760562D01*
G01X10317024Y-2680552D02*
G01X10357156Y-2680552D01*
G01X11450517Y-2640420D02*
G01X11450517Y-2760562D01*
G01X11450517Y-2640420D02*
G01X11502079Y-2640420D01*
G01X11519097Y-2646262D01*
G01X11524939Y-2651850D01*
G01X11530527Y-2663280D01*
G01X11530527Y-2680552D01*
G01X11524939Y-2691982D01*
G01X11519097Y-2697570D01*
G01X11502079Y-2703412D01*
G01X11450517Y-2703412D01*
G01X11646859Y-2680552D02*
G01X11646859Y-2760562D01*
G01X11646859Y-2697570D02*
G01X11635429Y-2686140D01*
G01X11623999Y-2680552D01*
G01X11606981Y-2680552D01*
G01X11595551Y-2686140D01*
G01X11584121Y-2697570D01*
G01X11578279Y-2714842D01*
G01X11578279Y-2726272D01*
G01X11584121Y-2743290D01*
G01X11595551Y-2754720D01*
G01X11606981Y-2760562D01*
G01X11623999Y-2760562D01*
G01X11635429Y-2754720D01*
G01X11646859Y-2743290D01*
G01X11763191Y-2640420D02*
G01X11763191Y-2760562D01*
G01X11763191Y-2697570D02*
G01X11751761Y-2686140D01*
G01X11740331Y-2680552D01*
G01X11723313Y-2680552D01*
G01X11711883Y-2686140D01*
G01X11700453Y-2697570D01*
G01X11694611Y-2714842D01*
G01X11694611Y-2726272D01*
G01X11700453Y-2743290D01*
G01X11711883Y-2754720D01*
G01X11723313Y-2760562D01*
G01X11740331Y-2760562D01*
G01X11751761Y-2754720D01*
G01X11763191Y-2743290D01*
G01X13119696Y-2640420D02*
G01X13119696Y-2760562D01*
G01X13119696Y-2640420D02*
G01X13171258Y-2640420D01*
G01X13188276Y-2646262D01*
G01X13194118Y-2651850D01*
G01X13199706Y-2663280D01*
G01X13199706Y-2674710D01*
G01X13194118Y-2686140D01*
G01X13188276Y-2691982D01*
G01X13171258Y-2697570D01*
G01X13119696Y-2697570D01*
G01X13159828Y-2697570D02*
G01X13199706Y-2760562D01*
G01X13247458Y-2714842D02*
G01X13316038Y-2714842D01*
G01X13316038Y-2703412D01*
G01X13310450Y-2691982D01*
G01X13304608Y-2686140D01*
G01X13293178Y-2680552D01*
G01X13276160Y-2680552D01*
G01X13264730Y-2686140D01*
G01X13253300Y-2697570D01*
G01X13247458Y-2714842D01*
G01X13247458Y-2726272D01*
G01X13253300Y-2743290D01*
G01X13264730Y-2754720D01*
G01X13276160Y-2760562D01*
G01X13293178Y-2760562D01*
G01X13304608Y-2754720D01*
G01X13316038Y-2743290D01*
G01X13432370Y-2697570D02*
G01X13420940Y-2686140D01*
G01X13409510Y-2680552D01*
G01X13392492Y-2680552D01*
G01X13381062Y-2686140D01*
G01X13369632Y-2697570D01*
G01X13363790Y-2714842D01*
G01X13363790Y-2726272D01*
G01X13369632Y-2743290D01*
G01X13381062Y-2754720D01*
G01X13392492Y-2760562D01*
G01X13409510Y-2760562D01*
G01X13420940Y-2754720D01*
G01X13432370Y-2743290D01*
G01X13497394Y-2640420D02*
G01X13497394Y-2737702D01*
G01X13502982Y-2754720D01*
G01X13514412Y-2760562D01*
G01X13525842Y-2760562D01*
G01X13480122Y-2680552D02*
G01X13520254Y-2680552D01*
G01X13642174Y-2680552D02*
G01X13642174Y-2760562D01*
G01X13642174Y-2697570D02*
G01X13630744Y-2686140D01*
G01X13619314Y-2680552D01*
G01X13602296Y-2680552D01*
G01X13590866Y-2686140D01*
G01X13579436Y-2697570D01*
G01X13573594Y-2714842D01*
G01X13573594Y-2726272D01*
G01X13579436Y-2743290D01*
G01X13590866Y-2754720D01*
G01X13602296Y-2760562D01*
G01X13619314Y-2760562D01*
G01X13630744Y-2754720D01*
G01X13642174Y-2743290D01*
G01X13689926Y-2680552D02*
G01X13689926Y-2760562D01*
G01X13689926Y-2703412D02*
G01X13707198Y-2686140D01*
G01X13718628Y-2680552D01*
G01X13735646Y-2680552D01*
G01X13747076Y-2686140D01*
G01X13752918Y-2703412D01*
G01X13752918Y-2760562D01*
G01X13869250Y-2680552D02*
G01X13869250Y-2771992D01*
G01X13863662Y-2789010D01*
G01X13857820Y-2794852D01*
G01X13846390Y-2800440D01*
G01X13829372Y-2800440D01*
G01X13817942Y-2794852D01*
G01X13869250Y-2697570D02*
G01X13857820Y-2686140D01*
G01X13846390Y-2680552D01*
G01X13829372Y-2680552D01*
G01X13817942Y-2686140D01*
G01X13806512Y-2697570D01*
G01X13800670Y-2714842D01*
G01X13800670Y-2726272D01*
G01X13806512Y-2743290D01*
G01X13817942Y-2754720D01*
G01X13829372Y-2760562D01*
G01X13846390Y-2760562D01*
G01X13857820Y-2754720D01*
G01X13869250Y-2743290D01*
G01X13917002Y-2640420D02*
G01X13917002Y-2760562D01*
G01X13964754Y-2714842D02*
G01X14033334Y-2714842D01*
G01X14033334Y-2703412D01*
G01X14027746Y-2691982D01*
G01X14021904Y-2686140D01*
G01X14010474Y-2680552D01*
G01X13993456Y-2680552D01*
G01X13982026Y-2686140D01*
G01X13970596Y-2697570D01*
G01X13964754Y-2714842D01*
G01X13964754Y-2726272D01*
G01X13970596Y-2743290D01*
G01X13982026Y-2754720D01*
G01X13993456Y-2760562D01*
G01X14010474Y-2760562D01*
G01X14021904Y-2754720D01*
G01X14033334Y-2743290D01*
G01X15079197Y-2640420D02*
G01X15079197Y-2760562D01*
G01X15039065Y-2640420D02*
G01X15119075Y-2640420D01*
G01X15195529Y-2680552D02*
G01X15184099Y-2686140D01*
G01X15172669Y-2697570D01*
G01X15166827Y-2714842D01*
G01X15166827Y-2726272D01*
G01X15172669Y-2743290D01*
G01X15184099Y-2754720D01*
G01X15195529Y-2760562D01*
G01X15212547Y-2760562D01*
G01X15223977Y-2754720D01*
G01X15235407Y-2743290D01*
G01X15241249Y-2726272D01*
G01X15241249Y-2714842D01*
G01X15235407Y-2697570D01*
G01X15223977Y-2686140D01*
G01X15212547Y-2680552D01*
G01X15195529Y-2680552D01*
G01X15289001Y-2680552D02*
G01X15289001Y-2800440D01*
G01X15289001Y-2697570D02*
G01X15300431Y-2686140D01*
G01X15311861Y-2680552D01*
G01X15329133Y-2680552D01*
G01X15340563Y-2686140D01*
G01X15351993Y-2697570D01*
G01X15357581Y-2714842D01*
G01X15357581Y-2726272D01*
G01X15351993Y-2743290D01*
G01X15340563Y-2754720D01*
G01X15329133Y-2760562D01*
G01X15311861Y-2760562D01*
G01X15300431Y-2754720D01*
G01X15289001Y-2743290D01*
G01X15533349Y-2640420D02*
G01X15533349Y-2760562D01*
G01X15533349Y-2760562D02*
G01X15601929Y-2760562D01*
G01X15718261Y-2680552D02*
G01X15718261Y-2760562D01*
G01X15718261Y-2697570D02*
G01X15706831Y-2686140D01*
G01X15695401Y-2680552D01*
G01X15678383Y-2680552D01*
G01X15666953Y-2686140D01*
G01X15655523Y-2697570D01*
G01X15649681Y-2714842D01*
G01X15649681Y-2726272D01*
G01X15655523Y-2743290D01*
G01X15666953Y-2754720D01*
G01X15678383Y-2760562D01*
G01X15695401Y-2760562D01*
G01X15706831Y-2754720D01*
G01X15718261Y-2743290D01*
G01X15771855Y-2680552D02*
G01X15806145Y-2760562D01*
G01X15840435Y-2680552D02*
G01X15806145Y-2760562D01*
G01X15794715Y-2783422D01*
G01X15783285Y-2794852D01*
G01X15771855Y-2800440D01*
G01X15766013Y-2800440D01*
G01X15888187Y-2714842D02*
G01X15956767Y-2714842D01*
G01X15956767Y-2703412D01*
G01X15951179Y-2691982D01*
G01X15945337Y-2686140D01*
G01X15933907Y-2680552D01*
G01X15916889Y-2680552D01*
G01X15905459Y-2686140D01*
G01X15894029Y-2697570D01*
G01X15888187Y-2714842D01*
G01X15888187Y-2726272D01*
G01X15894029Y-2743290D01*
G01X15905459Y-2754720D01*
G01X15916889Y-2760562D01*
G01X15933907Y-2760562D01*
G01X15945337Y-2754720D01*
G01X15956767Y-2743290D01*
G01X16004519Y-2680552D02*
G01X16004519Y-2760562D01*
G01X16004519Y-2714842D02*
G01X16010361Y-2697570D01*
G01X16021791Y-2686140D01*
G01X16033221Y-2680552D01*
G01X16050239Y-2680552D01*
G01X16097991Y-2709000D02*
G01X16200861Y-2709000D01*
G01X16248613Y-2640420D02*
G01X16248613Y-2760562D01*
G01X16248613Y-2640420D02*
G01X16300175Y-2640420D01*
G01X16317193Y-2646262D01*
G01X16323035Y-2651850D01*
G01X16328623Y-2663280D01*
G01X16328623Y-2674710D01*
G01X16323035Y-2686140D01*
G01X16317193Y-2691982D01*
G01X16300175Y-2697570D01*
G01X16248613Y-2697570D02*
G01X16300175Y-2697570D01*
G01X16317193Y-2703412D01*
G01X16323035Y-2709000D01*
G01X16328623Y-2720430D01*
G01X16328623Y-2737702D01*
G01X16323035Y-2749132D01*
G01X16317193Y-2754720D01*
G01X16300175Y-2760562D01*
G01X16248613Y-2760562D01*
G01X16405077Y-2680552D02*
G01X16393647Y-2686140D01*
G01X16382217Y-2697570D01*
G01X16376375Y-2714842D01*
G01X16376375Y-2726272D01*
G01X16382217Y-2743290D01*
G01X16393647Y-2754720D01*
G01X16405077Y-2760562D01*
G01X16422095Y-2760562D01*
G01X16433525Y-2754720D01*
G01X16444955Y-2743290D01*
G01X16450797Y-2726272D01*
G01X16450797Y-2714842D01*
G01X16444955Y-2697570D01*
G01X16433525Y-2686140D01*
G01X16422095Y-2680552D01*
G01X16405077Y-2680552D01*
G01X16515821Y-2640420D02*
G01X16515821Y-2737702D01*
G01X16521409Y-2754720D01*
G01X16532839Y-2760562D01*
G01X16544269Y-2760562D01*
G01X16498549Y-2680552D02*
G01X16538681Y-2680552D01*
G01X16609293Y-2640420D02*
G01X16609293Y-2737702D01*
G01X16614881Y-2754720D01*
G01X16626311Y-2760562D01*
G01X16637741Y-2760562D01*
G01X16592021Y-2680552D02*
G01X16632153Y-2680552D01*
G01X16714195Y-2680552D02*
G01X16702765Y-2686140D01*
G01X16691335Y-2697570D01*
G01X16685493Y-2714842D01*
G01X16685493Y-2726272D01*
G01X16691335Y-2743290D01*
G01X16702765Y-2754720D01*
G01X16714195Y-2760562D01*
G01X16731213Y-2760562D01*
G01X16742643Y-2754720D01*
G01X16754073Y-2743290D01*
G01X16759915Y-2726272D01*
G01X16759915Y-2714842D01*
G01X16754073Y-2697570D01*
G01X16742643Y-2686140D01*
G01X16731213Y-2680552D01*
G01X16714195Y-2680552D01*
G01X16807667Y-2680552D02*
G01X16807667Y-2760562D01*
G01X16807667Y-2703412D02*
G01X16824939Y-2686140D01*
G01X16836369Y-2680552D01*
G01X16853387Y-2680552D01*
G01X16864817Y-2686140D01*
G01X16870659Y-2703412D01*
G01X16870659Y-2760562D01*
G01X16870659Y-2703412D02*
G01X16887677Y-2686140D01*
G01X16899107Y-2680552D01*
G01X16916379Y-2680552D01*
G01X16927809Y-2686140D01*
G01X16933397Y-2703412D01*
G01X16933397Y-2760562D01*
G01X17109165Y-2640420D02*
G01X17109165Y-2760562D01*
G01X17109165Y-2760562D02*
G01X17177745Y-2760562D01*
G01X17294077Y-2680552D02*
G01X17294077Y-2760562D01*
G01X17294077Y-2697570D02*
G01X17282647Y-2686140D01*
G01X17271217Y-2680552D01*
G01X17254199Y-2680552D01*
G01X17242769Y-2686140D01*
G01X17231339Y-2697570D01*
G01X17225497Y-2714842D01*
G01X17225497Y-2726272D01*
G01X17231339Y-2743290D01*
G01X17242769Y-2754720D01*
G01X17254199Y-2760562D01*
G01X17271217Y-2760562D01*
G01X17282647Y-2754720D01*
G01X17294077Y-2743290D01*
G01X17347671Y-2680552D02*
G01X17381961Y-2760562D01*
G01X17416251Y-2680552D02*
G01X17381961Y-2760562D01*
G01X17370531Y-2783422D01*
G01X17359101Y-2794852D01*
G01X17347671Y-2800440D01*
G01X17341829Y-2800440D01*
G01X17464003Y-2714842D02*
G01X17532583Y-2714842D01*
G01X17532583Y-2703412D01*
G01X17526995Y-2691982D01*
G01X17521153Y-2686140D01*
G01X17509723Y-2680552D01*
G01X17492705Y-2680552D01*
G01X17481275Y-2686140D01*
G01X17469845Y-2697570D01*
G01X17464003Y-2714842D01*
G01X17464003Y-2726272D01*
G01X17469845Y-2743290D01*
G01X17481275Y-2754720D01*
G01X17492705Y-2760562D01*
G01X17509723Y-2760562D01*
G01X17521153Y-2754720D01*
G01X17532583Y-2743290D01*
G01X17580335Y-2680552D02*
G01X17580335Y-2760562D01*
G01X17580335Y-2714842D02*
G01X17586177Y-2697570D01*
G01X17597607Y-2686140D01*
G01X17609037Y-2680552D01*
G01X17626055Y-2680552D01*
G01X3267327Y-3249693D02*
G01X3267327Y-3243851D01*
G01X3272915Y-3232421D01*
G01X3278757Y-3226833D01*
G01X3290187Y-3220991D01*
G01X3313047Y-3220991D01*
G01X3324477Y-3226833D01*
G01X3330065Y-3232421D01*
G01X3335907Y-3243851D01*
G01X3335907Y-3255281D01*
G01X3330065Y-3266711D01*
G01X3318635Y-3283983D01*
G01X3261485Y-3341133D01*
G01X3341495Y-3341133D01*
G01X3423537Y-3220991D02*
G01X3406519Y-3226833D01*
G01X3395089Y-3243851D01*
G01X3389247Y-3272553D01*
G01X3389247Y-3289571D01*
G01X3395089Y-3318273D01*
G01X3406519Y-3335291D01*
G01X3423537Y-3341133D01*
G01X3434967Y-3341133D01*
G01X3452239Y-3335291D01*
G01X3463669Y-3318273D01*
G01X3469257Y-3289571D01*
G01X3469257Y-3272553D01*
G01X3463669Y-3243851D01*
G01X3452239Y-3226833D01*
G01X3434967Y-3220991D01*
G01X3423537Y-3220991D01*
G01X4681490Y-3249693D02*
G01X4681490Y-3243851D01*
G01X4687078Y-3232421D01*
G01X4692920Y-3226833D01*
G01X4704350Y-3220991D01*
G01X4727210Y-3220991D01*
G01X4738640Y-3226833D01*
G01X4744228Y-3232421D01*
G01X4750070Y-3243851D01*
G01X4750070Y-3255281D01*
G01X4744228Y-3266711D01*
G01X4732798Y-3283983D01*
G01X4675648Y-3341133D01*
G01X4755658Y-3341133D01*
G01X4814840Y-3220991D02*
G01X4877832Y-3220991D01*
G01X4843542Y-3266711D01*
G01X4860560Y-3266711D01*
G01X4871990Y-3272553D01*
G01X4877832Y-3278141D01*
G01X4883420Y-3295413D01*
G01X4883420Y-3306843D01*
G01X4877832Y-3323861D01*
G01X4866402Y-3335291D01*
G01X4849130Y-3341133D01*
G01X4832112Y-3341133D01*
G01X4814840Y-3335291D01*
G01X4809252Y-3329703D01*
G01X4803410Y-3318273D01*
G01X4937014Y-3312431D02*
G01X4931172Y-3318273D01*
G01X4937014Y-3323861D01*
G01X4942602Y-3318273D01*
G01X4937014Y-3312431D01*
G01X5058934Y-3238263D02*
G01X5053346Y-3226833D01*
G01X5036074Y-3220991D01*
G01X5024644Y-3220991D01*
G01X5007626Y-3226833D01*
G01X4996196Y-3243851D01*
G01X4990354Y-3272553D01*
G01X4990354Y-3301001D01*
G01X4996196Y-3323861D01*
G01X5007626Y-3335291D01*
G01X5024644Y-3341133D01*
G01X5030486Y-3341133D01*
G01X5047504Y-3335291D01*
G01X5058934Y-3323861D01*
G01X5064776Y-3306843D01*
G01X5064776Y-3301001D01*
G01X5058934Y-3283983D01*
G01X5047504Y-3272553D01*
G01X5030486Y-3266711D01*
G01X5024644Y-3266711D01*
G01X5007626Y-3272553D01*
G01X4996196Y-3283983D01*
G01X4990354Y-3301001D01*
G01X5112528Y-3261123D02*
G01X5175520Y-3341133D01*
G01X5175520Y-3261123D02*
G01X5112528Y-3341133D01*
G01X5229114Y-3249693D02*
G01X5229114Y-3243851D01*
G01X5234702Y-3232421D01*
G01X5240544Y-3226833D01*
G01X5251974Y-3220991D01*
G01X5274834Y-3220991D01*
G01X5286264Y-3226833D01*
G01X5291852Y-3232421D01*
G01X5297694Y-3243851D01*
G01X5297694Y-3255281D01*
G01X5291852Y-3266711D01*
G01X5280422Y-3283983D01*
G01X5223272Y-3341133D01*
G01X5303282Y-3341133D01*
G01X5362464Y-3220991D02*
G01X5425456Y-3220991D01*
G01X5391166Y-3266711D01*
G01X5408184Y-3266711D01*
G01X5419614Y-3272553D01*
G01X5425456Y-3278141D01*
G01X5431044Y-3295413D01*
G01X5431044Y-3306843D01*
G01X5425456Y-3323861D01*
G01X5414026Y-3335291D01*
G01X5396754Y-3341133D01*
G01X5379736Y-3341133D01*
G01X5362464Y-3335291D01*
G01X5356876Y-3329703D01*
G01X5351034Y-3318273D01*
G01X5484638Y-3312431D02*
G01X5478796Y-3318273D01*
G01X5484638Y-3323861D01*
G01X5490226Y-3318273D01*
G01X5484638Y-3312431D01*
G01X5606558Y-3238263D02*
G01X5600970Y-3226833D01*
G01X5583698Y-3220991D01*
G01X5572268Y-3220991D01*
G01X5555250Y-3226833D01*
G01X5543820Y-3243851D01*
G01X5537978Y-3272553D01*
G01X5537978Y-3301001D01*
G01X5543820Y-3323861D01*
G01X5555250Y-3335291D01*
G01X5572268Y-3341133D01*
G01X5578110Y-3341133D01*
G01X5595128Y-3335291D01*
G01X5606558Y-3323861D01*
G01X5612400Y-3306843D01*
G01X5612400Y-3301001D01*
G01X5606558Y-3283983D01*
G01X5595128Y-3272553D01*
G01X5578110Y-3266711D01*
G01X5572268Y-3266711D01*
G01X5555250Y-3272553D01*
G01X5543820Y-3283983D01*
G01X5537978Y-3301001D01*
G01X5660152Y-3261123D02*
G01X5660152Y-3341133D01*
G01X5660152Y-3283983D02*
G01X5677424Y-3266711D01*
G01X5688854Y-3261123D01*
G01X5705872Y-3261123D01*
G01X5717302Y-3266711D01*
G01X5723144Y-3283983D01*
G01X5723144Y-3341133D01*
G01X5723144Y-3283983D02*
G01X5740162Y-3266711D01*
G01X5751592Y-3261123D01*
G01X5768864Y-3261123D01*
G01X5780294Y-3266711D01*
G01X5785882Y-3283983D01*
G01X5785882Y-3341133D01*
G01X5833634Y-3220991D02*
G01X5839476Y-3226833D01*
G01X5845064Y-3220991D01*
G01X5839476Y-3215403D01*
G01X5833634Y-3220991D01*
G01X5839476Y-3261123D02*
G01X5839476Y-3341133D01*
G01X5892816Y-3220991D02*
G01X5892816Y-3341133D01*
G01X5980700Y-3198131D02*
G01X5969270Y-3209561D01*
G01X5957840Y-3226833D01*
G01X5946410Y-3249693D01*
G01X5940568Y-3278141D01*
G01X5940568Y-3301001D01*
G01X5946410Y-3329703D01*
G01X5957840Y-3352563D01*
G01X5969270Y-3369581D01*
G01X5980700Y-3381011D01*
G01X6062742Y-3220991D02*
G01X6045724Y-3226833D01*
G01X6034294Y-3243851D01*
G01X6028452Y-3272553D01*
G01X6028452Y-3289571D01*
G01X6034294Y-3318273D01*
G01X6045724Y-3335291D01*
G01X6062742Y-3341133D01*
G01X6074172Y-3341133D01*
G01X6091444Y-3335291D01*
G01X6102874Y-3318273D01*
G01X6108462Y-3289571D01*
G01X6108462Y-3272553D01*
G01X6102874Y-3243851D01*
G01X6091444Y-3226833D01*
G01X6074172Y-3220991D01*
G01X6062742Y-3220991D01*
G01X6162056Y-3312431D02*
G01X6156214Y-3318273D01*
G01X6162056Y-3323861D01*
G01X6167644Y-3318273D01*
G01X6162056Y-3312431D01*
G01X6283976Y-3238263D02*
G01X6278388Y-3226833D01*
G01X6261116Y-3220991D01*
G01X6249686Y-3220991D01*
G01X6232668Y-3226833D01*
G01X6221238Y-3243851D01*
G01X6215396Y-3272553D01*
G01X6215396Y-3301001D01*
G01X6221238Y-3323861D01*
G01X6232668Y-3335291D01*
G01X6249686Y-3341133D01*
G01X6255528Y-3341133D01*
G01X6272546Y-3335291D01*
G01X6283976Y-3323861D01*
G01X6289818Y-3306843D01*
G01X6289818Y-3301001D01*
G01X6283976Y-3283983D01*
G01X6272546Y-3272553D01*
G01X6255528Y-3266711D01*
G01X6249686Y-3266711D01*
G01X6232668Y-3272553D01*
G01X6221238Y-3283983D01*
G01X6215396Y-3301001D01*
G01X6371860Y-3220991D02*
G01X6354842Y-3226833D01*
G01X6343412Y-3243851D01*
G01X6337570Y-3272553D01*
G01X6337570Y-3289571D01*
G01X6343412Y-3318273D01*
G01X6354842Y-3335291D01*
G01X6371860Y-3341133D01*
G01X6383290Y-3341133D01*
G01X6400562Y-3335291D01*
G01X6411992Y-3318273D01*
G01X6417580Y-3289571D01*
G01X6417580Y-3272553D01*
G01X6411992Y-3243851D01*
G01X6400562Y-3226833D01*
G01X6383290Y-3220991D01*
G01X6371860Y-3220991D01*
G01X6499622Y-3220991D02*
G01X6482604Y-3226833D01*
G01X6471174Y-3243851D01*
G01X6465332Y-3272553D01*
G01X6465332Y-3289571D01*
G01X6471174Y-3318273D01*
G01X6482604Y-3335291D01*
G01X6499622Y-3341133D01*
G01X6511052Y-3341133D01*
G01X6528324Y-3335291D01*
G01X6539754Y-3318273D01*
G01X6545342Y-3289571D01*
G01X6545342Y-3272553D01*
G01X6539754Y-3243851D01*
G01X6528324Y-3226833D01*
G01X6511052Y-3220991D01*
G01X6499622Y-3220991D01*
G01X6593094Y-3261123D02*
G01X6656086Y-3341133D01*
G01X6656086Y-3261123D02*
G01X6593094Y-3341133D01*
G01X6738128Y-3220991D02*
G01X6721110Y-3226833D01*
G01X6709680Y-3243851D01*
G01X6703838Y-3272553D01*
G01X6703838Y-3289571D01*
G01X6709680Y-3318273D01*
G01X6721110Y-3335291D01*
G01X6738128Y-3341133D01*
G01X6749558Y-3341133D01*
G01X6766830Y-3335291D01*
G01X6778260Y-3318273D01*
G01X6783848Y-3289571D01*
G01X6783848Y-3272553D01*
G01X6778260Y-3243851D01*
G01X6766830Y-3226833D01*
G01X6749558Y-3220991D01*
G01X6738128Y-3220991D01*
G01X6837442Y-3312431D02*
G01X6831600Y-3318273D01*
G01X6837442Y-3323861D01*
G01X6843030Y-3318273D01*
G01X6837442Y-3312431D01*
G01X6959362Y-3238263D02*
G01X6953774Y-3226833D01*
G01X6936502Y-3220991D01*
G01X6925072Y-3220991D01*
G01X6908054Y-3226833D01*
G01X6896624Y-3243851D01*
G01X6890782Y-3272553D01*
G01X6890782Y-3301001D01*
G01X6896624Y-3323861D01*
G01X6908054Y-3335291D01*
G01X6925072Y-3341133D01*
G01X6930914Y-3341133D01*
G01X6947932Y-3335291D01*
G01X6959362Y-3323861D01*
G01X6965204Y-3306843D01*
G01X6965204Y-3301001D01*
G01X6959362Y-3283983D01*
G01X6947932Y-3272553D01*
G01X6930914Y-3266711D01*
G01X6925072Y-3266711D01*
G01X6908054Y-3272553D01*
G01X6896624Y-3283983D01*
G01X6890782Y-3301001D01*
G01X7047246Y-3220991D02*
G01X7030228Y-3226833D01*
G01X7018798Y-3243851D01*
G01X7012956Y-3272553D01*
G01X7012956Y-3289571D01*
G01X7018798Y-3318273D01*
G01X7030228Y-3335291D01*
G01X7047246Y-3341133D01*
G01X7058676Y-3341133D01*
G01X7075948Y-3335291D01*
G01X7087378Y-3318273D01*
G01X7092966Y-3289571D01*
G01X7092966Y-3272553D01*
G01X7087378Y-3243851D01*
G01X7075948Y-3226833D01*
G01X7058676Y-3220991D01*
G01X7047246Y-3220991D01*
G01X7175008Y-3220991D02*
G01X7157990Y-3226833D01*
G01X7146560Y-3243851D01*
G01X7140718Y-3272553D01*
G01X7140718Y-3289571D01*
G01X7146560Y-3318273D01*
G01X7157990Y-3335291D01*
G01X7175008Y-3341133D01*
G01X7186438Y-3341133D01*
G01X7203710Y-3335291D01*
G01X7215140Y-3318273D01*
G01X7220728Y-3289571D01*
G01X7220728Y-3272553D01*
G01X7215140Y-3243851D01*
G01X7203710Y-3226833D01*
G01X7186438Y-3220991D01*
G01X7175008Y-3220991D01*
G01X7268480Y-3261123D02*
G01X7268480Y-3341133D01*
G01X7268480Y-3283983D02*
G01X7285752Y-3266711D01*
G01X7297182Y-3261123D01*
G01X7314200Y-3261123D01*
G01X7325630Y-3266711D01*
G01X7331472Y-3283983D01*
G01X7331472Y-3341133D01*
G01X7331472Y-3283983D02*
G01X7348490Y-3266711D01*
G01X7359920Y-3261123D01*
G01X7377192Y-3261123D01*
G01X7388622Y-3266711D01*
G01X7394210Y-3283983D01*
G01X7394210Y-3341133D01*
G01X7441962Y-3261123D02*
G01X7441962Y-3341133D01*
G01X7441962Y-3283983D02*
G01X7459234Y-3266711D01*
G01X7470664Y-3261123D01*
G01X7487682Y-3261123D01*
G01X7499112Y-3266711D01*
G01X7504954Y-3283983D01*
G01X7504954Y-3341133D01*
G01X7504954Y-3283983D02*
G01X7521972Y-3266711D01*
G01X7533402Y-3261123D01*
G01X7550674Y-3261123D01*
G01X7562104Y-3266711D01*
G01X7567692Y-3283983D01*
G01X7567692Y-3341133D01*
G01X7615444Y-3198131D02*
G01X7626874Y-3209561D01*
G01X7638304Y-3226833D01*
G01X7649734Y-3249693D01*
G01X7655576Y-3278141D01*
G01X7655576Y-3301001D01*
G01X7649734Y-3329703D01*
G01X7638304Y-3352563D01*
G01X7626874Y-3369581D01*
G01X7615444Y-3381011D01*
G01X8557929Y-3220991D02*
G01X8557929Y-3341133D01*
G01X8557929Y-3220991D02*
G01X8609491Y-3220991D01*
G01X8626509Y-3226833D01*
G01X8632351Y-3232421D01*
G01X8637939Y-3243851D01*
G01X8637939Y-3261123D01*
G01X8632351Y-3272553D01*
G01X8626509Y-3278141D01*
G01X8609491Y-3283983D01*
G01X8557929Y-3283983D01*
G01X8725823Y-3220991D02*
G01X8725823Y-3341133D01*
G01X8685691Y-3220991D02*
G01X8765701Y-3220991D01*
G01X8813453Y-3220991D02*
G01X8813453Y-3341133D01*
G01X8893463Y-3220991D02*
G01X8893463Y-3341133D01*
G01X8813453Y-3278141D02*
G01X8893463Y-3278141D01*
G01X10019336Y-3220991D02*
G01X10019336Y-3341133D01*
G01X10019336Y-3220991D02*
G01X10070898Y-3220991D01*
G01X10087916Y-3226833D01*
G01X10093758Y-3232421D01*
G01X10099346Y-3243851D01*
G01X10099346Y-3255281D01*
G01X10093758Y-3266711D01*
G01X10087916Y-3272553D01*
G01X10070898Y-3278141D01*
G01X10019336Y-3278141D01*
G01X10059468Y-3278141D02*
G01X10099346Y-3341133D01*
G01X10175800Y-3261123D02*
G01X10164370Y-3266711D01*
G01X10152940Y-3278141D01*
G01X10147098Y-3295413D01*
G01X10147098Y-3306843D01*
G01X10152940Y-3323861D01*
G01X10164370Y-3335291D01*
G01X10175800Y-3341133D01*
G01X10192818Y-3341133D01*
G01X10204248Y-3335291D01*
G01X10215678Y-3323861D01*
G01X10221520Y-3306843D01*
G01X10221520Y-3295413D01*
G01X10215678Y-3278141D01*
G01X10204248Y-3266711D01*
G01X10192818Y-3261123D01*
G01X10175800Y-3261123D01*
G01X10269272Y-3261123D02*
G01X10269272Y-3318273D01*
G01X10275114Y-3335291D01*
G01X10286544Y-3341133D01*
G01X10303562Y-3341133D01*
G01X10314992Y-3335291D01*
G01X10332264Y-3318273D01*
G01X10332264Y-3261123D02*
G01X10332264Y-3341133D01*
G01X10380016Y-3261123D02*
G01X10380016Y-3341133D01*
G01X10380016Y-3283983D02*
G01X10397288Y-3266711D01*
G01X10408718Y-3261123D01*
G01X10425736Y-3261123D01*
G01X10437166Y-3266711D01*
G01X10443008Y-3283983D01*
G01X10443008Y-3341133D01*
G01X10559340Y-3220991D02*
G01X10559340Y-3341133D01*
G01X10559340Y-3278141D02*
G01X10547910Y-3266711D01*
G01X10536480Y-3261123D01*
G01X10519462Y-3261123D01*
G01X10508032Y-3266711D01*
G01X10496602Y-3278141D01*
G01X10490760Y-3295413D01*
G01X10490760Y-3306843D01*
G01X10496602Y-3323861D01*
G01X10508032Y-3335291D01*
G01X10519462Y-3341133D01*
G01X10536480Y-3341133D01*
G01X10547910Y-3335291D01*
G01X10559340Y-3323861D01*
G01X11450517Y-3220991D02*
G01X11450517Y-3341133D01*
G01X11450517Y-3220991D02*
G01X11502079Y-3220991D01*
G01X11519097Y-3226833D01*
G01X11524939Y-3232421D01*
G01X11530527Y-3243851D01*
G01X11530527Y-3261123D01*
G01X11524939Y-3272553D01*
G01X11519097Y-3278141D01*
G01X11502079Y-3283983D01*
G01X11450517Y-3283983D01*
G01X11646859Y-3261123D02*
G01X11646859Y-3341133D01*
G01X11646859Y-3278141D02*
G01X11635429Y-3266711D01*
G01X11623999Y-3261123D01*
G01X11606981Y-3261123D01*
G01X11595551Y-3266711D01*
G01X11584121Y-3278141D01*
G01X11578279Y-3295413D01*
G01X11578279Y-3306843D01*
G01X11584121Y-3323861D01*
G01X11595551Y-3335291D01*
G01X11606981Y-3341133D01*
G01X11623999Y-3341133D01*
G01X11635429Y-3335291D01*
G01X11646859Y-3323861D01*
G01X11763191Y-3220991D02*
G01X11763191Y-3341133D01*
G01X11763191Y-3278141D02*
G01X11751761Y-3266711D01*
G01X11740331Y-3261123D01*
G01X11723313Y-3261123D01*
G01X11711883Y-3266711D01*
G01X11700453Y-3278141D01*
G01X11694611Y-3295413D01*
G01X11694611Y-3306843D01*
G01X11700453Y-3323861D01*
G01X11711883Y-3335291D01*
G01X11723313Y-3341133D01*
G01X11740331Y-3341133D01*
G01X11751761Y-3335291D01*
G01X11763191Y-3323861D01*
G01X13119696Y-3220991D02*
G01X13119696Y-3341133D01*
G01X13119696Y-3220991D02*
G01X13171258Y-3220991D01*
G01X13188276Y-3226833D01*
G01X13194118Y-3232421D01*
G01X13199706Y-3243851D01*
G01X13199706Y-3255281D01*
G01X13194118Y-3266711D01*
G01X13188276Y-3272553D01*
G01X13171258Y-3278141D01*
G01X13119696Y-3278141D01*
G01X13159828Y-3278141D02*
G01X13199706Y-3341133D01*
G01X13276160Y-3261123D02*
G01X13264730Y-3266711D01*
G01X13253300Y-3278141D01*
G01X13247458Y-3295413D01*
G01X13247458Y-3306843D01*
G01X13253300Y-3323861D01*
G01X13264730Y-3335291D01*
G01X13276160Y-3341133D01*
G01X13293178Y-3341133D01*
G01X13304608Y-3335291D01*
G01X13316038Y-3323861D01*
G01X13321880Y-3306843D01*
G01X13321880Y-3295413D01*
G01X13316038Y-3278141D01*
G01X13304608Y-3266711D01*
G01X13293178Y-3261123D01*
G01X13276160Y-3261123D01*
G01X13369632Y-3261123D02*
G01X13369632Y-3318273D01*
G01X13375474Y-3335291D01*
G01X13386904Y-3341133D01*
G01X13403922Y-3341133D01*
G01X13415352Y-3335291D01*
G01X13432624Y-3318273D01*
G01X13432624Y-3261123D02*
G01X13432624Y-3341133D01*
G01X13480376Y-3261123D02*
G01X13480376Y-3341133D01*
G01X13480376Y-3283983D02*
G01X13497648Y-3266711D01*
G01X13509078Y-3261123D01*
G01X13526096Y-3261123D01*
G01X13537526Y-3266711D01*
G01X13543368Y-3283983D01*
G01X13543368Y-3341133D01*
G01X13659700Y-3220991D02*
G01X13659700Y-3341133D01*
G01X13659700Y-3278141D02*
G01X13648270Y-3266711D01*
G01X13636840Y-3261123D01*
G01X13619822Y-3261123D01*
G01X13608392Y-3266711D01*
G01X13596962Y-3278141D01*
G01X13591120Y-3295413D01*
G01X13591120Y-3306843D01*
G01X13596962Y-3323861D01*
G01X13608392Y-3335291D01*
G01X13619822Y-3341133D01*
G01X13636840Y-3341133D01*
G01X13648270Y-3335291D01*
G01X13659700Y-3323861D01*
G01X15079197Y-3220991D02*
G01X15079197Y-3341133D01*
G01X15039065Y-3220991D02*
G01X15119075Y-3220991D01*
G01X15195529Y-3261123D02*
G01X15184099Y-3266711D01*
G01X15172669Y-3278141D01*
G01X15166827Y-3295413D01*
G01X15166827Y-3306843D01*
G01X15172669Y-3323861D01*
G01X15184099Y-3335291D01*
G01X15195529Y-3341133D01*
G01X15212547Y-3341133D01*
G01X15223977Y-3335291D01*
G01X15235407Y-3323861D01*
G01X15241249Y-3306843D01*
G01X15241249Y-3295413D01*
G01X15235407Y-3278141D01*
G01X15223977Y-3266711D01*
G01X15212547Y-3261123D01*
G01X15195529Y-3261123D01*
G01X15289001Y-3261123D02*
G01X15289001Y-3381011D01*
G01X15289001Y-3278141D02*
G01X15300431Y-3266711D01*
G01X15311861Y-3261123D01*
G01X15329133Y-3261123D01*
G01X15340563Y-3266711D01*
G01X15351993Y-3278141D01*
G01X15357581Y-3295413D01*
G01X15357581Y-3306843D01*
G01X15351993Y-3323861D01*
G01X15340563Y-3335291D01*
G01X15329133Y-3341133D01*
G01X15311861Y-3341133D01*
G01X15300431Y-3335291D01*
G01X15289001Y-3323861D01*
G01X15533349Y-3220991D02*
G01X15533349Y-3341133D01*
G01X15533349Y-3341133D02*
G01X15601929Y-3341133D01*
G01X15718261Y-3261123D02*
G01X15718261Y-3341133D01*
G01X15718261Y-3278141D02*
G01X15706831Y-3266711D01*
G01X15695401Y-3261123D01*
G01X15678383Y-3261123D01*
G01X15666953Y-3266711D01*
G01X15655523Y-3278141D01*
G01X15649681Y-3295413D01*
G01X15649681Y-3306843D01*
G01X15655523Y-3323861D01*
G01X15666953Y-3335291D01*
G01X15678383Y-3341133D01*
G01X15695401Y-3341133D01*
G01X15706831Y-3335291D01*
G01X15718261Y-3323861D01*
G01X15771855Y-3261123D02*
G01X15806145Y-3341133D01*
G01X15840435Y-3261123D02*
G01X15806145Y-3341133D01*
G01X15794715Y-3363993D01*
G01X15783285Y-3375423D01*
G01X15771855Y-3381011D01*
G01X15766013Y-3381011D01*
G01X15888187Y-3295413D02*
G01X15956767Y-3295413D01*
G01X15956767Y-3283983D01*
G01X15951179Y-3272553D01*
G01X15945337Y-3266711D01*
G01X15933907Y-3261123D01*
G01X15916889Y-3261123D01*
G01X15905459Y-3266711D01*
G01X15894029Y-3278141D01*
G01X15888187Y-3295413D01*
G01X15888187Y-3306843D01*
G01X15894029Y-3323861D01*
G01X15905459Y-3335291D01*
G01X15916889Y-3341133D01*
G01X15933907Y-3341133D01*
G01X15945337Y-3335291D01*
G01X15956767Y-3323861D01*
G01X16004519Y-3261123D02*
G01X16004519Y-3341133D01*
G01X16004519Y-3295413D02*
G01X16010361Y-3278141D01*
G01X16021791Y-3266711D01*
G01X16033221Y-3261123D01*
G01X16050239Y-3261123D01*
G01X16097991Y-3289571D02*
G01X16200861Y-3289571D01*
G01X16248613Y-3220991D02*
G01X16248613Y-3341133D01*
G01X16248613Y-3220991D02*
G01X16300175Y-3220991D01*
G01X16317193Y-3226833D01*
G01X16323035Y-3232421D01*
G01X16328623Y-3243851D01*
G01X16328623Y-3255281D01*
G01X16323035Y-3266711D01*
G01X16317193Y-3272553D01*
G01X16300175Y-3278141D01*
G01X16248613Y-3278141D02*
G01X16300175Y-3278141D01*
G01X16317193Y-3283983D01*
G01X16323035Y-3289571D01*
G01X16328623Y-3301001D01*
G01X16328623Y-3318273D01*
G01X16323035Y-3329703D01*
G01X16317193Y-3335291D01*
G01X16300175Y-3341133D01*
G01X16248613Y-3341133D01*
G01X16405077Y-3261123D02*
G01X16393647Y-3266711D01*
G01X16382217Y-3278141D01*
G01X16376375Y-3295413D01*
G01X16376375Y-3306843D01*
G01X16382217Y-3323861D01*
G01X16393647Y-3335291D01*
G01X16405077Y-3341133D01*
G01X16422095Y-3341133D01*
G01X16433525Y-3335291D01*
G01X16444955Y-3323861D01*
G01X16450797Y-3306843D01*
G01X16450797Y-3295413D01*
G01X16444955Y-3278141D01*
G01X16433525Y-3266711D01*
G01X16422095Y-3261123D01*
G01X16405077Y-3261123D01*
G01X16515821Y-3220991D02*
G01X16515821Y-3318273D01*
G01X16521409Y-3335291D01*
G01X16532839Y-3341133D01*
G01X16544269Y-3341133D01*
G01X16498549Y-3261123D02*
G01X16538681Y-3261123D01*
G01X16609293Y-3220991D02*
G01X16609293Y-3318273D01*
G01X16614881Y-3335291D01*
G01X16626311Y-3341133D01*
G01X16637741Y-3341133D01*
G01X16592021Y-3261123D02*
G01X16632153Y-3261123D01*
G01X16714195Y-3261123D02*
G01X16702765Y-3266711D01*
G01X16691335Y-3278141D01*
G01X16685493Y-3295413D01*
G01X16685493Y-3306843D01*
G01X16691335Y-3323861D01*
G01X16702765Y-3335291D01*
G01X16714195Y-3341133D01*
G01X16731213Y-3341133D01*
G01X16742643Y-3335291D01*
G01X16754073Y-3323861D01*
G01X16759915Y-3306843D01*
G01X16759915Y-3295413D01*
G01X16754073Y-3278141D01*
G01X16742643Y-3266711D01*
G01X16731213Y-3261123D01*
G01X16714195Y-3261123D01*
G01X16807667Y-3261123D02*
G01X16807667Y-3341133D01*
G01X16807667Y-3283983D02*
G01X16824939Y-3266711D01*
G01X16836369Y-3261123D01*
G01X16853387Y-3261123D01*
G01X16864817Y-3266711D01*
G01X16870659Y-3283983D01*
G01X16870659Y-3341133D01*
G01X16870659Y-3283983D02*
G01X16887677Y-3266711D01*
G01X16899107Y-3261123D01*
G01X16916379Y-3261123D01*
G01X16927809Y-3266711D01*
G01X16933397Y-3283983D01*
G01X16933397Y-3341133D01*
G01X17109165Y-3220991D02*
G01X17109165Y-3341133D01*
G01X17109165Y-3341133D02*
G01X17177745Y-3341133D01*
G01X17294077Y-3261123D02*
G01X17294077Y-3341133D01*
G01X17294077Y-3278141D02*
G01X17282647Y-3266711D01*
G01X17271217Y-3261123D01*
G01X17254199Y-3261123D01*
G01X17242769Y-3266711D01*
G01X17231339Y-3278141D01*
G01X17225497Y-3295413D01*
G01X17225497Y-3306843D01*
G01X17231339Y-3323861D01*
G01X17242769Y-3335291D01*
G01X17254199Y-3341133D01*
G01X17271217Y-3341133D01*
G01X17282647Y-3335291D01*
G01X17294077Y-3323861D01*
G01X17347671Y-3261123D02*
G01X17381961Y-3341133D01*
G01X17416251Y-3261123D02*
G01X17381961Y-3341133D01*
G01X17370531Y-3363993D01*
G01X17359101Y-3375423D01*
G01X17347671Y-3381011D01*
G01X17341829Y-3381011D01*
G01X17464003Y-3295413D02*
G01X17532583Y-3295413D01*
G01X17532583Y-3283983D01*
G01X17526995Y-3272553D01*
G01X17521153Y-3266711D01*
G01X17509723Y-3261123D01*
G01X17492705Y-3261123D01*
G01X17481275Y-3266711D01*
G01X17469845Y-3278141D01*
G01X17464003Y-3295413D01*
G01X17464003Y-3306843D01*
G01X17469845Y-3323861D01*
G01X17481275Y-3335291D01*
G01X17492705Y-3341133D01*
G01X17509723Y-3341133D01*
G01X17521153Y-3335291D01*
G01X17532583Y-3323861D01*
G01X17580335Y-3261123D02*
G01X17580335Y-3341133D01*
G01X17580335Y-3295413D02*
G01X17586177Y-3278141D01*
G01X17597607Y-3266711D01*
G01X17609037Y-3261123D01*
G01X17626055Y-3261123D01*
G01X3261485Y-3824423D02*
G01X3272915Y-3818835D01*
G01X3290187Y-3801563D01*
G01X3290187Y-3921705D01*
G01X3366641Y-3801563D02*
G01X3349369Y-3807405D01*
G01X3343781Y-3818835D01*
G01X3343781Y-3830265D01*
G01X3349369Y-3841695D01*
G01X3360799Y-3847283D01*
G01X3383659Y-3853125D01*
G01X3400931Y-3858713D01*
G01X3412361Y-3870143D01*
G01X3417949Y-3881573D01*
G01X3417949Y-3898845D01*
G01X3412361Y-3910275D01*
G01X3406519Y-3915863D01*
G01X3389501Y-3921705D01*
G01X3366641Y-3921705D01*
G01X3349369Y-3915863D01*
G01X3343781Y-3910275D01*
G01X3337939Y-3898845D01*
G01X3337939Y-3881573D01*
G01X3343781Y-3870143D01*
G01X3355211Y-3858713D01*
G01X3372229Y-3853125D01*
G01X3395089Y-3847283D01*
G01X3406519Y-3841695D01*
G01X3412361Y-3830265D01*
G01X3412361Y-3818835D01*
G01X3406519Y-3807405D01*
G01X3389501Y-3801563D01*
G01X3366641Y-3801563D01*
G01X3534281Y-3801563D02*
G01X3477131Y-3801563D01*
G01X3471543Y-3853125D01*
G01X3477131Y-3847283D01*
G01X3494403Y-3841695D01*
G01X3511421Y-3841695D01*
G01X3528693Y-3847283D01*
G01X3540123Y-3858713D01*
G01X3545711Y-3875985D01*
G01X3545711Y-3887415D01*
G01X3540123Y-3904433D01*
G01X3528693Y-3915863D01*
G01X3511421Y-3921705D01*
G01X3494403Y-3921705D01*
G01X3477131Y-3915863D01*
G01X3471543Y-3910275D01*
G01X3465701Y-3898845D01*
G01X4675648Y-3824423D02*
G01X4687078Y-3818835D01*
G01X4704350Y-3801563D01*
G01X4704350Y-3921705D01*
G01X4752102Y-3824423D02*
G01X4763532Y-3818835D01*
G01X4780804Y-3801563D01*
G01X4780804Y-3921705D01*
G01X4834398Y-3893003D02*
G01X4828556Y-3898845D01*
G01X4834398Y-3904433D01*
G01X4839986Y-3898845D01*
G01X4834398Y-3893003D01*
G01X4916440Y-3801563D02*
G01X4899168Y-3807405D01*
G01X4893580Y-3818835D01*
G01X4893580Y-3830265D01*
G01X4899168Y-3841695D01*
G01X4910598Y-3847283D01*
G01X4933458Y-3853125D01*
G01X4950730Y-3858713D01*
G01X4962160Y-3870143D01*
G01X4967748Y-3881573D01*
G01X4967748Y-3898845D01*
G01X4962160Y-3910275D01*
G01X4956318Y-3915863D01*
G01X4939300Y-3921705D01*
G01X4916440Y-3921705D01*
G01X4899168Y-3915863D01*
G01X4893580Y-3910275D01*
G01X4887738Y-3898845D01*
G01X4887738Y-3881573D01*
G01X4893580Y-3870143D01*
G01X4905010Y-3858713D01*
G01X4922028Y-3853125D01*
G01X4944888Y-3847283D01*
G01X4956318Y-3841695D01*
G01X4962160Y-3830265D01*
G01X4962160Y-3818835D01*
G01X4956318Y-3807405D01*
G01X4939300Y-3801563D01*
G01X4916440Y-3801563D01*
G01X5015500Y-3841695D02*
G01X5015500Y-3921705D01*
G01X5015500Y-3864555D02*
G01X5032772Y-3847283D01*
G01X5044202Y-3841695D01*
G01X5061220Y-3841695D01*
G01X5072650Y-3847283D01*
G01X5078492Y-3864555D01*
G01X5078492Y-3921705D01*
G01X5078492Y-3864555D02*
G01X5095510Y-3847283D01*
G01X5106940Y-3841695D01*
G01X5124212Y-3841695D01*
G01X5135642Y-3847283D01*
G01X5141230Y-3864555D01*
G01X5141230Y-3921705D01*
G01X5188982Y-3801563D02*
G01X5194824Y-3807405D01*
G01X5200412Y-3801563D01*
G01X5194824Y-3795975D01*
G01X5188982Y-3801563D01*
G01X5194824Y-3841695D02*
G01X5194824Y-3921705D01*
G01X5248164Y-3801563D02*
G01X5248164Y-3921705D01*
G01X5336048Y-3778703D02*
G01X5324618Y-3790133D01*
G01X5313188Y-3807405D01*
G01X5301758Y-3830265D01*
G01X5295916Y-3858713D01*
G01X5295916Y-3881573D01*
G01X5301758Y-3910275D01*
G01X5313188Y-3933135D01*
G01X5324618Y-3950153D01*
G01X5336048Y-3961583D01*
G01X5418090Y-3801563D02*
G01X5401072Y-3807405D01*
G01X5389642Y-3824423D01*
G01X5383800Y-3853125D01*
G01X5383800Y-3870143D01*
G01X5389642Y-3898845D01*
G01X5401072Y-3915863D01*
G01X5418090Y-3921705D01*
G01X5429520Y-3921705D01*
G01X5446792Y-3915863D01*
G01X5458222Y-3898845D01*
G01X5463810Y-3870143D01*
G01X5463810Y-3853125D01*
G01X5458222Y-3824423D01*
G01X5446792Y-3807405D01*
G01X5429520Y-3801563D01*
G01X5418090Y-3801563D01*
G01X5517404Y-3893003D02*
G01X5511562Y-3898845D01*
G01X5517404Y-3904433D01*
G01X5522992Y-3898845D01*
G01X5517404Y-3893003D01*
G01X5582174Y-3801563D02*
G01X5645166Y-3801563D01*
G01X5610876Y-3847283D01*
G01X5627894Y-3847283D01*
G01X5639324Y-3853125D01*
G01X5645166Y-3858713D01*
G01X5650754Y-3875985D01*
G01X5650754Y-3887415D01*
G01X5645166Y-3904433D01*
G01X5633736Y-3915863D01*
G01X5616464Y-3921705D01*
G01X5599446Y-3921705D01*
G01X5582174Y-3915863D01*
G01X5576586Y-3910275D01*
G01X5570744Y-3898845D01*
G01X5732796Y-3801563D02*
G01X5715778Y-3807405D01*
G01X5704348Y-3824423D01*
G01X5698506Y-3853125D01*
G01X5698506Y-3870143D01*
G01X5704348Y-3898845D01*
G01X5715778Y-3915863D01*
G01X5732796Y-3921705D01*
G01X5744226Y-3921705D01*
G01X5761498Y-3915863D01*
G01X5772928Y-3898845D01*
G01X5778516Y-3870143D01*
G01X5778516Y-3853125D01*
G01X5772928Y-3824423D01*
G01X5761498Y-3807405D01*
G01X5744226Y-3801563D01*
G01X5732796Y-3801563D01*
G01X5860558Y-3801563D02*
G01X5843540Y-3807405D01*
G01X5832110Y-3824423D01*
G01X5826268Y-3853125D01*
G01X5826268Y-3870143D01*
G01X5832110Y-3898845D01*
G01X5843540Y-3915863D01*
G01X5860558Y-3921705D01*
G01X5871988Y-3921705D01*
G01X5889260Y-3915863D01*
G01X5900690Y-3898845D01*
G01X5906278Y-3870143D01*
G01X5906278Y-3853125D01*
G01X5900690Y-3824423D01*
G01X5889260Y-3807405D01*
G01X5871988Y-3801563D01*
G01X5860558Y-3801563D01*
G01X5954030Y-3841695D02*
G01X5954030Y-3921705D01*
G01X5954030Y-3864555D02*
G01X5971302Y-3847283D01*
G01X5982732Y-3841695D01*
G01X5999750Y-3841695D01*
G01X6011180Y-3847283D01*
G01X6017022Y-3864555D01*
G01X6017022Y-3921705D01*
G01X6017022Y-3864555D02*
G01X6034040Y-3847283D01*
G01X6045470Y-3841695D01*
G01X6062742Y-3841695D01*
G01X6074172Y-3847283D01*
G01X6079760Y-3864555D01*
G01X6079760Y-3921705D01*
G01X6127512Y-3841695D02*
G01X6127512Y-3921705D01*
G01X6127512Y-3864555D02*
G01X6144784Y-3847283D01*
G01X6156214Y-3841695D01*
G01X6173232Y-3841695D01*
G01X6184662Y-3847283D01*
G01X6190504Y-3864555D01*
G01X6190504Y-3921705D01*
G01X6190504Y-3864555D02*
G01X6207522Y-3847283D01*
G01X6218952Y-3841695D01*
G01X6236224Y-3841695D01*
G01X6247654Y-3847283D01*
G01X6253242Y-3864555D01*
G01X6253242Y-3921705D01*
G01X6300994Y-3778703D02*
G01X6312424Y-3790133D01*
G01X6323854Y-3807405D01*
G01X6335284Y-3830265D01*
G01X6341126Y-3858713D01*
G01X6341126Y-3881573D01*
G01X6335284Y-3910275D01*
G01X6323854Y-3933135D01*
G01X6312424Y-3950153D01*
G01X6300994Y-3961583D01*
G01X8557929Y-3801563D02*
G01X8557929Y-3921705D01*
G01X8557929Y-3801563D02*
G01X8609491Y-3801563D01*
G01X8626509Y-3807405D01*
G01X8632351Y-3812993D01*
G01X8637939Y-3824423D01*
G01X8637939Y-3841695D01*
G01X8632351Y-3853125D01*
G01X8626509Y-3858713D01*
G01X8609491Y-3864555D01*
G01X8557929Y-3864555D01*
G01X8725823Y-3801563D02*
G01X8725823Y-3921705D01*
G01X8685691Y-3801563D02*
G01X8765701Y-3801563D01*
G01X8813453Y-3801563D02*
G01X8813453Y-3921705D01*
G01X8893463Y-3801563D02*
G01X8893463Y-3921705D01*
G01X8813453Y-3858713D02*
G01X8893463Y-3858713D01*
G01X10019336Y-3801563D02*
G01X10019336Y-3921705D01*
G01X10019336Y-3801563D02*
G01X10070898Y-3801563D01*
G01X10087916Y-3807405D01*
G01X10093758Y-3812993D01*
G01X10099346Y-3824423D01*
G01X10099346Y-3835853D01*
G01X10093758Y-3847283D01*
G01X10087916Y-3853125D01*
G01X10070898Y-3858713D01*
G01X10019336Y-3858713D01*
G01X10059468Y-3858713D02*
G01X10099346Y-3921705D01*
G01X10175800Y-3841695D02*
G01X10164370Y-3847283D01*
G01X10152940Y-3858713D01*
G01X10147098Y-3875985D01*
G01X10147098Y-3887415D01*
G01X10152940Y-3904433D01*
G01X10164370Y-3915863D01*
G01X10175800Y-3921705D01*
G01X10192818Y-3921705D01*
G01X10204248Y-3915863D01*
G01X10215678Y-3904433D01*
G01X10221520Y-3887415D01*
G01X10221520Y-3875985D01*
G01X10215678Y-3858713D01*
G01X10204248Y-3847283D01*
G01X10192818Y-3841695D01*
G01X10175800Y-3841695D01*
G01X10269272Y-3841695D02*
G01X10269272Y-3898845D01*
G01X10275114Y-3915863D01*
G01X10286544Y-3921705D01*
G01X10303562Y-3921705D01*
G01X10314992Y-3915863D01*
G01X10332264Y-3898845D01*
G01X10332264Y-3841695D02*
G01X10332264Y-3921705D01*
G01X10380016Y-3841695D02*
G01X10380016Y-3921705D01*
G01X10380016Y-3864555D02*
G01X10397288Y-3847283D01*
G01X10408718Y-3841695D01*
G01X10425736Y-3841695D01*
G01X10437166Y-3847283D01*
G01X10443008Y-3864555D01*
G01X10443008Y-3921705D01*
G01X10559340Y-3801563D02*
G01X10559340Y-3921705D01*
G01X10559340Y-3858713D02*
G01X10547910Y-3847283D01*
G01X10536480Y-3841695D01*
G01X10519462Y-3841695D01*
G01X10508032Y-3847283D01*
G01X10496602Y-3858713D01*
G01X10490760Y-3875985D01*
G01X10490760Y-3887415D01*
G01X10496602Y-3904433D01*
G01X10508032Y-3915863D01*
G01X10519462Y-3921705D01*
G01X10536480Y-3921705D01*
G01X10547910Y-3915863D01*
G01X10559340Y-3904433D01*
G01X11450517Y-3801563D02*
G01X11496237Y-3921705D01*
G01X11541957Y-3801563D02*
G01X11496237Y-3921705D01*
G01X11589709Y-3801563D02*
G01X11595551Y-3807405D01*
G01X11601139Y-3801563D01*
G01X11595551Y-3795975D01*
G01X11589709Y-3801563D01*
G01X11595551Y-3841695D02*
G01X11595551Y-3921705D01*
G01X11717471Y-3841695D02*
G01X11717471Y-3921705D01*
G01X11717471Y-3858713D02*
G01X11706041Y-3847283D01*
G01X11694611Y-3841695D01*
G01X11677593Y-3841695D01*
G01X11666163Y-3847283D01*
G01X11654733Y-3858713D01*
G01X11648891Y-3875985D01*
G01X11648891Y-3887415D01*
G01X11654733Y-3904433D01*
G01X11666163Y-3915863D01*
G01X11677593Y-3921705D01*
G01X11694611Y-3921705D01*
G01X11706041Y-3915863D01*
G01X11717471Y-3904433D01*
G01X15079197Y-3801563D02*
G01X15079197Y-3921705D01*
G01X15039065Y-3801563D02*
G01X15119075Y-3801563D01*
G01X15195529Y-3841695D02*
G01X15184099Y-3847283D01*
G01X15172669Y-3858713D01*
G01X15166827Y-3875985D01*
G01X15166827Y-3887415D01*
G01X15172669Y-3904433D01*
G01X15184099Y-3915863D01*
G01X15195529Y-3921705D01*
G01X15212547Y-3921705D01*
G01X15223977Y-3915863D01*
G01X15235407Y-3904433D01*
G01X15241249Y-3887415D01*
G01X15241249Y-3875985D01*
G01X15235407Y-3858713D01*
G01X15223977Y-3847283D01*
G01X15212547Y-3841695D01*
G01X15195529Y-3841695D01*
G01X15289001Y-3841695D02*
G01X15289001Y-3961583D01*
G01X15289001Y-3858713D02*
G01X15300431Y-3847283D01*
G01X15311861Y-3841695D01*
G01X15329133Y-3841695D01*
G01X15340563Y-3847283D01*
G01X15351993Y-3858713D01*
G01X15357581Y-3875985D01*
G01X15357581Y-3887415D01*
G01X15351993Y-3904433D01*
G01X15340563Y-3915863D01*
G01X15329133Y-3921705D01*
G01X15311861Y-3921705D01*
G01X15300431Y-3915863D01*
G01X15289001Y-3904433D01*
G01X15533349Y-3801563D02*
G01X15533349Y-3921705D01*
G01X15533349Y-3921705D02*
G01X15601929Y-3921705D01*
G01X15718261Y-3841695D02*
G01X15718261Y-3921705D01*
G01X15718261Y-3858713D02*
G01X15706831Y-3847283D01*
G01X15695401Y-3841695D01*
G01X15678383Y-3841695D01*
G01X15666953Y-3847283D01*
G01X15655523Y-3858713D01*
G01X15649681Y-3875985D01*
G01X15649681Y-3887415D01*
G01X15655523Y-3904433D01*
G01X15666953Y-3915863D01*
G01X15678383Y-3921705D01*
G01X15695401Y-3921705D01*
G01X15706831Y-3915863D01*
G01X15718261Y-3904433D01*
G01X15771855Y-3841695D02*
G01X15806145Y-3921705D01*
G01X15840435Y-3841695D02*
G01X15806145Y-3921705D01*
G01X15794715Y-3944565D01*
G01X15783285Y-3955995D01*
G01X15771855Y-3961583D01*
G01X15766013Y-3961583D01*
G01X15888187Y-3875985D02*
G01X15956767Y-3875985D01*
G01X15956767Y-3864555D01*
G01X15951179Y-3853125D01*
G01X15945337Y-3847283D01*
G01X15933907Y-3841695D01*
G01X15916889Y-3841695D01*
G01X15905459Y-3847283D01*
G01X15894029Y-3858713D01*
G01X15888187Y-3875985D01*
G01X15888187Y-3887415D01*
G01X15894029Y-3904433D01*
G01X15905459Y-3915863D01*
G01X15916889Y-3921705D01*
G01X15933907Y-3921705D01*
G01X15945337Y-3915863D01*
G01X15956767Y-3904433D01*
G01X16004519Y-3841695D02*
G01X16004519Y-3921705D01*
G01X16004519Y-3875985D02*
G01X16010361Y-3858713D01*
G01X16021791Y-3847283D01*
G01X16033221Y-3841695D01*
G01X16050239Y-3841695D01*
G01X16097991Y-3870143D02*
G01X16200861Y-3870143D01*
G01X16248613Y-3801563D02*
G01X16248613Y-3921705D01*
G01X16248613Y-3801563D02*
G01X16300175Y-3801563D01*
G01X16317193Y-3807405D01*
G01X16323035Y-3812993D01*
G01X16328623Y-3824423D01*
G01X16328623Y-3835853D01*
G01X16323035Y-3847283D01*
G01X16317193Y-3853125D01*
G01X16300175Y-3858713D01*
G01X16248613Y-3858713D02*
G01X16300175Y-3858713D01*
G01X16317193Y-3864555D01*
G01X16323035Y-3870143D01*
G01X16328623Y-3881573D01*
G01X16328623Y-3898845D01*
G01X16323035Y-3910275D01*
G01X16317193Y-3915863D01*
G01X16300175Y-3921705D01*
G01X16248613Y-3921705D01*
G01X16405077Y-3841695D02*
G01X16393647Y-3847283D01*
G01X16382217Y-3858713D01*
G01X16376375Y-3875985D01*
G01X16376375Y-3887415D01*
G01X16382217Y-3904433D01*
G01X16393647Y-3915863D01*
G01X16405077Y-3921705D01*
G01X16422095Y-3921705D01*
G01X16433525Y-3915863D01*
G01X16444955Y-3904433D01*
G01X16450797Y-3887415D01*
G01X16450797Y-3875985D01*
G01X16444955Y-3858713D01*
G01X16433525Y-3847283D01*
G01X16422095Y-3841695D01*
G01X16405077Y-3841695D01*
G01X16515821Y-3801563D02*
G01X16515821Y-3898845D01*
G01X16521409Y-3915863D01*
G01X16532839Y-3921705D01*
G01X16544269Y-3921705D01*
G01X16498549Y-3841695D02*
G01X16538681Y-3841695D01*
G01X16609293Y-3801563D02*
G01X16609293Y-3898845D01*
G01X16614881Y-3915863D01*
G01X16626311Y-3921705D01*
G01X16637741Y-3921705D01*
G01X16592021Y-3841695D02*
G01X16632153Y-3841695D01*
G01X16714195Y-3841695D02*
G01X16702765Y-3847283D01*
G01X16691335Y-3858713D01*
G01X16685493Y-3875985D01*
G01X16685493Y-3887415D01*
G01X16691335Y-3904433D01*
G01X16702765Y-3915863D01*
G01X16714195Y-3921705D01*
G01X16731213Y-3921705D01*
G01X16742643Y-3915863D01*
G01X16754073Y-3904433D01*
G01X16759915Y-3887415D01*
G01X16759915Y-3875985D01*
G01X16754073Y-3858713D01*
G01X16742643Y-3847283D01*
G01X16731213Y-3841695D01*
G01X16714195Y-3841695D01*
G01X16807667Y-3841695D02*
G01X16807667Y-3921705D01*
G01X16807667Y-3864555D02*
G01X16824939Y-3847283D01*
G01X16836369Y-3841695D01*
G01X16853387Y-3841695D01*
G01X16864817Y-3847283D01*
G01X16870659Y-3864555D01*
G01X16870659Y-3921705D01*
G01X16870659Y-3864555D02*
G01X16887677Y-3847283D01*
G01X16899107Y-3841695D01*
G01X16916379Y-3841695D01*
G01X16927809Y-3847283D01*
G01X16933397Y-3864555D01*
G01X16933397Y-3921705D01*
G01X17109165Y-3801563D02*
G01X17109165Y-3921705D01*
G01X17109165Y-3921705D02*
G01X17177745Y-3921705D01*
G01X17294077Y-3841695D02*
G01X17294077Y-3921705D01*
G01X17294077Y-3858713D02*
G01X17282647Y-3847283D01*
G01X17271217Y-3841695D01*
G01X17254199Y-3841695D01*
G01X17242769Y-3847283D01*
G01X17231339Y-3858713D01*
G01X17225497Y-3875985D01*
G01X17225497Y-3887415D01*
G01X17231339Y-3904433D01*
G01X17242769Y-3915863D01*
G01X17254199Y-3921705D01*
G01X17271217Y-3921705D01*
G01X17282647Y-3915863D01*
G01X17294077Y-3904433D01*
G01X17347671Y-3841695D02*
G01X17381961Y-3921705D01*
G01X17416251Y-3841695D02*
G01X17381961Y-3921705D01*
G01X17370531Y-3944565D01*
G01X17359101Y-3955995D01*
G01X17347671Y-3961583D01*
G01X17341829Y-3961583D01*
G01X17464003Y-3875985D02*
G01X17532583Y-3875985D01*
G01X17532583Y-3864555D01*
G01X17526995Y-3853125D01*
G01X17521153Y-3847283D01*
G01X17509723Y-3841695D01*
G01X17492705Y-3841695D01*
G01X17481275Y-3847283D01*
G01X17469845Y-3858713D01*
G01X17464003Y-3875985D01*
G01X17464003Y-3887415D01*
G01X17469845Y-3904433D01*
G01X17481275Y-3915863D01*
G01X17492705Y-3921705D01*
G01X17509723Y-3921705D01*
G01X17521153Y-3915863D01*
G01X17532583Y-3904433D01*
G01X17580335Y-3841695D02*
G01X17580335Y-3921705D01*
G01X17580335Y-3875985D02*
G01X17586177Y-3858713D01*
G01X17597607Y-3847283D01*
G01X17609037Y-3841695D01*
G01X17626055Y-3841695D01*

G04 Image Start*
G36*
G01X1964996Y-3144428D02*
G01X2130096Y-3309528D01*
G01X1964996Y-3474628D01*
G01X1799896Y-3309528D01*
G01X1835812Y-3309528D01*
G01X1964996Y-3438713D01*
G01X2094180Y-3309528D01*
G01X1964996Y-3180344D01*
G01X1964996Y-3180344D01*
G01X1835812Y-3309528D01*
G01X1799896Y-3309528D01*
G01X1964996Y-3144428D01*
G37*
G36*
G01X2096873Y-1079318D02*
G01X1991260Y-1067837D01*
G01X1948384Y-1165043D01*
G01X1905509Y-1067837D01*
G01X1799896Y-1079318D01*
G01X1862659Y-993593D01*
G01X1822937Y-939338D01*
G01X1854430Y-939338D01*
G01X1894130Y-993593D01*
G01X1854430Y-1047847D01*
G01X1921257Y-1040583D01*
G01X1921257Y-1040583D01*
G01X1948384Y-1102076D01*
G01X1975512Y-1040583D01*
G01X2042339Y-1047847D01*
G01X2002639Y-993593D01*
G01X2042314Y-939364D01*
G01X1975486Y-946628D01*
G01X1948384Y-885109D01*
G01X1921257Y-946603D01*
G01X1854430Y-939338D01*
G01X1822937Y-939338D01*
G01X1799896Y-907868D01*
G01X1905535Y-919349D01*
G01X1948384Y-822143D01*
G01X1991260Y-919349D01*
G01X2096873Y-907868D01*
G01X2034109Y-993593D01*
G01X2096873Y-1079318D01*
G37*
G36*
G01X1967879Y34987D02*
G01X1960139Y34398D01*
G01X1952296Y34200D01*
G01X1944453Y34398D01*
G01X1936713Y34987D01*
G01X1929085Y35956D01*
G01X1921580Y37296D01*
G01X1906974Y41051D01*
G01X1892972Y46175D01*
G01X1879650Y52592D01*
G01X1867084Y60226D01*
G01X1855352Y68998D01*
G01X1844530Y78834D01*
G01X1834694Y89656D01*
G01X1825922Y101389D01*
G01X1818288Y113954D01*
G01X1811871Y127276D01*
G01X1806747Y141278D01*
G01X1802992Y155884D01*
G01X1801652Y163389D01*
G01X1800683Y171017D01*
G01X1800094Y178757D01*
G01X1799896Y186600D01*
G01X1825296Y186600D01*
G01X1825953Y173634D01*
G01X1827881Y161037D01*
G01X1831015Y148876D01*
G01X1835292Y137213D01*
G01X1840647Y126114D01*
G01X1847015Y115643D01*
G01X1854333Y105863D01*
G01X1862536Y96840D01*
G01X1871559Y88637D01*
G01X1881339Y81319D01*
G01X1891810Y74951D01*
G01X1902909Y69596D01*
G01X1914572Y65319D01*
G01X1926733Y62185D01*
G01X1926733Y62185D01*
G01X1939330Y60257D01*
G01X1952296Y59600D01*
G01X1965263Y60257D01*
G01X1977859Y62185D01*
G01X1990020Y65319D01*
G01X2001683Y69596D01*
G01X2012782Y74951D01*
G01X2023254Y81319D01*
G01X2033033Y88637D01*
G01X2042056Y96840D01*
G01X2050259Y105863D01*
G01X2057577Y115643D01*
G01X2063945Y126114D01*
G01X2069300Y137213D01*
G01X2073577Y148876D01*
G01X2076711Y161037D01*
G01X2078639Y173634D01*
G01X2079296Y186600D01*
G01X2078639Y199567D01*
G01X2076711Y212163D01*
G01X2073577Y224324D01*
G01X2069300Y235987D01*
G01X2063945Y247086D01*
G01X2057577Y257558D01*
G01X2050259Y267337D01*
G01X2042056Y276361D01*
G01X2033033Y284563D01*
G01X2023254Y291881D01*
G01X2012782Y298249D01*
G01X2001683Y303604D01*
G01X1990020Y307881D01*
G01X1977859Y311015D01*
G01X1965263Y312943D01*
G01X1952296Y313600D01*
G01X1939330Y312943D01*
G01X1926733Y311015D01*
G01X1914572Y307881D01*
G01X1902909Y303604D01*
G01X1891810Y298249D01*
G01X1881339Y291881D01*
G01X1871559Y284563D01*
G01X1862536Y276361D01*
G01X1854333Y267337D01*
G01X1847015Y257558D01*
G01X1840647Y247086D01*
G01X1835292Y235987D01*
G01X1831015Y224324D01*
G01X1827881Y212163D01*
G01X1825953Y199567D01*
G01X1825296Y186600D01*
G01X1799896Y186600D01*
G01X1800094Y194443D01*
G01X1800683Y202183D01*
G01X1801652Y209811D01*
G01X1802992Y217316D01*
G01X1806747Y231922D01*
G01X1811871Y245924D01*
G01X1818288Y259246D01*
G01X1825922Y271812D01*
G01X1834694Y283544D01*
G01X1844530Y294366D01*
G01X1855352Y304202D01*
G01X1867084Y312975D01*
G01X1879650Y320608D01*
G01X1892972Y327025D01*
G01X1906974Y332149D01*
G01X1921580Y335904D01*
G01X1929085Y337244D01*
G01X1936713Y338213D01*
G01X1944453Y338802D01*
G01X1952296Y339000D01*
G01X1960139Y338802D01*
G01X1967879Y338213D01*
G01X1975507Y337244D01*
G01X1983012Y335904D01*
G01X1997618Y332149D01*
G01X2011620Y327025D01*
G01X2024942Y320608D01*
G01X2037508Y312975D01*
G01X2049240Y304202D01*
G01X2060062Y294366D01*
G01X2069898Y283544D01*
G01X2078670Y271812D01*
G01X2086304Y259246D01*
G01X2092721Y245924D01*
G01X2097845Y231922D01*
G01X2101600Y217316D01*
G01X2102940Y209811D01*
G01X2103909Y202183D01*
G01X2104498Y194443D01*
G01X2104696Y186600D01*
G01X2104498Y178757D01*
G01X2103909Y171017D01*
G01X2102940Y163389D01*
G01X2101600Y155884D01*
G01X2097845Y141278D01*
G01X2092721Y127276D01*
G01X2086304Y113954D01*
G01X2078670Y101389D01*
G01X2069898Y89656D01*
G01X2060062Y78834D01*
G01X2049240Y68998D01*
G01X2037508Y60226D01*
G01X2024942Y52592D01*
G01X2011620Y46175D01*
G01X1997618Y41051D01*
G01X1983012Y37296D01*
G01X1975507Y35956D01*
G01X1967879Y34987D01*
G37*
G36*
G01X2104696Y-2204951D02*
G01X2021587Y-2204951D01*
G01X2021587Y-2288086D01*
G01X1883030Y-2288086D01*
G01X1883030Y-2204977D01*
G01X1799896Y-2204977D01*
G01X1799896Y-2091820D01*
G01X1825296Y-2091820D01*
G01X1825296Y-2179551D01*
G01X1908430Y-2179551D01*
G01X1908430Y-2262686D01*
G01X1908430Y-2262686D01*
G01X1996162Y-2262686D01*
G01X1996162Y-2179577D01*
G01X2079296Y-2179577D01*
G01X2079296Y-2091820D01*
G01X1996162Y-2091820D01*
G01X1996162Y-2008686D01*
G01X1908430Y-2008686D01*
G01X1908430Y-2091820D01*
G01X1825296Y-2091820D01*
G01X1799896Y-2091820D01*
G01X1799896Y-2066420D01*
G01X1883030Y-2066420D01*
G01X1883030Y-1983286D01*
G01X2021562Y-1983286D01*
G01X2021562Y-2066420D01*
G01X2104696Y-2066420D01*
G01X2104696Y-2204951D01*
G37*
G36*
G01X2104696Y-1402714D02*
G01X2034668Y-1555114D01*
G01X2104696Y-1707514D01*
G01X1952296Y-1637486D01*
G01X1799896Y-1707514D01*
G01X1823659Y-1655800D01*
G01X1851610Y-1655800D01*
G01X1941679Y-1614398D01*
G01X1952296Y-1609521D01*
G01X1962913Y-1614398D01*
G01X2052982Y-1655800D01*
G01X2011580Y-1565731D01*
G01X2006703Y-1555114D01*
G01X2011580Y-1544497D01*
G01X2052982Y-1454429D01*
G01X1962913Y-1495831D01*
G01X1952296Y-1500707D01*
G01X1941679Y-1495831D01*
G01X1851610Y-1454429D01*
G01X1893012Y-1544497D01*
G01X1897889Y-1555114D01*
G01X1897889Y-1555114D01*
G01X1893012Y-1565731D01*
G01X1851610Y-1655800D01*
G01X1823659Y-1655800D01*
G01X1869924Y-1555114D01*
G01X1799896Y-1402714D01*
G01X1952296Y-1472742D01*
G01X2104696Y-1402714D01*
G37*
G36*
G01X1799896Y-241571D02*
G01X2104696Y-241571D01*
G01X1952296Y-505528D01*
G01X1814561Y-266971D01*
G01X1843889Y-266971D01*
G01X1952296Y-454728D01*
G01X2060703Y-266971D01*
G01X2060703Y-266971D01*
G01X1843889Y-266971D01*
G01X1814561Y-266971D01*
G01X1799896Y-241571D01*
G37*
G36*
G01X2079296Y-2843257D02*
G01X1977696Y-2843257D01*
G01X1939596Y-2767057D01*
G01X1901496Y-2843257D01*
G01X1799896Y-2843257D01*
G01X1799896Y-2817857D01*
G01X1825296Y-2817857D01*
G01X1885799Y-2817857D01*
G01X1916863Y-2755703D01*
G01X1939596Y-2710263D01*
G01X1962329Y-2755703D01*
G01X1993393Y-2817857D01*
G01X2053896Y-2817857D01*
G01X2053896Y-2757354D01*
G01X1991742Y-2726265D01*
G01X1946302Y-2703557D01*
G01X1991742Y-2680849D01*
G01X2053896Y-2649760D01*
G01X2053896Y-2589257D01*
G01X1993393Y-2589257D01*
G01X1962329Y-2651411D01*
G01X1939596Y-2696851D01*
G01X1916863Y-2651411D01*
G01X1885799Y-2589257D01*
G01X1825296Y-2589257D01*
G01X1825296Y-2649760D01*
G01X1887450Y-2680849D01*
G01X1932890Y-2703557D01*
G01X1887450Y-2726265D01*
G01X1825296Y-2757354D01*
G01X1825296Y-2817857D01*
G01X1825296Y-2817857D01*
G01X1799896Y-2817857D01*
G01X1799896Y-2741657D01*
G01X1876096Y-2703557D01*
G01X1799896Y-2665457D01*
G01X1799896Y-2563857D01*
G01X1901496Y-2563857D01*
G01X1939596Y-2640057D01*
G01X1977696Y-2563857D01*
G01X2079296Y-2563857D01*
G01X2079296Y-2665457D01*
G01X2003096Y-2703557D01*
G01X2079296Y-2741657D01*
G01X2079296Y-2843257D01*
G37*
G36*
G01X1799896Y919572D02*
G01X2079296Y919572D01*
G01X2079296Y640172D01*
G01X1799896Y640172D01*
G01X1799896Y894172D01*
G01X1825296Y894172D01*
G01X1825296Y665572D01*
G01X2053896Y665572D01*
G01X2053896Y894172D01*
G01X2053896Y894172D01*
G01X1825296Y894172D01*
G01X1799896Y894172D01*
G01X1799896Y919572D01*
G37*
G36*
G01X1799896Y-3725000D02*
G01X2079296Y-3725000D01*
G01X2079296Y-4004400D01*
G01X1799896Y-4004400D01*
G01X1799896Y-3750400D01*
G01X1825296Y-3750400D01*
G01X1825296Y-3979000D01*
G01X2053896Y-3979000D01*
G01X2053896Y-3750400D01*
G01X2053896Y-3750400D01*
G01X1825296Y-3750400D01*
G01X1799896Y-3750400D01*
G01X1799896Y-3725000D01*
G37*
G36*
G01X1850696Y-3775800D02*
G01X2028496Y-3775800D01*
G01X2028496Y-3953600D01*
G01X1850696Y-3953600D01*
G01X1850696Y-3928200D01*
G01X1876096Y-3928200D01*
G01X2003096Y-3928200D01*
G01X2003096Y-3801200D01*
G01X1876096Y-3801200D01*
G01X1876096Y-3928200D01*
G01X1876096Y-3928200D01*
G01X1850696Y-3928200D01*
G01X1850696Y-3775800D01*
G37*

G04 PolygonModel Start*
G54D20*
G01X1509610Y-4160428D02*
G01X18216787Y-4160428D01*
G01X1509610Y-3579857D02*
G01X18216787Y-3579857D01*
G01X1509610Y-2999286D02*
G01X18216787Y-2999286D01*
G01X1509610Y-2418714D02*
G01X18216787Y-2418714D01*
G01X1509610Y-1838143D02*
G01X18216787Y-1838143D01*
G01X1509610Y-1257571D02*
G01X18216787Y-1257571D01*
G01X1509610Y-677000D02*
G01X18216787Y-677000D01*
G01X1509610Y-96428D02*
G01X18216787Y-96428D01*
G01X1509610Y484143D02*
G01X18216787Y484143D01*
G01X1509610Y1064714D02*
G01X18216787Y1064714D01*
G01X1509610Y1645286D02*
G01X18216787Y1645286D01*
G01X1509610Y1645286D02*
G01X1509610Y-4135028D01*
G01X2961039Y1645286D02*
G01X2961039Y-4135028D01*
G01X4375202Y1645286D02*
G01X4375202Y-4135028D01*
G01X8257483Y1645286D02*
G01X8257483Y-4135028D01*
G01X9718890Y1645286D02*
G01X9718890Y-4135028D01*
G01X11150071Y1645286D02*
G01X11150071Y-4135028D01*
G01X12819251Y1645286D02*
G01X12819251Y-4135028D01*
G01X14738620Y1645286D02*
G01X14738620Y-4135028D01*
G01X18216787Y1645286D02*
G01X18216787Y-4135028D01*

M02*

