G04 Layer: InnerLayer1*
G04 EasyEDA Pro v3.2.148, 2026-08-18 08:28:43*
G04 Gerber Generator version 0.3*
G04 Scale: 100 percent, Rotated: No, Reflected: No*
G04 Dimensions in millimeters*
G04 Leading zeros omitted, absolute positions, 4 integers and 5 decimals*
G04 Generated by one-click*
G04 Object Configs: Pad,Via,Track,Text,Image,Dimension,BoardOutline,BoardCutout,CopperFilled,SolidRegion,FPCStiffener,Line,PlaneZone,ComponentProperty,ComponentSilkscreen,TearDrop*
G04 Layer Configs: 1,15,16,2,3,4,5,6,7,8,9,10,11,13,14,56*
G04 Copper Areas: 2*
%FSLAX45Y45*%
%MOMM*%
%AMRoundRect*1,1,$1,$2,$3*1,1,$1,$4,$5*1,1,$1,0-$2,0-$3*1,1,$1,0-$4,0-$5*20,1,$1,$2,$3,$4,$5,0*20,1,$1,$4,$5,0-$2,0-$3,0*20,1,$1,0-$2,0-$3,0-$4,0-$5,0*20,1,$1,0-$4,0-$5,$2,$3,0*4,1,4,$2,$3,$4,$5,0-$2,0-$3,0-$4,0-$5,$2,$3,0*%
%ADD10C,0.2032*%
%ADD11C,0.2*%
%ADD12RoundRect,0.16X-0.32X0.67X0.32X0.67*%
%ADD13RoundRect,1.0X-1.25X0.75X1.25X0.75*%
%ADD14RoundRect,0.16X-0.67X-0.32X-0.67X0.32*%
%ADD15C,1.0*%
%ADD16RoundRect,1.2X-1.15X0.9X1.15X0.9*%
%ADD17O,1.1X2.0*%
%ADD18O,1.2020X1.8*%
%ADD19O,1.2X1.8*%
%ADD20C,0.45*%
%ADD21C,0.16*%
G75*


G04 Copper Start*
G36*
G01X-3515778Y973291D02*
G01X-3565635Y973291D01*
G01X-3563555Y982985D01*
G01X-3562856Y992876D01*
G01X-3562857Y1052882D01*
G01X-3564194Y1061799D01*
G01X-3568087Y1069933D01*
G01X-3574193Y1076567D01*
G01X-3581977Y1081120D01*
G01X-3591838Y1089666D01*
G01X-1603314Y1089666D01*
G01X-1601511Y1075971D01*
G01X-1596225Y1063209D01*
G01X-1587816Y1052250D01*
G01X-1576857Y1043841D01*
G01X-1564095Y1038555D01*
G01X-1550400Y1036752D01*
G01X-1536705Y1038555D01*
G01X-1523943Y1043841D01*
G01X-1512984Y1052250D01*
G01X-1504575Y1063209D01*
G01X-1499289Y1075971D01*
G01X-1497486Y1089666D01*
G01X-1499289Y1103362D01*
G01X-1504575Y1116123D01*
G01X-1512984Y1127082D01*
G01X-1523943Y1135491D01*
G01X-1536705Y1140777D01*
G01X-1550400Y1142580D01*
G01X-1564095Y1140777D01*
G01X-1576857Y1135491D01*
G01X-1587816Y1127082D01*
G01X-1596225Y1116123D01*
G01X-1601511Y1103362D01*
G01X-1603314Y1089666D01*
G01X-1603314Y1089666D01*
G01X-3591838Y1089666D01*
G01X-3592814Y1090512D01*
G01X-3605330Y1097514D01*
G01X-3619005Y1101835D01*
G01X-3633271Y1103295D01*
G01X-3773324Y1103291D01*
G01X-3778094Y1104593D01*
G01X-3781580Y1108099D01*
G01X-3782856Y1112876D01*
G01X-3782237Y1261550D01*
G01X-3274499Y1261550D01*
G01X-3272696Y1247855D01*
G01X-3267410Y1235093D01*
G01X-3259000Y1224134D01*
G01X-3248042Y1215725D01*
G01X-3235280Y1210439D01*
G01X-3221585Y1208636D01*
G01X-3207889Y1210439D01*
G01X-3195128Y1215725D01*
G01X-3184169Y1224134D01*
G01X-3175760Y1235093D01*
G01X-3170561Y1247644D01*
G01X-3086728Y1247644D01*
G01X-3084925Y1233949D01*
G01X-3079638Y1221187D01*
G01X-3071229Y1210229D01*
G01X-3060271Y1201820D01*
G01X-3047509Y1196533D01*
G01X-3033814Y1194730D01*
G01X-3020118Y1196533D01*
G01X-3011118Y1200262D01*
G01X-2663621Y1200262D01*
G01X-2661818Y1186566D01*
G01X-2656532Y1173804D01*
G01X-2648123Y1162846D01*
G01X-2637164Y1154437D01*
G01X-2624402Y1149150D01*
G01X-2610707Y1147347D01*
G01X-2597012Y1149150D01*
G01X-2584250Y1154437D01*
G01X-2573291Y1162846D01*
G01X-2564882Y1173804D01*
G01X-2559596Y1186566D01*
G01X-2557793Y1200262D01*
G01X-2559596Y1213957D01*
G01X-2564882Y1226719D01*
G01X-2573291Y1237677D01*
G01X-2584250Y1246086D01*
G01X-2597012Y1251373D01*
G01X-2610707Y1253176D01*
G01X-2624402Y1251373D01*
G01X-2637164Y1246086D01*
G01X-2648123Y1237677D01*
G01X-2656532Y1226719D01*
G01X-2661818Y1213957D01*
G01X-2663621Y1200262D01*
G01X-2663621Y1200262D01*
G01X-3011118Y1200262D01*
G01X-3007357Y1201820D01*
G01X-2996398Y1210229D01*
G01X-2987989Y1221187D01*
G01X-2982703Y1233949D01*
G01X-2980900Y1247644D01*
G01X-2982487Y1259700D01*
G01X-2868114Y1259700D01*
G01X-2866311Y1246005D01*
G01X-2861025Y1233243D01*
G01X-2852616Y1222284D01*
G01X-2841657Y1213875D01*
G01X-2828895Y1208589D01*
G01X-2815200Y1206786D01*
G01X-2801505Y1208589D01*
G01X-2788743Y1213875D01*
G01X-2777784Y1222284D01*
G01X-2769375Y1233243D01*
G01X-2764089Y1246005D01*
G01X-2762286Y1259700D01*
G01X-2764089Y1273395D01*
G01X-2769375Y1286157D01*
G01X-2777784Y1297116D01*
G01X-2788743Y1305525D01*
G01X-2801505Y1310811D01*
G01X-2815200Y1312614D01*
G01X-2828895Y1310811D01*
G01X-2841657Y1305525D01*
G01X-2852616Y1297116D01*
G01X-2861025Y1286157D01*
G01X-2866311Y1273395D01*
G01X-2868114Y1259700D01*
G01X-2868114Y1259700D01*
G01X-2982487Y1259700D01*
G01X-2982703Y1261340D01*
G01X-2987989Y1274101D01*
G01X-2996398Y1285060D01*
G01X-3007357Y1293469D01*
G01X-3020118Y1298755D01*
G01X-3033814Y1300558D01*
G01X-3047509Y1298755D01*
G01X-3060271Y1293469D01*
G01X-3071229Y1285060D01*
G01X-3079638Y1274101D01*
G01X-3084925Y1261340D01*
G01X-3086728Y1247644D01*
G01X-3086728Y1247644D01*
G01X-3170561Y1247644D01*
G01X-3170474Y1247855D01*
G01X-3168671Y1261550D01*
G01X-3170474Y1275245D01*
G01X-3175760Y1288007D01*
G01X-3184169Y1298966D01*
G01X-3195128Y1307375D01*
G01X-3207889Y1312661D01*
G01X-3221585Y1314464D01*
G01X-3235280Y1312661D01*
G01X-3248042Y1307375D01*
G01X-3259000Y1298966D01*
G01X-3267410Y1288007D01*
G01X-3272696Y1275245D01*
G01X-3274499Y1261550D01*
G01X-3274499Y1261550D01*
G01X-3782237Y1261550D01*
G01X-3781856Y1352875D01*
G01X-3780572Y1357668D01*
G01X-3777063Y1361178D01*
G01X-3772270Y1362462D01*
G01X-3762767Y1363985D01*
G01X-3627660Y1363959D01*
G01X-3621308Y1364629D01*
G01X-3606410Y1365939D01*
G01X-3592267Y1370800D01*
G01X-3582552Y1377087D01*
G01X-2533820Y1377087D01*
G01X-2532017Y1363392D01*
G01X-2526731Y1350630D01*
G01X-2518322Y1339672D01*
G01X-2507363Y1331263D01*
G01X-2494601Y1325976D01*
G01X-2480906Y1324173D01*
G01X-2467210Y1325976D01*
G01X-2454449Y1331263D01*
G01X-2443490Y1339672D01*
G01X-2435081Y1350630D01*
G01X-2429795Y1363392D01*
G01X-2427992Y1377087D01*
G01X-2428607Y1381761D01*
G01X-1962218Y1381761D01*
G01X-1962218Y1247761D01*
G01X-1960338Y1235891D01*
G01X-1954882Y1225182D01*
G01X-1946384Y1216684D01*
G01X-1935675Y1211228D01*
G01X-1923804Y1209347D01*
G01X-1859804Y1209347D01*
G01X-1849560Y1210739D01*
G01X-1840057Y1214812D01*
G01X-1831985Y1221271D01*
G01X-1823853Y1214609D01*
G01X-1814219Y1210401D01*
G01X-1803804Y1208962D01*
G01X-1803804Y1208962D01*
G01X-1739804Y1208962D01*
G01X-1727934Y1210843D01*
G01X-1717225Y1216299D01*
G01X-1708727Y1224797D01*
G01X-1703271Y1235506D01*
G01X-1701390Y1247376D01*
G01X-1701390Y1381376D01*
G01X-1703271Y1393247D01*
G01X-1708727Y1403955D01*
G01X-1717225Y1412454D01*
G01X-1727934Y1417910D01*
G01X-1739804Y1419790D01*
G01X-1803804Y1419790D01*
G01X-1814049Y1418399D01*
G01X-1823551Y1414326D01*
G01X-1831624Y1407866D01*
G01X-1839756Y1414529D01*
G01X-1849390Y1418737D01*
G01X-1859804Y1420175D01*
G01X-1923804Y1420175D01*
G01X-1935675Y1418295D01*
G01X-1946384Y1412839D01*
G01X-1954882Y1404341D01*
G01X-1960338Y1393632D01*
G01X-1962218Y1381761D01*
G01X-2428607Y1381761D01*
G01X-2429795Y1390783D01*
G01X-2435081Y1403544D01*
G01X-2443490Y1414503D01*
G01X-2454449Y1422912D01*
G01X-2467210Y1428198D01*
G01X-2480906Y1430001D01*
G01X-2494601Y1428198D01*
G01X-2507363Y1422912D01*
G01X-2518322Y1414503D01*
G01X-2526731Y1403544D01*
G01X-2532017Y1390783D01*
G01X-2533820Y1377087D01*
G01X-2533820Y1377087D01*
G01X-3582552Y1377087D01*
G01X-3579712Y1378925D01*
G01X-3569484Y1389836D01*
G01X-3562186Y1402889D01*
G01X-3558247Y1417316D01*
G01X-3557901Y1432267D01*
G01X-3553905Y1433959D01*
G01X-3540886Y1433322D01*
G01X-3531375Y1434364D01*
G01X-3482597Y1434364D01*
G01X-3474216Y1435541D01*
G01X-3459898Y1438077D01*
G01X-3446407Y1443500D01*
G01X-3440569Y1447400D01*
G01X-3243601Y1447400D01*
G01X-3241773Y1432344D01*
G01X-3236395Y1418163D01*
G01X-3227779Y1405681D01*
G01X-3216427Y1395623D01*
G01X-3202997Y1388575D01*
G01X-3188271Y1384945D01*
G01X-3173105Y1384945D01*
G01X-3158379Y1388575D01*
G01X-3144949Y1395623D01*
G01X-3133597Y1405681D01*
G01X-3124981Y1418163D01*
G01X-3119603Y1432344D01*
G01X-3117775Y1447400D01*
G01X-3073599Y1447400D01*
G01X-3071771Y1432344D01*
G01X-3066393Y1418163D01*
G01X-3057777Y1405681D01*
G01X-3046425Y1395623D01*
G01X-3032995Y1388575D01*
G01X-3018269Y1384945D01*
G01X-3003103Y1384945D01*
G01X-2988377Y1388575D01*
G01X-2974947Y1395623D01*
G01X-2963595Y1405681D01*
G01X-2954979Y1418163D01*
G01X-2949601Y1432344D01*
G01X-2947773Y1447400D01*
G01X-2949601Y1462456D01*
G01X-2954979Y1476637D01*
G01X-2962082Y1486928D01*
G01X-2167268Y1486928D01*
G01X-2165465Y1473233D01*
G01X-2160179Y1460471D01*
G01X-2151770Y1449512D01*
G01X-2140811Y1441103D01*
G01X-2128049Y1435817D01*
G01X-2114354Y1434014D01*
G01X-2100658Y1435817D01*
G01X-2087897Y1441103D01*
G01X-2076938Y1449512D01*
G01X-2068529Y1460471D01*
G01X-2063243Y1473233D01*
G01X-2061440Y1486928D01*
G01X-2063243Y1500623D01*
G01X-2068529Y1513385D01*
G01X-2076938Y1524344D01*
G01X-2087897Y1532753D01*
G01X-2100658Y1538039D01*
G01X-2114354Y1539842D01*
G01X-2128049Y1538039D01*
G01X-2140811Y1532753D01*
G01X-2151770Y1524344D01*
G01X-2160179Y1513385D01*
G01X-2165465Y1500623D01*
G01X-2167268Y1486928D01*
G01X-2167268Y1486928D01*
G01X-2962082Y1486928D01*
G01X-2963595Y1489119D01*
G01X-2974947Y1499177D01*
G01X-2988377Y1506225D01*
G01X-3003103Y1509855D01*
G01X-3018269Y1509855D01*
G01X-3032995Y1506225D01*
G01X-3046425Y1499177D01*
G01X-3057777Y1489119D01*
G01X-3066393Y1476637D01*
G01X-3071771Y1462456D01*
G01X-3073599Y1447400D01*
G01X-3073599Y1447400D01*
G01X-3117775Y1447400D01*
G01X-3117775Y1447400D01*
G01X-3119603Y1462456D01*
G01X-3124981Y1476637D01*
G01X-3133597Y1489119D01*
G01X-3144949Y1499177D01*
G01X-3158379Y1506225D01*
G01X-3173105Y1509855D01*
G01X-3188271Y1509855D01*
G01X-3202997Y1506225D01*
G01X-3216427Y1499177D01*
G01X-3227779Y1489119D01*
G01X-3236395Y1476637D01*
G01X-3241773Y1462456D01*
G01X-3243601Y1447400D01*
G01X-3243601Y1447400D01*
G01X-3440569Y1447400D01*
G01X-3434316Y1451578D01*
G01X-3424143Y1461967D01*
G01X-3416321Y1474225D01*
G01X-3411183Y1487828D01*
G01X-3408949Y1502196D01*
G01X-3407610Y1508606D01*
G01X-3407161Y1511450D01*
G01X-3405266Y1518172D01*
G01X-3401262Y1523896D01*
G01X-3395598Y1527982D01*
G01X-3388903Y1529976D01*
G01X-3379887Y1529551D01*
G01X-3372147Y1530178D01*
G01X-2902969Y1531351D01*
G01X-2888368Y1529017D01*
G01X-2873632Y1530227D01*
G01X-2859608Y1534914D01*
G01X-2847105Y1542807D01*
G01X-2836842Y1553452D01*
G01X-2829411Y1566235D01*
G01X-2827029Y1571745D01*
G01X-2825775Y1577615D01*
G01X-2824433Y1588406D01*
G01X-2825008Y1599265D01*
G01X-2820787Y1606463D01*
G01X-2814350Y1611773D01*
G01X-2806482Y1614550D01*
G01X-2799282Y1611640D01*
G01X-2791579Y1610649D01*
G01X-1492550Y1610649D01*
G01X-1482572Y1612332D01*
G01X-1474231Y1611246D01*
G01X-1466724Y1607452D01*
G01X-1460902Y1601380D01*
G01X-1457427Y1593719D01*
G01X-1456710Y1591375D01*
G01X-1456710Y1520353D01*
G01X-1456464Y1502780D01*
G01X-1452743Y1485605D01*
G01X-1445695Y1469506D01*
G01X-1435599Y1455121D01*
G01X-1422855Y1443020D01*
G01X-1407968Y1433681D01*
G01X-1401690Y1428861D01*
G01X-1394382Y1425824D01*
G01X-1386537Y1424775D01*
G01X-1374354Y1424746D01*
G01X-1372949Y1424775D01*
G01X-1213101Y1424775D01*
G01X-1211388Y1424751D01*
G01X-1209606Y1424775D01*
G01X-1197805Y1423098D01*
G01X-1186899Y1418288D01*
G01X-1177703Y1410705D01*
G01X-1170905Y1400914D01*
G01X-1167011Y1389649D01*
G01X-1166314Y1377750D01*
G01X-1168865Y1366107D01*
G01X-1174474Y1355589D01*
G01X-1382587Y1152308D01*
G01X-1382830Y1152067D01*
G01X-1400030Y1132248D01*
G01X-1414268Y1110205D01*
G01X-1425261Y1086377D01*
G01X-1432789Y1061238D01*
G01X-1436703Y1035290D01*
G01X-1741072Y1035290D01*
G01X-1753485Y1042954D01*
G01X-1767519Y1046938D01*
G01X-1782108Y1046938D01*
G01X-1796142Y1042954D01*
G01X-1808555Y1035290D01*
G01X-2461043Y1035290D01*
G01X-2464128Y1034810D01*
G01X-2486203Y1025717D01*
G01X-2506491Y1013134D01*
G01X-2524445Y997399D01*
G01X-2539581Y978936D01*
G01X-2551491Y958245D01*
G01X-2559852Y935884D01*
G01X-2564440Y912455D01*
G01X-2565131Y888591D01*
G01X-2561905Y864936D01*
G01X-2554851Y842129D01*
G01X-2544158Y820784D01*
G01X-2530115Y801477D01*
G01X-2513100Y784730D01*
G01X-2493574Y770994D01*
G01X-2472062Y760640D01*
G01X-2470815Y760252D01*
G01X-2120019Y675257D01*
G01X-2118169Y661294D01*
G01X-2112702Y648313D01*
G01X-2104003Y637235D01*
G01X-2092690Y628844D01*
G01X-2079565Y623735D01*
G01X-2065556Y622270D01*
G01X-2051657Y624552D01*
G01X-2038853Y630421D01*
G01X-2028050Y639459D01*
G01X-2020015Y651027D01*
G01X-1962062Y636986D01*
G01X-1961385Y623841D01*
G01X-1957485Y611270D01*
G01X-1950604Y600050D01*
G01X-1941165Y590876D01*
G01X-1929755Y584315D01*
G01X-1917078Y580774D01*
G01X-1903920Y580471D01*
G01X-1880289Y567083D01*
G01X-1855251Y556560D01*
G01X-1829151Y549048D01*
G01X-1829151Y549048D01*
G01X-1672691Y514797D01*
G01X-1515836Y482403D01*
G01X-1358607Y451870D01*
G01X-1358607Y451870D01*
G01X-1358607Y451870D01*
G01X-1342716Y447201D01*
G01X-1328068Y439469D01*
G01X-1315246Y428984D01*
G01X-1304760Y416162D01*
G01X-1297029Y401514D01*
G01X-1292359Y385622D01*
G01X-1292359Y385622D01*
G01X-1282308Y321880D01*
G01X-1276031Y257657D01*
G01X-1273550Y193176D01*
G01X-1274873Y128660D01*
G01X-1279997Y64334D01*
G01X-1279997Y64334D01*
G01X-1280817Y40010D01*
G01X-1277982Y15838D01*
G01X-1271556Y-7636D01*
G01X-1271556Y-71935D01*
G01X-1279923Y-81463D01*
G01X-1285783Y-92707D01*
G01X-1288799Y-105023D01*
G01X-1288799Y-117703D01*
G01X-1285783Y-130019D01*
G01X-1279923Y-141263D01*
G01X-1271556Y-150791D01*
G01X-1271556Y-180435D01*
G01X-1276143Y-192126D01*
G01X-1277845Y-204569D01*
G01X-1276568Y-217062D01*
G01X-1272382Y-228903D01*
G01X-1288806Y-236094D01*
G01X-1303447Y-246443D01*
G01X-1315706Y-259526D01*
G01X-1325083Y-274808D01*
G01X-1331192Y-291664D01*
G01X-1333784Y-309405D01*
G01X-1333784Y-309405D01*
G01X-1338219Y-453171D01*
G01X-1338920Y-597003D01*
G01X-1338031Y-604914D01*
G01X-1338046Y-611934D01*
G01X-1341022Y-618292D01*
G01X-1346404Y-622800D01*
G01X-1353186Y-624615D01*
G01X-1353186Y-624615D01*
G01X-1418722Y-626156D01*
G01X-1484267Y-625054D01*
G01X-1549715Y-621310D01*
G01X-1614958Y-614929D01*
G01X-1614958Y-614929D01*
G01X-1670868Y-599552D01*
G01X-1725825Y-581053D01*
G01X-1725825Y-581053D01*
G01X-1760786Y-570065D01*
G01X-1796645Y-562506D01*
G01X-1833067Y-558444D01*
G01X-1869710Y-557919D01*
G01X-1906233Y-560935D01*
G01X-1942294Y-567463D01*
G01X-1977556Y-577444D01*
G01X-2011689Y-590784D01*
G01X-2011689Y-590784D01*
G01X-2047925Y-597445D01*
G01X-2084624Y-600694D01*
G01X-2121467Y-600502D01*
G01X-2121467Y-600502D01*
G01X-2131247Y-599090D01*
G01X-2131247Y-599090D01*
G01X-2237601Y-596382D01*
G01X-2343870Y-591321D01*
G01X-2450001Y-583911D01*
G01X-2450001Y-583911D01*
G01X-2460176Y-581473D01*
G01X-2469120Y-576042D01*
G01X-2475976Y-568137D01*
G01X-2480087Y-558515D01*
G01X-2481061Y-548097D01*
G01X-2479793Y-501176D01*
G01X-2124120Y-501176D01*
G01X-2122317Y-514871D01*
G01X-2117031Y-527633D01*
G01X-2108622Y-538592D01*
G01X-2097663Y-547001D01*
G01X-2084901Y-552287D01*
G01X-2071206Y-554090D01*
G01X-2057511Y-552287D01*
G01X-2044749Y-547001D01*
G01X-2033790Y-538592D01*
G01X-2025381Y-527633D01*
G01X-2020095Y-514871D01*
G01X-2018292Y-501176D01*
G01X-2020095Y-487481D01*
G01X-2025381Y-474719D01*
G01X-2033790Y-463760D01*
G01X-2044749Y-455351D01*
G01X-2057511Y-450065D01*
G01X-2071206Y-448262D01*
G01X-2084901Y-450065D01*
G01X-2097663Y-455351D01*
G01X-2108622Y-463760D01*
G01X-2117031Y-474719D01*
G01X-2122317Y-487481D01*
G01X-2124120Y-501176D01*
G01X-2124120Y-501176D01*
G01X-2479793Y-501176D01*
G01X-2479759Y-499929D01*
G01X-2481869Y-451791D01*
G01X-2487379Y-403922D01*
G01X-2496263Y-356563D01*
G01X-2508476Y-309952D01*
G01X-2497582Y-319540D01*
G01X-2484492Y-325808D01*
G01X-2470193Y-328284D01*
G01X-2455758Y-326782D01*
G01X-2442275Y-321415D01*
G01X-2430756Y-312587D01*
G01X-2422069Y-300961D01*
G01X-2416868Y-287413D01*
G01X-2415542Y-272961D01*
G01X-2416984Y-265200D01*
G01X-2256114Y-265200D01*
G01X-2254311Y-278895D01*
G01X-2249025Y-291657D01*
G01X-2240616Y-302616D01*
G01X-2229657Y-311025D01*
G01X-2216895Y-316311D01*
G01X-2203200Y-318114D01*
G01X-2189505Y-316311D01*
G01X-2176743Y-311025D01*
G01X-2165784Y-302616D01*
G01X-2157375Y-291657D01*
G01X-2152089Y-278895D01*
G01X-2150286Y-265200D01*
G01X-2152089Y-251505D01*
G01X-2157375Y-238743D01*
G01X-2165784Y-227784D01*
G01X-2176743Y-219375D01*
G01X-2189505Y-214089D01*
G01X-2203200Y-212286D01*
G01X-2216895Y-214089D01*
G01X-2229657Y-219375D01*
G01X-2240616Y-227784D01*
G01X-2249025Y-238743D01*
G01X-2254311Y-251505D01*
G01X-2256114Y-265200D01*
G01X-2256114Y-265200D01*
G01X-2416984Y-265200D01*
G01X-2418193Y-258693D01*
G01X-2424620Y-245681D01*
G01X-2434340Y-234905D01*
G01X-2446623Y-227175D01*
G01X-2460543Y-223072D01*
G01X-2475055Y-222906D01*
G01X-2489066Y-226688D01*
G01X-2501522Y-234135D01*
G01X-2511487Y-244685D01*
G01X-2518211Y-257546D01*
G01X-2521188Y-271750D01*
G01X-2521188Y-271750D01*
G01X-2533851Y-239688D01*
G01X-2533851Y-239688D01*
G01X-2531165Y-226717D01*
G01X-2531784Y-213485D01*
G01X-2535670Y-200821D01*
G01X-2542579Y-189520D01*
G01X-2552079Y-180289D01*
G01X-2563574Y-173706D01*
G01X-2576344Y-170185D01*
G01X-2589588Y-169945D01*
G01X-2602477Y-173003D01*
G01X-2614202Y-179166D01*
G01X-2624029Y-188048D01*
G01X-2631343Y-199092D01*
G01X-2635684Y-211607D01*
G01X-2636781Y-224808D01*
G01X-2649814Y-229690D01*
G01X-2661123Y-237801D01*
G01X-2669926Y-248581D01*
G01X-2675614Y-261283D01*
G01X-2677794Y-275028D01*
G01X-2676314Y-288867D01*
G01X-2671277Y-301841D01*
G01X-2663032Y-313053D01*
G01X-2652149Y-321727D01*
G01X-2639380Y-327264D01*
G01X-2625610Y-329280D01*
G01X-2611790Y-327635D01*
G01X-2598877Y-322445D01*
G01X-2587763Y-314067D01*
G01X-2574714Y-358713D01*
G01X-2565140Y-404232D01*
G01X-2559100Y-450353D01*
G01X-2556628Y-496802D01*
G01X-2557739Y-543303D01*
G01X-2557300Y-562225D01*
G01X-2553642Y-580796D01*
G01X-2546872Y-598471D01*
G01X-2537189Y-614733D01*
G01X-2524876Y-629107D01*
G01X-2524876Y-629107D01*
G01X-2690248Y-619571D01*
G01X-2690248Y-619571D01*
G01X-2705517Y-616994D01*
G01X-2719963Y-611414D01*
G01X-2733000Y-603057D01*
G01X-2744102Y-592261D01*
G01X-2752819Y-579463D01*
G01X-2758800Y-565179D01*
G01X-2761803Y-549987D01*
G01X-2761706Y-534502D01*
G01X-2761204Y-525356D01*
G01X-2752109Y-535852D01*
G01X-2740596Y-543621D01*
G01X-2727458Y-548126D01*
G01X-2713601Y-549058D01*
G01X-2699979Y-546351D01*
G01X-2687530Y-540193D01*
G01X-2677112Y-531008D01*
G01X-2669443Y-519429D01*
G01X-2654996Y-519233D01*
G01X-2641141Y-515137D01*
G01X-2628911Y-507445D01*
G01X-2619216Y-496733D01*
G01X-2612781Y-483797D01*
G01X-2610085Y-469603D01*
G01X-2611328Y-455208D01*
G01X-2616419Y-441687D01*
G01X-2624977Y-430047D01*
G01X-2636365Y-421155D01*
G01X-2649734Y-415675D01*
G01X-2664086Y-414016D01*
G01X-2678352Y-416300D01*
G01X-2691469Y-422359D01*
G01X-2702458Y-431739D01*
G01X-2710499Y-443742D01*
G01X-2724065Y-443812D01*
G01X-2737167Y-447329D01*
G01X-2748944Y-454061D01*
G01X-2758623Y-463567D01*
G01X-2765566Y-475221D01*
G01X-2769318Y-488258D01*
G01X-2777574Y-474067D01*
G01X-2781288Y-465772D01*
G01X-2775260Y-453773D01*
G01X-2772445Y-440643D01*
G01X-2773027Y-427227D01*
G01X-2776968Y-414389D01*
G01X-2784013Y-402957D01*
G01X-2793709Y-393666D01*
G01X-2805431Y-387116D01*
G01X-2818425Y-383727D01*
G01X-2831854Y-383718D01*
G01X-2844852Y-387090D01*
G01X-2856583Y-393626D01*
G01X-2866291Y-402904D01*
G01X-2873351Y-414327D01*
G01X-2877308Y-427159D01*
G01X-2877907Y-440574D01*
G01X-2875110Y-453708D01*
G01X-2885160Y-458691D01*
G01X-2893933Y-465680D01*
G01X-2901036Y-474362D01*
G01X-2906149Y-484345D01*
G01X-2912116Y-473098D01*
G01X-2920597Y-463601D01*
G01X-2931101Y-456405D01*
G01X-2920219Y-448133D01*
G01X-2911819Y-437348D01*
G01X-2906462Y-424772D01*
G01X-2904505Y-411243D01*
G01X-2906080Y-397664D01*
G01X-2911081Y-384942D01*
G01X-2919174Y-373925D01*
G01X-2929819Y-365349D01*
G01X-2942306Y-359787D01*
G01X-2955801Y-357608D01*
G01X-2969404Y-358960D01*
G01X-2982206Y-363751D01*
G01X-2993354Y-371662D01*
G01X-3002104Y-382165D01*
G01X-3019494Y-392622D01*
G01X-3034525Y-406254D01*
G01X-3046626Y-422543D01*
G01X-3055337Y-440871D01*
G01X-3061104Y-462183D01*
G01X-3063325Y-484151D01*
G01X-3061940Y-506186D01*
G01X-3056986Y-527702D01*
G01X-3048596Y-548125D01*
G01X-3036993Y-566910D01*
G01X-3022486Y-583554D01*
G01X-3005464Y-597616D01*
G01X-3005464Y-597616D01*
G01X-2965312Y-624931D01*
G01X-2924555Y-651335D01*
G01X-3064874Y-650111D01*
G01X-3069463Y-636305D01*
G01X-3077638Y-624271D01*
G01X-3088782Y-614918D01*
G01X-3102051Y-608953D01*
G01X-3116443Y-606827D01*
G01X-3130871Y-608701D01*
G01X-3144242Y-614434D01*
G01X-3155547Y-623591D01*
G01X-3163931Y-635481D01*
G01X-3168760Y-649204D01*
G01X-3229914Y-648671D01*
G01X-3229097Y-635510D01*
G01X-3231561Y-622556D01*
G01X-3237150Y-610613D01*
G01X-3245519Y-600423D01*
G01X-3256148Y-592619D01*
G01X-3268376Y-587685D01*
G01X-3281445Y-585928D01*
G01X-3294542Y-587456D01*
G01X-3306855Y-592176D01*
G01X-3317618Y-599794D01*
G01X-3326164Y-609836D01*
G01X-3331961Y-621680D01*
G01X-3334650Y-634589D01*
G01X-3334063Y-647762D01*
G01X-3399309Y-647192D01*
G01X-3388961Y-638493D01*
G01X-3381155Y-627455D01*
G01X-3376401Y-614800D01*
G01X-3375008Y-601353D01*
G01X-3377069Y-587992D01*
G01X-3382448Y-575589D01*
G01X-3390795Y-564954D01*
G01X-3401563Y-556781D01*
G01X-3414052Y-551604D01*
G01X-3427444Y-549760D01*
G01X-3440867Y-551370D01*
G01X-3453444Y-556328D01*
G01X-3464354Y-564312D01*
G01X-3472884Y-574800D01*
G01X-3478479Y-587107D01*
G01X-3480773Y-600430D01*
G01X-3479615Y-613899D01*
G01X-3475083Y-626636D01*
G01X-3467471Y-637808D01*
G01X-3457276Y-646687D01*
G01X-3503970Y-646279D01*
G01X-3502039Y-635637D01*
G01X-3501392Y-624839D01*
G01X-3501827Y-619709D01*
G01X-3501828Y-589172D01*
G01X-3501392Y-584039D01*
G01X-3501392Y-574039D01*
G01X-3502169Y-563606D01*
G01X-3504483Y-553403D01*
G01X-3488759Y-549304D01*
G01X-3474180Y-542126D01*
G01X-3461342Y-532165D01*
G01X-3450769Y-519825D01*
G01X-3442892Y-505612D01*
G01X-3438033Y-490106D01*
G01X-3436392Y-473939D01*
G01X-3436392Y-323939D01*
G01X-3437968Y-308093D01*
G01X-3442637Y-292868D01*
G01X-3450214Y-278862D01*
G01X-3460402Y-266624D01*
G01X-3472803Y-256633D01*
G01X-3486928Y-249282D01*
G01X-3502226Y-244858D01*
G01X-3501391Y-234044D01*
G01X-3501388Y-230077D01*
G01X-3500458Y-214477D01*
G01X-3502844Y-199033D01*
G01X-3487429Y-194696D01*
G01X-3473179Y-187391D01*
G01X-3460659Y-177407D01*
G01X-3450365Y-165140D01*
G01X-3442706Y-151076D01*
G01X-3437986Y-135774D01*
G01X-3436392Y-119840D01*
G01X-3436392Y30160D01*
G01X-3437995Y46141D01*
G01X-3442743Y61484D01*
G01X-3450446Y75578D01*
G01X-3460796Y87860D01*
G01X-3473380Y97840D01*
G01X-3487696Y105120D01*
G01X-3503174Y109410D01*
G01X-3501391Y125156D01*
G01X-3501392Y134161D01*
G01X-3502169Y144593D01*
G01X-3504483Y154795D01*
G01X-3488759Y158895D01*
G01X-3474180Y166072D01*
G01X-3462468Y175160D01*
G01X-3309717Y175160D01*
G01X-3307914Y161465D01*
G01X-3302628Y148703D01*
G01X-3294219Y137745D01*
G01X-3283260Y129336D01*
G01X-3270498Y124049D01*
G01X-3256803Y122246D01*
G01X-3243108Y124049D01*
G01X-3230346Y129336D01*
G01X-3219387Y137745D01*
G01X-3210978Y148703D01*
G01X-3205692Y161465D01*
G01X-3203889Y175160D01*
G01X-3205692Y188856D01*
G01X-3210978Y201617D01*
G01X-3218442Y211344D01*
G01X-2709937Y211344D01*
G01X-2707433Y197876D01*
G01X-2701557Y185503D01*
G01X-2692701Y175053D01*
G01X-2681459Y167226D01*
G01X-2691454Y158078D01*
G01X-2698799Y146691D01*
G01X-2703010Y133812D01*
G01X-2703813Y120286D01*
G01X-2701155Y107000D01*
G01X-2695209Y94824D01*
G01X-2686366Y84558D01*
G01X-2675205Y76874D01*
G01X-2675847Y63729D01*
G01X-2673225Y50831D01*
G01X-2667501Y38980D01*
G01X-2659030Y28908D01*
G01X-2648335Y21239D01*
G01X-2648335Y21239D01*
G01X-2649573Y7040D01*
G01X-2646977Y-6974D01*
G01X-2640735Y-19786D01*
G01X-2631299Y-30468D01*
G01X-2643707Y-36587D01*
G01X-2654105Y-45712D01*
G01X-2661782Y-57221D01*
G01X-2666214Y-70326D01*
G01X-2667097Y-84132D01*
G01X-2664372Y-97695D01*
G01X-2658224Y-110088D01*
G01X-2649074Y-120464D01*
G01X-2637547Y-128114D01*
G01X-2624431Y-132514D01*
G01X-2610623Y-133364D01*
G01X-2597066Y-130606D01*
G01X-2584688Y-124429D01*
G01X-2574334Y-115254D01*
G01X-2566712Y-103708D01*
G01X-2562343Y-90582D01*
G01X-2561526Y-76772D01*
G01X-2564317Y-63222D01*
G01X-2570524Y-50858D01*
G01X-2579724Y-40526D01*
G01X-2568670Y-35284D01*
G01X-2559116Y-27643D01*
G01X-2551572Y-18013D01*
G01X-2546442Y-6907D01*
G01X-2543998Y5080D01*
G01X-2544373Y17308D01*
G01X-2547546Y29123D01*
G01X-2553347Y39894D01*
G01X-2561467Y49044D01*
G01X-2571471Y56085D01*
G01X-2570217Y69939D01*
G01X-2572617Y83642D01*
G01X-2578506Y96245D01*
G01X-2587475Y106878D01*
G01X-2598906Y114806D01*
G01X-2598279Y128153D01*
G01X-2601016Y141230D01*
G01X-2603524Y146300D01*
G01X-2189790Y146300D01*
G01X-2187364Y131987D01*
G01X-2181141Y118871D01*
G01X-2171587Y107941D01*
G01X-2159422Y100018D01*
G01X-2145562Y95700D01*
G01X-2131050Y95310D01*
G01X-2116979Y98879D01*
G01X-2104407Y106138D01*
G01X-2094280Y116540D01*
G01X-2087362Y129302D01*
G01X-2087327Y115238D01*
G01X-2083589Y101680D01*
G01X-2076410Y89586D01*
G01X-2066300Y79810D01*
G01X-2053971Y73042D01*
G01X-2040295Y69762D01*
G01X-2026238Y70200D01*
G01X-2022767Y56694D01*
G01X-2015889Y44563D01*
G01X-2006081Y34651D01*
G01X-1994024Y27645D01*
G01X-1980555Y24032D01*
G01X-1966611Y24063D01*
G01X-1953158Y27736D01*
G01X-1941133Y34795D01*
G01X-1931369Y44752D01*
G01X-1931369Y44752D01*
G01X-1924545Y56913D01*
G01X-1921135Y70434D01*
G01X-1921375Y84377D01*
G01X-1925250Y97772D01*
G01X-1932490Y109691D01*
G01X-1942591Y119304D01*
G01X-1954854Y125944D01*
G01X-1968425Y129150D01*
G01X-1982362Y128700D01*
G01X-1985872Y142305D01*
G01X-1988439Y146800D01*
G01X-1885846Y146800D01*
G01X-1883869Y132472D01*
G01X-1878086Y119214D01*
G01X-1868929Y108018D01*
G01X-1857083Y99719D01*
G01X-1843432Y94938D01*
G01X-1828996Y94033D01*
G01X-1814855Y97070D01*
G01X-1802064Y103822D01*
G01X-1790514Y97538D01*
G01X-1777771Y94296D01*
G01X-1764622Y94296D01*
G01X-1751879Y97538D01*
G01X-1740329Y103822D01*
G01X-1728452Y97411D01*
G01X-1715339Y94214D01*
G01X-1701844Y94437D01*
G01X-1688844Y98068D01*
G01X-1677186Y104869D01*
G01X-1666248Y97362D01*
G01X-1653786Y92812D01*
G01X-1640585Y91505D01*
G01X-1627473Y93522D01*
G01X-1615275Y98738D01*
G01X-1604757Y106823D01*
G01X-1596582Y117271D01*
G01X-1591261Y129423D01*
G01X-1589573Y139803D01*
G01X-1457357Y139803D01*
G01X-1455554Y126108D01*
G01X-1450268Y113346D01*
G01X-1441859Y102387D01*
G01X-1430900Y93978D01*
G01X-1418138Y88692D01*
G01X-1404443Y86889D01*
G01X-1390748Y88692D01*
G01X-1377986Y93978D01*
G01X-1367027Y102387D01*
G01X-1358618Y113346D01*
G01X-1353332Y126108D01*
G01X-1351529Y139803D01*
G01X-1353332Y153498D01*
G01X-1358618Y166260D01*
G01X-1367027Y177219D01*
G01X-1377986Y185628D01*
G01X-1390748Y190914D01*
G01X-1404443Y192717D01*
G01X-1418138Y190914D01*
G01X-1430900Y185628D01*
G01X-1441859Y177219D01*
G01X-1450268Y166260D01*
G01X-1455554Y153498D01*
G01X-1457357Y139803D01*
G01X-1457357Y139803D01*
G01X-1589573Y139803D01*
G01X-1589131Y142517D01*
G01X-1590325Y155730D01*
G01X-1594768Y168230D01*
G01X-1602180Y179232D01*
G01X-1612096Y188045D01*
G01X-1623893Y194115D01*
G01X-1636828Y197059D01*
G01X-1650089Y196693D01*
G01X-1662843Y193041D01*
G01X-1674287Y186331D01*
G01X-1686105Y194281D01*
G01X-1699616Y198790D01*
G01X-1713840Y199533D01*
G01X-1727747Y196454D01*
G01X-1740329Y189778D01*
G01X-1751879Y196062D01*
G01X-1764622Y199304D01*
G01X-1777771Y199304D01*
G01X-1790514Y196062D01*
G01X-1802064Y189778D01*
G01X-1814855Y196531D01*
G01X-1828996Y199568D01*
G01X-1843432Y198662D01*
G01X-1857083Y193881D01*
G01X-1868929Y185582D01*
G01X-1878086Y174386D01*
G01X-1883869Y161128D01*
G01X-1885846Y146800D01*
G01X-1885846Y146800D01*
G01X-1988439Y146800D01*
G01X-1992839Y154506D01*
G01X-2002771Y164443D01*
G01X-2014968Y171417D01*
G01X-2028571Y174934D01*
G01X-2042620Y174748D01*
G01X-2056124Y170871D01*
G01X-2068132Y163577D01*
G01X-2077797Y153379D01*
G01X-2084438Y140998D01*
G01X-2084537Y155514D01*
G01X-2088577Y169458D01*
G01X-2096254Y181779D01*
G01X-2106991Y191550D01*
G01X-2119979Y198035D01*
G01X-2134240Y200747D01*
G01X-2148702Y199481D01*
G01X-2162276Y194332D01*
G01X-2173939Y185689D01*
G01X-2182815Y174201D01*
G01X-2188234Y160733D01*
G01X-2189790Y146300D01*
G01X-2603524Y146300D01*
G01X-2606941Y153205D01*
G01X-2615677Y163315D01*
G01X-2626666Y170914D01*
G01X-2616575Y180176D01*
G01X-2609199Y191719D01*
G01X-2605033Y204768D01*
G01X-2604357Y218449D01*
G01X-2607215Y231846D01*
G01X-2613416Y244060D01*
G01X-2622545Y254273D01*
G01X-2633989Y261800D01*
G01X-2646982Y266138D01*
G01X-2660653Y266995D01*
G01X-2674086Y264314D01*
G01X-2686381Y258274D01*
G01X-2696713Y249281D01*
G01X-2704391Y237937D01*
G01X-2708900Y225002D01*
G01X-2709937Y211344D01*
G01X-3218442Y211344D01*
G01X-3219387Y212576D01*
G01X-3230346Y220985D01*
G01X-3243108Y226271D01*
G01X-3256803Y228074D01*
G01X-3270498Y226271D01*
G01X-3283260Y220985D01*
G01X-3294219Y212576D01*
G01X-3302628Y201617D01*
G01X-3307914Y188856D01*
G01X-3309717Y175160D01*
G01X-3309717Y175160D01*
G01X-3462468Y175160D01*
G01X-3461342Y176034D01*
G01X-3450769Y188373D01*
G01X-3442892Y202586D01*
G01X-3438033Y218093D01*
G01X-3436392Y234259D01*
G01X-3436392Y324961D01*
G01X-3391019Y324961D01*
G01X-3389216Y311266D01*
G01X-3383930Y298504D01*
G01X-3375521Y287545D01*
G01X-3364562Y279136D01*
G01X-3351800Y273850D01*
G01X-3338105Y272047D01*
G01X-3324410Y273850D01*
G01X-3314266Y278052D01*
G01X-2362758Y278052D01*
G01X-2361023Y264296D01*
G01X-2355774Y251463D01*
G01X-2347372Y240433D01*
G01X-2336393Y231966D01*
G01X-2323591Y226641D01*
G01X-2309845Y224824D01*
G01X-2296100Y226641D01*
G01X-2283298Y231966D01*
G01X-2272319Y240433D01*
G01X-2263916Y251463D01*
G01X-2258667Y264296D01*
G01X-2256932Y278052D01*
G01X-2258830Y291787D01*
G01X-2264231Y304557D01*
G01X-2272764Y315486D01*
G01X-2283843Y323822D01*
G01X-2273522Y331429D01*
G01X-2265334Y341295D01*
G01X-2259759Y352840D01*
G01X-2257656Y362856D01*
G01X-2177924Y362856D01*
G01X-2176065Y348953D01*
G01X-2170618Y336027D01*
G01X-2161966Y324986D01*
G01X-2150717Y316606D01*
G01X-2150717Y316606D01*
G01X-2161873Y308317D01*
G01X-2170486Y297409D01*
G01X-2175961Y284634D01*
G01X-2177921Y270874D01*
G01X-2176231Y257078D01*
G01X-2171006Y244199D01*
G01X-2162608Y233124D01*
G01X-2151616Y224618D01*
G01X-2138788Y219268D01*
G01X-2125010Y217443D01*
G01X-2111231Y219268D01*
G01X-2098404Y224618D01*
G01X-2087411Y233124D01*
G01X-2079013Y244199D01*
G01X-2073789Y257078D01*
G01X-2072098Y270874D01*
G01X-2074058Y284634D01*
G01X-2079534Y297409D01*
G01X-2088146Y308317D01*
G01X-2099303Y316606D01*
G01X-2088054Y324986D01*
G01X-2079402Y336027D01*
G01X-2073955Y348953D01*
G01X-2072096Y362856D01*
G01X-2073955Y376760D01*
G01X-2079402Y389686D01*
G01X-2088054Y400727D01*
G01X-2099303Y409106D01*
G01X-2088147Y417396D01*
G01X-2079534Y428304D01*
G01X-2074058Y441079D01*
G01X-2072098Y454839D01*
G01X-2073789Y468634D01*
G01X-2079013Y481514D01*
G01X-2087411Y492589D01*
G01X-2098403Y501095D01*
G01X-2111231Y506445D01*
G01X-2125010Y508270D01*
G01X-2138788Y506445D01*
G01X-2151616Y501095D01*
G01X-2162608Y492589D01*
G01X-2171006Y481514D01*
G01X-2176231Y468634D01*
G01X-2177921Y454839D01*
G01X-2175961Y441079D01*
G01X-2170486Y428304D01*
G01X-2161873Y417396D01*
G01X-2150716Y409106D01*
G01X-2161965Y400727D01*
G01X-2170617Y389686D01*
G01X-2176065Y376760D01*
G01X-2177924Y362856D01*
G01X-2257656Y362856D01*
G01X-2257125Y365387D01*
G01X-2257585Y378200D01*
G01X-2261114Y390526D01*
G01X-2267504Y401641D01*
G01X-2276379Y410893D01*
G01X-2266568Y421434D01*
G01X-2259962Y434229D01*
G01X-2257050Y448332D01*
G01X-2258049Y462697D01*
G01X-2262883Y476261D01*
G01X-2271195Y488020D01*
G01X-2282370Y497102D01*
G01X-2295579Y502835D01*
G01X-2309845Y504794D01*
G01X-2324111Y502835D01*
G01X-2337321Y497102D01*
G01X-2348495Y488020D01*
G01X-2356808Y476261D01*
G01X-2361642Y462697D01*
G01X-2362640Y448332D01*
G01X-2359729Y434229D01*
G01X-2353123Y421434D01*
G01X-2343312Y410893D01*
G01X-2352187Y401641D01*
G01X-2358577Y390526D01*
G01X-2362105Y378200D01*
G01X-2362566Y365387D01*
G01X-2359931Y352840D01*
G01X-2354356Y341295D01*
G01X-2346168Y331429D01*
G01X-2335848Y323822D01*
G01X-2335848Y323822D01*
G01X-2346927Y315486D01*
G01X-2355459Y304557D01*
G01X-2360860Y291787D01*
G01X-2362758Y278052D01*
G01X-3314266Y278052D01*
G01X-3311648Y279136D01*
G01X-3300689Y287545D01*
G01X-3292280Y298504D01*
G01X-3286994Y311266D01*
G01X-3285191Y324961D01*
G01X-3286994Y338656D01*
G01X-3292280Y351418D01*
G01X-3300689Y362377D01*
G01X-3311648Y370786D01*
G01X-3324410Y376072D01*
G01X-3338105Y377875D01*
G01X-3351800Y376072D01*
G01X-3364562Y370786D01*
G01X-3375521Y362377D01*
G01X-3383930Y351418D01*
G01X-3389216Y338656D01*
G01X-3391019Y324961D01*
G01X-3391019Y324961D01*
G01X-3436392Y324961D01*
G01X-3436392Y384259D01*
G01X-3437338Y396559D01*
G01X-3424453Y390135D01*
G01X-3410313Y387422D01*
G01X-3395965Y388621D01*
G01X-3382472Y393643D01*
G01X-3370832Y402117D01*
G01X-3361908Y413414D01*
G01X-3356359Y426700D01*
G01X-3351479Y413681D01*
G01X-3343377Y402383D01*
G01X-3332612Y393585D01*
G01X-3319927Y387894D01*
G01X-3306198Y385705D01*
G01X-3292372Y387166D01*
G01X-3279404Y392179D01*
G01X-3268189Y400396D01*
G01X-3259502Y411251D01*
G01X-3253942Y423993D01*
G01X-3251893Y437744D01*
G01X-3253496Y451555D01*
G01X-3258641Y464470D01*
G01X-3266973Y475600D01*
G01X-3277916Y484176D01*
G01X-3290715Y489605D01*
G01X-3304487Y491513D01*
G01X-3318280Y489768D01*
G01X-3331142Y484491D01*
G01X-3342186Y476046D01*
G01X-3350649Y465016D01*
G01X-3355947Y452162D01*
G01X-3360806Y465143D01*
G01X-3368871Y476418D01*
G01X-3379587Y485211D01*
G01X-3392218Y490919D01*
G01X-3405899Y493151D01*
G01X-3419690Y491753D01*
G01X-3432645Y486822D01*
G01X-3443874Y478696D01*
G01X-3452608Y467932D01*
G01X-3458247Y455269D01*
G01X-3460403Y441576D01*
G01X-3472803Y451566D01*
G01X-3486929Y458917D01*
G01X-3502226Y463341D01*
G01X-3501397Y473248D01*
G01X-3496337Y565226D01*
G01X-3497295Y573160D01*
G01X-3339322Y573160D01*
G01X-3337519Y559465D01*
G01X-3332233Y546703D01*
G01X-3323824Y535744D01*
G01X-3312865Y527335D01*
G01X-3300103Y522049D01*
G01X-3286408Y520246D01*
G01X-3272713Y522049D01*
G01X-3259951Y527335D01*
G01X-3248992Y535744D01*
G01X-3240583Y546703D01*
G01X-3235297Y559465D01*
G01X-3233494Y573160D01*
G01X-3235297Y586855D01*
G01X-3240583Y599617D01*
G01X-3248992Y610576D01*
G01X-3259951Y618985D01*
G01X-3272713Y624271D01*
G01X-3286408Y626074D01*
G01X-3300103Y624271D01*
G01X-3312865Y618985D01*
G01X-3323824Y610576D01*
G01X-3332233Y599617D01*
G01X-3337519Y586855D01*
G01X-3339322Y573160D01*
G01X-3339322Y573160D01*
G01X-3497295Y573160D01*
G01X-3497608Y575752D01*
G01X-3498268Y588530D01*
G01X-3500825Y601066D01*
G01X-3505223Y613081D01*
G01X-3489983Y616221D01*
G01X-3475506Y621927D01*
G01X-3462222Y630031D01*
G01X-3450525Y640293D01*
G01X-3440760Y652408D01*
G01X-3429417Y643361D01*
G01X-3416043Y637735D01*
G01X-3401643Y635953D01*
G01X-3387301Y638149D01*
G01X-3374094Y644158D01*
G01X-3363016Y653529D01*
G01X-3354900Y665556D01*
G01X-3350356Y679335D01*
G01X-3349725Y693831D01*
G01X-3353056Y707953D01*
G01X-3360097Y720640D01*
G01X-3370319Y730937D01*
G01X-3382954Y738070D01*
G01X-3397051Y741504D01*
G01X-3411551Y740979D01*
G01X-3425364Y736535D01*
G01X-3425364Y759549D01*
G01X-3338935Y759549D01*
G01X-3338805Y745783D01*
G01X-3335129Y732516D01*
G01X-3328154Y720647D01*
G01X-3318355Y710978D01*
G01X-3306392Y704165D01*
G01X-3293077Y700668D01*
G01X-3279311Y700724D01*
G01X-3266025Y704329D01*
G01X-3254118Y711240D01*
G01X-3244397Y720988D01*
G01X-3244121Y707224D01*
G01X-3240303Y693998D01*
G01X-3233202Y682204D01*
G01X-3223299Y672641D01*
G01X-3211265Y665955D01*
G01X-3197913Y662601D01*
G01X-3184148Y662804D01*
G01X-3170901Y666552D01*
G01X-3159069Y673589D01*
G01X-3149453Y683441D01*
G01X-3142704Y695439D01*
G01X-3142704Y695439D01*
G01X-3139278Y708773D01*
G01X-3139408Y722539D01*
G01X-3143084Y735805D01*
G01X-3150058Y747675D01*
G01X-3159858Y757343D01*
G01X-3171821Y764156D01*
G01X-3185136Y767653D01*
G01X-3198902Y767597D01*
G01X-3212188Y763992D01*
G01X-3224095Y757081D01*
G01X-3233815Y747333D01*
G01X-3234092Y761097D01*
G01X-3237910Y774324D01*
G01X-3245011Y786118D01*
G01X-3254914Y795681D01*
G01X-3266948Y802366D01*
G01X-3280300Y805720D01*
G01X-3294065Y805517D01*
G01X-3307312Y801770D01*
G01X-3319144Y794732D01*
G01X-3328760Y784881D01*
G01X-3335509Y772882D01*
G01X-3338935Y759549D01*
G01X-3425364Y759549D01*
G01X-3425364Y828860D01*
G01X-3249819Y828860D01*
G01X-3248016Y815165D01*
G01X-3242730Y802403D01*
G01X-3234321Y791445D01*
G01X-3223362Y783036D01*
G01X-3210600Y777749D01*
G01X-3196905Y775946D01*
G01X-3183210Y777749D01*
G01X-3170448Y783036D01*
G01X-3159489Y791445D01*
G01X-3151080Y802403D01*
G01X-3145794Y815165D01*
G01X-3143991Y828860D01*
G01X-3145794Y842556D01*
G01X-3151080Y855317D01*
G01X-3159489Y866276D01*
G01X-3170448Y874685D01*
G01X-3183210Y879971D01*
G01X-3196905Y881774D01*
G01X-3210600Y879971D01*
G01X-3223362Y874685D01*
G01X-3234321Y866276D01*
G01X-3242730Y855317D01*
G01X-3248016Y842556D01*
G01X-3249819Y828860D01*
G01X-3249819Y828860D01*
G01X-3425364Y828860D01*
G01X-3425364Y882877D01*
G01X-3427101Y900516D01*
G01X-3432246Y917477D01*
G01X-3440601Y933108D01*
G01X-3451845Y946809D01*
G01X-3462510Y955561D01*
G01X-3358419Y955561D01*
G01X-3356616Y941866D01*
G01X-3351330Y929104D01*
G01X-3342921Y918146D01*
G01X-3331962Y909737D01*
G01X-3319200Y904450D01*
G01X-3305505Y902647D01*
G01X-3291810Y904450D01*
G01X-3279048Y909737D01*
G01X-3268089Y918146D01*
G01X-3259680Y929104D01*
G01X-3254394Y941866D01*
G01X-3252591Y955561D01*
G01X-3254394Y969257D01*
G01X-3259680Y982018D01*
G01X-3268089Y992977D01*
G01X-3279048Y1001386D01*
G01X-3291810Y1006673D01*
G01X-3305505Y1008476D01*
G01X-3319200Y1006673D01*
G01X-3331962Y1001386D01*
G01X-3342921Y992977D01*
G01X-3351330Y982018D01*
G01X-3356616Y969257D01*
G01X-3358419Y955561D01*
G01X-3358419Y955561D01*
G01X-3462510Y955561D01*
G01X-3465546Y958053D01*
G01X-3481178Y966409D01*
G01X-3498139Y971554D01*
G01X-3515778Y973291D01*
G37*
G36*
G01X-3591805Y-715093D02*
G01X-3573463Y-713210D01*
G01X-3555886Y-707638D01*
G01X-3539809Y-698610D01*
G01X-3525901Y-686503D01*
G01X-3515603Y-686593D01*
G01X-3518692Y-700646D01*
G01X-3517869Y-715012D01*
G01X-3513195Y-728620D01*
G01X-3505018Y-740460D01*
G01X-3493946Y-749649D01*
G01X-3480802Y-755505D01*
G01X-3466565Y-757592D01*
G01X-3452294Y-755754D01*
G01X-3439051Y-750128D01*
G01X-3434936Y-746832D01*
G01X-3010764Y-746832D01*
G01X-3008966Y-760486D01*
G01X-3003696Y-773209D01*
G01X-2995313Y-784135D01*
G01X-2984387Y-792519D01*
G01X-2971664Y-797789D01*
G01X-2958010Y-799586D01*
G01X-2944356Y-797789D01*
G01X-2931633Y-792519D01*
G01X-2920707Y-784135D01*
G01X-2912324Y-773209D01*
G01X-2907053Y-760486D01*
G01X-2905256Y-746832D01*
G01X-2907053Y-733179D01*
G01X-2912324Y-720455D01*
G01X-2920707Y-709530D01*
G01X-2931633Y-701146D01*
G01X-2944356Y-695876D01*
G01X-2958010Y-694078D01*
G01X-2971664Y-695876D01*
G01X-2984387Y-701146D01*
G01X-2995313Y-709530D01*
G01X-3003696Y-720455D01*
G01X-3008966Y-733179D01*
G01X-3010764Y-746832D01*
G01X-3010764Y-746832D01*
G01X-3434936Y-746832D01*
G01X-3427820Y-741133D01*
G01X-3419437Y-729438D01*
G01X-3414526Y-715914D01*
G01X-3413453Y-701565D01*
G01X-3416296Y-687460D01*
G01X-3299772Y-688477D01*
G01X-3288273Y-691208D01*
G01X-3276455Y-691311D01*
G01X-3264910Y-688781D01*
G01X-3160330Y-689693D01*
G01X-3150614Y-700319D01*
G01X-3138387Y-707921D01*
G01X-3124560Y-711935D01*
G01X-3110162Y-712061D01*
G01X-3096267Y-708289D01*
G01X-3083909Y-700901D01*
G01X-3074009Y-690447D01*
G01X-2856635Y-692344D01*
G01X-2813264Y-716903D01*
G01X-2791369Y-726959D01*
G01X-2768243Y-733715D01*
G01X-2744378Y-737028D01*
G01X-2720286Y-736827D01*
G01X-2720286Y-736827D01*
G01X-2692800Y-735706D01*
G01X-2665314Y-736827D01*
G01X-2665314Y-736827D01*
G01X-2665314Y-736827D01*
G01X-2573519Y-743671D01*
G01X-2481636Y-749214D01*
G01X-2481636Y-749214D01*
G01X-2493428Y-754296D01*
G01X-2503643Y-762077D01*
G01X-2511676Y-772095D01*
G01X-2517050Y-783758D01*
G01X-2519448Y-796373D01*
G01X-2531198Y-789476D01*
G01X-2544323Y-785818D01*
G01X-2557947Y-785643D01*
G01X-2571161Y-788964D01*
G01X-2583084Y-795558D01*
G01X-2592920Y-804986D01*
G01X-2603110Y-796368D01*
G01X-2615137Y-790584D01*
G01X-2628230Y-788002D01*
G01X-2641552Y-788789D01*
G01X-2647224Y-776634D01*
G01X-2655779Y-766303D01*
G01X-2666662Y-758463D01*
G01X-2679170Y-753621D01*
G01X-2692496Y-752090D01*
G01X-2705777Y-753969D01*
G01X-2718154Y-759137D01*
G01X-2728828Y-767260D01*
G01X-2737109Y-777811D01*
G01X-2742461Y-790110D01*
G01X-2744538Y-803362D01*
G01X-2743206Y-816708D01*
G01X-2738552Y-829288D01*
G01X-2730875Y-840287D01*
G01X-2720673Y-848994D01*
G01X-2708604Y-854847D01*
G01X-2695450Y-857468D01*
G01X-2682059Y-856686D01*
G01X-2675974Y-869482D01*
G01X-2666703Y-880198D01*
G01X-2654914Y-888059D01*
G01X-2641457Y-892498D01*
G01X-2627305Y-893196D01*
G01X-2613477Y-890102D01*
G01X-2600972Y-883439D01*
G01X-2590691Y-873687D01*
G01X-2580250Y-882467D01*
G01X-2567907Y-888275D01*
G01X-2554487Y-890724D01*
G01X-2540888Y-889651D01*
G01X-2528019Y-885126D01*
G01X-2516740Y-877453D01*
G01X-2507806Y-867144D01*
G01X-2501814Y-854889D01*
G01X-2499165Y-841507D01*
G01X-2488141Y-848090D01*
G01X-2475853Y-851814D01*
G01X-2463029Y-852460D01*
G01X-2450429Y-849988D01*
G01X-2438800Y-844546D01*
G01X-2428829Y-836456D01*
G01X-2421109Y-826196D01*
G01X-2416096Y-814375D01*
G01X-2414087Y-801693D01*
G01X-2415201Y-788902D01*
G01X-2419372Y-776758D01*
G01X-2426354Y-765982D01*
G01X-2435732Y-757212D01*
G01X-2446951Y-750967D01*
G01X-2446951Y-750967D01*
G01X-2304329Y-756227D01*
G01X-2161626Y-758354D01*
G01X-2018910Y-757348D01*
G01X-2018910Y-757348D01*
G01X-2018910Y-757348D01*
G01X-2002415Y-759041D01*
G01X-1986799Y-764619D01*
G01X-1972963Y-773757D01*
G01X-1951853Y-789226D01*
G01X-1928749Y-801519D01*
G01X-1904125Y-810384D01*
G01X-1878487Y-815639D01*
G01X-1852361Y-817175D01*
G01X-1826284Y-814963D01*
G01X-1800791Y-809046D01*
G01X-1776405Y-799547D01*
G01X-1753627Y-786660D01*
G01X-1740087Y-775646D01*
G01X-1728907Y-762244D01*
G01X-1720499Y-746949D01*
G01X-1712698Y-739902D01*
G01X-1706449Y-731448D01*
G01X-1702001Y-721923D01*
G01X-1694090Y-731399D01*
G01X-1684193Y-738778D01*
G01X-1672853Y-743654D01*
G01X-1660690Y-745762D01*
G01X-1656115Y-758747D01*
G01X-1648336Y-770106D01*
G01X-1637883Y-779065D01*
G01X-1625467Y-785015D01*
G01X-1611935Y-787550D01*
G01X-1608973Y-797048D01*
G01X-1604280Y-805820D01*
G01X-1598023Y-813556D01*
G01X-1606351Y-824473D01*
G01X-1611579Y-837169D01*
G01X-1613354Y-850785D01*
G01X-1611555Y-864397D01*
G01X-1606305Y-877084D01*
G01X-1597958Y-887986D01*
G01X-1587080Y-896365D01*
G01X-1574409Y-901653D01*
G01X-1560802Y-903492D01*
G01X-1547181Y-901757D01*
G01X-1534470Y-896566D01*
G01X-1523528Y-888271D01*
G01X-1515098Y-877432D01*
G01X-1514742Y-876590D01*
G01X-1432058Y-876590D01*
G01X-1430260Y-890243D01*
G01X-1424990Y-902967D01*
G01X-1416606Y-913892D01*
G01X-1405681Y-922276D01*
G01X-1392957Y-927546D01*
G01X-1379304Y-929344D01*
G01X-1365650Y-927546D01*
G01X-1352927Y-922276D01*
G01X-1342001Y-913892D01*
G01X-1333617Y-902967D01*
G01X-1328347Y-890243D01*
G01X-1326550Y-876590D01*
G01X-1328347Y-862936D01*
G01X-1333617Y-850213D01*
G01X-1337740Y-844840D01*
G01X-1190050Y-844840D01*
G01X-1188252Y-858493D01*
G01X-1182982Y-871217D01*
G01X-1174598Y-882142D01*
G01X-1163673Y-890526D01*
G01X-1150949Y-895796D01*
G01X-1137296Y-897594D01*
G01X-1123642Y-895796D01*
G01X-1121816Y-895040D01*
G01X-1039858Y-895040D01*
G01X-1038060Y-908693D01*
G01X-1032790Y-921417D01*
G01X-1024406Y-932342D01*
G01X-1013481Y-940726D01*
G01X-1000757Y-945996D01*
G01X-987104Y-947794D01*
G01X-973450Y-945996D01*
G01X-960727Y-940726D01*
G01X-949801Y-932342D01*
G01X-941417Y-921417D01*
G01X-936147Y-908693D01*
G01X-934350Y-895040D01*
G01X-936147Y-881386D01*
G01X-941417Y-868663D01*
G01X-949801Y-857737D01*
G01X-960727Y-849353D01*
G01X-973450Y-844083D01*
G01X-987104Y-842286D01*
G01X-1000757Y-844083D01*
G01X-1013481Y-849353D01*
G01X-1024406Y-857737D01*
G01X-1032790Y-868663D01*
G01X-1038060Y-881386D01*
G01X-1039858Y-895040D01*
G01X-1039858Y-895040D01*
G01X-1121816Y-895040D01*
G01X-1110919Y-890526D01*
G01X-1099993Y-882142D01*
G01X-1091609Y-871217D01*
G01X-1086339Y-858493D01*
G01X-1084542Y-844840D01*
G01X-1086339Y-831186D01*
G01X-1091609Y-818463D01*
G01X-1099993Y-807537D01*
G01X-1110919Y-799153D01*
G01X-1123642Y-793883D01*
G01X-1137296Y-792086D01*
G01X-1150949Y-793883D01*
G01X-1163673Y-799153D01*
G01X-1174598Y-807537D01*
G01X-1182982Y-818463D01*
G01X-1188252Y-831186D01*
G01X-1190050Y-844840D01*
G01X-1190050Y-844840D01*
G01X-1337740Y-844840D01*
G01X-1342001Y-839287D01*
G01X-1352927Y-830903D01*
G01X-1365650Y-825633D01*
G01X-1379304Y-823836D01*
G01X-1392957Y-825633D01*
G01X-1405681Y-830903D01*
G01X-1416606Y-839287D01*
G01X-1424990Y-850213D01*
G01X-1430260Y-862936D01*
G01X-1432058Y-876590D01*
G01X-1432058Y-876590D01*
G01X-1514742Y-876590D01*
G01X-1509751Y-864786D01*
G01X-1507848Y-851188D01*
G01X-1509519Y-837559D01*
G01X-1514650Y-824823D01*
G01X-1522894Y-813843D01*
G01X-1515623Y-804686D01*
G01X-1510547Y-794152D01*
G01X-1498182Y-797207D01*
G01X-1485445Y-797209D01*
G01X-1473079Y-794158D01*
G01X-1461804Y-788233D01*
G01X-1450015Y-794351D01*
G01X-1437071Y-797330D01*
G01X-1423794Y-796982D01*
G01X-1411024Y-793328D01*
G01X-1399571Y-786601D01*
G01X-1390162Y-777226D01*
G01X-1388866Y-775040D01*
G01X-879458Y-775040D01*
G01X-877660Y-788693D01*
G01X-872390Y-801417D01*
G01X-864006Y-812342D01*
G01X-853081Y-820726D01*
G01X-840357Y-825996D01*
G01X-826704Y-827794D01*
G01X-813050Y-825996D01*
G01X-800327Y-820726D01*
G01X-789401Y-812342D01*
G01X-781017Y-801417D01*
G01X-775747Y-788693D01*
G01X-773950Y-775040D01*
G01X-775747Y-761386D01*
G01X-781017Y-748663D01*
G01X-789401Y-737737D01*
G01X-800327Y-729353D01*
G01X-813050Y-724083D01*
G01X-826704Y-722286D01*
G01X-840357Y-724083D01*
G01X-853081Y-729353D01*
G01X-864006Y-737737D01*
G01X-872390Y-748663D01*
G01X-877660Y-761386D01*
G01X-879458Y-775040D01*
G01X-879458Y-775040D01*
G01X-1388866Y-775040D01*
G01X-1383392Y-765799D01*
G01X-1379692Y-753043D01*
G01X-1379295Y-739766D01*
G01X-1382226Y-726812D01*
G01X-1388300Y-715000D01*
G01X-1397132Y-705080D01*
G01X-1261660Y-706262D01*
G01X-1252248Y-704847D01*
G01X-1243741Y-700578D01*
G01X-1236982Y-693877D01*
G01X-1232639Y-685408D01*
G01X-1231142Y-676009D01*
G01X-1231142Y-622150D01*
G01X-1217007Y-623952D01*
G01X-1202906Y-621906D01*
G01X-1195332Y-618568D01*
G01X-1084558Y-618568D01*
G01X-1082760Y-632222D01*
G01X-1077490Y-644945D01*
G01X-1069107Y-655871D01*
G01X-1058181Y-664255D01*
G01X-1045458Y-669525D01*
G01X-1031804Y-671322D01*
G01X-1018150Y-669525D01*
G01X-1005427Y-664255D01*
G01X-994501Y-655871D01*
G01X-986118Y-644945D01*
G01X-980847Y-632222D01*
G01X-979050Y-618568D01*
G01X-980847Y-604914D01*
G01X-986118Y-592191D01*
G01X-994501Y-581266D01*
G01X-1005427Y-572882D01*
G01X-1018150Y-567612D01*
G01X-1031804Y-565814D01*
G01X-1045458Y-567612D01*
G01X-1058181Y-572882D01*
G01X-1069107Y-581266D01*
G01X-1077490Y-592191D01*
G01X-1082760Y-604914D01*
G01X-1084558Y-618568D01*
G01X-1084558Y-618568D01*
G01X-1195332Y-618568D01*
G01X-1189867Y-616160D01*
G01X-1178841Y-607135D01*
G01X-1170633Y-595488D01*
G01X-1165841Y-582069D01*
G01X-1164816Y-567857D01*
G01X-1167631Y-553889D01*
G01X-1174081Y-541184D01*
G01X-1183697Y-530669D01*
G01X-1180614Y-521771D01*
G01X-1179163Y-512466D01*
G01X-1165078Y-511179D01*
G01X-1151842Y-506195D01*
G01X-1140405Y-497874D01*
G01X-1131590Y-486814D01*
G01X-1126030Y-473809D01*
G01X-1124126Y-459795D01*
G01X-1126013Y-445778D01*
G01X-1130740Y-434682D01*
G01X-981058Y-434682D01*
G01X-978044Y-447292D01*
G01X-972046Y-458786D01*
G01X-963426Y-468470D01*
G01X-952704Y-475759D01*
G01X-940528Y-480213D01*
G01X-927633Y-481562D01*
G01X-914799Y-479726D01*
G01X-902800Y-474815D01*
G01X-908971Y-487625D01*
G01X-911497Y-501617D01*
G01X-910195Y-515777D01*
G01X-905157Y-529074D01*
G01X-896752Y-540542D01*
G01X-885589Y-549349D01*
G01X-872479Y-554855D01*
G01X-858375Y-556660D01*
G01X-857572Y-571134D01*
G01X-852859Y-584842D01*
G01X-844593Y-596751D01*
G01X-833398Y-605960D01*
G01X-820119Y-611774D01*
G01X-805759Y-613754D01*
G01X-791402Y-611751D01*
G01X-778132Y-605916D01*
G01X-766951Y-596690D01*
G01X-758704Y-584769D01*
G01X-754013Y-571053D01*
G01X-753232Y-556578D01*
G01X-742073Y-537068D01*
G01X-736364Y-546918D01*
G01X-728009Y-554652D01*
G01X-717748Y-559585D01*
G01X-706490Y-561279D01*
G01X-572490Y-561279D01*
G01X-560669Y-559406D01*
G01X-550005Y-553973D01*
G01X-541542Y-545510D01*
G01X-536108Y-534846D01*
G01X-534236Y-523025D01*
G01X-534236Y-459025D01*
G01X-535845Y-448046D01*
G01X-540538Y-437990D01*
G01X-547919Y-429705D01*
G01X-557368Y-423886D01*
G01X-568089Y-421025D01*
G01X-557368Y-418163D01*
G01X-547919Y-412345D01*
G01X-540538Y-404059D01*
G01X-535845Y-394004D01*
G01X-534236Y-383025D01*
G01X-534236Y-319025D01*
G01X-535845Y-308046D01*
G01X-540538Y-297990D01*
G01X-547919Y-289705D01*
G01X-557368Y-283887D01*
G01X-568089Y-281025D01*
G01X-557368Y-278163D01*
G01X-547919Y-272345D01*
G01X-540538Y-264059D01*
G01X-535845Y-254004D01*
G01X-534236Y-243025D01*
G01X-534236Y-179025D01*
G01X-535845Y-168045D01*
G01X-540538Y-157990D01*
G01X-547920Y-149704D01*
G01X-557369Y-143886D01*
G01X-568090Y-141025D01*
G01X-557369Y-138163D01*
G01X-547920Y-132345D01*
G01X-540538Y-124059D01*
G01X-535845Y-114004D01*
G01X-534236Y-103025D01*
G01X-534236Y-39024D01*
G01X-536108Y-27203D01*
G01X-541542Y-16539D01*
G01X-550005Y-8076D01*
G01X-560669Y-2643D01*
G01X-572490Y-771D01*
G01X-706490Y-771D01*
G01X-718333Y-2650D01*
G01X-718333Y-2650D01*
G01X-716562Y65207D01*
G01X-716562Y65207D01*
G01X-713132Y116636D01*
G01X-705804Y167655D01*
G01X-694619Y217969D01*
G01X-679644Y267289D01*
G01X-660964Y315327D01*
G01X-638687Y361807D01*
G01X-575004Y361807D01*
G01X-563182Y363680D01*
G01X-552518Y369113D01*
G01X-544055Y377576D01*
G01X-538622Y388240D01*
G01X-536750Y400061D01*
G01X-536750Y464061D01*
G01X-538359Y475040D01*
G01X-543052Y485096D01*
G01X-550433Y493381D01*
G01X-559882Y499200D01*
G01X-570603Y502061D01*
G01X-559882Y504923D01*
G01X-550433Y510742D01*
G01X-543052Y519027D01*
G01X-538359Y529082D01*
G01X-536750Y540061D01*
G01X-536750Y604061D01*
G01X-538359Y615040D01*
G01X-543052Y625096D01*
G01X-550433Y633381D01*
G01X-559882Y639200D01*
G01X-570603Y642061D01*
G01X-559882Y644923D01*
G01X-550433Y650742D01*
G01X-543052Y659027D01*
G01X-538359Y669082D01*
G01X-536750Y680061D01*
G01X-536750Y744061D01*
G01X-538622Y755882D01*
G01X-544055Y766546D01*
G01X-552518Y775009D01*
G01X-563182Y780443D01*
G01X-575004Y782315D01*
G01X-709004Y782315D01*
G01X-720825Y780443D01*
G01X-731489Y775009D01*
G01X-739952Y766546D01*
G01X-745385Y755882D01*
G01X-747257Y744061D01*
G01X-747257Y680061D01*
G01X-745648Y669082D01*
G01X-740955Y659027D01*
G01X-733574Y650742D01*
G01X-724126Y644923D01*
G01X-713404Y642061D01*
G01X-724126Y639200D01*
G01X-733574Y633381D01*
G01X-740955Y625096D01*
G01X-745648Y615040D01*
G01X-747257Y604061D01*
G01X-747257Y588177D01*
G01X-763628Y575003D01*
G01X-777876Y559557D01*
G01X-789689Y542179D01*
G01X-798809Y523248D01*
G01X-805037Y503179D01*
G01X-808235Y482411D01*
G01X-823551Y288399D01*
G01X-823551Y288399D01*
G01X-828585Y210197D01*
G01X-828585Y210197D01*
G01X-841064Y216458D01*
G01X-854749Y219227D01*
G01X-868681Y218308D01*
G01X-881883Y213767D01*
G01X-893432Y205922D01*
G01X-902519Y195322D01*
G01X-908507Y182709D01*
G01X-910976Y168967D01*
G01X-910976Y168967D01*
G01X-909753Y155059D01*
G01X-904925Y141958D01*
G01X-896829Y130583D01*
G01X-886033Y121730D01*
G01X-873293Y116019D01*
G01X-859500Y113851D01*
G01X-845622Y115377D01*
G01X-832630Y120490D01*
G01X-832630Y120490D01*
G01X-835232Y-11636D01*
G01X-833842Y-143780D01*
G01X-833842Y-143780D01*
G01X-833842Y-143780D01*
G01X-833529Y-208669D01*
G01X-835918Y-273515D01*
G01X-841002Y-338206D01*
G01X-848775Y-402628D01*
G01X-848775Y-402628D01*
G01X-852370Y-419703D01*
G01X-858203Y-436148D01*
G01X-866170Y-451672D01*
G01X-875688Y-453932D01*
G01X-884624Y-457910D01*
G01X-878430Y-445029D01*
G01X-875920Y-430958D01*
G01X-877280Y-416730D01*
G01X-882410Y-403389D01*
G01X-890932Y-391915D01*
G01X-902222Y-383150D01*
G01X-888466Y-378241D01*
G01X-876583Y-369749D01*
G01X-867484Y-358324D01*
G01X-861867Y-344842D01*
G01X-860161Y-330337D01*
G01X-862498Y-315919D01*
G01X-868699Y-302696D01*
G01X-878287Y-291679D01*
G01X-890530Y-283713D01*
G01X-904487Y-279410D01*
G01X-919089Y-279098D01*
G01X-933217Y-282802D01*
G01X-945787Y-290238D01*
G01X-955838Y-300836D01*
G01X-962597Y-313783D01*
G01X-965547Y-328088D01*
G01X-964461Y-342653D01*
G01X-959424Y-356362D01*
G01X-950821Y-368165D01*
G01X-939311Y-377156D01*
G01X-951589Y-381321D01*
G01X-962480Y-388355D01*
G01X-971327Y-397833D01*
G01X-977595Y-409182D01*
G01X-980905Y-421718D01*
G01X-981058Y-434682D01*
G01X-1130740Y-434682D01*
G01X-1131556Y-432766D01*
G01X-1140357Y-421695D01*
G01X-1151783Y-413359D01*
G01X-1165013Y-408359D01*
G01X-1179096Y-407054D01*
G01X-1179757Y-396233D01*
G01X-1182615Y-385775D01*
G01X-1187551Y-376122D01*
G01X-1194356Y-367683D01*
G01X-1202742Y-360812D01*
G01X-1212356Y-355801D01*
G01X-1202073Y-349536D01*
G01X-1193477Y-341103D01*
G01X-1187019Y-330940D01*
G01X-1183033Y-319577D01*
G01X-1181727Y-307606D01*
G01X-1168637Y-306230D01*
G01X-1156294Y-301656D01*
G01X-1145468Y-294168D01*
G01X-1136833Y-284234D01*
G01X-1130926Y-272471D01*
G01X-1128115Y-259612D01*
G01X-1128575Y-246457D01*
G01X-1132277Y-233826D01*
G01X-1138991Y-222504D01*
G01X-1148299Y-213197D01*
G01X-1159622Y-206484D01*
G01X-1172254Y-202783D01*
G01X-1174357Y-190489D01*
G01X-1179288Y-179033D01*
G01X-1186771Y-169054D01*
G01X-1196387Y-161111D01*
G01X-1207599Y-155648D01*
G01X-1198061Y-147740D01*
G01X-1190630Y-137826D01*
G01X-1185717Y-126452D01*
G01X-1185559Y-125549D01*
G01X-964699Y-125549D01*
G01X-962901Y-139203D01*
G01X-957631Y-151926D01*
G01X-949248Y-162852D01*
G01X-938322Y-171236D01*
G01X-925599Y-176506D01*
G01X-911945Y-178303D01*
G01X-898291Y-176506D01*
G01X-885568Y-171236D01*
G01X-874642Y-162852D01*
G01X-866259Y-151926D01*
G01X-860988Y-139203D01*
G01X-859191Y-125549D01*
G01X-860988Y-111896D01*
G01X-866259Y-99172D01*
G01X-874642Y-88247D01*
G01X-885568Y-79863D01*
G01X-898291Y-74593D01*
G01X-911945Y-72795D01*
G01X-925599Y-74593D01*
G01X-938322Y-79863D01*
G01X-949248Y-88247D01*
G01X-957631Y-99172D01*
G01X-962901Y-111896D01*
G01X-964699Y-125549D01*
G01X-964699Y-125549D01*
G01X-1185559Y-125549D01*
G01X-1183591Y-114246D01*
G01X-1184372Y-101881D01*
G01X-1188015Y-90038D01*
G01X-1175764Y-83546D01*
G01X-1165627Y-74086D01*
G01X-1158306Y-62312D01*
G01X-1154305Y-49037D01*
G01X-1153901Y-35178D01*
G01X-1157121Y-21692D01*
G01X-1160920Y-14706D01*
G01X-977871Y-14706D01*
G01X-976073Y-28360D01*
G01X-970803Y-41083D01*
G01X-962419Y-52009D01*
G01X-951494Y-60392D01*
G01X-938771Y-65663D01*
G01X-925117Y-67460D01*
G01X-911463Y-65663D01*
G01X-898740Y-60392D01*
G01X-887814Y-52009D01*
G01X-879430Y-41083D01*
G01X-874160Y-28360D01*
G01X-872363Y-14706D01*
G01X-874160Y-1052D01*
G01X-879430Y11671D01*
G01X-887814Y22597D01*
G01X-898740Y30980D01*
G01X-911463Y36250D01*
G01X-925117Y38048D01*
G01X-938771Y36250D01*
G01X-951494Y30980D01*
G01X-962419Y22597D01*
G01X-970803Y11671D01*
G01X-976073Y-1052D01*
G01X-977871Y-14706D01*
G01X-977871Y-14706D01*
G01X-1160920Y-14706D01*
G01X-1163744Y-9512D01*
G01X-1152663Y-205D01*
G01X-1144527Y11763D01*
G01X-1139950Y25491D01*
G01X-1139274Y39946D01*
G01X-1142552Y54041D01*
G01X-1149537Y66715D01*
G01X-1159702Y77014D01*
G01X-1172283Y84164D01*
G01X-1186334Y87626D01*
G01X-1200797Y87140D01*
G01X-1200797Y87140D01*
G01X-1197318Y149838D01*
G01X-1197204Y212633D01*
G01X-1200456Y275343D01*
G01X-1207065Y337789D01*
G01X-1217012Y399791D01*
G01X-1222542Y421035D01*
G01X-1230933Y441320D01*
G01X-1242027Y460262D01*
G01X-1250298Y470758D01*
G01X-961356Y470758D01*
G01X-959559Y457104D01*
G01X-954289Y444380D01*
G01X-945905Y433455D01*
G01X-934979Y425071D01*
G01X-922256Y419801D01*
G01X-908602Y418003D01*
G01X-894948Y419801D01*
G01X-882225Y425071D01*
G01X-871299Y433455D01*
G01X-862916Y444380D01*
G01X-857646Y457104D01*
G01X-855848Y470758D01*
G01X-857646Y484411D01*
G01X-862916Y497135D01*
G01X-871299Y508060D01*
G01X-882225Y516444D01*
G01X-894948Y521714D01*
G01X-908602Y523512D01*
G01X-922256Y521714D01*
G01X-934979Y516444D01*
G01X-945905Y508060D01*
G01X-954289Y497135D01*
G01X-959559Y484411D01*
G01X-961356Y470758D01*
G01X-961356Y470758D01*
G01X-1250298Y470758D01*
G01X-1255614Y477504D01*
G01X-1271437Y492720D01*
G01X-1280771Y502981D01*
G01X-1290883Y512477D01*
G01X-1296841Y516512D01*
G01X-1303583Y519026D01*
G01X-1771385Y632370D01*
G01X-1441203Y632370D01*
G01X-1438456Y618142D01*
G01X-1431942Y605198D01*
G01X-1422151Y594516D01*
G01X-1409824Y586899D01*
G01X-1395890Y582924D01*
G01X-1381399Y582890D01*
G01X-1373497Y570744D01*
G01X-1362588Y561207D01*
G01X-1349496Y554997D01*
G01X-1335208Y552584D01*
G01X-1320802Y554149D01*
G01X-1307365Y559574D01*
G01X-1295912Y568450D01*
G01X-1287306Y580108D01*
G01X-1282196Y593668D01*
G01X-1280968Y608106D01*
G01X-1283715Y622334D01*
G01X-1290229Y635277D01*
G01X-1300019Y645960D01*
G01X-1312347Y653577D01*
G01X-1326281Y657552D01*
G01X-1340772Y657585D01*
G01X-1348674Y669731D01*
G01X-1354885Y675161D01*
G01X-1284560Y675161D01*
G01X-1282762Y661507D01*
G01X-1277492Y648784D01*
G01X-1269108Y637858D01*
G01X-1258183Y629475D01*
G01X-1245459Y624205D01*
G01X-1231806Y622407D01*
G01X-1218152Y624205D01*
G01X-1205429Y629475D01*
G01X-1194503Y637858D01*
G01X-1186119Y648784D01*
G01X-1180849Y661507D01*
G01X-1179051Y675161D01*
G01X-1180849Y688815D01*
G01X-1186119Y701538D01*
G01X-1194503Y712464D01*
G01X-1205429Y720848D01*
G01X-1218152Y726118D01*
G01X-1231806Y727915D01*
G01X-1245459Y726118D01*
G01X-1258183Y720848D01*
G01X-1269108Y712464D01*
G01X-1277492Y701538D01*
G01X-1282762Y688815D01*
G01X-1284560Y675161D01*
G01X-1284560Y675161D01*
G01X-1354885Y675161D01*
G01X-1359583Y679269D01*
G01X-1372675Y685479D01*
G01X-1386963Y687892D01*
G01X-1401369Y686327D01*
G01X-1414805Y680902D01*
G01X-1426259Y672025D01*
G01X-1434865Y660368D01*
G01X-1434865Y660368D01*
G01X-1439975Y646808D01*
G01X-1441203Y632370D01*
G01X-1771385Y632370D01*
G01X-1860869Y654051D01*
G01X-1866957Y664590D01*
G01X-1875298Y673454D01*
G01X-1885448Y680171D01*
G01X-1896867Y684382D01*
G01X-1908948Y685864D01*
G01X-1921046Y684539D01*
G01X-1932519Y680476D01*
G01X-1942756Y673891D01*
G01X-2017076Y691898D01*
G01X-2022846Y703869D01*
G01X-2031423Y714018D01*
G01X-2042265Y721701D01*
G01X-2054682Y726432D01*
G01X-2067888Y727909D01*
G01X-2081044Y726040D01*
G01X-2093316Y720943D01*
G01X-2103924Y712941D01*
G01X-2196436Y735356D01*
G01X-1703736Y735356D01*
G01X-1701938Y721702D01*
G01X-1696668Y708979D01*
G01X-1688285Y698053D01*
G01X-1677359Y689669D01*
G01X-1664636Y684399D01*
G01X-1650982Y682602D01*
G01X-1637328Y684399D01*
G01X-1624605Y689669D01*
G01X-1613679Y698053D01*
G01X-1605296Y708979D01*
G01X-1600025Y721702D01*
G01X-1598228Y735356D01*
G01X-1600025Y749009D01*
G01X-1605296Y761733D01*
G01X-1613679Y772658D01*
G01X-1618239Y776157D01*
G01X-1465965Y776157D01*
G01X-1464168Y762504D01*
G01X-1458898Y749780D01*
G01X-1450514Y738855D01*
G01X-1439588Y730471D01*
G01X-1426865Y725201D01*
G01X-1413211Y723403D01*
G01X-1399558Y725201D01*
G01X-1386834Y730471D01*
G01X-1375909Y738855D01*
G01X-1367525Y749780D01*
G01X-1362255Y762504D01*
G01X-1360457Y776157D01*
G01X-1362255Y789811D01*
G01X-1364471Y795161D01*
G01X-1184558Y795161D01*
G01X-1182760Y781507D01*
G01X-1177490Y768784D01*
G01X-1169107Y757858D01*
G01X-1158181Y749475D01*
G01X-1145458Y744205D01*
G01X-1131804Y742407D01*
G01X-1118150Y744205D01*
G01X-1105427Y749475D01*
G01X-1094501Y757858D01*
G01X-1086118Y768784D01*
G01X-1080847Y781507D01*
G01X-1079050Y795161D01*
G01X-1080847Y808815D01*
G01X-1086118Y821538D01*
G01X-1094501Y832464D01*
G01X-1105427Y840848D01*
G01X-1118150Y846118D01*
G01X-1131804Y847915D01*
G01X-1145458Y846118D01*
G01X-1158181Y840848D01*
G01X-1169107Y832464D01*
G01X-1177490Y821538D01*
G01X-1182760Y808815D01*
G01X-1184558Y795161D01*
G01X-1184558Y795161D01*
G01X-1364471Y795161D01*
G01X-1367525Y802534D01*
G01X-1375909Y813460D01*
G01X-1386834Y821844D01*
G01X-1399558Y827114D01*
G01X-1413211Y828911D01*
G01X-1426865Y827114D01*
G01X-1439588Y821844D01*
G01X-1450514Y813460D01*
G01X-1458898Y802534D01*
G01X-1464168Y789811D01*
G01X-1465965Y776157D01*
G01X-1465965Y776157D01*
G01X-1618239Y776157D01*
G01X-1624605Y781042D01*
G01X-1637328Y786312D01*
G01X-1650982Y788110D01*
G01X-1664636Y786312D01*
G01X-1677359Y781042D01*
G01X-1688285Y772658D01*
G01X-1696668Y761733D01*
G01X-1701938Y749009D01*
G01X-1703736Y735356D01*
G01X-1703736Y735356D01*
G01X-2196436Y735356D01*
G01X-2459284Y799041D01*
G01X-2476526Y807938D01*
G01X-2491834Y819856D01*
G01X-2504687Y834390D01*
G01X-2505149Y835161D01*
G01X-2344558Y835161D01*
G01X-2342761Y821508D01*
G01X-2337491Y808784D01*
G01X-2329107Y797859D01*
G01X-2318181Y789475D01*
G01X-2305458Y784205D01*
G01X-2291804Y782407D01*
G01X-2278151Y784205D01*
G01X-2265427Y789475D01*
G01X-2254502Y797859D01*
G01X-2246118Y808784D01*
G01X-2240848Y821508D01*
G01X-2239050Y835161D01*
G01X-2240393Y845362D01*
G01X-2184559Y845362D01*
G01X-2182855Y832062D01*
G01X-2177853Y819622D01*
G01X-2169876Y808844D01*
G01X-2159440Y800425D01*
G01X-2147219Y794910D01*
G01X-2134002Y792653D01*
G01X-2120643Y793802D01*
G01X-2108005Y798281D01*
G01X-2096905Y805802D01*
G01X-2085804Y798281D01*
G01X-2073166Y793802D01*
G01X-2059807Y792653D01*
G01X-2046590Y794910D01*
G01X-2034369Y800425D01*
G01X-2023933Y808844D01*
G01X-2019261Y815156D01*
G01X-1964207Y815156D01*
G01X-1962410Y801502D01*
G01X-1957139Y788779D01*
G01X-1948756Y777853D01*
G01X-1937830Y769470D01*
G01X-1925107Y764200D01*
G01X-1911453Y762402D01*
G01X-1897799Y764200D01*
G01X-1885076Y769470D01*
G01X-1874150Y777853D01*
G01X-1865767Y788779D01*
G01X-1860497Y801502D01*
G01X-1858699Y815156D01*
G01X-1860497Y828810D01*
G01X-1865767Y841533D01*
G01X-1874150Y852459D01*
G01X-1885076Y860842D01*
G01X-1897799Y866113D01*
G01X-1911453Y867910D01*
G01X-1925107Y866113D01*
G01X-1937830Y860842D01*
G01X-1948756Y852459D01*
G01X-1957139Y841533D01*
G01X-1962410Y828810D01*
G01X-1964207Y815156D01*
G01X-1964207Y815156D01*
G01X-2019261Y815156D01*
G01X-2015956Y819622D01*
G01X-2010954Y832062D01*
G01X-2009250Y845362D01*
G01X-2010954Y858661D01*
G01X-2015956Y871102D01*
G01X-2018961Y875162D01*
G01X-1763436Y875162D01*
G01X-1761639Y861508D01*
G01X-1756368Y848785D01*
G01X-1747985Y837859D01*
G01X-1737059Y829476D01*
G01X-1724336Y824205D01*
G01X-1710682Y822408D01*
G01X-1697028Y824205D01*
G01X-1684305Y829476D01*
G01X-1673379Y837859D01*
G01X-1664996Y848785D01*
G01X-1659726Y861508D01*
G01X-1657928Y875162D01*
G01X-1659726Y888816D01*
G01X-1664996Y901539D01*
G01X-1673379Y912465D01*
G01X-1684305Y920848D01*
G01X-1697028Y926118D01*
G01X-1710682Y927916D01*
G01X-1724336Y926118D01*
G01X-1737059Y920848D01*
G01X-1747985Y912465D01*
G01X-1756368Y901539D01*
G01X-1761639Y888816D01*
G01X-1763436Y875162D01*
G01X-1763436Y875162D01*
G01X-2018961Y875162D01*
G01X-2023933Y881879D01*
G01X-2034369Y890298D01*
G01X-2046590Y895813D01*
G01X-2059807Y898070D01*
G01X-2073166Y896921D01*
G01X-2085804Y892442D01*
G01X-2096905Y884921D01*
G01X-2108005Y892442D01*
G01X-2120643Y896921D01*
G01X-2134002Y898070D01*
G01X-2147219Y895813D01*
G01X-2159440Y890298D01*
G01X-2169876Y881879D01*
G01X-2177853Y871102D01*
G01X-2182855Y858661D01*
G01X-2184559Y845362D01*
G01X-2184559Y845362D01*
G01X-2240393Y845362D01*
G01X-2240848Y848815D01*
G01X-2246118Y861538D01*
G01X-2254502Y872464D01*
G01X-2265427Y880848D01*
G01X-2278151Y886118D01*
G01X-2291804Y887915D01*
G01X-2305458Y886118D01*
G01X-2318181Y880848D01*
G01X-2329107Y872464D01*
G01X-2337491Y861538D01*
G01X-2342761Y848815D01*
G01X-2344558Y835161D01*
G01X-2344558Y835161D01*
G01X-2505149Y835161D01*
G01X-2514644Y851041D01*
G01X-2521365Y869241D01*
G01X-2524620Y888368D01*
G01X-2524298Y907767D01*
G01X-2520410Y926774D01*
G01X-2513089Y944741D01*
G01X-2502585Y961053D01*
G01X-2489257Y975152D01*
G01X-2473561Y986556D01*
G01X-2456034Y994876D01*
G01X-2366529Y994876D01*
G01X-2375842Y984208D01*
G01X-2381982Y971448D01*
G01X-2384506Y957515D01*
G01X-2383233Y943412D01*
G01X-2378255Y930155D01*
G01X-2369930Y918700D01*
G01X-2358858Y909872D01*
G01X-2345837Y904308D01*
G01X-2331805Y902407D01*
G01X-2317772Y904308D01*
G01X-2304751Y909872D01*
G01X-2293679Y918700D01*
G01X-2285354Y930155D01*
G01X-2280376Y943412D01*
G01X-2279103Y957515D01*
G01X-2281628Y971448D01*
G01X-2287768Y984208D01*
G01X-2297080Y994876D01*
G01X-1827566Y994876D01*
G01X-1825844Y981154D01*
G01X-1820615Y968352D01*
G01X-1812239Y957349D01*
G01X-1801291Y948901D01*
G01X-1788523Y943588D01*
G01X-1774814Y941775D01*
G01X-1761104Y943588D01*
G01X-1748337Y948901D01*
G01X-1737389Y957349D01*
G01X-1729012Y968352D01*
G01X-1723783Y981154D01*
G01X-1722061Y994876D01*
G01X-1486528Y994876D01*
G01X-1494948Y985519D01*
G01X-1500911Y974435D01*
G01X-1504079Y962254D01*
G01X-1504271Y949668D01*
G01X-1501477Y937396D01*
G01X-1495854Y926135D01*
G01X-1487725Y916526D01*
G01X-1477550Y909116D01*
G01X-1465910Y904328D01*
G01X-1453466Y902434D01*
G01X-1440928Y903541D01*
G01X-1429010Y907586D01*
G01X-1418388Y914340D01*
G01X-1409669Y923418D01*
G01X-1397197Y905546D01*
G01X-1382717Y889258D01*
G01X-1377617Y884158D01*
G01X-1357587Y866803D01*
G01X-1335292Y852474D01*
G01X-1311184Y841464D01*
G01X-1285754Y833997D01*
G01X-1259521Y830226D01*
G01X-1233018Y830226D01*
G01X-1206784Y833997D01*
G01X-1181355Y841464D01*
G01X-1157247Y852474D01*
G01X-1134951Y866803D01*
G01X-1114921Y884158D01*
G01X-1114682Y884400D01*
G01X-986958Y1015160D01*
G01X-964559Y1015160D01*
G01X-962762Y1001507D01*
G01X-957492Y988783D01*
G01X-949108Y977858D01*
G01X-938182Y969474D01*
G01X-925459Y964204D01*
G01X-911805Y962406D01*
G01X-898152Y964204D01*
G01X-885428Y969474D01*
G01X-874503Y977858D01*
G01X-866119Y988783D01*
G01X-860849Y1001507D01*
G01X-859051Y1015160D01*
G01X-860849Y1028814D01*
G01X-866119Y1041537D01*
G01X-874503Y1052463D01*
G01X-885428Y1060847D01*
G01X-898152Y1066117D01*
G01X-911805Y1067914D01*
G01X-925459Y1066117D01*
G01X-938182Y1060847D01*
G01X-949108Y1052463D01*
G01X-957492Y1041537D01*
G01X-962762Y1028814D01*
G01X-964559Y1015160D01*
G01X-964559Y1015160D01*
G01X-986958Y1015160D01*
G01X-900118Y1104065D01*
G01X-894448Y1112193D01*
G01X-884659Y1116675D01*
G01X-873964Y1117911D01*
G01X-863410Y1115782D01*
G01X-854031Y1110495D01*
G01X-846746Y1102567D01*
G01X-842268Y1092776D01*
G01X-842519Y1077897D01*
G01X-839165Y1063400D01*
G01X-832404Y1050143D01*
G01X-822637Y1038916D01*
G01X-810446Y1030383D01*
G01X-796553Y1025052D01*
G01X-781783Y1023239D01*
G01X-556764Y1024930D01*
G01X-551649Y1025424D01*
G01X-542561Y1025521D01*
G01X-533987Y1022505D01*
G01X-526960Y1016740D01*
G01X-522327Y1008920D01*
G01X-520645Y999988D01*
G01X-520704Y997633D01*
G01X-520644Y994836D01*
G01X-520712Y44087D01*
G01X-522059Y35155D01*
G01X-521912Y-723919D01*
G01X-523858Y-724574D01*
G01X-538848Y-725722D01*
G01X-553158Y-730333D01*
G01X-565998Y-738152D01*
G01X-576662Y-748750D01*
G01X-584562Y-761541D01*
G01X-589261Y-775822D01*
G01X-590503Y-790805D01*
G01X-588217Y-805664D01*
G01X-588217Y-1239778D01*
G01X-590656Y-1245756D01*
G01X-594693Y-1250796D01*
G01X-599995Y-1254483D01*
G01X-805574Y-1254483D01*
G01X-814023Y-1255687D01*
G01X-825924Y-1255225D01*
G01X-837425Y-1252136D01*
G01X-847955Y-1246573D01*
G01X-850706Y-1243410D01*
G01X-963275Y-1130810D01*
G01X-827793Y-1130810D01*
G01X-824239Y-1144274D01*
G01X-824239Y-1144274D01*
G01X-817285Y-1156338D01*
G01X-807417Y-1166162D01*
G01X-795323Y-1173063D01*
G01X-781844Y-1176558D01*
G01X-767921Y-1176406D01*
G01X-754522Y-1172615D01*
G01X-742582Y-1165451D01*
G01X-732932Y-1155412D01*
G01X-726245Y-1143198D01*
G01X-722986Y-1129660D01*
G01X-710575Y-1139015D01*
G01X-696245Y-1145033D01*
G01X-680876Y-1147344D01*
G01X-665411Y-1145807D01*
G01X-650797Y-1140517D01*
G01X-637932Y-1131798D01*
G01X-627604Y-1120184D01*
G01X-620447Y-1106388D01*
G01X-616900Y-1091256D01*
G01X-617180Y-1075717D01*
G01X-621271Y-1060723D01*
G01X-628921Y-1047195D01*
G01X-639662Y-1035961D01*
G01X-652833Y-1027712D01*
G01X-667629Y-1022952D01*
G01X-683140Y-1021975D01*
G01X-698415Y-1024839D01*
G01X-712518Y-1031370D01*
G01X-724584Y-1041167D01*
G01X-733872Y-1053628D01*
G01X-739812Y-1067990D01*
G01X-742041Y-1083371D01*
G01X-753886Y-1076050D01*
G01X-767234Y-1072083D01*
G01X-781154Y-1071747D01*
G01X-794678Y-1075065D01*
G01X-806862Y-1081806D01*
G01X-816858Y-1091499D01*
G01X-823970Y-1103471D01*
G01X-827702Y-1116886D01*
G01X-827793Y-1130810D01*
G01X-963275Y-1130810D01*
G01X-1090011Y-1004040D01*
G01X-1046159Y-1004040D01*
G01X-1044362Y-1017693D01*
G01X-1039092Y-1030417D01*
G01X-1030708Y-1041342D01*
G01X-1019782Y-1049726D01*
G01X-1007059Y-1054996D01*
G01X-993405Y-1056794D01*
G01X-979752Y-1054996D01*
G01X-967028Y-1049726D01*
G01X-956103Y-1041342D01*
G01X-947719Y-1030417D01*
G01X-942449Y-1017693D01*
G01X-940651Y-1004040D01*
G01X-942449Y-990386D01*
G01X-947719Y-977663D01*
G01X-956103Y-966737D01*
G01X-967028Y-958353D01*
G01X-973337Y-955740D01*
G01X-801543Y-955740D01*
G01X-799616Y-968715D01*
G01X-794547Y-980812D01*
G01X-794547Y-980812D01*
G01X-786650Y-991285D01*
G01X-776413Y-999486D01*
G01X-764470Y-1004909D01*
G01X-751558Y-1007217D01*
G01X-738476Y-1006268D01*
G01X-726032Y-1002121D01*
G01X-714996Y-995032D01*
G01X-706050Y-985440D01*
G01X-699747Y-973937D01*
G01X-684907Y-977110D01*
G01X-669740Y-976629D01*
G01X-655132Y-972521D01*
G01X-641937Y-965026D01*
G01X-630927Y-954583D01*
G01X-622746Y-941803D01*
G01X-617871Y-927432D01*
G01X-616589Y-912312D01*
G01X-618974Y-897326D01*
G01X-624886Y-883350D01*
G01X-633980Y-871202D01*
G01X-645725Y-861593D01*
G01X-659433Y-855083D01*
G01X-674302Y-852054D01*
G01X-689464Y-852684D01*
G01X-704031Y-856934D01*
G01X-717153Y-864557D01*
G01X-728060Y-875106D01*
G01X-736117Y-887966D01*
G01X-740851Y-902383D01*
G01X-753963Y-902033D01*
G01X-766756Y-904929D01*
G01X-778439Y-910892D01*
G01X-788290Y-919552D01*
G01X-795700Y-930375D01*
G01X-800211Y-942692D01*
G01X-801543Y-955740D01*
G01X-973337Y-955740D01*
G01X-979752Y-953083D01*
G01X-993405Y-951286D01*
G01X-1007059Y-953083D01*
G01X-1019782Y-958353D01*
G01X-1030708Y-966737D01*
G01X-1039092Y-977663D01*
G01X-1044362Y-990386D01*
G01X-1046159Y-1004040D01*
G01X-1046159Y-1004040D01*
G01X-1090011Y-1004040D01*
G01X-1130312Y-963728D01*
G01X-1150329Y-946381D01*
G01X-1172611Y-932058D01*
G01X-1196704Y-921049D01*
G01X-1222117Y-913580D01*
G01X-1248334Y-909800D01*
G01X-1274823Y-909789D01*
G01X-1301043Y-913545D01*
G01X-1326463Y-920992D01*
G01X-1350565Y-931980D01*
G01X-1372859Y-946284D01*
G01X-1392892Y-963613D01*
G01X-1410499Y-983569D01*
G01X-1425044Y-1005855D01*
G01X-1436224Y-1030005D01*
G01X-1443806Y-1055515D01*
G01X-1447631Y-1081851D01*
G01X-1447619Y-1108463D01*
G01X-1443771Y-1134796D01*
G01X-1436167Y-1160299D01*
G01X-1424965Y-1184439D01*
G01X-1410400Y-1206712D01*
G01X-1392776Y-1226652D01*
G01X-1174580Y-1444851D01*
G01X-1168777Y-1455562D01*
G01X-1166151Y-1467458D01*
G01X-1166907Y-1479618D01*
G01X-1170985Y-1491097D01*
G01X-1178069Y-1501008D01*
G01X-1187612Y-1508582D01*
G01X-1198872Y-1513232D01*
G01X-1210978Y-1514597D01*
G01X-1211769Y-1514586D01*
G01X-1842136Y-1514586D01*
G01X-1827194Y-1506032D01*
G01X-1814149Y-1494795D01*
G01X-1803476Y-1481286D01*
G01X-1795561Y-1465996D01*
G01X-1793954Y-1460540D01*
G01X-1790816Y-1460540D01*
G01X-1789018Y-1474194D01*
G01X-1783748Y-1486917D01*
G01X-1775365Y-1497843D01*
G01X-1764439Y-1506227D01*
G01X-1751716Y-1511497D01*
G01X-1738062Y-1513294D01*
G01X-1724408Y-1511497D01*
G01X-1711685Y-1506227D01*
G01X-1700759Y-1497843D01*
G01X-1692375Y-1486917D01*
G01X-1687105Y-1474194D01*
G01X-1685308Y-1460540D01*
G01X-1687105Y-1446887D01*
G01X-1687953Y-1444840D01*
G01X-1364559Y-1444840D01*
G01X-1362762Y-1458494D01*
G01X-1357492Y-1471217D01*
G01X-1349108Y-1482143D01*
G01X-1338182Y-1490526D01*
G01X-1325459Y-1495796D01*
G01X-1311805Y-1497594D01*
G01X-1298152Y-1495796D01*
G01X-1285428Y-1490526D01*
G01X-1274503Y-1482143D01*
G01X-1266119Y-1471217D01*
G01X-1260849Y-1458494D01*
G01X-1259051Y-1444840D01*
G01X-1260849Y-1431186D01*
G01X-1266119Y-1418463D01*
G01X-1274503Y-1407537D01*
G01X-1285428Y-1399154D01*
G01X-1298152Y-1393883D01*
G01X-1311805Y-1392086D01*
G01X-1325459Y-1393883D01*
G01X-1338182Y-1399154D01*
G01X-1349108Y-1407537D01*
G01X-1357492Y-1418463D01*
G01X-1362762Y-1431186D01*
G01X-1364559Y-1444840D01*
G01X-1364559Y-1444840D01*
G01X-1687953Y-1444840D01*
G01X-1692375Y-1434163D01*
G01X-1700759Y-1423238D01*
G01X-1711685Y-1414854D01*
G01X-1724408Y-1409584D01*
G01X-1738062Y-1407786D01*
G01X-1751716Y-1409584D01*
G01X-1764439Y-1414854D01*
G01X-1775365Y-1423238D01*
G01X-1783748Y-1434163D01*
G01X-1789018Y-1446887D01*
G01X-1790816Y-1460540D01*
G01X-1790816Y-1460540D01*
G01X-1793954Y-1460540D01*
G01X-1790694Y-1449481D01*
G01X-1789052Y-1432342D01*
G01X-1789052Y-1372342D01*
G01X-1791024Y-1353579D01*
G01X-1796854Y-1335635D01*
G01X-1806288Y-1319295D01*
G01X-1818912Y-1305273D01*
G01X-1834175Y-1294183D01*
G01X-1835575Y-1293559D01*
G01X-1480501Y-1293559D01*
G01X-1478704Y-1307213D01*
G01X-1473434Y-1319936D01*
G01X-1465050Y-1330862D01*
G01X-1454124Y-1339246D01*
G01X-1441401Y-1344516D01*
G01X-1427747Y-1346313D01*
G01X-1414093Y-1344516D01*
G01X-1401370Y-1339246D01*
G01X-1390444Y-1330862D01*
G01X-1382061Y-1319936D01*
G01X-1376791Y-1307213D01*
G01X-1374993Y-1293559D01*
G01X-1376791Y-1279906D01*
G01X-1382061Y-1267182D01*
G01X-1390444Y-1256257D01*
G01X-1401370Y-1247873D01*
G01X-1414093Y-1242603D01*
G01X-1427747Y-1240805D01*
G01X-1441401Y-1242603D01*
G01X-1454124Y-1247873D01*
G01X-1465050Y-1256257D01*
G01X-1473434Y-1267182D01*
G01X-1478704Y-1279906D01*
G01X-1480501Y-1293559D01*
G01X-1480501Y-1293559D01*
G01X-1835575Y-1293559D01*
G01X-1851411Y-1286508D01*
G01X-1869865Y-1282584D01*
G01X-1888733Y-1282582D01*
G01X-1907188Y-1286503D01*
G01X-1924425Y-1294176D01*
G01X-1939690Y-1305264D01*
G01X-1952316Y-1319283D01*
G01X-1961752Y-1335622D01*
G01X-1967585Y-1353565D01*
G01X-1971344Y-1340132D01*
G01X-1978493Y-1328154D01*
G01X-1988531Y-1318468D01*
G01X-2000757Y-1311752D01*
G01X-2014315Y-1308475D01*
G01X-2028259Y-1308866D01*
G01X-2041612Y-1312898D01*
G01X-2053442Y-1320289D01*
G01X-2062922Y-1330522D01*
G01X-2069387Y-1342882D01*
G01X-2072388Y-1356504D01*
G01X-2071713Y-1370437D01*
G01X-2067410Y-1383706D01*
G01X-2059780Y-1395383D01*
G01X-2049356Y-1404652D01*
G01X-2036867Y-1410865D01*
G01X-2023186Y-1413587D01*
G01X-2009270Y-1412629D01*
G01X-1996092Y-1408057D01*
G01X-1984572Y-1400190D01*
G01X-1975517Y-1389580D01*
G01X-1969560Y-1376967D01*
G01X-1969560Y-1432342D01*
G01X-1967918Y-1449481D01*
G01X-1963051Y-1465996D01*
G01X-1955137Y-1481286D01*
G01X-1944463Y-1494795D01*
G01X-1931418Y-1506032D01*
G01X-1916477Y-1514586D01*
G01X-2707133Y-1514587D01*
G01X-2692191Y-1506032D01*
G01X-2679146Y-1494795D01*
G01X-2668473Y-1481286D01*
G01X-2660558Y-1465996D01*
G01X-2655691Y-1449481D01*
G01X-2654049Y-1432342D01*
G01X-2654049Y-1372342D01*
G01X-2656022Y-1353578D01*
G01X-2661852Y-1335633D01*
G01X-2671286Y-1319293D01*
G01X-2683912Y-1305271D01*
G01X-2684505Y-1304840D01*
G01X-2664559Y-1304840D01*
G01X-2662761Y-1318494D01*
G01X-2657491Y-1331217D01*
G01X-2649108Y-1342143D01*
G01X-2638182Y-1350526D01*
G01X-2625459Y-1355796D01*
G01X-2611805Y-1357594D01*
G01X-2598151Y-1355796D01*
G01X-2585428Y-1350526D01*
G01X-2574502Y-1342143D01*
G01X-2566118Y-1331217D01*
G01X-2560848Y-1318494D01*
G01X-2559051Y-1304840D01*
G01X-2560848Y-1291186D01*
G01X-2566118Y-1278463D01*
G01X-2574502Y-1267537D01*
G01X-2585428Y-1259154D01*
G01X-2598151Y-1253883D01*
G01X-2611805Y-1252086D01*
G01X-2625459Y-1253883D01*
G01X-2638182Y-1259154D01*
G01X-2649108Y-1267537D01*
G01X-2657491Y-1278463D01*
G01X-2662761Y-1291186D01*
G01X-2664559Y-1304840D01*
G01X-2664559Y-1304840D01*
G01X-2684505Y-1304840D01*
G01X-2699176Y-1294180D01*
G01X-2716413Y-1286506D01*
G01X-2734869Y-1282583D01*
G01X-2753737Y-1282583D01*
G01X-2772193Y-1286506D01*
G01X-2789430Y-1294180D01*
G01X-2804695Y-1305271D01*
G01X-2817320Y-1319293D01*
G01X-2826754Y-1335633D01*
G01X-2832585Y-1353578D01*
G01X-2834557Y-1372342D01*
G01X-2834557Y-1432342D01*
G01X-2834551Y-1433397D01*
G01X-2842442Y-1422356D01*
G01X-2852889Y-1413694D01*
G01X-2865200Y-1407984D01*
G01X-2878560Y-1405603D01*
G01X-2892086Y-1406709D01*
G01X-2904882Y-1411229D01*
G01X-2916101Y-1418864D01*
G01X-2925001Y-1429109D01*
G01X-2930994Y-1441285D01*
G01X-2933682Y-1454587D01*
G01X-2932887Y-1468134D01*
G01X-2928663Y-1481031D01*
G01X-2921288Y-1492423D01*
G01X-2911251Y-1501557D01*
G01X-2899216Y-1507828D01*
G01X-2885980Y-1510822D01*
G01X-2872417Y-1510339D01*
G01X-2859427Y-1506413D01*
G01X-2847868Y-1499302D01*
G01X-2838505Y-1489478D01*
G01X-2831959Y-1477591D01*
G01X-2828662Y-1464427D01*
G01X-2820811Y-1480220D01*
G01X-2810040Y-1494184D01*
G01X-2796758Y-1505788D01*
G01X-2781474Y-1514587D01*
G01X-3411843Y-1514587D01*
G01X-3412633Y-1514597D01*
G01X-3424851Y-1513202D01*
G01X-3436199Y-1508463D01*
G01X-3445780Y-1500754D01*
G01X-3452837Y-1490684D01*
G01X-3456815Y-1479048D01*
G01X-3457399Y-1466765D01*
G01X-3454542Y-1454804D01*
G01X-3448884Y-1444840D01*
G01X-3364559Y-1444840D01*
G01X-3362762Y-1458494D01*
G01X-3357492Y-1471217D01*
G01X-3349108Y-1482143D01*
G01X-3338182Y-1490526D01*
G01X-3325459Y-1495796D01*
G01X-3311805Y-1497594D01*
G01X-3298152Y-1495796D01*
G01X-3285428Y-1490526D01*
G01X-3274503Y-1482143D01*
G01X-3266119Y-1471217D01*
G01X-3260849Y-1458494D01*
G01X-3259051Y-1444840D01*
G01X-3260849Y-1431186D01*
G01X-3266119Y-1418463D01*
G01X-3274503Y-1407537D01*
G01X-3285428Y-1399154D01*
G01X-3298152Y-1393883D01*
G01X-3311805Y-1392086D01*
G01X-3325459Y-1393883D01*
G01X-3338182Y-1399154D01*
G01X-3349108Y-1407537D01*
G01X-3357492Y-1418463D01*
G01X-3362762Y-1431186D01*
G01X-3364559Y-1444840D01*
G01X-3364559Y-1444840D01*
G01X-3448884Y-1444840D01*
G01X-3448470Y-1444110D01*
G01X-3289199Y-1284840D01*
G01X-3204559Y-1284840D01*
G01X-3202761Y-1298493D01*
G01X-3197491Y-1311217D01*
G01X-3189108Y-1322142D01*
G01X-3178182Y-1330526D01*
G01X-3165459Y-1335796D01*
G01X-3151805Y-1337594D01*
G01X-3138151Y-1335796D01*
G01X-3125428Y-1330526D01*
G01X-3114502Y-1322142D01*
G01X-3106119Y-1311217D01*
G01X-3100849Y-1298493D01*
G01X-3099051Y-1284840D01*
G01X-3100849Y-1271186D01*
G01X-3106119Y-1258463D01*
G01X-3114502Y-1247537D01*
G01X-3125428Y-1239153D01*
G01X-3131696Y-1236557D01*
G01X-2958093Y-1236557D01*
G01X-2958093Y-1236557D01*
G01X-2957019Y-1250535D01*
G01X-2952301Y-1263737D01*
G01X-2944272Y-1275230D01*
G01X-2933500Y-1284202D01*
G01X-2920744Y-1290020D01*
G01X-2906907Y-1292272D01*
G01X-2892965Y-1290801D01*
G01X-2879903Y-1285710D01*
G01X-2868644Y-1277358D01*
G01X-2859981Y-1266335D01*
G01X-2852958Y-1277846D01*
G01X-2843245Y-1287201D01*
G01X-2831478Y-1293788D01*
G01X-2818425Y-1297177D01*
G01X-2804940Y-1297145D01*
G01X-2791903Y-1293696D01*
G01X-2780167Y-1287054D01*
G01X-2770498Y-1277653D01*
G01X-2763528Y-1266109D01*
G01X-2759713Y-1253174D01*
G01X-2759302Y-1239695D01*
G01X-2762322Y-1226553D01*
G01X-2768575Y-1214605D01*
G01X-2777653Y-1204632D01*
G01X-2788962Y-1197288D01*
G01X-2801765Y-1193050D01*
G01X-2792210Y-1182564D01*
G01X-2785795Y-1169910D01*
G01X-2782983Y-1156005D01*
G01X-2783979Y-1141854D01*
G01X-2788710Y-1128479D01*
G01X-2796834Y-1116849D01*
G01X-2807763Y-1107804D01*
G01X-2820707Y-1101998D01*
G01X-2834731Y-1099852D01*
G01X-2848819Y-1101521D01*
G01X-2861953Y-1106883D01*
G01X-2873183Y-1115551D01*
G01X-2881698Y-1126898D01*
G01X-2886880Y-1140104D01*
G01X-2888357Y-1154214D01*
G01X-2886019Y-1168207D01*
G01X-2880038Y-1181071D01*
G01X-2870845Y-1191876D01*
G01X-2859105Y-1199840D01*
G01X-2845667Y-1204388D01*
G01X-2852041Y-1210722D01*
G01X-2857247Y-1218044D01*
G01X-2864610Y-1206114D01*
G01X-2874855Y-1196544D01*
G01X-2887259Y-1190011D01*
G01X-2900946Y-1186976D01*
G01X-2914949Y-1187652D01*
G01X-2928279Y-1191993D01*
G01X-2939995Y-1199692D01*
G01X-2949270Y-1210205D01*
G01X-2955448Y-1222790D01*
G01X-2958093Y-1236557D01*
G01X-3131696Y-1236557D01*
G01X-3138151Y-1233883D01*
G01X-3151805Y-1232086D01*
G01X-3165459Y-1233883D01*
G01X-3178182Y-1239153D01*
G01X-3189108Y-1247537D01*
G01X-3197491Y-1258463D01*
G01X-3202761Y-1271186D01*
G01X-3204559Y-1284840D01*
G01X-3204559Y-1284840D01*
G01X-3289199Y-1284840D01*
G01X-3240894Y-1236534D01*
G01X-3223538Y-1216504D01*
G01X-3209209Y-1194208D01*
G01X-3198199Y-1170100D01*
G01X-3190733Y-1144671D01*
G01X-3186961Y-1118438D01*
G01X-3186961Y-1091934D01*
G01X-3190733Y-1065701D01*
G01X-3190986Y-1064840D01*
G01X-3164559Y-1064840D01*
G01X-3162762Y-1078493D01*
G01X-3157491Y-1091217D01*
G01X-3149108Y-1102142D01*
G01X-3138182Y-1110526D01*
G01X-3125459Y-1115796D01*
G01X-3111805Y-1117594D01*
G01X-3098151Y-1115796D01*
G01X-3085428Y-1110526D01*
G01X-3074502Y-1102142D01*
G01X-3066119Y-1091217D01*
G01X-3060849Y-1078493D01*
G01X-3059051Y-1064840D01*
G01X-3060849Y-1051186D01*
G01X-3066119Y-1038463D01*
G01X-3074502Y-1027537D01*
G01X-3085428Y-1019153D01*
G01X-3098151Y-1013883D01*
G01X-3111805Y-1012086D01*
G01X-3125459Y-1013883D01*
G01X-3138182Y-1019153D01*
G01X-3149108Y-1027537D01*
G01X-3157491Y-1038463D01*
G01X-3162762Y-1051186D01*
G01X-3164559Y-1064840D01*
G01X-3164559Y-1064840D01*
G01X-3190986Y-1064840D01*
G01X-3198199Y-1040272D01*
G01X-3209209Y-1016164D01*
G01X-3223538Y-993868D01*
G01X-3240894Y-973838D01*
G01X-3260923Y-956482D01*
G01X-3283219Y-942154D01*
G01X-3307327Y-931144D01*
G01X-3332757Y-923677D01*
G01X-3358990Y-919905D01*
G01X-3385493Y-919905D01*
G01X-3411726Y-923677D01*
G01X-3437156Y-931144D01*
G01X-3461264Y-942154D01*
G01X-3483560Y-956482D01*
G01X-3503589Y-973838D01*
G01X-3711810Y-1182059D01*
G01X-3722522Y-1187865D01*
G01X-3734418Y-1190492D01*
G01X-3746579Y-1189738D01*
G01X-3758060Y-1185661D01*
G01X-3767972Y-1178576D01*
G01X-3775546Y-1169034D01*
G01X-3780197Y-1157773D01*
G01X-3781563Y-1145666D01*
G01X-3781552Y-1144874D01*
G01X-3781552Y-1039740D01*
G01X-3698259Y-1039740D01*
G01X-3696462Y-1053394D01*
G01X-3691192Y-1066117D01*
G01X-3682808Y-1077043D01*
G01X-3671882Y-1085426D01*
G01X-3659159Y-1090696D01*
G01X-3645505Y-1092494D01*
G01X-3631852Y-1090696D01*
G01X-3619128Y-1085426D01*
G01X-3608203Y-1077043D01*
G01X-3599819Y-1066117D01*
G01X-3594549Y-1053394D01*
G01X-3592751Y-1039740D01*
G01X-3594549Y-1026086D01*
G01X-3599819Y-1013363D01*
G01X-3608203Y-1002437D01*
G01X-3619128Y-994054D01*
G01X-3631852Y-988783D01*
G01X-3645505Y-986986D01*
G01X-3659159Y-988783D01*
G01X-3671882Y-994054D01*
G01X-3682808Y-1002437D01*
G01X-3691192Y-1013363D01*
G01X-3696462Y-1026086D01*
G01X-3698259Y-1039740D01*
G01X-3698259Y-1039740D01*
G01X-3781552Y-1039740D01*
G01X-3781552Y-793287D01*
G01X-3595813Y-793287D01*
G01X-3595740Y-807521D01*
G01X-3591865Y-821218D01*
G01X-3584469Y-833380D01*
G01X-3574091Y-843122D01*
G01X-3582620Y-854518D01*
G01X-3587791Y-867780D01*
G01X-3589228Y-881942D01*
G01X-3586827Y-895972D01*
G01X-3580762Y-908850D01*
G01X-3571475Y-919637D01*
G01X-3559642Y-927549D01*
G01X-3546125Y-932009D01*
G01X-3531907Y-932693D01*
G01X-3531907Y-932693D01*
G01X-3518024Y-929550D01*
G01X-3505486Y-922810D01*
G01X-3495207Y-912964D01*
G01X-3490379Y-904840D01*
G01X-3164559Y-904840D01*
G01X-3162762Y-918493D01*
G01X-3157491Y-931217D01*
G01X-3149108Y-942142D01*
G01X-3138182Y-950526D01*
G01X-3125459Y-955796D01*
G01X-3111805Y-957594D01*
G01X-3098151Y-955796D01*
G01X-3085428Y-950526D01*
G01X-3074502Y-942142D01*
G01X-3066119Y-931217D01*
G01X-3060849Y-918493D01*
G01X-3059228Y-906180D01*
G01X-2924542Y-906180D01*
G01X-2922198Y-920446D01*
G01X-2916069Y-933540D01*
G01X-2906615Y-944479D01*
G01X-2894547Y-952440D01*
G01X-2880772Y-956826D01*
G01X-2866322Y-957308D01*
G01X-2852285Y-953849D01*
G01X-2839713Y-946710D01*
G01X-2829552Y-936426D01*
G01X-2829557Y-937328D01*
G01X-2829557Y-1027328D01*
G01X-2827546Y-1045737D01*
G01X-2821607Y-1063277D01*
G01X-2812020Y-1079122D01*
G01X-2799239Y-1092522D01*
G01X-2783865Y-1102846D01*
G01X-2766625Y-1109608D01*
G01X-2748332Y-1112486D01*
G01X-2729848Y-1111347D01*
G01X-2712047Y-1106244D01*
G01X-2695767Y-1097417D01*
G01X-2681778Y-1085283D01*
G01X-2670738Y-1070415D01*
G01X-2663170Y-1053513D01*
G01X-2658212Y-1065353D01*
G01X-2651031Y-1075993D01*
G01X-2641907Y-1085021D01*
G01X-2631192Y-1092089D01*
G01X-2644865Y-1093728D01*
G01X-2657647Y-1098849D01*
G01X-2668669Y-1107104D01*
G01X-2677180Y-1117930D01*
G01X-2682598Y-1130590D01*
G01X-2684555Y-1144221D01*
G01X-2682918Y-1157894D01*
G01X-2677798Y-1170677D01*
G01X-2669545Y-1181700D01*
G01X-2658719Y-1190211D01*
G01X-2646060Y-1195631D01*
G01X-2632430Y-1197590D01*
G01X-2618757Y-1195955D01*
G01X-2605973Y-1190836D01*
G01X-2594949Y-1182584D01*
G01X-2586436Y-1171760D01*
G01X-2581015Y-1159101D01*
G01X-2579054Y-1145471D01*
G01X-2580688Y-1131797D01*
G01X-2585805Y-1119013D01*
G01X-2594056Y-1107988D01*
G01X-2604880Y-1099474D01*
G01X-2589326Y-1098587D01*
G01X-2574425Y-1094038D01*
G01X-2561028Y-1086087D01*
G01X-2549897Y-1075186D01*
G01X-2541667Y-1061958D01*
G01X-2536807Y-1047156D01*
G01X-2536213Y-1039541D01*
G01X-2390790Y-1039541D01*
G01X-2389266Y-1053083D01*
G01X-2384323Y-1065782D01*
G01X-2376292Y-1076792D01*
G01X-2365710Y-1085377D01*
G01X-2353281Y-1090965D01*
G01X-2339835Y-1093183D01*
G01X-2326270Y-1091883D01*
G01X-2313490Y-1087151D01*
G01X-2302349Y-1079303D01*
G01X-2292314Y-1087052D01*
G01X-2280721Y-1092182D01*
G01X-2268238Y-1094399D01*
G01X-2255586Y-1093573D01*
G01X-2243497Y-1089752D01*
G01X-2232669Y-1083158D01*
G01X-2223727Y-1074171D01*
G01X-2219308Y-1087784D01*
G01X-2211392Y-1099708D01*
G01X-2200562Y-1109066D01*
G01X-2187616Y-1115168D01*
G01X-2173505Y-1117566D01*
G01X-2159270Y-1116083D01*
G01X-2145957Y-1110828D01*
G01X-2134547Y-1102187D01*
G01X-2125879Y-1090798D01*
G01X-2120592Y-1077497D01*
G01X-2119074Y-1063266D01*
G01X-2121438Y-1049149D01*
G01X-2125784Y-1039871D01*
G01X-2087812Y-1039871D01*
G01X-2084843Y-1054539D01*
G01X-2078611Y-1068145D01*
G01X-2069443Y-1079974D01*
G01X-2057822Y-1089402D01*
G01X-2044358Y-1095935D01*
G01X-2029760Y-1099229D01*
G01X-2014795Y-1099111D01*
G01X-2000250Y-1095586D01*
G01X-1986892Y-1088840D01*
G01X-1975421Y-1079229D01*
G01X-1966442Y-1067256D01*
G01X-1960426Y-1053553D01*
G01X-1953496Y-1069329D01*
G01X-1943535Y-1083390D01*
G01X-1930950Y-1095160D01*
G01X-1916255Y-1104159D01*
G01X-1900052Y-1110019D01*
G01X-1883000Y-1112502D01*
G01X-1865798Y-1111505D01*
G01X-1849148Y-1107069D01*
G01X-1833729Y-1099376D01*
G01X-1820173Y-1088740D01*
G01X-1809032Y-1075595D01*
G01X-1805200Y-1089151D01*
G01X-1797917Y-1101209D01*
G01X-1787702Y-1110911D01*
G01X-1775285Y-1117563D01*
G01X-1761549Y-1120691D01*
G01X-1747476Y-1120074D01*
G01X-1734068Y-1115753D01*
G01X-1722281Y-1108039D01*
G01X-1712956Y-1097480D01*
G01X-1706757Y-1084829D01*
G01X-1704128Y-1070990D01*
G01X-1705255Y-1056948D01*
G01X-1710058Y-1043705D01*
G01X-1718194Y-1032205D01*
G01X-1729083Y-1023268D01*
G01X-1741950Y-1017532D01*
G01X-1755875Y-1015405D01*
G01X-1769867Y-1017040D01*
G01X-1782928Y-1022319D01*
G01X-1794126Y-1030866D01*
G01X-1794052Y-1027328D01*
G01X-1794052Y-1027328D01*
G01X-1794052Y-937328D01*
G01X-1795915Y-919603D01*
G01X-1801423Y-902652D01*
G01X-1810334Y-887217D01*
G01X-1822260Y-873972D01*
G01X-1836679Y-863496D01*
G01X-1852961Y-856247D01*
G01X-1870395Y-852541D01*
G01X-1888218Y-852541D01*
G01X-1905651Y-856247D01*
G01X-1921933Y-863496D01*
G01X-1936352Y-873972D01*
G01X-1948278Y-887217D01*
G01X-1957189Y-902652D01*
G01X-1962697Y-919603D01*
G01X-1964560Y-937328D01*
G01X-1964560Y-1004895D01*
G01X-1972801Y-992404D01*
G01X-1983671Y-982118D01*
G01X-1996599Y-974579D01*
G01X-2010904Y-970184D01*
G01X-2025835Y-969163D01*
G01X-2040605Y-971571D01*
G01X-2054439Y-977280D01*
G01X-2066607Y-985991D01*
G01X-2076472Y-997245D01*
G01X-2083513Y-1010450D01*
G01X-2087360Y-1024913D01*
G01X-2087812Y-1039871D01*
G01X-2125784Y-1039871D01*
G01X-2127509Y-1036188D01*
G01X-2136841Y-1025336D01*
G01X-2148746Y-1017392D01*
G01X-2162349Y-1012940D01*
G01X-2176648Y-1012308D01*
G01X-2190590Y-1015543D01*
G01X-2203149Y-1022407D01*
G01X-2213401Y-1032394D01*
G01X-2217704Y-1019025D01*
G01X-2225381Y-1007264D01*
G01X-2235889Y-997946D01*
G01X-2248484Y-991731D01*
G01X-2262272Y-989060D01*
G01X-2276276Y-990121D01*
G01X-2289505Y-994840D01*
G01X-2301019Y-1002882D01*
G01X-2301019Y-1002882D01*
G01X-2311880Y-994651D01*
G01X-2324487Y-989477D01*
G01X-2337999Y-987705D01*
G01X-2351513Y-989454D01*
G01X-2364129Y-994606D01*
G01X-2375005Y-1002817D01*
G01X-2383414Y-1013541D01*
G01X-2388795Y-1026061D01*
G01X-2390790Y-1039541D01*
G01X-2536213Y-1039541D01*
G01X-2535595Y-1031624D01*
G01X-2538098Y-1016248D01*
G01X-2544175Y-1001902D01*
G01X-2553480Y-989407D01*
G01X-2565481Y-979472D01*
G01X-2579494Y-972666D01*
G01X-2594722Y-969375D01*
G01X-2610296Y-969788D01*
G01X-2625328Y-973880D01*
G01X-2638962Y-981419D01*
G01X-2650420Y-991975D01*
G01X-2659049Y-1004946D01*
G01X-2659049Y-937328D01*
G01X-2660819Y-920049D01*
G01X-2666053Y-903487D01*
G01X-2674536Y-888330D01*
G01X-2685915Y-875207D01*
G01X-2699717Y-864662D01*
G01X-2715370Y-857134D01*
G01X-2732224Y-852934D01*
G01X-2749580Y-852238D01*
G01X-2766716Y-855073D01*
G01X-2782922Y-861323D01*
G01X-2797525Y-870727D01*
G01X-2809919Y-882896D01*
G01X-2819589Y-897325D01*
G01X-2823590Y-883432D01*
G01X-2831212Y-871147D01*
G01X-2841882Y-861393D01*
G01X-2854800Y-854901D01*
G01X-2868996Y-852161D01*
G01X-2883402Y-853376D01*
G01X-2896937Y-858457D01*
G01X-2908584Y-867021D01*
G01X-2917470Y-878425D01*
G01X-2922926Y-891814D01*
G01X-2922926Y-891814D01*
G01X-2924542Y-906180D01*
G01X-3059228Y-906180D01*
G01X-3059051Y-904840D01*
G01X-3060849Y-891186D01*
G01X-3066119Y-878463D01*
G01X-3074502Y-867537D01*
G01X-3085428Y-859153D01*
G01X-3098151Y-853883D01*
G01X-3111805Y-852086D01*
G01X-3125459Y-853883D01*
G01X-3138182Y-859153D01*
G01X-3149108Y-867537D01*
G01X-3157491Y-878463D01*
G01X-3162762Y-891186D01*
G01X-3164559Y-904840D01*
G01X-3164559Y-904840D01*
G01X-3490379Y-904840D01*
G01X-3487934Y-900727D01*
G01X-3484198Y-886992D01*
G01X-3484270Y-872758D01*
G01X-3488145Y-859061D01*
G01X-3495541Y-846899D01*
G01X-3497735Y-844840D01*
G01X-3364559Y-844840D01*
G01X-3362762Y-858493D01*
G01X-3357491Y-871217D01*
G01X-3349108Y-882142D01*
G01X-3338182Y-890526D01*
G01X-3325459Y-895796D01*
G01X-3311805Y-897594D01*
G01X-3298151Y-895796D01*
G01X-3285428Y-890526D01*
G01X-3274502Y-882142D01*
G01X-3266119Y-871217D01*
G01X-3260849Y-858493D01*
G01X-3259051Y-844840D01*
G01X-3260849Y-831186D01*
G01X-3266119Y-818463D01*
G01X-3274502Y-807537D01*
G01X-3285428Y-799153D01*
G01X-3298151Y-793883D01*
G01X-3311805Y-792086D01*
G01X-3325459Y-793883D01*
G01X-3338182Y-799153D01*
G01X-3349108Y-807537D01*
G01X-3357491Y-818463D01*
G01X-3362762Y-831186D01*
G01X-3364559Y-844840D01*
G01X-3364559Y-844840D01*
G01X-3497735Y-844840D01*
G01X-3505920Y-837157D01*
G01X-3497391Y-825760D01*
G01X-3492220Y-812499D01*
G01X-3490782Y-798337D01*
G01X-3493183Y-784307D01*
G01X-3499248Y-771429D01*
G01X-3508535Y-760642D01*
G01X-3520368Y-752730D01*
G01X-3533886Y-748270D01*
G01X-3548104Y-747586D01*
G01X-3561987Y-750729D01*
G01X-3574525Y-757469D01*
G01X-3584804Y-767315D01*
G01X-3592076Y-779552D01*
G01X-3595813Y-793287D01*
G01X-3781552Y-793287D01*
G01X-3781551Y-764839D01*
G01X-3779856Y-751964D01*
G01X-3774887Y-739966D01*
G01X-3766981Y-729664D01*
G01X-3756679Y-721758D01*
G01X-3744681Y-716788D01*
G01X-3731805Y-715093D01*
G01X-3591805Y-715093D01*
G37*
G54D10*
G01X-3515778Y973291D02*
G01X-3565635Y973291D01*
G03X-3562856Y992876I-67635J19585D01*
G01X-3562857Y1052882D01*
G03X-3581977Y1081120I-30414J-0D01*
G03X-3633271Y1103295I-51295J-48239D01*
G01X-3773324Y1103291D01*
G02X-3782856Y1112876I54J9586D01*
G01X-3781856Y1352875D01*
G02X-3772270Y1362462I9586J1D01*
G03X-3762767Y1363985I0J30414D01*
G01X-3627660Y1363959D01*
G03X-3621308Y1364629I6J30414D01*
G03X-3557901Y1432267I2090J61580D01*
G02X-3553905Y1433959I8037J-13412D01*
G01X-3540886Y1433322D01*
G03X-3531375Y1434364I1486J30378D01*
G01X-3482597Y1434364D01*
G03X-3474216Y1435541I0J30414D01*
G03X-3408949Y1502196I-5055J70232D01*
G01X-3407610Y1508606D01*
G03X-3407161Y1511450I-28528J5958D01*
G02X-3388903Y1529976I20796J-2235D01*
G01X-3379887Y1529551D01*
G03X-3372147Y1530178I1432J30380D01*
G01X-2902969Y1531351D01*
G03X-2829411Y1566235I16960J59235D01*
G03X-2825775Y1577615I-26589J14765D01*
G03X-2825008Y1599265I-60234J12972D01*
G02X-2806482Y1614550I22437J-8325D01*
G03X-2791579Y1610649I14903J26513D01*
G01X-1492550Y1610649D01*
G03X-1482572Y1612332I0J30414D01*
G02X-1457427Y1593719I993J-24949D01*
G01X-1456710Y1591375D01*
G01X-1456710Y1520353D01*
G03X-1407968Y1433681I87999J-7553D01*
G03X-1386537Y1424775I21504J21508D01*
G01X-1374354Y1424746D01*
G01X-1372949Y1424775D01*
G01X-1213101Y1424775D01*
G01X-1211388Y1424751D01*
G01X-1209606Y1424775D01*
G02X-1174474Y1355589I-177J-43603D01*
G01X-1382587Y1152308D01*
G01X-1382830Y1152067D01*
G03X-1436703Y1035290I131461J-131461D01*
G01X-1741072Y1035290D01*
G03X-1808555Y1035290I-33741J-40760D01*
G01X-2461043Y1035290D01*
G03X-2464128Y1034810I0J-10160D01*
G03X-2472062Y760640I44129J-138476D01*
G01X-2470815Y760252D01*
G01X-2120019Y675257D01*
G03X-2079565Y623735I52914J-96D01*
G03X-2020015Y651027I12460J51426D01*
G01X-1962062Y636986D01*
G03X-1903920Y580471I52772J-3874D01*
G03X-1829151Y549048I125516J193992D01*
G01X-1829151Y549048D01*
G03X-1358607Y451870I2968212J13184595D01*
G01X-1358607Y451870D01*
G02X-1292359Y385622I-15344J-81592D01*
G02X-1279997Y64334I-1075595J-202268D01*
G03X-1271556Y-7636I160932J-17605D01*
G01X-1271556Y-71935D01*
G03X-1271556Y-150791I35289J-39428D01*
G01X-1271556Y-180435D01*
G03X-1272382Y-228903I46617J-25036D01*
G03X-1333784Y-309405I27162J-84385D01*
G03X-1338920Y-597003I5535612J-242695D01*
G03X-1338031Y-604914I38413J311D01*
G02X-1353186Y-624615I-15864J-3476D01*
G02X-1614958Y-614929I-70980J1623864D01*
G02X-1725825Y-581053I245031J1000269D01*
G03X-2011689Y-590784I-130991J-355687D01*
G02X-2121467Y-600502I-89305J383906D01*
G03X-2131247Y-599090I-10333J-36998D01*
G02X-2450001Y-583911I69224J4808152D01*
G02X-2481061Y-548097I2698J33716D01*
G03X-2508476Y-309952I-679229J42459D01*
G03X-2418193Y-258693I40076J34552D01*
G03X-2521188Y-271750I-50207J-16707D01*
G03X-2533851Y-239688I-639102J-233888D01*
G03X-2576344Y-170185I-50063J17134D01*
G03X-2636781Y-224808I-7571J-52370D01*
G03X-2671277Y-301841I11884J-51562D01*
G03X-2587763Y-314067I46381J25470D01*
G02X-2557739Y-543303I-572527J-191571D01*
G03X-2524876Y-629107I110424J-6903D01*
G02X-2690248Y-619571I453763J9307172D01*
G01X-2690248Y-619571D01*
G02X-2761706Y-534502I5117J76845D01*
G03X-2761204Y-525356I-87308J9376D01*
G03X-2669443Y-519429I44192J29102D01*
G03X-2616419Y-441687I6512J52512D01*
G03X-2710499Y-443742I-46512J-25230D01*
G03X-2769318Y-488258I-6512J-52512D01*
G03X-2777574Y-474067I-79696J-36868D01*
G02X-2781288Y-465772I73422J37858D01*
G03X-2818425Y-383727I-43885J29563D01*
G03X-2875110Y-453708I-6748J-52482D01*
G03X-2906149Y-484345I18348J-49631D01*
G03X-2931101Y-456405I-49388J-18994D01*
G03X-2919174Y-373925I-26313J45908D01*
G03X-3002104Y-382165I-38240J-36573D01*
G03X-3055337Y-440871I44690J-94012D01*
G03X-3005464Y-597616I127159J-45847D01*
G03X-2924555Y-651335I1232812J1768971D01*
G01X-3064874Y-650111D01*
G03X-3168760Y-649204I-52031J-9628D01*
G01X-3229914Y-648671D01*
G03X-3281445Y-585928I-51993J9831D01*
G03X-3334063Y-647762I-462J-52912D01*
G01X-3399309Y-647192D01*
G03X-3427444Y-549760I-28597J44521D01*
G03X-3457276Y-646687I-462J-52912D01*
G01X-3503970Y-646279D01*
G03X-3501392Y-624839I-87835J21440D01*
G03X-3501827Y-619709I-30414J0D01*
G01X-3501828Y-589172D01*
G03X-3501392Y-584039I-29978J5133D01*
G01X-3501392Y-574039D01*
G03X-3504483Y-553403I-70414J0D01*
G03X-3436392Y-473939I-12322J79464D01*
G01X-3436392Y-323939D01*
G03X-3502226Y-244858I-80414J0D01*
G03X-3501391Y-234044I-69579J10814D01*
G01X-3501388Y-230077D01*
G03X-3502844Y-199033I-72540J12154D01*
G03X-3436392Y-119840I-13961J79193D01*
G01X-3436392Y30160D01*
G03X-3503174Y109410I-80414J0D01*
G03X-3501391Y125156I-68631J15745D01*
G01X-3501392Y134161D01*
G03X-3504483Y154795I-70414J0D01*
G03X-3436392Y234259I-12323J79464D01*
G01X-3436392Y384259D01*
G03X-3437338Y396559I-80414J0D01*
G03X-3356359Y426700I29832J43703D01*
G03X-3251893Y437744I51558J11900D01*
G03X-3355947Y452162I-52907J856D01*
G03X-3460403Y441576I-51558J-11900D01*
G03X-3502226Y463341I-56403J-57316D01*
G03X-3501397Y473248I-69578J10814D01*
G01X-3496337Y565226D01*
G03X-3497608Y575752I-30368J1670D01*
G03X-3505223Y613081I-85556J1989D01*
G03X-3440760Y652408I-10554J89796D01*
G03X-3350356Y679335I38355J36453D01*
G03X-3425364Y736535I-52050J9526D01*
G01X-3425364Y882877D01*
G03X-3515778Y973291I-90414J0D01*
G01X-3391019Y324961D02*
G03X-3285191Y324961I52914J0D01*
G03X-3391019Y324961I-52914J0D01*
G01X-3358419Y955561D02*
G03X-3252591Y955561I52914J0D01*
G03X-3358419Y955561I-52914J0D01*
G01X-3339322Y573160D02*
G03X-3233494Y573160I52914J0D01*
G03X-3339322Y573160I-52914J0D01*
G01X-3142704Y695439D02*
G03X-3233815Y747333I-49101J19722D01*
G03X-3335509Y772882I-52592J5827D01*
G03X-3244397Y720988I49101J-19722D01*
G03X-3142704Y695439I52592J-5827D01*
G01X-3309717Y175160D02*
G03X-3203889Y175160I52914J0D01*
G03X-3309717Y175160I-52914J0D01*
G01X-3274499Y1261550D02*
G03X-3168671Y1261550I52914J0D01*
G03X-3274499Y1261550I-52914J0D01*
G01X-3249819Y828860D02*
G03X-3143991Y828860I52914J0D01*
G03X-3249819Y828860I-52914J0D01*
G01X-3243601Y1447400D02*
G03X-3117775Y1447400I62913J0D01*
G03X-3243601Y1447400I-62913J0D01*
G01X-3086728Y1247644D02*
G03X-2980900Y1247644I52914J0D01*
G03X-3086728Y1247644I-52914J0D01*
G01X-3073599Y1447400D02*
G03X-2947773Y1447400I62913J0D01*
G03X-3073599Y1447400I-62913J0D01*
G01X-2868114Y1259700D02*
G03X-2762286Y1259700I52914J0D01*
G03X-2868114Y1259700I-52914J0D01*
G01X-2648335Y21239D02*
G03X-2631299Y-30468I51615J-11655D01*
G03X-2624431Y-132514I16996J-50110D01*
G03X-2579724Y-40526I10128J51936D01*
G03X-2543998Y5080I-16996J50110D01*
G03X-2571471Y56085I-52722J4504D01*
G03X-2598906Y114806I-51615J11655D01*
G03X-2626666Y170914I-52120J9134D01*
G03X-2660653Y266995I-30434J43286D01*
G03X-2681459Y167226I3553J-52795D01*
G03X-2675205Y76874I30434J-43286D01*
G03X-2648335Y21239I52120J-9134D01*
G01X-2663621Y1200262D02*
G03X-2557793Y1200262I52914J0D01*
G03X-2663621Y1200262I-52914J0D01*
G01X-2533820Y1377087D02*
G03X-2427992Y1377087I52914J0D01*
G03X-2533820Y1377087I-52914J0D01*
G01X-2335848Y323822D02*
G03X-2309845Y224824I26002J-46084D01*
G03X-2283843Y323822I0J52914D01*
G03X-2276379Y410893I-26002J46084D01*
G03X-2309845Y504794I-33466J40987D01*
G03X-2343312Y410893I0J-52914D01*
G03X-2335848Y323822I33466J-40987D01*
G01X-2256114Y-265200D02*
G03X-2150286Y-265200I52914J0D01*
G03X-2256114Y-265200I-52914J0D01*
G01X-1931369Y44752D02*
G03X-1982362Y128700I-42331J31748D01*
G03X-2084438Y140998I-52538J-6300D01*
G03X-2188234Y160733I-52462J6902D01*
G03X-2087362Y129302I51334J-12833D01*
G03X-2026238Y70200I52462J-6902D01*
G03X-1931369Y44752I52538J6300D01*
G01X-2150717Y316606D02*
G03X-2125010Y217443I25707J-46250D01*
G03X-2099303Y316606I0J52914D01*
G03X-2099303Y409106I-25707J46250D01*
G03X-2125010Y508270I-25707J46250D01*
G03X-2150716Y409106I0J-52914D01*
G03X-2150717Y316606I25707J-46250D01*
G01X-2167268Y1486928D02*
G03X-2061440Y1486928I52914J0D01*
G03X-2167268Y1486928I-52914J0D01*
G01X-2124120Y-501176D02*
G03X-2018292Y-501176I52914J0D01*
G03X-2124120Y-501176I-52914J0D01*
G01X-1803804Y1208962D02*
G01X-1739804Y1208962D01*
G03X-1701390Y1247376I0J38414D01*
G01X-1701390Y1381376D01*
G03X-1739804Y1419790I-38414J0D01*
G01X-1803804Y1419790D01*
G03X-1831624Y1407866I0J-38414D01*
G03X-1859804Y1420175I-28181J-26105D01*
G01X-1923804Y1420175D01*
G03X-1962218Y1381761I0J-38414D01*
G01X-1962218Y1247761D01*
G03X-1923804Y1209347I38414J0D01*
G01X-1859804Y1209347D01*
G03X-1831985Y1221271I0J38414D01*
G03X-1803804Y1208962I28181J26105D01*
G01X-1885846Y146800D02*
G03X-1802064Y103822I52914J0D01*
G03X-1740329Y103822I30868J42978D01*
G03X-1677186Y104869I30868J42978D01*
G03X-1589131Y142517I35174J39531D01*
G03X-1674287Y186331I-52881J1882D01*
G03X-1740329Y189778I-35174J-39531D01*
G03X-1802064Y189778I-30868J-42978D01*
G03X-1885846Y146800I-30868J-42978D01*
G01X-1603314Y1089666D02*
G03X-1497486Y1089666I52914J0D01*
G03X-1603314Y1089666I-52914J0D01*
G01X-1457357Y139803D02*
G03X-1351529Y139803I52914J0D01*
G03X-1457357Y139803I-52914J0D01*
G54D11*
G01X-3591805Y-715093D02*
G03X-3525901Y-686503I-0J90254D01*
G01X-3515603Y-686593D01*
G03X-3466565Y-757592I49498J-18246D01*
G03X-3416296Y-687460I460J52752D01*
G01X-3299772Y-688477D01*
G03X-3264910Y-688781I17865J49637D01*
G01X-3160330Y-689693D01*
G03X-3074009Y-690447I43425J29954D01*
G01X-2856635Y-692344D01*
G03X-2813264Y-716903I1083984J1863699D01*
G03X-2720286Y-736827I79559J144365D01*
G02X-2665314Y-736827I27486J-336514D01*
G01X-2665314Y-736827D01*
G03X-2481636Y-749214I529221J6479336D01*
G03X-2519448Y-796373I14828J-50627D01*
G03X-2592920Y-804986I-32357J-41666D01*
G03X-2641552Y-788789I-38886J-35649D01*
G03X-2737109Y-777811I-50253J-16051D01*
G03X-2682059Y-856686I45304J-27028D01*
G03X-2590691Y-873687I50253J16051D01*
G03X-2499165Y-841507I38886J35649D01*
G03X-2421109Y-826196I32357J41666D01*
G03X-2446951Y-750967I-45699J26355D01*
G03X-2018910Y-757348I310858J6493476D01*
G02X-1972963Y-773757I1245J-69046D01*
G03X-1753627Y-786660I118237J139221D01*
G03X-1720499Y-746949I-50223J75570D01*
G03X-1702001Y-721923I-31286J42476D01*
G03X-1660690Y-745762I44174J28838D01*
G03X-1611935Y-787550I51618J10888D01*
G03X-1598023Y-813556I51618J10889D01*
G03X-1560802Y-903492I37423J-37182D01*
G03X-1522894Y-813843I202J52754D01*
G03X-1510547Y-794152I-37423J37182D01*
G03X-1461804Y-788233I18743J49312D01*
G03X-1390162Y-777226I30000J43393D01*
G03X-1397132Y-705080I-41642J32387D01*
G01X-1261660Y-706262D01*
G03X-1231142Y-676009I264J30253D01*
G01X-1231142Y-622150D01*
G03X-1170633Y-595488I13678J50950D01*
G03X-1183697Y-530669I-46830J24288D01*
G03X-1179163Y-512466I-48107J21649D01*
G03X-1124126Y-459795I2283J52705D01*
G03X-1179096Y-407054I-52754J33D01*
G03X-1187551Y-376122I-52708J2215D01*
G03X-1212356Y-355801I-44253J-28717D01*
G03X-1181727Y-307606I-22124J47890D01*
G03X-1128115Y-259612I1073J52743D01*
G03X-1172254Y-202783I-52540J4748D01*
G03X-1207599Y-155648I-52685J-2688D01*
G03X-1188015Y-90038I-28667J44285D01*
G03X-1163744Y-9512I-18362J49455D01*
G03X-1142552Y54041I-28066J44668D01*
G03X-1200797Y87140I-49258J-18884D01*
G03X-1217012Y399791I-1167157J96214D01*
G03X-1271437Y492720I-156939J-29513D01*
G03X-1290883Y512477I-134821J-113251D01*
G03X-1303583Y519026I-19824J-22854D01*
G01X-1860869Y654051D01*
G03X-1896867Y684382I-48420J-20939D01*
G03X-1942756Y673891I-12422J-51271D01*
G01X-2017076Y691898D01*
G03X-2103924Y712941I-50029J-16737D01*
G01X-2459284Y799041D01*
G02X-2456034Y994876I39285J97292D01*
G01X-2366529Y994876D01*
G03X-2331805Y902407I34724J-39714D01*
G03X-2297080Y994876I0J52754D01*
G01X-1827566Y994876D01*
G03X-1774814Y941775I52753J-346D01*
G03X-1722061Y994876I0J52754D01*
G01X-1486528Y994876D01*
G03X-1487725Y916526I34724J-39714D01*
G03X-1409669Y923418I35921J38636D01*
G03X-1382717Y889258I158300J97189D01*
G01X-1377617Y884158D01*
G03X-1114921Y884158I131348J131348D01*
G01X-1114682Y884400D01*
G01X-900118Y1104065D01*
G03X-894448Y1112193I-21643J21140D01*
G02X-842268Y1092776I19040J-28654D01*
G03X-781783Y1023239I60485J-8463D01*
G01X-556764Y1024930D01*
G03X-551649Y1025424I-218J28983D01*
G02X-520645Y999988I4818J-25740D01*
G01X-520704Y997633D01*
G03X-520644Y994836I30245J-751D01*
G01X-520712Y44087D01*
G03X-522059Y35155I28907J-8926D01*
G01X-521912Y-723919D01*
G01X-523858Y-724574D01*
G03X-588217Y-805664I-2638J-63991D01*
G01X-588217Y-1239778D01*
G02X-599995Y-1254483I-21840J5423D01*
G01X-805574Y-1254483D01*
G03X-814023Y-1255687I0J-30254D01*
G02X-847955Y-1246573I-3893J53229D01*
G03X-850706Y-1243410I-24147J-18227D01*
G01X-1130312Y-963728D01*
G03X-1392892Y-963613I-131348J-131348D01*
G03X-1392776Y-1226652I128896J-131463D01*
G01X-1174580Y-1444851D01*
G02X-1210978Y-1514597I-35202J-26000D01*
G01X-1211769Y-1514586D01*
G01X-1842136Y-1514586D01*
G03X-1789052Y-1432342I-37171J82244D01*
G01X-1789052Y-1372342D01*
G03X-1967585Y-1353565I-90254J0D01*
G03X-2072388Y-1356504I-52236J-7376D01*
G03X-1969560Y-1376967I52567J-4436D01*
G01X-1969560Y-1432342D01*
G03X-1916477Y-1514586I90254J0D01*
G01X-2707133Y-1514587D01*
G03X-2654049Y-1432342I-37170J82244D01*
G01X-2654049Y-1372342D01*
G03X-2834557Y-1372342I-90254J0D01*
G01X-2834557Y-1432342D01*
G01X-2834551Y-1433397D01*
G03X-2932887Y-1468134I-46507J-24901D01*
G03X-2828662Y-1464427I51829J9837D01*
G03X-2781474Y-1514587I84358J32085D01*
G01X-3411843Y-1514587D01*
G01X-3412633Y-1514597D01*
G02X-3448470Y-1444110I-1193J43747D01*
G01X-3240894Y-1236534D01*
G03X-3240894Y-973838I-131348J131348D01*
G03X-3503589Y-973838I-131348J-131348D01*
G01X-3711810Y-1182059D01*
G02X-3781563Y-1145666I-26006J35198D01*
G01X-3781552Y-1144874D01*
G01X-3781551Y-764839D01*
G02X-3731805Y-715093I49746J0D01*
G01X-3591805Y-715093D01*
G01X-3698259Y-1039740D02*
G03X-3592751Y-1039740I52754J0D01*
G03X-3698259Y-1039740I-52754J0D01*
G01X-3531907Y-932693D02*
G03X-3505920Y-837157I-4599J52553D01*
G03X-3548104Y-747586I-37586J37017D01*
G03X-3574091Y-843122I4599J-52553D01*
G03X-3531907Y-932693I37586J-37017D01*
G01X-3364559Y-1444840D02*
G03X-3259051Y-1444840I52754J0D01*
G03X-3364559Y-1444840I-52754J0D01*
G01X-3364559Y-844840D02*
G03X-3259051Y-844840I52754J0D01*
G03X-3364559Y-844840I-52754J0D01*
G01X-3204559Y-1284840D02*
G03X-3099051Y-1284840I52754J0D01*
G03X-3204559Y-1284840I-52754J0D01*
G01X-3164559Y-904840D02*
G03X-3059051Y-904840I52754J0D01*
G03X-3164559Y-904840I-52754J0D01*
G01X-3164559Y-1064840D02*
G03X-3059051Y-1064840I52754J0D01*
G03X-3164559Y-1064840I-52754J0D01*
G01X-3010764Y-746832D02*
G03X-2905256Y-746832I52754J0D01*
G03X-3010764Y-746832I-52754J0D01*
G01X-2958093Y-1236557D02*
G03X-2859981Y-1266335I52670J-2982D01*
G03X-2770498Y-1277653I48176J21495D01*
G03X-2801765Y-1193050I-41307J32814D01*
G03X-2848819Y-1101521I-33863J40451D01*
G03X-2845667Y-1204388I13192J-51078D01*
G03X-2857247Y-1218044I33863J-40451D01*
G03X-2958093Y-1236557I-48176J-21495D01*
G01X-2922926Y-891814D02*
G03X-2829552Y-936426I51121J-13026D01*
G01X-2829557Y-937328D01*
G01X-2829557Y-1027328D01*
G03X-2663170Y-1053513I85254J0D01*
G03X-2631192Y-1092089I62377J19166D01*
G03X-2646060Y-1195631I-613J-52750D01*
G03X-2604880Y-1099474I14255J50791D01*
G03X-2544175Y-1001902I4087J65127D01*
G03X-2659049Y-1004946I-56618J-32445D01*
G01X-2659049Y-937328D01*
G03X-2819589Y-897325I-85254J0D01*
G03X-2922926Y-891814I-52216J-7515D01*
G01X-2664559Y-1304840D02*
G03X-2559051Y-1304840I52754J0D01*
G03X-2664559Y-1304840I-52754J0D01*
G01X-2301019Y-1002882D02*
G03X-2390790Y-1039541I-37026J-37578D01*
G03X-2302349Y-1079303I52746J-918D01*
G03X-2223727Y-1074171I37026J37578D01*
G03X-2120592Y-1077497I51922J9331D01*
G03X-2213401Y-1032394I-51213J12658D01*
G03X-2301019Y-1002882I-51922J-9331D01*
G01X-2344558Y835161D02*
G03X-2239050Y835161I52754J0D01*
G03X-2344558Y835161I-52754J0D01*
G01X-2184559Y845362D02*
G03X-2096905Y805802I52754J0D01*
G03X-2009250Y845362I34900J39560D01*
G03X-2096905Y884921I-52754J0D01*
G03X-2184559Y845362I-34900J-39560D01*
G01X-1794052Y-1027328D02*
G01X-1794052Y-937328D01*
G03X-1964560Y-937328I-85254J0D01*
G01X-1964560Y-1004895D01*
G03X-2087812Y-1039871I-58231J-29452D01*
G03X-1960426Y-1053553I65021J5524D01*
G03X-1809032Y-1075595I81120J26225D01*
G03X-1706757Y-1084829I52226J7444D01*
G03X-1794126Y-1030866I-50048J16678D01*
G03X-1794052Y-1027328I-85180J3538D01*
G01X-1964207Y815156D02*
G03X-1858699Y815156I52754J0D01*
G03X-1964207Y815156I-52754J0D01*
G01X-1790816Y-1460540D02*
G03X-1685308Y-1460540I52754J0D01*
G03X-1790816Y-1460540I-52754J0D01*
G01X-1763436Y875162D02*
G03X-1657928Y875162I52754J0D01*
G03X-1763436Y875162I-52754J0D01*
G01X-1703736Y735356D02*
G03X-1598228Y735356I52754J0D01*
G03X-1703736Y735356I-52754J0D01*
G01X-1480501Y-1293559D02*
G03X-1374993Y-1293559I52754J0D01*
G03X-1480501Y-1293559I-52754J0D01*
G01X-1465965Y776157D02*
G03X-1360457Y776157I52754J0D01*
G03X-1465965Y776157I-52754J0D01*
G01X-1434865Y660368D02*
G03X-1381399Y582890I46343J-25206D01*
G03X-1287306Y580108I47751J22424D01*
G03X-1340772Y657585I-46343J25206D01*
G03X-1434865Y660368I-47751J-22424D01*
G01X-1432058Y-876590D02*
G03X-1326550Y-876590I52754J0D01*
G03X-1432058Y-876590I-52754J0D01*
G01X-1364559Y-1444840D02*
G03X-1259051Y-1444840I52754J0D01*
G03X-1364559Y-1444840I-52754J0D01*
G01X-1284560Y675161D02*
G03X-1179051Y675161I52754J0D01*
G03X-1284560Y675161I-52754J0D01*
G01X-1190050Y-844840D02*
G03X-1084542Y-844840I52754J0D01*
G03X-1190050Y-844840I-52754J0D01*
G01X-1184558Y795161D02*
G03X-1079050Y795161I52754J0D01*
G03X-1184558Y795161I-52754J0D01*
G01X-1084558Y-618568D02*
G03X-979050Y-618568I52754J0D01*
G03X-1084558Y-618568I-52754J0D01*
G01X-1046159Y-1004040D02*
G03X-940651Y-1004040I52754J0D01*
G03X-1046159Y-1004040I-52754J0D01*
G01X-1039858Y-895040D02*
G03X-934350Y-895040I52754J0D01*
G03X-1039858Y-895040I-52754J0D01*
G01X-910976Y168967D02*
G03X-832630Y120490I52700J-2376D01*
G03X-833842Y-143780I4371894J-152181D01*
G02X-848775Y-402628I-1558427J-39946D01*
G02X-866170Y-451672I-129690J18393D01*
G03X-884624Y-457910I7377J-52236D01*
G03X-902222Y-383150I-44007J29093D01*
G03X-904487Y-279410I-10680J51662D01*
G03X-939311Y-377156I-8416J-52078D01*
G03X-978044Y-447292I10680J-51662D01*
G03X-902800Y-474815I49414J18474D01*
G03X-905157Y-529074I44007J-29093D01*
G03X-858375Y-556660I46364J25166D01*
G03X-805759Y-613754I52575J-4340D01*
G03X-753232Y-556578I-41J52754D01*
G03X-742073Y-537068I-163395J106404D01*
G03X-706490Y-561279I35583J14044D01*
G01X-572490Y-561279D01*
G03X-534236Y-523025I0J38254D01*
G01X-534236Y-459025D01*
G03X-568089Y-421025I-38254J0D01*
G03X-534236Y-383025I-4401J38000D01*
G01X-534236Y-319025D01*
G03X-568089Y-281025I-38254J0D01*
G03X-534236Y-243025I-4401J38000D01*
G01X-534236Y-179025D01*
G03X-568090Y-141025I-38254J0D01*
G03X-534236Y-103025I-4400J38000D01*
G01X-534236Y-39024D01*
G03X-572490Y-771I-38254J0D01*
G01X-706490Y-771D01*
G03X-718333Y-2650I0J-38254D01*
G01X-716562Y65207D01*
G01X-716562Y65207D01*
G02X-638687Y361807I677488J-19356D01*
G01X-575004Y361807D01*
G03X-536750Y400061I0J38254D01*
G01X-536750Y464061D01*
G03X-570603Y502061I-38254J0D01*
G03X-536750Y540061I-4401J38000D01*
G01X-536750Y604061D01*
G03X-570603Y642061I-38254J0D01*
G03X-536750Y680061I-4401J38000D01*
G01X-536750Y744061D01*
G03X-575004Y782315I-38254J0D01*
G01X-709004Y782315D01*
G03X-747257Y744061I0J-38254D01*
G01X-747257Y680061D01*
G03X-713404Y642061I38254J0D01*
G03X-747257Y604061I4401J-38000D01*
G01X-747257Y588177D01*
G03X-808235Y482411I80629J-116946D01*
G01X-823551Y288399D01*
G03X-828585Y210197I4362815J-320090D01*
G03X-910976Y168967I-29690J-43606D01*
G01X-977871Y-14706D02*
G03X-872363Y-14706I52754J0D01*
G03X-977871Y-14706I-52754J0D01*
G01X-964699Y-125549D02*
G03X-859191Y-125549I52754J0D01*
G03X-964699Y-125549I-52754J0D01*
G01X-964559Y1015160D02*
G03X-859051Y1015160I52754J0D01*
G03X-964559Y1015160I-52754J0D01*
G01X-961356Y470758D02*
G03X-855848Y470758I52754J0D01*
G03X-961356Y470758I-52754J0D01*
G01X-879458Y-775040D02*
G03X-773950Y-775040I52754J0D01*
G03X-879458Y-775040I-52754J0D01*
G01X-824239Y-1144274D02*
G03X-722986Y-1129660I48783J20081D01*
G03X-621271Y-1060723I43686J45050D01*
G03X-742041Y-1083371I-58029J-23887D01*
G03X-824239Y-1144274I-33415J-40822D01*
G01X-794547Y-980812D02*
G03X-699747Y-973937I45744J26278D01*
G03X-624886Y-883350I20447J59329D01*
G03X-740851Y-902383I-54414J-31258D01*
G03X-794547Y-980812I-7952J-52151D01*
G04 Copper End*

G04 Pad Start*
G54D12*
G01X-1771804Y1314376D03*
G01X-1651804Y1314761D03*
G54D13*
G01X-3641806Y-44840D03*
G01X-3641806Y309259D03*
G01X-3641806Y-398939D03*
G54D14*
G01X-642004Y712061D03*
G01X-642004Y432061D03*
G01X-642004Y572061D03*
G54D15*
G01X-3510777Y887878D03*
G01X-3515777Y697878D03*
G01X-3510778Y1142877D03*
G01X-3510778Y1327877D03*
G54D16*
G01X-3630778Y792877D03*
G01X-3630778Y1232877D03*
G54D15*
G01X-3745777Y887878D03*
G01X-3745777Y697878D03*
G01X-3750778Y1327877D03*
G01X-3750778Y1137877D03*
G01X-3531805Y-333939D03*
G01X-3751805Y-333939D03*
G01X-3751805Y-463939D03*
G01X-3531805Y-463939D03*
G01X-3751805Y20161D03*
G01X-3531805Y20161D03*
G01X-3531805Y-109839D03*
G01X-3751805Y-109839D03*
G01X-3531805Y374260D03*
G01X-3531805Y244259D03*
G01X-3751806Y374260D03*
G01X-3751806Y244259D03*
G54D12*
G01X-1891804Y1314761D03*
G54D14*
G01X-639490Y-491025D03*
G01X-639490Y-351025D03*
G01X-639490Y-211025D03*
G01X-639490Y-71024D03*
G54D17*
G01X-2744303Y-982328D03*
G01X-1879306Y-982328D03*
G54D19*
G01X-2744303Y-1402342D03*
G01X-1879306Y-1402342D03*
G04 Pad End*

G04 Via Start*
G54D20*
G01X-1891809Y215157D03*
G01X-1404443Y139803D03*
G01X-1206377Y-40583D03*
G01X-1236267Y-111363D03*
G01X-1413211Y776157D03*
G01X-2551805Y-838038D03*
G01X-1388522Y635161D03*
G01X-1753620Y-995851D03*
G01X-1909290Y633112D03*
G01X-1650982Y735356D03*
G01X-1191811Y35157D03*
G01X-1333648Y605315D03*
G01X-2958010Y-746832D03*
G01X-2631807Y-840635D03*
G01X-1137296Y-844840D03*
G01X-2881058Y-1458298D03*
G01X-1738062Y-1460540D03*
G01X-3466105Y-704840D03*
G01X-3116905Y-659739D03*
G01X-3427906Y-602672D03*
G01X-2660541Y355159D03*
G01X-2291804Y835161D03*
G01X-2266304Y679861D03*
G01X-2131805Y845362D03*
G01X-2623085Y67740D03*
G01X-2596720Y9584D03*
G01X-2651025Y123940D03*
G01X-2309845Y451880D03*
G01X-2309845Y369907D03*
G01X-2309845Y277738D03*
G01X-2125010Y270357D03*
G01X-2125010Y362856D03*
G01X-2125010Y455356D03*
G01X-3281907Y-638840D03*
G01X-3256803Y175160D03*
G01X-2467505Y873962D03*
G01X-3266805Y10160D03*
G01X-2806805Y10160D03*
G01X-3113472Y10160D03*
G01X-2960138Y10160D03*
G01X-3113471Y-79840D03*
G01X-2960138Y-79840D03*
G01X-2806804Y-79840D03*
G01X-3266805Y-79840D03*
G01X-3113472Y-169839D03*
G01X-2960138Y-169839D03*
G01X-2806805Y-169839D03*
G01X-3266805Y-169839D03*
G01X-3113472Y-259839D03*
G01X-2960138Y-259839D03*
G01X-2806805Y-259839D03*
G01X-3266805Y-259839D03*
G01X-2916120Y-456212D03*
G01X-2771093Y-464839D03*
G01X-2601808Y-476135D03*
G01X-2734129Y956411D03*
G01X-1406768Y-509876D03*
G01X-1311805Y-1444840D03*
G01X-993405Y-1004040D03*
G01X-911805Y1015160D03*
G01X-1363153Y1412689D03*
G01X-3311805Y-1444840D03*
G01X-3645505Y-1039740D03*
G01X-1406768Y-59788D03*
G01X-1856856Y-59788D03*
G01X-1631804Y-509876D03*
G01X-1421576Y272024D03*
G01X-3003523Y-1044707D03*
G01X-1709461Y146800D03*
G01X-1771196Y146800D03*
G01X-1832932Y146800D03*
G01X-1631804Y-59788D03*
G01X-1431804Y-744840D03*
G01X-1491804Y-744840D03*
G01X-2265324Y-1041725D03*
G01X-2338044Y-1040459D03*
G01X-1560600Y-850738D03*
G01X-2264321Y1270525D03*
G01X-2614303Y-80578D03*
G01X-2583915Y-222554D03*
G01X-2624897Y-276370D03*
G01X-2957414Y-410498D03*
G01X-2856762Y-503339D03*
G01X-2825173Y-436209D03*
G01X-2717012Y-496254D03*
G01X-2662931Y-466917D03*
G01X-2955537Y-503339D03*
G01X-1224939Y-205471D03*
G01X-1560317Y-776661D03*
G01X-1609072Y-734873D03*
G01X-1657826Y-693085D03*
G01X-1878817Y-704474D03*
G01X-1751785Y-704474D03*
G01X-1811818Y-704474D03*
G01X-2835627Y-1152599D03*
G01X-1973700Y76500D03*
G01X-2034900Y122400D03*
G01X-2136900Y147900D03*
G01X-2019705Y1332183D03*
G01X-1217464Y-571200D03*
G01X-1180655Y-254863D03*
G01X-1234481Y-307910D03*
G01X-1176880Y-459762D03*
G01X-1631812Y-284832D03*
G01X-805800Y-561000D03*
G01X-2657100Y214200D03*
G01X-1774814Y994529D03*
G01X-2468400Y-275400D03*
G01X-2317779Y-464100D03*
G01X-1231804Y-404839D03*
G01X-1231804Y-509020D03*
G01X-2203200Y-265200D03*
G01X-3338105Y324961D03*
G01X-3402405Y688861D03*
G01X-3286408Y753160D03*
G01X-3286408Y573160D03*
G01X-3196905Y828860D03*
G01X-3191805Y715161D03*
G01X-2071206Y-501176D03*
G01X-912902Y-331488D03*
G01X-1379304Y-876590D03*
G01X-908602Y470758D03*
G01X-925117Y-14706D03*
G01X-858275Y166591D03*
G01X-1310708Y351921D03*
G01X-928631Y-428818D03*
G01X-3033814Y1247644D03*
G01X-3304800Y438600D03*
G01X-1779292Y633112D03*
G01X-2815200Y1259700D03*
G01X-911945Y-125549D03*
G01X-2905423Y-1239539D03*
G01X-1642012Y144400D03*
G01X-3221585Y1261550D03*
G01X-1131804Y795161D03*
G01X-1231806Y675161D03*
G01X-1451804Y955161D03*
G01X-1411804Y1215162D03*
G01X-1931804Y555161D03*
G01X-1871804Y415161D03*
G01X-2311823Y167281D03*
G01X-2099692Y-44833D03*
G01X-3543505Y-800139D03*
G01X-3536505Y-880139D03*
G01X-3311805Y-844840D03*
G01X-3111805Y-1064840D03*
G01X-3151805Y-1284840D03*
G01X-2871805Y-904840D03*
G01X-2811805Y-1244840D03*
G01X-2631805Y-1144840D03*
G01X-2611805Y-1304840D03*
G01X-2019821Y-1360941D03*
G01X-1427747Y-1293559D03*
G01X-987104Y-895040D03*
G01X-1031804Y-618568D03*
G01X-2171805Y-1064840D03*
G01X-1756805Y-1068151D03*
G01X-3111805Y-904840D03*
G01X-2691805Y-804840D03*
G01X-3305505Y955561D03*
G01X-3407505Y440261D03*
G01X-858793Y-503908D03*
G01X-1550400Y1089666D03*
G01X-2573544Y715161D03*
G01X-2711805Y835161D03*
G01X-2416822Y715161D03*
G01X-1911453Y815156D03*
G01X-1710682Y875162D03*
G01X-775456Y-1124193D03*
G01X-3381300Y1162800D03*
G01X-3413271Y1361700D03*
G01X-2958000Y1152600D03*
G01X-3223200Y1162800D03*
G01X-3095700Y1365741D03*
G01X-748803Y-954535D03*
G01X-2891805Y195161D03*
G01X-826704Y-775040D03*
G01X-2062005Y845362D03*
G01X-2067105Y675161D03*
G01X-2466808Y-799841D03*
G01X-2480906Y1377087D03*
G01X-2610707Y1200262D03*
G01X-2076809Y-294842D03*
G01X-2331805Y955161D03*
G01X-2114354Y1486928D03*
G04 Via End*

G04 Track Start*
G54D21*
G01X-785400Y285600D02*
G01X-770100Y479400D01*
G01X-1206377Y-40583D02*
G02X-1241811Y60157I87312J87312D01*
G01X-1820714Y586524D02*
G02X-1909290Y633112I42310J187939D01*
G01X-1300507Y-596691D02*
G02X-1351508Y-662992I-53387J-11699D01*
G01X-1295407Y-311088D02*
G01X-1298755Y-406255D01*
G01X-1300455Y-501466D01*
G01X-1300507Y-596691D01*
G01X-1259707Y-265187D02*
G03X-1295407Y-311088I14486J-48101D01*
G01X-1180655Y-254863D02*
G03X-1259707Y-265187I-8073J-246007D01*
G01X-2810100Y-494700D02*
G02X-2825173Y-436209I105948J58491D01*
G01X-1999200Y-678300D02*
G01X-2114876Y-678474D01*
G01X-2230545Y-677218D01*
G01X-2346189Y-674532D01*
G01X-2461792Y-670416D01*
G01X-2577335Y-664872D01*
G01X-2692800Y-657900D01*
G01X-1907400Y-652800D02*
G02X-1999200Y-678300I-93207J157555D01*
G01X-1811818Y-704474D02*
G03X-1907400Y-652800I-63313J-2874D01*
G01X-2957414Y-410498D02*
G03X-3019200Y-453900I0J-65679D01*
G03X-2983500Y-566100I91022J-32818D01*
G01X-2983500Y-566100D02*
G03X-2794800Y-683400I1210849J1737456D01*
G01X-2794800Y-683400D02*
G03X-2723400Y-698700I61095J110862D01*
G02X-2662200Y-698700I30600J-374641D01*
G01X-2662200Y-698700D02*
G03X-2019600Y-719100I526107J6441209D01*
G01X-2019600Y-719100D02*
G02X-1948200Y-744600I1934J-107294D01*
G03X-1774800Y-754800I93474J110063D01*
G01X-1774800Y-754800D02*
G03X-1751785Y-704474I-29049J43710D01*
G01X-805800Y-561000D02*
G03X-759900Y-448800I-110827J110827D01*
G01X-759900Y-448800D02*
G01X-760427Y-320013D01*
G01X-759753Y-191226D01*
G01X-757877Y-62452D01*
G01X-754800Y66300D01*
G01X-754800Y66300D02*
G02X-642004Y432061I715727J-20448D01*
G01X-858793Y-503908D02*
G03X-810900Y-408000I-119672J119672D01*
G01X-810900Y-408000D02*
G03X-795600Y-142800I-1581368J224274D01*
G01X-795600Y-142800D02*
G02X-785400Y285600I4334864J111109D01*
G01X-770100Y479400D02*
G02X-642004Y572061I103472J-8169D01*
G01X-2692800Y-657900D02*
G02X-2799900Y-530400I7669J115174D01*
G03X-2810100Y-494700I-49114J5274D01*
G01X-1241811Y60157D02*
G03X-1254607Y392721I-1126143J123197D01*
G03X-1351508Y489623I-119344J-22443D01*
G01X-1351508Y489623D02*
G01X-1508289Y520069D01*
G01X-1664699Y552371D01*
G01X-1820714Y586524D01*
G01X-2583915Y-222554D02*
G02X-2519400Y-545700I-576376J-283083D01*
G01X-1351508Y-662992D02*
G02X-1621800Y-652800I-72658J1662241D01*
G01X-1999200Y-627300D02*
G02X-1739100Y-617100I142385J-309440D01*
G03X-1621800Y-652800I369173J1002440D01*
G01X-1999200Y-627300D02*
G02X-2142000Y-637500I-101795J420422D01*
G01X-2453100Y-622200D02*
G01X-2372881Y-628024D01*
G01X-2292577Y-632516D01*
G01X-2212209Y-635675D01*
G01X-2131800Y-637500D01*
G01X-2519400Y-545700D02*
G03X-2453100Y-622200I72085J-4506D01*
G04 Track End*

M02*

