G04 Layer: BottomLayer*
G04 EasyEDA Pro v3.2.148, 2026-08-18 08:28:43*
G04 Gerber Generator version 0.3*
G04 Scale: 100 percent, Rotated: No, Reflected: No*
G04 Dimensions in millimeters*
G04 Leading zeros omitted, absolute positions, 4 integers and 5 decimals*
G04 Generated by one-click*
G04 Object Configs: Pad,Via,Track,Text,Image,Dimension,BoardOutline,BoardCutout,CopperFilled,SolidRegion,FPCStiffener,Line,PlaneZone,ComponentProperty,ComponentSilkscreen,TearDrop*
G04 Layer Configs: 1,15,16,2,3,4,5,6,7,8,9,10,11,13,14,56*
G04 Copper Areas: 1*
%FSLAX45Y45*%
%MOMM*%
%AMRoundRect*1,1,$1,$2,$3*1,1,$1,$4,$5*1,1,$1,0-$2,0-$3*1,1,$1,0-$4,0-$5*20,1,$1,$2,$3,$4,$5,0*20,1,$1,$4,$5,0-$2,0-$3,0*20,1,$1,0-$2,0-$3,0-$4,0-$5,0*20,1,$1,0-$4,0-$5,$2,$3,0*4,1,4,$2,$3,$4,$5,0-$2,0-$3,0-$4,0-$5,$2,$3,0*%
%AMOval*1,1,$1,$2,$3*1,1,$1,$4,$5*20,1,$1,$2,$3,$4,$5,0*%
%AMPolygonMacro1*4,1,5,-1.05182,-0.30055,-1.05182,0.30052,-0.15026,1.20208,1.05182,0.0,-0.15026,-1.20208,-1.05182,-0.30055,0*%
%ADD10C,0.2032*%
%ADD11RoundRect,0.16X-0.32X0.67X0.32X0.67*%
%ADD12RoundRect,1.0X-1.25X0.75X1.25X0.75*%
%ADD13RoundRect,0.16X-0.67X-0.32X-0.67X0.32*%
%ADD14C,1.0*%
%ADD15RoundRect,1.2X-1.15X0.9X1.15X0.9*%
%ADD16O,1.1027X2.0*%
%ADD17O,1.1X2.0*%
%ADD18O,1.2X1.8*%
%ADD19Oval,0.28001X0.20153X-0.20153X-0.20153X0.20153*%
%ADD20Oval,0.28001X-0.20153X-0.20153X0.20153X0.20153*%
%ADD21PolygonMacro1*%
%ADD22C,0.45*%
%ADD23C,0.16*%
G75*


G04 Copper Start*
G36*
G01X-3515778Y973291D02*
G01X-3565635Y973291D01*
G01X-3563555Y982985D01*
G01X-3562856Y992876D01*
G01X-3562857Y1052882D01*
G01X-3564194Y1061799D01*
G01X-3568087Y1069933D01*
G01X-3574193Y1076567D01*
G01X-3581977Y1081120D01*
G01X-3592814Y1090512D01*
G01X-3605330Y1097514D01*
G01X-3619005Y1101835D01*
G01X-3633271Y1103295D01*
G01X-3773324Y1103291D01*
G01X-3778094Y1104593D01*
G01X-3781580Y1108099D01*
G01X-3782856Y1112876D01*
G01X-3782237Y1261550D01*
G01X-3274499Y1261550D01*
G01X-3272696Y1247855D01*
G01X-3267410Y1235093D01*
G01X-3259000Y1224134D01*
G01X-3248042Y1215725D01*
G01X-3235280Y1210439D01*
G01X-3221585Y1208636D01*
G01X-3207889Y1210439D01*
G01X-3195128Y1215725D01*
G01X-3184169Y1224134D01*
G01X-3175760Y1235093D01*
G01X-3170561Y1247644D01*
G01X-3086728Y1247644D01*
G01X-3084925Y1233949D01*
G01X-3079638Y1221187D01*
G01X-3071229Y1210229D01*
G01X-3060271Y1201820D01*
G01X-3047509Y1196533D01*
G01X-3033814Y1194730D01*
G01X-3020118Y1196533D01*
G01X-3010177Y1200651D01*
G01X-2663620Y1200651D01*
G01X-2661958Y1187098D01*
G01X-2656883Y1174421D01*
G01X-2648733Y1163465D01*
G01X-2638050Y1154960D01*
G01X-2625547Y1149471D01*
G01X-2612056Y1147365D01*
G01X-2598475Y1148781D01*
G01X-2585708Y1153625D01*
G01X-2574606Y1161575D01*
G01X-2565908Y1172102D01*
G01X-2560194Y1184503D01*
G01X-2557844Y1197955D01*
G01X-2512112Y1238343D01*
G01X-2464153Y1276058D01*
G01X-2414120Y1310976D01*
G01X-2362178Y1342985D01*
G01X-2308495Y1371979D01*
G01X-2253246Y1397865D01*
G01X-2196611Y1420559D01*
G01X-2138774Y1439986D01*
G01X-2125052Y1435106D01*
G01X-2110520Y1434153D01*
G01X-2096278Y1437197D01*
G01X-2083406Y1444008D01*
G01X-2072877Y1454070D01*
G01X-2072877Y1454070D01*
G01X-2035773Y1457069D01*
G01X-1998554Y1457725D01*
G01X-1961368Y1456035D01*
G01X-1961368Y1456035D01*
G01X-1951695Y1453811D01*
G01X-1943103Y1448843D01*
G01X-1936350Y1441571D01*
G01X-1932031Y1432635D01*
G01X-1930529Y1422824D01*
G01X-1930520Y1419584D01*
G01X-1940677Y1416272D01*
G01X-1949529Y1410290D01*
G01X-1956391Y1402102D01*
G01X-1960733Y1392341D01*
G01X-1962218Y1381761D01*
G01X-1962218Y1247761D01*
G01X-1960338Y1235891D01*
G01X-1954882Y1225182D01*
G01X-1946384Y1216684D01*
G01X-1935675Y1211228D01*
G01X-1923804Y1209347D01*
G01X-1919734Y1209347D01*
G01X-1908690Y1164496D01*
G01X-1893820Y1120763D01*
G01X-1875234Y1078476D01*
G01X-1853070Y1037949D01*
G01X-1827495Y999484D01*
G01X-1827009Y985841D01*
G01X-1823050Y972776D01*
G01X-1815879Y961160D01*
G01X-1805975Y951764D01*
G01X-1793997Y945215D01*
G01X-1780742Y941948D01*
G01X-1767092Y942181D01*
G01X-1753957Y945899D01*
G01X-1742209Y952853D01*
G01X-1732632Y962582D01*
G01X-1725863Y974437D01*
G01X-1722351Y987629D01*
G01X-1722332Y1001280D01*
G01X-1725806Y1014483D01*
G01X-1732542Y1026357D01*
G01X-1742091Y1036112D01*
G01X-1753819Y1043100D01*
G01X-1766944Y1046855D01*
G01X-1787253Y1077580D01*
G01X-1805030Y1109836D01*
G01X-1820159Y1143415D01*
G01X-1832544Y1178101D01*
G01X-1842103Y1213669D01*
G01X-1842103Y1213669D01*
G01X-1836729Y1217050D01*
G01X-1831985Y1221271D01*
G01X-1823853Y1214609D01*
G01X-1814219Y1210401D01*
G01X-1803804Y1208962D01*
G01X-1739804Y1208962D01*
G01X-1727934Y1210843D01*
G01X-1717225Y1216299D01*
G01X-1708727Y1224797D01*
G01X-1703271Y1235506D01*
G01X-1701390Y1247376D01*
G01X-1701390Y1381376D01*
G01X-1702947Y1392202D01*
G01X-1707492Y1402150D01*
G01X-1714656Y1410414D01*
G01X-1723858Y1416324D01*
G01X-1734353Y1419402D01*
G01X-1734353Y1419402D01*
G01X-1736420Y1500685D01*
G01X-1736420Y1500685D01*
G01X-1738959Y1520630D01*
G01X-1745185Y1539747D01*
G01X-1754879Y1557363D01*
G01X-1767697Y1572853D01*
G01X-1783187Y1585671D01*
G01X-1800803Y1595365D01*
G01X-1819920Y1601591D01*
G01X-1839865Y1604130D01*
G01X-1839865Y1604130D01*
G01X-1958416Y1606058D01*
G01X-2076966Y1604130D01*
G01X-2076966Y1604130D01*
G01X-2122113Y1600976D01*
G01X-2166900Y1594473D01*
G01X-2211079Y1584655D01*
G01X-2254405Y1571578D01*
G01X-2296639Y1555315D01*
G01X-2337546Y1535955D01*
G01X-2376899Y1513605D01*
G01X-2414480Y1488390D01*
G01X-2450082Y1460449D01*
G01X-2483506Y1429938D01*
G01X-2483506Y1429938D01*
G01X-2496165Y1427754D01*
G01X-2507923Y1422584D01*
G01X-2518090Y1414733D01*
G01X-2526066Y1404664D01*
G01X-2531380Y1392970D01*
G01X-2533720Y1380340D01*
G01X-2532947Y1367518D01*
G01X-2529108Y1355260D01*
G01X-2522428Y1344288D01*
G01X-2513301Y1335249D01*
G01X-2513301Y1335249D01*
G01X-2563434Y1295578D01*
G01X-2611277Y1253172D01*
G01X-2611277Y1253172D01*
G01X-2624798Y1251265D01*
G01X-2637380Y1245961D01*
G01X-2648187Y1237614D01*
G01X-2656497Y1226779D01*
G01X-2661758Y1214179D01*
G01X-2663620Y1200651D01*
G01X-3010177Y1200651D01*
G01X-3007357Y1201820D01*
G01X-2996398Y1210229D01*
G01X-2987989Y1221187D01*
G01X-2982703Y1233949D01*
G01X-2980900Y1247644D01*
G01X-2982487Y1259700D01*
G01X-2868114Y1259700D01*
G01X-2866311Y1246005D01*
G01X-2861025Y1233243D01*
G01X-2852616Y1222284D01*
G01X-2841657Y1213875D01*
G01X-2828895Y1208589D01*
G01X-2815200Y1206786D01*
G01X-2801505Y1208589D01*
G01X-2788743Y1213875D01*
G01X-2777784Y1222284D01*
G01X-2769375Y1233243D01*
G01X-2764089Y1246005D01*
G01X-2762286Y1259700D01*
G01X-2764089Y1273395D01*
G01X-2769375Y1286157D01*
G01X-2777784Y1297116D01*
G01X-2788743Y1305525D01*
G01X-2801505Y1310811D01*
G01X-2815200Y1312614D01*
G01X-2828895Y1310811D01*
G01X-2841657Y1305525D01*
G01X-2852616Y1297116D01*
G01X-2861025Y1286157D01*
G01X-2866311Y1273395D01*
G01X-2868114Y1259700D01*
G01X-2868114Y1259700D01*
G01X-2982487Y1259700D01*
G01X-2982703Y1261340D01*
G01X-2987989Y1274101D01*
G01X-2996398Y1285060D01*
G01X-3007357Y1293469D01*
G01X-3020118Y1298755D01*
G01X-3033814Y1300558D01*
G01X-3047509Y1298755D01*
G01X-3060271Y1293469D01*
G01X-3071229Y1285060D01*
G01X-3079638Y1274101D01*
G01X-3084925Y1261340D01*
G01X-3086728Y1247644D01*
G01X-3086728Y1247644D01*
G01X-3170561Y1247644D01*
G01X-3170474Y1247855D01*
G01X-3168671Y1261550D01*
G01X-3170474Y1275245D01*
G01X-3175760Y1288007D01*
G01X-3184169Y1298966D01*
G01X-3195128Y1307375D01*
G01X-3207889Y1312661D01*
G01X-3221585Y1314464D01*
G01X-3235280Y1312661D01*
G01X-3248042Y1307375D01*
G01X-3259000Y1298966D01*
G01X-3267410Y1288007D01*
G01X-3272696Y1275245D01*
G01X-3274499Y1261550D01*
G01X-3274499Y1261550D01*
G01X-3782237Y1261550D01*
G01X-3781856Y1352875D01*
G01X-3780572Y1357668D01*
G01X-3777063Y1361178D01*
G01X-3772270Y1362462D01*
G01X-3762767Y1363985D01*
G01X-3627660Y1363959D01*
G01X-3621308Y1364629D01*
G01X-3606410Y1365939D01*
G01X-3592267Y1370800D01*
G01X-3579712Y1378925D01*
G01X-3569484Y1389836D01*
G01X-3562186Y1402889D01*
G01X-3558247Y1417316D01*
G01X-3557901Y1432267D01*
G01X-3553905Y1433959D01*
G01X-3540886Y1433322D01*
G01X-3531375Y1434364D01*
G01X-3482597Y1434364D01*
G01X-3474216Y1435541D01*
G01X-3459898Y1438077D01*
G01X-3446407Y1443500D01*
G01X-3440569Y1447400D01*
G01X-3243601Y1447400D01*
G01X-3241773Y1432344D01*
G01X-3236395Y1418163D01*
G01X-3227779Y1405681D01*
G01X-3216427Y1395623D01*
G01X-3202997Y1388575D01*
G01X-3188271Y1384945D01*
G01X-3173105Y1384945D01*
G01X-3158379Y1388575D01*
G01X-3144949Y1395623D01*
G01X-3133597Y1405681D01*
G01X-3124981Y1418163D01*
G01X-3119603Y1432344D01*
G01X-3117775Y1447400D01*
G01X-3073599Y1447400D01*
G01X-3071771Y1432344D01*
G01X-3066393Y1418163D01*
G01X-3057777Y1405681D01*
G01X-3046425Y1395623D01*
G01X-3032995Y1388575D01*
G01X-3018269Y1384945D01*
G01X-3003103Y1384945D01*
G01X-2988377Y1388575D01*
G01X-2974947Y1395623D01*
G01X-2963595Y1405681D01*
G01X-2954979Y1418163D01*
G01X-2949601Y1432344D01*
G01X-2947773Y1447400D01*
G01X-2949601Y1462456D01*
G01X-2954979Y1476637D01*
G01X-2963595Y1489119D01*
G01X-2974947Y1499177D01*
G01X-2988377Y1506225D01*
G01X-3003103Y1509855D01*
G01X-3018269Y1509855D01*
G01X-3032995Y1506225D01*
G01X-3046425Y1499177D01*
G01X-3057777Y1489119D01*
G01X-3066393Y1476637D01*
G01X-3071771Y1462456D01*
G01X-3073599Y1447400D01*
G01X-3073599Y1447400D01*
G01X-3117775Y1447400D01*
G01X-3117775Y1447400D01*
G01X-3119603Y1462456D01*
G01X-3124981Y1476637D01*
G01X-3133597Y1489119D01*
G01X-3144949Y1499177D01*
G01X-3158379Y1506225D01*
G01X-3173105Y1509855D01*
G01X-3188271Y1509855D01*
G01X-3202997Y1506225D01*
G01X-3216427Y1499177D01*
G01X-3227779Y1489119D01*
G01X-3236395Y1476637D01*
G01X-3241773Y1462456D01*
G01X-3243601Y1447400D01*
G01X-3243601Y1447400D01*
G01X-3440569Y1447400D01*
G01X-3434316Y1451578D01*
G01X-3424143Y1461967D01*
G01X-3416321Y1474225D01*
G01X-3411183Y1487828D01*
G01X-3408949Y1502196D01*
G01X-3407610Y1508606D01*
G01X-3407161Y1511450D01*
G01X-3405266Y1518172D01*
G01X-3401262Y1523896D01*
G01X-3395598Y1527982D01*
G01X-3388903Y1529976D01*
G01X-3379887Y1529551D01*
G01X-3372147Y1530178D01*
G01X-2902969Y1531351D01*
G01X-2888368Y1529017D01*
G01X-2873632Y1530227D01*
G01X-2859608Y1534914D01*
G01X-2847105Y1542807D01*
G01X-2836842Y1553452D01*
G01X-2829411Y1566235D01*
G01X-2827029Y1571745D01*
G01X-2825775Y1577615D01*
G01X-2824433Y1588406D01*
G01X-2825008Y1599265D01*
G01X-2820787Y1606463D01*
G01X-2814350Y1611773D01*
G01X-2806482Y1614550D01*
G01X-2799282Y1611640D01*
G01X-2791579Y1610649D01*
G01X-1492550Y1610649D01*
G01X-1482572Y1612332D01*
G01X-1474231Y1611246D01*
G01X-1466724Y1607452D01*
G01X-1460902Y1601380D01*
G01X-1457427Y1593719D01*
G01X-1456710Y1591375D01*
G01X-1456710Y1520353D01*
G01X-1456464Y1502780D01*
G01X-1452743Y1485605D01*
G01X-1445695Y1469506D01*
G01X-1435599Y1455121D01*
G01X-1422855Y1443020D01*
G01X-1407968Y1433681D01*
G01X-1401690Y1428861D01*
G01X-1394382Y1425824D01*
G01X-1386537Y1424775D01*
G01X-1374354Y1424746D01*
G01X-1372949Y1424775D01*
G01X-1213101Y1424775D01*
G01X-1211388Y1424751D01*
G01X-1209606Y1424775D01*
G01X-1197805Y1423098D01*
G01X-1186899Y1418288D01*
G01X-1177703Y1410705D01*
G01X-1170905Y1400914D01*
G01X-1167011Y1389649D01*
G01X-1166314Y1377750D01*
G01X-1168865Y1366107D01*
G01X-1174474Y1355589D01*
G01X-1382587Y1152308D01*
G01X-1382830Y1152067D01*
G01X-1400201Y1132020D01*
G01X-1414542Y1109705D01*
G01X-1425561Y1085577D01*
G01X-1433035Y1060125D01*
G01X-1436810Y1033869D01*
G01X-1436810Y1007343D01*
G01X-1433035Y981087D01*
G01X-1425561Y955636D01*
G01X-1414542Y931507D01*
G01X-1400201Y909192D01*
G01X-1382830Y889145D01*
G01X-1377730Y884045D01*
G01X-1357683Y866674D01*
G01X-1335368Y852333D01*
G01X-1311240Y841314D01*
G01X-1285788Y833841D01*
G01X-1259532Y830066D01*
G01X-1233006Y830066D01*
G01X-1206750Y833841D01*
G01X-1181299Y841314D01*
G01X-1157170Y852333D01*
G01X-1134855Y866674D01*
G01X-1114808Y884045D01*
G01X-1114568Y884289D01*
G01X-900003Y1103953D01*
G01X-894322Y1112084D01*
G01X-884586Y1116529D01*
G01X-873952Y1117751D01*
G01X-863461Y1115630D01*
G01X-854136Y1110374D01*
G01X-846891Y1102496D01*
G01X-842431Y1092765D01*
G01X-842675Y1077852D01*
G01X-839307Y1063322D01*
G01X-832526Y1050038D01*
G01X-822734Y1038787D01*
G01X-810513Y1030237D01*
G01X-796587Y1024896D01*
G01X-781783Y1023079D01*
G01X-556763Y1024770D01*
G01X-551620Y1025267D01*
G01X-542587Y1025363D01*
G01X-534066Y1022366D01*
G01X-527082Y1016637D01*
G01X-522477Y1008866D01*
G01X-520805Y999989D01*
G01X-520864Y997637D01*
G01X-520804Y994831D01*
G01X-520872Y44111D01*
G01X-522219Y35154D01*
G01X-522074Y-723845D01*
G01X-523850Y-724414D01*
G01X-538875Y-725564D01*
G01X-553219Y-730185D01*
G01X-566090Y-738021D01*
G01X-576780Y-748642D01*
G01X-584700Y-761461D01*
G01X-589415Y-775774D01*
G01X-590663Y-790791D01*
G01X-588377Y-805686D01*
G01X-588377Y-1239758D01*
G01X-590795Y-1245676D01*
G01X-594789Y-1250667D01*
G01X-600033Y-1254323D01*
G01X-805574Y-1254323D01*
G01X-814052Y-1255528D01*
G01X-825902Y-1255066D01*
G01X-837355Y-1251991D01*
G01X-847843Y-1246455D01*
G01X-850593Y-1243297D01*
G01X-962996Y-1130863D01*
G01X-827948Y-1130863D01*
G01X-824387Y-1144335D01*
G01X-824387Y-1144335D01*
G01X-817432Y-1156409D01*
G01X-807567Y-1166250D01*
G01X-795474Y-1173174D01*
G01X-781994Y-1176701D01*
G01X-768060Y-1176587D01*
G01X-754639Y-1172840D01*
G01X-742661Y-1165718D01*
G01X-732958Y-1155718D01*
G01X-726202Y-1143531D01*
G01X-722862Y-1130003D01*
G01X-710396Y-1139301D01*
G01X-696031Y-1145258D01*
G01X-680642Y-1147509D01*
G01X-665172Y-1145917D01*
G01X-650565Y-1140578D01*
G01X-637714Y-1131820D01*
G01X-627405Y-1120176D01*
G01X-620266Y-1106360D01*
G01X-616734Y-1091214D01*
G01X-617026Y-1075665D01*
G01X-621123Y-1060662D01*
G01X-628775Y-1047123D01*
G01X-639515Y-1035875D01*
G01X-652685Y-1027604D01*
G01X-667482Y-1022817D01*
G01X-683001Y-1021806D01*
G01X-698294Y-1024633D01*
G01X-712426Y-1031124D01*
G01X-724534Y-1040884D01*
G01X-733878Y-1053316D01*
G01X-739887Y-1067660D01*
G01X-742194Y-1083040D01*
G01X-754090Y-1075784D01*
G01X-767468Y-1071885D01*
G01X-781399Y-1071613D01*
G01X-794919Y-1074988D01*
G01X-807089Y-1081775D01*
G01X-817065Y-1091503D01*
G01X-824156Y-1103498D01*
G01X-827869Y-1116929D01*
G01X-827948Y-1130863D01*
G01X-962996Y-1130863D01*
G01X-1130198Y-963615D01*
G01X-1150233Y-946253D01*
G01X-1172534Y-931917D01*
G01X-1196647Y-920899D01*
G01X-1218051Y-914608D01*
G01X-742213Y-914608D01*
G01X-740385Y-929664D01*
G01X-735007Y-943846D01*
G01X-726391Y-956327D01*
G01X-715039Y-966385D01*
G01X-701609Y-973433D01*
G01X-686883Y-977063D01*
G01X-671717Y-977063D01*
G01X-656991Y-973433D01*
G01X-643561Y-966385D01*
G01X-632209Y-956327D01*
G01X-623593Y-943846D01*
G01X-618215Y-929664D01*
G01X-616387Y-914608D01*
G01X-618215Y-899552D01*
G01X-623593Y-885371D01*
G01X-632209Y-872889D01*
G01X-643561Y-862832D01*
G01X-656991Y-855783D01*
G01X-671717Y-852154D01*
G01X-686883Y-852154D01*
G01X-701609Y-855783D01*
G01X-715039Y-862832D01*
G01X-726391Y-872889D01*
G01X-735007Y-885371D01*
G01X-740385Y-899552D01*
G01X-742213Y-914608D01*
G01X-742213Y-914608D01*
G01X-1218051Y-914608D01*
G01X-1222083Y-913423D01*
G01X-1248322Y-909641D01*
G01X-1274834Y-909629D01*
G01X-1301077Y-913389D01*
G01X-1326518Y-920842D01*
G01X-1350641Y-931839D01*
G01X-1372955Y-946155D01*
G01X-1393005Y-963499D01*
G01X-1410626Y-983473D01*
G01X-1425184Y-1005778D01*
G01X-1436374Y-1029949D01*
G01X-1443962Y-1055481D01*
G01X-1447791Y-1081840D01*
G01X-1447779Y-1108475D01*
G01X-1443927Y-1134831D01*
G01X-1436316Y-1160355D01*
G01X-1425105Y-1184516D01*
G01X-1410527Y-1206809D01*
G01X-1392888Y-1226767D01*
G01X-1174702Y-1444955D01*
G01X-1168923Y-1455628D01*
G01X-1166310Y-1467480D01*
G01X-1167065Y-1479593D01*
G01X-1171129Y-1491029D01*
G01X-1178188Y-1500901D01*
G01X-1187695Y-1508445D01*
G01X-1198913Y-1513077D01*
G01X-1210973Y-1514437D01*
G01X-1211769Y-1514426D01*
G01X-1841400Y-1514426D01*
G01X-1826602Y-1505806D01*
G01X-1813695Y-1494551D01*
G01X-1803142Y-1481063D01*
G01X-1795322Y-1465828D01*
G01X-1790514Y-1449391D01*
G01X-1788892Y-1432342D01*
G01X-1788892Y-1372342D01*
G01X-1790868Y-1353544D01*
G01X-1796709Y-1335568D01*
G01X-1806160Y-1319199D01*
G01X-1818807Y-1305152D01*
G01X-1834099Y-1294042D01*
G01X-1851367Y-1286354D01*
G01X-1869855Y-1282424D01*
G01X-1888757Y-1282424D01*
G01X-1907246Y-1286354D01*
G01X-1924513Y-1294042D01*
G01X-1939805Y-1305152D01*
G01X-1952452Y-1319199D01*
G01X-1961903Y-1335568D01*
G01X-1967744Y-1353544D01*
G01X-1969720Y-1372342D01*
G01X-1969720Y-1432342D01*
G01X-1968098Y-1449391D01*
G01X-1963291Y-1465828D01*
G01X-1955470Y-1481063D01*
G01X-1944917Y-1494551D01*
G01X-1932010Y-1505806D01*
G01X-1917212Y-1514426D01*
G01X-2706397Y-1514427D01*
G01X-2691599Y-1505806D01*
G01X-2678692Y-1494551D01*
G01X-2668139Y-1481063D01*
G01X-2660319Y-1465828D01*
G01X-2655511Y-1449391D01*
G01X-2653889Y-1432342D01*
G01X-2653889Y-1372342D01*
G01X-2655865Y-1353544D01*
G01X-2661706Y-1335568D01*
G01X-2671157Y-1319199D01*
G01X-2683804Y-1305152D01*
G01X-2699096Y-1294042D01*
G01X-2716364Y-1286354D01*
G01X-2734852Y-1282424D01*
G01X-2753754Y-1282424D01*
G01X-2772243Y-1286354D01*
G01X-2789510Y-1294042D01*
G01X-2804802Y-1305152D01*
G01X-2817449Y-1319199D01*
G01X-2826900Y-1335568D01*
G01X-2832741Y-1353544D01*
G01X-2834717Y-1372342D01*
G01X-2834717Y-1432342D01*
G01X-2833095Y-1449391D01*
G01X-2828288Y-1465828D01*
G01X-2820467Y-1481063D01*
G01X-2809914Y-1494551D01*
G01X-2797007Y-1505806D01*
G01X-2782209Y-1514427D01*
G01X-3411843Y-1514427D01*
G01X-3412638Y-1514437D01*
G01X-3424810Y-1513048D01*
G01X-3436115Y-1508327D01*
G01X-3445660Y-1500648D01*
G01X-3452693Y-1490616D01*
G01X-3456657Y-1479024D01*
G01X-3457240Y-1466787D01*
G01X-3454396Y-1454871D01*
G01X-3448349Y-1444216D01*
G01X-3243673Y-1239539D01*
G01X-2958337Y-1239539D01*
G01X-2956534Y-1253234D01*
G01X-2951248Y-1265996D01*
G01X-2942839Y-1276955D01*
G01X-2931880Y-1285364D01*
G01X-2919119Y-1290650D01*
G01X-2905423Y-1292453D01*
G01X-2891728Y-1290650D01*
G01X-2878966Y-1285364D01*
G01X-2868008Y-1276955D01*
G01X-2859599Y-1265996D01*
G01X-2854312Y-1253234D01*
G01X-2852509Y-1239539D01*
G01X-2854312Y-1225844D01*
G01X-2859599Y-1213082D01*
G01X-2868008Y-1202123D01*
G01X-2878966Y-1193714D01*
G01X-2891728Y-1188428D01*
G01X-2905423Y-1186625D01*
G01X-2919119Y-1188428D01*
G01X-2931880Y-1193714D01*
G01X-2942839Y-1202123D01*
G01X-2951248Y-1213082D01*
G01X-2956534Y-1225844D01*
G01X-2958337Y-1239539D01*
G01X-2958337Y-1239539D01*
G01X-3243673Y-1239539D01*
G01X-3240780Y-1236647D01*
G01X-3223410Y-1216600D01*
G01X-3209069Y-1194285D01*
G01X-3198049Y-1170156D01*
G01X-3190576Y-1144705D01*
G01X-3186801Y-1118449D01*
G01X-3186801Y-1091923D01*
G01X-3190576Y-1065667D01*
G01X-3196731Y-1044707D01*
G01X-3056437Y-1044707D01*
G01X-3054634Y-1058402D01*
G01X-3049348Y-1071164D01*
G01X-3040939Y-1082123D01*
G01X-3029980Y-1090532D01*
G01X-3017218Y-1095818D01*
G01X-3003523Y-1097621D01*
G01X-2989828Y-1095818D01*
G01X-2977066Y-1090532D01*
G01X-2966107Y-1082123D01*
G01X-2957698Y-1071164D01*
G01X-2952412Y-1058402D01*
G01X-2950609Y-1044707D01*
G01X-2952412Y-1031012D01*
G01X-2957698Y-1018250D01*
G01X-2966107Y-1007291D01*
G01X-2977066Y-998882D01*
G01X-2989828Y-993596D01*
G01X-3003523Y-991793D01*
G01X-3017218Y-993596D01*
G01X-3029980Y-998882D01*
G01X-3040939Y-1007291D01*
G01X-3049348Y-1018250D01*
G01X-3054634Y-1031012D01*
G01X-3056437Y-1044707D01*
G01X-3056437Y-1044707D01*
G01X-3196731Y-1044707D01*
G01X-3198049Y-1040216D01*
G01X-3209069Y-1016087D01*
G01X-3223410Y-993772D01*
G01X-3240780Y-973725D01*
G01X-3260827Y-956354D01*
G01X-3283142Y-942013D01*
G01X-3293401Y-937328D01*
G01X-2829717Y-937328D01*
G01X-2829717Y-1027328D01*
G01X-2827710Y-1045734D01*
G01X-2821784Y-1063275D01*
G01X-2812218Y-1079127D01*
G01X-2799460Y-1092545D01*
G01X-2784111Y-1102898D01*
G01X-2766891Y-1109701D01*
G01X-2748610Y-1112633D01*
G01X-2730126Y-1111557D01*
G01X-2712309Y-1106523D01*
G01X-2695994Y-1097768D01*
G01X-2681950Y-1085703D01*
G01X-2670836Y-1070895D01*
G01X-2663174Y-1054040D01*
G01X-2657069Y-1067696D01*
G01X-2648023Y-1079607D01*
G01X-2636507Y-1089153D01*
G01X-2623124Y-1095833D01*
G01X-2608573Y-1099298D01*
G01X-2593615Y-1099367D01*
G01X-2579033Y-1096037D01*
G01X-2565588Y-1089481D01*
G01X-2553985Y-1080043D01*
G01X-2544828Y-1068215D01*
G01X-2538598Y-1054617D01*
G01X-2535619Y-1039959D01*
G01X-2535631Y-1039538D01*
G01X-2390950Y-1039538D01*
G01X-2389425Y-1053105D01*
G01X-2384480Y-1065830D01*
G01X-2376443Y-1076866D01*
G01X-2365851Y-1085478D01*
G01X-2353408Y-1091094D01*
G01X-2339942Y-1093339D01*
G01X-2326349Y-1092065D01*
G01X-2313535Y-1087355D01*
G01X-2302353Y-1079524D01*
G01X-2291450Y-1087740D01*
G01X-2278808Y-1092892D01*
G01X-2265268Y-1094639D01*
G01X-2251732Y-1092864D01*
G01X-2239101Y-1087685D01*
G01X-2228215Y-1079446D01*
G01X-2219799Y-1068696D01*
G01X-2214414Y-1056152D01*
G01X-2212418Y-1042646D01*
G01X-2212719Y-1039966D01*
G01X-2087964Y-1039966D01*
G01X-2084985Y-1054620D01*
G01X-2078756Y-1068214D01*
G01X-2069603Y-1080039D01*
G01X-2058003Y-1089476D01*
G01X-2044563Y-1096033D01*
G01X-2029986Y-1099365D01*
G01X-2015032Y-1099301D01*
G01X-2000484Y-1095841D01*
G01X-1987101Y-1089169D01*
G01X-1975584Y-1079631D01*
G01X-1966533Y-1067728D01*
G01X-1960423Y-1054079D01*
G01X-1952863Y-1070743D01*
G01X-1941928Y-1085414D01*
G01X-1928119Y-1097420D01*
G01X-1912069Y-1106208D01*
G01X-1894516Y-1111377D01*
G01X-1876265Y-1112688D01*
G01X-1858153Y-1110081D01*
G01X-1841012Y-1103677D01*
G01X-1825629Y-1093768D01*
G01X-1812709Y-1080810D01*
G01X-1802846Y-1065398D01*
G01X-1796491Y-1048239D01*
G01X-1793938Y-1030119D01*
G01X-1783305Y-1039653D01*
G01X-1770510Y-1045997D01*
G01X-1756485Y-1048687D01*
G01X-1742251Y-1047529D01*
G01X-1728845Y-1042607D01*
G01X-1717244Y-1034278D01*
G01X-1708292Y-1023151D01*
G01X-1702642Y-1010035D01*
G01X-1700706Y-995886D01*
G01X-1702624Y-981734D01*
G01X-1708256Y-968611D01*
G01X-1717193Y-957472D01*
G01X-1728783Y-949128D01*
G01X-1742182Y-944188D01*
G01X-1756415Y-943011D01*
G01X-1770444Y-945682D01*
G01X-1783247Y-952009D01*
G01X-1793892Y-961528D01*
G01X-1793892Y-937328D01*
G01X-1793892Y-937328D01*
G01X-1795759Y-919570D01*
G01X-1801277Y-902587D01*
G01X-1810205Y-887123D01*
G01X-1819689Y-876590D01*
G01X-1432218Y-876590D01*
G01X-1430415Y-890285D01*
G01X-1425128Y-903047D01*
G01X-1416719Y-914005D01*
G01X-1405761Y-922414D01*
G01X-1392999Y-927701D01*
G01X-1379304Y-929504D01*
G01X-1365608Y-927701D01*
G01X-1352847Y-922414D01*
G01X-1341888Y-914005D01*
G01X-1333479Y-903047D01*
G01X-1328193Y-890285D01*
G01X-1326390Y-876590D01*
G01X-1328193Y-862894D01*
G01X-1333479Y-850133D01*
G01X-1341888Y-839174D01*
G01X-1352847Y-830765D01*
G01X-1365608Y-825479D01*
G01X-1379304Y-823676D01*
G01X-1392999Y-825479D01*
G01X-1405761Y-830765D01*
G01X-1416719Y-839174D01*
G01X-1425128Y-850133D01*
G01X-1430415Y-862894D01*
G01X-1432218Y-876590D01*
G01X-1432218Y-876590D01*
G01X-1819689Y-876590D01*
G01X-1822153Y-873853D01*
G01X-1836599Y-863358D01*
G01X-1852912Y-856095D01*
G01X-1870378Y-852382D01*
G01X-1888234Y-852382D01*
G01X-1905700Y-856095D01*
G01X-1922013Y-863358D01*
G01X-1936459Y-873853D01*
G01X-1948407Y-887123D01*
G01X-1957336Y-902587D01*
G01X-1962853Y-919570D01*
G01X-1964720Y-937328D01*
G01X-1964720Y-1004232D01*
G01X-1973076Y-991831D01*
G01X-1984031Y-981652D01*
G01X-1997011Y-974226D01*
G01X-2011338Y-969942D01*
G01X-2026263Y-969024D01*
G01X-2041007Y-971520D01*
G01X-2054799Y-977298D01*
G01X-2066919Y-986058D01*
G01X-2076732Y-997341D01*
G01X-2083727Y-1010558D01*
G01X-2087537Y-1025018D01*
G01X-2087964Y-1039966D01*
G01X-2212719Y-1039966D01*
G01X-2213943Y-1029080D01*
G01X-2218888Y-1016355D01*
G01X-2226925Y-1005319D01*
G01X-2237517Y-996707D01*
G01X-2249960Y-991091D01*
G01X-2263426Y-988845D01*
G01X-2277019Y-990120D01*
G01X-2289833Y-994830D01*
G01X-2301015Y-1002661D01*
G01X-2311918Y-994445D01*
G01X-2324560Y-989292D01*
G01X-2338100Y-987545D01*
G01X-2351636Y-989321D01*
G01X-2364267Y-994500D01*
G01X-2375153Y-1002739D01*
G01X-2383569Y-1013488D01*
G01X-2388954Y-1026033D01*
G01X-2390950Y-1039538D01*
G01X-2390950Y-1039538D01*
G01X-2535631Y-1039538D01*
G01X-2536048Y-1025007D01*
G01X-2539862Y-1010544D01*
G01X-2546862Y-997325D01*
G01X-2556682Y-986042D01*
G01X-2568808Y-977285D01*
G01X-2582607Y-971511D01*
G01X-2597356Y-969022D01*
G01X-2612285Y-969949D01*
G01X-2626613Y-974243D01*
G01X-2639591Y-981680D01*
G01X-2650541Y-991870D01*
G01X-2658889Y-1004281D01*
G01X-2658889Y-937328D01*
G01X-2658889Y-937328D01*
G01X-2660756Y-919570D01*
G01X-2666274Y-902587D01*
G01X-2675202Y-887123D01*
G01X-2687150Y-873853D01*
G01X-2701596Y-863358D01*
G01X-2717909Y-856095D01*
G01X-2735375Y-852382D01*
G01X-2753231Y-852382D01*
G01X-2770697Y-856095D01*
G01X-2787010Y-863358D01*
G01X-2801456Y-873853D01*
G01X-2813404Y-887123D01*
G01X-2822333Y-902587D01*
G01X-2827850Y-919570D01*
G01X-2829717Y-937328D01*
G01X-3293401Y-937328D01*
G01X-3307271Y-930994D01*
G01X-3332723Y-923521D01*
G01X-3358978Y-919746D01*
G01X-3385504Y-919746D01*
G01X-3411760Y-923521D01*
G01X-3437212Y-930994D01*
G01X-3461340Y-942013D01*
G01X-3483655Y-956354D01*
G01X-3503702Y-973725D01*
G01X-3711915Y-1181938D01*
G01X-3722587Y-1187718D01*
G01X-3734440Y-1190333D01*
G01X-3746554Y-1189580D01*
G01X-3757991Y-1185516D01*
G01X-3767865Y-1178457D01*
G01X-3775410Y-1168950D01*
G01X-3780042Y-1157731D01*
G01X-3781403Y-1145670D01*
G01X-3781392Y-1144874D01*
G01X-3781391Y-764839D01*
G01X-3779702Y-752006D01*
G01X-3774748Y-740046D01*
G01X-3766868Y-729777D01*
G01X-3756598Y-721897D01*
G01X-3744639Y-716943D01*
G01X-3731805Y-715253D01*
G01X-3591805Y-715253D01*
G01X-3574166Y-713516D01*
G01X-3557205Y-708371D01*
G01X-3541574Y-700016D01*
G01X-3527873Y-688772D01*
G01X-3516629Y-675071D01*
G01X-3508274Y-659439D01*
G01X-3503129Y-642478D01*
G01X-3501392Y-624839D01*
G01X-3501827Y-619709D01*
G01X-3501828Y-602672D01*
G01X-3480820Y-602672D01*
G01X-3479017Y-616367D01*
G01X-3473731Y-629129D01*
G01X-3465322Y-640088D01*
G01X-3454363Y-648497D01*
G01X-3441601Y-653783D01*
G01X-3427906Y-655586D01*
G01X-3414211Y-653783D01*
G01X-3401449Y-648497D01*
G01X-3390490Y-640088D01*
G01X-3389532Y-638840D01*
G01X-3334821Y-638840D01*
G01X-3333018Y-652535D01*
G01X-3327731Y-665297D01*
G01X-3319322Y-676256D01*
G01X-3308364Y-684665D01*
G01X-3295602Y-689951D01*
G01X-3281907Y-691754D01*
G01X-3268211Y-689951D01*
G01X-3255450Y-684665D01*
G01X-3244491Y-676256D01*
G01X-3236082Y-665297D01*
G01X-3233780Y-659739D01*
G01X-3169819Y-659739D01*
G01X-3168016Y-673435D01*
G01X-3162730Y-686196D01*
G01X-3154321Y-697155D01*
G01X-3143362Y-705564D01*
G01X-3130600Y-710850D01*
G01X-3116905Y-712653D01*
G01X-3103210Y-710850D01*
G01X-3090448Y-705564D01*
G01X-3079489Y-697155D01*
G01X-3071080Y-686196D01*
G01X-3065794Y-673435D01*
G01X-3063991Y-659739D01*
G01X-3065794Y-646044D01*
G01X-3071080Y-633282D01*
G01X-3079489Y-622323D01*
G01X-3090448Y-613914D01*
G01X-3103210Y-608628D01*
G01X-3116905Y-606825D01*
G01X-3130600Y-608628D01*
G01X-3143362Y-613914D01*
G01X-3154321Y-622323D01*
G01X-3162730Y-633282D01*
G01X-3168016Y-646044D01*
G01X-3169819Y-659739D01*
G01X-3169819Y-659739D01*
G01X-3233780Y-659739D01*
G01X-3230796Y-652535D01*
G01X-3228993Y-638840D01*
G01X-3230796Y-625145D01*
G01X-3236082Y-612383D01*
G01X-3244491Y-601424D01*
G01X-3255450Y-593015D01*
G01X-3268211Y-587729D01*
G01X-3281907Y-585926D01*
G01X-3295602Y-587729D01*
G01X-3308364Y-593015D01*
G01X-3319322Y-601424D01*
G01X-3327731Y-612383D01*
G01X-3333018Y-625145D01*
G01X-3334821Y-638840D01*
G01X-3334821Y-638840D01*
G01X-3389532Y-638840D01*
G01X-3382081Y-629129D01*
G01X-3376795Y-616367D01*
G01X-3374992Y-602672D01*
G01X-3376795Y-588977D01*
G01X-3382081Y-576215D01*
G01X-3390490Y-565256D01*
G01X-3401449Y-556847D01*
G01X-3414211Y-551561D01*
G01X-3427906Y-549758D01*
G01X-3441601Y-551561D01*
G01X-3454363Y-556847D01*
G01X-3465322Y-565256D01*
G01X-3473731Y-576215D01*
G01X-3479017Y-588977D01*
G01X-3480820Y-602672D01*
G01X-3480820Y-602672D01*
G01X-3501828Y-602672D01*
G01X-3501828Y-589172D01*
G01X-3501392Y-584039D01*
G01X-3501392Y-574039D01*
G01X-3502169Y-563606D01*
G01X-3504483Y-553403D01*
G01X-3488759Y-549304D01*
G01X-3474180Y-542126D01*
G01X-3461342Y-532165D01*
G01X-3450769Y-519825D01*
G01X-3442892Y-505612D01*
G01X-3438033Y-490106D01*
G01X-3436392Y-473939D01*
G01X-3436392Y-412309D01*
G01X-3010297Y-412309D01*
G01X-3007990Y-426052D01*
G01X-3002176Y-438717D01*
G01X-2993256Y-449424D01*
G01X-2981850Y-457432D01*
G01X-2993261Y-466234D01*
G01X-3001873Y-477788D01*
G01X-3007049Y-491238D01*
G01X-3008403Y-505585D01*
G01X-3005837Y-519766D01*
G01X-2999539Y-532728D01*
G01X-2989977Y-543511D01*
G01X-2989977Y-543511D01*
G01X-2977861Y-551313D01*
G01X-2964089Y-555557D01*
G01X-2949683Y-555928D01*
G01X-2935711Y-552398D01*
G01X-2923209Y-545230D01*
G01X-2913106Y-534954D01*
G01X-2906149Y-522333D01*
G01X-2899628Y-534361D01*
G01X-2890242Y-544314D01*
G01X-2878617Y-551529D01*
G01X-2865530Y-555522D01*
G01X-2851858Y-556025D01*
G01X-2838513Y-553007D01*
G01X-2826389Y-546668D01*
G01X-2816295Y-537432D01*
G01X-2808906Y-525917D01*
G01X-2804717Y-512892D01*
G01X-2804007Y-499228D01*
G01X-2805199Y-493568D01*
G01X-2769857Y-493568D01*
G01X-2768614Y-507962D01*
G01X-2763523Y-521484D01*
G01X-2754965Y-533124D01*
G01X-2743577Y-542016D01*
G01X-2730209Y-547495D01*
G01X-2715856Y-549155D01*
G01X-2701590Y-546870D01*
G01X-2688474Y-540812D01*
G01X-2677485Y-531432D01*
G01X-2669443Y-519429D01*
G01X-2655296Y-519278D01*
G01X-2641694Y-515383D01*
G01X-2629611Y-508023D01*
G01X-2619910Y-497725D01*
G01X-2613284Y-485224D01*
G01X-2610208Y-471414D01*
G01X-2610901Y-457283D01*
G01X-2593955Y-464418D01*
G01X-2581473Y-470828D01*
G01X-2570862Y-480009D01*
G01X-2562723Y-491440D01*
G01X-2557519Y-504471D01*
G01X-2555545Y-518363D01*
G01X-2556913Y-532328D01*
G01X-2569928Y-598868D01*
G01X-2579751Y-665954D01*
G01X-2586360Y-733432D01*
G01X-2589739Y-801149D01*
G01X-2597916Y-812085D01*
G01X-2603023Y-824749D01*
G01X-2604718Y-838299D01*
G01X-2602890Y-851831D01*
G01X-2597659Y-864444D01*
G01X-2589375Y-875300D01*
G01X-2578588Y-883673D01*
G01X-2566018Y-889008D01*
G01X-2552502Y-890948D01*
G01X-2538939Y-889365D01*
G01X-2526232Y-884363D01*
G01X-2515229Y-876276D01*
G01X-2506662Y-865643D01*
G01X-2501101Y-853172D01*
G01X-2498916Y-839693D01*
G01X-2500254Y-826103D01*
G01X-2505025Y-813308D01*
G01X-2512911Y-802161D01*
G01X-2509686Y-738356D01*
G01X-2506352Y-704474D01*
G01X-1931731Y-704474D01*
G01X-1930077Y-717601D01*
G01X-1925218Y-729908D01*
G01X-1917457Y-740624D01*
G01X-1907281Y-749080D01*
G01X-1895325Y-754747D01*
G01X-1882337Y-757271D01*
G01X-1869129Y-756493D01*
G01X-1856526Y-752464D01*
G01X-1845317Y-745433D01*
G01X-1833770Y-752619D01*
G01X-1820773Y-756625D01*
G01X-1807184Y-757185D01*
G01X-1793901Y-754262D01*
G01X-1781801Y-748050D01*
G01X-1769513Y-754330D01*
G01X-1756019Y-757218D01*
G01X-1742238Y-756519D01*
G01X-1729105Y-752281D01*
G01X-1717515Y-744791D01*
G01X-1708256Y-734559D01*
G01X-1701957Y-722280D01*
G01X-1694046Y-731661D01*
G01X-1684186Y-738966D01*
G01X-1672909Y-743804D01*
G01X-1660821Y-745915D01*
G01X-1656224Y-758885D01*
G01X-1648438Y-770231D01*
G01X-1637991Y-779186D01*
G01X-1625587Y-785144D01*
G01X-1612066Y-787703D01*
G01X-1607512Y-800590D01*
G01X-1599808Y-811880D01*
G01X-1589469Y-820820D01*
G01X-1577185Y-826814D01*
G01X-1563776Y-829462D01*
G01X-1563776Y-829462D01*
G01X-1550136Y-828586D01*
G01X-1537175Y-824246D01*
G01X-1525759Y-816731D01*
G01X-1516648Y-806542D01*
G01X-1510451Y-794359D01*
G01X-1498107Y-797377D01*
G01X-1485399Y-797364D01*
G01X-1473061Y-794323D01*
G01X-1461804Y-788427D01*
G01X-1449006Y-794879D01*
G01X-1434946Y-797660D01*
G01X-1420655Y-796566D01*
G01X-1407182Y-791676D01*
G01X-1395516Y-783350D01*
G01X-1386512Y-772199D01*
G01X-1380831Y-759040D01*
G01X-1378890Y-744840D01*
G01X-1380831Y-730639D01*
G01X-1386512Y-717480D01*
G01X-1395516Y-706329D01*
G01X-1407182Y-698003D01*
G01X-1420655Y-693113D01*
G01X-1434946Y-692019D01*
G01X-1449006Y-694800D01*
G01X-1461804Y-701252D01*
G01X-1474107Y-694972D01*
G01X-1487617Y-692091D01*
G01X-1501411Y-692805D01*
G01X-1514551Y-697064D01*
G01X-1526141Y-704579D01*
G01X-1535391Y-714838D01*
G01X-1541671Y-727141D01*
G01X-1549371Y-724891D01*
G01X-1557323Y-723832D01*
G01X-1561919Y-710862D01*
G01X-1569705Y-699516D01*
G01X-1580153Y-690561D01*
G01X-1592557Y-684603D01*
G01X-1606077Y-682044D01*
G01X-1610626Y-669167D01*
G01X-1618320Y-657884D01*
G01X-1628645Y-648945D01*
G01X-1640914Y-642947D01*
G01X-1654310Y-640288D01*
G01X-1667940Y-641147D01*
G01X-1680896Y-645465D01*
G01X-1692315Y-652956D01*
G01X-1701437Y-663119D01*
G01X-1707654Y-675279D01*
G01X-1716838Y-664742D01*
G01X-1728460Y-656978D01*
G01X-1741710Y-652528D01*
G01X-1755662Y-651702D01*
G01X-1769345Y-654558D01*
G01X-1781801Y-660897D01*
G01X-1793901Y-654686D01*
G01X-1807184Y-651763D01*
G01X-1820773Y-652323D01*
G01X-1833770Y-656328D01*
G01X-1845317Y-663514D01*
G01X-1856526Y-656484D01*
G01X-1869129Y-652454D01*
G01X-1882337Y-651677D01*
G01X-1895325Y-654201D01*
G01X-1907281Y-659868D01*
G01X-1917457Y-668324D01*
G01X-1925218Y-679040D01*
G01X-1930077Y-691347D01*
G01X-1931731Y-704474D01*
G01X-2506352Y-704474D01*
G01X-2503429Y-674778D01*
G01X-2494156Y-611568D01*
G01X-2481887Y-548872D01*
G01X-2481887Y-548872D01*
G01X-2478930Y-527491D01*
G01X-2479400Y-505911D01*
G01X-2480266Y-501176D01*
G01X-2124120Y-501176D01*
G01X-2122317Y-514871D01*
G01X-2117031Y-527633D01*
G01X-2108622Y-538592D01*
G01X-2097663Y-547001D01*
G01X-2084901Y-552287D01*
G01X-2071206Y-554090D01*
G01X-2057511Y-552287D01*
G01X-2044749Y-547001D01*
G01X-2033790Y-538592D01*
G01X-2025381Y-527633D01*
G01X-2020095Y-514871D01*
G01X-2018292Y-501176D01*
G01X-2020095Y-487481D01*
G01X-2025381Y-474719D01*
G01X-2033790Y-463760D01*
G01X-2044749Y-455351D01*
G01X-2057511Y-450065D01*
G01X-2071206Y-448262D01*
G01X-2084901Y-450065D01*
G01X-2097663Y-455351D01*
G01X-2108622Y-463760D01*
G01X-2117031Y-474719D01*
G01X-2122317Y-487481D01*
G01X-2124120Y-501176D01*
G01X-2124120Y-501176D01*
G01X-2480266Y-501176D01*
G01X-2483284Y-484679D01*
G01X-2490486Y-464331D01*
G01X-2500821Y-445382D01*
G01X-2514031Y-428311D01*
G01X-2529779Y-413550D01*
G01X-2547668Y-401472D01*
G01X-2567245Y-392382D01*
G01X-2585548Y-383995D01*
G01X-2602399Y-372979D01*
G01X-2617424Y-359579D01*
G01X-2630289Y-344093D01*
G01X-2640709Y-326867D01*
G01X-2626464Y-329261D01*
G01X-2612102Y-327714D01*
G01X-2598694Y-322341D01*
G01X-2587239Y-313542D01*
G01X-2578589Y-301974D01*
G01X-2573391Y-288497D01*
G01X-2572031Y-274117D01*
G01X-2559569Y-269535D01*
G01X-2548640Y-261996D01*
G01X-2539932Y-251973D01*
G01X-2533994Y-240098D01*
G01X-2531198Y-227119D01*
G01X-2531721Y-213852D01*
G01X-2535530Y-201133D01*
G01X-2542386Y-189763D01*
G01X-2551857Y-180457D01*
G01X-2563345Y-173802D01*
G01X-2576129Y-170216D01*
G01X-2589403Y-169926D01*
G01X-2602331Y-172949D01*
G01X-2614100Y-179095D01*
G01X-2623969Y-187977D01*
G01X-2631315Y-199037D01*
G01X-2635677Y-211577D01*
G01X-2636781Y-224808D01*
G01X-2647244Y-228407D01*
G01X-2656731Y-234103D01*
G01X-2664825Y-241648D01*
G01X-2676010Y-177962D01*
G01X-2683191Y-113702D01*
G01X-2686342Y-49119D01*
G01X-2685450Y15536D01*
G01X-2680518Y80007D01*
G01X-2675205Y76874D01*
G01X-2675847Y63729D01*
G01X-2673225Y50831D01*
G01X-2667501Y38980D01*
G01X-2659030Y28908D01*
G01X-2648335Y21239D01*
G01X-2649573Y7040D01*
G01X-2646977Y-6974D01*
G01X-2640735Y-19786D01*
G01X-2631299Y-30468D01*
G01X-2643707Y-36587D01*
G01X-2654105Y-45712D01*
G01X-2661782Y-57221D01*
G01X-2666214Y-70326D01*
G01X-2667097Y-84132D01*
G01X-2664372Y-97695D01*
G01X-2658224Y-110088D01*
G01X-2649074Y-120464D01*
G01X-2637547Y-128114D01*
G01X-2624431Y-132514D01*
G01X-2610623Y-133364D01*
G01X-2597066Y-130606D01*
G01X-2584688Y-124429D01*
G01X-2574334Y-115254D01*
G01X-2566712Y-103708D01*
G01X-2562343Y-90582D01*
G01X-2561526Y-76772D01*
G01X-2564317Y-63222D01*
G01X-2570524Y-50858D01*
G01X-2579724Y-40526D01*
G01X-2567525Y-34547D01*
G01X-2557250Y-25658D01*
G01X-2549578Y-14447D01*
G01X-2545013Y-1651D01*
G01X-2543856Y11886D01*
G01X-2546185Y25270D01*
G01X-2548156Y29572D01*
G01X-2535467Y29572D01*
G01X-2534178Y17637D01*
G01X-2529739Y6484D01*
G01X-2522476Y-3074D01*
G01X-2522476Y-3074D01*
G01X-2482171Y-43379D01*
G01X-2473712Y-50000D01*
G01X-2463911Y-54397D01*
G01X-2453341Y-56313D01*
G01X-2442620Y-55634D01*
G01X-2432376Y-52402D01*
G01X-2432376Y-72054D01*
G01X-2440056Y-76159D01*
G01X-2446789Y-81683D01*
G01X-2487094Y-121988D01*
G01X-2494356Y-131544D01*
G01X-2498795Y-142695D01*
G01X-2500085Y-154628D01*
G01X-2498134Y-166471D01*
G01X-2493083Y-177358D01*
G01X-2485301Y-186496D01*
G01X-2475357Y-193216D01*
G01X-2463976Y-197028D01*
G01X-2461414Y-205642D01*
G01X-2457171Y-213564D01*
G01X-2464403Y-222637D01*
G01X-2477988Y-223362D01*
G01X-2490939Y-227526D01*
G01X-2502401Y-234856D01*
G01X-2511615Y-244865D01*
G01X-2517972Y-256893D01*
G01X-2521052Y-270144D01*
G01X-2520652Y-283743D01*
G01X-2516798Y-296790D01*
G01X-2509744Y-308423D01*
G01X-2499958Y-317874D01*
G01X-2488085Y-324516D01*
G01X-2474911Y-327912D01*
G01X-2461307Y-327836D01*
G01X-2448171Y-324295D01*
G01X-2436373Y-317521D01*
G01X-2426692Y-307963D01*
G01X-2419768Y-296252D01*
G01X-2416058Y-283163D01*
G01X-2400338Y-265778D01*
G01X-2388018Y-268415D01*
G01X-2375453Y-267486D01*
G01X-2363654Y-263066D01*
G01X-2353572Y-255510D01*
G01X-2313266Y-215205D01*
G01X-2311805Y-213673D01*
G01X-2310344Y-215205D01*
G01X-2270039Y-255510D01*
G01X-2263526Y-260888D01*
G01X-2256113Y-264935D01*
G01X-2254439Y-278410D01*
G01X-2249390Y-291015D01*
G01X-2241299Y-301920D01*
G01X-2230700Y-310407D01*
G01X-2218289Y-315917D01*
G01X-2204885Y-318087D01*
G01X-2191370Y-316775D01*
G01X-2178634Y-312066D01*
G01X-2167516Y-304271D01*
G01X-2161580Y-297253D01*
G01X-1355108Y-297253D01*
G01X-1353330Y-358690D01*
G01X-1348306Y-419948D01*
G01X-1340051Y-480854D01*
G01X-1328588Y-541239D01*
G01X-1313948Y-600933D01*
G01X-1296173Y-659770D01*
G01X-1286516Y-682980D01*
G01X-1273523Y-704501D01*
G01X-1257482Y-723857D01*
G01X-1238748Y-740619D01*
G01X-1217734Y-754417D01*
G01X-1194907Y-764946D01*
G01X-1170770Y-771973D01*
G01X-1166271Y-772651D01*
G01X-1166271Y-772651D01*
G01X-1017067Y-788183D01*
G01X-868332Y-807704D01*
G01X-868332Y-807704D01*
G01X-858587Y-817269D01*
G01X-846718Y-824023D01*
G01X-833516Y-827513D01*
G01X-819860Y-827509D01*
G01X-806660Y-824011D01*
G01X-794795Y-817251D01*
G01X-785056Y-807679D01*
G01X-778090Y-795934D01*
G01X-774361Y-782797D01*
G01X-774119Y-769143D01*
G01X-777379Y-755883D01*
G01X-783924Y-743898D01*
G01X-793319Y-733987D01*
G01X-804936Y-726810D01*
G01X-818004Y-722846D01*
G01X-831651Y-722357D01*
G01X-844968Y-725378D01*
G01X-857069Y-731706D01*
G01X-857069Y-731706D01*
G01X-1006734Y-712041D01*
G01X-1156869Y-696360D01*
G01X-1156869Y-696360D01*
G01X-1174602Y-690220D01*
G01X-1190724Y-680616D01*
G01X-1204567Y-667946D01*
G01X-1215558Y-652736D01*
G01X-1223241Y-635614D01*
G01X-1223241Y-635614D01*
G01X-1227271Y-623197D01*
G01X-1227271Y-623197D01*
G01X-1214871Y-624051D01*
G01X-1202614Y-621988D01*
G01X-1191176Y-617122D01*
G01X-1181189Y-609723D01*
G01X-1181189Y-609723D01*
G01X-1075861Y-611281D01*
G01X-970576Y-614682D01*
G01X-970576Y-614682D01*
G01X-938751Y-616559D01*
G01X-907012Y-619571D01*
G01X-907012Y-619571D01*
G01X-885895Y-620807D01*
G01X-864767Y-619758D01*
G01X-843875Y-616435D01*
G01X-823464Y-610879D01*
G01X-810625Y-613694D01*
G01X-797489Y-613257D01*
G01X-784865Y-609597D01*
G01X-773533Y-602938D01*
G01X-764192Y-593691D01*
G01X-757418Y-582427D01*
G01X-753630Y-569841D01*
G01X-753060Y-556710D01*
G01X-755745Y-543843D01*
G01X-761518Y-532035D01*
G01X-770023Y-522014D01*
G01X-780736Y-514399D01*
G01X-792995Y-509659D01*
G01X-806044Y-508087D01*
G01X-806827Y-493935D01*
G01X-811339Y-480498D01*
G01X-819255Y-468741D01*
G01X-830009Y-459508D01*
G01X-842827Y-453460D01*
G01X-856791Y-451031D01*
G01X-870899Y-452397D01*
G01X-884138Y-457458D01*
G01X-878135Y-444632D01*
G01X-875749Y-430674D01*
G01X-877151Y-416582D01*
G01X-882240Y-403367D01*
G01X-890651Y-391974D01*
G01X-901783Y-383221D01*
G01X-888676Y-378531D01*
G01X-877247Y-370585D01*
G01X-868284Y-359933D01*
G01X-862410Y-347313D01*
G01X-860030Y-333598D01*
G01X-861310Y-319736D01*
G01X-866160Y-306688D01*
G01X-874245Y-295356D01*
G01X-885005Y-286525D01*
G01X-897697Y-280806D01*
G01X-911440Y-278594D01*
G01X-925285Y-280043D01*
G01X-960477Y-262948D01*
G01X-996807Y-248424D01*
G01X-1034085Y-236546D01*
G01X-1072120Y-227375D01*
G01X-1056540Y-215029D01*
G01X-1043176Y-200313D01*
G01X-1032383Y-183619D01*
G01X-1030383Y-179025D01*
G01X-744904Y-179025D01*
G01X-744904Y-243025D01*
G01X-743357Y-253817D01*
G01X-738840Y-263739D01*
G01X-731718Y-271993D01*
G01X-722564Y-277914D01*
G01X-712115Y-281025D01*
G01X-722564Y-284135D01*
G01X-731718Y-290056D01*
G01X-738840Y-298310D01*
G01X-743357Y-308233D01*
G01X-744904Y-319025D01*
G01X-744904Y-383025D01*
G01X-743357Y-393817D01*
G01X-738840Y-403739D01*
G01X-731718Y-411993D01*
G01X-722564Y-417914D01*
G01X-712115Y-421025D01*
G01X-722564Y-424135D01*
G01X-731718Y-430056D01*
G01X-738840Y-438310D01*
G01X-743357Y-448233D01*
G01X-744904Y-459025D01*
G01X-744904Y-523025D01*
G01X-743024Y-534895D01*
G01X-737567Y-545604D01*
G01X-729069Y-554102D01*
G01X-718360Y-559559D01*
G01X-706490Y-561439D01*
G01X-572490Y-561439D01*
G01X-560619Y-559559D01*
G01X-549911Y-554102D01*
G01X-541412Y-545604D01*
G01X-535956Y-534895D01*
G01X-534076Y-523025D01*
G01X-534076Y-459025D01*
G01X-535623Y-448233D01*
G01X-540140Y-438310D01*
G01X-547262Y-430056D01*
G01X-556416Y-424135D01*
G01X-566865Y-421025D01*
G01X-556416Y-417914D01*
G01X-547262Y-411993D01*
G01X-540140Y-403739D01*
G01X-535623Y-393817D01*
G01X-534076Y-383025D01*
G01X-534076Y-319025D01*
G01X-535623Y-308233D01*
G01X-540140Y-298310D01*
G01X-547262Y-290056D01*
G01X-556416Y-284135D01*
G01X-566865Y-281025D01*
G01X-556416Y-277914D01*
G01X-547262Y-271993D01*
G01X-540140Y-263739D01*
G01X-535623Y-253817D01*
G01X-534076Y-243025D01*
G01X-534076Y-179025D01*
G01X-535623Y-168233D01*
G01X-540140Y-158310D01*
G01X-547262Y-150056D01*
G01X-556417Y-144135D01*
G01X-566866Y-141025D01*
G01X-556417Y-137914D01*
G01X-547262Y-131993D01*
G01X-540140Y-123739D01*
G01X-535623Y-113817D01*
G01X-534076Y-103025D01*
G01X-534076Y-39024D01*
G01X-535956Y-27154D01*
G01X-541412Y-16445D01*
G01X-549911Y-7947D01*
G01X-560619Y-2491D01*
G01X-572490Y-610D01*
G01X-706490Y-610D01*
G01X-718360Y-2491D01*
G01X-729069Y-7947D01*
G01X-737567Y-16445D01*
G01X-743024Y-27154D01*
G01X-744904Y-39024D01*
G01X-744904Y-103025D01*
G01X-743357Y-113817D01*
G01X-738840Y-123739D01*
G01X-731718Y-131993D01*
G01X-722563Y-137914D01*
G01X-712114Y-141025D01*
G01X-722563Y-144135D01*
G01X-731718Y-150056D01*
G01X-738840Y-158310D01*
G01X-743357Y-168233D01*
G01X-744904Y-179025D01*
G01X-744904Y-179025D01*
G01X-1030383Y-179025D01*
G01X-1024449Y-165393D01*
G01X-1024449Y-165393D01*
G01X-1024449Y-165393D01*
G01X-1011141Y-125549D01*
G01X-964859Y-125549D01*
G01X-963056Y-139245D01*
G01X-957770Y-152006D01*
G01X-949361Y-162965D01*
G01X-938402Y-171374D01*
G01X-925640Y-176660D01*
G01X-911945Y-178463D01*
G01X-898250Y-176660D01*
G01X-885488Y-171374D01*
G01X-874529Y-162965D01*
G01X-866120Y-152006D01*
G01X-860834Y-139245D01*
G01X-859031Y-125549D01*
G01X-860834Y-111854D01*
G01X-866120Y-99092D01*
G01X-874529Y-88134D01*
G01X-885488Y-79725D01*
G01X-898250Y-74438D01*
G01X-911945Y-72635D01*
G01X-925640Y-74438D01*
G01X-938402Y-79725D01*
G01X-949361Y-88134D01*
G01X-957770Y-99092D01*
G01X-963056Y-111854D01*
G01X-964859Y-125549D01*
G01X-964859Y-125549D01*
G01X-1011141Y-125549D01*
G01X-977213Y-23973D01*
G01X-977213Y-23973D01*
G01X-972963Y-37303D01*
G01X-965368Y-49053D01*
G01X-954959Y-58402D01*
G01X-942464Y-64696D01*
G01X-928756Y-67495D01*
G01X-914793Y-66603D01*
G01X-901552Y-62083D01*
G01X-889959Y-54251D01*
G01X-880823Y-43654D01*
G01X-874785Y-31033D01*
G01X-872265Y-17271D01*
G01X-873440Y-3329D01*
G01X-878228Y9817D01*
G01X-886295Y21249D01*
G01X-897075Y30167D01*
G01X-909816Y35948D01*
G01X-923627Y38187D01*
G01X-937542Y36728D01*
G01X-950588Y31674D01*
G01X-961854Y23377D01*
G01X-961854Y23377D01*
G01X-911870Y182579D01*
G01X-911870Y182579D01*
G01X-892996Y237405D01*
G01X-870374Y290794D01*
G01X-844114Y342490D01*
G01X-814340Y392246D01*
G01X-800028Y417781D01*
G01X-789041Y444913D01*
G01X-781551Y473212D01*
G01X-777679Y502227D01*
G01X-774484Y526162D01*
G01X-768302Y549505D01*
G01X-759232Y571884D01*
G01X-747417Y592943D01*
G01X-747417Y540061D01*
G01X-745870Y529269D01*
G01X-741354Y519347D01*
G01X-734232Y511093D01*
G01X-725077Y505172D01*
G01X-714628Y502061D01*
G01X-725077Y498951D01*
G01X-734232Y493030D01*
G01X-741354Y484776D01*
G01X-745870Y474853D01*
G01X-747417Y464061D01*
G01X-747417Y400061D01*
G01X-745537Y388191D01*
G01X-740081Y377482D01*
G01X-731583Y368984D01*
G01X-720874Y363527D01*
G01X-709004Y361647D01*
G01X-575004Y361647D01*
G01X-563133Y363527D01*
G01X-552424Y368984D01*
G01X-543926Y377482D01*
G01X-538470Y388191D01*
G01X-536590Y400061D01*
G01X-536590Y464061D01*
G01X-538137Y474853D01*
G01X-542653Y484776D01*
G01X-549776Y493030D01*
G01X-558930Y498951D01*
G01X-569379Y502061D01*
G01X-558930Y505172D01*
G01X-549776Y511093D01*
G01X-542653Y519347D01*
G01X-538137Y529269D01*
G01X-536590Y540061D01*
G01X-536590Y604061D01*
G01X-538137Y614853D01*
G01X-542653Y624776D01*
G01X-549776Y633030D01*
G01X-558930Y638951D01*
G01X-569379Y642061D01*
G01X-558930Y645172D01*
G01X-549776Y651093D01*
G01X-542653Y659347D01*
G01X-538137Y669269D01*
G01X-536590Y680061D01*
G01X-536590Y744061D01*
G01X-538470Y755932D01*
G01X-543926Y766641D01*
G01X-552424Y775139D01*
G01X-563133Y780595D01*
G01X-575004Y782475D01*
G01X-709004Y782475D01*
G01X-720874Y780595D01*
G01X-731583Y775139D01*
G01X-740081Y766641D01*
G01X-745537Y755932D01*
G01X-747417Y744061D01*
G01X-747417Y703737D01*
G01X-772497Y682449D01*
G01X-794782Y658252D01*
G01X-813940Y631510D01*
G01X-829681Y602625D01*
G01X-841770Y572031D01*
G01X-850025Y540187D01*
G01X-854321Y507573D01*
G01X-857602Y484860D01*
G01X-863253Y498022D01*
G01X-872226Y509185D01*
G01X-883865Y517533D01*
G01X-897316Y522454D01*
G01X-911595Y523587D01*
G01X-925653Y520849D01*
G01X-938463Y514441D01*
G01X-949085Y504832D01*
G01X-956740Y492726D01*
G01X-960869Y479011D01*
G01X-961167Y464691D01*
G01X-957615Y450816D01*
G01X-950471Y438401D01*
G01X-940259Y428358D01*
G01X-927728Y421421D01*
G01X-913796Y418099D01*
G01X-899483Y418635D01*
G01X-885838Y422991D01*
G01X-885838Y422991D01*
G01X-916032Y371079D01*
G01X-942754Y317297D01*
G01X-965889Y261877D01*
G01X-985336Y205058D01*
G01X-985336Y205058D01*
G01X-985336Y205058D01*
G01X-1039868Y31793D01*
G01X-1097160Y-140579D01*
G01X-1097160Y-140579D01*
G01X-1102503Y-151299D01*
G01X-1110485Y-160229D01*
G01X-1120541Y-166736D01*
G01X-1131958Y-170358D01*
G01X-1143926Y-170840D01*
G01X-1143926Y-170840D01*
G01X-1187726Y-167854D01*
G01X-1187726Y-167854D01*
G01X-1196808Y-160654D01*
G01X-1207240Y-155605D01*
G01X-1197778Y-147675D01*
G01X-1190411Y-137768D01*
G01X-1185541Y-126423D01*
G01X-1183432Y-114259D01*
G01X-1184199Y-101938D01*
G01X-1187800Y-90129D01*
G01X-1175572Y-83606D01*
G01X-1165458Y-74132D01*
G01X-1158150Y-62356D01*
G01X-1154151Y-49087D01*
G01X-1153734Y-35235D01*
G01X-1156928Y-21749D01*
G01X-1163514Y-9556D01*
G01X-1152782Y-574D01*
G01X-1144780Y10908D01*
G01X-1140068Y24086D01*
G01X-1138975Y38038D01*
G01X-1141578Y51789D01*
G01X-1147696Y64376D01*
G01X-1156899Y74920D01*
G01X-1168544Y82681D01*
G01X-1181817Y87119D01*
G01X-1195789Y87921D01*
G01X-1209483Y85033D01*
G01X-1221941Y78655D01*
G01X-1232290Y69235D01*
G01X-1239808Y57430D01*
G01X-1243969Y44068D01*
G01X-1244481Y30082D01*
G01X-1241308Y16452D01*
G01X-1234673Y4130D01*
G01X-1244365Y-3748D01*
G01X-1251940Y-13678D01*
G01X-1256977Y-25107D01*
G01X-1259195Y-37398D01*
G01X-1258470Y-49866D01*
G01X-1254844Y-61817D01*
G01X-1264603Y-66676D01*
G01X-1273159Y-73431D01*
G01X-1280149Y-81796D01*
G01X-1297968Y-91233D01*
G01X-1313831Y-103679D01*
G01X-1327235Y-118741D01*
G01X-1337756Y-135941D01*
G01X-1345061Y-154734D01*
G01X-1348917Y-174525D01*
G01X-1353636Y-235807D01*
G01X-1355108Y-297253D01*
G01X-2161580Y-297253D01*
G01X-2158747Y-293903D01*
G01X-2152906Y-281645D01*
G01X-2150377Y-268304D01*
G01X-2151327Y-254758D01*
G01X-2155692Y-241900D01*
G01X-2163186Y-230577D01*
G01X-2173315Y-221533D01*
G01X-2167026Y-214413D01*
G01X-2162395Y-206118D01*
G01X-2159635Y-197028D01*
G01X-2147152Y-192652D01*
G01X-2136512Y-184794D01*
G01X-2128657Y-174151D01*
G01X-2124286Y-161667D01*
G01X-2112902Y-157858D01*
G01X-2102954Y-151139D01*
G01X-2095169Y-142002D01*
G01X-2090115Y-131114D01*
G01X-2088161Y-119270D01*
G01X-2089451Y-107335D01*
G01X-2093890Y-96182D01*
G01X-2101153Y-86624D01*
G01X-2141458Y-46319D01*
G01X-2142991Y-44857D01*
G01X-2141440Y-43379D01*
G01X-2101135Y-3074D01*
G01X-2093694Y6802D01*
G01X-2074014Y18026D01*
G01X-2053170Y26905D01*
G01X-2031442Y33321D01*
G01X-2009119Y37188D01*
G01X-1998176Y29587D01*
G01X-1985682Y24960D01*
G01X-1972428Y23601D01*
G01X-1959255Y25596D01*
G01X-1946998Y30817D01*
G01X-1936433Y38935D01*
G01X-1928231Y49435D01*
G01X-1922912Y61651D01*
G01X-1920813Y74807D01*
G01X-1922067Y88072D01*
G01X-1926594Y100602D01*
G01X-1934108Y111605D01*
G01X-1944131Y120382D01*
G01X-1956030Y126377D01*
G01X-1969049Y129209D01*
G01X-1982362Y128700D01*
G01X-1985110Y140313D01*
G01X-1988311Y146800D01*
G01X-1885846Y146800D01*
G01X-1883869Y132472D01*
G01X-1878086Y119214D01*
G01X-1868929Y108018D01*
G01X-1857083Y99719D01*
G01X-1843432Y94938D01*
G01X-1828996Y94033D01*
G01X-1814855Y97070D01*
G01X-1802064Y103822D01*
G01X-1790514Y97538D01*
G01X-1777771Y94296D01*
G01X-1764622Y94296D01*
G01X-1751879Y97538D01*
G01X-1740329Y103822D01*
G01X-1728452Y97411D01*
G01X-1715339Y94214D01*
G01X-1701844Y94437D01*
G01X-1688844Y98068D01*
G01X-1677186Y104869D01*
G01X-1666106Y97289D01*
G01X-1653476Y92742D01*
G01X-1640108Y91520D01*
G01X-1626862Y93701D01*
G01X-1614591Y99145D01*
G01X-1604086Y107501D01*
G01X-1596021Y118233D01*
G01X-1590916Y130648D01*
G01X-1589100Y143949D01*
G01X-1590689Y157278D01*
G01X-1595582Y169779D01*
G01X-1603463Y180646D01*
G01X-1603463Y180646D01*
G01X-1600932Y305169D01*
G01X-1596795Y395039D01*
G01X-1527521Y395039D01*
G01X-1526577Y351113D01*
G01X-1522044Y307411D01*
G01X-1513953Y264227D01*
G01X-1502357Y221849D01*
G01X-1487335Y180561D01*
G01X-1479150Y163641D01*
G01X-1468977Y147836D01*
G01X-1456966Y133379D01*
G01X-1453602Y120225D01*
G01X-1447003Y108361D01*
G01X-1437601Y98567D01*
G01X-1426017Y91487D01*
G01X-1413012Y87588D01*
G01X-1399444Y87126D01*
G01X-1386204Y90132D01*
G01X-1374166Y96408D01*
G01X-1364120Y105540D01*
G01X-1356729Y116929D01*
G01X-1352479Y129823D01*
G01X-1351650Y143374D01*
G01X-1354296Y156690D01*
G01X-1360244Y168894D01*
G01X-1369101Y179183D01*
G01X-1380285Y186880D01*
G01X-1393059Y191478D01*
G01X-1406582Y192674D01*
G01X-1411967Y200912D01*
G01X-1416273Y209761D01*
G01X-1430746Y250276D01*
G01X-1441371Y291967D01*
G01X-1448054Y334467D01*
G01X-1450738Y377406D01*
G01X-1449398Y420408D01*
G01X-1444047Y463097D01*
G01X-1434732Y505099D01*
G01X-1434732Y505099D01*
G01X-1423981Y546902D01*
G01X-1414346Y588976D01*
G01X-1414346Y588976D01*
G01X-1401020Y583744D01*
G01X-1386779Y582276D01*
G01X-1372666Y584679D01*
G01X-1359714Y590777D01*
G01X-1348870Y600124D01*
G01X-1340929Y612036D01*
G01X-1336472Y625641D01*
G01X-1335825Y639943D01*
G01X-1339035Y653894D01*
G01X-1345868Y666474D01*
G01X-1355824Y676763D01*
G01X-1368172Y684006D01*
G01X-1382011Y687673D01*
G01X-1396326Y687497D01*
G01X-1390691Y728275D01*
G01X-1390691Y728275D01*
G01X-1379317Y735524D01*
G01X-1370145Y745413D01*
G01X-1363772Y757300D01*
G01X-1360610Y770411D01*
G01X-1360866Y783896D01*
G01X-1364523Y796878D01*
G01X-1371343Y808514D01*
G01X-1380884Y818048D01*
G01X-1392525Y824860D01*
G01X-1405509Y828508D01*
G01X-1418995Y828755D01*
G01X-1432104Y825584D01*
G01X-1443986Y819202D01*
G01X-1453869Y810023D01*
G01X-1461110Y798644D01*
G01X-1465239Y785804D01*
G01X-1465987Y772338D01*
G01X-1463307Y759119D01*
G01X-1466144Y744144D01*
G01X-1466144Y744144D01*
G01X-1476866Y670512D01*
G01X-1491121Y597482D01*
G01X-1508877Y525224D01*
G01X-1508877Y525224D01*
G01X-1508877Y525224D01*
G01X-1518641Y482386D01*
G01X-1524869Y438894D01*
G01X-1527521Y395039D01*
G01X-1596795Y395039D01*
G01X-1595205Y429585D01*
G01X-1586285Y553814D01*
G01X-1574177Y677772D01*
G01X-1558890Y801378D01*
G01X-1540433Y924551D01*
G01X-1518820Y1047210D01*
G01X-1518820Y1047210D01*
G01X-1518820Y1047210D01*
G01X-1509006Y1056705D01*
G01X-1501950Y1068395D01*
G01X-1498120Y1081502D01*
G01X-1497771Y1095153D01*
G01X-1500928Y1108438D01*
G01X-1507379Y1120473D01*
G01X-1516695Y1130457D01*
G01X-1528256Y1137724D01*
G01X-1541291Y1141790D01*
G01X-1554933Y1142386D01*
G01X-1568273Y1139470D01*
G01X-1580423Y1133238D01*
G01X-1590574Y1124104D01*
G01X-1598049Y1112677D01*
G01X-1602351Y1099717D01*
G01X-1603193Y1086088D01*
G01X-1600519Y1072697D01*
G01X-1594508Y1060437D01*
G01X-1616189Y937348D01*
G01X-1634741Y813749D01*
G01X-1650150Y689720D01*
G01X-1662409Y565339D01*
G01X-1671508Y440687D01*
G01X-1677442Y315845D01*
G01X-1680207Y190892D01*
G01X-1680207Y190892D01*
G01X-1691612Y196613D01*
G01X-1704055Y199437D01*
G01X-1716813Y199201D01*
G01X-1729143Y195917D01*
G01X-1740329Y189778D01*
G01X-1751879Y196062D01*
G01X-1764622Y199304D01*
G01X-1777771Y199304D01*
G01X-1790514Y196062D01*
G01X-1802064Y189778D01*
G01X-1814855Y196531D01*
G01X-1828996Y199568D01*
G01X-1843432Y198662D01*
G01X-1857083Y193881D01*
G01X-1868929Y185582D01*
G01X-1878086Y174386D01*
G01X-1883869Y161128D01*
G01X-1885846Y146800D01*
G01X-1988311Y146800D01*
G01X-1990390Y151014D01*
G01X-1997934Y160261D01*
G01X-2007358Y167581D01*
G01X-2018183Y172604D01*
G01X-2029858Y175073D01*
G01X-2041789Y174864D01*
G01X-2053370Y171986D01*
G01X-2064012Y166586D01*
G01X-2073173Y158939D01*
G01X-2084655Y156288D01*
G01X-2088682Y169693D01*
G01X-2096084Y181574D01*
G01X-2106342Y191098D01*
G01X-2118739Y197600D01*
G01X-2132406Y200623D01*
G01X-2146388Y199956D01*
G01X-2159706Y195647D01*
G01X-2171428Y187996D01*
G01X-2180734Y177540D01*
G01X-2186972Y165009D01*
G01X-2199940Y156244D01*
G01X-2206952Y165553D01*
G01X-2216145Y172718D01*
G01X-2226885Y177244D01*
G01X-2238433Y178821D01*
G01X-2249993Y177339D01*
G01X-2260770Y172901D01*
G01X-2270021Y165813D01*
G01X-2310326Y125507D01*
G01X-2311805Y123955D01*
G01X-2313284Y125507D01*
G01X-2353590Y165813D01*
G01X-2363147Y173076D01*
G01X-2374300Y177514D01*
G01X-2386235Y178804D01*
G01X-2398079Y176851D01*
G01X-2408967Y171797D01*
G01X-2418105Y164011D01*
G01X-2424823Y154064D01*
G01X-2428633Y142680D01*
G01X-2441117Y138308D01*
G01X-2451760Y130454D01*
G01X-2459618Y119813D01*
G01X-2463994Y107331D01*
G01X-2476477Y102955D01*
G01X-2487117Y95097D01*
G01X-2494971Y84454D01*
G01X-2499343Y71969D01*
G01X-2510727Y68160D01*
G01X-2520675Y61441D01*
G01X-2528460Y52304D01*
G01X-2533514Y41416D01*
G01X-2535467Y29572D01*
G01X-2548156Y29572D01*
G01X-2551845Y37621D01*
G01X-2560463Y48123D01*
G01X-2571471Y56085D01*
G01X-2570217Y69939D01*
G01X-2572617Y83642D01*
G01X-2578506Y96245D01*
G01X-2587475Y106878D01*
G01X-2598906Y114806D01*
G01X-2598279Y128153D01*
G01X-2601016Y141230D01*
G01X-2606941Y153205D01*
G01X-2615677Y163315D01*
G01X-2626666Y170914D01*
G01X-2616201Y180626D01*
G01X-2608714Y192783D01*
G01X-2604749Y206499D01*
G01X-2604596Y220776D01*
G01X-2608266Y234574D01*
G01X-2615491Y246889D01*
G01X-2625745Y256824D01*
G01X-2638283Y263655D01*
G01X-2652190Y266886D01*
G01X-2666455Y266281D01*
G01X-2680038Y261884D01*
G01X-2691952Y254015D01*
G01X-2701328Y243248D01*
G01X-2707484Y230365D01*
G01X-2721312Y216817D01*
G01X-2732544Y201051D01*
G01X-2740829Y183555D01*
G01X-2745912Y164876D01*
G01X-2745912Y164876D01*
G01X-2755055Y104264D01*
G01X-2760841Y43241D01*
G01X-2763252Y-18009D01*
G01X-2762280Y-79299D01*
G01X-2757928Y-140442D01*
G01X-2750211Y-201251D01*
G01X-2739150Y-261543D01*
G01X-2724781Y-321132D01*
G01X-2724781Y-321132D01*
G01X-2715991Y-346915D01*
G01X-2703964Y-371358D01*
G01X-2688900Y-394054D01*
G01X-2671048Y-414630D01*
G01X-2683286Y-418075D01*
G01X-2694349Y-424340D01*
G01X-2703598Y-433064D01*
G01X-2710499Y-443742D01*
G01X-2724946Y-443938D01*
G01X-2738801Y-448034D01*
G01X-2751032Y-455725D01*
G01X-2760726Y-466438D01*
G01X-2767161Y-479374D01*
G01X-2769857Y-493568D01*
G01X-2805199Y-493568D01*
G01X-2806825Y-485840D01*
G01X-2794646Y-479429D01*
G01X-2784532Y-470093D01*
G01X-2777168Y-458466D01*
G01X-2773052Y-445332D01*
G01X-2772462Y-431581D01*
G01X-2775439Y-418143D01*
G01X-2781781Y-405927D01*
G01X-2791058Y-395761D01*
G01X-2802644Y-388331D01*
G01X-2815754Y-384140D01*
G01X-2829502Y-383472D01*
G01X-2842956Y-386373D01*
G01X-2855208Y-392645D01*
G01X-2865427Y-401864D01*
G01X-2872923Y-413408D01*
G01X-2877188Y-426494D01*
G01X-2877934Y-440237D01*
G01X-2875110Y-453708D01*
G01X-2885160Y-458691D01*
G01X-2893933Y-465680D01*
G01X-2901036Y-474362D01*
G01X-2906149Y-484345D01*
G01X-2912116Y-473098D01*
G01X-2920597Y-463601D01*
G01X-2931101Y-456405D01*
G01X-2920028Y-447943D01*
G01X-2911549Y-436884D01*
G01X-2906251Y-423995D01*
G01X-2904501Y-410169D01*
G01X-2906422Y-396367D01*
G01X-2911880Y-383544D01*
G01X-2920496Y-372591D01*
G01X-2931673Y-364267D01*
G01X-2944635Y-359150D01*
G01X-2958484Y-357595D01*
G01X-2972258Y-359709D01*
G01X-2985003Y-365345D01*
G01X-2995835Y-374114D01*
G01X-3004001Y-385407D01*
G01X-3008936Y-398439D01*
G01X-3010297Y-412309D01*
G01X-3436392Y-412309D01*
G01X-3436392Y-323939D01*
G01X-3437968Y-308093D01*
G01X-3442637Y-292868D01*
G01X-3450214Y-278862D01*
G01X-3460402Y-266624D01*
G01X-3472803Y-256633D01*
G01X-3486928Y-249282D01*
G01X-3502226Y-244858D01*
G01X-3501391Y-234044D01*
G01X-3501388Y-230077D01*
G01X-3500458Y-214477D01*
G01X-3502844Y-199033D01*
G01X-3487429Y-194696D01*
G01X-3473179Y-187391D01*
G01X-3460659Y-177407D01*
G01X-3450365Y-165140D01*
G01X-3442706Y-151076D01*
G01X-3437986Y-135774D01*
G01X-3436392Y-119840D01*
G01X-3436392Y30160D01*
G01X-3437995Y46141D01*
G01X-3442743Y61484D01*
G01X-3450446Y75578D01*
G01X-3460796Y87860D01*
G01X-3473380Y97840D01*
G01X-3487696Y105120D01*
G01X-3503174Y109410D01*
G01X-3501391Y125156D01*
G01X-3501392Y134161D01*
G01X-3502169Y144593D01*
G01X-3504483Y154795D01*
G01X-3488759Y158895D01*
G01X-3474180Y166072D01*
G01X-3462468Y175160D01*
G01X-3309717Y175160D01*
G01X-3307914Y161465D01*
G01X-3302628Y148703D01*
G01X-3294219Y137745D01*
G01X-3283260Y129336D01*
G01X-3270498Y124049D01*
G01X-3256803Y122246D01*
G01X-3243108Y124049D01*
G01X-3230346Y129336D01*
G01X-3219387Y137745D01*
G01X-3210978Y148703D01*
G01X-3205692Y161465D01*
G01X-3203889Y175160D01*
G01X-3205692Y188856D01*
G01X-3210978Y201617D01*
G01X-3219387Y212576D01*
G01X-3230346Y220985D01*
G01X-3243108Y226271D01*
G01X-3256803Y228074D01*
G01X-3270498Y226271D01*
G01X-3283260Y220985D01*
G01X-3294219Y212576D01*
G01X-3302628Y201617D01*
G01X-3307914Y188856D01*
G01X-3309717Y175160D01*
G01X-3309717Y175160D01*
G01X-3462468Y175160D01*
G01X-3461342Y176034D01*
G01X-3450769Y188373D01*
G01X-3442892Y202586D01*
G01X-3438033Y218093D01*
G01X-3436392Y234259D01*
G01X-3436392Y324961D01*
G01X-3391019Y324961D01*
G01X-3389216Y311266D01*
G01X-3383930Y298504D01*
G01X-3375521Y287545D01*
G01X-3364562Y279136D01*
G01X-3351800Y273850D01*
G01X-3338105Y272047D01*
G01X-3324410Y273850D01*
G01X-3314266Y278052D01*
G01X-2362758Y278052D01*
G01X-2361023Y264296D01*
G01X-2355774Y251463D01*
G01X-2347372Y240433D01*
G01X-2336393Y231966D01*
G01X-2323591Y226641D01*
G01X-2309845Y224824D01*
G01X-2296100Y226641D01*
G01X-2283298Y231966D01*
G01X-2272319Y240433D01*
G01X-2263916Y251463D01*
G01X-2258667Y264296D01*
G01X-2256932Y278052D01*
G01X-2258830Y291787D01*
G01X-2264231Y304557D01*
G01X-2272764Y315486D01*
G01X-2283843Y323822D01*
G01X-2273522Y331429D01*
G01X-2265334Y341295D01*
G01X-2259759Y352840D01*
G01X-2257656Y362856D01*
G01X-2177924Y362856D01*
G01X-2176065Y348953D01*
G01X-2170618Y336027D01*
G01X-2161966Y324986D01*
G01X-2150717Y316606D01*
G01X-2150717Y316606D01*
G01X-2161873Y308317D01*
G01X-2170486Y297409D01*
G01X-2175961Y284634D01*
G01X-2177921Y270874D01*
G01X-2176231Y257078D01*
G01X-2171006Y244199D01*
G01X-2162608Y233124D01*
G01X-2151616Y224618D01*
G01X-2138788Y219268D01*
G01X-2125010Y217443D01*
G01X-2111231Y219268D01*
G01X-2098404Y224618D01*
G01X-2087411Y233124D01*
G01X-2079013Y244199D01*
G01X-2073789Y257078D01*
G01X-2072098Y270874D01*
G01X-2074058Y284634D01*
G01X-2079534Y297409D01*
G01X-2088146Y308317D01*
G01X-2099303Y316606D01*
G01X-2088054Y324986D01*
G01X-2079402Y336027D01*
G01X-2073955Y348953D01*
G01X-2072096Y362856D01*
G01X-2073955Y376760D01*
G01X-2079402Y389686D01*
G01X-2088054Y400727D01*
G01X-2099303Y409106D01*
G01X-2088147Y417396D01*
G01X-2079534Y428304D01*
G01X-2074058Y441079D01*
G01X-2072098Y454839D01*
G01X-2073789Y468634D01*
G01X-2079013Y481514D01*
G01X-2087411Y492589D01*
G01X-2098403Y501095D01*
G01X-2111231Y506445D01*
G01X-2125010Y508270D01*
G01X-2138788Y506445D01*
G01X-2151616Y501095D01*
G01X-2162608Y492589D01*
G01X-2171006Y481514D01*
G01X-2176231Y468634D01*
G01X-2177921Y454839D01*
G01X-2175961Y441079D01*
G01X-2170486Y428304D01*
G01X-2161873Y417396D01*
G01X-2150716Y409106D01*
G01X-2161965Y400727D01*
G01X-2170617Y389686D01*
G01X-2176065Y376760D01*
G01X-2177924Y362856D01*
G01X-2257656Y362856D01*
G01X-2257125Y365387D01*
G01X-2257585Y378200D01*
G01X-2261114Y390526D01*
G01X-2267504Y401641D01*
G01X-2276379Y410893D01*
G01X-2266568Y421434D01*
G01X-2259962Y434229D01*
G01X-2257050Y448332D01*
G01X-2258049Y462697D01*
G01X-2262883Y476261D01*
G01X-2271195Y488020D01*
G01X-2282370Y497102D01*
G01X-2295579Y502835D01*
G01X-2309845Y504794D01*
G01X-2324111Y502835D01*
G01X-2337321Y497102D01*
G01X-2348495Y488020D01*
G01X-2356808Y476261D01*
G01X-2361642Y462697D01*
G01X-2362640Y448332D01*
G01X-2359729Y434229D01*
G01X-2353123Y421434D01*
G01X-2343312Y410893D01*
G01X-2352187Y401641D01*
G01X-2358577Y390526D01*
G01X-2362105Y378200D01*
G01X-2362566Y365387D01*
G01X-2359931Y352840D01*
G01X-2354356Y341295D01*
G01X-2346168Y331429D01*
G01X-2335848Y323822D01*
G01X-2335848Y323822D01*
G01X-2346927Y315486D01*
G01X-2355459Y304557D01*
G01X-2360860Y291787D01*
G01X-2362758Y278052D01*
G01X-3314266Y278052D01*
G01X-3311648Y279136D01*
G01X-3300689Y287545D01*
G01X-3292280Y298504D01*
G01X-3286994Y311266D01*
G01X-3285191Y324961D01*
G01X-3286994Y338656D01*
G01X-3292280Y351418D01*
G01X-3300689Y362377D01*
G01X-3311648Y370786D01*
G01X-3324410Y376072D01*
G01X-3338105Y377875D01*
G01X-3351800Y376072D01*
G01X-3364562Y370786D01*
G01X-3375521Y362377D01*
G01X-3383930Y351418D01*
G01X-3389216Y338656D01*
G01X-3391019Y324961D01*
G01X-3391019Y324961D01*
G01X-3436392Y324961D01*
G01X-3436392Y384259D01*
G01X-3437338Y396559D01*
G01X-3424453Y390135D01*
G01X-3410313Y387422D01*
G01X-3395965Y388621D01*
G01X-3382472Y393643D01*
G01X-3370832Y402117D01*
G01X-3361908Y413414D01*
G01X-3356359Y426700D01*
G01X-3351479Y413681D01*
G01X-3343377Y402383D01*
G01X-3332612Y393585D01*
G01X-3319927Y387894D01*
G01X-3306198Y385705D01*
G01X-3292372Y387166D01*
G01X-3279404Y392179D01*
G01X-3268189Y400396D01*
G01X-3259502Y411251D01*
G01X-3253942Y423993D01*
G01X-3251893Y437744D01*
G01X-3253496Y451555D01*
G01X-3258641Y464470D01*
G01X-3266973Y475600D01*
G01X-3277916Y484176D01*
G01X-3290715Y489605D01*
G01X-3304487Y491513D01*
G01X-3318280Y489768D01*
G01X-3331142Y484491D01*
G01X-3342186Y476046D01*
G01X-3350649Y465016D01*
G01X-3355947Y452162D01*
G01X-3360806Y465143D01*
G01X-3368871Y476418D01*
G01X-3379587Y485211D01*
G01X-3392218Y490919D01*
G01X-3405899Y493151D01*
G01X-3419690Y491753D01*
G01X-3432645Y486822D01*
G01X-3443874Y478696D01*
G01X-3452608Y467932D01*
G01X-3458247Y455269D01*
G01X-3460403Y441576D01*
G01X-3472803Y451566D01*
G01X-3486929Y458917D01*
G01X-3502226Y463341D01*
G01X-3501397Y473248D01*
G01X-3496337Y565226D01*
G01X-3497295Y573160D01*
G01X-3339322Y573160D01*
G01X-3337519Y559465D01*
G01X-3332233Y546703D01*
G01X-3323824Y535744D01*
G01X-3312865Y527335D01*
G01X-3300103Y522049D01*
G01X-3286408Y520246D01*
G01X-3272713Y522049D01*
G01X-3259951Y527335D01*
G01X-3248992Y535744D01*
G01X-3240583Y546703D01*
G01X-3235297Y559465D01*
G01X-3233494Y573160D01*
G01X-3235297Y586855D01*
G01X-3240583Y599617D01*
G01X-3248992Y610576D01*
G01X-3259951Y618985D01*
G01X-3272713Y624271D01*
G01X-3286408Y626074D01*
G01X-3300103Y624271D01*
G01X-3312865Y618985D01*
G01X-3323824Y610576D01*
G01X-3332233Y599617D01*
G01X-3337519Y586855D01*
G01X-3339322Y573160D01*
G01X-3339322Y573160D01*
G01X-3497295Y573160D01*
G01X-3497608Y575752D01*
G01X-3498268Y588530D01*
G01X-3500825Y601066D01*
G01X-3505223Y613081D01*
G01X-3489983Y616221D01*
G01X-3475506Y621927D01*
G01X-3462222Y630031D01*
G01X-3450525Y640293D01*
G01X-3440760Y652408D01*
G01X-3429417Y643361D01*
G01X-3416043Y637735D01*
G01X-3401643Y635953D01*
G01X-3387301Y638149D01*
G01X-3374094Y644158D01*
G01X-3363016Y653529D01*
G01X-3354900Y665556D01*
G01X-3350356Y679335D01*
G01X-3349725Y693831D01*
G01X-3353056Y707953D01*
G01X-3360097Y720640D01*
G01X-3370319Y730937D01*
G01X-3382954Y738070D01*
G01X-3397051Y741504D01*
G01X-3411551Y740979D01*
G01X-3425364Y736535D01*
G01X-3425364Y759549D01*
G01X-3338935Y759549D01*
G01X-3338805Y745783D01*
G01X-3335129Y732516D01*
G01X-3328154Y720647D01*
G01X-3318355Y710978D01*
G01X-3306392Y704165D01*
G01X-3293077Y700668D01*
G01X-3279311Y700724D01*
G01X-3266025Y704329D01*
G01X-3254118Y711240D01*
G01X-3244397Y720988D01*
G01X-3244121Y707224D01*
G01X-3240303Y693998D01*
G01X-3233202Y682204D01*
G01X-3223299Y672641D01*
G01X-3211265Y665955D01*
G01X-3197913Y662601D01*
G01X-3184148Y662804D01*
G01X-3170901Y666552D01*
G01X-3159069Y673589D01*
G01X-3157535Y675161D01*
G01X-2120019Y675161D01*
G01X-2118216Y661466D01*
G01X-2112929Y648704D01*
G01X-2104520Y637745D01*
G01X-2093562Y629336D01*
G01X-2080800Y624050D01*
G01X-2067105Y622247D01*
G01X-2053409Y624050D01*
G01X-2040648Y629336D01*
G01X-2035728Y633112D01*
G01X-1962204Y633112D01*
G01X-1960401Y619416D01*
G01X-1955114Y606654D01*
G01X-1946705Y595696D01*
G01X-1935747Y587287D01*
G01X-1922985Y582000D01*
G01X-1909290Y580197D01*
G01X-1895594Y582000D01*
G01X-1882833Y587287D01*
G01X-1871874Y595696D01*
G01X-1863465Y606654D01*
G01X-1858179Y619416D01*
G01X-1856376Y633112D01*
G01X-1832206Y633112D01*
G01X-1830403Y619416D01*
G01X-1825117Y606654D01*
G01X-1816708Y595696D01*
G01X-1805749Y587287D01*
G01X-1792988Y582000D01*
G01X-1779292Y580197D01*
G01X-1765597Y582000D01*
G01X-1752835Y587287D01*
G01X-1741876Y595696D01*
G01X-1733467Y606654D01*
G01X-1728181Y619416D01*
G01X-1726378Y633112D01*
G01X-1728181Y646807D01*
G01X-1733467Y659569D01*
G01X-1741876Y670527D01*
G01X-1752835Y678936D01*
G01X-1765597Y684223D01*
G01X-1779292Y686026D01*
G01X-1792988Y684223D01*
G01X-1805749Y678936D01*
G01X-1816708Y670527D01*
G01X-1825117Y659569D01*
G01X-1830403Y646807D01*
G01X-1832206Y633112D01*
G01X-1832206Y633112D01*
G01X-1856376Y633112D01*
G01X-1858179Y646807D01*
G01X-1863465Y659569D01*
G01X-1871874Y670527D01*
G01X-1882833Y678936D01*
G01X-1895594Y684223D01*
G01X-1909290Y686026D01*
G01X-1922985Y684223D01*
G01X-1935747Y678936D01*
G01X-1946705Y670527D01*
G01X-1955114Y659569D01*
G01X-1960401Y646807D01*
G01X-1962204Y633112D01*
G01X-1962204Y633112D01*
G01X-2035728Y633112D01*
G01X-2029689Y637745D01*
G01X-2021280Y648704D01*
G01X-2015994Y661466D01*
G01X-2014191Y675161D01*
G01X-2015994Y688856D01*
G01X-2021280Y701618D01*
G01X-2029689Y712577D01*
G01X-2040648Y720986D01*
G01X-2053409Y726272D01*
G01X-2067105Y728075D01*
G01X-2080800Y726272D01*
G01X-2093562Y720986D01*
G01X-2104520Y712577D01*
G01X-2112929Y701618D01*
G01X-2118216Y688856D01*
G01X-2120019Y675161D01*
G01X-2120019Y675161D01*
G01X-3157535Y675161D01*
G01X-3149453Y683441D01*
G01X-3142704Y695439D01*
G01X-3142704Y695439D01*
G01X-3139278Y708773D01*
G01X-3139408Y722539D01*
G01X-3143084Y735805D01*
G01X-3150058Y747675D01*
G01X-3159858Y757343D01*
G01X-3171821Y764156D01*
G01X-3185136Y767653D01*
G01X-3198902Y767597D01*
G01X-3212188Y763992D01*
G01X-3224095Y757081D01*
G01X-3233815Y747333D01*
G01X-3234092Y761097D01*
G01X-3237910Y774324D01*
G01X-3245011Y786118D01*
G01X-3254914Y795681D01*
G01X-3266948Y802366D01*
G01X-3280300Y805720D01*
G01X-3294065Y805517D01*
G01X-3307312Y801770D01*
G01X-3319144Y794732D01*
G01X-3328760Y784881D01*
G01X-3335509Y772882D01*
G01X-3338935Y759549D01*
G01X-3425364Y759549D01*
G01X-3425364Y828860D01*
G01X-3249819Y828860D01*
G01X-3248016Y815165D01*
G01X-3242730Y802403D01*
G01X-3234321Y791445D01*
G01X-3223362Y783036D01*
G01X-3210600Y777749D01*
G01X-3196905Y775946D01*
G01X-3183210Y777749D01*
G01X-3170448Y783036D01*
G01X-3159489Y791445D01*
G01X-3151080Y802403D01*
G01X-3145794Y815165D01*
G01X-3143991Y828860D01*
G01X-3145794Y842556D01*
G01X-3151080Y855317D01*
G01X-3159489Y866276D01*
G01X-3169505Y873962D01*
G01X-2520419Y873962D01*
G01X-2518616Y860267D01*
G01X-2513330Y847505D01*
G01X-2504921Y836546D01*
G01X-2493962Y828137D01*
G01X-2481201Y822851D01*
G01X-2467505Y821048D01*
G01X-2453810Y822851D01*
G01X-2441048Y828137D01*
G01X-2430089Y836546D01*
G01X-2423325Y845362D01*
G01X-2184719Y845362D01*
G01X-2183014Y832037D01*
G01X-2178008Y819571D01*
G01X-2170024Y808767D01*
G01X-2159578Y800322D01*
G01X-2147341Y794780D01*
G01X-2134103Y792497D01*
G01X-2120716Y793622D01*
G01X-2108045Y798082D01*
G01X-2096905Y805589D01*
G01X-2085764Y798082D01*
G01X-2073093Y793622D01*
G01X-2059707Y792497D01*
G01X-2046468Y794780D01*
G01X-2034232Y800322D01*
G01X-2023785Y808767D01*
G01X-2015801Y819571D01*
G01X-2010796Y832037D01*
G01X-2009090Y845362D01*
G01X-2010796Y858686D01*
G01X-2015801Y871152D01*
G01X-2023785Y881956D01*
G01X-2034232Y890401D01*
G01X-2046468Y895943D01*
G01X-2059707Y898226D01*
G01X-2073093Y897101D01*
G01X-2085764Y892641D01*
G01X-2096905Y885134D01*
G01X-2108045Y892641D01*
G01X-2120716Y897101D01*
G01X-2134103Y898226D01*
G01X-2147341Y895943D01*
G01X-2159578Y890401D01*
G01X-2170024Y881956D01*
G01X-2178008Y871152D01*
G01X-2183014Y858686D01*
G01X-2184719Y845362D01*
G01X-2184719Y845362D01*
G01X-2423325Y845362D01*
G01X-2421680Y847505D01*
G01X-2416394Y860267D01*
G01X-2414591Y873962D01*
G01X-2416394Y887657D01*
G01X-2421680Y900419D01*
G01X-2430089Y911378D01*
G01X-2441048Y919787D01*
G01X-2453810Y925073D01*
G01X-2467505Y926876D01*
G01X-2481201Y925073D01*
G01X-2493962Y919787D01*
G01X-2504921Y911378D01*
G01X-2513330Y900419D01*
G01X-2518616Y887657D01*
G01X-2520419Y873962D01*
G01X-2520419Y873962D01*
G01X-3169505Y873962D01*
G01X-3170448Y874685D01*
G01X-3183210Y879971D01*
G01X-3196905Y881774D01*
G01X-3210600Y879971D01*
G01X-3223362Y874685D01*
G01X-3234321Y866276D01*
G01X-3242730Y855317D01*
G01X-3248016Y842556D01*
G01X-3249819Y828860D01*
G01X-3249819Y828860D01*
G01X-3425364Y828860D01*
G01X-3425364Y882877D01*
G01X-3427101Y900516D01*
G01X-3432246Y917477D01*
G01X-3440601Y933108D01*
G01X-3451845Y946809D01*
G01X-3462510Y955561D01*
G01X-3358419Y955561D01*
G01X-3356616Y941866D01*
G01X-3351330Y929104D01*
G01X-3342921Y918146D01*
G01X-3331962Y909737D01*
G01X-3319200Y904450D01*
G01X-3305505Y902647D01*
G01X-3291810Y904450D01*
G01X-3279048Y909737D01*
G01X-3268089Y918146D01*
G01X-3259680Y929104D01*
G01X-3254394Y941866D01*
G01X-3252591Y955561D01*
G01X-3254394Y969257D01*
G01X-3259680Y982018D01*
G01X-3268089Y992977D01*
G01X-3279048Y1001386D01*
G01X-3291810Y1006673D01*
G01X-3305505Y1008476D01*
G01X-3319200Y1006673D01*
G01X-3331962Y1001386D01*
G01X-3342921Y992977D01*
G01X-3351330Y982018D01*
G01X-3356616Y969257D01*
G01X-3358419Y955561D01*
G01X-3358419Y955561D01*
G01X-3462510Y955561D01*
G01X-3465546Y958053D01*
G01X-3481178Y966409D01*
G01X-3498139Y971554D01*
G01X-3515778Y973291D01*
G37*
G54D10*
G01X-3515778Y973291D02*
G01X-3565635Y973291D01*
G03X-3562856Y992876I-67635J19585D01*
G01X-3562857Y1052882D01*
G03X-3581977Y1081120I-30414J-0D01*
G03X-3633271Y1103295I-51295J-48239D01*
G01X-3773324Y1103291D01*
G02X-3782856Y1112876I54J9586D01*
G01X-3781856Y1352875D01*
G02X-3772270Y1362462I9586J1D01*
G03X-3762767Y1363985I0J30414D01*
G01X-3627660Y1363959D01*
G03X-3621308Y1364629I6J30414D01*
G03X-3557901Y1432267I2090J61580D01*
G02X-3553905Y1433959I8037J-13412D01*
G01X-3540886Y1433322D01*
G03X-3531375Y1434364I1486J30378D01*
G01X-3482597Y1434364D01*
G03X-3474216Y1435541I0J30414D01*
G03X-3408949Y1502196I-5055J70232D01*
G01X-3407610Y1508606D01*
G03X-3407161Y1511450I-28528J5958D01*
G02X-3388903Y1529976I20796J-2235D01*
G01X-3379887Y1529551D01*
G03X-3372147Y1530178I1432J30380D01*
G01X-2902969Y1531351D01*
G03X-2829411Y1566235I16960J59235D01*
G03X-2825775Y1577615I-26589J14765D01*
G03X-2825008Y1599265I-60234J12972D01*
G02X-2806482Y1614550I22437J-8325D01*
G03X-2791579Y1610649I14903J26513D01*
G01X-1492550Y1610649D01*
G03X-1482572Y1612332I0J30414D01*
G02X-1457427Y1593719I993J-24949D01*
G01X-1456710Y1591375D01*
G01X-1456710Y1520353D01*
G03X-1407968Y1433681I87999J-7553D01*
G03X-1386537Y1424775I21504J21508D01*
G01X-1374354Y1424746D01*
G01X-1372949Y1424775D01*
G01X-1213101Y1424775D01*
G01X-1211388Y1424751D01*
G01X-1209606Y1424775D01*
G02X-1174474Y1355589I-177J-43603D01*
G01X-1382587Y1152308D01*
G01X-1382830Y1152067D01*
G03X-1382830Y889145I131461J-131461D01*
G01X-1377730Y884045D01*
G03X-1114808Y884045I131461J131461D01*
G01X-1114568Y884289D01*
G01X-900003Y1103953D01*
G03X-894322Y1112084I-21757J21252D01*
G02X-842431Y1092765I18915J-28545D01*
G03X-781783Y1023079I60648J-8452D01*
G01X-556763Y1024770D01*
G03X-551620Y1025267I-219J29143D01*
G02X-520805Y999989I4789J-25583D01*
G01X-520864Y997637D01*
G03X-520804Y994831I30405J-755D01*
G01X-520872Y44111D01*
G03X-522219Y35154I29067J-8950D01*
G01X-522074Y-723845D01*
G01X-523850Y-724414D01*
G03X-588377Y-805686I-2645J-64152D01*
G01X-588377Y-1239758D01*
G02X-600033Y-1254323I-21680J5403D01*
G01X-805574Y-1254323D01*
G03X-814052Y-1255528I0J-30414D01*
G02X-847843Y-1246455I-3865J53070D01*
G03X-850593Y-1243297I-24259J-18345D01*
G01X-1130198Y-963615D01*
G03X-1393005Y-963499I-131461J-131461D01*
G03X-1392888Y-1226767I129009J-131576D01*
G01X-1174702Y-1444955D01*
G02X-1210973Y-1514437I-35081J-25895D01*
G01X-1211769Y-1514426D01*
G01X-1841400Y-1514426D01*
G03X-1788892Y-1432342I-37906J82084D01*
G01X-1788892Y-1372342D01*
G03X-1969720Y-1372342I-90414J0D01*
G01X-1969720Y-1432342D01*
G03X-1917212Y-1514426I90414J0D01*
G01X-2706397Y-1514427D01*
G03X-2653889Y-1432342I-37906J82084D01*
G01X-2653889Y-1372342D01*
G03X-2834717Y-1372342I-90414J0D01*
G01X-2834717Y-1432342D01*
G03X-2782209Y-1514427I90414J0D01*
G01X-3411843Y-1514427D01*
G01X-3412638Y-1514437D01*
G02X-3448349Y-1444216I-1189J43587D01*
G01X-3240780Y-1236647D01*
G03X-3240780Y-973725I-131461J131461D01*
G03X-3503702Y-973725I-131461J-131461D01*
G01X-3711915Y-1181938D01*
G02X-3781403Y-1145670I-25901J35076D01*
G01X-3781392Y-1144874D01*
G01X-3781391Y-764839D01*
G02X-3731805Y-715253I49586J0D01*
G01X-3591805Y-715253D01*
G03X-3501392Y-624839I-0J90414D01*
G03X-3501827Y-619709I-30414J0D01*
G01X-3501828Y-589172D01*
G03X-3501392Y-584039I-29978J5133D01*
G01X-3501392Y-574039D01*
G03X-3504483Y-553403I-70414J0D01*
G03X-3436392Y-473939I-12322J79464D01*
G01X-3436392Y-323939D01*
G03X-3502226Y-244858I-80414J0D01*
G03X-3501391Y-234044I-69579J10814D01*
G01X-3501388Y-230077D01*
G03X-3502844Y-199033I-72540J12154D01*
G03X-3436392Y-119840I-13961J79193D01*
G01X-3436392Y30160D01*
G03X-3503174Y109410I-80414J0D01*
G03X-3501391Y125156I-68631J15745D01*
G01X-3501392Y134161D01*
G03X-3504483Y154795I-70414J0D01*
G03X-3436392Y234259I-12323J79464D01*
G01X-3436392Y384259D01*
G03X-3437338Y396559I-80414J0D01*
G03X-3356359Y426700I29832J43703D01*
G03X-3251893Y437744I51558J11900D01*
G03X-3355947Y452162I-52907J856D01*
G03X-3460403Y441576I-51558J-11900D01*
G03X-3502226Y463341I-56403J-57316D01*
G03X-3501397Y473248I-69578J10814D01*
G01X-3496337Y565226D01*
G03X-3497608Y575752I-30368J1670D01*
G03X-3505223Y613081I-85556J1989D01*
G03X-3440760Y652408I-10554J89796D01*
G03X-3350356Y679335I38355J36453D01*
G03X-3425364Y736535I-52050J9526D01*
G01X-3425364Y882877D01*
G03X-3515778Y973291I-90414J0D01*
G01X-3480820Y-602672D02*
G03X-3374992Y-602672I52914J0D01*
G03X-3480820Y-602672I-52914J0D01*
G01X-3391019Y324961D02*
G03X-3285191Y324961I52914J0D01*
G03X-3391019Y324961I-52914J0D01*
G01X-3358419Y955561D02*
G03X-3252591Y955561I52914J0D01*
G03X-3358419Y955561I-52914J0D01*
G01X-3339322Y573160D02*
G03X-3233494Y573160I52914J0D01*
G03X-3339322Y573160I-52914J0D01*
G01X-3142704Y695439D02*
G03X-3233815Y747333I-49101J19722D01*
G03X-3335509Y772882I-52592J5827D01*
G03X-3244397Y720988I49101J-19722D01*
G03X-3142704Y695439I52592J-5827D01*
G01X-3334821Y-638840D02*
G03X-3228993Y-638840I52914J0D01*
G03X-3334821Y-638840I-52914J0D01*
G01X-3309717Y175160D02*
G03X-3203889Y175160I52914J0D01*
G03X-3309717Y175160I-52914J0D01*
G01X-3274499Y1261550D02*
G03X-3168671Y1261550I52914J0D01*
G03X-3274499Y1261550I-52914J0D01*
G01X-3249819Y828860D02*
G03X-3143991Y828860I52914J0D01*
G03X-3249819Y828860I-52914J0D01*
G01X-3243601Y1447400D02*
G03X-3117775Y1447400I62913J0D01*
G03X-3243601Y1447400I-62913J0D01*
G01X-3169819Y-659739D02*
G03X-3063991Y-659739I52914J0D01*
G03X-3169819Y-659739I-52914J0D01*
G01X-3086728Y1247644D02*
G03X-2980900Y1247644I52914J0D01*
G03X-3086728Y1247644I-52914J0D01*
G01X-3073599Y1447400D02*
G03X-2947773Y1447400I62913J0D01*
G03X-3073599Y1447400I-62913J0D01*
G01X-3056437Y-1044707D02*
G03X-2950609Y-1044707I52914J0D01*
G03X-3056437Y-1044707I-52914J0D01*
G01X-2989977Y-543511D02*
G03X-2906149Y-522333I34440J40171D01*
G03X-2838513Y-553007I49388J18994D01*
G03X-2806825Y-485840I-18248J49668D01*
G03X-2802644Y-388331I-18348J49631D01*
G03X-2875110Y-453708I-22529J-47878D01*
G03X-2906149Y-484345I18348J-49631D01*
G03X-2931101Y-456405I-49388J-18994D01*
G03X-2958484Y-357595I-26313J45908D01*
G03X-2981850Y-457432I1070J-52903D01*
G03X-2989977Y-543511I26313J-45908D01*
G01X-2958337Y-1239539D02*
G03X-2852509Y-1239539I52914J0D01*
G03X-2958337Y-1239539I-52914J0D01*
G01X-2868114Y1259700D02*
G03X-2762286Y1259700I52914J0D01*
G03X-2868114Y1259700I-52914J0D01*
G01X-2658889Y-937328D02*
G03X-2829717Y-937328I-85414J0D01*
G01X-2829717Y-1027328D01*
G03X-2663174Y-1054040I85414J0D01*
G03X-2535619Y-1039959I62381J19693D01*
G03X-2658889Y-1004281I-65174J5612D01*
G01X-2658889Y-937328D01*
G01X-2724781Y-321132D02*
G03X-2671048Y-414630I204464J55317D01*
G03X-2710499Y-443742I8117J-52288D01*
G03X-2763523Y-521484I-6512J-52512D01*
G03X-2669443Y-519429I46512J25230D01*
G03X-2610901Y-457283I6512J52512D01*
G03X-2593955Y-464418I90585J191468D01*
G02X-2556913Y-532328I-20477J-55227D01*
G03X-2589739Y-801149I1386389J-305710D01*
G03X-2552502Y-890948I37935J-36890D01*
G03X-2512911Y-802161I697J52909D01*
G02X-2481887Y-548872I1342388J-35877D01*
G03X-2567245Y-392382I-132544J29227D01*
G02X-2640709Y-326867I46929J126567D01*
G03X-2572031Y-274117I15812J50496D01*
G03X-2551857Y-180457I-11884J51562D01*
G03X-2636781Y-224808I-32058J-42097D01*
G03X-2664825Y-241648I11884J-51562D01*
G02X-2680518Y80007I1012248J210597D01*
G03X-2675205Y76874I29493J43933D01*
G03X-2648335Y21239I52120J-9134D01*
G03X-2631299Y-30468I51615J-11655D01*
G03X-2624431Y-132514I16996J-50110D01*
G03X-2579724Y-40526I10128J51936D01*
G03X-2571471Y56085I-16996J50110D01*
G03X-2598906Y114806I-51615J11655D01*
G03X-2626666Y170914I-52120J9134D01*
G03X-2625745Y256824I-30434J43286D01*
G03X-2707484Y230365I-31355J-42624D01*
G03X-2745912Y164876I69576J-84843D01*
G03X-2724781Y-321132I1093334J-195927D01*
G01X-2072877Y1454070D02*
G02X-1961368Y1456035I66118J-587054D01*
G02X-1930529Y1422824I-2567J-33307D01*
G01X-1930520Y1419584D01*
G03X-1962218Y1381761I6715J-37822D01*
G01X-1962218Y1247761D01*
G03X-1923804Y1209347I38414J0D01*
G01X-1919734Y1209347D01*
G03X-1827495Y999484I524701J105414D01*
G03X-1742209Y952853I52682J-4955D01*
G03X-1766944Y1046855I-32604J41676D01*
G02X-1842103Y1213669I371911J267907D01*
G03X-1831985Y1221271I-17701J34093D01*
G03X-1803804Y1208962I28181J26105D01*
G01X-1739804Y1208962D01*
G03X-1701390Y1247376I0J38414D01*
G01X-1701390Y1381376D01*
G03X-1734353Y1419402I-38414J0D01*
G03X-1736420Y1500685I-5729570J-105027D01*
G03X-1839865Y1604130I-106924J-3478D01*
G03X-2076966Y1604130I-118550J-3644390D01*
G03X-2483506Y1429938I19766J-607629D01*
G03X-2531380Y1392970I2601J-52850D01*
G03X-2513301Y1335249I50474J-15882D01*
G03X-2611277Y1253172I686009J-918404D01*
G03X-2648733Y1163465I569J-52911D01*
G03X-2557844Y1197955I38025J36796D01*
G02X-2138774Y1439986I730551J-781109D01*
G03X-2072877Y1454070I24420J46942D01*
G01X-2522476Y-3074D02*
G01X-2482171Y-43379D01*
G03X-2432376Y-52402I31406J31406D01*
G01X-2432376Y-72054D01*
G03X-2446789Y-81683I16993J-41035D01*
G01X-2487094Y-121988D01*
G03X-2463976Y-197028I31406J-31406D01*
G03X-2457171Y-213564I43634J8288D01*
G02X-2464403Y-222637I-85829J60991D01*
G03X-2509744Y-308423I-3997J-52763D01*
G03X-2416058Y-283163I41344J33023D01*
G03X-2400338Y-265778I-126942J130589D01*
G03X-2353572Y-255510I15361J41674D01*
G01X-2313266Y-215205D01*
G01X-2311805Y-213673D01*
G01X-2310344Y-215205D01*
G01X-2270039Y-255510D01*
G03X-2256113Y-264935I31406J31406D01*
G03X-2178634Y-312066I52913J-265D01*
G03X-2173315Y-221533I-24566J46866D01*
G03X-2159635Y-197028I-29954J32793D01*
G03X-2124286Y-161667I-8288J43634D01*
G03X-2101153Y-86624I-8273J43637D01*
G01X-2141458Y-46319D01*
G01X-2142991Y-44857D01*
G01X-2141440Y-43379D01*
G01X-2101135Y-3074D01*
G03X-2093694Y6802I-31406J31406D01*
G02X-2009119Y37188I106833J-164454D01*
G03X-1922912Y61651I35419J39312D01*
G03X-1982362Y128700I-50788J14849D01*
G03X-2018183Y172604I-52538J-6300D01*
G03X-2073173Y158939I-16717J-50204D01*
G03X-2084655Y156288I26774J-142146D01*
G03X-2186972Y165009I-52245J-8388D01*
G03X-2199940Y156244I128635J-204309D01*
G03X-2270021Y165813I-38675J-21837D01*
G01X-2310326Y125507D01*
G01X-2311805Y123955D01*
G01X-2313284Y125507D01*
G01X-2353590Y165813D01*
G03X-2428633Y142680I-31406J-31406D01*
G03X-2463994Y107331I8273J-43637D01*
G03X-2499343Y71969I8288J-43634D01*
G03X-2522476Y-3074I8273J-43637D01*
G01X-2520419Y873962D02*
G03X-2414591Y873962I52914J0D01*
G03X-2520419Y873962I-52914J0D01*
G01X-2390950Y-1039538D02*
G03X-2302353Y-1079524I52906J-921D01*
G03X-2212418Y-1042646I37029J37798D01*
G03X-2301015Y-1002661I-52906J921D01*
G03X-2390950Y-1039538I-37029J-37798D01*
G01X-2335848Y323822D02*
G03X-2309845Y224824I26002J-46084D01*
G03X-2283843Y323822I0J52914D01*
G03X-2276379Y410893I-26002J46084D01*
G03X-2309845Y504794I-33466J40987D01*
G03X-2343312Y410893I0J-52914D01*
G03X-2335848Y323822I33466J-40987D01*
G01X-2184719Y845362D02*
G03X-2096905Y805589I52914J0D01*
G03X-2009090Y845362I34900J39773D01*
G03X-2096905Y885134I-52914J0D01*
G03X-2184719Y845362I-34900J-39773D01*
G01X-2150717Y316606D02*
G03X-2125010Y217443I25707J-46250D01*
G03X-2099303Y316606I0J52914D01*
G03X-2099303Y409106I-25707J46250D01*
G03X-2125010Y508270I-25707J46250D01*
G03X-2150716Y409106I0J-52914D01*
G03X-2150717Y316606I25707J-46250D01*
G01X-2124120Y-501176D02*
G03X-2018292Y-501176I52914J0D01*
G03X-2124120Y-501176I-52914J0D01*
G01X-2120019Y675161D02*
G03X-2014191Y675161I52914J0D01*
G03X-2120019Y675161I-52914J0D01*
G01X-1793892Y-937328D02*
G03X-1964720Y-937328I-85414J0D01*
G01X-1964720Y-1004232D01*
G03X-2087964Y-1039966I-58071J-30115D01*
G03X-1960423Y-1054079I65173J5619D01*
G03X-1793938Y-1030119I81116J26752D01*
G03X-1700706Y-995886I40318J34269D01*
G03X-1793892Y-961528I-52914J35D01*
G01X-1793892Y-937328D01*
G01X-1962204Y633112D02*
G03X-1856376Y633112I52914J0D01*
G03X-1962204Y633112I-52914J0D01*
G01X-1563776Y-829462D02*
G03X-1510451Y-794359I3459J52801D01*
G03X-1461804Y-788427I18646J49520D01*
G03X-1378890Y-744840I30000J43588D01*
G03X-1461804Y-701252I-52914J0D01*
G03X-1541671Y-727141I-30000J-43588D01*
G03X-1557323Y-723832I-18646J-49520D01*
G03X-1606077Y-682044I-51749J-11042D01*
G03X-1707654Y-675279I-51749J-11041D01*
G03X-1781801Y-660897I-44131J-29195D01*
G03X-1845317Y-663514I-30016J-43577D01*
G03X-1931731Y-704474I-33500J-40959D01*
G03X-1845317Y-745433I52914J0D01*
G03X-1781801Y-748050I33500J40959D01*
G03X-1701957Y-722280I30016J43577D01*
G03X-1660821Y-745915I44131J29195D01*
G03X-1612066Y-787703I51749J11041D01*
G03X-1563776Y-829462I51749J11042D01*
G01X-1680207Y190892D02*
G03X-1740329Y189778I-29254J-44092D01*
G03X-1802064Y189778I-30868J-42978D01*
G03X-1885846Y146800I-30868J-42978D01*
G03X-1802064Y103822I52914J0D01*
G03X-1740329Y103822I30868J42978D01*
G03X-1677186Y104869I30868J42978D01*
G03X-1604086Y107501I35174J39531D01*
G03X-1603463Y180646I-37926J36898D01*
G02X-1518820Y1047210I4849272J-36245D01*
G03X-1541291Y1141790I-31580J42457D01*
G03X-1594508Y1060437I-9109J-52124D01*
G03X-1680207Y190892I4840317J-916035D01*
G01X-1832206Y633112D02*
G03X-1726378Y633112I52914J0D01*
G03X-1832206Y633112I-52914J0D01*
G01X-1508877Y525224D02*
G03X-1487335Y180561I518095J-140623D01*
G03X-1456966Y133379I143347J58903D01*
G03X-1364120Y105540I52523J6424D01*
G03X-1406582Y192674I-40323J34263D01*
G02X-1416273Y209761I62594J46790D01*
G02X-1434732Y505099I425491J174839D01*
G03X-1414346Y588976I-1564838J424733D01*
G03X-1336472Y625641I25824J46185D01*
G03X-1396326Y687497I-52051J9520D01*
G03X-1390691Y728275I-1603243J242336D01*
G03X-1392525Y824860I-22521J47882D01*
G03X-1463307Y759119I-20687J-48703D01*
G03X-1466144Y744144I110615J-28714D01*
G02X-1508877Y525224I-1533425J185689D01*
G01X-1432218Y-876590D02*
G03X-1326390Y-876590I52914J0D01*
G03X-1432218Y-876590I-52914J0D01*
G01X-1097160Y-140579D02*
G02X-1143926Y-170840I-42575J14529D01*
G03X-1187726Y-167854I-81013J-865655D01*
G03X-1207240Y-155605I-37213J-37617D01*
G03X-1185541Y-126423I-29027J44242D01*
G03X-1187800Y-90129I-50726J15060D01*
G03X-1163514Y-9556I-18577J49546D01*
G03X-1181817Y87119I-28296J44713D01*
G03X-1234673Y4130I-9993J-51962D01*
G03X-1254844Y-61817I28296J-44713D01*
G03X-1280149Y-81796I18577J-49546D01*
G03X-1348917Y-174525I43883J-104407D01*
G03X-1296173Y-659770I1156002J-119836D01*
G03X-1170770Y-771973I160444J53141D01*
G03X-1166271Y-772651I7964J37579D01*
G02X-868332Y-807704I-505531J-5580531D01*
G03X-774361Y-782797I41629J32664D01*
G03X-857069Y-731706I-52342J7757D01*
G03X-1156869Y-696360I-814734J-5621476D01*
G02X-1223241Y-635614I21140J89731D01*
G02X-1227271Y-623197I1030327J341253D01*
G03X-1181189Y-609723I9807J51997D01*
G02X-970576Y-614682I-36276J-6016376D01*
G02X-907012Y-619571I-36622J-891692D01*
G03X-823464Y-610879I21982J194577D01*
G03X-753630Y-569841I17664J49879D01*
G03X-806044Y-508087I-52170J8841D01*
G03X-830009Y-459508I-52749J4179D01*
G03X-884138Y-457458I-28784J-44400D01*
G03X-901783Y-383221I-44493J28641D01*
G03X-861310Y-319736I-11119J51733D01*
G03X-925285Y-280043I-51593J-11752D01*
G03X-1072120Y-227375I-255370J-480942D01*
G03X-1024449Y-165393I-67614J101326D01*
G01X-1024449Y-165393D01*
G03X-977213Y-23973I-10836305J3698061D01*
G01X-977213Y-23973D01*
G03X-874785Y-31033I52096J9267D01*
G03X-961854Y23377I-50332J16327D01*
G03X-911870Y182579I-10898901J3509291D01*
G02X-814340Y392246I801022J-245093D01*
G03X-777679Y502227I-195148J126150D01*
G02X-747417Y592943I191049J-13326D01*
G01X-747417Y540061D01*
G03X-714628Y502061I38414J0D01*
G03X-747417Y464061I5625J-38000D01*
G01X-747417Y400061D01*
G03X-709004Y361647I38414J0D01*
G01X-575004Y361647D01*
G03X-536590Y400061I0J38414D01*
G01X-536590Y464061D01*
G03X-569379Y502061I-38414J0D01*
G03X-536590Y540061I-5625J38000D01*
G01X-536590Y604061D01*
G03X-569379Y642061I-38414J0D01*
G03X-536590Y680061I-5625J38000D01*
G01X-536590Y744061D01*
G03X-575004Y782475I-38414J0D01*
G01X-709004Y782475D01*
G03X-747417Y744061I0J-38414D01*
G01X-747417Y703737D01*
G03X-854321Y507573I160788J-214836D01*
G02X-857602Y484860I-155167J10823D01*
G03X-956740Y492726I-51000J-14103D01*
G03X-885838Y422991I48138J-21969D01*
G03X-985336Y205058I774989J-485504D01*
G01X-985336Y205058D01*
G02X-1097160Y-140579I-10875418J3327610D01*
G01X-964859Y-125549D02*
G03X-859031Y-125549I52914J0D01*
G03X-964859Y-125549I-52914J0D01*
G01X-824387Y-1144335D02*
G03X-722862Y-1130003I48931J20142D01*
G03X-621123Y-1060662I43562J45392D01*
G03X-742194Y-1083040I-58177J-23948D01*
G03X-824387Y-1144335I-33262J-41152D01*
G01X-744904Y-179025D02*
G01X-744904Y-243025D01*
G03X-712115Y-281025I38414J0D01*
G03X-744904Y-319025I5625J-38000D01*
G01X-744904Y-383025D01*
G03X-712115Y-421025I38414J0D01*
G03X-744904Y-459025I5625J-38000D01*
G01X-744904Y-523025D01*
G03X-706490Y-561439I38414J0D01*
G01X-572490Y-561439D01*
G03X-534076Y-523025I0J38414D01*
G01X-534076Y-459025D01*
G03X-566865Y-421025I-38414J0D01*
G03X-534076Y-383025I-5625J38000D01*
G01X-534076Y-319025D01*
G03X-566865Y-281025I-38414J0D01*
G03X-534076Y-243025I-5625J38000D01*
G01X-534076Y-179025D01*
G03X-566866Y-141025I-38414J0D01*
G03X-534076Y-103025I-5624J38000D01*
G01X-534076Y-39024D01*
G03X-572490Y-610I-38414J0D01*
G01X-706490Y-610D01*
G03X-744904Y-39024I0J-38414D01*
G01X-744904Y-103025D01*
G03X-712114Y-141025I38414J0D01*
G03X-744904Y-179025I5624J-38000D01*
G01X-742213Y-914608D02*
G03X-616387Y-914608I62913J0D01*
G03X-742213Y-914608I-62913J0D01*
G04 Copper End*

G04 Pad Start*
G54D11*
G01X-1771804Y1314376D03*
G01X-1651804Y1314761D03*
G54D12*
G01X-3641806Y-44840D03*
G01X-3641806Y309259D03*
G01X-3641806Y-398939D03*
G54D13*
G01X-642004Y712061D03*
G01X-642004Y432061D03*
G01X-642004Y572061D03*
G54D14*
G01X-3510777Y887878D03*
G01X-3515777Y697878D03*
G01X-3510778Y1142877D03*
G01X-3510778Y1327877D03*
G54D15*
G01X-3630778Y792877D03*
G01X-3630778Y1232877D03*
G54D14*
G01X-3745777Y887878D03*
G01X-3745777Y697878D03*
G01X-3750778Y1327877D03*
G01X-3750778Y1137877D03*
G01X-3531805Y-333939D03*
G01X-3751805Y-333939D03*
G01X-3751805Y-463939D03*
G01X-3531805Y-463939D03*
G01X-3751805Y20161D03*
G01X-3531805Y20161D03*
G01X-3531805Y-109839D03*
G01X-3751805Y-109839D03*
G01X-3531805Y374260D03*
G01X-3531805Y244259D03*
G01X-3751806Y374260D03*
G01X-3751806Y244259D03*
G54D11*
G01X-1891804Y1314761D03*
G54D13*
G01X-639490Y-491025D03*
G01X-639490Y-351025D03*
G01X-639490Y-211025D03*
G01X-639490Y-71024D03*
G54D17*
G01X-2744303Y-982328D03*
G01X-1879306Y-982328D03*
G54D18*
G01X-2744303Y-1402342D03*
G01X-1879306Y-1402342D03*
G54D19*
G01X-2470918Y8180D03*
G01X-2435553Y43544D03*
G01X-2400207Y78890D03*
G01X-2364843Y114254D03*
G54D20*
G01X-2258768Y114254D03*
G01X-2223404Y78890D03*
G01X-2188057Y43544D03*
G01X-2152693Y8180D03*
G54D19*
G01X-2152711Y-97877D03*
G01X-2188075Y-133242D03*
G01X-2223422Y-168588D03*
G01X-2258786Y-203952D03*
G54D20*
G01X-2364825Y-203952D03*
G01X-2400189Y-168588D03*
G01X-2435535Y-133242D03*
G01X-2470900Y-97877D03*
G54D21*
G01X-2296780Y-44856D03*
G04 Pad End*

G04 Via Start*
G54D22*
G01X-1891809Y215157D03*
G01X-1404443Y139803D03*
G01X-1206377Y-40583D03*
G01X-1236267Y-111363D03*
G01X-1413211Y776157D03*
G01X-2551805Y-838038D03*
G01X-1388522Y635161D03*
G01X-1753620Y-995851D03*
G01X-1909290Y633112D03*
G01X-1650982Y735356D03*
G01X-1191811Y35157D03*
G01X-1333648Y605315D03*
G01X-2958010Y-746832D03*
G01X-2631807Y-840635D03*
G01X-1137296Y-844840D03*
G01X-2881058Y-1458298D03*
G01X-1738062Y-1460540D03*
G01X-3466105Y-704840D03*
G01X-3116905Y-659739D03*
G01X-3427906Y-602672D03*
G01X-2660541Y355159D03*
G01X-2291804Y835161D03*
G01X-2266304Y679861D03*
G01X-2131805Y845362D03*
G01X-2623085Y67740D03*
G01X-2596720Y9584D03*
G01X-2651025Y123940D03*
G01X-2309845Y451880D03*
G01X-2309845Y369907D03*
G01X-2309845Y277738D03*
G01X-2125010Y270357D03*
G01X-2125010Y362856D03*
G01X-2125010Y455356D03*
G01X-3281907Y-638840D03*
G01X-3256803Y175160D03*
G01X-2467505Y873962D03*
G01X-3266805Y10160D03*
G01X-2806805Y10160D03*
G01X-3113472Y10160D03*
G01X-2960138Y10160D03*
G01X-3113471Y-79840D03*
G01X-2960138Y-79840D03*
G01X-2806804Y-79840D03*
G01X-3266805Y-79840D03*
G01X-3113472Y-169839D03*
G01X-2960138Y-169839D03*
G01X-2806805Y-169839D03*
G01X-3266805Y-169839D03*
G01X-3113472Y-259839D03*
G01X-2960138Y-259839D03*
G01X-2806805Y-259839D03*
G01X-3266805Y-259839D03*
G01X-2916120Y-456212D03*
G01X-2771093Y-464839D03*
G01X-2601808Y-476135D03*
G01X-2734129Y956411D03*
G01X-1406768Y-509876D03*
G01X-1311805Y-1444840D03*
G01X-993405Y-1004040D03*
G01X-911805Y1015160D03*
G01X-1363153Y1412689D03*
G01X-3311805Y-1444840D03*
G01X-3645505Y-1039740D03*
G01X-1406768Y-59788D03*
G01X-1856856Y-59788D03*
G01X-1631804Y-509876D03*
G01X-1421576Y272024D03*
G01X-3003523Y-1044707D03*
G01X-1709461Y146800D03*
G01X-1771196Y146800D03*
G01X-1832932Y146800D03*
G01X-1631804Y-59788D03*
G01X-1431804Y-744840D03*
G01X-1491804Y-744840D03*
G01X-2265324Y-1041725D03*
G01X-2338044Y-1040459D03*
G01X-1560600Y-850738D03*
G01X-2264321Y1270525D03*
G01X-2614303Y-80578D03*
G01X-2583915Y-222554D03*
G01X-2624897Y-276370D03*
G01X-2957414Y-410498D03*
G01X-2856762Y-503339D03*
G01X-2825173Y-436209D03*
G01X-2717012Y-496254D03*
G01X-2662931Y-466917D03*
G01X-2955537Y-503339D03*
G01X-1224939Y-205471D03*
G01X-1560317Y-776661D03*
G01X-1609072Y-734873D03*
G01X-1657826Y-693085D03*
G01X-1878817Y-704474D03*
G01X-1751785Y-704474D03*
G01X-1811818Y-704474D03*
G01X-2835627Y-1152599D03*
G01X-1973700Y76500D03*
G01X-2034900Y122400D03*
G01X-2136900Y147900D03*
G01X-2019705Y1332183D03*
G01X-1217464Y-571200D03*
G01X-1180655Y-254863D03*
G01X-1234481Y-307910D03*
G01X-1176880Y-459762D03*
G01X-1631812Y-284832D03*
G01X-805800Y-561000D03*
G01X-2657100Y214200D03*
G01X-1774814Y994529D03*
G01X-2468400Y-275400D03*
G01X-2317779Y-464100D03*
G01X-1231804Y-404839D03*
G01X-1231804Y-509020D03*
G01X-2203200Y-265200D03*
G01X-3338105Y324961D03*
G01X-3402405Y688861D03*
G01X-3286408Y753160D03*
G01X-3286408Y573160D03*
G01X-3196905Y828860D03*
G01X-3191805Y715161D03*
G01X-2071206Y-501176D03*
G01X-912902Y-331488D03*
G01X-1379304Y-876590D03*
G01X-908602Y470758D03*
G01X-925117Y-14706D03*
G01X-858275Y166591D03*
G01X-1310708Y351921D03*
G01X-928631Y-428818D03*
G01X-3033814Y1247644D03*
G01X-3304800Y438600D03*
G01X-1779292Y633112D03*
G01X-2815200Y1259700D03*
G01X-911945Y-125549D03*
G01X-2905423Y-1239539D03*
G01X-1642012Y144400D03*
G01X-3221585Y1261550D03*
G01X-1131804Y795161D03*
G01X-1231806Y675161D03*
G01X-1451804Y955161D03*
G01X-1411804Y1215162D03*
G01X-1931804Y555161D03*
G01X-1871804Y415161D03*
G01X-2311823Y167281D03*
G01X-2099692Y-44833D03*
G01X-3543505Y-800139D03*
G01X-3536505Y-880139D03*
G01X-3311805Y-844840D03*
G01X-3111805Y-1064840D03*
G01X-3151805Y-1284840D03*
G01X-2871805Y-904840D03*
G01X-2811805Y-1244840D03*
G01X-2631805Y-1144840D03*
G01X-2611805Y-1304840D03*
G01X-2019821Y-1360941D03*
G01X-1427747Y-1293559D03*
G01X-987104Y-895040D03*
G01X-1031804Y-618568D03*
G01X-2171805Y-1064840D03*
G01X-1756805Y-1068151D03*
G01X-3111805Y-904840D03*
G01X-2691805Y-804840D03*
G01X-3305505Y955561D03*
G01X-3407505Y440261D03*
G01X-858793Y-503908D03*
G01X-1550400Y1089666D03*
G01X-2573544Y715161D03*
G01X-2711805Y835161D03*
G01X-2416822Y715161D03*
G01X-1911453Y815156D03*
G01X-1710682Y875162D03*
G01X-775456Y-1124193D03*
G01X-3381300Y1162800D03*
G01X-3413271Y1361700D03*
G01X-2958000Y1152600D03*
G01X-3223200Y1162800D03*
G01X-3095700Y1365741D03*
G01X-748803Y-954535D03*
G01X-2891805Y195161D03*
G01X-826704Y-775040D03*
G01X-2062005Y845362D03*
G01X-2067105Y675161D03*
G01X-2466808Y-799841D03*
G01X-2480906Y1377087D03*
G01X-2610707Y1200262D03*
G01X-2076809Y-294842D03*
G01X-2331805Y955161D03*
G01X-2114354Y1486928D03*
G04 Via End*

G04 Track Start*
G54D23*
G01X-2400189Y-168588D02*
G01X-2364825Y-203952D01*
G01X-1891804Y1314761D02*
G01X-1892115Y1422935D01*
G01X-1891804Y1314761D02*
G03X-1774814Y994529I496772J-0D01*
G01X-1451804Y195161D02*
G02X-1471804Y515161I461022J189439D01*
G01X-1404443Y139803D02*
G02X-1451804Y195161I60455J99660D01*
G01X-2610707Y1200262D02*
G02X-2114354Y1486928I783415J-783416D01*
G01X-1892115Y1422935D02*
G03X-1958416Y1494336I-71819J-206D01*
G03X-2114354Y1486928I-48344J-627319D01*
G01X-1236267Y-111363D02*
G03X-1310708Y-178486I0J-74840D01*
G01X-1310708Y-178486D02*
G03X-1259707Y-647692I1117793J-115876D01*
G01X-1259707Y-647692D02*
G03X-1162806Y-734393I123978J41063D01*
G01X-1162806Y-734393D02*
G01X-1078561Y-742662D01*
G01X-994450Y-752195D01*
G01X-910491Y-762988D01*
G01X-826704Y-775040D01*
G01X-1224939Y-205471D02*
G02X-1147505Y-209086I0J-831024D01*
G03X-1060804Y-152986I7771J83037D01*
G01X-1060804Y-152986D02*
G01X-1022174Y-37785D01*
G01X-984772Y77821D01*
G01X-948603Y193819D01*
G01X-2188057Y43544D02*
G02X-2080800Y117300I252889J-252888D01*
G01X-2223404Y78890D02*
G02X-2136900Y147900I165067J-118191D01*
G01X-2080800Y117300D02*
G02X-2034900Y122400I34401J-100508D01*
G01X-2152693Y8180D02*
G02X-1973700Y76500I165832J-165832D01*
G01X-1217464Y-571200D02*
G01X-1134622Y-571767D01*
G01X-1051795Y-573467D01*
G01X-969000Y-576300D01*
G01X-969000Y-576300D02*
G01X-935804Y-578258D01*
G01X-902700Y-581400D01*
G01X-902700Y-581400D02*
G03X-805800Y-561000I17670J156406D01*
G01X-2551805Y-838038D02*
G02X-2519400Y-540600I1381281J0D01*
G01X-2519400Y-540600D02*
G03X-2580600Y-428400I-95032J20955D01*
G02X-2687700Y-311100I60284J162585D01*
G01X-2687700Y-311100D02*
G02X-2708100Y158100I1035123J280049D01*
G01X-1471804Y515161D02*
G03X-1428009Y739526I-1527765J414671D01*
G01X-1428009Y739526D02*
G02X-1413211Y776157I75317J-9120D01*
G01X-2708100Y158100D02*
G02X-2657100Y214200I70191J-12578D01*
G01X-2468400Y-275400D02*
G03X-2400189Y-168588I-74600J122826D01*
G01X-1771804Y1314376D02*
G01X-1772557Y1406918D01*
G01X-1774814Y1499436D01*
G03X-1841114Y1565737I-68530J-2229D01*
G01X-1919309Y1567432D01*
G01X-1997523Y1567432D01*
G01X-2075717Y1565737D01*
G01X-2075717Y1565737D02*
G03X-2480906Y1377087I18517J-569235D01*
G01X-948603Y193819D02*
G02X-846600Y413100I837755J-256333D01*
G03X-816000Y504900I-162887J105296D01*
G01X-816000Y504900D02*
G02X-642004Y712061I229370J-15999D01*
G01X-1231804Y-509020D02*
G01X-1150974Y-509695D01*
G01X-1070166Y-511718D01*
G01X-989403Y-515090D01*
G01X-1180655Y-254863D02*
G02X-912902Y-331488I0J-506122D01*
G01X-989403Y-515090D02*
G03X-858793Y-503908I55202J123592D01*
G01X-1642012Y144400D02*
G02X-1550400Y1086300I4887821J2D01*
G04 Track End*

M02*

