G04 Layer: InnerLayer2*
G04 EasyEDA Pro v3.2.148, 2026-08-18 08:28:43*
G04 Gerber Generator version 0.3*
G04 Scale: 100 percent, Rotated: No, Reflected: No*
G04 Dimensions in millimeters*
G04 Leading zeros omitted, absolute positions, 4 integers and 5 decimals*
G04 Generated by one-click*
G04 Object Configs: Pad,Via,Track,Text,Image,Dimension,BoardOutline,BoardCutout,CopperFilled,SolidRegion,FPCStiffener,Line,PlaneZone,ComponentProperty,ComponentSilkscreen,TearDrop*
G04 Layer Configs: 1,15,16,2,3,4,5,6,7,8,9,10,11,13,14,56*
G04 Copper Areas: 2*
%FSLAX45Y45*%
%MOMM*%
%AMRoundRect*1,1,$1,$2,$3*1,1,$1,$4,$5*1,1,$1,0-$2,0-$3*1,1,$1,0-$4,0-$5*20,1,$1,$2,$3,$4,$5,0*20,1,$1,$4,$5,0-$2,0-$3,0*20,1,$1,0-$2,0-$3,0-$4,0-$5,0*20,1,$1,0-$4,0-$5,$2,$3,0*4,1,4,$2,$3,$4,$5,0-$2,0-$3,0-$4,0-$5,$2,$3,0*%
%ADD10C,0.2*%
%ADD11C,0.2032*%
%ADD12RoundRect,0.16X-0.32X0.67X0.32X0.67*%
%ADD13RoundRect,1.0X-1.25X0.75X1.25X0.75*%
%ADD14RoundRect,0.16X-0.67X-0.32X-0.67X0.32*%
%ADD15C,1.0030*%
%ADD16C,1.0*%
%ADD17RoundRect,1.2X-1.15X0.9X1.15X0.9*%
%ADD18O,1.1X2.0*%
%ADD19O,1.2X1.8*%
%ADD20C,0.45*%
%ADD21C,0.16*%
%ADD22C,0.4*%
G75*


G04 Copper Start*
G36*
G01X-2901928Y1024783D02*
G01X-3563017Y1024783D01*
G01X-3563018Y1052623D01*
G01X-3515778Y1052623D01*
G01X-3496846Y1054631D01*
G01X-3478758Y1060565D01*
G01X-3462316Y1070161D01*
G01X-3448253Y1082993D01*
G01X-3437194Y1098488D01*
G01X-3429631Y1115959D01*
G01X-3425901Y1134627D01*
G01X-3417270Y1124210D01*
G01X-3406272Y1116331D01*
G01X-3393632Y1111508D01*
G01X-3380181Y1110058D01*
G01X-3366804Y1112077D01*
G01X-3354380Y1117432D01*
G01X-3343727Y1125770D01*
G01X-3335544Y1136544D01*
G01X-3330371Y1149045D01*
G01X-3328765Y1160852D01*
G01X-3275918Y1160852D01*
G01X-3273754Y1147723D01*
G01X-3268372Y1135552D01*
G01X-3260117Y1125116D01*
G01X-3249513Y1117077D01*
G01X-3237234Y1111947D01*
G01X-3224063Y1110053D01*
G01X-3210837Y1111515D01*
G01X-3198397Y1116241D01*
G01X-3187535Y1123928D01*
G01X-3178943Y1134089D01*
G01X-3173167Y1146077D01*
G01X-3171871Y1152600D01*
G01X-3010754Y1152600D01*
G01X-3008957Y1138946D01*
G01X-3003687Y1126223D01*
G01X-2995303Y1115297D01*
G01X-2984377Y1106914D01*
G01X-2971654Y1101643D01*
G01X-2958000Y1099846D01*
G01X-2944346Y1101643D01*
G01X-2931623Y1106914D01*
G01X-2920697Y1115297D01*
G01X-2912314Y1126223D01*
G01X-2907044Y1138946D01*
G01X-2905246Y1152600D01*
G01X-2907044Y1166254D01*
G01X-2912314Y1178977D01*
G01X-2920697Y1189903D01*
G01X-2931623Y1198286D01*
G01X-2944346Y1203556D01*
G01X-2958000Y1205354D01*
G01X-2971654Y1203556D01*
G01X-2984377Y1198286D01*
G01X-2995303Y1189903D01*
G01X-3003687Y1178977D01*
G01X-3008957Y1166254D01*
G01X-3010754Y1152600D01*
G01X-3010754Y1152600D01*
G01X-3171871Y1152600D01*
G01X-3170574Y1159129D01*
G01X-3171330Y1172414D01*
G01X-3175385Y1185088D01*
G01X-3182484Y1196344D01*
G01X-3192173Y1205465D01*
G01X-3203836Y1211872D01*
G01X-3191924Y1217924D01*
G01X-3181914Y1226776D01*
G01X-3153674Y1233650D01*
G01X-3126539Y1244063D01*
G01X-3100949Y1257846D01*
G01X-3076790Y1270841D01*
G01X-3051163Y1280630D01*
G01X-3024492Y1287048D01*
G01X-2997217Y1289991D01*
G01X-2969791Y1289410D01*
G01X-2942666Y1285314D01*
G01X-2916290Y1277772D01*
G01X-2891101Y1266907D01*
G01X-2867514Y1252899D01*
G01X-2864417Y1240709D01*
G01X-2858524Y1229599D01*
G01X-2850167Y1220200D01*
G01X-2839824Y1213045D01*
G01X-2828081Y1208543D01*
G01X-2815605Y1206948D01*
G01X-2803107Y1208351D01*
G01X-2791296Y1212673D01*
G01X-2780844Y1219667D01*
G01X-2772344Y1228937D01*
G01X-2772344Y1228937D01*
G01X-2731367Y1234212D01*
G01X-2690134Y1236816D01*
G01X-2648819Y1236737D01*
G01X-2648819Y1236737D01*
G01X-2656614Y1226254D01*
G01X-2661593Y1214176D01*
G01X-2663452Y1201244D01*
G01X-2662076Y1188253D01*
G01X-2657550Y1175998D01*
G01X-2650151Y1165231D01*
G01X-2640334Y1156612D01*
G01X-2628699Y1150670D01*
G01X-2615961Y1147770D01*
G01X-2602901Y1148088D01*
G01X-2590319Y1151606D01*
G01X-2578988Y1158108D01*
G01X-2569602Y1167195D01*
G01X-2562737Y1178310D01*
G01X-2558814Y1190771D01*
G01X-2558073Y1203815D01*
G01X-2560560Y1216640D01*
G01X-2566122Y1228460D01*
G01X-2566122Y1228460D01*
G01X-2532118Y1221837D01*
G01X-2498525Y1213373D01*
G01X-2465443Y1203092D01*
G01X-2465443Y1203092D01*
G01X-2370759Y1172658D01*
G01X-2275067Y1145562D01*
G01X-2178483Y1121838D01*
G01X-2081126Y1101516D01*
G01X-1983117Y1084620D01*
G01X-1884576Y1071170D01*
G01X-1785624Y1061184D01*
G01X-1686382Y1054674D01*
G01X-1586973Y1051648D01*
G01X-1586973Y1051648D01*
G01X-1576020Y1043551D01*
G01X-1563358Y1038529D01*
G01X-1549833Y1036915D01*
G01X-1536345Y1038819D01*
G01X-1523795Y1044112D01*
G01X-1513018Y1052443D01*
G01X-1504733Y1063255D01*
G01X-1499493Y1075828D01*
G01X-1497647Y1089324D01*
G01X-1499318Y1102842D01*
G01X-1504394Y1115482D01*
G01X-1512538Y1126401D01*
G01X-1523206Y1134871D01*
G01X-1535686Y1140327D01*
G01X-1549148Y1142406D01*
G01X-1562693Y1140968D01*
G01X-1575419Y1136110D01*
G01X-1586477Y1128156D01*
G01X-1586477Y1128156D01*
G01X-1682803Y1131099D01*
G01X-1778968Y1137403D01*
G01X-1874854Y1147061D01*
G01X-1970344Y1160062D01*
G01X-2065322Y1176389D01*
G01X-2159672Y1196023D01*
G01X-2253279Y1218939D01*
G01X-2253279Y1218939D01*
G01X-2240086Y1223667D01*
G01X-2228604Y1231701D01*
G01X-2219642Y1242476D01*
G01X-2213833Y1255229D01*
G01X-2211587Y1269062D01*
G01X-2213063Y1282998D01*
G01X-2218156Y1296054D01*
G01X-2226507Y1307309D01*
G01X-2237526Y1315967D01*
G01X-2250436Y1321419D01*
G01X-2264326Y1323279D01*
G01X-2278216Y1321416D01*
G01X-2291125Y1315962D01*
G01X-2302143Y1307301D01*
G01X-2310491Y1296045D01*
G01X-2315582Y1282988D01*
G01X-2317055Y1269052D01*
G01X-2314806Y1255219D01*
G01X-2308995Y1242467D01*
G01X-2300031Y1231694D01*
G01X-2300031Y1231694D01*
G01X-2370686Y1252661D01*
G01X-2440757Y1275508D01*
G01X-2440757Y1275508D01*
G01X-2488703Y1289993D01*
G01X-2537548Y1301074D01*
G01X-2587051Y1308696D01*
G01X-2636967Y1312823D01*
G01X-2687050Y1313433D01*
G01X-2737052Y1310524D01*
G01X-2786726Y1304109D01*
G01X-2786726Y1304109D01*
G01X-2796810Y1309145D01*
G01X-2807734Y1311923D01*
G01X-2818998Y1312317D01*
G01X-2847454Y1330334D01*
G01X-2877809Y1344929D01*
G01X-2909651Y1355903D01*
G01X-2942551Y1363110D01*
G01X-2976066Y1366451D01*
G01X-3009741Y1365882D01*
G01X-3043124Y1361411D01*
G01X-3043698Y1374616D01*
G01X-3044448Y1377087D01*
G01X-2533660Y1377087D01*
G01X-2531862Y1363434D01*
G01X-2526592Y1350710D01*
G01X-2518208Y1339785D01*
G01X-2507283Y1331401D01*
G01X-2494559Y1326131D01*
G01X-2480906Y1324333D01*
G01X-2467252Y1326131D01*
G01X-2454529Y1331401D01*
G01X-2453510Y1332183D01*
G01X-2072459Y1332183D01*
G01X-2070662Y1318529D01*
G01X-2065392Y1305806D01*
G01X-2057008Y1294880D01*
G01X-2046082Y1286497D01*
G01X-2033359Y1281227D01*
G01X-2019705Y1279429D01*
G01X-2006052Y1281227D01*
G01X-1993328Y1286497D01*
G01X-1982403Y1294880D01*
G01X-1974019Y1305806D01*
G01X-1968749Y1318529D01*
G01X-1966951Y1332183D01*
G01X-1968749Y1345837D01*
G01X-1974019Y1358560D01*
G01X-1982403Y1369486D01*
G01X-1993328Y1377869D01*
G01X-2002725Y1381761D01*
G01X-1962058Y1381761D01*
G01X-1962058Y1247761D01*
G01X-1960186Y1235940D01*
G01X-1954753Y1225276D01*
G01X-1946290Y1216813D01*
G01X-1935626Y1211380D01*
G01X-1923804Y1209507D01*
G01X-1859804Y1209507D01*
G01X-1849548Y1210908D01*
G01X-1840042Y1215008D01*
G01X-1831984Y1221506D01*
G01X-1823866Y1214805D01*
G01X-1814230Y1210570D01*
G01X-1803804Y1209122D01*
G01X-1739804Y1209122D01*
G01X-1729379Y1210571D01*
G01X-1719743Y1214805D01*
G01X-1711625Y1221506D01*
G01X-1703567Y1215008D01*
G01X-1694061Y1210908D01*
G01X-1683804Y1209507D01*
G01X-1619804Y1209507D01*
G01X-1607983Y1211380D01*
G01X-1600561Y1215162D01*
G01X-1464558Y1215162D01*
G01X-1462761Y1201508D01*
G01X-1457490Y1188785D01*
G01X-1449107Y1177859D01*
G01X-1438181Y1169475D01*
G01X-1425458Y1164205D01*
G01X-1411804Y1162408D01*
G01X-1398150Y1164205D01*
G01X-1385427Y1169475D01*
G01X-1374501Y1177859D01*
G01X-1366118Y1188785D01*
G01X-1360848Y1201508D01*
G01X-1359050Y1215162D01*
G01X-1360848Y1228815D01*
G01X-1366118Y1241539D01*
G01X-1374501Y1252464D01*
G01X-1385427Y1260848D01*
G01X-1398150Y1266118D01*
G01X-1411804Y1267916D01*
G01X-1425458Y1266118D01*
G01X-1438181Y1260848D01*
G01X-1449107Y1252464D01*
G01X-1457490Y1241539D01*
G01X-1462761Y1228815D01*
G01X-1464558Y1215162D01*
G01X-1464558Y1215162D01*
G01X-1600561Y1215162D01*
G01X-1597319Y1216813D01*
G01X-1588856Y1225276D01*
G01X-1583422Y1235940D01*
G01X-1581550Y1247761D01*
G01X-1581550Y1381761D01*
G01X-1583422Y1393582D01*
G01X-1588856Y1404246D01*
G01X-1597319Y1412709D01*
G01X-1607983Y1418143D01*
G01X-1619804Y1420015D01*
G01X-1683804Y1420015D01*
G01X-1694230Y1418567D01*
G01X-1703866Y1414333D01*
G01X-1711984Y1407632D01*
G01X-1720042Y1414130D01*
G01X-1729548Y1418230D01*
G01X-1739804Y1419630D01*
G01X-1803804Y1419630D01*
G01X-1814061Y1418230D01*
G01X-1823567Y1414130D01*
G01X-1831625Y1407632D01*
G01X-1839743Y1414333D01*
G01X-1849379Y1418567D01*
G01X-1859804Y1420015D01*
G01X-1859804Y1420015D01*
G01X-1923804Y1420015D01*
G01X-1935626Y1418143D01*
G01X-1946290Y1412709D01*
G01X-1954753Y1404246D01*
G01X-1960186Y1393582D01*
G01X-1962058Y1381761D01*
G01X-2002725Y1381761D01*
G01X-2006052Y1383139D01*
G01X-2019705Y1384937D01*
G01X-2033359Y1383139D01*
G01X-2046082Y1377869D01*
G01X-2057008Y1369486D01*
G01X-2065392Y1358560D01*
G01X-2070662Y1345837D01*
G01X-2072459Y1332183D01*
G01X-2072459Y1332183D01*
G01X-2453510Y1332183D01*
G01X-2443603Y1339785D01*
G01X-2435219Y1350710D01*
G01X-2429949Y1363434D01*
G01X-2428152Y1377087D01*
G01X-2429949Y1390741D01*
G01X-2435219Y1403464D01*
G01X-2443603Y1414390D01*
G01X-2454529Y1422774D01*
G01X-2467252Y1428044D01*
G01X-2480906Y1429841D01*
G01X-2494559Y1428044D01*
G01X-2507283Y1422774D01*
G01X-2518208Y1414390D01*
G01X-2526592Y1403464D01*
G01X-2531862Y1390741D01*
G01X-2533660Y1377087D01*
G01X-2533660Y1377087D01*
G01X-3044448Y1377087D01*
G01X-3047536Y1387265D01*
G01X-3054399Y1398562D01*
G01X-3063854Y1407799D01*
G01X-3075309Y1414395D01*
G01X-3088044Y1417937D01*
G01X-3101259Y1418202D01*
G01X-3114126Y1415173D01*
G01X-3125835Y1409041D01*
G01X-3135653Y1400190D01*
G01X-3142962Y1389177D01*
G01X-3147305Y1376692D01*
G01X-3148407Y1363520D01*
G01X-3146200Y1350487D01*
G01X-3140823Y1338412D01*
G01X-3132613Y1328053D01*
G01X-3141451Y1322754D01*
G01X-3156627Y1314450D01*
G01X-3172651Y1307931D01*
G01X-3189315Y1303284D01*
G01X-3200381Y1309855D01*
G01X-3212708Y1313552D01*
G01X-3225564Y1314154D01*
G01X-3238183Y1311625D01*
G01X-3249814Y1306116D01*
G01X-3259765Y1297955D01*
G01X-3267443Y1287626D01*
G01X-3272393Y1275746D01*
G01X-3274318Y1263021D01*
G01X-3273105Y1250209D01*
G01X-3268826Y1238072D01*
G01X-3261735Y1227331D01*
G01X-3252255Y1218628D01*
G01X-3240949Y1212479D01*
G01X-3252815Y1206457D01*
G01X-3262797Y1197657D01*
G01X-3270260Y1186640D01*
G01X-3274728Y1174106D01*
G01X-3275918Y1160852D01*
G01X-3328765Y1160852D01*
G01X-3328547Y1162450D01*
G01X-3330193Y1175878D01*
G01X-3335200Y1188447D01*
G01X-3343238Y1199328D01*
G01X-3353780Y1207807D01*
G01X-3366132Y1213326D01*
G01X-3379481Y1215523D01*
G01X-3392950Y1214252D01*
G01X-3405653Y1209597D01*
G01X-3416754Y1201864D01*
G01X-3425524Y1191562D01*
G01X-3425524Y1310388D01*
G01X-3411292Y1308983D01*
G01X-3397205Y1311452D01*
G01X-3384299Y1317613D01*
G01X-3373523Y1327015D01*
G01X-3365667Y1338965D01*
G01X-3361310Y1352587D01*
G01X-3360772Y1366878D01*
G01X-3364092Y1380788D01*
G01X-3371026Y1393296D01*
G01X-3381064Y1403482D01*
G01X-3393470Y1410597D01*
G01X-3407331Y1414118D01*
G01X-3421628Y1413788D01*
G01X-3435311Y1409629D01*
G01X-3447375Y1401948D01*
G01X-3456932Y1391309D01*
G01X-3469944Y1400627D01*
G01X-3484397Y1407500D01*
G01X-3499837Y1411712D01*
G01X-3515778Y1413131D01*
G01X-3559170Y1413131D01*
G01X-3557863Y1422698D01*
G01X-3558070Y1432352D01*
G01X-3553923Y1434120D01*
G01X-3540878Y1433482D01*
G01X-3531397Y1434524D01*
G01X-3482597Y1434524D01*
G01X-3474244Y1435699D01*
G01X-3459954Y1438227D01*
G01X-3446489Y1443637D01*
G01X-3440856Y1447400D01*
G01X-3243441Y1447400D01*
G01X-3241618Y1432382D01*
G01X-3236253Y1418237D01*
G01X-3227660Y1405787D01*
G01X-3216336Y1395755D01*
G01X-3202941Y1388725D01*
G01X-3188252Y1385104D01*
G01X-3173124Y1385104D01*
G01X-3158435Y1388725D01*
G01X-3145040Y1395755D01*
G01X-3133717Y1405787D01*
G01X-3125123Y1418237D01*
G01X-3119758Y1432382D01*
G01X-3117935Y1447400D01*
G01X-3073439Y1447400D01*
G01X-3071616Y1432382D01*
G01X-3066251Y1418237D01*
G01X-3057657Y1405787D01*
G01X-3046334Y1395755D01*
G01X-3032938Y1388725D01*
G01X-3018250Y1385104D01*
G01X-3003122Y1385104D01*
G01X-2988433Y1388725D01*
G01X-2975038Y1395755D01*
G01X-2963714Y1405787D01*
G01X-2955121Y1418237D01*
G01X-2949756Y1432382D01*
G01X-2947933Y1447400D01*
G01X-2949756Y1462418D01*
G01X-2955121Y1476563D01*
G01X-2962275Y1486928D01*
G01X-2167108Y1486928D01*
G01X-2165310Y1473274D01*
G01X-2160040Y1460551D01*
G01X-2151656Y1449625D01*
G01X-2140731Y1441241D01*
G01X-2128007Y1435971D01*
G01X-2114354Y1434174D01*
G01X-2100700Y1435971D01*
G01X-2087977Y1441241D01*
G01X-2077051Y1449625D01*
G01X-2068667Y1460551D01*
G01X-2063397Y1473274D01*
G01X-2061600Y1486928D01*
G01X-2063397Y1500581D01*
G01X-2068667Y1513305D01*
G01X-2077051Y1524230D01*
G01X-2087977Y1532614D01*
G01X-2100700Y1537884D01*
G01X-2114354Y1539682D01*
G01X-2128007Y1537884D01*
G01X-2140731Y1532614D01*
G01X-2151656Y1524230D01*
G01X-2160040Y1513305D01*
G01X-2165310Y1500581D01*
G01X-2167108Y1486928D01*
G01X-2167108Y1486928D01*
G01X-2962275Y1486928D01*
G01X-2963714Y1489013D01*
G01X-2975038Y1499045D01*
G01X-2988433Y1506075D01*
G01X-3003122Y1509696D01*
G01X-3018250Y1509696D01*
G01X-3032938Y1506075D01*
G01X-3046334Y1499045D01*
G01X-3057657Y1489013D01*
G01X-3066251Y1476563D01*
G01X-3071616Y1462418D01*
G01X-3073439Y1447400D01*
G01X-3073439Y1447400D01*
G01X-3117935Y1447400D01*
G01X-3117935Y1447400D01*
G01X-3119758Y1462418D01*
G01X-3125123Y1476563D01*
G01X-3133717Y1489013D01*
G01X-3145040Y1499045D01*
G01X-3158435Y1506075D01*
G01X-3173124Y1509696D01*
G01X-3188252Y1509696D01*
G01X-3202941Y1506075D01*
G01X-3216336Y1499045D01*
G01X-3227660Y1489013D01*
G01X-3236253Y1476563D01*
G01X-3241618Y1462418D01*
G01X-3243441Y1447400D01*
G01X-3243441Y1447400D01*
G01X-3440856Y1447400D01*
G01X-3434422Y1451698D01*
G01X-3424268Y1462067D01*
G01X-3416462Y1474300D01*
G01X-3411336Y1487876D01*
G01X-3409108Y1502216D01*
G01X-3407767Y1508639D01*
G01X-3407320Y1511467D01*
G01X-3405409Y1518244D01*
G01X-3401372Y1524013D01*
G01X-3395659Y1528130D01*
G01X-3388909Y1530136D01*
G01X-3379880Y1529710D01*
G01X-3372164Y1530338D01*
G01X-2902947Y1531512D01*
G01X-2888380Y1529177D01*
G01X-2873676Y1530382D01*
G01X-2859683Y1535056D01*
G01X-2847208Y1542930D01*
G01X-2836968Y1553550D01*
G01X-2829555Y1566305D01*
G01X-2827181Y1571793D01*
G01X-2825933Y1577641D01*
G01X-2824592Y1588428D01*
G01X-2825173Y1599283D01*
G01X-2820914Y1606560D01*
G01X-2814408Y1611924D01*
G01X-2806453Y1614717D01*
G01X-2799269Y1611802D01*
G01X-2791579Y1610809D01*
G01X-1492550Y1610809D01*
G01X-1482603Y1612491D01*
G01X-1474201Y1611404D01*
G01X-1466638Y1607587D01*
G01X-1460773Y1601474D01*
G01X-1457273Y1593760D01*
G01X-1456550Y1591402D01*
G01X-1456550Y1520346D01*
G01X-1456365Y1503346D01*
G01X-1452921Y1486698D01*
G01X-1446346Y1471021D01*
G01X-1436883Y1456897D01*
G01X-1424886Y1444851D01*
G01X-1410800Y1435333D01*
G01X-1415139Y1421657D01*
G01X-1415633Y1407318D01*
G01X-1412244Y1393376D01*
G01X-1405224Y1380862D01*
G01X-1395092Y1370703D01*
G01X-1382598Y1363650D01*
G01X-1368665Y1360224D01*
G01X-1354324Y1360679D01*
G01X-1340637Y1364982D01*
G01X-1328615Y1372813D01*
G01X-1319148Y1383594D01*
G01X-1312935Y1396527D01*
G01X-1310438Y1410656D01*
G01X-1311840Y1424935D01*
G01X-1213098Y1424935D01*
G01X-1211390Y1424911D01*
G01X-1209606Y1424935D01*
G01X-1197760Y1423252D01*
G01X-1186813Y1418423D01*
G01X-1177583Y1410810D01*
G01X-1170759Y1400981D01*
G01X-1166853Y1389672D01*
G01X-1166155Y1377727D01*
G01X-1168719Y1366040D01*
G01X-1174352Y1355484D01*
G01X-1382475Y1152193D01*
G01X-1382717Y1151954D01*
G01X-1400243Y1131697D01*
G01X-1414674Y1109129D01*
G01X-1425708Y1084720D01*
G01X-1433117Y1058979D01*
G01X-1436746Y1032439D01*
G01X-1436520Y1005653D01*
G01X-1450676Y1007903D01*
G01X-1464914Y1006260D01*
G01X-1478185Y1000845D01*
G01X-1489509Y992058D01*
G01X-1498049Y980547D01*
G01X-1503175Y967161D01*
G01X-1504509Y952891D01*
G01X-1501953Y938787D01*
G01X-1495694Y925893D01*
G01X-1486195Y915159D01*
G01X-1474158Y907378D01*
G01X-1460471Y903124D01*
G01X-1446143Y902712D01*
G01X-1432234Y906172D01*
G01X-1419769Y913248D01*
G01X-1409669Y923418D01*
G01X-1397197Y905546D01*
G01X-1382717Y889258D01*
G01X-1377617Y884158D01*
G01X-1357587Y866803D01*
G01X-1335292Y852474D01*
G01X-1311184Y841464D01*
G01X-1285754Y833997D01*
G01X-1259521Y830226D01*
G01X-1233018Y830226D01*
G01X-1206784Y833997D01*
G01X-1181355Y841464D01*
G01X-1157247Y852474D01*
G01X-1134951Y866803D01*
G01X-1114921Y884158D01*
G01X-1114682Y884400D01*
G01X-986958Y1015160D01*
G01X-964559Y1015160D01*
G01X-962762Y1001507D01*
G01X-957492Y988783D01*
G01X-949108Y977858D01*
G01X-938182Y969474D01*
G01X-925459Y964204D01*
G01X-911805Y962406D01*
G01X-898152Y964204D01*
G01X-885428Y969474D01*
G01X-874503Y977858D01*
G01X-866119Y988783D01*
G01X-860849Y1001507D01*
G01X-859051Y1015160D01*
G01X-860849Y1028814D01*
G01X-866119Y1041537D01*
G01X-874503Y1052463D01*
G01X-885428Y1060847D01*
G01X-898152Y1066117D01*
G01X-911805Y1067914D01*
G01X-925459Y1066117D01*
G01X-938182Y1060847D01*
G01X-949108Y1052463D01*
G01X-957492Y1041537D01*
G01X-962762Y1028814D01*
G01X-964559Y1015160D01*
G01X-964559Y1015160D01*
G01X-986958Y1015160D01*
G01X-900118Y1104065D01*
G01X-894448Y1112193D01*
G01X-884659Y1116675D01*
G01X-873964Y1117911D01*
G01X-863410Y1115782D01*
G01X-854031Y1110495D01*
G01X-846746Y1102567D01*
G01X-842268Y1092776D01*
G01X-842519Y1077897D01*
G01X-839165Y1063400D01*
G01X-832404Y1050143D01*
G01X-822637Y1038916D01*
G01X-810446Y1030383D01*
G01X-796553Y1025052D01*
G01X-781783Y1023239D01*
G01X-556764Y1024930D01*
G01X-551649Y1025424D01*
G01X-542561Y1025521D01*
G01X-533987Y1022505D01*
G01X-526960Y1016740D01*
G01X-522327Y1008920D01*
G01X-520645Y999988D01*
G01X-520704Y997633D01*
G01X-520644Y994836D01*
G01X-520712Y44087D01*
G01X-522059Y35155D01*
G01X-521912Y-723919D01*
G01X-523858Y-724574D01*
G01X-538848Y-725722D01*
G01X-553158Y-730333D01*
G01X-565998Y-738152D01*
G01X-576662Y-748750D01*
G01X-584562Y-761541D01*
G01X-589261Y-775822D01*
G01X-590503Y-790805D01*
G01X-588217Y-805664D01*
G01X-588217Y-1239778D01*
G01X-590656Y-1245756D01*
G01X-594693Y-1250796D01*
G01X-599995Y-1254483D01*
G01X-805574Y-1254483D01*
G01X-814023Y-1255687D01*
G01X-825924Y-1255225D01*
G01X-837425Y-1252136D01*
G01X-847955Y-1246573D01*
G01X-850706Y-1243410D01*
G01X-1009462Y-1084610D01*
G01X-742053Y-1084610D01*
G01X-740230Y-1099628D01*
G01X-734865Y-1113773D01*
G01X-726272Y-1126224D01*
G01X-714948Y-1136255D01*
G01X-701553Y-1143286D01*
G01X-686864Y-1146906D01*
G01X-671736Y-1146906D01*
G01X-657048Y-1143286D01*
G01X-643652Y-1136255D01*
G01X-632329Y-1126224D01*
G01X-623735Y-1113773D01*
G01X-618370Y-1099628D01*
G01X-616547Y-1084610D01*
G01X-618370Y-1069593D01*
G01X-623735Y-1055448D01*
G01X-632329Y-1042997D01*
G01X-643652Y-1032966D01*
G01X-657048Y-1025935D01*
G01X-671736Y-1022315D01*
G01X-686864Y-1022315D01*
G01X-701553Y-1025935D01*
G01X-714948Y-1032966D01*
G01X-726272Y-1042997D01*
G01X-734865Y-1055448D01*
G01X-740230Y-1069593D01*
G01X-742053Y-1084610D01*
G01X-742053Y-1084610D01*
G01X-1009462Y-1084610D01*
G01X-1090011Y-1004040D01*
G01X-1046159Y-1004040D01*
G01X-1044362Y-1017693D01*
G01X-1039092Y-1030417D01*
G01X-1030708Y-1041342D01*
G01X-1019782Y-1049726D01*
G01X-1007059Y-1054996D01*
G01X-993405Y-1056794D01*
G01X-979752Y-1054996D01*
G01X-967028Y-1049726D01*
G01X-956103Y-1041342D01*
G01X-947719Y-1030417D01*
G01X-942449Y-1017693D01*
G01X-940651Y-1004040D01*
G01X-942449Y-990386D01*
G01X-947719Y-977663D01*
G01X-956103Y-966737D01*
G01X-967028Y-958353D01*
G01X-973337Y-955740D01*
G01X-801543Y-955740D01*
G01X-799616Y-968715D01*
G01X-794547Y-980812D01*
G01X-794547Y-980812D01*
G01X-786650Y-991285D01*
G01X-776413Y-999486D01*
G01X-764470Y-1004909D01*
G01X-751558Y-1007217D01*
G01X-738476Y-1006268D01*
G01X-726032Y-1002121D01*
G01X-714996Y-995032D01*
G01X-706050Y-985440D01*
G01X-699747Y-973937D01*
G01X-684907Y-977110D01*
G01X-669740Y-976629D01*
G01X-655132Y-972521D01*
G01X-641937Y-965026D01*
G01X-630927Y-954583D01*
G01X-622746Y-941803D01*
G01X-617871Y-927432D01*
G01X-616589Y-912312D01*
G01X-618974Y-897326D01*
G01X-624886Y-883350D01*
G01X-633980Y-871202D01*
G01X-645725Y-861593D01*
G01X-659433Y-855083D01*
G01X-674302Y-852054D01*
G01X-689464Y-852684D01*
G01X-704031Y-856934D01*
G01X-717153Y-864557D01*
G01X-728060Y-875106D01*
G01X-736117Y-887966D01*
G01X-740851Y-902383D01*
G01X-753963Y-902033D01*
G01X-766756Y-904929D01*
G01X-778439Y-910892D01*
G01X-788290Y-919552D01*
G01X-795700Y-930375D01*
G01X-800211Y-942692D01*
G01X-801543Y-955740D01*
G01X-973337Y-955740D01*
G01X-979752Y-953083D01*
G01X-993405Y-951286D01*
G01X-1007059Y-953083D01*
G01X-1019782Y-958353D01*
G01X-1030708Y-966737D01*
G01X-1039092Y-977663D01*
G01X-1044362Y-990386D01*
G01X-1046159Y-1004040D01*
G01X-1046159Y-1004040D01*
G01X-1090011Y-1004040D01*
G01X-1130312Y-963728D01*
G01X-1150329Y-946381D01*
G01X-1172611Y-932058D01*
G01X-1196704Y-921049D01*
G01X-1222117Y-913580D01*
G01X-1248334Y-909800D01*
G01X-1274823Y-909789D01*
G01X-1301043Y-913545D01*
G01X-1326463Y-920992D01*
G01X-1350565Y-931980D01*
G01X-1372859Y-946284D01*
G01X-1392892Y-963613D01*
G01X-1410499Y-983569D01*
G01X-1425044Y-1005855D01*
G01X-1436224Y-1030005D01*
G01X-1443806Y-1055515D01*
G01X-1447631Y-1081851D01*
G01X-1447619Y-1108463D01*
G01X-1443771Y-1134796D01*
G01X-1436167Y-1160299D01*
G01X-1424965Y-1184439D01*
G01X-1410400Y-1206712D01*
G01X-1392776Y-1226652D01*
G01X-1174580Y-1444851D01*
G01X-1168777Y-1455562D01*
G01X-1166151Y-1467458D01*
G01X-1166907Y-1479618D01*
G01X-1170985Y-1491097D01*
G01X-1178069Y-1501008D01*
G01X-1187612Y-1508582D01*
G01X-1198872Y-1513232D01*
G01X-1210978Y-1514597D01*
G01X-1211769Y-1514586D01*
G01X-1842136Y-1514586D01*
G01X-1827194Y-1506032D01*
G01X-1814149Y-1494795D01*
G01X-1803476Y-1481286D01*
G01X-1795561Y-1465996D01*
G01X-1793954Y-1460540D01*
G01X-1790816Y-1460540D01*
G01X-1789018Y-1474194D01*
G01X-1783748Y-1486917D01*
G01X-1775365Y-1497843D01*
G01X-1764439Y-1506227D01*
G01X-1751716Y-1511497D01*
G01X-1738062Y-1513294D01*
G01X-1724408Y-1511497D01*
G01X-1711685Y-1506227D01*
G01X-1700759Y-1497843D01*
G01X-1692375Y-1486917D01*
G01X-1687105Y-1474194D01*
G01X-1685308Y-1460540D01*
G01X-1687105Y-1446887D01*
G01X-1687953Y-1444840D01*
G01X-1364559Y-1444840D01*
G01X-1362762Y-1458494D01*
G01X-1357492Y-1471217D01*
G01X-1349108Y-1482143D01*
G01X-1338182Y-1490526D01*
G01X-1325459Y-1495796D01*
G01X-1311805Y-1497594D01*
G01X-1298152Y-1495796D01*
G01X-1285428Y-1490526D01*
G01X-1274503Y-1482143D01*
G01X-1266119Y-1471217D01*
G01X-1260849Y-1458494D01*
G01X-1259051Y-1444840D01*
G01X-1260849Y-1431186D01*
G01X-1266119Y-1418463D01*
G01X-1274503Y-1407537D01*
G01X-1285428Y-1399154D01*
G01X-1298152Y-1393883D01*
G01X-1311805Y-1392086D01*
G01X-1325459Y-1393883D01*
G01X-1338182Y-1399154D01*
G01X-1349108Y-1407537D01*
G01X-1357492Y-1418463D01*
G01X-1362762Y-1431186D01*
G01X-1364559Y-1444840D01*
G01X-1364559Y-1444840D01*
G01X-1687953Y-1444840D01*
G01X-1692375Y-1434163D01*
G01X-1700759Y-1423238D01*
G01X-1711685Y-1414854D01*
G01X-1724408Y-1409584D01*
G01X-1738062Y-1407786D01*
G01X-1751716Y-1409584D01*
G01X-1764439Y-1414854D01*
G01X-1775365Y-1423238D01*
G01X-1783748Y-1434163D01*
G01X-1789018Y-1446887D01*
G01X-1790816Y-1460540D01*
G01X-1790816Y-1460540D01*
G01X-1793954Y-1460540D01*
G01X-1790694Y-1449481D01*
G01X-1789052Y-1432342D01*
G01X-1789052Y-1372342D01*
G01X-1791024Y-1353579D01*
G01X-1796854Y-1335635D01*
G01X-1806288Y-1319295D01*
G01X-1818912Y-1305273D01*
G01X-1834175Y-1294183D01*
G01X-1835575Y-1293559D01*
G01X-1480501Y-1293559D01*
G01X-1478704Y-1307213D01*
G01X-1473434Y-1319936D01*
G01X-1465050Y-1330862D01*
G01X-1454124Y-1339246D01*
G01X-1441401Y-1344516D01*
G01X-1427747Y-1346313D01*
G01X-1414093Y-1344516D01*
G01X-1401370Y-1339246D01*
G01X-1390444Y-1330862D01*
G01X-1382061Y-1319936D01*
G01X-1376791Y-1307213D01*
G01X-1374993Y-1293559D01*
G01X-1376791Y-1279906D01*
G01X-1382061Y-1267182D01*
G01X-1390444Y-1256257D01*
G01X-1401370Y-1247873D01*
G01X-1414093Y-1242603D01*
G01X-1427747Y-1240805D01*
G01X-1441401Y-1242603D01*
G01X-1454124Y-1247873D01*
G01X-1465050Y-1256257D01*
G01X-1473434Y-1267182D01*
G01X-1478704Y-1279906D01*
G01X-1480501Y-1293559D01*
G01X-1480501Y-1293559D01*
G01X-1835575Y-1293559D01*
G01X-1851411Y-1286508D01*
G01X-1869865Y-1282584D01*
G01X-1888733Y-1282582D01*
G01X-1907188Y-1286503D01*
G01X-1924425Y-1294176D01*
G01X-1939690Y-1305264D01*
G01X-1952316Y-1319283D01*
G01X-1961752Y-1335622D01*
G01X-1967585Y-1353565D01*
G01X-1971344Y-1340132D01*
G01X-1978493Y-1328154D01*
G01X-1988531Y-1318468D01*
G01X-2000757Y-1311752D01*
G01X-2014315Y-1308475D01*
G01X-2028259Y-1308866D01*
G01X-2041612Y-1312898D01*
G01X-2053442Y-1320289D01*
G01X-2062922Y-1330522D01*
G01X-2069387Y-1342882D01*
G01X-2072388Y-1356504D01*
G01X-2071713Y-1370437D01*
G01X-2067410Y-1383706D01*
G01X-2059780Y-1395383D01*
G01X-2049356Y-1404652D01*
G01X-2036867Y-1410865D01*
G01X-2023186Y-1413587D01*
G01X-2009270Y-1412629D01*
G01X-1996092Y-1408057D01*
G01X-1984572Y-1400190D01*
G01X-1975517Y-1389580D01*
G01X-1969560Y-1376967D01*
G01X-1969560Y-1432342D01*
G01X-1967918Y-1449481D01*
G01X-1963051Y-1465996D01*
G01X-1955137Y-1481286D01*
G01X-1944463Y-1494795D01*
G01X-1931418Y-1506032D01*
G01X-1916477Y-1514586D01*
G01X-2707133Y-1514587D01*
G01X-2692191Y-1506032D01*
G01X-2679146Y-1494795D01*
G01X-2668473Y-1481286D01*
G01X-2660558Y-1465996D01*
G01X-2655691Y-1449481D01*
G01X-2654049Y-1432342D01*
G01X-2654049Y-1372342D01*
G01X-2656022Y-1353578D01*
G01X-2661852Y-1335633D01*
G01X-2671286Y-1319293D01*
G01X-2683912Y-1305271D01*
G01X-2684505Y-1304840D01*
G01X-2664559Y-1304840D01*
G01X-2662761Y-1318494D01*
G01X-2657491Y-1331217D01*
G01X-2649108Y-1342143D01*
G01X-2638182Y-1350526D01*
G01X-2625459Y-1355796D01*
G01X-2611805Y-1357594D01*
G01X-2598151Y-1355796D01*
G01X-2585428Y-1350526D01*
G01X-2574502Y-1342143D01*
G01X-2566118Y-1331217D01*
G01X-2560848Y-1318494D01*
G01X-2559051Y-1304840D01*
G01X-2560848Y-1291186D01*
G01X-2566118Y-1278463D01*
G01X-2574502Y-1267537D01*
G01X-2585428Y-1259154D01*
G01X-2598151Y-1253883D01*
G01X-2611805Y-1252086D01*
G01X-2625459Y-1253883D01*
G01X-2638182Y-1259154D01*
G01X-2649108Y-1267537D01*
G01X-2657491Y-1278463D01*
G01X-2662761Y-1291186D01*
G01X-2664559Y-1304840D01*
G01X-2664559Y-1304840D01*
G01X-2684505Y-1304840D01*
G01X-2699176Y-1294180D01*
G01X-2716413Y-1286506D01*
G01X-2734869Y-1282583D01*
G01X-2753737Y-1282583D01*
G01X-2772193Y-1286506D01*
G01X-2789430Y-1294180D01*
G01X-2804695Y-1305271D01*
G01X-2817320Y-1319293D01*
G01X-2826754Y-1335633D01*
G01X-2832585Y-1353578D01*
G01X-2834557Y-1372342D01*
G01X-2834557Y-1432342D01*
G01X-2834551Y-1433397D01*
G01X-2842442Y-1422356D01*
G01X-2852889Y-1413694D01*
G01X-2865200Y-1407984D01*
G01X-2878560Y-1405603D01*
G01X-2892086Y-1406709D01*
G01X-2904882Y-1411229D01*
G01X-2916101Y-1418864D01*
G01X-2925001Y-1429109D01*
G01X-2930994Y-1441285D01*
G01X-2933682Y-1454587D01*
G01X-2932887Y-1468134D01*
G01X-2928663Y-1481031D01*
G01X-2921288Y-1492423D01*
G01X-2911251Y-1501557D01*
G01X-2899216Y-1507828D01*
G01X-2885980Y-1510822D01*
G01X-2872417Y-1510339D01*
G01X-2859427Y-1506413D01*
G01X-2847868Y-1499302D01*
G01X-2838505Y-1489478D01*
G01X-2831959Y-1477591D01*
G01X-2828662Y-1464427D01*
G01X-2820811Y-1480220D01*
G01X-2810040Y-1494184D01*
G01X-2796758Y-1505788D01*
G01X-2781474Y-1514587D01*
G01X-3411843Y-1514587D01*
G01X-3412633Y-1514597D01*
G01X-3424851Y-1513202D01*
G01X-3436199Y-1508463D01*
G01X-3445780Y-1500754D01*
G01X-3452837Y-1490684D01*
G01X-3456815Y-1479048D01*
G01X-3457399Y-1466765D01*
G01X-3454542Y-1454804D01*
G01X-3448884Y-1444840D01*
G01X-3364559Y-1444840D01*
G01X-3362762Y-1458494D01*
G01X-3357492Y-1471217D01*
G01X-3349108Y-1482143D01*
G01X-3338182Y-1490526D01*
G01X-3325459Y-1495796D01*
G01X-3311805Y-1497594D01*
G01X-3298152Y-1495796D01*
G01X-3285428Y-1490526D01*
G01X-3274503Y-1482143D01*
G01X-3266119Y-1471217D01*
G01X-3260849Y-1458494D01*
G01X-3259051Y-1444840D01*
G01X-3260849Y-1431186D01*
G01X-3266119Y-1418463D01*
G01X-3274503Y-1407537D01*
G01X-3285428Y-1399154D01*
G01X-3298152Y-1393883D01*
G01X-3311805Y-1392086D01*
G01X-3325459Y-1393883D01*
G01X-3338182Y-1399154D01*
G01X-3349108Y-1407537D01*
G01X-3357492Y-1418463D01*
G01X-3362762Y-1431186D01*
G01X-3364559Y-1444840D01*
G01X-3364559Y-1444840D01*
G01X-3448884Y-1444840D01*
G01X-3448470Y-1444110D01*
G01X-3289199Y-1284840D01*
G01X-3204559Y-1284840D01*
G01X-3202761Y-1298493D01*
G01X-3197491Y-1311217D01*
G01X-3189108Y-1322142D01*
G01X-3178182Y-1330526D01*
G01X-3165459Y-1335796D01*
G01X-3151805Y-1337594D01*
G01X-3138151Y-1335796D01*
G01X-3125428Y-1330526D01*
G01X-3114502Y-1322142D01*
G01X-3106119Y-1311217D01*
G01X-3100849Y-1298493D01*
G01X-3099051Y-1284840D01*
G01X-3100849Y-1271186D01*
G01X-3106119Y-1258463D01*
G01X-3114502Y-1247537D01*
G01X-3125428Y-1239153D01*
G01X-3138151Y-1233883D01*
G01X-3151805Y-1232086D01*
G01X-3165459Y-1233883D01*
G01X-3178182Y-1239153D01*
G01X-3189108Y-1247537D01*
G01X-3197491Y-1258463D01*
G01X-3202761Y-1271186D01*
G01X-3204559Y-1284840D01*
G01X-3204559Y-1284840D01*
G01X-3289199Y-1284840D01*
G01X-3240894Y-1236534D01*
G01X-3223538Y-1216504D01*
G01X-3209209Y-1194208D01*
G01X-3198199Y-1170100D01*
G01X-3193535Y-1154214D01*
G01X-2888357Y-1154214D01*
G01X-2886019Y-1168207D01*
G01X-2880038Y-1181071D01*
G01X-2870845Y-1191876D01*
G01X-2859105Y-1199840D01*
G01X-2845667Y-1204388D01*
G01X-2855222Y-1214875D01*
G01X-2861638Y-1227528D01*
G01X-2864449Y-1241433D01*
G01X-2863453Y-1255585D01*
G01X-2858722Y-1268959D01*
G01X-2850598Y-1280590D01*
G01X-2839669Y-1289635D01*
G01X-2826725Y-1295440D01*
G01X-2812701Y-1297586D01*
G01X-2798613Y-1295918D01*
G01X-2798613Y-1295918D01*
G01X-2785479Y-1290556D01*
G01X-2774249Y-1281887D01*
G01X-2765734Y-1270540D01*
G01X-2760552Y-1257334D01*
G01X-2759076Y-1243224D01*
G01X-2761413Y-1229232D01*
G01X-2767394Y-1216368D01*
G01X-2776587Y-1205563D01*
G01X-2788327Y-1197598D01*
G01X-2801765Y-1193050D01*
G01X-2792210Y-1182564D01*
G01X-2785795Y-1169910D01*
G01X-2782983Y-1156005D01*
G01X-2783979Y-1141854D01*
G01X-2788710Y-1128479D01*
G01X-2796834Y-1116849D01*
G01X-2807763Y-1107804D01*
G01X-2820707Y-1101998D01*
G01X-2834731Y-1099852D01*
G01X-2848819Y-1101521D01*
G01X-2861953Y-1106883D01*
G01X-2873183Y-1115551D01*
G01X-2881698Y-1126898D01*
G01X-2886880Y-1140104D01*
G01X-2888357Y-1154214D01*
G01X-3193535Y-1154214D01*
G01X-3190733Y-1144671D01*
G01X-3186961Y-1118438D01*
G01X-3186961Y-1091934D01*
G01X-3190733Y-1065701D01*
G01X-3190986Y-1064840D01*
G01X-3164559Y-1064840D01*
G01X-3162762Y-1078493D01*
G01X-3157491Y-1091217D01*
G01X-3149108Y-1102142D01*
G01X-3138182Y-1110526D01*
G01X-3125459Y-1115796D01*
G01X-3111805Y-1117594D01*
G01X-3098151Y-1115796D01*
G01X-3085428Y-1110526D01*
G01X-3074502Y-1102142D01*
G01X-3066119Y-1091217D01*
G01X-3060849Y-1078493D01*
G01X-3059051Y-1064840D01*
G01X-3060849Y-1051186D01*
G01X-3063532Y-1044707D01*
G01X-3056277Y-1044707D01*
G01X-3054479Y-1058361D01*
G01X-3049209Y-1071084D01*
G01X-3040826Y-1082010D01*
G01X-3029900Y-1090394D01*
G01X-3017177Y-1095664D01*
G01X-3003523Y-1097461D01*
G01X-2989869Y-1095664D01*
G01X-2977146Y-1090394D01*
G01X-2966220Y-1082010D01*
G01X-2957836Y-1071084D01*
G01X-2952566Y-1058361D01*
G01X-2950769Y-1044707D01*
G01X-2952566Y-1031054D01*
G01X-2957836Y-1018330D01*
G01X-2966220Y-1007405D01*
G01X-2977146Y-999021D01*
G01X-2989869Y-993751D01*
G01X-3003523Y-991953D01*
G01X-3017177Y-993751D01*
G01X-3029900Y-999021D01*
G01X-3040826Y-1007405D01*
G01X-3049209Y-1018330D01*
G01X-3054479Y-1031054D01*
G01X-3056277Y-1044707D01*
G01X-3056277Y-1044707D01*
G01X-3063532Y-1044707D01*
G01X-3066119Y-1038463D01*
G01X-3074502Y-1027537D01*
G01X-3085428Y-1019153D01*
G01X-3098151Y-1013883D01*
G01X-3111805Y-1012086D01*
G01X-3125459Y-1013883D01*
G01X-3138182Y-1019153D01*
G01X-3149108Y-1027537D01*
G01X-3157491Y-1038463D01*
G01X-3162762Y-1051186D01*
G01X-3164559Y-1064840D01*
G01X-3164559Y-1064840D01*
G01X-3190986Y-1064840D01*
G01X-3198199Y-1040272D01*
G01X-3209209Y-1016164D01*
G01X-3223538Y-993868D01*
G01X-3240894Y-973838D01*
G01X-3260923Y-956482D01*
G01X-3283219Y-942154D01*
G01X-3307327Y-931144D01*
G01X-3332757Y-923677D01*
G01X-3358990Y-919905D01*
G01X-3385493Y-919905D01*
G01X-3411726Y-923677D01*
G01X-3437156Y-931144D01*
G01X-3461264Y-942154D01*
G01X-3483560Y-956482D01*
G01X-3503589Y-973838D01*
G01X-3711810Y-1182059D01*
G01X-3722522Y-1187865D01*
G01X-3734418Y-1190492D01*
G01X-3746579Y-1189738D01*
G01X-3758060Y-1185661D01*
G01X-3767972Y-1178576D01*
G01X-3775546Y-1169034D01*
G01X-3780197Y-1157773D01*
G01X-3781563Y-1145666D01*
G01X-3781552Y-1144874D01*
G01X-3781552Y-1039740D01*
G01X-3698259Y-1039740D01*
G01X-3696462Y-1053394D01*
G01X-3691192Y-1066117D01*
G01X-3682808Y-1077043D01*
G01X-3671882Y-1085426D01*
G01X-3659159Y-1090696D01*
G01X-3645505Y-1092494D01*
G01X-3631852Y-1090696D01*
G01X-3619128Y-1085426D01*
G01X-3608203Y-1077043D01*
G01X-3599819Y-1066117D01*
G01X-3594549Y-1053394D01*
G01X-3592751Y-1039740D01*
G01X-3594549Y-1026086D01*
G01X-3599819Y-1013363D01*
G01X-3608203Y-1002437D01*
G01X-3619128Y-994054D01*
G01X-3631852Y-988783D01*
G01X-3645505Y-986986D01*
G01X-3659159Y-988783D01*
G01X-3671882Y-994054D01*
G01X-3682808Y-1002437D01*
G01X-3691192Y-1013363D01*
G01X-3696462Y-1026086D01*
G01X-3698259Y-1039740D01*
G01X-3698259Y-1039740D01*
G01X-3781552Y-1039740D01*
G01X-3781552Y-793287D01*
G01X-3595813Y-793287D01*
G01X-3595740Y-807521D01*
G01X-3591865Y-821218D01*
G01X-3584469Y-833380D01*
G01X-3574091Y-843122D01*
G01X-3582620Y-854518D01*
G01X-3587791Y-867780D01*
G01X-3589228Y-881942D01*
G01X-3586827Y-895972D01*
G01X-3580762Y-908850D01*
G01X-3571475Y-919637D01*
G01X-3559642Y-927549D01*
G01X-3546125Y-932009D01*
G01X-3531907Y-932693D01*
G01X-3531907Y-932693D01*
G01X-3518024Y-929550D01*
G01X-3505486Y-922810D01*
G01X-3495207Y-912964D01*
G01X-3490379Y-904840D01*
G01X-3164559Y-904840D01*
G01X-3162762Y-918493D01*
G01X-3157491Y-931217D01*
G01X-3149108Y-942142D01*
G01X-3138182Y-950526D01*
G01X-3125459Y-955796D01*
G01X-3111805Y-957594D01*
G01X-3098151Y-955796D01*
G01X-3085428Y-950526D01*
G01X-3074502Y-942142D01*
G01X-3066119Y-931217D01*
G01X-3060849Y-918493D01*
G01X-3059228Y-906180D01*
G01X-2924542Y-906180D01*
G01X-2922198Y-920446D01*
G01X-2916069Y-933540D01*
G01X-2906615Y-944479D01*
G01X-2894547Y-952440D01*
G01X-2880772Y-956826D01*
G01X-2866322Y-957308D01*
G01X-2852285Y-953849D01*
G01X-2839713Y-946710D01*
G01X-2829552Y-936426D01*
G01X-2829557Y-937328D01*
G01X-2829557Y-1027328D01*
G01X-2827546Y-1045737D01*
G01X-2821607Y-1063277D01*
G01X-2812020Y-1079122D01*
G01X-2799239Y-1092522D01*
G01X-2783865Y-1102846D01*
G01X-2766625Y-1109608D01*
G01X-2748332Y-1112486D01*
G01X-2729848Y-1111347D01*
G01X-2712047Y-1106244D01*
G01X-2695767Y-1097417D01*
G01X-2681778Y-1085283D01*
G01X-2670738Y-1070415D01*
G01X-2663170Y-1053513D01*
G01X-2658212Y-1065353D01*
G01X-2651031Y-1075993D01*
G01X-2641907Y-1085021D01*
G01X-2631192Y-1092089D01*
G01X-2644865Y-1093728D01*
G01X-2657647Y-1098849D01*
G01X-2668669Y-1107104D01*
G01X-2677180Y-1117930D01*
G01X-2682598Y-1130590D01*
G01X-2684555Y-1144221D01*
G01X-2682918Y-1157894D01*
G01X-2677798Y-1170677D01*
G01X-2669545Y-1181700D01*
G01X-2658719Y-1190211D01*
G01X-2646060Y-1195631D01*
G01X-2632430Y-1197590D01*
G01X-2618757Y-1195955D01*
G01X-2605973Y-1190836D01*
G01X-2594949Y-1182584D01*
G01X-2586436Y-1171760D01*
G01X-2581015Y-1159101D01*
G01X-2579054Y-1145471D01*
G01X-2580688Y-1131797D01*
G01X-2585805Y-1119013D01*
G01X-2594056Y-1107988D01*
G01X-2604880Y-1099474D01*
G01X-2589326Y-1098587D01*
G01X-2574425Y-1094038D01*
G01X-2561028Y-1086087D01*
G01X-2549897Y-1075186D01*
G01X-2541667Y-1061958D01*
G01X-2536807Y-1047156D01*
G01X-2535595Y-1031624D01*
G01X-2538098Y-1016248D01*
G01X-2544175Y-1001902D01*
G01X-2553480Y-989407D01*
G01X-2565481Y-979472D01*
G01X-2579494Y-972666D01*
G01X-2594722Y-969375D01*
G01X-2610296Y-969788D01*
G01X-2625328Y-973880D01*
G01X-2638962Y-981419D01*
G01X-2650420Y-991975D01*
G01X-2659049Y-1004946D01*
G01X-2659049Y-937328D01*
G01X-2660819Y-920049D01*
G01X-2666053Y-903487D01*
G01X-2674536Y-888330D01*
G01X-2685915Y-875207D01*
G01X-2699717Y-864662D01*
G01X-2715370Y-857134D01*
G01X-2732224Y-852934D01*
G01X-2749580Y-852238D01*
G01X-2766716Y-855073D01*
G01X-2782922Y-861323D01*
G01X-2797525Y-870727D01*
G01X-2809919Y-882896D01*
G01X-2819589Y-897325D01*
G01X-2823590Y-883432D01*
G01X-2831212Y-871147D01*
G01X-2841882Y-861393D01*
G01X-2854800Y-854901D01*
G01X-2868996Y-852161D01*
G01X-2883402Y-853376D01*
G01X-2896937Y-858457D01*
G01X-2908584Y-867021D01*
G01X-2917470Y-878425D01*
G01X-2922926Y-891814D01*
G01X-2922926Y-891814D01*
G01X-2924542Y-906180D01*
G01X-3059228Y-906180D01*
G01X-3059051Y-904840D01*
G01X-3060849Y-891186D01*
G01X-3066119Y-878463D01*
G01X-3074502Y-867537D01*
G01X-3085428Y-859153D01*
G01X-3098151Y-853883D01*
G01X-3111805Y-852086D01*
G01X-3125459Y-853883D01*
G01X-3138182Y-859153D01*
G01X-3149108Y-867537D01*
G01X-3157491Y-878463D01*
G01X-3162762Y-891186D01*
G01X-3164559Y-904840D01*
G01X-3164559Y-904840D01*
G01X-3490379Y-904840D01*
G01X-3487934Y-900727D01*
G01X-3484198Y-886992D01*
G01X-3484270Y-872758D01*
G01X-3488145Y-859061D01*
G01X-3495541Y-846899D01*
G01X-3497735Y-844840D01*
G01X-3364559Y-844840D01*
G01X-3362762Y-858493D01*
G01X-3357491Y-871217D01*
G01X-3349108Y-882142D01*
G01X-3338182Y-890526D01*
G01X-3325459Y-895796D01*
G01X-3311805Y-897594D01*
G01X-3298151Y-895796D01*
G01X-3285428Y-890526D01*
G01X-3274502Y-882142D01*
G01X-3266119Y-871217D01*
G01X-3260849Y-858493D01*
G01X-3259051Y-844840D01*
G01X-3260849Y-831186D01*
G01X-3266119Y-818463D01*
G01X-3274502Y-807537D01*
G01X-3285428Y-799153D01*
G01X-3298151Y-793883D01*
G01X-3311805Y-792086D01*
G01X-3325459Y-793883D01*
G01X-3338182Y-799153D01*
G01X-3349108Y-807537D01*
G01X-3357491Y-818463D01*
G01X-3362762Y-831186D01*
G01X-3364559Y-844840D01*
G01X-3364559Y-844840D01*
G01X-3497735Y-844840D01*
G01X-3505920Y-837157D01*
G01X-3497391Y-825760D01*
G01X-3492220Y-812499D01*
G01X-3490782Y-798337D01*
G01X-3493183Y-784307D01*
G01X-3499248Y-771429D01*
G01X-3508535Y-760642D01*
G01X-3520368Y-752730D01*
G01X-3533886Y-748270D01*
G01X-3548104Y-747586D01*
G01X-3561987Y-750729D01*
G01X-3574525Y-757469D01*
G01X-3584804Y-767315D01*
G01X-3592076Y-779552D01*
G01X-3595813Y-793287D01*
G01X-3781552Y-793287D01*
G01X-3781551Y-764839D01*
G01X-3779856Y-751964D01*
G01X-3774887Y-739966D01*
G01X-3766981Y-729664D01*
G01X-3756679Y-721758D01*
G01X-3744681Y-716788D01*
G01X-3731805Y-715093D01*
G01X-3591805Y-715093D01*
G01X-3574197Y-713359D01*
G01X-3557266Y-708223D01*
G01X-3550936Y-704840D01*
G01X-3518859Y-704840D01*
G01X-3517062Y-718493D01*
G01X-3511791Y-731217D01*
G01X-3503408Y-742142D01*
G01X-3492482Y-750526D01*
G01X-3479759Y-755796D01*
G01X-3466105Y-757594D01*
G01X-3452451Y-755796D01*
G01X-3439728Y-750526D01*
G01X-3434915Y-746832D01*
G01X-3010764Y-746832D01*
G01X-3008966Y-760486D01*
G01X-3003696Y-773209D01*
G01X-2995313Y-784135D01*
G01X-2984387Y-792519D01*
G01X-2971664Y-797789D01*
G01X-2958010Y-799586D01*
G01X-2944356Y-797789D01*
G01X-2931633Y-792519D01*
G01X-2920707Y-784135D01*
G01X-2912324Y-773209D01*
G01X-2907053Y-760486D01*
G01X-2905256Y-746832D01*
G01X-2907053Y-733179D01*
G01X-2912324Y-720455D01*
G01X-2920707Y-709530D01*
G01X-2931633Y-701146D01*
G01X-2944356Y-695876D01*
G01X-2958010Y-694078D01*
G01X-2971664Y-695876D01*
G01X-2984387Y-701146D01*
G01X-2995313Y-709530D01*
G01X-3003696Y-720455D01*
G01X-3008966Y-733179D01*
G01X-3010764Y-746832D01*
G01X-3010764Y-746832D01*
G01X-3434915Y-746832D01*
G01X-3428802Y-742142D01*
G01X-3420419Y-731217D01*
G01X-3415149Y-718493D01*
G01X-3413351Y-704840D01*
G01X-3415149Y-691186D01*
G01X-3420419Y-678463D01*
G01X-3428802Y-667537D01*
G01X-3439728Y-659153D01*
G01X-3452451Y-653883D01*
G01X-3466105Y-652086D01*
G01X-3479759Y-653883D01*
G01X-3492482Y-659153D01*
G01X-3503408Y-667537D01*
G01X-3511791Y-678463D01*
G01X-3517062Y-691186D01*
G01X-3518859Y-704840D01*
G01X-3518859Y-704840D01*
G01X-3550936Y-704840D01*
G01X-3541663Y-699883D01*
G01X-3527986Y-688658D01*
G01X-3516762Y-674982D01*
G01X-3508422Y-659378D01*
G01X-3503286Y-642447D01*
G01X-3501552Y-624839D01*
G01X-3501987Y-619723D01*
G01X-3501988Y-589159D01*
G01X-3501552Y-584039D01*
G01X-3501552Y-574039D01*
G01X-3502341Y-563538D01*
G01X-3504691Y-553274D01*
G01X-3488964Y-549209D01*
G01X-3474377Y-542061D01*
G01X-3461529Y-532122D01*
G01X-3450945Y-519799D01*
G01X-3443060Y-505598D01*
G01X-3438195Y-490100D01*
G01X-3436552Y-473939D01*
G01X-3436552Y-323939D01*
G01X-3438130Y-308103D01*
G01X-3442801Y-292889D01*
G01X-3450384Y-278897D01*
G01X-3460578Y-266675D01*
G01X-3472983Y-256706D01*
G01X-3487112Y-249381D01*
G01X-3502408Y-244987D01*
G01X-3501551Y-234044D01*
G01X-3501548Y-230064D01*
G01X-3500621Y-214404D01*
G01X-3503044Y-198905D01*
G01X-3487627Y-194602D01*
G01X-3473370Y-187324D01*
G01X-3460842Y-177362D01*
G01X-3450539Y-165111D01*
G01X-3442873Y-151060D01*
G01X-3438148Y-135767D01*
G01X-3436552Y-119840D01*
G01X-3436552Y30160D01*
G01X-3437143Y39882D01*
G01X-3438907Y49461D01*
G01X-3301900Y49461D01*
G01X-3311310Y38390D01*
G01X-3317339Y25171D01*
G01X-3319532Y10808D01*
G01X-3317720Y-3608D01*
G01X-3312041Y-16982D01*
G01X-3304268Y-26981D01*
G01X-3294337Y-34840D01*
G01X-3304813Y-43256D01*
G01X-3312823Y-54046D01*
G01X-3317847Y-66510D01*
G01X-3319559Y-79839D01*
G01X-3317847Y-93169D01*
G01X-3312823Y-105633D01*
G01X-3304813Y-116423D01*
G01X-3294337Y-124839D01*
G01X-3304813Y-133256D01*
G01X-3312824Y-144046D01*
G01X-3317848Y-156510D01*
G01X-3319559Y-169839D01*
G01X-3317848Y-183168D01*
G01X-3312824Y-195633D01*
G01X-3304814Y-206423D01*
G01X-3294337Y-214839D01*
G01X-3304774Y-223215D01*
G01X-3312768Y-233947D01*
G01X-3317804Y-246346D01*
G01X-3319559Y-259612D01*
G01X-3317919Y-272894D01*
G01X-3312989Y-285335D01*
G01X-3305088Y-296136D01*
G01X-3294723Y-304601D01*
G01X-3282562Y-310185D01*
G01X-3269387Y-312530D01*
G01X-3256045Y-311484D01*
G01X-3243396Y-307115D01*
G01X-3242031Y-351574D01*
G01X-3242031Y-351574D01*
G01X-3243293Y-373371D01*
G01X-3248534Y-394566D01*
G01X-3257577Y-414439D01*
G01X-3270114Y-432314D01*
G01X-3275028Y-439203D01*
G01X-3293001Y-473017D01*
G01X-3307734Y-508364D01*
G01X-3319098Y-544933D01*
G01X-3326993Y-582404D01*
G01X-3331351Y-620449D01*
G01X-3334458Y-634222D01*
G01X-3333801Y-648326D01*
G01X-3329426Y-661750D01*
G01X-3321647Y-673533D01*
G01X-3311022Y-682831D01*
G01X-3298311Y-688978D01*
G01X-3284426Y-691534D01*
G01X-3270359Y-690314D01*
G01X-3257120Y-685408D01*
G01X-3245657Y-677166D01*
G01X-3236789Y-666179D01*
G01X-3231154Y-653233D01*
G01X-3229154Y-639257D01*
G01X-3230933Y-625250D01*
G01X-3226448Y-590878D01*
G01X-3218137Y-557226D01*
G01X-3206106Y-524719D01*
G01X-3190505Y-493765D01*
G01X-3175252Y-472524D01*
G01X-3162640Y-449617D01*
G01X-3152848Y-425370D01*
G01X-3149745Y-413906D01*
G01X-3010058Y-413906D01*
G01X-3007447Y-427221D01*
G01X-3001527Y-439430D01*
G01X-2992688Y-449725D01*
G01X-2981515Y-457425D01*
G01X-2992898Y-466095D01*
G01X-3001533Y-477505D01*
G01X-3006783Y-490816D01*
G01X-3008263Y-505049D01*
G01X-3005864Y-519155D01*
G01X-2999762Y-532098D01*
G01X-2990407Y-542925D01*
G01X-2983455Y-572003D01*
G01X-2972840Y-599952D01*
G01X-2958738Y-626314D01*
G01X-2941379Y-650655D01*
G01X-2921049Y-672576D01*
G01X-2898082Y-691716D01*
G01X-2872856Y-707761D01*
G01X-2845784Y-720448D01*
G01X-2845784Y-720448D01*
G01X-2804234Y-735600D01*
G01X-2761993Y-748706D01*
G01X-2719164Y-759734D01*
G01X-2719164Y-759734D01*
G01X-2728796Y-767228D01*
G01X-2736448Y-776734D01*
G01X-2741712Y-787744D01*
G01X-2744305Y-799669D01*
G01X-2744088Y-811870D01*
G01X-2741074Y-823695D01*
G01X-2741074Y-823695D01*
G01X-2735423Y-834512D01*
G01X-2727438Y-843740D01*
G01X-2717546Y-850887D01*
G01X-2706277Y-855570D01*
G01X-2694233Y-857538D01*
G01X-2682059Y-856686D01*
G01X-2675974Y-869482D01*
G01X-2666703Y-880198D01*
G01X-2654914Y-888059D01*
G01X-2641457Y-892498D01*
G01X-2627305Y-893196D01*
G01X-2613477Y-890102D01*
G01X-2600972Y-883439D01*
G01X-2590691Y-873687D01*
G01X-2580250Y-882467D01*
G01X-2567907Y-888275D01*
G01X-2554487Y-890724D01*
G01X-2540888Y-889651D01*
G01X-2528019Y-885126D01*
G01X-2516740Y-877453D01*
G01X-2507806Y-867144D01*
G01X-2501814Y-854889D01*
G01X-2499165Y-841507D01*
G01X-2486699Y-848702D01*
G01X-2472753Y-852259D01*
G01X-2458364Y-851915D01*
G01X-2444604Y-847695D01*
G01X-2432496Y-839912D01*
G01X-2422943Y-829147D01*
G01X-2416655Y-816201D01*
G01X-2414100Y-802036D01*
G01X-2415468Y-787709D01*
G01X-2415468Y-787709D01*
G01X-2357190Y-795363D01*
G01X-2299505Y-806650D01*
G01X-2242640Y-821527D01*
G01X-2242640Y-821527D01*
G01X-2168995Y-841506D01*
G01X-2094532Y-858184D01*
G01X-2019400Y-871528D01*
G01X-1943749Y-881512D01*
G01X-1952633Y-893837D01*
G01X-1959188Y-907543D01*
G01X-1963206Y-922195D01*
G01X-1964560Y-937328D01*
G01X-1964560Y-1004895D01*
G01X-1972801Y-992404D01*
G01X-1983671Y-982118D01*
G01X-1996599Y-974579D01*
G01X-2010904Y-970184D01*
G01X-2025835Y-969163D01*
G01X-2040605Y-971571D01*
G01X-2054439Y-977280D01*
G01X-2066607Y-985991D01*
G01X-2076472Y-997245D01*
G01X-2083513Y-1010450D01*
G01X-2087360Y-1024913D01*
G01X-2087812Y-1039871D01*
G01X-2084843Y-1054539D01*
G01X-2078611Y-1068145D01*
G01X-2069443Y-1079974D01*
G01X-2057822Y-1089402D01*
G01X-2044358Y-1095935D01*
G01X-2029760Y-1099229D01*
G01X-2014795Y-1099111D01*
G01X-2000250Y-1095586D01*
G01X-1986892Y-1088840D01*
G01X-1975421Y-1079229D01*
G01X-1966442Y-1067256D01*
G01X-1960426Y-1053553D01*
G01X-1953714Y-1068942D01*
G01X-1944116Y-1082717D01*
G01X-1932005Y-1094343D01*
G01X-1917850Y-1103371D01*
G01X-1902200Y-1109450D01*
G01X-1885663Y-1112344D01*
G01X-2152903Y-1118785D01*
G01X-2168613Y-1117497D01*
G01X-2155718Y-1115081D01*
G01X-2143817Y-1109558D01*
G01X-2133648Y-1101268D01*
G01X-2125839Y-1090726D01*
G01X-2120872Y-1078583D01*
G01X-2119056Y-1065590D01*
G01X-2120502Y-1052550D01*
G01X-2125121Y-1040271D01*
G01X-2132628Y-1029511D01*
G01X-2142557Y-1020936D01*
G01X-2154295Y-1015076D01*
G01X-2167117Y-1012294D01*
G01X-2180228Y-1012762D01*
G01X-2192818Y-1016451D01*
G01X-2204109Y-1023133D01*
G01X-2213401Y-1032394D01*
G01X-2217704Y-1019025D01*
G01X-2225381Y-1007264D01*
G01X-2235889Y-997946D01*
G01X-2248484Y-991731D01*
G01X-2262272Y-989060D01*
G01X-2276276Y-990121D01*
G01X-2289505Y-994840D01*
G01X-2301019Y-1002882D01*
G01X-2311138Y-995083D01*
G01X-2322835Y-989945D01*
G01X-2335424Y-987771D01*
G01X-2348167Y-988686D01*
G01X-2360316Y-992637D01*
G01X-2371159Y-999393D01*
G01X-2380059Y-1008558D01*
G01X-2386496Y-1019593D01*
G01X-2390092Y-1031852D01*
G01X-2390634Y-1044616D01*
G01X-2388093Y-1057137D01*
G01X-2382616Y-1068679D01*
G01X-2374526Y-1078566D01*
G01X-2364295Y-1086218D01*
G01X-2351358Y-1113690D01*
G01X-2334891Y-1139202D01*
G01X-2315185Y-1162306D01*
G01X-2292590Y-1182592D01*
G01X-2267504Y-1199702D01*
G01X-2240370Y-1213333D01*
G01X-2211668Y-1223246D01*
G01X-2181905Y-1229265D01*
G01X-2151607Y-1231283D01*
G01X-2150685Y-1231272D01*
G01X-1810883Y-1223082D01*
G01X-1806181Y-1222678D01*
G01X-1770854Y-1215427D01*
G01X-1736535Y-1204347D01*
G01X-1703637Y-1189573D01*
G01X-1672556Y-1171283D01*
G01X-1643667Y-1149697D01*
G01X-1617317Y-1125074D01*
G01X-1593825Y-1097712D01*
G01X-1573474Y-1067940D01*
G01X-1556507Y-1036117D01*
G01X-1531990Y-987084D01*
G01X-1531990Y-987084D01*
G01X-1522593Y-973050D01*
G01X-1510650Y-961107D01*
G01X-1496616Y-951710D01*
G01X-1478627Y-940319D01*
G01X-1462461Y-926462D01*
G01X-1448453Y-910427D01*
G01X-1434197Y-888918D01*
G01X-1422648Y-865843D01*
G01X-1415151Y-844840D01*
G01X-1190050Y-844840D01*
G01X-1188252Y-858493D01*
G01X-1182982Y-871217D01*
G01X-1174598Y-882142D01*
G01X-1163673Y-890526D01*
G01X-1150949Y-895796D01*
G01X-1137296Y-897594D01*
G01X-1123642Y-895796D01*
G01X-1121816Y-895040D01*
G01X-1039858Y-895040D01*
G01X-1038060Y-908693D01*
G01X-1032790Y-921417D01*
G01X-1024406Y-932342D01*
G01X-1013481Y-940726D01*
G01X-1000757Y-945996D01*
G01X-987104Y-947794D01*
G01X-973450Y-945996D01*
G01X-960727Y-940726D01*
G01X-949801Y-932342D01*
G01X-941417Y-921417D01*
G01X-936147Y-908693D01*
G01X-934350Y-895040D01*
G01X-936147Y-881386D01*
G01X-941417Y-868663D01*
G01X-949801Y-857737D01*
G01X-960727Y-849353D01*
G01X-973450Y-844083D01*
G01X-987104Y-842286D01*
G01X-1000757Y-844083D01*
G01X-1013481Y-849353D01*
G01X-1024406Y-857737D01*
G01X-1032790Y-868663D01*
G01X-1038060Y-881386D01*
G01X-1039858Y-895040D01*
G01X-1039858Y-895040D01*
G01X-1121816Y-895040D01*
G01X-1110919Y-890526D01*
G01X-1099993Y-882142D01*
G01X-1091609Y-871217D01*
G01X-1086339Y-858493D01*
G01X-1084542Y-844840D01*
G01X-1086339Y-831186D01*
G01X-1091609Y-818463D01*
G01X-1099993Y-807537D01*
G01X-1110919Y-799153D01*
G01X-1123642Y-793883D01*
G01X-1137296Y-792086D01*
G01X-1150949Y-793883D01*
G01X-1163673Y-799153D01*
G01X-1174598Y-807537D01*
G01X-1182982Y-818463D01*
G01X-1188252Y-831186D01*
G01X-1190050Y-844840D01*
G01X-1190050Y-844840D01*
G01X-1415151Y-844840D01*
G01X-1413974Y-841540D01*
G01X-1408303Y-816367D01*
G01X-1405718Y-790693D01*
G01X-1394466Y-782107D01*
G01X-1389095Y-775040D01*
G01X-879458Y-775040D01*
G01X-877660Y-788693D01*
G01X-872390Y-801417D01*
G01X-864006Y-812342D01*
G01X-853081Y-820726D01*
G01X-840357Y-825996D01*
G01X-826704Y-827794D01*
G01X-813050Y-825996D01*
G01X-800327Y-820726D01*
G01X-789401Y-812342D01*
G01X-781017Y-801417D01*
G01X-775747Y-788693D01*
G01X-773950Y-775040D01*
G01X-775747Y-761386D01*
G01X-781017Y-748663D01*
G01X-789401Y-737737D01*
G01X-800327Y-729353D01*
G01X-813050Y-724083D01*
G01X-826704Y-722286D01*
G01X-840357Y-724083D01*
G01X-853081Y-729353D01*
G01X-864006Y-737737D01*
G01X-872390Y-748663D01*
G01X-877660Y-761386D01*
G01X-879458Y-775040D01*
G01X-879458Y-775040D01*
G01X-1389095Y-775040D01*
G01X-1385902Y-770839D01*
G01X-1380641Y-757699D01*
G01X-1379064Y-743634D01*
G01X-1381283Y-729655D01*
G01X-1387138Y-716770D01*
G01X-1396208Y-705905D01*
G01X-1407841Y-697842D01*
G01X-1421199Y-693163D01*
G01X-1435320Y-692203D01*
G01X-1449188Y-695032D01*
G01X-1461804Y-701446D01*
G01X-1474094Y-695147D01*
G01X-1487597Y-692253D01*
G01X-1501389Y-692964D01*
G01X-1514524Y-697229D01*
G01X-1526102Y-704757D01*
G01X-1535330Y-715031D01*
G01X-1541574Y-727349D01*
G01X-1549384Y-725052D01*
G01X-1557454Y-723985D01*
G01X-1562029Y-711000D01*
G01X-1569808Y-699641D01*
G01X-1580261Y-690681D01*
G01X-1592676Y-684732D01*
G01X-1606208Y-682197D01*
G01X-1610734Y-669309D01*
G01X-1618417Y-658015D01*
G01X-1628743Y-649073D01*
G01X-1641018Y-643081D01*
G01X-1654420Y-640442D01*
G01X-1668051Y-641332D01*
G01X-1680996Y-645692D01*
G01X-1692387Y-653229D01*
G01X-1701462Y-663439D01*
G01X-1707611Y-675636D01*
G01X-1716756Y-665028D01*
G01X-1728371Y-657200D01*
G01X-1741636Y-652705D01*
G01X-1755617Y-651859D01*
G01X-1769328Y-654722D01*
G01X-1781801Y-661092D01*
G01X-1791775Y-655676D01*
G01X-1802676Y-652518D01*
G01X-1814000Y-651765D01*
G01X-1825223Y-653451D01*
G01X-1835826Y-657499D01*
G01X-1845317Y-663721D01*
G01X-1855159Y-657322D01*
G01X-1866172Y-653258D01*
G01X-1877812Y-651729D01*
G01X-1889501Y-652813D01*
G01X-1900661Y-656455D01*
G01X-1900661Y-656455D01*
G01X-1988172Y-628587D01*
G01X-2076602Y-603786D01*
G01X-2165842Y-582083D01*
G01X-2255785Y-563503D01*
G01X-2346320Y-548068D01*
G01X-2437339Y-535799D01*
G01X-2528729Y-526709D01*
G01X-2528729Y-526709D01*
G01X-2550061Y-523901D01*
G01X-2571002Y-518961D01*
G01X-2561381Y-510027D01*
G01X-2554264Y-498994D01*
G01X-2550091Y-486546D01*
G01X-2549122Y-473452D01*
G01X-2550782Y-464100D01*
G01X-2370533Y-464100D01*
G01X-2368736Y-477754D01*
G01X-2363466Y-490477D01*
G01X-2355082Y-501403D01*
G01X-2344156Y-509786D01*
G01X-2331433Y-515057D01*
G01X-2317779Y-516854D01*
G01X-2304125Y-515057D01*
G01X-2291617Y-509876D01*
G01X-1684558Y-509876D01*
G01X-1682760Y-523529D01*
G01X-1677490Y-536253D01*
G01X-1669106Y-547178D01*
G01X-1658181Y-555562D01*
G01X-1645457Y-560832D01*
G01X-1631804Y-562630D01*
G01X-1618150Y-560832D01*
G01X-1605427Y-555562D01*
G01X-1594501Y-547178D01*
G01X-1586117Y-536253D01*
G01X-1580847Y-523529D01*
G01X-1579050Y-509876D01*
G01X-1459522Y-509876D01*
G01X-1457724Y-523529D01*
G01X-1452454Y-536253D01*
G01X-1444071Y-547178D01*
G01X-1433145Y-555562D01*
G01X-1420422Y-560832D01*
G01X-1406768Y-562630D01*
G01X-1393114Y-560832D01*
G01X-1380391Y-555562D01*
G01X-1369465Y-547178D01*
G01X-1361082Y-536253D01*
G01X-1355811Y-523529D01*
G01X-1354014Y-509876D01*
G01X-1355811Y-496222D01*
G01X-1361082Y-483499D01*
G01X-1369465Y-472573D01*
G01X-1380391Y-464189D01*
G01X-1393114Y-458919D01*
G01X-1406768Y-457122D01*
G01X-1420422Y-458919D01*
G01X-1433145Y-464189D01*
G01X-1444071Y-472573D01*
G01X-1452454Y-483499D01*
G01X-1457724Y-496222D01*
G01X-1459522Y-509876D01*
G01X-1459522Y-509876D01*
G01X-1579050Y-509876D01*
G01X-1580847Y-496222D01*
G01X-1586117Y-483499D01*
G01X-1594501Y-472573D01*
G01X-1605427Y-464189D01*
G01X-1618150Y-458919D01*
G01X-1631804Y-457122D01*
G01X-1645457Y-458919D01*
G01X-1658181Y-464189D01*
G01X-1669106Y-472573D01*
G01X-1677490Y-483499D01*
G01X-1682760Y-496222D01*
G01X-1684558Y-509876D01*
G01X-1684558Y-509876D01*
G01X-2291617Y-509876D01*
G01X-2291402Y-509786D01*
G01X-2280476Y-501403D01*
G01X-2272093Y-490477D01*
G01X-2266823Y-477754D01*
G01X-2265025Y-464100D01*
G01X-2266823Y-450446D01*
G01X-2272093Y-437723D01*
G01X-2280476Y-426797D01*
G01X-2291402Y-418414D01*
G01X-2304125Y-413144D01*
G01X-2317779Y-411346D01*
G01X-2331433Y-413144D01*
G01X-2344156Y-418414D01*
G01X-2355082Y-426797D01*
G01X-2363466Y-437723D01*
G01X-2368736Y-450446D01*
G01X-2370533Y-464100D01*
G01X-2370533Y-464100D01*
G01X-2550782Y-464100D01*
G01X-2551416Y-460525D01*
G01X-2556832Y-448565D01*
G01X-2565033Y-438312D01*
G01X-2575512Y-430402D01*
G01X-2587620Y-425325D01*
G01X-2600606Y-423395D01*
G01X-2613667Y-424732D01*
G01X-2625994Y-429252D01*
G01X-2637413Y-420745D01*
G01X-2650691Y-415603D01*
G01X-2664862Y-414199D01*
G01X-2678891Y-416636D01*
G01X-2691758Y-422736D01*
G01X-2702524Y-432055D01*
G01X-2710406Y-443915D01*
G01X-2722712Y-443808D01*
G01X-2729696Y-432139D01*
G01X-2739431Y-422643D01*
G01X-2751270Y-415951D01*
G01X-2764426Y-412508D01*
G01X-2778026Y-412543D01*
G01X-2785014Y-402000D01*
G01X-2794311Y-393424D01*
G01X-2805383Y-387308D01*
G01X-2817592Y-384003D01*
G01X-2830237Y-383698D01*
G01X-2842591Y-386413D01*
G01X-2853943Y-391990D01*
G01X-2863642Y-400109D01*
G01X-2871129Y-410304D01*
G01X-2875974Y-421988D01*
G01X-2884301Y-414134D01*
G01X-2894126Y-408262D01*
G01X-2904986Y-404647D01*
G01X-2908212Y-391467D01*
G01X-2914694Y-379546D01*
G01X-2924002Y-369673D01*
G01X-2935521Y-362501D01*
G01X-2948488Y-358504D01*
G01X-2962045Y-357947D01*
G01X-2975296Y-360867D01*
G01X-2987364Y-367070D01*
G01X-2997451Y-376146D01*
G01X-3004889Y-387494D01*
G01X-3009186Y-400365D01*
G01X-3010058Y-413906D01*
G01X-3149745Y-413906D01*
G01X-3146017Y-400128D01*
G01X-3142244Y-374252D01*
G01X-3141583Y-348111D01*
G01X-3141583Y-348111D01*
G01X-3142947Y-303591D01*
G01X-3142947Y-303591D01*
G01X-3130437Y-309791D01*
G01X-3116738Y-312492D01*
G01X-3102811Y-311505D01*
G01X-3089630Y-306898D01*
G01X-3078119Y-298995D01*
G01X-3069085Y-288349D01*
G01X-3063161Y-275706D01*
G01X-3060760Y-261952D01*
G01X-3062052Y-248050D01*
G01X-3066946Y-234973D01*
G01X-3075099Y-223638D01*
G01X-3085940Y-214839D01*
G01X-3075464Y-206423D01*
G01X-3067453Y-195633D01*
G01X-3062429Y-183169D01*
G01X-3060718Y-169840D01*
G01X-3060718Y-169839D01*
G01X-3012892Y-169839D01*
G01X-3011181Y-183168D01*
G01X-3006157Y-195633D01*
G01X-2998147Y-206423D01*
G01X-2987670Y-214839D01*
G01X-2998286Y-223401D01*
G01X-3006352Y-234398D01*
G01X-3011330Y-247096D01*
G01X-3012886Y-260645D01*
G01X-3010917Y-274141D01*
G01X-3005554Y-286680D01*
G01X-2997155Y-297426D01*
G01X-2986282Y-305659D01*
G01X-2973662Y-310830D01*
G01X-2960138Y-312593D01*
G01X-2946614Y-310830D01*
G01X-2933994Y-305659D01*
G01X-2923122Y-297426D01*
G01X-2914723Y-286680D01*
G01X-2909360Y-274141D01*
G01X-2907390Y-260645D01*
G01X-2908947Y-247096D01*
G01X-2913924Y-234398D01*
G01X-2921991Y-223401D01*
G01X-2932607Y-214839D01*
G01X-2922130Y-206423D01*
G01X-2914120Y-195633D01*
G01X-2909096Y-183169D01*
G01X-2907384Y-169840D01*
G01X-2907384Y-169839D01*
G01X-2859559Y-169839D01*
G01X-2857848Y-183168D01*
G01X-2852824Y-195632D01*
G01X-2844813Y-206423D01*
G01X-2834337Y-214839D01*
G01X-2844953Y-223401D01*
G01X-2853019Y-234398D01*
G01X-2857997Y-247096D01*
G01X-2859553Y-260645D01*
G01X-2857584Y-274141D01*
G01X-2852220Y-286680D01*
G01X-2843822Y-297426D01*
G01X-2832949Y-305659D01*
G01X-2820329Y-310830D01*
G01X-2806805Y-312593D01*
G01X-2793281Y-310830D01*
G01X-2780661Y-305659D01*
G01X-2769788Y-297426D01*
G01X-2761390Y-286680D01*
G01X-2756495Y-275236D01*
G01X-2677639Y-275236D01*
G01X-2676094Y-289092D01*
G01X-2670973Y-302060D01*
G01X-2662634Y-313233D01*
G01X-2651659Y-321832D01*
G01X-2638815Y-327255D01*
G01X-2624999Y-329124D01*
G01X-2611176Y-327309D01*
G01X-2598311Y-321935D01*
G01X-2587303Y-313380D01*
G01X-2563159Y-311261D01*
G01X-2539128Y-308116D01*
G01X-2523873Y-304105D01*
G01X-2509799Y-296983D01*
G01X-2497532Y-287068D01*
G01X-2487617Y-274801D01*
G01X-2480495Y-260727D01*
G01X-2476484Y-245472D01*
G01X-2472933Y-233493D01*
G01X-2466280Y-222916D01*
G01X-2457019Y-214529D01*
G01X-2445837Y-208953D01*
G01X-2433566Y-206603D01*
G01X-2433566Y-206603D01*
G01X-2369802Y-212618D01*
G01X-2306254Y-220605D01*
G01X-2242985Y-230557D01*
G01X-2242985Y-230557D01*
G01X-2250922Y-242715D01*
G01X-2255244Y-256576D01*
G01X-2255624Y-271091D01*
G01X-2252033Y-285159D01*
G01X-2244742Y-297715D01*
G01X-2234305Y-307808D01*
G01X-2221511Y-314674D01*
G01X-2207331Y-317792D01*
G01X-2183288Y-338991D01*
G01X-2157133Y-357523D01*
G01X-2129162Y-373178D01*
G01X-2099690Y-385781D01*
G01X-2069047Y-395188D01*
G01X-2037580Y-401295D01*
G01X-2005643Y-404033D01*
G01X-1973596Y-403371D01*
G01X-1973596Y-403371D01*
G01X-1874523Y-419384D01*
G01X-1775036Y-432578D01*
G01X-1675214Y-442941D01*
G01X-1675214Y-442941D01*
G01X-1623561Y-446404D01*
G01X-1571804Y-447558D01*
G01X-1520048Y-446404D01*
G01X-1468395Y-442941D01*
G01X-1468395Y-442941D01*
G01X-1435672Y-442036D01*
G01X-1403086Y-445157D01*
G01X-1371130Y-452259D01*
G01X-1340289Y-463232D01*
G01X-1311030Y-477911D01*
G01X-1311030Y-477911D01*
G01X-1296639Y-485464D01*
G01X-1281649Y-491746D01*
G01X-1284337Y-504192D01*
G01X-1283963Y-516920D01*
G01X-1280551Y-529187D01*
G01X-1274299Y-540280D01*
G01X-1265571Y-549551D01*
G01X-1269662Y-563561D01*
G01X-1269757Y-578155D01*
G01X-1265850Y-592217D01*
G01X-1258240Y-604670D01*
G01X-1247510Y-614562D01*
G01X-1234479Y-621135D01*
G01X-1220146Y-623886D01*
G01X-1205608Y-622605D01*
G01X-1195059Y-618568D01*
G01X-1084558Y-618568D01*
G01X-1082760Y-632222D01*
G01X-1077490Y-644945D01*
G01X-1069107Y-655871D01*
G01X-1058181Y-664255D01*
G01X-1045458Y-669525D01*
G01X-1031804Y-671322D01*
G01X-1018150Y-669525D01*
G01X-1005427Y-664255D01*
G01X-994501Y-655871D01*
G01X-986118Y-644945D01*
G01X-980847Y-632222D01*
G01X-979050Y-618568D01*
G01X-980847Y-604914D01*
G01X-986118Y-592191D01*
G01X-994501Y-581266D01*
G01X-1005427Y-572882D01*
G01X-1018150Y-567612D01*
G01X-1031804Y-565814D01*
G01X-1045458Y-567612D01*
G01X-1058181Y-572882D01*
G01X-1069107Y-581266D01*
G01X-1077490Y-592191D01*
G01X-1082760Y-604914D01*
G01X-1084558Y-618568D01*
G01X-1084558Y-618568D01*
G01X-1195059Y-618568D01*
G01X-1191978Y-617389D01*
G01X-1180297Y-608639D01*
G01X-1171462Y-597023D01*
G01X-1166147Y-583431D01*
G01X-1164760Y-568902D01*
G01X-1167406Y-554550D01*
G01X-1173884Y-541472D01*
G01X-1183697Y-530669D01*
G01X-1180614Y-521771D01*
G01X-1179163Y-512466D01*
G01X-1167774Y-511724D01*
G01X-1156812Y-508549D01*
G01X-1146789Y-503092D01*
G01X-1144681Y-501260D01*
G01X-911481Y-501260D01*
G01X-910261Y-515486D01*
G01X-905271Y-528864D01*
G01X-896876Y-540413D01*
G01X-885692Y-549289D01*
G01X-872537Y-554840D01*
G01X-858375Y-556660D01*
G01X-857659Y-570676D01*
G01X-853273Y-584006D01*
G01X-845528Y-595709D01*
G01X-834970Y-604956D01*
G01X-822349Y-611091D01*
G01X-808556Y-613682D01*
G01X-794569Y-612545D01*
G01X-781376Y-607760D01*
G01X-769911Y-599665D01*
G01X-769911Y-599665D01*
G01X-760987Y-588835D01*
G01X-755234Y-576034D01*
G01X-753059Y-562170D01*
G01X-754617Y-548223D01*
G01X-759797Y-535180D01*
G01X-768232Y-523964D01*
G01X-779327Y-515370D01*
G01X-792294Y-510004D01*
G01X-806218Y-508248D01*
G01X-806604Y-496210D01*
G01X-809710Y-484574D01*
G01X-813419Y-475656D01*
G01X-819244Y-467952D01*
G01X-826812Y-461953D01*
G01X-839235Y-454913D01*
G01X-853089Y-451463D01*
G01X-867362Y-451854D01*
G01X-881007Y-456059D01*
G01X-893025Y-463768D01*
G01X-902535Y-474418D01*
G01X-908841Y-487228D01*
G01X-911481Y-501260D01*
G01X-1144681Y-501260D01*
G01X-1138174Y-495606D01*
G01X-1138174Y-495606D01*
G01X-1105512Y-489746D01*
G01X-1073657Y-480452D01*
G01X-1042970Y-467828D01*
G01X-1013795Y-452017D01*
G01X-986465Y-433198D01*
G01X-986465Y-433198D01*
G01X-972701Y-420950D01*
G01X-960810Y-406877D01*
G01X-951030Y-391262D01*
G01X-943559Y-374420D01*
G01X-931599Y-380818D01*
G01X-918403Y-383954D01*
G01X-904844Y-383623D01*
G01X-891817Y-379845D01*
G01X-880184Y-372870D01*
G01X-870714Y-363160D01*
G01X-864033Y-351356D01*
G01X-860582Y-338239D01*
G01X-860590Y-324676D01*
G01X-864056Y-311563D01*
G01X-870751Y-299767D01*
G01X-880232Y-290068D01*
G01X-891873Y-283107D01*
G01X-904905Y-279344D01*
G01X-918464Y-279028D01*
G01X-931656Y-282180D01*
G01X-923925Y-245679D01*
G01X-912357Y-210207D01*
G01X-898364Y-179025D01*
G01X-744744Y-179025D01*
G01X-744744Y-243025D01*
G01X-743134Y-254004D01*
G01X-738442Y-264059D01*
G01X-731061Y-272345D01*
G01X-721612Y-278163D01*
G01X-710891Y-281025D01*
G01X-721612Y-283887D01*
G01X-731061Y-289705D01*
G01X-738442Y-297990D01*
G01X-743134Y-308046D01*
G01X-744744Y-319025D01*
G01X-744744Y-383025D01*
G01X-743134Y-394004D01*
G01X-738442Y-404059D01*
G01X-731061Y-412345D01*
G01X-721612Y-418163D01*
G01X-710891Y-421025D01*
G01X-721612Y-423886D01*
G01X-731061Y-429705D01*
G01X-738442Y-437990D01*
G01X-743134Y-448046D01*
G01X-744744Y-459025D01*
G01X-744744Y-523025D01*
G01X-742872Y-534846D01*
G01X-737438Y-545510D01*
G01X-728975Y-553973D01*
G01X-718311Y-559406D01*
G01X-706490Y-561279D01*
G01X-572490Y-561279D01*
G01X-560669Y-559406D01*
G01X-550005Y-553973D01*
G01X-541542Y-545510D01*
G01X-536108Y-534846D01*
G01X-534236Y-523025D01*
G01X-534236Y-459025D01*
G01X-535845Y-448046D01*
G01X-540538Y-437990D01*
G01X-547919Y-429705D01*
G01X-557368Y-423886D01*
G01X-568089Y-421025D01*
G01X-557368Y-418163D01*
G01X-547919Y-412345D01*
G01X-540538Y-404059D01*
G01X-535845Y-394004D01*
G01X-534236Y-383025D01*
G01X-534236Y-319025D01*
G01X-535845Y-308046D01*
G01X-540538Y-297990D01*
G01X-547919Y-289705D01*
G01X-557368Y-283887D01*
G01X-568089Y-281025D01*
G01X-557368Y-278163D01*
G01X-547919Y-272345D01*
G01X-540538Y-264059D01*
G01X-535845Y-254004D01*
G01X-534236Y-243025D01*
G01X-534236Y-179025D01*
G01X-535845Y-168045D01*
G01X-540538Y-157990D01*
G01X-547920Y-149704D01*
G01X-557369Y-143886D01*
G01X-568090Y-141025D01*
G01X-557369Y-138163D01*
G01X-547920Y-132345D01*
G01X-540538Y-124059D01*
G01X-535845Y-114004D01*
G01X-534236Y-103025D01*
G01X-534236Y-39024D01*
G01X-536108Y-27203D01*
G01X-541542Y-16539D01*
G01X-550005Y-8076D01*
G01X-560669Y-2643D01*
G01X-572490Y-771D01*
G01X-706490Y-771D01*
G01X-718311Y-2643D01*
G01X-728975Y-8076D01*
G01X-737438Y-16539D01*
G01X-742872Y-27203D01*
G01X-744744Y-39024D01*
G01X-744744Y-103025D01*
G01X-743134Y-114004D01*
G01X-738442Y-124059D01*
G01X-731060Y-132345D01*
G01X-721611Y-138163D01*
G01X-710890Y-141025D01*
G01X-721611Y-143886D01*
G01X-731060Y-149704D01*
G01X-738442Y-157990D01*
G01X-743134Y-168045D01*
G01X-744744Y-179025D01*
G01X-744744Y-179025D01*
G01X-898364Y-179025D01*
G01X-897081Y-176166D01*
G01X-884870Y-170826D01*
G01X-874387Y-162595D01*
G01X-866302Y-152001D01*
G01X-861129Y-139718D01*
G01X-859200Y-126530D01*
G01X-860637Y-113281D01*
G01X-865349Y-100814D01*
G01X-873035Y-89926D01*
G01X-883205Y-81311D01*
G01X-895209Y-75520D01*
G01X-908281Y-72923D01*
G01X-921587Y-73684D01*
G01X-917787Y-66948D01*
G01X-904688Y-63344D01*
G01X-892944Y-56514D01*
G01X-883334Y-46911D01*
G01X-876494Y-35172D01*
G01X-872880Y-22076D01*
G01X-872730Y-8491D01*
G01X-876055Y4682D01*
G01X-882633Y16569D01*
G01X-892029Y26381D01*
G01X-903619Y33469D01*
G01X-916636Y37362D01*
G01X-930214Y37801D01*
G01X-943455Y34758D01*
G01X-955479Y28434D01*
G01X-965490Y19250D01*
G01X-972823Y7813D01*
G01X-976992Y-5117D01*
G01X-977721Y-18684D01*
G01X-990595Y-40572D01*
G01X-1000716Y-63862D01*
G01X-1007935Y-88208D01*
G01X-1012144Y-113251D01*
G01X-1018300Y-153682D01*
G01X-1028101Y-193388D01*
G01X-1041466Y-232040D01*
G01X-1058284Y-269319D01*
G01X-1078417Y-304917D01*
G01X-1101698Y-338541D01*
G01X-1127935Y-369913D01*
G01X-1148807Y-368364D01*
G01X-1169643Y-370351D01*
G01X-1190340Y-372224D01*
G01X-1200261Y-362555D01*
G01X-1212356Y-355801D01*
G01X-1202073Y-349536D01*
G01X-1193477Y-341103D01*
G01X-1187019Y-330940D01*
G01X-1183033Y-319577D01*
G01X-1181727Y-307606D01*
G01X-1168637Y-306230D01*
G01X-1156294Y-301656D01*
G01X-1145468Y-294168D01*
G01X-1136833Y-284234D01*
G01X-1130926Y-272471D01*
G01X-1128115Y-259612D01*
G01X-1128575Y-246457D01*
G01X-1132277Y-233826D01*
G01X-1138991Y-222504D01*
G01X-1148299Y-213197D01*
G01X-1159622Y-206484D01*
G01X-1172254Y-202783D01*
G01X-1174357Y-190489D01*
G01X-1179288Y-179033D01*
G01X-1186771Y-169054D01*
G01X-1196387Y-161111D01*
G01X-1207599Y-155648D01*
G01X-1198061Y-147740D01*
G01X-1190630Y-137826D01*
G01X-1185717Y-126452D01*
G01X-1183591Y-114246D01*
G01X-1184372Y-101881D01*
G01X-1188015Y-90038D01*
G01X-1175598Y-83427D01*
G01X-1165370Y-73770D01*
G01X-1158057Y-61753D01*
G01X-1154180Y-48231D01*
G01X-1154015Y-34166D01*
G01X-1157572Y-20556D01*
G01X-1164600Y-8370D01*
G01X-1174598Y1525D01*
G01X-1186856Y8426D01*
G01X-1200501Y11843D01*
G01X-1214565Y11532D01*
G01X-1228046Y7515D01*
G01X-1239986Y79D01*
G01X-1249537Y-10249D01*
G01X-1255258Y6465D01*
G01X-1255258Y6465D01*
G01X-1276317Y79094D01*
G01X-1294781Y152426D01*
G01X-1297816Y166591D01*
G01X-911029Y166591D01*
G01X-909232Y152937D01*
G01X-903961Y140214D01*
G01X-895578Y129288D01*
G01X-884652Y120904D01*
G01X-871929Y115634D01*
G01X-858275Y113837D01*
G01X-844621Y115634D01*
G01X-831898Y120904D01*
G01X-820972Y129288D01*
G01X-812589Y140214D01*
G01X-807319Y152937D01*
G01X-805521Y166591D01*
G01X-807319Y180244D01*
G01X-812589Y192968D01*
G01X-820972Y203893D01*
G01X-831898Y212277D01*
G01X-844621Y217547D01*
G01X-858275Y219345D01*
G01X-871929Y217547D01*
G01X-884652Y212277D01*
G01X-895578Y203893D01*
G01X-903961Y192968D01*
G01X-909232Y180244D01*
G01X-911029Y166591D01*
G01X-911029Y166591D01*
G01X-1297816Y166591D01*
G01X-1310627Y226368D01*
G01X-1323835Y300826D01*
G01X-1323835Y300826D01*
G01X-1311069Y299168D01*
G01X-1298281Y300651D01*
G01X-1286233Y305188D01*
G01X-1275643Y312507D01*
G01X-1267141Y322173D01*
G01X-1261233Y333611D01*
G01X-1258271Y346139D01*
G01X-1258432Y359012D01*
G01X-1261706Y371462D01*
G01X-1267898Y382749D01*
G01X-1276640Y392199D01*
G01X-1287410Y399252D01*
G01X-1299567Y403485D01*
G01X-1312388Y404648D01*
G01X-1325109Y402671D01*
G01X-1336972Y397672D01*
G01X-1344315Y476111D01*
G01X-1348749Y554768D01*
G01X-1335521Y552594D01*
G01X-1322171Y553824D01*
G01X-1309563Y558380D01*
G01X-1298510Y565966D01*
G01X-1289727Y576093D01*
G01X-1283779Y588108D01*
G01X-1281052Y601234D01*
G01X-1281722Y614623D01*
G01X-1285745Y627411D01*
G01X-1292861Y638772D01*
G01X-1302612Y647973D01*
G01X-1314366Y654418D01*
G01X-1327366Y657693D01*
G01X-1340772Y657585D01*
G01X-1347733Y668616D01*
G01X-1354621Y675161D01*
G01X-1284560Y675161D01*
G01X-1282762Y661507D01*
G01X-1277492Y648784D01*
G01X-1269108Y637858D01*
G01X-1258183Y629475D01*
G01X-1245459Y624205D01*
G01X-1231806Y622407D01*
G01X-1218152Y624205D01*
G01X-1205429Y629475D01*
G01X-1194503Y637858D01*
G01X-1186119Y648784D01*
G01X-1180849Y661507D01*
G01X-1179051Y675161D01*
G01X-1180849Y688815D01*
G01X-1186119Y701538D01*
G01X-1194503Y712464D01*
G01X-1205429Y720848D01*
G01X-1218152Y726118D01*
G01X-1231806Y727915D01*
G01X-1245459Y726118D01*
G01X-1258183Y720848D01*
G01X-1269108Y712464D01*
G01X-1277492Y701538D01*
G01X-1282762Y688815D01*
G01X-1284560Y675161D01*
G01X-1284560Y675161D01*
G01X-1354621Y675161D01*
G01X-1357189Y677601D01*
G01X-1368559Y683992D01*
G01X-1381151Y687398D01*
G01X-1394193Y687610D01*
G01X-1406888Y684615D01*
G01X-1418461Y678597D01*
G01X-1428203Y669924D01*
G01X-1435519Y659125D01*
G01X-1439963Y646862D01*
G01X-1441261Y633883D01*
G01X-1439335Y620982D01*
G01X-1434303Y608948D01*
G01X-1426472Y598517D01*
G01X-1426472Y598517D01*
G01X-1422991Y506031D01*
G01X-1415630Y413772D01*
G01X-1404402Y321904D01*
G01X-1404402Y321904D01*
G01X-1417711Y324636D01*
G01X-1431276Y323879D01*
G01X-1444198Y319682D01*
G01X-1455619Y312324D01*
G01X-1464783Y302293D01*
G01X-1471080Y290254D01*
G01X-1474094Y277007D01*
G01X-1473625Y263428D01*
G01X-1469704Y250420D01*
G01X-1462590Y238845D01*
G01X-1452756Y229471D01*
G01X-1440854Y222919D01*
G01X-1427674Y219624D01*
G01X-1414089Y219804D01*
G01X-1401000Y223448D01*
G01X-1389277Y230314D01*
G01X-1389277Y230314D01*
G01X-1380717Y186920D01*
G01X-1380717Y186920D01*
G01X-1393172Y191339D01*
G01X-1406334Y192523D01*
G01X-1419378Y190399D01*
G01X-1431484Y185100D01*
G01X-1441894Y176958D01*
G01X-1449953Y166484D01*
G01X-1455156Y154336D01*
G01X-1457177Y141275D01*
G01X-1455888Y128123D01*
G01X-1451371Y115703D01*
G01X-1443908Y104796D01*
G01X-1433969Y96086D01*
G01X-1422178Y90119D01*
G01X-1409273Y87271D01*
G01X-1396065Y87719D01*
G01X-1383383Y91435D01*
G01X-1372022Y98188D01*
G01X-1362696Y107551D01*
G01X-1362696Y107551D01*
G01X-1346424Y45454D01*
G01X-1328350Y-16143D01*
G01X-1328350Y-16143D01*
G01X-1317563Y-46345D01*
G01X-1304220Y-75508D01*
G01X-1288418Y-103416D01*
G01X-1288418Y-103416D01*
G01X-1288601Y-118003D01*
G01X-1284782Y-132082D01*
G01X-1277252Y-144577D01*
G01X-1266589Y-154532D01*
G01X-1253606Y-161186D01*
G01X-1262767Y-168701D01*
G01X-1270019Y-178070D01*
G01X-1274997Y-188822D01*
G01X-1277450Y-200413D01*
G01X-1277255Y-212260D01*
G01X-1274420Y-223764D01*
G01X-1269090Y-234345D01*
G01X-1261532Y-243470D01*
G01X-1252129Y-250678D01*
G01X-1241354Y-255606D01*
G01X-1251989Y-258147D01*
G01X-1261872Y-262825D01*
G01X-1270578Y-269440D01*
G01X-1270578Y-269440D01*
G01X-1366054Y-271477D01*
G01X-1461374Y-277288D01*
G01X-1556391Y-286861D01*
G01X-1556391Y-286861D01*
G01X-1579249Y-289321D01*
G01X-1579701Y-276617D01*
G01X-1583179Y-264390D01*
G01X-1589481Y-253349D01*
G01X-1598241Y-244137D01*
G01X-1608951Y-237288D01*
G01X-1620988Y-233200D01*
G01X-1633653Y-232110D01*
G01X-1646212Y-234081D01*
G01X-1657934Y-238999D01*
G01X-1668139Y-246578D01*
G01X-1676235Y-256379D01*
G01X-1681752Y-267832D01*
G01X-1684368Y-280272D01*
G01X-1683933Y-292977D01*
G01X-1683933Y-292977D01*
G01X-1742702Y-289585D01*
G01X-1801114Y-282289D01*
G01X-1858912Y-271122D01*
G01X-1915839Y-256134D01*
G01X-1971641Y-237390D01*
G01X-2026073Y-214975D01*
G01X-2026073Y-214975D01*
G01X-2067307Y-197813D01*
G01X-2109483Y-183117D01*
G01X-2152453Y-170938D01*
G01X-2196067Y-161317D01*
G01X-2196067Y-161317D01*
G01X-2273559Y-148077D01*
G01X-2351483Y-137687D01*
G01X-2429737Y-130161D01*
G01X-2429737Y-130161D01*
G01X-2433401Y-130052D01*
G01X-2454905Y-132358D01*
G01X-2475667Y-138414D01*
G01X-2495038Y-148031D01*
G01X-2512414Y-160908D01*
G01X-2527251Y-176643D01*
G01X-2539086Y-194744D01*
G01X-2547864Y-184041D01*
G01X-2559123Y-175989D01*
G01X-2572089Y-171143D01*
G01X-2585869Y-169836D01*
G01X-2599514Y-172160D01*
G01X-2612086Y-177952D01*
G01X-2622718Y-186815D01*
G01X-2630679Y-198139D01*
G01X-2635420Y-211144D01*
G01X-2636615Y-224934D01*
G01X-2649680Y-229800D01*
G01X-2661014Y-237919D01*
G01X-2669826Y-248724D01*
G01X-2675499Y-261459D01*
G01X-2677639Y-275236D01*
G01X-2756495Y-275236D01*
G01X-2756027Y-274141D01*
G01X-2754057Y-260645D01*
G01X-2755613Y-247096D01*
G01X-2760591Y-234398D01*
G01X-2768657Y-223401D01*
G01X-2779273Y-214839D01*
G01X-2768797Y-206423D01*
G01X-2760787Y-195633D01*
G01X-2755763Y-183169D01*
G01X-2754051Y-169840D01*
G01X-2755763Y-156511D01*
G01X-2760787Y-144046D01*
G01X-2768797Y-133256D01*
G01X-2779273Y-124840D01*
G01X-2768796Y-116423D01*
G01X-2760786Y-105633D01*
G01X-2755762Y-93169D01*
G01X-2754050Y-79840D01*
G01X-2755762Y-66510D01*
G01X-2760786Y-54046D01*
G01X-2767626Y-44833D01*
G01X-2152446Y-44833D01*
G01X-2150648Y-58487D01*
G01X-2145378Y-71210D01*
G01X-2136994Y-82136D01*
G01X-2126069Y-90519D01*
G01X-2113346Y-95789D01*
G01X-2099692Y-97587D01*
G01X-2086038Y-95789D01*
G01X-2073315Y-90519D01*
G01X-2062389Y-82136D01*
G01X-2054005Y-71210D01*
G01X-2049274Y-59788D01*
G01X-1909610Y-59788D01*
G01X-1907812Y-73441D01*
G01X-1902542Y-86165D01*
G01X-1894159Y-97090D01*
G01X-1883233Y-105474D01*
G01X-1870510Y-110744D01*
G01X-1856856Y-112542D01*
G01X-1843202Y-110744D01*
G01X-1830479Y-105474D01*
G01X-1819553Y-97090D01*
G01X-1811170Y-86165D01*
G01X-1805899Y-73441D01*
G01X-1804102Y-59788D01*
G01X-1684558Y-59788D01*
G01X-1682761Y-73441D01*
G01X-1677491Y-86165D01*
G01X-1669107Y-97090D01*
G01X-1658181Y-105474D01*
G01X-1645458Y-110744D01*
G01X-1631804Y-112542D01*
G01X-1618150Y-110744D01*
G01X-1605427Y-105474D01*
G01X-1594501Y-97090D01*
G01X-1586118Y-86165D01*
G01X-1580848Y-73441D01*
G01X-1579050Y-59788D01*
G01X-1459522Y-59788D01*
G01X-1457724Y-73441D01*
G01X-1452454Y-86165D01*
G01X-1444071Y-97090D01*
G01X-1433145Y-105474D01*
G01X-1420422Y-110744D01*
G01X-1406768Y-112542D01*
G01X-1393114Y-110744D01*
G01X-1380391Y-105474D01*
G01X-1369465Y-97090D01*
G01X-1361082Y-86165D01*
G01X-1355811Y-73441D01*
G01X-1354014Y-59788D01*
G01X-1355811Y-46134D01*
G01X-1361082Y-33411D01*
G01X-1369465Y-22485D01*
G01X-1380391Y-14101D01*
G01X-1393114Y-8831D01*
G01X-1406768Y-7034D01*
G01X-1420422Y-8831D01*
G01X-1433145Y-14101D01*
G01X-1444071Y-22485D01*
G01X-1452454Y-33411D01*
G01X-1457724Y-46134D01*
G01X-1459522Y-59788D01*
G01X-1459522Y-59788D01*
G01X-1579050Y-59788D01*
G01X-1580848Y-46134D01*
G01X-1586118Y-33411D01*
G01X-1594501Y-22485D01*
G01X-1605427Y-14101D01*
G01X-1618150Y-8831D01*
G01X-1631804Y-7034D01*
G01X-1645458Y-8831D01*
G01X-1658181Y-14101D01*
G01X-1669107Y-22485D01*
G01X-1677491Y-33411D01*
G01X-1682761Y-46134D01*
G01X-1684558Y-59788D01*
G01X-1684558Y-59788D01*
G01X-1804102Y-59788D01*
G01X-1805899Y-46134D01*
G01X-1811170Y-33411D01*
G01X-1819553Y-22485D01*
G01X-1830479Y-14101D01*
G01X-1843202Y-8831D01*
G01X-1856856Y-7034D01*
G01X-1870510Y-8831D01*
G01X-1883233Y-14101D01*
G01X-1894159Y-22485D01*
G01X-1902542Y-33411D01*
G01X-1907812Y-46134D01*
G01X-1909610Y-59788D01*
G01X-1909610Y-59788D01*
G01X-2049274Y-59788D01*
G01X-2048735Y-58487D01*
G01X-2046938Y-44833D01*
G01X-2048735Y-31179D01*
G01X-2054005Y-18456D01*
G01X-2062389Y-7530D01*
G01X-2073315Y854D01*
G01X-2086038Y6124D01*
G01X-2099692Y7921D01*
G01X-2113346Y6124D01*
G01X-2126069Y854D01*
G01X-2136994Y-7530D01*
G01X-2145378Y-18456D01*
G01X-2150648Y-31179D01*
G01X-2152446Y-44833D01*
G01X-2152446Y-44833D01*
G01X-2767626Y-44833D01*
G01X-2768796Y-43256D01*
G01X-2779273Y-34840D01*
G01X-2768657Y-26278D01*
G01X-2760591Y-15280D01*
G01X-2755613Y-2583D01*
G01X-2754057Y10967D01*
G01X-2756026Y24462D01*
G01X-2761390Y37001D01*
G01X-2769788Y47747D01*
G01X-2780661Y55980D01*
G01X-2793281Y61151D01*
G01X-2806805Y62914D01*
G01X-2820329Y61151D01*
G01X-2832949Y55980D01*
G01X-2843822Y47747D01*
G01X-2852220Y37001D01*
G01X-2857583Y24461D01*
G01X-2859553Y10966D01*
G01X-2857997Y-2583D01*
G01X-2853019Y-15281D01*
G01X-2844952Y-26278D01*
G01X-2834336Y-34840D01*
G01X-2844813Y-43256D01*
G01X-2852823Y-54046D01*
G01X-2857847Y-66511D01*
G01X-2859558Y-79839D01*
G01X-2857847Y-93168D01*
G01X-2852823Y-105633D01*
G01X-2844813Y-116423D01*
G01X-2834336Y-124839D01*
G01X-2834336Y-124839D01*
G01X-2844813Y-133256D01*
G01X-2852823Y-144046D01*
G01X-2857847Y-156510D01*
G01X-2859559Y-169839D01*
G01X-2907384Y-169839D01*
G01X-2909096Y-156510D01*
G01X-2914120Y-144046D01*
G01X-2922130Y-133256D01*
G01X-2932606Y-124840D01*
G01X-2922130Y-116423D01*
G01X-2914119Y-105633D01*
G01X-2909096Y-93169D01*
G01X-2907384Y-79840D01*
G01X-2909096Y-66510D01*
G01X-2914119Y-54046D01*
G01X-2922130Y-43256D01*
G01X-2932606Y-34840D01*
G01X-2921990Y-26278D01*
G01X-2913924Y-15280D01*
G01X-2908947Y-2583D01*
G01X-2907390Y10967D01*
G01X-2909360Y24462D01*
G01X-2914723Y37001D01*
G01X-2923122Y47747D01*
G01X-2933995Y55980D01*
G01X-2946615Y61151D01*
G01X-2960139Y62914D01*
G01X-2973663Y61151D01*
G01X-2986283Y55980D01*
G01X-2997155Y47747D01*
G01X-3005554Y37001D01*
G01X-3010917Y24461D01*
G01X-3012886Y10966D01*
G01X-3011330Y-2583D01*
G01X-3006352Y-15281D01*
G01X-2998286Y-26278D01*
G01X-2987670Y-34840D01*
G01X-2998146Y-43256D01*
G01X-3006156Y-54046D01*
G01X-3011180Y-66511D01*
G01X-3012892Y-79840D01*
G01X-3011180Y-93169D01*
G01X-3006156Y-105633D01*
G01X-2998146Y-116423D01*
G01X-2987670Y-124839D01*
G01X-2987670Y-124839D01*
G01X-2998146Y-133256D01*
G01X-3006157Y-144046D01*
G01X-3011181Y-156510D01*
G01X-3012892Y-169839D01*
G01X-3060718Y-169839D01*
G01X-3062429Y-156510D01*
G01X-3067453Y-144046D01*
G01X-3075463Y-133256D01*
G01X-3085940Y-124840D01*
G01X-3075463Y-116423D01*
G01X-3067453Y-105633D01*
G01X-3062429Y-93169D01*
G01X-3060717Y-79840D01*
G01X-3062429Y-66510D01*
G01X-3067453Y-54046D01*
G01X-3075463Y-43256D01*
G01X-3085940Y-34840D01*
G01X-3074841Y-25766D01*
G01X-3066595Y-14039D01*
G01X-3061811Y-525D01*
G01X-3060842Y13778D01*
G01X-3063759Y27814D01*
G01X-3070348Y40546D01*
G01X-3080121Y51035D01*
G01X-3071789Y55370D01*
G01X-3065189Y62052D01*
G01X-3060955Y70436D01*
G01X-3059498Y79715D01*
G01X-3059498Y195161D01*
G01X-2944559Y195161D01*
G01X-2942761Y181507D01*
G01X-2937491Y168784D01*
G01X-2929108Y157858D01*
G01X-2918182Y149475D01*
G01X-2905459Y144204D01*
G01X-2891805Y142407D01*
G01X-2878151Y144204D01*
G01X-2865428Y149475D01*
G01X-2854502Y157858D01*
G01X-2846119Y168784D01*
G01X-2840849Y181507D01*
G01X-2839051Y195161D01*
G01X-2840849Y208815D01*
G01X-2841020Y209229D01*
G01X-2709619Y209229D01*
G01X-2706743Y196352D01*
G01X-2700762Y184592D01*
G01X-2692049Y174683D01*
G01X-2681150Y167247D01*
G01X-2691192Y158140D01*
G01X-2698581Y146775D01*
G01X-2702830Y133902D01*
G01X-2703659Y120371D01*
G01X-2703659Y120371D01*
G01X-2701011Y107075D01*
G01X-2695063Y94894D01*
G01X-2686207Y84630D01*
G01X-2675027Y76962D01*
G01X-2675693Y63811D01*
G01X-2673081Y50904D01*
G01X-2667353Y39046D01*
G01X-2658867Y28976D01*
G01X-2648152Y21322D01*
G01X-2649469Y8827D01*
G01X-2647794Y-3624D01*
G01X-2643222Y-15327D01*
G01X-2636013Y-25616D01*
G01X-2626575Y-33909D01*
G01X-2615444Y-39736D01*
G01X-2603251Y-42764D01*
G01X-2590687Y-42824D01*
G01X-2578465Y-39911D01*
G01X-2567279Y-34191D01*
G01X-2557763Y-25988D01*
G01X-2550457Y-15767D01*
G01X-2545774Y-4109D01*
G01X-2543981Y8327D01*
G01X-2404701Y148166D01*
G01X-2404701Y148166D01*
G01X-2382250Y169908D01*
G01X-2359031Y190828D01*
G01X-2359031Y190828D01*
G01X-2363625Y177258D01*
G01X-2364400Y162953D01*
G01X-2361296Y148966D01*
G01X-2354544Y136331D01*
G01X-2344641Y125978D01*
G01X-2332318Y118671D01*
G01X-2318484Y114949D01*
G01X-2304158Y115087D01*
G01X-2290397Y119074D01*
G01X-2278217Y126617D01*
G01X-2268515Y137158D01*
G01X-2263303Y147380D01*
G01X-2189651Y147380D01*
G01X-2187817Y134099D01*
G01X-2182694Y121710D01*
G01X-2174613Y111012D01*
G01X-2164096Y102696D01*
G01X-2151823Y97301D01*
G01X-2138586Y95173D01*
G01X-2125240Y96451D01*
G01X-2112647Y101051D01*
G01X-2101621Y108678D01*
G01X-2092873Y118837D01*
G01X-2086969Y130874D01*
G01X-2087335Y116606D01*
G01X-2083862Y102761D01*
G01X-2076806Y90355D01*
G01X-2066681Y80294D01*
G01X-2054230Y73315D01*
G01X-2040364Y69930D01*
G01X-2026098Y70385D01*
G01X-2022675Y56892D01*
G01X-2015840Y44764D01*
G01X-2006072Y34846D01*
G01X-1994049Y27828D01*
G01X-1980609Y24200D01*
G01X-1966688Y24214D01*
G01X-1953255Y27869D01*
G01X-1941246Y34910D01*
G01X-1931497Y44848D01*
G01X-1924686Y56989D01*
G01X-1921289Y70489D01*
G01X-1921542Y84408D01*
G01X-1925427Y97776D01*
G01X-1932673Y109663D01*
G01X-1942776Y119240D01*
G01X-1955033Y125841D01*
G01X-1968589Y129006D01*
G01X-1982501Y128515D01*
G01X-1985845Y141805D01*
G01X-1992498Y153786D01*
G01X-2002014Y163649D01*
G01X-2002014Y163649D01*
G01X-1980723Y157961D01*
G01X-1980342Y157872D01*
G01X-1967714Y153343D01*
G01X-1956513Y145957D01*
G01X-1936966Y131757D01*
G01X-1915541Y120590D01*
G01X-1892706Y112701D01*
G01X-1868957Y108262D01*
G01X-1857122Y99919D01*
G01X-1843465Y95108D01*
G01X-1829014Y94192D01*
G01X-1814858Y97239D01*
G01X-1802064Y104019D01*
G01X-1790520Y97712D01*
G01X-1777774Y94458D01*
G01X-1764619Y94458D01*
G01X-1751873Y97712D01*
G01X-1740329Y104020D01*
G01X-1728455Y97584D01*
G01X-1715337Y94374D01*
G01X-1701834Y94600D01*
G01X-1688830Y98247D01*
G01X-1677179Y105077D01*
G01X-1666279Y97559D01*
G01X-1653851Y92991D01*
G01X-1640677Y91662D01*
G01X-1627588Y93656D01*
G01X-1615406Y98846D01*
G01X-1604901Y106906D01*
G01X-1596734Y117327D01*
G01X-1591419Y129455D01*
G01X-1589291Y142523D01*
G01X-1590485Y155710D01*
G01X-1594924Y168184D01*
G01X-1602330Y179160D01*
G01X-1612235Y187946D01*
G01X-1624017Y193989D01*
G01X-1636932Y196908D01*
G01X-1650167Y196519D01*
G01X-1662888Y192847D01*
G01X-1674294Y186123D01*
G01X-1675633Y187280D01*
G01X-1683396Y213270D01*
G01X-1694831Y237865D01*
G01X-1709697Y260552D01*
G01X-1727684Y280854D01*
G01X-1727684Y280854D01*
G01X-1763867Y313686D01*
G01X-1802345Y343795D01*
G01X-1842914Y371021D01*
G01X-1842914Y371021D01*
G01X-1832554Y379914D01*
G01X-1824823Y391167D01*
G01X-1820239Y404028D01*
G01X-1819108Y417635D01*
G01X-1821508Y431076D01*
G01X-1827277Y443451D01*
G01X-1836029Y453931D01*
G01X-1847177Y461814D01*
G01X-1859974Y466572D01*
G01X-1873565Y467886D01*
G01X-1887037Y465668D01*
G01X-1899489Y460068D01*
G01X-1910086Y451459D01*
G01X-1918119Y440418D01*
G01X-1923050Y427686D01*
G01X-1924548Y414115D01*
G01X-1924548Y414115D01*
G01X-1940488Y420928D01*
G01X-1940488Y420928D01*
G01X-1964763Y429755D01*
G01X-1989695Y436505D01*
G01X-2015108Y441129D01*
G01X-2035239Y446119D01*
G01X-2054593Y453576D01*
G01X-2072870Y463382D01*
G01X-2076551Y476207D01*
G01X-2083333Y487699D01*
G01X-2092781Y497121D01*
G01X-2104291Y503871D01*
G01X-2117126Y507518D01*
G01X-2130466Y507827D01*
G01X-2143457Y504780D01*
G01X-2155268Y498570D01*
G01X-2165142Y489596D01*
G01X-2172449Y478431D01*
G01X-2176722Y465790D01*
G01X-2177685Y452482D01*
G01X-2175279Y439357D01*
G01X-2169657Y427256D01*
G01X-2161178Y416953D01*
G01X-2150385Y409106D01*
G01X-2161698Y400763D01*
G01X-2170406Y389729D01*
G01X-2175891Y376787D01*
G01X-2177764Y362856D01*
G01X-2177764Y362856D01*
G01X-2175891Y348925D01*
G01X-2170406Y335983D01*
G01X-2161698Y324949D01*
G01X-2150386Y316606D01*
G01X-2162058Y307912D01*
G01X-2170910Y296360D01*
G01X-2176268Y282829D01*
G01X-2177725Y268348D01*
G01X-2175170Y254020D01*
G01X-2168798Y240935D01*
G01X-2159092Y230090D01*
G01X-2146792Y222310D01*
G01X-2132835Y218186D01*
G01X-2118282Y218033D01*
G01X-2118282Y218033D01*
G01X-2091833Y201750D01*
G01X-2064272Y187429D01*
G01X-2035744Y175147D01*
G01X-2048525Y173364D01*
G01X-2060491Y168531D01*
G01X-2070925Y160938D01*
G01X-2079204Y151039D01*
G01X-2084831Y139426D01*
G01X-2084376Y152825D01*
G01X-2087314Y165906D01*
G01X-2093454Y177824D01*
G01X-2102401Y187810D01*
G01X-2113575Y195217D01*
G01X-2126256Y199569D01*
G01X-2139625Y200583D01*
G01X-2152817Y198195D01*
G01X-2164982Y192559D01*
G01X-2175332Y184038D01*
G01X-2183201Y173183D01*
G01X-2188079Y160695D01*
G01X-2189651Y147380D01*
G01X-2263303Y147380D01*
G01X-2262007Y149922D01*
G01X-2259174Y163965D01*
G01X-2260223Y178253D01*
G01X-2265078Y191732D01*
G01X-2273381Y203408D01*
G01X-2284518Y212419D01*
G01X-2297670Y218101D01*
G01X-2311865Y220035D01*
G01X-2326058Y218078D01*
G01X-2326058Y218078D01*
G01X-2316585Y225416D01*
G01X-2316585Y225416D01*
G01X-2302064Y225561D01*
G01X-2288133Y229659D01*
G01X-2275848Y237400D01*
G01X-2266138Y248198D01*
G01X-2259740Y261233D01*
G01X-2257138Y275520D01*
G01X-2258530Y289974D01*
G01X-2263810Y303501D01*
G01X-2272578Y315076D01*
G01X-2284170Y323822D01*
G01X-2273796Y331392D01*
G01X-2265558Y341243D01*
G01X-2259944Y352793D01*
G01X-2257288Y365357D01*
G01X-2257746Y378191D01*
G01X-2261291Y390534D01*
G01X-2267713Y401654D01*
G01X-2276633Y410893D01*
G01X-2267562Y420334D01*
G01X-2261096Y431718D01*
G01X-2257632Y444344D01*
G01X-2257384Y457433D01*
G01X-2260367Y470181D01*
G01X-2266398Y481802D01*
G01X-2275104Y491579D01*
G01X-2285950Y498912D01*
G01X-2298268Y503348D01*
G01X-2311299Y504614D01*
G01X-2324240Y502632D01*
G01X-2336294Y497525D01*
G01X-2346720Y489606D01*
G01X-2354875Y479363D01*
G01X-2378906Y468745D01*
G01X-2401432Y455223D01*
G01X-2422102Y439007D01*
G01X-2440597Y420347D01*
G01X-2442021Y418621D01*
G01X-2442021Y418621D01*
G01X-2494675Y352832D01*
G01X-2549250Y288628D01*
G01X-2605697Y226064D01*
G01X-2605697Y226064D01*
G01X-2605697Y226064D01*
G01X-2610249Y238448D01*
G01X-2617731Y249315D01*
G01X-2627676Y257986D01*
G01X-2639462Y263918D01*
G01X-2652350Y266740D01*
G01X-2665536Y266275D01*
G01X-2678194Y262553D01*
G01X-2689533Y255806D01*
G01X-2698843Y246457D01*
G01X-2705542Y235090D01*
G01X-2709210Y222416D01*
G01X-2709619Y209229D01*
G01X-2841020Y209229D01*
G01X-2846119Y221538D01*
G01X-2854502Y232464D01*
G01X-2865428Y240847D01*
G01X-2878151Y246117D01*
G01X-2891805Y247915D01*
G01X-2905459Y246117D01*
G01X-2918182Y240847D01*
G01X-2929108Y232464D01*
G01X-2937491Y221538D01*
G01X-2942761Y208815D01*
G01X-2944559Y195161D01*
G01X-2944559Y195161D01*
G01X-3059498Y195161D01*
G01X-3059498Y355159D01*
G01X-2713295Y355159D01*
G01X-2711498Y341505D01*
G01X-2706227Y328782D01*
G01X-2697844Y317856D01*
G01X-2686918Y309472D01*
G01X-2674195Y304202D01*
G01X-2660541Y302405D01*
G01X-2646887Y304202D01*
G01X-2634164Y309472D01*
G01X-2623238Y317856D01*
G01X-2614855Y328782D01*
G01X-2609585Y341505D01*
G01X-2607787Y355159D01*
G01X-2609585Y368812D01*
G01X-2614855Y381536D01*
G01X-2623238Y392461D01*
G01X-2634164Y400845D01*
G01X-2646887Y406115D01*
G01X-2660541Y407913D01*
G01X-2674195Y406115D01*
G01X-2686918Y400845D01*
G01X-2697844Y392461D01*
G01X-2706227Y381536D01*
G01X-2711498Y368812D01*
G01X-2713295Y355159D01*
G01X-2713295Y355159D01*
G01X-3059498Y355159D01*
G01X-3059498Y510272D01*
G01X-2067372Y510272D01*
G01X-2058023Y511753D01*
G01X-2049589Y516050D01*
G01X-2042896Y522743D01*
G01X-2038599Y531177D01*
G01X-2037118Y540526D01*
G01X-2037118Y558874D01*
G01X-1984428Y558874D01*
G01X-1983490Y544599D01*
G01X-1978752Y531101D01*
G01X-1970562Y519372D01*
G01X-1959522Y510275D01*
G01X-1946443Y504479D01*
G01X-1946443Y504479D01*
G01X-1932288Y502409D01*
G01X-1918098Y504219D01*
G01X-1904915Y509774D01*
G01X-1893710Y518667D01*
G01X-1885306Y530244D01*
G01X-1880321Y543653D01*
G01X-1879122Y557908D01*
G01X-1881797Y571961D01*
G01X-1888149Y584779D01*
G01X-1875941Y592236D01*
G01X-1866185Y602698D01*
G01X-1859599Y615397D01*
G01X-1856666Y629399D01*
G01X-1856910Y633112D01*
G01X-1832046Y633112D01*
G01X-1830249Y619458D01*
G01X-1824979Y606734D01*
G01X-1816595Y595809D01*
G01X-1805669Y587425D01*
G01X-1792946Y582155D01*
G01X-1779292Y580357D01*
G01X-1765639Y582155D01*
G01X-1752915Y587425D01*
G01X-1741990Y595809D01*
G01X-1733606Y606734D01*
G01X-1728336Y619458D01*
G01X-1726538Y633112D01*
G01X-1728336Y646765D01*
G01X-1733606Y659489D01*
G01X-1741990Y670414D01*
G01X-1752915Y678798D01*
G01X-1765639Y684068D01*
G01X-1779292Y685866D01*
G01X-1792946Y684068D01*
G01X-1805669Y678798D01*
G01X-1816595Y670414D01*
G01X-1824979Y659489D01*
G01X-1830249Y646765D01*
G01X-1832046Y633112D01*
G01X-1832046Y633112D01*
G01X-1856910Y633112D01*
G01X-1857604Y643674D01*
G01X-1862342Y657172D01*
G01X-1870532Y668900D01*
G01X-1881572Y677997D01*
G01X-1894651Y683794D01*
G01X-1908806Y685863D01*
G01X-1922996Y684054D01*
G01X-1936179Y678498D01*
G01X-1947384Y669605D01*
G01X-1955788Y658029D01*
G01X-1960773Y644620D01*
G01X-1961972Y630365D01*
G01X-1959297Y616312D01*
G01X-1952945Y603494D01*
G01X-1965153Y596037D01*
G01X-1974909Y585575D01*
G01X-1981495Y572876D01*
G01X-1984428Y558874D01*
G01X-2037118Y558874D01*
G01X-2037118Y631758D01*
G01X-2027606Y640192D01*
G01X-2020388Y650655D01*
G01X-2015882Y662542D01*
G01X-2014351Y675161D01*
G01X-2015882Y687781D01*
G01X-2020388Y699667D01*
G01X-2027606Y710131D01*
G01X-2037118Y718564D01*
G01X-2037118Y735356D01*
G01X-1703736Y735356D01*
G01X-1701938Y721702D01*
G01X-1696668Y708979D01*
G01X-1688285Y698053D01*
G01X-1677359Y689669D01*
G01X-1664636Y684399D01*
G01X-1650982Y682602D01*
G01X-1637328Y684399D01*
G01X-1624605Y689669D01*
G01X-1613679Y698053D01*
G01X-1605296Y708979D01*
G01X-1600025Y721702D01*
G01X-1598228Y735356D01*
G01X-1600025Y749009D01*
G01X-1605296Y761733D01*
G01X-1613679Y772658D01*
G01X-1618239Y776157D01*
G01X-1465965Y776157D01*
G01X-1464168Y762504D01*
G01X-1458898Y749780D01*
G01X-1450514Y738855D01*
G01X-1439588Y730471D01*
G01X-1426865Y725201D01*
G01X-1413211Y723403D01*
G01X-1399558Y725201D01*
G01X-1386834Y730471D01*
G01X-1375909Y738855D01*
G01X-1367525Y749780D01*
G01X-1362255Y762504D01*
G01X-1360457Y776157D01*
G01X-1362255Y789811D01*
G01X-1364471Y795161D01*
G01X-1184558Y795161D01*
G01X-1182760Y781507D01*
G01X-1177490Y768784D01*
G01X-1169107Y757858D01*
G01X-1158181Y749475D01*
G01X-1145458Y744205D01*
G01X-1131804Y742407D01*
G01X-1119239Y744061D01*
G01X-747257Y744061D01*
G01X-747257Y680061D01*
G01X-745648Y669082D01*
G01X-740955Y659027D01*
G01X-733574Y650742D01*
G01X-724126Y644923D01*
G01X-713404Y642061D01*
G01X-724126Y639200D01*
G01X-733574Y633381D01*
G01X-740955Y625096D01*
G01X-745648Y615040D01*
G01X-747257Y604061D01*
G01X-747257Y540061D01*
G01X-745648Y529082D01*
G01X-740955Y519027D01*
G01X-733574Y510742D01*
G01X-724126Y504923D01*
G01X-713404Y502061D01*
G01X-724126Y499200D01*
G01X-733574Y493381D01*
G01X-740955Y485096D01*
G01X-745648Y475040D01*
G01X-747257Y464061D01*
G01X-747257Y400061D01*
G01X-745385Y388240D01*
G01X-739952Y377576D01*
G01X-731489Y369113D01*
G01X-720825Y363680D01*
G01X-709004Y361807D01*
G01X-575004Y361807D01*
G01X-563182Y363680D01*
G01X-552518Y369113D01*
G01X-544055Y377576D01*
G01X-538622Y388240D01*
G01X-536750Y400061D01*
G01X-536750Y464061D01*
G01X-538359Y475040D01*
G01X-543052Y485096D01*
G01X-550433Y493381D01*
G01X-559882Y499200D01*
G01X-570603Y502061D01*
G01X-559882Y504923D01*
G01X-550433Y510742D01*
G01X-543052Y519027D01*
G01X-538359Y529082D01*
G01X-536750Y540061D01*
G01X-536750Y604061D01*
G01X-538359Y615040D01*
G01X-543052Y625096D01*
G01X-550433Y633381D01*
G01X-559882Y639200D01*
G01X-570603Y642061D01*
G01X-559882Y644923D01*
G01X-550433Y650742D01*
G01X-543052Y659027D01*
G01X-538359Y669082D01*
G01X-536750Y680061D01*
G01X-536750Y680061D01*
G01X-536750Y744061D01*
G01X-538622Y755882D01*
G01X-544055Y766546D01*
G01X-552518Y775009D01*
G01X-563182Y780443D01*
G01X-575004Y782315D01*
G01X-709004Y782315D01*
G01X-720825Y780443D01*
G01X-731489Y775009D01*
G01X-739952Y766546D01*
G01X-745385Y755882D01*
G01X-747257Y744061D01*
G01X-1119239Y744061D01*
G01X-1118150Y744205D01*
G01X-1105427Y749475D01*
G01X-1094501Y757858D01*
G01X-1086118Y768784D01*
G01X-1080847Y781507D01*
G01X-1079050Y795161D01*
G01X-1080847Y808815D01*
G01X-1086118Y821538D01*
G01X-1094501Y832464D01*
G01X-1105427Y840848D01*
G01X-1118150Y846118D01*
G01X-1131804Y847915D01*
G01X-1145458Y846118D01*
G01X-1158181Y840848D01*
G01X-1169107Y832464D01*
G01X-1177490Y821538D01*
G01X-1182760Y808815D01*
G01X-1184558Y795161D01*
G01X-1184558Y795161D01*
G01X-1364471Y795161D01*
G01X-1367525Y802534D01*
G01X-1375909Y813460D01*
G01X-1386834Y821844D01*
G01X-1399558Y827114D01*
G01X-1413211Y828911D01*
G01X-1426865Y827114D01*
G01X-1439588Y821844D01*
G01X-1450514Y813460D01*
G01X-1458898Y802534D01*
G01X-1464168Y789811D01*
G01X-1465965Y776157D01*
G01X-1465965Y776157D01*
G01X-1618239Y776157D01*
G01X-1624605Y781042D01*
G01X-1637328Y786312D01*
G01X-1650982Y788110D01*
G01X-1664636Y786312D01*
G01X-1677359Y781042D01*
G01X-1688285Y772658D01*
G01X-1696668Y761733D01*
G01X-1701938Y749009D01*
G01X-1703736Y735356D01*
G01X-1703736Y735356D01*
G01X-2037118Y735356D01*
G01X-2037118Y798846D01*
G01X-2027128Y805781D01*
G01X-2018992Y814819D01*
G01X-2018806Y815156D01*
G01X-1964207Y815156D01*
G01X-1962410Y801502D01*
G01X-1957139Y788779D01*
G01X-1948756Y777853D01*
G01X-1937830Y769470D01*
G01X-1925107Y764200D01*
G01X-1911453Y762402D01*
G01X-1897799Y764200D01*
G01X-1885076Y769470D01*
G01X-1874150Y777853D01*
G01X-1865767Y788779D01*
G01X-1860497Y801502D01*
G01X-1858699Y815156D01*
G01X-1860497Y828810D01*
G01X-1865767Y841533D01*
G01X-1874150Y852459D01*
G01X-1885076Y860842D01*
G01X-1897799Y866113D01*
G01X-1911453Y867910D01*
G01X-1925107Y866113D01*
G01X-1937830Y860842D01*
G01X-1948756Y852459D01*
G01X-1957139Y841533D01*
G01X-1962410Y828810D01*
G01X-1964207Y815156D01*
G01X-1964207Y815156D01*
G01X-2018806Y815156D01*
G01X-2013141Y825479D01*
G01X-2009886Y837197D01*
G01X-2009401Y849348D01*
G01X-2011712Y861287D01*
G01X-2016695Y872380D01*
G01X-2018823Y875162D01*
G01X-1763436Y875162D01*
G01X-1761639Y861508D01*
G01X-1756368Y848785D01*
G01X-1747985Y837859D01*
G01X-1737059Y829476D01*
G01X-1724336Y824205D01*
G01X-1710682Y822408D01*
G01X-1697028Y824205D01*
G01X-1684305Y829476D01*
G01X-1673379Y837859D01*
G01X-1664996Y848785D01*
G01X-1659726Y861508D01*
G01X-1657928Y875162D01*
G01X-1659726Y888816D01*
G01X-1664996Y901539D01*
G01X-1673379Y912465D01*
G01X-1684305Y920848D01*
G01X-1697028Y926118D01*
G01X-1710682Y927916D01*
G01X-1724336Y926118D01*
G01X-1737059Y920848D01*
G01X-1747985Y912465D01*
G01X-1756368Y901539D01*
G01X-1761639Y888816D01*
G01X-1763436Y875162D01*
G01X-1763436Y875162D01*
G01X-2018823Y875162D01*
G01X-2024085Y882037D01*
G01X-2033491Y889746D01*
G01X-2044412Y895096D01*
G01X-2050933Y900793D01*
G01X-2058802Y904409D01*
G01X-2067372Y905649D01*
G01X-2313598Y905649D01*
G01X-2301760Y911799D01*
G01X-2291843Y920723D01*
G01X-2284481Y931849D01*
G01X-2280146Y944466D01*
G01X-2279115Y957766D01*
G01X-2281453Y970901D01*
G01X-2287012Y983028D01*
G01X-2295435Y993374D01*
G01X-2297006Y994529D01*
G01X-1827568Y994529D01*
G01X-1825770Y980875D01*
G01X-1820500Y968152D01*
G01X-1812116Y957226D01*
G01X-1801191Y948843D01*
G01X-1788467Y943573D01*
G01X-1774814Y941775D01*
G01X-1761160Y943573D01*
G01X-1748437Y948843D01*
G01X-1737511Y957226D01*
G01X-1729127Y968152D01*
G01X-1723857Y980875D01*
G01X-1722060Y994529D01*
G01X-1723857Y1008183D01*
G01X-1729127Y1020906D01*
G01X-1737511Y1031832D01*
G01X-1748437Y1040215D01*
G01X-1761160Y1045486D01*
G01X-1774814Y1047283D01*
G01X-1788467Y1045486D01*
G01X-1801191Y1040215D01*
G01X-1812116Y1031832D01*
G01X-1820500Y1020906D01*
G01X-1825770Y1008183D01*
G01X-1827568Y994529D01*
G01X-1827568Y994529D01*
G01X-2297006Y994529D01*
G01X-2306183Y1001276D01*
G01X-2318571Y1006229D01*
G01X-2331805Y1007915D01*
G01X-2345038Y1006229D01*
G01X-2357426Y1001276D01*
G01X-2368175Y993374D01*
G01X-2376598Y983028D01*
G01X-2382156Y970901D01*
G01X-2384494Y957766D01*
G01X-2383463Y944466D01*
G01X-2379128Y931849D01*
G01X-2371767Y920723D01*
G01X-2361850Y911799D01*
G01X-2350011Y905649D01*
G01X-2425328Y905649D01*
G01X-2435087Y915580D01*
G01X-2447105Y922612D01*
G01X-2460544Y926254D01*
G01X-2474467Y926254D01*
G01X-2487906Y922612D01*
G01X-2499923Y915580D01*
G01X-2509683Y905649D01*
G01X-2605835Y905649D01*
G01X-2684683Y938026D01*
G01X-2681638Y951156D01*
G01X-2682019Y964628D01*
G01X-2685802Y977565D01*
G01X-2692740Y989120D01*
G01X-2702379Y998540D01*
G01X-2714091Y1005211D01*
G01X-2727110Y1008696D01*
G01X-2740588Y1008768D01*
G01X-2753644Y1005423D01*
G01X-2765427Y998878D01*
G01X-2775166Y989562D01*
G01X-2782227Y978081D01*
G01X-2890436Y1022515D01*
G01X-2896071Y1024211D01*
G01X-2901928Y1024783D01*
G37*
G36*
G01X-3501392Y134161D02*
G01X-3502169Y144593D01*
G01X-3504483Y154795D01*
G01X-3488759Y158895D01*
G01X-3474180Y166072D01*
G01X-3461342Y176034D01*
G01X-3450769Y188373D01*
G01X-3442892Y202586D01*
G01X-3438033Y218093D01*
G01X-3436392Y234259D01*
G01X-3436392Y384259D01*
G01X-3437968Y400106D01*
G01X-3442637Y415330D01*
G01X-3450214Y429337D01*
G01X-3460402Y441575D01*
G01X-3472803Y451566D01*
G01X-3486929Y458917D01*
G01X-3502226Y463341D01*
G01X-3501397Y473248D01*
G01X-3496337Y565226D01*
G01X-3497608Y575752D01*
G01X-3499105Y593797D01*
G01X-3504365Y611124D01*
G01X-3513153Y626956D01*
G01X-3525075Y640585D01*
G01X-3539597Y651400D01*
G01X-3556070Y658918D01*
G01X-3573756Y662801D01*
G01X-3591864Y662877D01*
G01X-3771644Y666785D01*
G01X-3772277Y666792D01*
G01X-3777070Y668076D01*
G01X-3780579Y671585D01*
G01X-3781863Y676378D01*
G01X-3782026Y715161D01*
G01X-2626458Y715161D01*
G01X-2624655Y701466D01*
G01X-2619369Y688704D01*
G01X-2610960Y677746D01*
G01X-2600001Y669336D01*
G01X-2587239Y664050D01*
G01X-2573544Y662247D01*
G01X-2559849Y664050D01*
G01X-2547087Y669336D01*
G01X-2536128Y677746D01*
G01X-2527719Y688704D01*
G01X-2522433Y701466D01*
G01X-2520630Y715161D01*
G01X-2469736Y715161D01*
G01X-2467933Y701466D01*
G01X-2462647Y688704D01*
G01X-2454238Y677746D01*
G01X-2443279Y669336D01*
G01X-2430517Y664050D01*
G01X-2416822Y662247D01*
G01X-2403127Y664050D01*
G01X-2390365Y669336D01*
G01X-2379406Y677746D01*
G01X-2377783Y679861D01*
G01X-2319218Y679861D01*
G01X-2317415Y666166D01*
G01X-2312129Y653404D01*
G01X-2303720Y642445D01*
G01X-2292761Y634036D01*
G01X-2279999Y628750D01*
G01X-2266304Y626947D01*
G01X-2252609Y628750D01*
G01X-2239847Y634036D01*
G01X-2228888Y642445D01*
G01X-2220479Y653404D01*
G01X-2215193Y666166D01*
G01X-2213390Y679861D01*
G01X-2215193Y693556D01*
G01X-2220479Y706318D01*
G01X-2228888Y717277D01*
G01X-2239847Y725686D01*
G01X-2252609Y730972D01*
G01X-2266304Y732775D01*
G01X-2279999Y730972D01*
G01X-2292761Y725686D01*
G01X-2303720Y717277D01*
G01X-2312129Y706318D01*
G01X-2317415Y693556D01*
G01X-2319218Y679861D01*
G01X-2319218Y679861D01*
G01X-2377783Y679861D01*
G01X-2370997Y688704D01*
G01X-2365711Y701466D01*
G01X-2363908Y715161D01*
G01X-2365711Y728857D01*
G01X-2370997Y741618D01*
G01X-2379406Y752577D01*
G01X-2390365Y760986D01*
G01X-2403127Y766272D01*
G01X-2416822Y768075D01*
G01X-2430517Y766272D01*
G01X-2443279Y760986D01*
G01X-2454238Y752577D01*
G01X-2462647Y741618D01*
G01X-2467933Y728857D01*
G01X-2469736Y715161D01*
G01X-2469736Y715161D01*
G01X-2520630Y715161D01*
G01X-2522433Y728857D01*
G01X-2527719Y741618D01*
G01X-2536128Y752577D01*
G01X-2547087Y760986D01*
G01X-2559849Y766272D01*
G01X-2573544Y768075D01*
G01X-2587239Y766272D01*
G01X-2600001Y760986D01*
G01X-2610960Y752577D01*
G01X-2619369Y741618D01*
G01X-2624655Y728857D01*
G01X-2626458Y715161D01*
G01X-2626458Y715161D01*
G01X-3782026Y715161D01*
G01X-3782530Y835161D01*
G01X-2764719Y835161D01*
G01X-2762916Y821466D01*
G01X-2757630Y808704D01*
G01X-2749221Y797746D01*
G01X-2738262Y789336D01*
G01X-2725500Y784050D01*
G01X-2711805Y782247D01*
G01X-2698110Y784050D01*
G01X-2685348Y789336D01*
G01X-2674389Y797746D01*
G01X-2665980Y808704D01*
G01X-2660694Y821466D01*
G01X-2658891Y835161D01*
G01X-2660694Y848857D01*
G01X-2665980Y861618D01*
G01X-2674389Y872577D01*
G01X-2685348Y880986D01*
G01X-2698110Y886272D01*
G01X-2711805Y888075D01*
G01X-2725500Y886272D01*
G01X-2738262Y880986D01*
G01X-2749221Y872577D01*
G01X-2757630Y861618D01*
G01X-2762916Y848857D01*
G01X-2764719Y835161D01*
G01X-2764719Y835161D01*
G01X-3782530Y835161D01*
G01X-3782856Y912877D01*
G01X-3781576Y917663D01*
G01X-3778078Y921170D01*
G01X-3773295Y922463D01*
G01X-3633270Y922462D01*
G01X-3618792Y923967D01*
G01X-3604932Y928416D01*
G01X-3592283Y935621D01*
G01X-3581386Y945272D01*
G01X-3572706Y956958D01*
G01X-3566615Y970178D01*
G01X-3563372Y984369D01*
G01X-2903933Y984369D01*
G01X-2782249Y934402D01*
G01X-2775284Y923151D01*
G01X-2765745Y913980D01*
G01X-2754229Y907463D01*
G01X-2741456Y904007D01*
G01X-2728225Y903827D01*
G01X-2715364Y906936D01*
G01X-2615664Y865996D01*
G01X-2611805Y865235D01*
G01X-2519695Y865235D01*
G01X-2515796Y852329D01*
G01X-2508762Y840828D01*
G01X-2499050Y831478D01*
G01X-2487290Y824886D01*
G01X-2474246Y821479D01*
G01X-2460765Y821479D01*
G01X-2447721Y824886D01*
G01X-2435961Y831478D01*
G01X-2426249Y840828D01*
G01X-2419215Y852329D01*
G01X-2415316Y865235D01*
G01X-2335342Y865235D01*
G01X-2341819Y852437D01*
G01X-2344621Y838370D01*
G01X-2343542Y824067D01*
G01X-2338662Y810579D01*
G01X-2330338Y798898D01*
G01X-2319183Y789881D01*
G01X-2306016Y784191D01*
G01X-2291804Y782247D01*
G01X-2277593Y784191D01*
G01X-2264426Y789881D01*
G01X-2253271Y798898D01*
G01X-2244947Y810579D01*
G01X-2240067Y824067D01*
G01X-2238988Y838370D01*
G01X-2241790Y852437D01*
G01X-2248267Y865235D01*
G01X-2077532Y865235D01*
G01X-2077532Y550686D01*
G01X-3089752Y550686D01*
G01X-3094832Y549325D01*
G01X-3098550Y545606D01*
G01X-3099912Y540526D01*
G01X-3099912Y89875D01*
G01X-3462949Y89875D01*
G01X-3475047Y98882D01*
G01X-3488615Y105471D01*
G01X-3503174Y109410D01*
G01X-3501391Y125156D01*
G01X-3501392Y134161D01*
G37*
G54D10*
G01X-2901928Y1024783D02*
G01X-3563017Y1024783D01*
G01X-3563018Y1052623D01*
G01X-3515778Y1052623D01*
G03X-3425901Y1134627I0J90254D01*
G03X-3328547Y1162450I44601J28173D01*
G03X-3425524Y1191562I-52753J350D01*
G01X-3425524Y1310388D01*
G03X-3364092Y1380788I12253J51311D01*
G03X-3456932Y1391309I-49179J-19088D01*
G03X-3515778Y1413131I-58846J-68432D01*
G01X-3559170Y1413131D01*
G03X-3558070Y1432352I-60048J13078D01*
G02X-3553923Y1434120I8206J-13496D01*
G01X-3540878Y1433482D01*
G03X-3531397Y1434524I1478J30218D01*
G01X-3482597Y1434524D01*
G03X-3474244Y1435699I0J30254D01*
G03X-3409108Y1502216I-5027J70074D01*
G01X-3407767Y1508639D01*
G03X-3407320Y1511467I-28372J5925D01*
G02X-3388909Y1530136I20955J-2252D01*
G01X-3379880Y1529710D01*
G03X-3372164Y1530338I1424J30220D01*
G01X-2902947Y1531512D01*
G03X-2829555Y1566305I16937J59075D01*
G03X-2825933Y1577641I-26446J14695D01*
G03X-2825173Y1599283I-60076J12946D01*
G02X-2806453Y1614717I22601J-8342D01*
G03X-2791579Y1610809I14873J26346D01*
G01X-1492550Y1610809D01*
G03X-1482603Y1612491I0J30254D01*
G02X-1457273Y1593760I1023J-25108D01*
G01X-1456550Y1591402D01*
G01X-1456550Y1520346D01*
G03X-1410800Y1435333I87839J-7546D01*
G03X-1368665Y1360224I47647J-22644D01*
G03X-1311840Y1424935I5512J52465D01*
G01X-1213098Y1424935D01*
G01X-1211390Y1424911D01*
G01X-1209606Y1424935D01*
G02X-1174352Y1355484I-176J-43763D01*
G01X-1382475Y1152193D01*
G01X-1382717Y1151954D01*
G03X-1436520Y1005653I131348J-131348D01*
G03X-1501953Y938787I-15284J-50492D01*
G03X-1409669Y923418I50148J16374D01*
G03X-1382717Y889258I158300J97189D01*
G01X-1377617Y884158D01*
G03X-1114921Y884158I131348J131348D01*
G01X-1114682Y884400D01*
G01X-900118Y1104065D01*
G03X-894448Y1112193I-21643J21140D01*
G02X-842268Y1092776I19040J-28654D01*
G03X-781783Y1023239I60485J-8463D01*
G01X-556764Y1024930D01*
G03X-551649Y1025424I-218J28983D01*
G02X-520645Y999988I4818J-25740D01*
G01X-520704Y997633D01*
G03X-520644Y994836I30245J-751D01*
G01X-520712Y44087D01*
G03X-522059Y35155I28907J-8926D01*
G01X-521912Y-723919D01*
G01X-523858Y-724574D01*
G03X-588217Y-805664I-2638J-63991D01*
G01X-588217Y-1239778D01*
G02X-599995Y-1254483I-21840J5423D01*
G01X-805574Y-1254483D01*
G03X-814023Y-1255687I0J-30254D01*
G02X-847955Y-1246573I-3893J53229D01*
G03X-850706Y-1243410I-24147J-18227D01*
G01X-1130312Y-963728D01*
G03X-1392892Y-963613I-131348J-131348D01*
G03X-1392776Y-1226652I128896J-131463D01*
G01X-1174580Y-1444851D01*
G02X-1210978Y-1514597I-35202J-26000D01*
G01X-1211769Y-1514586D01*
G01X-1842136Y-1514586D01*
G03X-1789052Y-1432342I-37171J82244D01*
G01X-1789052Y-1372342D01*
G03X-1967585Y-1353565I-90254J0D01*
G03X-2072388Y-1356504I-52236J-7376D01*
G03X-1969560Y-1376967I52567J-4436D01*
G01X-1969560Y-1432342D01*
G03X-1916477Y-1514586I90254J0D01*
G01X-2707133Y-1514587D01*
G03X-2654049Y-1432342I-37170J82244D01*
G01X-2654049Y-1372342D01*
G03X-2834557Y-1372342I-90254J0D01*
G01X-2834557Y-1432342D01*
G01X-2834551Y-1433397D01*
G03X-2932887Y-1468134I-46507J-24901D01*
G03X-2828662Y-1464427I51829J9837D01*
G03X-2781474Y-1514587I84358J32085D01*
G01X-3411843Y-1514587D01*
G01X-3412633Y-1514597D01*
G02X-3448470Y-1444110I-1193J43747D01*
G01X-3240894Y-1236534D01*
G03X-3240894Y-973838I-131348J131348D01*
G03X-3503589Y-973838I-131348J-131348D01*
G01X-3711810Y-1182059D01*
G02X-3781563Y-1145666I-26006J35198D01*
G01X-3781552Y-1144874D01*
G01X-3781551Y-764839D01*
G02X-3731805Y-715093I49746J0D01*
G01X-3591805Y-715093D01*
G03X-3501552Y-624839I-0J90254D01*
G03X-3501987Y-619723I-30254J0D01*
G01X-3501988Y-589159D01*
G03X-3501552Y-584039I-29818J5120D01*
G01X-3501552Y-574039D01*
G03X-3504691Y-553274I-70254J0D01*
G03X-3436552Y-473939I-12115J79334D01*
G01X-3436552Y-323939D01*
G03X-3502408Y-244987I-80254J0D01*
G03X-3501551Y-234044I-69396J10943D01*
G01X-3501548Y-230064D01*
G03X-3503044Y-198905I-72380J12140D01*
G03X-3436552Y-119840I-13761J79065D01*
G01X-3436552Y30160D01*
G03X-3438907Y49461I-80254J0D01*
G01X-3301900Y49461D01*
G03X-3312041Y-16982I35080J-39349D01*
G03X-3294337Y-34840I45236J27142D01*
G03X-3319559Y-79839I27532J-45000D01*
G03X-3294337Y-124839I52754J0D01*
G03X-3319559Y-169839I27531J-45000D01*
G03X-3294337Y-214839I52754J0D01*
G03X-3312989Y-285335I27532J-45000D01*
G03X-3243396Y-307115I46184J25496D01*
G01X-3242031Y-351574D01*
G01X-3242031Y-351574D01*
G02X-3270114Y-432314I-118376J-4081D01*
G03X-3275028Y-439203I38309J-32525D01*
G03X-3331351Y-620449I351924J-208737D01*
G03X-3284426Y-691534I49445J-18390D01*
G03X-3230933Y-625250I2519J52694D01*
G02X-3190505Y-493765I307829J-22690D01*
G03X-3141583Y-348111I-169901J138110D01*
G01X-3142947Y-303591D01*
G01X-3142947Y-303591D01*
G03X-3069085Y-288349I29475J43752D01*
G03X-3085940Y-214839I-44386J28510D01*
G03X-3060718Y-169840I-27532J45000D01*
G03X-3085940Y-124840I-52754J0D01*
G03X-3060717Y-79840I-27531J45000D01*
G03X-3085940Y-34840I-52754J0D01*
G03X-3080121Y51035I-27532J45000D01*
G03X-3059498Y79715I-9630J28680D01*
G01X-3059498Y510272D01*
G01X-2067372Y510272D01*
G03X-2037118Y540526I0J30254D01*
G01X-2037118Y631758D01*
G03X-2014351Y675161I-29986J43403D01*
G03X-2037118Y718564I-52754J0D01*
G01X-2037118Y798846D01*
G03X-2009401Y849348I-24886J46515D01*
G03X-2044412Y895096I-52603J-3986D01*
G03X-2067372Y905649I-22960J-19701D01*
G01X-2313598Y905649D01*
G03X-2331805Y1007915I-18206J49513D01*
G03X-2350011Y905649I0J-52754D01*
G01X-2425328Y905649D01*
G03X-2509683Y905649I-42177J-31687D01*
G01X-2605835Y905649D01*
G01X-2684683Y938026D01*
G03X-2714091Y1005211I-49447J18385D01*
G03X-2782227Y978081I-20039J-48800D01*
G01X-2890436Y1022515D01*
G03X-2901928Y1024783I-11492J-27986D01*
G01X-3698259Y-1039740D02*
G03X-3592751Y-1039740I52754J0D01*
G03X-3698259Y-1039740I-52754J0D01*
G01X-3531907Y-932693D02*
G03X-3505920Y-837157I-4599J52553D01*
G03X-3548104Y-747586I-37586J37017D01*
G03X-3574091Y-843122I4599J-52553D01*
G03X-3531907Y-932693I37586J-37017D01*
G01X-3518859Y-704840D02*
G03X-3413351Y-704840I52754J0D01*
G03X-3518859Y-704840I-52754J0D01*
G01X-3364559Y-1444840D02*
G03X-3259051Y-1444840I52754J0D01*
G03X-3364559Y-1444840I-52754J0D01*
G01X-3364559Y-844840D02*
G03X-3259051Y-844840I52754J0D01*
G03X-3364559Y-844840I-52754J0D01*
G01X-2786726Y1304109D02*
G03X-2818998Y1312317I-28474J-44409D01*
G03X-3043124Y1361411I-169017J-235464D01*
G03X-3114126Y1415173I-52576J4331D01*
G03X-3132613Y1328053I18426J-49431D01*
G03X-3141451Y1322754I144598J-251199D01*
G02X-3189315Y1303284I-80134J128425D01*
G03X-3267443Y1287626I-32269J-41733D01*
G03X-3240949Y1212479I45859J-26076D01*
G03X-3224063Y1110053I17749J-49679D01*
G03X-3203836Y1211872I863J52747D01*
G03X-3181914Y1226776I-17749J49679D01*
G03X-3100949Y1257846I-39670J224403D01*
G02X-2867514Y1252899I112935J-180992D01*
G03X-2828081Y1208543I52314J6801D01*
G03X-2772344Y1228937I12880J51157D01*
G02X-2648819Y1236737I101660J-627918D01*
G03X-2615961Y1147770I38112J-36476D01*
G03X-2566122Y1228460I5254J52492D01*
G02X-2465443Y1203092I-104562J-627442D01*
G03X-1586973Y1051648I915043J2684266D01*
G03X-1497647Y1089324I36573J38018D01*
G03X-1586477Y1128156I-52753J343D01*
G02X-2253279Y1218939I36077J2759202D01*
G03X-2250436Y1321419I-11042J51585D01*
G03X-2300031Y1231694I-13885J-50894D01*
G02X-2440757Y1275508I749631J2655664D01*
G03X-2786726Y1304109I-229927J-674489D01*
G01X-3243441Y1447400D02*
G03X-3117935Y1447400I62753J0D01*
G03X-3243441Y1447400I-62753J0D01*
G01X-3204559Y-1284840D02*
G03X-3099051Y-1284840I52754J0D01*
G03X-3204559Y-1284840I-52754J0D01*
G01X-3164559Y-904840D02*
G03X-3059051Y-904840I52754J0D01*
G03X-3164559Y-904840I-52754J0D01*
G01X-3164559Y-1064840D02*
G03X-3059051Y-1064840I52754J0D01*
G03X-3164559Y-1064840I-52754J0D01*
G01X-3073439Y1447400D02*
G03X-2947933Y1447400I62753J0D01*
G03X-3073439Y1447400I-62753J0D01*
G01X-3056277Y-1044707D02*
G03X-2950769Y-1044707I52754J0D01*
G03X-3056277Y-1044707I-52754J0D01*
G01X-2987670Y-124839D02*
G03X-2987670Y-214839I27531J-45000D01*
G03X-2960138Y-312593I27532J-45000D01*
G03X-2932607Y-214839I0J52754D01*
G03X-2932606Y-124840I-27532J45000D01*
G03X-2932606Y-34840I-27531J45000D01*
G03X-2960139Y62914I-27532J45000D01*
G03X-2987670Y-34840I0J-52754D01*
G03X-2987670Y-124839I27532J-45000D01*
G01X-3010764Y-746832D02*
G03X-2905256Y-746832I52754J0D01*
G03X-3010764Y-746832I-52754J0D01*
G01X-3010754Y1152600D02*
G03X-2905246Y1152600I52754J0D01*
G03X-3010754Y1152600I-52754J0D01*
G01X-2741074Y-823695D02*
G03X-2682059Y-856686I49269J18856D01*
G03X-2590691Y-873687I50253J16051D01*
G03X-2499165Y-841507I38886J35649D01*
G03X-2415468Y-787709I32357J41666D01*
G02X-2242640Y-821527I-93015J-933886D01*
G03X-1943749Y-881512I485058J1642260D01*
G03X-1964560Y-937328I64442J-55816D01*
G01X-1964560Y-1004895D01*
G03X-2087812Y-1039871I-58231J-29452D01*
G03X-1960426Y-1053553I65021J5524D01*
G03X-1885663Y-1112344I81120J26225D01*
G01X-2152903Y-1118785D01*
G02X-2168613Y-1117497I424J101636D01*
G03X-2125121Y-1040271I-3192J52657D01*
G03X-2213401Y-1032394I-46684J-24569D01*
G03X-2248484Y-991731I-51922J-9331D01*
G03X-2301019Y-1002882I-16840J-49994D01*
G03X-2380059Y-1008558I-37026J-37578D01*
G03X-2364295Y-1086218I42015J-31902D01*
G03X-2151607Y-1231283I212688J83386D01*
G01X-2150685Y-1231272D01*
G01X-1810883Y-1223082D01*
G03X-1806181Y-1222678I-922J38243D01*
G03X-1556507Y-1036117I-48302J324992D01*
G02X-1531990Y-987084I864985J-401849D01*
G02X-1496616Y-951710I76314J-40939D01*
G03X-1448453Y-910427I-69883J130268D01*
G03X-1405718Y-790693I-170053J128187D01*
G03X-1387138Y-716770I-26086J45853D01*
G03X-1461804Y-701446I-44666J-28070D01*
G03X-1541574Y-727349I-30000J-43393D01*
G03X-1557454Y-723985I-18743J-49312D01*
G03X-1606208Y-682197I-51618J-10889D01*
G03X-1707611Y-675636I-51618J-10888D01*
G03X-1781801Y-661092I-44174J-28838D01*
G03X-1814000Y-651765I-30016J-43382D01*
G03X-1845317Y-663721I2182J-52709D01*
G03X-1900661Y-656455I-33500J-40752D01*
G03X-2528729Y-526709I-843102J-2496228D01*
G02X-2571002Y-518961I17167J212842D01*
G03X-2556832Y-448565I-30806J42825D01*
G03X-2625994Y-429252I-44976J-27571D01*
G03X-2710406Y-443915I-36937J-37665D01*
G03X-2722712Y-443808I-6606J-52339D01*
G03X-2778026Y-412543I-48381J-21031D01*
G03X-2830237Y-383698I-47148J-23666D01*
G03X-2875974Y-421988I5063J-52510D01*
G03X-2904986Y-404647I-40145J-34225D01*
G03X-2987364Y-367070I-52429J-5851D01*
G03X-2981515Y-457425I29950J-43428D01*
G03X-2990407Y-542925I25978J-45914D01*
G03X-2845784Y-720448I229856J39586D01*
G03X-2719164Y-759734I331030J843210D01*
G03X-2741074Y-823695I27359J-45105D01*
G01X-2944559Y195161D02*
G03X-2839051Y195161I52754J0D01*
G03X-2944559Y195161I-52754J0D01*
G01X-2922926Y-891814D02*
G03X-2829552Y-936426I51121J-13026D01*
G01X-2829557Y-937328D01*
G01X-2829557Y-1027328D01*
G03X-2663170Y-1053513I85254J0D01*
G03X-2631192Y-1092089I62377J19166D01*
G03X-2646060Y-1195631I-613J-52750D01*
G03X-2604880Y-1099474I14255J50791D01*
G03X-2544175Y-1001902I4087J65127D01*
G03X-2659049Y-1004946I-56618J-32445D01*
G01X-2659049Y-937328D01*
G03X-2819589Y-897325I-85254J0D01*
G03X-2922926Y-891814I-52216J-7515D01*
G01X-2798613Y-1295918D02*
G03X-2801765Y-1193050I-13192J51078D01*
G03X-2848819Y-1101521I-33863J40451D01*
G03X-2845667Y-1204388I13192J-51078D01*
G03X-2798613Y-1295918I33863J-40451D01*
G01X-2834336Y-124839D02*
G03X-2834337Y-214839I27531J-45000D01*
G03X-2806805Y-312593I27532J-45000D01*
G03X-2779273Y-214839I0J52754D01*
G03X-2779273Y-124840I-27532J45000D01*
G03X-2779273Y-34840I-27531J45000D01*
G03X-2806805Y62914I-27532J45000D01*
G03X-2834336Y-34840I0J-52754D01*
G03X-2834336Y-124839I27532J-45000D01*
G01X-2713295Y355159D02*
G03X-2607787Y355159I52754J0D01*
G03X-2713295Y355159I-52754J0D01*
G01X-2703659Y120371D02*
G03X-2675027Y76962I52633J3570D01*
G03X-2648152Y21322I51942J-9222D01*
G03X-2603251Y-42764I51432J-11738D01*
G03X-2543981Y8327I6530J52348D01*
G01X-2404701Y148166D01*
G02X-2359031Y190828I614475J-612021D01*
G03X-2278217Y126617I47207J-23547D01*
G03X-2326058Y218078I-33607J40664D01*
G02X-2316585Y225416I535832J-681934D01*
G03X-2259740Y261233I6740J52322D01*
G03X-2284170Y323822I-50106J16505D01*
G03X-2257288Y365357I-25675J46084D01*
G03X-2276633Y410893I-52557J4550D01*
G03X-2275104Y491579I-33213J40987D01*
G03X-2354875Y479363I-34741J-39699D01*
G03X-2440597Y420347I73099J-197944D01*
G01X-2442021Y418621D01*
G02X-2605697Y226064I-2252542J1748857D01*
G03X-2689533Y255806I-51403J-11864D01*
G03X-2681150Y167247I32433J-41606D01*
G03X-2703659Y120371I30125J-43307D01*
G01X-1288418Y-103416D02*
G03X-1253606Y-161186I52152J-7947D01*
G03X-1277255Y-212260I28667J-44285D01*
G03X-1241354Y-255606I52315J6789D01*
G03X-1270578Y-269440I6874J-52304D01*
G03X-1556391Y-286861I3786J-2415323D01*
G02X-1579249Y-289321I-106004J877722D01*
G03X-1633653Y-232110I-52563J4489D01*
G03X-1683933Y-292977I1841J-52722D01*
G02X-2026073Y-214975I21538J883837D01*
G03X-2196067Y-161317I-310938J-688974D01*
G03X-2429737Y-130161I-399747J-2106255D01*
G03X-2433401Y-130052I-2963J-38139D01*
G03X-2539086Y-194744I2244J-122339D01*
G03X-2599514Y-172160I-44828J-27810D01*
G03X-2636615Y-224934I15600J-50395D01*
G03X-2670973Y-302060I11718J-51436D01*
G03X-2587303Y-313380I46076J25690D01*
G03X-2539128Y-308116I-37594J567158D01*
G03X-2476484Y-245472I-11285J73928D01*
G02X-2433566Y-206603I45326J-6919D01*
G02X-2242985Y-230557I-162249J-2060969D01*
G03X-2252033Y-285159I39785J-34643D01*
G03X-2207331Y-317792I48833J19959D01*
G03X-1973596Y-403371I211477J215610D01*
G03X-1675214Y-442941I613307J3479883D01*
G03X-1468395Y-442941I103409J1155661D01*
G02X-1311030Y-477911I23703J-264893D01*
G03X-1281649Y-491746I94461J162490D01*
G03X-1265571Y-549551I49845J-17275D01*
G03X-1205608Y-622605I48107J-21649D01*
G03X-1183697Y-530669I-11855J51405D01*
G03X-1179163Y-512466I-48107J21649D01*
G03X-1138174Y-495606I2283J52705D01*
G03X-986465Y-433198I-38706J309693D01*
G03X-943559Y-374420I-79214J102873D01*
G03X-860582Y-338239I30656J42932D01*
G03X-931656Y-282180I-52320J6751D01*
G02X-897081Y-176166I346124J-54240D01*
G03X-860637Y-113281I-14864J50617D01*
G03X-921587Y-73684I-51308J-12269D01*
G02X-917787Y-66948I117029J-61581D01*
G03X-892029Y26381I-7330J52242D01*
G03X-977721Y-18684I-33088J-41087D01*
G03X-1012144Y-113251I173163J-116581D01*
G02X-1127935Y-369913I-447555J47462D01*
G03X-1169643Y-370351I-19570J-122305D01*
G02X-1190340Y-372224I-20791J114457D01*
G03X-1212356Y-355801I-41464J-32615D01*
G03X-1181727Y-307606I-22124J47890D01*
G03X-1128115Y-259612I1073J52743D01*
G03X-1172254Y-202783I-52540J4748D01*
G03X-1207599Y-155648I-52685J-2688D01*
G03X-1188015Y-90038I-28667J44285D01*
G03X-1164600Y-8370I-18362J49455D01*
G03X-1249537Y-10249I-41777J-32213D01*
G02X-1255258Y6465I277177J104216D01*
G02X-1323835Y300826I2032585J628696D01*
G03X-1258432Y359012I13128J51095D01*
G03X-1336972Y397672I-52275J-7091D01*
G02X-1348749Y554768I2114299J237489D01*
G03X-1281052Y601234I15101J50547D01*
G03X-1340772Y657585I-52596J4081D01*
G03X-1418461Y678597I-47751J-22424D01*
G03X-1426472Y598517I29938J-43436D01*
G03X-1404402Y321904I2203799J36645D01*
G03X-1473625Y263428I-17174J-49880D01*
G03X-1389277Y230314I52049J8596D01*
G03X-1380717Y186920I2166603J404847D01*
G03X-1455888Y128123I-23727J-47117D01*
G03X-1362696Y107551I51445J11680D01*
G03X-1328350Y-16143I2140023J527610D01*
G03X-1288418Y-103416I355989J110111D01*
G01X-2664559Y-1304840D02*
G03X-2559051Y-1304840I52754J0D01*
G03X-2664559Y-1304840I-52754J0D01*
G01X-2533660Y1377087D02*
G03X-2428152Y1377087I52754J0D01*
G03X-2533660Y1377087I-52754J0D01*
G01X-2370533Y-464100D02*
G03X-2265025Y-464100I52754J0D01*
G03X-2370533Y-464100I-52754J0D01*
G01X-2177764Y362856D02*
G03X-2150386Y316606I52754J0D01*
G03X-2175170Y254020I25376J-46250D01*
G03X-2118282Y218033I50161J16337D01*
G03X-2035744Y175147I237236J355710D01*
G03X-2084831Y139426I844J-52747D01*
G03X-2188079Y160695I-52069J8474D01*
G03X-2086969Y130874I51179J-12795D01*
G03X-2026098Y70385I52069J-8474D01*
G03X-1931497Y44848I52398J6115D01*
G03X-1982501Y128515I-42203J31652D01*
G03X-2002014Y163649I-52398J-6115D01*
G03X-1980723Y157961I120968J410094D01*
G01X-1980342Y157872D01*
G02X-1956513Y145957I-12582J-54951D01*
G03X-1868957Y108262I105656J124879D01*
G03X-1802064Y104019I36025J38538D01*
G03X-1740329Y104020I30868J42781D01*
G03X-1677179Y105077I30868J42780D01*
G03X-1589291Y142523I35167J39323D01*
G03X-1674294Y186123I-52721J1876D01*
G01X-1675633Y187280D01*
G03X-1727684Y280854I-182907J-40480D01*
G03X-1842914Y371021I-468250J-479694D01*
G03X-1847177Y461814I-28890J44140D01*
G03X-1924548Y414115I-24628J-46653D01*
G03X-1940488Y420928I-271386J-612955D01*
G03X-2015108Y441129I-116696J-283128D01*
G02X-2072870Y463382I29888J163679D01*
G03X-2155268Y498570I-52140J-8025D01*
G03X-2150385Y409106I30258J-43214D01*
G03X-2177764Y362856I25376J-46250D01*
G01X-2167108Y1486928D02*
G03X-2061600Y1486928I52754J0D01*
G03X-2167108Y1486928I-52754J0D01*
G01X-2152446Y-44833D02*
G03X-2046938Y-44833I52754J0D01*
G03X-2152446Y-44833I-52754J0D01*
G01X-2072459Y1332183D02*
G03X-1966951Y1332183I52754J0D01*
G03X-2072459Y1332183I-52754J0D01*
G01X-1946443Y504479D02*
G03X-1888149Y584779I14639J50682D01*
G03X-1894651Y683794I-21141J48333D01*
G03X-1952945Y603494I-14639J-50682D01*
G03X-1946443Y504479I21141J-48333D01*
G01X-1964207Y815156D02*
G03X-1858699Y815156I52754J0D01*
G03X-1964207Y815156I-52754J0D01*
G01X-1859804Y1420015D02*
G01X-1923804Y1420015D01*
G03X-1962058Y1381761I0J-38254D01*
G01X-1962058Y1247761D01*
G03X-1923804Y1209507I38254J0D01*
G01X-1859804Y1209507D01*
G03X-1831984Y1221506I0J38254D01*
G03X-1803804Y1209122I28179J25871D01*
G01X-1739804Y1209122D01*
G03X-1711625Y1221506I0J38254D01*
G03X-1683804Y1209507I27821J26256D01*
G01X-1619804Y1209507D01*
G03X-1581550Y1247761I0J38254D01*
G01X-1581550Y1381761D01*
G03X-1619804Y1420015I-38254J0D01*
G01X-1683804Y1420015D01*
G03X-1711984Y1407632I0J-38254D01*
G03X-1739804Y1419630I-27821J-26256D01*
G01X-1803804Y1419630D01*
G03X-1831625Y1407632I0J-38254D01*
G03X-1859804Y1420015I-28179J-25871D01*
G01X-1909610Y-59788D02*
G03X-1804102Y-59788I52754J0D01*
G03X-1909610Y-59788I-52754J0D01*
G01X-1832046Y633112D02*
G03X-1726538Y633112I52754J0D01*
G03X-1832046Y633112I-52754J0D01*
G01X-1827568Y994529D02*
G03X-1722060Y994529I52754J0D01*
G03X-1827568Y994529I-52754J0D01*
G01X-1790816Y-1460540D02*
G03X-1685308Y-1460540I52754J0D01*
G03X-1790816Y-1460540I-52754J0D01*
G01X-1763436Y875162D02*
G03X-1657928Y875162I52754J0D01*
G03X-1763436Y875162I-52754J0D01*
G01X-1703736Y735356D02*
G03X-1598228Y735356I52754J0D01*
G03X-1703736Y735356I-52754J0D01*
G01X-1684558Y-59788D02*
G03X-1579050Y-59788I52754J0D01*
G03X-1684558Y-59788I-52754J0D01*
G01X-1684558Y-509876D02*
G03X-1579050Y-509876I52754J0D01*
G03X-1684558Y-509876I-52754J0D01*
G01X-1480501Y-1293559D02*
G03X-1374993Y-1293559I52754J0D01*
G03X-1480501Y-1293559I-52754J0D01*
G01X-1465965Y776157D02*
G03X-1360457Y776157I52754J0D01*
G03X-1465965Y776157I-52754J0D01*
G01X-1464558Y1215162D02*
G03X-1359050Y1215162I52754J0D01*
G03X-1464558Y1215162I-52754J0D01*
G01X-1459522Y-509876D02*
G03X-1354014Y-509876I52754J0D01*
G03X-1459522Y-509876I-52754J0D01*
G01X-1459522Y-59788D02*
G03X-1354014Y-59788I52754J0D01*
G03X-1459522Y-59788I-52754J0D01*
G01X-1364559Y-1444840D02*
G03X-1259051Y-1444840I52754J0D01*
G03X-1364559Y-1444840I-52754J0D01*
G01X-1284560Y675161D02*
G03X-1179051Y675161I52754J0D01*
G03X-1284560Y675161I-52754J0D01*
G01X-1190050Y-844840D02*
G03X-1084542Y-844840I52754J0D01*
G03X-1190050Y-844840I-52754J0D01*
G01X-1184558Y795161D02*
G03X-1079050Y795161I52754J0D01*
G03X-1184558Y795161I-52754J0D01*
G01X-1084558Y-618568D02*
G03X-979050Y-618568I52754J0D01*
G03X-1084558Y-618568I-52754J0D01*
G01X-1046159Y-1004040D02*
G03X-940651Y-1004040I52754J0D01*
G03X-1046159Y-1004040I-52754J0D01*
G01X-1039858Y-895040D02*
G03X-934350Y-895040I52754J0D01*
G03X-1039858Y-895040I-52754J0D01*
G01X-964559Y1015160D02*
G03X-859051Y1015160I52754J0D01*
G03X-964559Y1015160I-52754J0D01*
G01X-769911Y-599665D02*
G03X-806218Y-508248I-35889J38665D01*
G03X-809710Y-484574I-52575J4340D01*
G03X-826812Y-461953I-36892J-10116D01*
G03X-908841Y-487228I-31981J-41955D01*
G03X-858375Y-556660I50048J-16679D01*
G03X-769911Y-599665I52575J-4340D01*
G01X-911029Y166591D02*
G03X-805521Y166591I52754J0D01*
G03X-911029Y166591I-52754J0D01*
G01X-879458Y-775040D02*
G03X-773950Y-775040I52754J0D01*
G03X-879458Y-775040I-52754J0D01*
G01X-794547Y-980812D02*
G03X-699747Y-973937I45744J26278D01*
G03X-624886Y-883350I20447J59329D01*
G03X-740851Y-902383I-54414J-31258D01*
G03X-794547Y-980812I-7952J-52151D01*
G01X-536750Y680061D02*
G01X-536750Y744061D01*
G03X-575004Y782315I-38254J0D01*
G01X-709004Y782315D01*
G03X-747257Y744061I0J-38254D01*
G01X-747257Y680061D01*
G03X-713404Y642061I38254J0D01*
G03X-747257Y604061I4401J-38000D01*
G01X-747257Y540061D01*
G03X-713404Y502061I38254J0D01*
G03X-747257Y464061I4401J-38000D01*
G01X-747257Y400061D01*
G03X-709004Y361807I38254J0D01*
G01X-575004Y361807D01*
G03X-536750Y400061I0J38254D01*
G01X-536750Y464061D01*
G03X-570603Y502061I-38254J0D01*
G03X-536750Y540061I-4401J38000D01*
G01X-536750Y604061D01*
G03X-570603Y642061I-38254J0D01*
G03X-536750Y680061I-4401J38000D01*
G01X-744744Y-179025D02*
G01X-744744Y-243025D01*
G03X-710891Y-281025I38254J0D01*
G03X-744744Y-319025I4401J-38000D01*
G01X-744744Y-383025D01*
G03X-710891Y-421025I38254J0D01*
G03X-744744Y-459025I4401J-38000D01*
G01X-744744Y-523025D01*
G03X-706490Y-561279I38254J0D01*
G01X-572490Y-561279D01*
G03X-534236Y-523025I0J38254D01*
G01X-534236Y-459025D01*
G03X-568089Y-421025I-38254J0D01*
G03X-534236Y-383025I-4401J38000D01*
G01X-534236Y-319025D01*
G03X-568089Y-281025I-38254J0D01*
G03X-534236Y-243025I-4401J38000D01*
G01X-534236Y-179025D01*
G03X-568090Y-141025I-38254J0D01*
G03X-534236Y-103025I-4400J38000D01*
G01X-534236Y-39024D01*
G03X-572490Y-771I-38254J0D01*
G01X-706490Y-771D01*
G03X-744744Y-39024I0J-38254D01*
G01X-744744Y-103025D01*
G03X-710890Y-141025I38254J0D01*
G03X-744744Y-179025I4400J-38000D01*
G01X-742053Y-1084610D02*
G03X-616547Y-1084610I62753J0D01*
G03X-742053Y-1084610I-62753J0D01*
G54D11*
G01X-3501392Y134161D02*
G03X-3504483Y154795I-70414J0D01*
G03X-3436392Y234259I-12323J79464D01*
G01X-3436392Y384259D01*
G03X-3502226Y463341I-80414J0D01*
G03X-3501397Y473248I-69578J10814D01*
G01X-3496337Y565226D01*
G03X-3497608Y575752I-30368J1670D01*
G03X-3591864Y662877I-85556J1989D01*
G01X-3771644Y666785D01*
G01X-3772277Y666792D01*
G02X-3781863Y676378I0J9586D01*
G01X-3782856Y912877D01*
G02X-3773295Y922463I9586J0D01*
G01X-3633270Y922462D01*
G03X-3563372Y984369I0J70414D01*
G01X-2903933Y984369D01*
G01X-2782249Y934402D01*
G03X-2715364Y906936I48120J22009D01*
G01X-2615664Y865996D01*
G03X-2611805Y865235I3859J9398D01*
G01X-2519695Y865235D01*
G03X-2415316Y865235I52189J8727D01*
G01X-2335342Y865235D01*
G03X-2291804Y782247I43537J-30073D01*
G03X-2248267Y865235I0J52914D01*
G01X-2077532Y865235D01*
G01X-2077532Y550686D01*
G01X-3089752Y550686D01*
G03X-3099912Y540526I0J-10160D01*
G01X-3099912Y89875D01*
G01X-3462949Y89875D01*
G03X-3503174Y109410I-53857J-59715D01*
G03X-3501391Y125156I-68631J15745D01*
G01X-3501392Y134161D01*
G01X-2764719Y835161D02*
G03X-2658891Y835161I52914J0D01*
G03X-2764719Y835161I-52914J0D01*
G01X-2626458Y715161D02*
G03X-2520630Y715161I52914J0D01*
G03X-2626458Y715161I-52914J0D01*
G01X-2469736Y715161D02*
G03X-2363908Y715161I52914J0D01*
G03X-2469736Y715161I-52914J0D01*
G01X-2319218Y679861D02*
G03X-2213390Y679861I52914J0D01*
G03X-2319218Y679861I-52914J0D01*
G04 Copper End*

G04 Pad Start*
G54D12*
G01X-1771804Y1314376D03*
G01X-1651804Y1314761D03*
G54D13*
G01X-3641806Y-44840D03*
G01X-3641806Y309259D03*
G01X-3641806Y-398939D03*
G54D14*
G01X-642004Y712061D03*
G01X-642004Y432061D03*
G01X-642004Y572061D03*
G54D16*
G01X-3510777Y887878D03*
G01X-3515777Y697878D03*
G01X-3510778Y1142877D03*
G01X-3510778Y1327877D03*
G54D17*
G01X-3630778Y792877D03*
G01X-3630778Y1232877D03*
G54D16*
G01X-3745777Y887878D03*
G01X-3745777Y697878D03*
G01X-3750778Y1327877D03*
G01X-3750778Y1137877D03*
G01X-3531805Y-333939D03*
G01X-3751805Y-333939D03*
G01X-3751805Y-463939D03*
G01X-3531805Y-463939D03*
G01X-3751805Y20161D03*
G01X-3531805Y20161D03*
G01X-3531805Y-109839D03*
G01X-3751805Y-109839D03*
G01X-3531805Y374260D03*
G01X-3531805Y244259D03*
G01X-3751806Y374260D03*
G01X-3751806Y244259D03*
G54D12*
G01X-1891804Y1314761D03*
G54D14*
G01X-639490Y-491025D03*
G01X-639490Y-351025D03*
G01X-639490Y-211025D03*
G01X-639490Y-71024D03*
G54D18*
G01X-2744303Y-982328D03*
G01X-1879306Y-982328D03*
G54D19*
G01X-2744303Y-1402342D03*
G01X-1879306Y-1402342D03*
G04 Pad End*

G04 Via Start*
G54D20*
G01X-1891809Y215157D03*
G01X-1404443Y139803D03*
G01X-1206377Y-40583D03*
G01X-1236267Y-111363D03*
G01X-1413211Y776157D03*
G01X-2551805Y-838038D03*
G01X-1388522Y635161D03*
G01X-1753620Y-995851D03*
G01X-1909290Y633112D03*
G01X-1650982Y735356D03*
G01X-1191811Y35157D03*
G01X-1333648Y605315D03*
G01X-2958010Y-746832D03*
G01X-2631807Y-840635D03*
G01X-1137296Y-844840D03*
G01X-2881058Y-1458298D03*
G01X-1738062Y-1460540D03*
G01X-3466105Y-704840D03*
G01X-3116905Y-659739D03*
G01X-3427906Y-602672D03*
G01X-2660541Y355159D03*
G01X-2291804Y835161D03*
G01X-2266304Y679861D03*
G01X-2131805Y845362D03*
G01X-2623085Y67740D03*
G01X-2596720Y9584D03*
G01X-2651025Y123940D03*
G01X-2309845Y451880D03*
G01X-2309845Y369907D03*
G01X-2309845Y277738D03*
G01X-2125010Y270357D03*
G01X-2125010Y362856D03*
G01X-2125010Y455356D03*
G01X-3281907Y-638840D03*
G01X-3256803Y175160D03*
G01X-2467505Y873962D03*
G01X-3266805Y10160D03*
G01X-2806805Y10160D03*
G01X-3113472Y10160D03*
G01X-2960138Y10160D03*
G01X-3113471Y-79840D03*
G01X-2960138Y-79840D03*
G01X-2806804Y-79840D03*
G01X-3266805Y-79840D03*
G01X-3113472Y-169839D03*
G01X-2960138Y-169839D03*
G01X-2806805Y-169839D03*
G01X-3266805Y-169839D03*
G01X-3113472Y-259839D03*
G01X-2960138Y-259839D03*
G01X-2806805Y-259839D03*
G01X-3266805Y-259839D03*
G01X-2916120Y-456212D03*
G01X-2771093Y-464839D03*
G01X-2601808Y-476135D03*
G01X-2734129Y956411D03*
G01X-1406768Y-509876D03*
G01X-1311805Y-1444840D03*
G01X-993405Y-1004040D03*
G01X-911805Y1015160D03*
G01X-1363153Y1412689D03*
G01X-3311805Y-1444840D03*
G01X-3645505Y-1039740D03*
G01X-1406768Y-59788D03*
G01X-1856856Y-59788D03*
G01X-1631804Y-509876D03*
G01X-1421576Y272024D03*
G01X-3003523Y-1044707D03*
G01X-1709461Y146800D03*
G01X-1771196Y146800D03*
G01X-1832932Y146800D03*
G01X-1631804Y-59788D03*
G01X-1431804Y-744840D03*
G01X-1491804Y-744840D03*
G01X-2265324Y-1041725D03*
G01X-2338044Y-1040459D03*
G01X-1560600Y-850738D03*
G01X-2264321Y1270525D03*
G01X-2614303Y-80578D03*
G01X-2583915Y-222554D03*
G01X-2624897Y-276370D03*
G01X-2957414Y-410498D03*
G01X-2856762Y-503339D03*
G01X-2825173Y-436209D03*
G01X-2717012Y-496254D03*
G01X-2662931Y-466917D03*
G01X-2955537Y-503339D03*
G01X-1224939Y-205471D03*
G01X-1560317Y-776661D03*
G01X-1609072Y-734873D03*
G01X-1657826Y-693085D03*
G01X-1878817Y-704474D03*
G01X-1751785Y-704474D03*
G01X-1811818Y-704474D03*
G01X-2835627Y-1152599D03*
G01X-1973700Y76500D03*
G01X-2034900Y122400D03*
G01X-2136900Y147900D03*
G01X-2019705Y1332183D03*
G01X-1217464Y-571200D03*
G01X-1180655Y-254863D03*
G01X-1234481Y-307910D03*
G01X-1176880Y-459762D03*
G01X-1631812Y-284832D03*
G01X-805800Y-561000D03*
G01X-2657100Y214200D03*
G01X-1774814Y994529D03*
G01X-2468400Y-275400D03*
G01X-2317779Y-464100D03*
G01X-1231804Y-404839D03*
G01X-1231804Y-509020D03*
G01X-2203200Y-265200D03*
G01X-3338105Y324961D03*
G01X-3402405Y688861D03*
G01X-3286408Y753160D03*
G01X-3286408Y573160D03*
G01X-3196905Y828860D03*
G01X-3191805Y715161D03*
G01X-2071206Y-501176D03*
G01X-912902Y-331488D03*
G01X-1379304Y-876590D03*
G01X-908602Y470758D03*
G01X-925117Y-14706D03*
G01X-858275Y166591D03*
G01X-1310708Y351921D03*
G01X-928631Y-428818D03*
G01X-3033814Y1247644D03*
G01X-3304800Y438600D03*
G01X-1779292Y633112D03*
G01X-2815200Y1259700D03*
G01X-911945Y-125549D03*
G01X-2905423Y-1239539D03*
G01X-1642012Y144400D03*
G01X-3221585Y1261550D03*
G01X-1131804Y795161D03*
G01X-1231806Y675161D03*
G01X-1451804Y955161D03*
G01X-1411804Y1215162D03*
G01X-1931804Y555161D03*
G01X-1871804Y415161D03*
G01X-2311823Y167281D03*
G01X-2099692Y-44833D03*
G01X-3543505Y-800139D03*
G01X-3536505Y-880139D03*
G01X-3311805Y-844840D03*
G01X-3111805Y-1064840D03*
G01X-3151805Y-1284840D03*
G01X-2871805Y-904840D03*
G01X-2811805Y-1244840D03*
G01X-2631805Y-1144840D03*
G01X-2611805Y-1304840D03*
G01X-2019821Y-1360941D03*
G01X-1427747Y-1293559D03*
G01X-987104Y-895040D03*
G01X-1031804Y-618568D03*
G01X-2171805Y-1064840D03*
G01X-1756805Y-1068151D03*
G01X-3111805Y-904840D03*
G01X-2691805Y-804840D03*
G01X-3305505Y955561D03*
G01X-3407505Y440261D03*
G01X-858793Y-503908D03*
G01X-1550400Y1089666D03*
G01X-2573544Y715161D03*
G01X-2711805Y835161D03*
G01X-2416822Y715161D03*
G01X-1911453Y815156D03*
G01X-1710682Y875162D03*
G01X-775456Y-1124193D03*
G01X-3381300Y1162800D03*
G01X-3413271Y1361700D03*
G01X-2958000Y1152600D03*
G01X-3223200Y1162800D03*
G01X-3095700Y1365741D03*
G01X-748803Y-954535D03*
G01X-2891805Y195161D03*
G01X-826704Y-775040D03*
G01X-2062005Y845362D03*
G01X-2067105Y675161D03*
G01X-2466808Y-799841D03*
G01X-2480906Y1377087D03*
G01X-2610707Y1200262D03*
G01X-2076809Y-294842D03*
G01X-2331805Y955161D03*
G01X-2114354Y1486928D03*
G04 Via End*

G04 Track Start*
G54D21*
G01X-2596720Y9584D02*
G01X-2431805Y175161D01*
G01X-1431804Y-744840D02*
G01X-1443804Y-756839D01*
G01X-1443804Y-782239D01*
G01X-1491804Y-744840D02*
G01X-1479804Y-756839D01*
G01X-1479804Y-782239D01*
G01X-1812672Y-1148850D02*
G01X-2152479Y-1157040D01*
G01X-1811804Y-1184840D02*
G01X-2151607Y-1193029D01*
G01X-1291804Y-4839D02*
G03X-1236267Y-111363I319444J98807D01*
G01X-2125010Y270357D02*
G03X-1971805Y195161I243964J303387D01*
G02X-1931804Y175161I-21120J-92240D01*
G03X-1832932Y146800I80948J95675D01*
G01X-2623085Y67740D02*
G01X-2568706Y123129D01*
G01X-2515354Y179508D01*
G01X-2463048Y236858D01*
G01X-2411805Y295161D01*
G01X-2651025Y123940D02*
G03X-2411805Y395161I-2043538J2043538D01*
G01X-1388522Y635161D02*
G03X-1291804Y-4839I2165849J-0D01*
G54D22*
G01X-3281907Y-638840D02*
G02X-3231805Y-464839I358803J-9100D01*
G03X-3191807Y-349842I-128601J109185D01*
G01X-3191807Y-349842D02*
G01X-3194423Y-248607D01*
G01X-3195296Y-147341D01*
G01X-3194423Y-46075D01*
G01X-3191805Y55161D01*
G01X-3191805Y55161D02*
G03X-3256803Y175160I-134696J4644D01*
G54D21*
G01X-2662931Y-466917D02*
G03X-2611805Y-544839I84944J0D01*
G03X-2531805Y-564839I100243J230972D01*
G02X-1878817Y-704474I-211919J-2587654D01*
G01X-2717012Y-496254D02*
G03X-2671805Y-584839I109399J0D01*
G01X-2671805Y-584839D02*
G03X-2551805Y-624839I123459J170375D01*
G02X-2011804Y-724840I-27203J-1654895D01*
G03X-1716810Y-749842I193519J530501D01*
G03X-1657826Y-693085I-13309J72859D01*
G01X-2856762Y-503339D02*
G03X-2751805Y-644839I147862J0D01*
G01X-2751805Y-644839D02*
G03X-2541808Y-679842I239655J790373D01*
G01X-2541808Y-679842D02*
G02X-2131809Y-749842I-56240J-1565115D01*
G01X-2131809Y-749842D02*
G03X-1716810Y-794841I321855J1032109D01*
G01X-1716810Y-794841D02*
G03X-1609072Y-734873I-12978J150081D01*
G01X-2955537Y-503339D02*
G03X-2831805Y-684839I194986J0D01*
G03X-2511805Y-744840I317051J807602D01*
G02X-2231805Y-784839I3321J-976755D01*
G01X-2231805Y-784839D02*
G03X-1866809Y-849841I474222J1605573D01*
G01X-1866809Y-849841D02*
G03X-1671804Y-844840I70076J1071784D01*
G03X-1560317Y-776661I-18141J154906D01*
G01X-1479804Y-782239D02*
G02X-1535100Y-887400I-127644J0D01*
G03X-1632000Y-1014900I145015J-210783D01*
G01X-1632000Y-1014900D02*
G02X-1812672Y-1148850I-187968J64711D01*
G01X-1443804Y-782239D02*
G02X-1479000Y-887400I-174701J0D01*
G02X-1514700Y-918000I-87500J65958D01*
G01X-1514700Y-918000D02*
G03X-1565700Y-969000I59024J-110023D01*
G01X-1565700Y-969000D02*
G01X-1578816Y-994317D01*
G01X-1591200Y-1020000D01*
G01X-1591200Y-1020000D02*
G02X-1811804Y-1184840I-263283J122314D01*
G01X-2411805Y395161D02*
G02X-2309845Y451880I130029J-113741D01*
G01X-2411805Y295161D02*
G02X-2309845Y369907I213259J-183989D01*
G01X-2431805Y175161D02*
G02X-2309845Y277738I641579J-639017D01*
G01X-2152479Y-1157040D02*
G02X-2264945Y-1100340I0J139891D01*
G02X-2265324Y-1041725I39971J29566D01*
G01X-1671804Y-404839D02*
G02X-1971805Y-364839I311515J3481352D01*
G01X-2125010Y362856D02*
G03X-1998245Y306820I180083J235981D01*
G02X-1845845Y245860I-52085J-351192D01*
G02X-1771196Y146800I-116645J-165557D01*
G01X-1709461Y146800D02*
G03X-1754405Y253480I-149079J0D01*
G03X-1955065Y385560I-441529J-452320D01*
G03X-2021105Y403340I-102118J-247761D01*
G02X-2125010Y455356I35886J201468D01*
G01X-2041809Y-249843D02*
G03X-2203200Y-198900I-295202J-654107D01*
G01X-2203200Y-198900D02*
G03X-2432700Y-168300I-392614J-2068672D01*
G01X-1971805Y-364839D02*
G02X-2203200Y-265200I-24049J262658D01*
G01X-2544900Y-270300D02*
G02X-2624897Y-276370I-79997J524078D01*
G01X-2514300Y-239700D02*
G02X-2544900Y-270300I-36112J5512D01*
G01X-2432700Y-168300D02*
G03X-2514300Y-239700I1542J-84091D01*
G01X-1471804Y-404839D02*
G02X-1671804Y-404839I-100000J1117560D01*
G01X-1291804Y-444839D02*
G03X-1471804Y-404839I-152888J-262995D01*
G01X-1176880Y-459762D02*
G02X-1291804Y-444839I-39689J144340D01*
G01X-3221585Y1261550D02*
G03X-3121200Y1290300I0J189629D01*
G02X-2815200Y1259700I133185J-213446D01*
G01X-925117Y-14706D02*
G03X-974103Y-117285I120559J-120559D01*
G01X-974103Y-117285D02*
G02X-1101605Y-397789I-485596J51496D01*
G01X-1101605Y-397789D02*
G02X-1132205Y-407989I-24604J22811D01*
G03X-1162806Y-407989I-15300J-84228D01*
G02X-1231804Y-404839I-27628J152095D01*
G01X-1176880Y-459762D02*
G03X-1009804Y-402889I0J273848D01*
G01X-1009804Y-402889D02*
G03X-974103Y-331488I-55875J72563D01*
G02X-911945Y-125549I388570J-4932D01*
G01X-846602Y-494690D02*
G03X-858793Y-503908I2224J-15613D01*
G01X-860003Y-508172D01*
G01X-858793Y-503908D02*
G01X-846602Y-494690D01*
G01X-1550400Y1089666D02*
G02X-2453100Y1239300I0J2797691D01*
G01X-2453100Y1239300D02*
G03X-2815200Y1259700I-217584J-638281D01*
G01X-1551804Y-324839D02*
G02X-2041809Y-249843I-110591J915700D01*
G01X-1234481Y-307910D02*
G03X-1551804Y-324839I-32311J-2376853D01*
G01X-2151607Y-1193029D02*
G02X-2338044Y-1040459I0J190196D01*
G04 Track End*

M02*

